<?xml version="1.0" standalone="no"?>
<!DOCTYPE svg PUBLIC "-//W3C//DTD SVG 20010904//EN"
 "http://www.w3.org/TR/2001/REC-SVG-20010904/DTD/svg10.dtd">
<svg version="1.0" xmlns="http://www.w3.org/2000/svg"
 width="1084.000000pt" height="1084.000000pt" viewBox="0 0 1084.000000 1084.000000"
 preserveAspectRatio="xMidYMid meet">
<metadata>
Created by potrace 1.11, written by Peter Selinger 2001-2013
</metadata>
<g transform="translate(0.000000,1084.000000) scale(0.100000,-0.100000)"
fill="#000000" stroke="none">
<path d="M5709 10726 c-2 -2 -42 -7 -89 -10 -47 -3 -96 -8 -110 -11 -14 -2
-68 -11 -120 -20 -415 -70 -839 -259 -1230 -548 -52 -38 -97 -73 -100 -76 -3
-4 -32 -29 -65 -56 -33 -28 -72 -61 -86 -75 -89 -83 -152 -139 -195 -170 -154
-113 -500 -454 -669 -660 -20 -25 -45 -55 -55 -67 -50 -59 -206 -271 -277
-378 -74 -111 -213 -333 -213 -341 0 -2 -14 -27 -31 -56 -79 -133 -206 -398
-304 -634 -55 -132 -187 -502 -200 -562 -2 -9 -9 -33 -15 -52 -19 -61 -71
-262 -86 -335 -9 -38 -18 -79 -20 -90 -3 -11 -9 -42 -14 -70 -6 -27 -12 -61
-15 -75 -13 -65 -44 -249 -50 -305 -4 -27 -8 -60 -10 -73 -2 -13 -7 -56 -10
-95 -4 -40 -9 -83 -11 -97 -12 -78 -19 -293 -19 -580 1 -287 5 -399 20 -530 2
-19 7 -64 11 -100 3 -36 8 -72 9 -80 1 -8 6 -40 9 -70 4 -30 11 -77 16 -105 5
-27 12 -66 15 -85 76 -466 290 -1074 510 -1445 25 -42 45 -78 45 -81 0 -12
211 -320 230 -334 3 -3 13 -14 21 -26 51 -75 252 -284 360 -376 76 -64 187
-140 274 -188 33 -18 67 -37 75 -42 177 -98 548 -215 865 -272 89 -16 145 -26
185 -31 25 -3 52 -8 60 -10 8 -2 42 -6 75 -10 33 -3 71 -8 85 -10 37 -5 107
-13 175 -20 33 -3 76 -8 95 -10 19 -3 71 -7 115 -11 44 -3 88 -8 97 -10 10 -1
59 -6 110 -10 51 -3 101 -8 111 -10 11 -2 58 -6 105 -9 48 -4 98 -8 112 -10
14 -2 50 -7 80 -10 64 -6 146 -16 175 -20 11 -2 43 -6 70 -10 71 -9 77 -11
200 -72 142 -71 186 -101 548 -371 530 -398 750 -533 1065 -656 84 -33 271
-90 332 -101 14 -3 36 -7 50 -10 14 -3 50 -9 80 -14 188 -33 323 -42 413 -29
94 14 199 94 248 189 32 64 40 95 45 184 8 142 -39 264 -142 372 -26 27 -112
75 -160 89 -52 15 -68 17 -189 29 -225 21 -461 101 -680 230 -84 49 -287 192
-345 242 -179 156 -611 482 -715 539 -11 6 -47 27 -80 46 -33 19 -75 41 -93
49 -17 7 -32 16 -32 20 0 3 -8 14 -17 25 -128 141 -217 374 -289 754 -3 14
-14 72 -25 130 -73 387 -168 612 -326 776 -73 75 -135 122 -345 255 -188 120
-236 156 -327 249 -265 269 -482 680 -636 1205 -38 130 -71 246 -79 275 -4 14
-16 59 -27 100 -18 67 -45 169 -54 210 -54 239 -101 460 -111 525 -3 17 -9 53
-14 80 -16 82 -42 262 -55 375 -4 30 -8 66 -10 80 -4 26 -13 122 -21 218 -21
258 -20 613 2 817 36 339 106 607 220 839 39 80 61 110 123 171 327 318 770
568 1141 641 14 3 43 9 65 14 22 5 67 12 100 15 33 4 71 8 85 11 35 6 366 5
420 -1 58 -7 174 -23 225 -30 128 -20 406 -103 536 -161 425 -188 731 -448
966 -820 40 -63 158 -318 197 -426 71 -198 136 -449 161 -623 3 -23 7 -50 9
-60 2 -11 7 -49 11 -85 3 -36 8 -76 10 -90 23 -155 24 -762 1 -887 -2 -10 -7
-54 -12 -98 -4 -44 -8 -82 -9 -85 0 -3 -5 -32 -9 -65 -4 -32 -9 -66 -11 -75
-5 -29 -18 -105 -21 -125 -25 -178 -164 -702 -223 -840 -5 -11 -21 -54 -36
-95 -109 -298 -268 -613 -446 -881 -181 -273 -361 -481 -569 -657 -136 -115
-172 -154 -201 -217 -15 -33 -30 -80 -32 -104 -23 -260 274 -505 552 -456 122
21 251 114 482 344 148 148 280 301 365 421 21 30 41 57 44 60 3 3 40 59 83
125 42 66 81 125 87 132 5 7 10 14 10 17 0 2 23 44 51 93 66 113 206 394 248
498 18 44 39 94 46 110 61 135 224 632 250 764 2 9 12 52 24 96 24 96 72 324
86 415 3 19 8 42 10 50 2 8 6 38 10 65 3 28 10 75 15 105 13 83 21 150 34 305
4 44 9 97 11 118 5 50 18 365 18 452 0 95 -13 435 -18 460 -2 11 -7 54 -10 95
-6 69 -30 256 -39 306 -3 12 -7 38 -10 58 -32 202 -141 576 -217 743 -10 24
-19 45 -19 48 0 10 -119 249 -156 315 -70 123 -195 308 -265 395 -381 466
-840 784 -1407 974 -74 25 -147 47 -187 57 -5 1 -57 14 -115 28 -96 23 -199
42 -275 52 -16 2 -39 6 -50 8 -11 3 -54 8 -95 11 -41 4 -86 9 -100 12 -31 6
-485 15 -491 9z m-2344 -3516 c3 -52 8 -111 10 -130 2 -19 7 -64 10 -100 4
-36 8 -76 10 -90 2 -14 6 -50 10 -80 3 -30 8 -66 10 -80 2 -14 7 -45 10 -70 7
-54 9 -62 35 -220 24 -150 29 -177 35 -210 3 -14 8 -38 11 -55 3 -16 12 -61
20 -100 9 -38 17 -79 20 -90 6 -29 28 -129 29 -135 1 -3 5 -23 9 -45 5 -22 26
-112 48 -200 140 -568 292 -966 500 -1310 97 -161 102 -169 108 -175 3 -3 32
-41 64 -85 33 -44 62 -82 66 -85 3 -3 16 -18 29 -35 42 -56 197 -210 332 -330
198 -177 325 -306 402 -410 20 -27 41 -55 46 -61 16 -20 98 -168 123 -224 48
-105 136 -390 121 -390 -3 0 -60 26 -128 59 -334 160 -581 341 -853 626 -282
296 -504 616 -694 1005 -108 221 -109 223 -148 325 -17 44 -35 89 -40 100 -13
27 -99 281 -110 325 -4 19 -20 78 -35 130 -53 192 -110 484 -131 675 -3 33 -8
68 -10 78 -2 10 -6 62 -10 115 -3 54 -8 113 -10 132 -5 49 -5 497 0 540 2 19
7 76 11 125 7 88 10 118 20 200 6 42 16 110 20 135 7 42 19 106 20 110 1 3 5
25 9 50 9 54 17 83 21 78 2 -2 6 -46 10 -98z m-900 -1731 c8 -57 17 -117 20
-134 3 -16 10 -55 15 -85 6 -30 12 -64 14 -75 30 -140 40 -184 62 -270 14 -55
27 -107 29 -116 4 -20 65 -230 72 -249 3 -8 27 -76 53 -150 176 -502 465
-1042 762 -1425 44 -57 204 -250 238 -288 61 -68 253 -261 313 -315 32 -28 56
-52 52 -52 -19 0 -201 56 -289 89 -212 80 -359 175 -521 335 -111 111 -124
125 -180 201 -16 22 -32 42 -36 45 -14 12 -141 224 -186 310 -75 143 -159 346
-219 529 -30 90 -56 173 -58 185 -3 12 -16 66 -29 121 -34 133 -49 203 -62
280 -3 17 -10 55 -15 85 -5 30 -12 73 -15 95 -3 22 -8 56 -10 75 -12 82 -26
244 -32 355 -8 159 -6 572 3 563 2 -2 10 -51 19 -109z"/>
</g>
</svg>
