<svg width="40" height="40" viewBox="0 0 40 40" fill="none" xmlns="http://www.w3.org/2000/svg">
<path d="M17.9167 30.8333C17.5851 30.8333 17.2672 30.7016 17.0328 30.4672C16.7984 30.2328 16.6667 29.9148 16.6667 29.5833C16.6667 29.2518 16.7984 28.9339 17.0328 28.6994C17.2672 28.465 17.5851 28.3333 17.9167 28.3333H35.4167C35.7482 28.3333 36.0661 28.465 36.3005 28.6994C36.535 28.9339 36.6667 29.2518 36.6667 29.5833C36.6667 29.9148 36.535 30.2328 36.3005 30.4672C36.0661 30.7016 35.7482 30.8333 35.4167 30.8333H17.9167ZM4.58333 20.8333C4.25181 20.8333 3.93387 20.7016 3.69944 20.4672C3.46502 20.2328 3.33333 19.9148 3.33333 19.5833C3.33333 19.2518 3.46502 18.9338 3.69944 18.6994C3.93387 18.465 4.25181 18.3333 4.58333 18.3333H35.4167C35.7482 18.3333 36.0661 18.465 36.3005 18.6994C36.535 18.9338 36.6667 19.2518 36.6667 19.5833C36.6667 19.9148 36.535 20.2328 36.3005 20.4672C36.0661 20.7016 35.7482 20.8333 35.4167 20.8333H4.58333ZM4.58333 10.8333C4.25181 10.8333 3.93387 10.7016 3.69944 10.4672C3.46502 10.2328 3.33333 9.91483 3.33333 9.58331C3.33333 9.25179 3.46502 8.93385 3.69944 8.69943C3.93387 8.46501 4.25181 8.33331 4.58333 8.33331H22.0833C22.4148 8.33331 22.7328 8.46501 22.9672 8.69943C23.2016 8.93385 23.3333 9.25179 23.3333 9.58331C23.3333 9.91483 23.2016 10.2328 22.9672 10.4672C22.7328 10.7016 22.4148 10.8333 22.0833 10.8333H4.58333Z" fill="#35C3E2"/>
</svg>
