<svg width="170" height="40" viewBox="0 0 170 40" fill="none" xmlns="http://www.w3.org/2000/svg">
<path d="M0 0H167C168.657 0 170 1.34315 170 3V37C170 38.6569 168.657 40 167 40H0V0Z" fill="#4267B2"/>
<path d="M34 29.625C34 30.384 33.44 31 32.75 31H15.25C14.56 31 14 30.384 14 29.625V10.375C14 9.616 14.56 9 15.25 9H32.75C33.44 9 34 9.616 34 10.375V29.625Z" fill="white"/>
<path d="M27.75 31V22.75H30.25L30.875 19.3125H27.75V17.9375C27.75 16.5625 28.3763 15.875 29.625 15.875H30.875V12.4375C30.25 12.4375 29.475 12.4375 28.375 12.4375C26.0781 12.4375 24.625 14.4182 24.625 17.25V19.3125H22.125V22.75H24.625V31H27.75Z" fill="#4267B2"/>
<path d="M43.3262 21.8027C43.3262 21.4277 43.1934 21.1387 42.9277 20.9355C42.666 20.7324 42.1914 20.5273 41.5039 20.3203C40.8164 20.1133 40.2695 19.8828 39.8633 19.6289C39.0859 19.1406 38.6973 18.5039 38.6973 17.7188C38.6973 17.0312 38.9766 16.4648 39.5352 16.0195C40.0977 15.5742 40.8262 15.3516 41.7207 15.3516C42.3145 15.3516 42.8438 15.4609 43.3086 15.6797C43.7734 15.8984 44.1387 16.2109 44.4043 16.6172C44.6699 17.0195 44.8027 17.4668 44.8027 17.959H43.3262C43.3262 17.5137 43.1855 17.166 42.9043 16.916C42.627 16.6621 42.2285 16.5352 41.709 16.5352C41.2246 16.5352 40.8477 16.6387 40.5781 16.8457C40.3125 17.0527 40.1797 17.3418 40.1797 17.7129C40.1797 18.0254 40.3242 18.2871 40.6133 18.498C40.9023 18.7051 41.3789 18.9082 42.043 19.1074C42.707 19.3027 43.2402 19.5273 43.6426 19.7812C44.0449 20.0312 44.3398 20.3203 44.5273 20.6484C44.7148 20.9727 44.8086 21.3535 44.8086 21.791C44.8086 22.502 44.5352 23.0684 43.9883 23.4902C43.4453 23.9082 42.707 24.1172 41.7734 24.1172C41.1562 24.1172 40.5879 24.0039 40.0684 23.7773C39.5527 23.5469 39.1504 23.2305 38.8613 22.8281C38.5762 22.4258 38.4336 21.957 38.4336 21.4219H39.916C39.916 21.9062 40.0762 22.2812 40.3965 22.5469C40.7168 22.8125 41.1758 22.9453 41.7734 22.9453C42.2891 22.9453 42.6758 22.8418 42.9336 22.6348C43.1953 22.4238 43.3262 22.1465 43.3262 21.8027ZM47.4863 24H46.0625V17.6602H47.4863V24ZM45.9746 16.0137C45.9746 15.7949 46.043 15.6133 46.1797 15.4688C46.3203 15.3242 46.5195 15.252 46.7773 15.252C47.0352 15.252 47.2344 15.3242 47.375 15.4688C47.5156 15.6133 47.5859 15.7949 47.5859 16.0137C47.5859 16.2285 47.5156 16.4082 47.375 16.5527C47.2344 16.6934 47.0352 16.7637 46.7773 16.7637C46.5195 16.7637 46.3203 16.6934 46.1797 16.5527C46.043 16.4082 45.9746 16.2285 45.9746 16.0137ZM48.793 20.7832C48.793 19.7988 49.0234 19.0137 49.4844 18.4277C49.9492 17.8379 50.5645 17.543 51.3301 17.543C52.0527 17.543 52.6211 17.7949 53.0352 18.2988L53.0996 17.6602H54.3828V23.8066C54.3828 24.6387 54.123 25.2949 53.6035 25.7754C53.0879 26.2559 52.3906 26.4961 51.5117 26.4961C51.0469 26.4961 50.5918 26.3984 50.1465 26.2031C49.7051 26.0117 49.3691 25.7598 49.1387 25.4473L49.8125 24.5918C50.25 25.1113 50.7891 25.3711 51.4297 25.3711C51.9023 25.3711 52.2754 25.2422 52.5488 24.9844C52.8223 24.7305 52.959 24.3555 52.959 23.8594V23.4316C52.5488 23.8887 52.002 24.1172 51.3184 24.1172C50.5762 24.1172 49.9688 23.8223 49.4961 23.2324C49.0273 22.6426 48.793 21.8262 48.793 20.7832ZM50.2109 20.9062C50.2109 21.543 50.3398 22.0449 50.5977 22.4121C50.8594 22.7754 51.2207 22.957 51.6816 22.957C52.2559 22.957 52.6816 22.7109 52.959 22.2188V19.4297C52.6895 18.9492 52.2676 18.709 51.6934 18.709C51.2246 18.709 50.8594 18.8945 50.5977 19.2656C50.3398 19.6367 50.2109 20.1836 50.2109 20.9062ZM57.1719 17.6602L57.2129 18.3926C57.6816 17.8262 58.2969 17.543 59.0586 17.543C60.3789 17.543 61.0508 18.2988 61.0742 19.8105V24H59.6504V19.8926C59.6504 19.4902 59.5625 19.1934 59.3867 19.002C59.2148 18.8066 58.9316 18.709 58.5371 18.709C57.9629 18.709 57.5352 18.9688 57.2539 19.4883V24H55.8301V17.6602H57.1719ZM67.0332 24H65.6094V17.6602H67.0332V24ZM65.5215 16.0137C65.5215 15.7949 65.5898 15.6133 65.7266 15.4688C65.8672 15.3242 66.0664 15.252 66.3242 15.252C66.582 15.252 66.7812 15.3242 66.9219 15.4688C67.0625 15.6133 67.1328 15.7949 67.1328 16.0137C67.1328 16.2285 67.0625 16.4082 66.9219 16.5527C66.7812 16.6934 66.582 16.7637 66.3242 16.7637C66.0664 16.7637 65.8672 16.6934 65.7266 16.5527C65.5898 16.4082 65.5215 16.2285 65.5215 16.0137ZM69.9102 17.6602L69.9512 18.3926C70.4199 17.8262 71.0352 17.543 71.7969 17.543C73.1172 17.543 73.7891 18.2988 73.8125 19.8105V24H72.3887V19.8926C72.3887 19.4902 72.3008 19.1934 72.125 19.002C71.9531 18.8066 71.6699 18.709 71.2754 18.709C70.7012 18.709 70.2734 18.9688 69.9922 19.4883V24H68.5684V17.6602H69.9102ZM83.8262 22.0371L84.834 17.6602H86.2227L84.4941 24H83.3223L81.9629 19.6465L80.627 24H79.4551L77.7207 17.6602H79.1094L80.1348 21.9902L81.4355 17.6602H82.5078L83.8262 22.0371ZM88.6895 24H87.2656V17.6602H88.6895V24ZM87.1777 16.0137C87.1777 15.7949 87.2461 15.6133 87.3828 15.4688C87.5234 15.3242 87.7227 15.252 87.9805 15.252C88.2383 15.252 88.4375 15.3242 88.5781 15.4688C88.7188 15.6133 88.7891 15.7949 88.7891 16.0137C88.7891 16.2285 88.7188 16.4082 88.5781 16.5527C88.4375 16.6934 88.2383 16.7637 87.9805 16.7637C87.7227 16.7637 87.5234 16.6934 87.3828 16.5527C87.2461 16.4082 87.1777 16.2285 87.1777 16.0137ZM92.0293 16.1191V17.6602H93.1484V18.7148H92.0293V22.2539C92.0293 22.4961 92.0762 22.6719 92.1699 22.7812C92.2676 22.8867 92.4395 22.9395 92.6855 22.9395C92.8496 22.9395 93.0156 22.9199 93.1836 22.8809V23.9824C92.8594 24.0723 92.5469 24.1172 92.2461 24.1172C91.1523 24.1172 90.6055 23.5137 90.6055 22.3066V18.7148H89.5625V17.6602H90.6055V16.1191H92.0293ZM95.6445 18.3516C96.1094 17.8125 96.6973 17.543 97.4082 17.543C98.7598 17.543 99.4453 18.3145 99.4648 19.8574V24H98.041V19.9102C98.041 19.4727 97.9453 19.1641 97.7539 18.9844C97.5664 18.8008 97.2891 18.709 96.9219 18.709C96.3516 18.709 95.9258 18.9629 95.6445 19.4707V24H94.2207V15H95.6445V18.3516ZM108.951 20.3848H105.518V24H104.035V15.4688H109.455V16.6641H105.518V19.2012H108.951V20.3848ZM114.084 24C114.021 23.8789 113.967 23.6816 113.92 23.4082C113.467 23.8809 112.912 24.1172 112.256 24.1172C111.619 24.1172 111.1 23.9355 110.697 23.5723C110.295 23.209 110.094 22.7598 110.094 22.2246C110.094 21.5488 110.344 21.0312 110.844 20.6719C111.348 20.3086 112.066 20.127 113 20.127H113.873V19.7109C113.873 19.3828 113.781 19.1211 113.598 18.9258C113.414 18.7266 113.135 18.627 112.76 18.627C112.436 18.627 112.17 18.709 111.963 18.873C111.756 19.0332 111.652 19.2383 111.652 19.4883H110.229C110.229 19.1406 110.344 18.8164 110.574 18.5156C110.805 18.2109 111.117 17.9727 111.512 17.8008C111.91 17.6289 112.354 17.543 112.842 17.543C113.584 17.543 114.176 17.7305 114.617 18.1055C115.059 18.4766 115.285 19 115.297 19.6758V22.5352C115.297 23.1055 115.377 23.5605 115.537 23.9004V24H114.084ZM112.52 22.9746C112.801 22.9746 113.064 22.9062 113.311 22.7695C113.561 22.6328 113.748 22.4492 113.873 22.2188V21.0234H113.105C112.578 21.0234 112.182 21.1152 111.916 21.2988C111.65 21.4824 111.518 21.7422 111.518 22.0781C111.518 22.3516 111.607 22.5703 111.787 22.7344C111.971 22.8945 112.215 22.9746 112.52 22.9746ZM119.393 22.9805C119.748 22.9805 120.043 22.877 120.277 22.6699C120.512 22.4629 120.637 22.207 120.652 21.9023H121.994C121.979 22.2969 121.855 22.666 121.625 23.0098C121.395 23.3496 121.082 23.6191 120.688 23.8184C120.293 24.0176 119.867 24.1172 119.41 24.1172C118.523 24.1172 117.82 23.8301 117.301 23.2559C116.781 22.6816 116.521 21.8887 116.521 20.877V20.7305C116.521 19.7656 116.779 18.9941 117.295 18.416C117.811 17.834 118.514 17.543 119.404 17.543C120.158 17.543 120.771 17.7637 121.244 18.2051C121.721 18.6426 121.971 19.2188 121.994 19.9336H120.652C120.637 19.5703 120.512 19.2715 120.277 19.0371C120.047 18.8027 119.752 18.6855 119.393 18.6855C118.932 18.6855 118.576 18.8535 118.326 19.1895C118.076 19.5215 117.949 20.0273 117.945 20.707V20.9355C117.945 21.623 118.068 22.1367 118.314 22.4766C118.564 22.8125 118.924 22.9805 119.393 22.9805ZM125.861 24.1172C124.959 24.1172 124.227 23.834 123.664 23.2676C123.105 22.6973 122.826 21.9395 122.826 20.9941V20.8184C122.826 20.1855 122.947 19.6211 123.189 19.125C123.436 18.625 123.779 18.2363 124.221 17.959C124.662 17.6816 125.154 17.543 125.697 17.543C126.561 17.543 127.227 17.8184 127.695 18.3691C128.168 18.9199 128.404 19.6992 128.404 20.707V21.2812H124.262C124.305 21.8047 124.479 22.2188 124.783 22.5234C125.092 22.8281 125.479 22.9805 125.943 22.9805C126.596 22.9805 127.127 22.7168 127.537 22.1895L128.305 22.9219C128.051 23.3008 127.711 23.5957 127.285 23.8066C126.863 24.0137 126.389 24.1172 125.861 24.1172ZM125.691 18.6855C125.301 18.6855 124.984 18.8223 124.742 19.0957C124.504 19.3691 124.352 19.75 124.285 20.2383H126.998V20.1328C126.967 19.6562 126.84 19.2969 126.617 19.0547C126.395 18.8086 126.086 18.6855 125.691 18.6855ZM135.078 20.8945C135.078 21.8789 134.857 22.6621 134.416 23.2441C133.979 23.8262 133.375 24.1172 132.605 24.1172C131.863 24.1172 131.285 23.8496 130.871 23.3145L130.801 24H129.512V15H130.936V18.2695C131.346 17.7852 131.898 17.543 132.594 17.543C133.367 17.543 133.975 17.8301 134.416 18.4043C134.857 18.9785 135.078 19.7812 135.078 20.8125V20.8945ZM133.654 20.7715C133.654 20.084 133.533 19.5684 133.291 19.2246C133.049 18.8809 132.697 18.709 132.236 18.709C131.619 18.709 131.186 18.9785 130.936 19.5176V22.1309C131.189 22.6816 131.627 22.957 132.248 22.957C132.693 22.957 133.037 22.791 133.279 22.459C133.521 22.127 133.646 21.625 133.654 20.9531V20.7715ZM136.01 20.7715C136.01 20.1504 136.133 19.5918 136.379 19.0957C136.625 18.5957 136.971 18.2129 137.416 17.9473C137.861 17.6777 138.373 17.543 138.951 17.543C139.807 17.543 140.5 17.8184 141.031 18.3691C141.566 18.9199 141.855 19.6504 141.898 20.5605L141.904 20.8945C141.904 21.5195 141.783 22.0781 141.541 22.5703C141.303 23.0625 140.959 23.4434 140.51 23.7129C140.064 23.9824 139.549 24.1172 138.963 24.1172C138.068 24.1172 137.352 23.8203 136.812 23.2266C136.277 22.6289 136.01 21.834 136.01 20.8418V20.7715ZM137.434 20.8945C137.434 21.5469 137.568 22.0586 137.838 22.4297C138.107 22.7969 138.482 22.9805 138.963 22.9805C139.443 22.9805 139.816 22.793 140.082 22.418C140.352 22.043 140.486 21.4941 140.486 20.7715C140.486 20.1309 140.348 19.623 140.07 19.248C139.797 18.873 139.424 18.6855 138.951 18.6855C138.486 18.6855 138.117 18.8711 137.844 19.2422C137.57 19.6094 137.434 20.1602 137.434 20.8945ZM142.842 20.7715C142.842 20.1504 142.965 19.5918 143.211 19.0957C143.457 18.5957 143.803 18.2129 144.248 17.9473C144.693 17.6777 145.205 17.543 145.783 17.543C146.639 17.543 147.332 17.8184 147.863 18.3691C148.398 18.9199 148.688 19.6504 148.73 20.5605L148.736 20.8945C148.736 21.5195 148.615 22.0781 148.373 22.5703C148.135 23.0625 147.791 23.4434 147.342 23.7129C146.896 23.9824 146.381 24.1172 145.795 24.1172C144.9 24.1172 144.184 23.8203 143.645 23.2266C143.109 22.6289 142.842 21.834 142.842 20.8418V20.7715ZM144.266 20.8945C144.266 21.5469 144.4 22.0586 144.67 22.4297C144.939 22.7969 145.314 22.9805 145.795 22.9805C146.275 22.9805 146.648 22.793 146.914 22.418C147.184 22.043 147.318 21.4941 147.318 20.7715C147.318 20.1309 147.18 19.623 146.902 19.248C146.629 18.873 146.256 18.6855 145.783 18.6855C145.318 18.6855 144.949 18.8711 144.676 19.2422C144.402 19.6094 144.266 20.1602 144.266 20.8945ZM152 21.2812L151.367 21.9316V24H149.943V15H151.367V20.1914L151.812 19.6348L153.564 17.6602H155.275L152.92 20.3027L155.527 24H153.881L152 21.2812Z" fill="white"/>
</svg>
