<svg width="24" height="24" viewBox="0 0 24 24" fill="none" xmlns="http://www.w3.org/2000/svg">
<path d="M18.548 10.291L12.618 16.2199C12.5966 16.2486 12.5732 16.2757 12.548 16.301C12.4777 16.3713 12.3941 16.427 12.3021 16.4646C12.21 16.5022 12.1114 16.521 12.012 16.52C11.9127 16.5209 11.8143 16.5019 11.7225 16.4643C11.6306 16.4267 11.5471 16.3712 11.477 16.301C11.4526 16.2766 11.4298 16.2505 11.409 16.223L5.47699 10.291C5.33648 10.1502 5.25757 9.95937 5.25757 9.76046C5.25757 9.56155 5.33648 9.37074 5.47699 9.22994C5.61779 9.08943 5.80858 9.01058 6.00749 9.01058C6.20641 9.01058 6.3972 9.08943 6.53799 9.22994L12.013 14.706L17.488 9.22994C17.6288 9.08943 17.8196 9.01058 18.0185 9.01058C18.2174 9.01058 18.4082 9.08943 18.549 9.22994C18.6186 9.29969 18.6738 9.3826 18.7114 9.47372C18.749 9.56484 18.7682 9.66238 18.768 9.76095C18.768 9.85942 18.7485 9.95699 18.7108 10.0479C18.673 10.1389 18.6177 10.2214 18.548 10.291V10.291Z" fill="#3F4356" fill-opacity="0.7"/>
</svg>
