<svg width="1253" height="1206" viewBox="0 0 1253 1206" fill="none" xmlns="http://www.w3.org/2000/svg">
<g clip-path="url(#clip0)">
<path d="M520.267 892.673V1193.69L400.714 1179.48L255.384 1204.78L254.213 1204.98L138.579 1177.81V916.086L258.622 892.673L389.935 916.086L394.928 915.187L520.267 892.673Z" fill="#79808D"/>
<path d="M500.179 909.113V1178.45L393.213 1165.73L263.179 1188.36L262.131 1188.54L158.668 1164.23V930.059L266.08 909.113L383.565 930.059L388.034 929.256L500.179 909.113Z" fill="white"/>
<path opacity="0.1" d="M400.714 1179.48L255.384 1204.78L258.623 892.673L389.935 916.086L394.928 915.187L400.714 1179.48Z" fill="black"/>
<g opacity="0.3">
<path opacity="0.3" d="M386.201 950.369L386.26 1037.96H428.888V1002H501.893L510.468 992.621" stroke="#444053" stroke-width="3" stroke-miterlimit="10"/>
<path opacity="0.3" d="M148.868 978.172H307.374L317.174 974.409H321.093V1058.86H389.69L392.629 1066.39V1104.43H445.546V1151.47" stroke="#444053" stroke-width="3" stroke-miterlimit="10"/>
<path opacity="0.3" d="M342.03 1151.47V1058.86" stroke="#444053" stroke-width="3" stroke-miterlimit="10"/>
<path opacity="0.3" d="M510.468 1126.66H342.03" stroke="#444053" stroke-width="3" stroke-miterlimit="10"/>
<path opacity="0.3" d="M468.281 950.369V1151.47" stroke="#444053" stroke-width="3" stroke-miterlimit="10"/>
<path opacity="0.3" d="M148.378 1108.88H510.468" stroke="#444053" stroke-width="3" stroke-miterlimit="10"/>
<path opacity="0.3" d="M192.447 1151.47V950.369" stroke="#444053" stroke-width="3" stroke-miterlimit="10"/>
<path opacity="0.3" d="M276.614 950.369V1151.47" stroke="#444053" stroke-width="3" stroke-miterlimit="10"/>
<path opacity="0.3" d="M148.868 1001.17L428.887 1002" stroke="#444053" stroke-width="3" stroke-miterlimit="10"/>
<path opacity="0.3" d="M230.365 950.733V1151.47" stroke="#444053" stroke-width="3" stroke-miterlimit="10"/>
<path opacity="0.3" d="M148.378 1047.71H276.614L342.03 1108.88" stroke="#444053" stroke-width="3" stroke-miterlimit="10"/>
<path opacity="0.3" d="M356.2 950.369V1058.86" stroke="#444053" stroke-width="3" stroke-miterlimit="10"/>
<path opacity="0.3" d="M342.03 1078.29H510.468" stroke="#444053" stroke-width="3" stroke-miterlimit="10"/>
</g>
</g>
<path d="M722.905 50.2279L722.609 51.6984L722.905 50.2279ZM931.876 105.756L931.38 107.171L931.876 105.756ZM1227.08 327.343L1228.31 328.201L1227.08 327.343ZM862.255 333.141L862.404 331.648L862.255 333.141ZM270.426 337.368L270.335 335.871L270.318 335.871L270.302 335.873L270.426 337.368ZM33.8898 419.053L35.387 419.144L33.8898 419.053ZM169.185 547.23L168.608 548.614L168.608 548.614L169.185 547.23ZM452.607 579.564L452.609 578.064L452.607 579.564ZM410.33 33.3116L410.2 31.8172L410.33 33.3116ZM838.107 636.173L839.556 635.787L839.556 635.787L838.107 636.173ZM710.607 722.173L710.951 723.633L710.607 722.173ZM502.107 797.673L501.295 796.412L502.107 797.673ZM356.607 995.673L369.898 984.567L353.634 978.61L356.607 995.673ZM201.426 69.1643C201.802 70.6165 201.802 70.6165 201.802 70.6165C201.802 70.6165 201.802 70.6165 201.802 70.6165C201.802 70.6165 201.802 70.6164 201.802 70.6164C201.802 70.6164 201.802 70.6163 201.803 70.6162C201.803 70.616 201.804 70.6158 201.806 70.6154C201.809 70.6146 201.813 70.6134 201.82 70.6118C201.832 70.6086 201.851 70.6038 201.875 70.5975C201.925 70.5847 202 70.5655 202.099 70.5401C202.297 70.4893 202.594 70.4137 202.986 70.3145C203.77 70.1162 204.935 69.8239 206.457 69.4484L205.738 66.5358C204.211 66.9127 203.04 67.2064 202.251 67.4061C201.856 67.506 201.557 67.5823 201.355 67.6337C201.255 67.6594 201.179 67.6789 201.128 67.6921C201.102 67.6986 201.083 67.7036 201.07 67.7069C201.064 67.7086 201.059 67.7098 201.056 67.7107C201.054 67.7111 201.053 67.7115 201.052 67.7117C201.051 67.7118 201.051 67.7119 201.051 67.7119C201.051 67.712 201.051 67.712 201.051 67.712C201.05 67.712 201.05 67.712 201.05 67.712C201.05 67.712 201.05 67.7121 201.426 69.1643ZM215.805 67.1915C218.562 66.5388 221.692 65.8082 225.163 65.0136L224.494 62.0893C221.015 62.8856 217.878 63.6178 215.113 64.2722L215.805 67.1915ZM234.588 62.8899C237.55 62.2328 240.682 61.5472 243.974 60.8385L243.342 57.9057C240.045 58.6157 236.906 59.3027 233.938 59.9612L234.588 62.8899ZM253.417 58.8356C256.453 58.2014 259.595 57.5542 262.836 56.8975L262.24 53.9572C258.994 54.6152 255.846 55.2636 252.804 55.899L253.417 58.8356ZM272.3 55.0091C275.387 54.4026 278.549 53.791 281.78 53.1766L281.219 50.2295C277.983 50.845 274.815 51.4578 271.722 52.0653L272.3 55.0091ZM291.234 51.4084C294.339 50.8374 297.499 50.266 300.709 49.6963L300.185 46.7425C296.969 47.3133 293.803 47.8857 290.691 48.4579L291.234 51.4084ZM310.2 48.0426C313.328 47.5078 316.497 46.9761 319.703 46.4494L319.217 43.4891C316.004 44.0169 312.829 44.5496 309.694 45.0855L310.2 48.0426ZM329.217 44.9187C332.362 44.4236 335.538 43.9344 338.741 43.4528L338.295 40.4861C335.085 40.9688 331.902 41.459 328.75 41.9552L329.217 44.9187ZM348.274 42.0539C351.433 41.6019 354.615 41.1584 357.816 40.7246L357.414 37.7518C354.205 38.1865 351.015 38.6311 347.849 39.0841L348.274 42.0539ZM367.368 39.4679C370.54 39.0631 373.728 38.669 376.929 38.2869L376.573 35.3081C373.364 35.6912 370.168 36.0863 366.988 36.492L367.368 39.4679ZM386.498 37.1853C389.682 36.8326 392.876 36.4928 396.076 36.1671L395.773 33.1825C392.563 33.5091 389.36 33.8499 386.168 34.2035L386.498 37.1853ZM405.663 35.2367C407.261 35.0892 408.86 34.9456 410.461 34.8059L410.2 31.8172C408.595 31.9574 406.99 32.1015 405.387 32.2494L405.663 35.2367ZM410.461 34.8059C412.085 34.664 413.712 34.5262 415.339 34.3926L415.093 31.4027C413.461 31.5367 411.83 31.6749 410.2 31.8172L410.461 34.8059ZM425.108 33.6401C428.364 33.4058 431.623 33.1875 434.885 32.985L434.699 29.9908C431.427 30.1939 428.158 30.4128 424.893 30.6479L425.108 33.6401ZM444.668 32.4248C447.929 32.2536 451.192 32.0978 454.456 31.9571L454.327 28.9599C451.054 29.101 447.781 29.2572 444.511 29.4289L444.668 32.4248ZM464.248 31.5801C467.514 31.4692 470.779 31.3732 474.043 31.2917L473.968 28.2926C470.695 28.3744 467.421 28.4707 464.146 28.5818L464.248 31.5801ZM483.84 31.0902C487.109 31.0372 490.376 30.9986 493.64 30.974L493.617 27.974C490.345 27.9988 487.069 28.0375 483.792 28.0905L483.84 31.0902ZM503.44 30.9417C506.712 30.9448 509.979 30.9617 513.241 30.9921L513.269 27.9922C509.999 27.9617 506.723 27.9448 503.443 27.9417L503.44 30.9417ZM523.042 31.1241C526.314 31.1817 529.581 31.2526 532.841 31.3367L532.918 28.3377C529.65 28.2534 526.375 28.1823 523.094 28.1245L523.042 31.1241ZM542.638 31.6292C545.912 31.7402 549.177 31.8642 552.433 32.0008L552.559 29.0035C549.295 28.8665 546.021 28.7422 542.74 28.6309L542.638 31.6292ZM562.224 32.4512C565.497 32.615 568.76 32.7913 572.011 32.98L572.185 29.9851C568.926 29.7959 565.655 29.6191 562.374 29.455L562.224 32.4512ZM581.794 33.5871C585.067 33.8033 588.326 34.0318 591.572 34.2724L591.793 31.2806C588.54 31.0395 585.272 30.8104 581.992 30.5936L581.794 33.5871ZM601.343 35.0362C604.614 35.3052 607.87 35.5862 611.108 35.8789L611.378 32.8911C608.132 32.5976 604.868 32.3159 601.589 32.0463L601.343 35.0362ZM620.866 36.8012C624.135 37.1237 627.385 37.458 630.616 37.8038L630.935 34.8208C627.696 34.4742 624.438 34.139 621.161 33.8157L620.866 36.8012ZM640.356 38.8879C643.623 39.2655 646.866 39.6547 650.087 40.055L650.457 37.0779C647.228 36.6765 643.975 36.2863 640.701 35.9078L640.356 38.8879ZM659.806 41.3066C663.068 41.7415 666.304 42.1877 669.512 42.6449L669.935 39.675C666.718 39.2165 663.473 38.769 660.202 38.3329L659.806 41.3066ZM679.203 44.0723C682.46 44.5677 685.685 45.0743 688.877 45.5916L689.357 42.6302C686.155 42.1113 682.92 41.6032 679.654 41.1064L679.203 44.0723ZM698.54 47.2076C701.796 47.7695 705.015 48.3425 708.194 48.926L708.736 45.9753C705.546 45.3898 702.317 44.815 699.05 44.2513L698.54 47.2076ZM717.825 50.7497C719.431 51.0633 721.026 51.3795 722.609 51.6984L723.201 48.7574C721.612 48.4374 720.012 48.12 718.4 47.8053L717.825 50.7497ZM722.609 51.6984C724.257 52.0303 725.882 52.3574 727.485 52.6802L728.077 49.7391C726.474 49.4164 724.849 49.0893 723.201 48.7574L722.609 51.6984ZM737.123 54.6192C740.422 55.2831 743.627 55.9282 746.744 56.5569L747.337 53.6161C744.219 52.9873 741.014 52.3421 737.714 51.6781L737.123 54.6192ZM756.397 58.5088C759.71 59.1809 762.924 59.8354 766.048 60.4758L766.651 57.5369C763.524 56.896 760.308 56.2411 756.993 55.5687L756.397 58.5088ZM775.648 62.4581C778.955 63.1467 782.165 63.8221 785.295 64.4892L785.92 61.5551C782.785 60.8869 779.57 60.2105 776.26 59.5211L775.648 62.4581ZM794.886 66.5641C798.154 67.2825 801.345 67.9969 804.48 68.7139L805.149 65.7893C802.004 65.0704 798.805 64.3541 795.531 63.6341L794.886 66.5641ZM814.046 70.9514C817.252 71.7194 820.422 72.4975 823.579 73.2934L824.312 70.3844C821.143 69.5855 817.962 68.8045 814.745 68.0339L814.046 70.9514ZM833.086 75.754C836.222 76.5873 839.371 77.4455 842.557 78.3361L843.364 75.4468C840.166 74.5528 837.005 73.6912 833.856 72.8546L833.086 75.754ZM851.99 81.0363C855.07 81.9377 858.202 82.874 861.409 83.8513L862.283 80.9816C859.067 80.0013 855.924 79.0618 852.833 78.1571L851.99 81.0363ZM870.784 86.759C873.824 87.7175 876.941 88.7143 880.148 89.7537L881.073 86.8998C877.859 85.8581 874.735 84.8589 871.686 83.8978L870.784 86.759ZM889.475 92.8122C892.504 93.8163 895.617 94.8578 898.823 95.94L899.783 93.0976C896.571 92.0138 893.453 90.9705 890.419 89.9645L889.475 92.8122ZM908.121 99.1013C911.13 100.132 914.221 101.196 917.402 102.298L918.383 99.4628C915.2 98.3604 912.106 97.2946 909.092 96.263L908.121 99.1013ZM926.685 105.527C928.229 106.067 929.794 106.615 931.38 107.171L932.373 104.34C930.786 103.784 929.22 103.235 927.674 102.695L926.685 105.527ZM931.38 107.171C932.919 107.711 934.44 108.246 935.943 108.776L936.941 105.947C935.436 105.416 933.914 104.881 932.373 104.34L931.38 107.171ZM944.962 111.975C948.038 113.072 951.037 114.148 953.964 115.206L954.983 112.384C952.052 111.325 949.049 110.248 945.97 109.149L944.962 111.975ZM962.94 118.469C966.015 119.595 969.009 120.699 971.928 121.784L972.973 118.972C970.049 117.885 967.051 116.779 963.972 115.652L962.94 118.469ZM980.905 125.145C983.959 126.298 986.932 127.43 989.833 128.545L990.908 125.744C988.002 124.628 985.024 123.494 981.964 122.339L980.905 125.145ZM998.763 132.004C1001.8 133.191 1004.76 134.36 1007.66 135.514L1008.77 132.727C1005.86 131.57 1002.9 130.399 999.855 129.21L998.763 132.004ZM1016.54 139.083C1019.54 140.3 1022.48 141.505 1025.39 142.701L1026.53 139.928C1023.62 138.729 1020.67 137.522 1017.67 136.303L1016.54 139.083ZM1034.23 146.379C1037.19 147.62 1040.12 148.858 1043.04 150.098L1044.22 147.337C1041.29 146.095 1038.35 144.855 1035.39 143.612L1034.23 146.379ZM1051.85 153.854C1054.77 155.104 1057.69 156.363 1060.64 157.634L1061.83 154.879C1058.88 153.607 1055.95 152.348 1053.03 151.096L1051.85 153.854ZM1069.43 161.425C1072.32 162.672 1075.25 163.936 1078.23 165.222L1079.42 162.467C1076.44 161.182 1073.51 159.918 1070.62 158.671L1069.43 161.425ZM1087.03 169.005C1089.9 170.238 1092.83 171.493 1095.84 172.774L1097.01 170.015C1094.01 168.735 1091.08 167.48 1088.21 166.248L1087.03 169.005ZM1104.65 176.52C1107.53 177.737 1110.47 178.98 1113.5 180.249L1114.66 177.483C1111.64 176.215 1108.69 174.974 1105.82 173.757L1104.65 176.52ZM1122.32 183.934C1123.79 184.544 1125.27 185.161 1126.78 185.784L1127.92 183.012C1126.42 182.39 1124.94 181.774 1123.47 181.164L1122.32 183.934ZM1126.78 185.784C1128.31 186.418 1129.83 187.064 1131.35 187.72L1132.54 184.966C1131.01 184.304 1129.47 183.652 1127.92 183.012L1126.78 185.784ZM1140.41 191.797C1143.42 193.209 1146.39 194.663 1149.33 196.157L1150.69 193.483C1147.72 191.974 1144.72 190.506 1141.68 189.081L1140.41 191.797ZM1158.11 200.803C1161.02 202.41 1163.89 204.056 1166.71 205.738L1168.25 203.163C1165.4 201.462 1162.5 199.799 1159.56 198.175L1158.11 200.803ZM1175.14 210.988C1177.94 212.808 1180.68 214.665 1183.35 216.556L1185.08 214.108C1182.38 212.193 1179.61 210.314 1176.77 208.472L1175.14 210.988ZM1191.3 222.461C1193.94 224.521 1196.5 226.615 1198.97 228.74L1200.92 226.468C1198.42 224.309 1195.82 222.183 1193.14 220.094L1191.3 222.461ZM1206.27 235.399C1208.68 237.735 1210.98 240.102 1213.15 242.497L1215.37 240.482C1213.16 238.036 1210.81 235.622 1208.35 233.243L1206.27 235.399ZM1219.49 250.046C1221.54 252.697 1223.43 255.374 1225.15 258.072L1227.68 256.462C1225.91 253.68 1223.97 250.928 1221.86 248.209L1219.49 250.046ZM1229.97 266.627C1231.43 269.623 1232.67 272.638 1233.68 275.664L1236.53 274.718C1235.48 271.555 1234.18 268.417 1232.66 265.308L1229.97 266.627ZM1236.03 285.104C1236.55 288.319 1236.8 291.543 1236.74 294.768L1239.74 294.818C1239.8 291.407 1239.54 288.005 1238.99 284.619L1236.03 285.104ZM1235.68 304.385C1235.04 307.477 1234.11 310.57 1232.86 313.658L1235.65 314.777C1236.95 311.526 1237.94 308.262 1238.61 304.992L1235.68 304.385ZM1228.51 322.37C1227.69 323.743 1226.8 325.115 1225.85 326.484L1228.31 328.201C1229.3 326.776 1230.23 325.346 1231.09 323.912L1228.51 322.37ZM1225.85 326.484C1224.93 327.798 1223.95 329.062 1222.92 330.276L1225.2 332.22C1226.3 330.933 1227.33 329.594 1228.31 328.201L1225.85 326.484ZM1216.07 336.945C1213.64 338.921 1210.99 340.728 1208.12 342.375L1209.61 344.977C1212.61 343.255 1215.4 341.358 1217.96 339.274L1216.07 336.945ZM1199.47 346.598C1196.59 347.794 1193.53 348.871 1190.31 349.836L1191.17 352.71C1194.48 351.719 1197.63 350.608 1200.62 349.37L1199.47 346.598ZM1180.87 352.246C1177.8 352.908 1174.6 353.49 1171.28 353.995L1171.74 356.961C1175.11 356.447 1178.36 355.855 1181.5 355.179L1180.87 352.246ZM1161.58 355.223C1158.42 355.548 1155.16 355.815 1151.81 356.029L1152 359.022C1155.39 358.807 1158.69 358.536 1161.89 358.207L1161.58 355.223ZM1142.01 356.492C1138.82 356.595 1135.54 356.655 1132.19 356.676L1132.21 359.676C1135.58 359.655 1138.88 359.594 1142.11 359.491L1142.01 356.492ZM1122.36 356.629C1119.15 356.581 1115.87 356.501 1112.53 356.391L1112.43 359.39C1115.79 359.5 1119.09 359.58 1122.32 359.629L1122.36 356.629ZM1102.68 355.993C1099.45 355.839 1096.17 355.661 1092.83 355.46L1092.65 358.455C1096 358.656 1099.3 358.835 1102.54 358.99L1102.68 355.993ZM1083.02 354.818C1079.81 354.591 1076.54 354.345 1073.23 354.083L1072.99 357.073C1076.31 357.337 1079.59 357.583 1082.81 357.811L1083.02 354.818ZM1063.41 353.266C1060.17 352.985 1056.89 352.689 1053.57 352.38L1053.29 355.367C1056.62 355.677 1059.91 355.973 1063.15 356.255L1063.41 353.266ZM1043.77 351.443C1040.55 351.127 1037.29 350.799 1033.99 350.462L1033.68 353.446C1036.99 353.784 1040.25 354.112 1043.48 354.429L1043.77 351.443ZM1024.17 349.439C1020.93 349.096 1017.66 348.745 1014.35 348.386L1014.03 351.368C1017.34 351.728 1020.61 352.079 1023.85 352.422L1024.17 349.439ZM1004.59 347.315C1001.35 346.956 998.074 346.591 994.771 346.22L994.436 349.201C997.74 349.572 1001.01 349.938 1004.26 350.297L1004.59 347.315ZM984.97 345.114C981.74 344.748 978.482 344.377 975.197 344.002L974.857 346.983C978.143 347.358 981.402 347.728 984.632 348.095L984.97 345.114ZM965.361 342.88C962.132 342.511 958.877 342.139 955.597 341.765L955.257 344.745C958.537 345.12 961.791 345.492 965.02 345.86L965.361 342.88ZM945.793 340.648C942.546 340.279 939.275 339.909 935.98 339.537L935.644 342.518C938.938 342.89 942.208 343.26 945.454 343.629L945.793 340.648ZM926.204 338.438C922.943 338.074 919.659 337.708 916.352 337.343L916.023 340.325C919.328 340.69 922.61 341.055 925.871 341.42L926.204 338.438ZM906.598 336.272C903.341 335.917 900.062 335.563 896.762 335.209L896.442 338.192C899.74 338.545 903.017 338.9 906.273 339.255L906.598 336.272ZM886.979 334.169C883.725 333.826 880.45 333.485 877.155 333.145L876.848 336.129C880.14 336.469 883.412 336.81 886.665 337.152L886.979 334.169ZM867.35 332.144C865.706 331.979 864.057 331.813 862.404 331.648L862.106 334.634C863.758 334.798 865.406 334.964 867.049 335.129L867.35 332.144ZM862.404 331.648C860.81 331.49 859.204 331.334 857.586 331.181L857.303 334.167C858.917 334.32 860.518 334.475 862.106 334.634L862.404 331.648ZM847.731 330.295C844.491 330.019 841.207 329.753 837.882 329.497L837.651 332.488C840.969 332.743 844.245 333.008 847.476 333.284L847.731 330.295ZM828.017 328.775C824.763 328.548 821.472 328.331 818.148 328.123L817.96 331.117C821.278 331.325 824.562 331.542 827.809 331.767L828.017 328.775ZM808.295 327.536C805.024 327.351 801.723 327.173 798.393 327.004L798.241 330C801.565 330.169 804.86 330.346 808.126 330.531L808.295 327.536ZM788.562 326.53C785.273 326.379 781.96 326.236 778.622 326.1L778.5 329.097C781.832 329.233 785.141 329.376 788.425 329.526L788.562 326.53ZM768.814 325.721C765.523 325.601 762.211 325.488 758.88 325.381L758.783 328.379C762.11 328.486 765.418 328.6 768.705 328.719L768.814 325.721ZM749.051 325.083C745.77 324.991 742.472 324.903 739.159 324.822L739.085 327.821C742.395 327.902 745.689 327.99 748.966 328.082L749.051 325.083ZM729.276 324.596C726.003 324.526 722.716 324.462 719.417 324.403L719.363 327.402C722.659 327.462 725.943 327.526 729.213 327.595L729.276 324.596ZM709.496 324.241C706.227 324.192 702.947 324.148 699.657 324.109L699.621 327.109C702.908 327.148 706.185 327.192 709.452 327.24L709.496 324.241ZM689.76 324.005C686.477 323.975 683.186 323.95 679.888 323.928L679.868 326.928C683.164 326.949 686.452 326.975 689.733 327.005L689.76 324.005ZM670.015 323.877C666.721 323.864 663.423 323.855 660.119 323.85L660.115 326.85C663.416 326.855 666.712 326.864 670.003 326.877L670.015 323.877ZM650.255 323.846C646.963 323.848 643.668 323.855 640.371 323.865L640.38 326.865C643.675 326.855 646.968 326.848 650.257 326.846L650.255 323.846ZM630.493 323.905C627.201 323.922 623.909 323.942 620.617 323.966L620.638 326.965C623.929 326.942 627.219 326.922 630.508 326.905L630.493 323.905ZM610.739 324.046C607.443 324.076 604.149 324.11 600.857 324.146L600.89 327.146C604.18 327.11 607.473 327.076 610.767 327.046L610.739 324.046ZM590.989 324.264C587.689 324.307 584.393 324.352 581.102 324.401L581.146 327.4C584.435 327.352 587.73 327.307 591.027 327.264L590.989 324.264ZM571.226 324.554C567.932 324.608 564.645 324.665 561.364 324.724L561.419 327.724C564.697 327.664 567.983 327.608 571.275 327.554L571.226 324.554ZM551.465 324.911C548.174 324.976 544.891 325.043 541.618 325.113L541.681 328.112C544.953 328.042 548.234 327.975 551.524 327.91L551.465 324.911ZM531.717 325.331C528.415 325.406 525.125 325.484 521.848 325.563L521.921 328.563C525.196 328.483 528.485 328.405 531.785 328.33L531.717 325.331ZM511.988 325.81C508.672 325.896 505.37 325.983 502.084 326.072L502.166 329.071C505.45 328.982 508.75 328.895 512.065 328.809L511.988 325.81ZM492.276 326.346C488.943 326.441 485.629 326.538 482.333 326.637L482.423 329.635C485.717 329.537 489.03 329.44 492.362 329.345L492.276 326.346ZM472.501 326.938C469.177 327.042 465.875 327.147 462.596 327.254L462.694 330.252C465.971 330.146 469.272 330.04 472.595 329.936L472.501 326.938ZM452.733 327.582C449.419 327.694 446.131 327.807 442.871 327.922L442.977 330.92C446.235 330.806 449.522 330.692 452.835 330.58L452.733 327.582ZM432.974 328.276C429.668 328.396 426.393 328.518 423.151 328.64L423.264 331.637C426.504 331.516 429.778 331.394 433.083 331.274L432.974 328.276ZM413.224 329.019C409.918 329.148 406.651 329.277 403.425 329.406L403.545 332.403C406.77 332.274 410.036 332.145 413.34 332.017L413.224 329.019ZM393.48 329.81C390.164 329.947 386.897 330.084 383.68 330.221L383.807 333.218C387.023 333.081 390.289 332.945 393.603 332.808L393.48 329.81ZM373.747 330.648C370.405 330.794 367.123 330.94 363.906 331.084L364.041 334.081C367.257 333.937 370.537 333.791 373.878 333.645L373.747 330.648ZM354.047 331.532C350.656 331.688 347.346 331.843 344.122 331.995L344.264 334.992C347.486 334.84 350.795 334.685 354.185 334.529L354.047 331.532ZM334.4 332.461C330.955 332.628 327.625 332.792 324.417 332.952L324.566 335.948C327.773 335.788 331.102 335.625 334.545 335.458L334.4 332.461ZM314.505 333.452C311.047 333.629 307.766 333.799 304.671 333.962L304.828 336.958C307.922 336.795 311.202 336.625 314.658 336.448L314.505 333.452ZM294.834 334.486C291.136 334.686 287.819 334.869 284.909 335.031L285.077 338.026C287.985 337.864 291.3 337.681 294.996 337.482L294.834 334.486ZM275.187 335.584C273.597 335.676 272.385 335.748 271.569 335.796C271.161 335.821 270.853 335.839 270.646 335.852C270.543 335.858 270.465 335.863 270.413 335.866C270.387 335.867 270.367 335.869 270.354 335.869C270.348 335.87 270.343 335.87 270.34 335.87C270.338 335.87 270.337 335.87 270.336 335.87C270.335 335.87 270.335 335.87 270.335 335.87C270.335 335.87 270.335 335.87 270.335 335.87C270.335 335.87 270.335 335.87 270.335 335.87C270.335 335.871 270.335 335.871 270.426 337.368C270.517 338.865 270.517 338.865 270.517 338.865C270.517 338.865 270.517 338.865 270.517 338.865C270.517 338.865 270.517 338.865 270.517 338.865C270.517 338.865 270.518 338.865 270.518 338.865C270.519 338.865 270.52 338.865 270.522 338.865C270.525 338.864 270.53 338.864 270.536 338.864C270.549 338.863 270.568 338.862 270.594 338.86C270.646 338.857 270.724 338.852 270.827 338.846C271.032 338.834 271.34 338.815 271.747 338.791C272.561 338.743 273.773 338.671 275.361 338.579L275.187 335.584ZM270.426 337.368C270.302 335.873 270.302 335.873 270.302 335.873C270.302 335.873 270.302 335.873 270.302 335.873C270.302 335.873 270.302 335.873 270.302 335.873C270.301 335.873 270.301 335.873 270.3 335.873C270.3 335.873 270.298 335.873 270.296 335.873C270.293 335.874 270.288 335.874 270.281 335.875C270.267 335.876 270.247 335.877 270.219 335.88C270.165 335.884 270.085 335.891 269.978 335.9C269.765 335.918 269.449 335.946 269.034 335.983C268.204 336.056 266.979 336.168 265.396 336.319L265.68 339.305C267.257 339.155 268.476 339.044 269.3 338.971C269.711 338.934 270.025 338.907 270.234 338.889C270.339 338.88 270.419 338.874 270.471 338.869C270.498 338.867 270.517 338.865 270.53 338.864C270.537 338.864 270.542 338.863 270.545 338.863C270.547 338.863 270.548 338.863 270.548 338.863C270.549 338.863 270.549 338.863 270.549 338.863C270.549 338.863 270.549 338.863 270.549 338.863C270.549 338.863 270.549 338.863 270.549 338.863C270.549 338.863 270.549 338.863 270.426 337.368ZM255.324 337.341C252.382 337.657 249.063 338.025 245.42 338.45L245.767 341.43C249.401 341.006 252.71 340.639 255.644 340.324L255.324 337.341ZM235.407 339.663C232.226 340.063 228.882 340.497 225.397 340.966L225.798 343.94C229.273 343.471 232.609 343.039 235.781 342.64L235.407 339.663ZM215.464 342.349C212.238 342.813 208.923 343.305 205.533 343.824L205.987 346.79C209.367 346.272 212.674 345.782 215.891 345.319L215.464 342.349ZM195.608 345.394C192.351 345.926 189.043 346.482 185.695 347.064L186.209 350.019C189.546 349.439 192.844 348.885 196.091 348.355L195.608 345.394ZM175.813 348.836C172.547 349.441 169.256 350.069 165.95 350.722L166.531 353.665C169.825 353.015 173.105 352.389 176.359 351.786L175.813 348.836ZM156.103 352.732C152.83 353.422 149.552 354.137 146.279 354.877L146.94 357.803C150.198 357.067 153.462 356.355 156.723 355.667L156.103 352.732ZM136.483 357.171C133.211 357.965 129.955 358.785 126.725 359.63L127.485 362.533C130.697 361.691 133.936 360.876 137.191 360.086L136.483 357.171ZM117.014 362.277C113.756 363.202 110.535 364.155 107.363 365.137L108.25 368.003C111.398 367.028 114.596 366.082 117.833 365.163L117.014 362.277ZM97.7841 368.245C94.5507 369.346 91.3837 370.48 88.2962 371.647L89.3576 374.453C92.4112 373.298 95.5466 372.176 98.7509 371.085L97.7841 368.245ZM78.9262 375.406C75.7407 376.764 72.6659 378.164 69.7194 379.608L71.0391 382.302C73.9338 380.884 76.9605 379.505 80.1026 378.166L78.9262 375.406ZM60.7576 384.371C57.7032 386.141 54.8398 387.972 52.1958 389.866L53.943 392.305C56.4983 390.474 59.2791 388.695 62.2615 386.967L60.7576 384.371ZM44.3301 396.325C41.6902 398.849 39.4243 401.483 37.5954 404.234L40.0935 405.895C41.7801 403.359 43.8951 400.891 46.4031 398.494L44.3301 396.325ZM33.2365 413.72C32.7861 415.432 32.5013 417.18 32.3926 418.962L35.387 419.144C35.4836 417.563 35.7363 416.009 36.1378 414.483L33.2365 413.72ZM32.3926 418.962C32.2893 420.654 32.2509 422.337 32.2756 424.008L35.2753 423.964C35.2517 422.368 35.2884 420.762 35.387 419.144L32.3926 418.962ZM33.1915 434.053C33.7483 437.364 34.5509 440.626 35.5834 443.84L38.4396 442.922C37.4496 439.841 36.6819 436.719 36.15 433.556L33.1915 434.053ZM39.2849 453.186C40.6908 456.168 42.2923 459.105 44.0752 461.995L46.6284 460.419C44.9007 457.619 43.3535 454.781 41.9985 451.907L39.2849 453.186ZM49.7373 470.241C51.712 472.849 53.8328 475.419 56.0885 477.948L58.3276 475.952C56.1217 473.478 54.0524 470.97 52.1292 468.43L49.7373 470.241ZM62.9842 485.16C65.3134 487.441 67.7506 489.688 70.287 491.902L72.2596 489.642C69.7637 487.463 67.3688 485.255 65.0831 483.017L62.9842 485.16ZM77.943 498.251C80.5055 500.274 83.149 502.268 85.8664 504.232L87.6238 501.801C84.9389 499.86 82.3294 497.892 79.8021 495.896L77.943 498.251ZM94.0187 509.893C96.738 511.709 99.5183 513.499 102.353 515.261L103.937 512.713C101.128 510.967 98.3756 509.195 95.6849 507.398L94.0187 509.893ZM110.852 520.372C113.682 522.019 116.557 523.642 119.473 525.24L120.915 522.609C118.021 521.023 115.168 519.413 112.361 517.779L110.852 520.372ZM128.218 529.898C131.132 531.407 134.079 532.892 137.054 534.354L138.377 531.662C135.42 530.209 132.492 528.733 129.598 527.234L128.218 529.898ZM145.979 538.63C148.96 540.023 151.963 541.394 154.983 542.74L156.205 540C153.2 538.661 150.213 537.298 147.25 535.913L145.979 538.63ZM164.05 546.692C165.566 547.339 167.086 547.979 168.608 548.614L169.763 545.845C168.248 545.213 166.735 544.576 165.226 543.933L164.05 546.692ZM168.608 548.614C170.188 549.273 171.778 549.919 173.377 550.551L174.48 547.761C172.898 547.135 171.326 546.497 169.763 545.845L168.608 548.614ZM183.029 554.172C186.25 555.317 189.506 556.414 192.793 557.463L193.705 554.606C190.449 553.566 187.224 552.479 184.034 551.345L183.029 554.172ZM202.645 560.445C205.929 561.386 209.241 562.283 212.579 563.14L213.325 560.234C210.013 559.384 206.728 558.494 203.471 557.561L202.645 560.445ZM222.581 565.567C225.911 566.331 229.265 567.057 232.64 567.746L233.24 564.807C229.888 564.122 226.558 563.401 223.252 562.643L222.581 565.567ZM242.743 569.695C246.103 570.305 249.482 570.883 252.878 571.429L253.354 568.467C249.977 567.924 246.619 567.35 243.28 566.743L242.743 569.695ZM263.041 572.965C266.423 573.445 269.82 573.896 273.23 574.32L273.6 571.343C270.206 570.921 266.827 570.472 263.463 569.995L263.041 572.965ZM283.438 575.507C286.836 575.875 290.244 576.219 293.662 576.54L293.943 573.553C290.538 573.233 287.144 572.891 283.762 572.524L283.438 575.507ZM303.898 577.431C307.305 577.705 310.721 577.959 314.142 578.193L314.347 575.2C310.937 574.967 307.534 574.714 304.139 574.441L303.898 577.431ZM324.393 578.837C327.807 579.034 331.225 579.212 334.647 579.375L334.789 576.378C331.377 576.216 327.969 576.038 324.565 575.842L324.393 578.837ZM344.904 579.816C348.323 579.948 351.743 580.066 355.163 580.171L355.256 577.172C351.843 577.068 348.43 576.95 345.02 576.818L344.904 579.816ZM365.424 580.449C368.847 580.531 372.268 580.601 375.685 580.661L375.738 577.662C372.326 577.601 368.912 577.531 365.495 577.45L365.424 580.449ZM385.946 580.815C389.371 580.858 392.791 580.893 396.205 580.921L396.23 577.921C392.82 577.893 389.404 577.858 385.983 577.816L385.946 580.815ZM406.462 580.988C409.889 581.005 413.308 581.017 416.717 581.026L416.725 578.026C413.318 578.017 409.901 578.005 406.477 577.988L406.462 580.988ZM426.976 581.043C430.408 581.047 433.827 581.048 437.233 581.05L437.234 578.05C433.829 578.048 430.41 578.047 426.979 578.043L426.976 581.043ZM447.488 581.057C449.197 581.059 450.903 581.061 452.604 581.064L452.609 578.064C450.907 578.061 449.201 578.059 447.491 578.057L447.488 581.057ZM452.604 581.064C454.379 581.067 456.13 581.069 457.859 581.071L457.862 578.071C456.134 578.069 454.383 578.067 452.609 578.064L452.604 581.064ZM467.993 581.075C471.538 581.074 474.98 581.07 478.325 581.064L478.319 578.064C474.977 578.07 471.536 578.074 467.992 578.075L467.993 581.075ZM488.606 581.037C492.136 581.024 495.546 581.009 498.843 580.99L498.826 577.99C495.531 578.009 492.123 578.024 488.595 578.037L488.606 581.037ZM509.07 580.919C512.626 580.889 516.036 580.856 519.309 580.819L519.275 577.819C516.005 577.856 512.598 577.89 509.045 577.919L509.07 580.919ZM529.566 580.683C533.168 580.628 536.584 580.567 539.828 580.501L539.767 577.502C536.528 577.568 533.118 577.628 529.52 577.683L529.566 580.683ZM550.052 580.262C553.705 580.163 557.11 580.057 560.298 579.943L560.19 576.945C557.012 577.059 553.616 577.165 549.971 577.263L550.052 580.262ZM570.514 579.517C574.245 579.337 577.636 579.144 580.764 578.937L580.567 575.944C577.457 576.149 574.085 576.342 570.37 576.521L570.514 579.517ZM591.039 578.14C594.703 577.81 598.033 577.458 601.247 577.086L600.903 574.106C597.71 574.475 594.404 574.825 590.77 575.153L591.039 578.14ZM611.419 575.831C614.62 575.423 617.931 574.999 621.573 574.562L621.216 571.584C617.561 572.022 614.238 572.447 611.039 572.855L611.419 575.831ZM631.698 573.422C634.799 573.096 638.161 572.765 641.862 572.429L641.59 569.442C637.876 569.779 634.5 570.111 631.385 570.438L631.698 573.422ZM652.063 571.565C653.721 571.433 655.438 571.302 657.218 571.169L656.996 568.177C655.211 568.31 653.489 568.442 651.827 568.574L652.063 571.565ZM657.218 571.169C658.945 571.041 660.68 570.918 662.421 570.8L662.22 567.807C660.471 567.925 658.729 568.049 656.996 568.177L657.218 571.169ZM672.849 570.178C676.311 569.999 679.79 569.848 683.28 569.73L683.179 566.732C679.67 566.85 676.172 567.002 672.694 567.182L672.849 570.178ZM693.716 569.482C697.195 569.436 700.676 569.427 704.15 569.462L704.179 566.462C700.681 566.427 697.177 566.436 693.676 566.483L693.716 569.482ZM714.573 569.7C718.062 569.828 721.536 570.004 724.986 570.234L725.186 567.241C721.704 567.008 718.2 566.831 714.683 566.702L714.573 569.7ZM735.359 571.105C738.842 571.46 742.291 571.877 745.697 572.363L746.121 569.393C742.672 568.901 739.183 568.479 735.663 568.12L735.359 571.105ZM755.947 574.064C759.392 574.721 762.779 575.458 766.099 576.281L766.821 573.369C763.444 572.532 760.003 571.783 756.509 571.117L755.947 574.064ZM776.08 579.089C779.416 580.148 782.666 581.308 785.818 582.579L786.939 579.796C783.712 578.496 780.391 577.309 776.988 576.23L776.08 579.089ZM795.228 586.857C798.329 588.443 801.307 590.158 804.15 592.012L805.788 589.498C802.852 587.584 799.782 585.817 796.594 584.186L795.228 586.857ZM812.412 598.121C815.042 600.329 817.515 602.692 819.817 605.221L822.035 603.201C819.64 600.57 817.069 598.114 814.341 595.823L812.412 598.121ZM826.16 613.262C828.05 616.044 829.767 618.992 831.297 622.117L833.991 620.797C832.399 617.546 830.611 614.475 828.642 611.576L826.16 613.262ZM835.178 631.617C835.714 633.224 836.208 634.871 836.657 636.559L839.556 635.787C839.091 634.04 838.58 632.334 838.023 630.667L835.178 631.617ZM836.657 636.559C837.066 638.092 837.388 639.592 837.63 641.061L840.59 640.575C840.332 639.006 839.989 637.41 839.556 635.787L836.657 636.559ZM838.099 650.157C837.89 653.259 837.292 656.218 836.348 659.044L839.193 659.995C840.218 656.929 840.866 653.719 841.092 650.359L838.099 650.157ZM832.439 667.258C830.857 669.787 828.975 672.205 826.826 674.519L829.025 676.56C831.287 674.123 833.289 671.556 834.982 668.849L832.439 667.258ZM820.048 680.808C817.708 682.703 815.186 684.516 812.508 686.252L814.14 688.77C816.896 686.983 819.505 685.108 821.936 683.139L820.048 680.808ZM804.459 691.006C801.758 692.466 798.951 693.863 796.06 695.201L797.32 697.923C800.261 696.562 803.124 695.138 805.885 693.646L804.459 691.006ZM787.438 698.929C784.554 700.096 781.615 701.213 778.641 702.283L779.656 705.106C782.663 704.024 785.639 702.893 788.564 701.71L787.438 698.929ZM769.719 705.324C766.723 706.294 763.711 707.221 760.703 708.108L761.552 710.985C764.583 710.092 767.619 709.157 770.643 708.178L769.719 705.324ZM751.626 710.676C748.545 711.514 745.488 712.312 742.477 713.076L743.214 715.984C746.239 715.217 749.313 714.414 752.413 713.571L751.626 710.676ZM733.296 715.339C730.142 716.097 727.068 716.818 724.101 717.507L724.779 720.429C727.751 719.739 730.833 719.016 733.997 718.256L733.296 715.339ZM714.876 719.638C713.291 720.005 711.751 720.363 710.263 720.713L710.951 723.633C712.433 723.285 713.969 722.927 715.553 722.561L714.876 719.638ZM710.263 720.713C708.644 721.094 707.002 721.463 705.337 721.822L705.97 724.755C707.651 724.392 709.311 724.019 710.951 723.633L710.263 720.713ZM695.414 723.828C692.173 724.447 688.849 725.056 685.435 725.676L685.97 728.628C689.387 728.008 692.722 727.396 695.977 726.774L695.414 723.828ZM675.431 727.492C672.174 728.089 668.84 728.71 665.424 729.371L665.994 732.316C669.397 731.658 672.721 731.038 675.972 730.443L675.431 727.492ZM655.428 731.383C652.181 732.065 648.864 732.792 645.475 733.575L646.15 736.498C649.518 735.72 652.815 734.997 656.045 734.319L655.428 731.383ZM635.573 735.979C632.347 736.802 629.057 737.681 625.702 738.626L626.514 741.514C629.845 740.576 633.111 739.703 636.315 738.886L635.573 735.979ZM615.935 741.508C612.748 742.493 609.504 743.539 606.202 744.654L607.162 747.496C610.439 746.39 613.658 745.352 616.821 744.374L615.935 741.508ZM596.601 748.032C593.473 749.177 590.295 750.385 587.065 751.661L588.167 754.451C591.373 753.185 594.528 751.986 597.633 750.849L596.601 748.032ZM577.603 755.534C574.537 756.832 571.427 758.193 568.271 759.618L569.506 762.352C572.64 760.936 575.729 759.585 578.773 758.296L577.603 755.534ZM559.036 763.918C556.029 765.359 552.981 766.861 549.893 768.425L551.249 771.101C554.317 769.547 557.345 768.055 560.333 766.623L559.036 763.918ZM540.846 773.126C537.9 774.696 534.917 776.323 531.897 778.01L533.36 780.629C536.363 778.952 539.328 777.334 542.257 775.773L540.846 773.126ZM523.046 783.065C520.161 784.749 517.243 786.487 514.292 788.281L515.85 790.844C518.786 789.059 521.688 787.331 524.558 785.656L523.046 783.065ZM505.631 793.648C504.194 794.556 502.749 795.477 501.295 796.412L502.918 798.935C504.364 798.005 505.803 797.088 507.233 796.185L505.631 793.648ZM501.295 796.412C499.826 797.357 498.367 798.318 496.921 799.293L498.598 801.781C500.026 800.817 501.467 799.869 502.918 798.935L501.295 796.412ZM488.368 805.321C485.555 807.392 482.788 809.516 480.069 811.688L481.941 814.032C484.631 811.884 487.366 809.784 490.147 807.737L488.368 805.321ZM472.021 818.366C469.375 820.646 466.775 822.969 464.223 825.33L466.26 827.532C468.787 825.195 471.36 822.895 473.979 820.639L472.021 818.366ZM456.672 832.556C454.187 835.014 451.751 837.504 449.361 840.022L451.538 842.087C453.906 839.591 456.32 837.124 458.781 834.689L456.672 832.556ZM442.287 847.709C439.957 850.318 437.675 852.949 435.442 855.598L437.736 857.532C439.951 854.904 442.214 852.294 444.524 849.708L442.287 847.709ZM428.821 863.672C426.635 866.412 424.501 869.163 422.416 871.919L424.809 873.728C426.878 870.992 428.997 868.262 431.166 865.543L428.821 863.672ZM416.222 880.323C414.172 883.177 412.175 886.03 410.232 888.875L412.709 890.567C414.64 887.741 416.623 884.908 418.658 882.073L416.222 880.323ZM404.441 897.563C402.518 900.521 400.652 903.462 398.844 906.378L401.394 907.959C403.191 905.06 405.045 902.137 406.956 899.199L404.441 897.563ZM393.438 915.311C391.634 918.364 389.895 921.38 388.222 924.35L390.835 925.823C392.499 922.871 394.227 919.872 396.021 916.837L393.438 915.311ZM383.196 933.48C381.504 936.626 379.892 939.703 378.357 942.698L381.027 944.066C382.553 941.088 384.157 938.028 385.838 934.9L383.196 933.48ZM373.673 952.067C372.08 955.333 370.592 958.47 369.208 961.456L371.93 962.717C373.306 959.748 374.785 956.63 376.369 953.382L373.673 952.067ZM364.901 971.008C363.351 974.543 361.99 977.763 360.815 980.618L363.589 981.76C364.756 978.925 366.109 975.726 367.649 972.212L364.901 971.008Z" fill="#FAA05D" fill-opacity="0.5"/>
<defs>
<clipPath id="clip0">
<rect width="383" height="313" fill="white" transform="translate(137.607 892.673)"/>
</clipPath>
</defs>
</svg>
