<svg width="202" height="185" viewBox="0 0 202 185" fill="none" xmlns="http://www.w3.org/2000/svg">
<g clip-path="url(#clip0)">
<g opacity="0.5">
<path opacity="0.5" d="M119.18 11.6532L38.7618 11.8436C37.8853 11.8455 37.0455 12.1866 36.4271 12.7919C35.8087 13.3972 35.4624 14.2171 35.4644 15.0712L35.8301 161.648C35.8325 162.502 36.1829 163.32 36.8043 163.922C37.4257 164.525 38.2672 164.862 39.1436 164.859L119.561 164.669C119.995 164.668 120.425 164.584 120.826 164.421C121.226 164.258 121.59 164.02 121.896 163.721C122.202 163.421 122.445 163.065 122.61 162.674C122.775 162.283 122.86 161.864 122.859 161.441L122.493 14.8652C122.491 14.011 122.14 13.1928 121.519 12.5904C120.898 11.9881 120.056 11.6509 119.18 11.6532V11.6532Z" fill="url(#paint0_linear)"/>
</g>
<path d="M118.016 13.6557L39.9351 13.8407C38.1138 13.845 36.6409 15.2874 36.6453 17.0623L37.0009 159.582C37.0053 161.357 38.4853 162.792 40.3067 162.788L118.388 162.603C120.209 162.599 121.682 161.156 121.677 159.381L121.322 16.8617C121.317 15.0868 119.837 13.6514 118.016 13.6557Z" fill="white"/>
<path opacity="0.3" d="M100.256 17.4319C100.015 19.0119 99.2023 20.4557 97.964 21.5022C96.7257 22.5488 95.144 23.129 93.505 23.138L64.2573 23.2073C62.6182 23.2061 61.0337 22.6333 59.7902 21.5927C58.5467 20.552 57.7264 19.1121 57.4775 17.5333L41.9855 17.57C41.1326 17.572 40.3154 17.9041 39.7137 18.4933C39.112 19.0825 38.7752 19.8805 38.7772 20.7118L39.1145 155.923C39.1155 156.334 39.1997 156.742 39.3623 157.121C39.5249 157.501 39.7626 157.846 40.062 158.137C40.3614 158.427 40.7165 158.657 41.1071 158.813C41.4977 158.97 41.9161 159.05 42.3384 159.049L116.337 158.874C116.759 158.873 117.177 158.791 117.567 158.632C117.957 158.474 118.311 158.242 118.609 157.95C118.907 157.659 119.143 157.313 119.304 156.932C119.464 156.551 119.546 156.144 119.545 155.732L119.208 20.5212C119.207 20.1096 119.123 19.7023 118.96 19.3224C118.798 18.9425 118.56 18.5976 118.261 18.3073C117.961 18.0169 117.606 17.7869 117.216 17.6303C116.825 17.4737 116.407 17.3937 115.984 17.3947L100.256 17.4319Z" fill="#72CBDE"/>
<path d="M16.9184 26.6325L132.078 118.543L133.591 43.3236L3.5332 38.8324L24.071 58.0258L154.33 67.7806L18.6548 101.103L141.519 139.967L141.059 154.694L14.2776 147.349L18.1164 184.489L73.7884 179.648L103.645 0.0754395" stroke="white" stroke-width="4" stroke-miterlimit="10"/>
<path d="M87.1655 19.1396L69.2655 19.4018C68.9984 19.4058 68.7851 19.62 68.7891 19.8803L68.7923 20.0868C68.7963 20.3471 69.0161 20.5549 69.2833 20.551L87.1833 20.2888C87.4504 20.2848 87.6637 20.0706 87.6597 19.8103L87.6565 19.6039C87.6525 19.3435 87.4327 19.1357 87.1655 19.1396Z" fill="#DBDBDB"/>
<path d="M91.6656 20.2229C92.0564 20.2229 92.3732 19.9142 92.3732 19.5333C92.3732 19.1525 92.0564 18.8438 91.6656 18.8438C91.2748 18.8438 90.958 19.1525 90.958 19.5333C90.958 19.9142 91.2748 20.2229 91.6656 20.2229Z" fill="#DBDBDB"/>
<g opacity="0.5">
<path opacity="0.5" d="M24.7167 30.8196H23.9911V34.8264H24.7167V30.8196Z" fill="#47E6B1"/>
<path opacity="0.5" d="M26.4097 33.1764V32.4694H22.2981V33.1764H26.4097Z" fill="#47E6B1"/>
</g>
<g opacity="0.5">
<path opacity="0.5" d="M30.5212 55.9407H29.7957V59.9475H30.5212V55.9407Z" fill="#47E6B1"/>
<path opacity="0.5" d="M32.2142 58.2975V57.5905H28.1026V58.2975H32.2142Z" fill="#47E6B1"/>
</g>
<g opacity="0.5">
<path opacity="0.5" d="M141.777 23.2773H141.051V27.2842H141.777V23.2773Z" fill="#47E6B1"/>
<path opacity="0.5" d="M143.47 25.6342V24.9271H139.358V25.6342H143.47Z" fill="#47E6B1"/>
</g>
<g opacity="0.5">
<path opacity="0.5" d="M200.307 38.0277H199.581V42.0345H200.307V38.0277Z" fill="#47E6B1"/>
<path opacity="0.5" d="M202 40.3846V39.6775H197.888V40.3846H202Z" fill="#47E6B1"/>
</g>
<path opacity="0.5" d="M2.97222 54.127C2.77227 54.0422 2.61131 53.8886 2.52 53.6956C2.42868 53.5026 2.41339 53.2836 2.47702 53.0803C2.48731 53.0491 2.4938 53.0169 2.49634 52.9842C2.50216 52.8911 2.47704 52.7986 2.4247 52.7205C2.37236 52.6423 2.29559 52.5827 2.20576 52.5504C2.11592 52.5181 2.0178 52.5149 1.92593 52.5412C1.83406 52.5675 1.75332 52.6219 1.69568 52.6964C1.67586 52.7228 1.6593 52.7515 1.64636 52.7817C1.55928 52.9765 1.40171 53.1334 1.20365 53.2224C1.00559 53.3114 0.780874 53.3263 0.572266 53.2643C0.540285 53.2542 0.507199 53.2479 0.473697 53.2454V53.2454C0.378121 53.2398 0.283212 53.2642 0.203029 53.3152C0.122846 53.3663 0.0616566 53.4411 0.0285173 53.5286C-0.00462194 53.6162 -0.00794529 53.7118 0.0190402 53.8013C0.0460256 53.8908 0.101882 53.9695 0.17834 54.0257V54.0257C0.205468 54.045 0.23484 54.0611 0.265845 54.0738C0.465801 54.1586 0.626756 54.3122 0.71807 54.5052C0.809384 54.6982 0.824682 54.9172 0.761053 55.1205C0.750757 55.1516 0.744268 55.1839 0.741726 55.2165C0.735908 55.3097 0.761028 55.4022 0.813366 55.4803C0.865704 55.5584 0.942476 55.6181 1.03231 55.6504C1.12215 55.6827 1.22027 55.6859 1.31214 55.6596C1.40401 55.6333 1.48475 55.5789 1.54239 55.5044V55.5044C1.56221 55.4779 1.57877 55.4493 1.59171 55.4191C1.67879 55.2242 1.83636 55.0674 2.03442 54.9784C2.23248 54.8894 2.4572 54.8745 2.66581 54.9365C2.69779 54.9465 2.73087 54.9529 2.76438 54.9553V54.9553C2.85995 54.961 2.95486 54.9365 3.03504 54.8855C3.11522 54.8345 3.17641 54.7597 3.20955 54.6722C3.24269 54.5846 3.24601 54.489 3.21903 54.3995C3.19204 54.3099 3.13619 54.2313 3.05973 54.1751V54.1751C3.0326 54.1558 3.00323 54.1396 2.97222 54.127Z" fill="#4D8AF0"/>
<path opacity="0.5" d="M185.818 99.1451C185.618 99.0602 185.457 98.9067 185.366 98.7137C185.275 98.5206 185.259 98.3016 185.323 98.0984C185.333 98.0672 185.34 98.035 185.342 98.0023V98.0023C185.348 97.9092 185.323 97.8167 185.271 97.7385C185.218 97.6604 185.142 97.6008 185.052 97.5685C184.962 97.5362 184.864 97.5329 184.772 97.5592C184.68 97.5855 184.599 97.64 184.542 97.7145V97.7145C184.522 97.7409 184.505 97.7695 184.492 97.7998C184.405 97.9946 184.248 98.1515 184.05 98.2404C183.852 98.3294 183.627 98.3443 183.418 98.2823C183.386 98.2723 183.353 98.266 183.32 98.2635V98.2635C183.224 98.2578 183.129 98.2823 183.049 98.3333C182.969 98.3843 182.908 98.4591 182.874 98.5467C182.841 98.6342 182.838 98.7299 182.865 98.8194C182.892 98.9089 182.948 98.9876 183.024 99.0438C183.051 99.0631 183.081 99.0792 183.112 99.0918C183.312 99.1767 183.473 99.3302 183.564 99.5233C183.655 99.7163 183.671 99.9353 183.607 100.139C183.597 100.17 183.59 100.202 183.588 100.235C183.582 100.328 183.607 100.42 183.659 100.498C183.712 100.577 183.788 100.636 183.878 100.668C183.968 100.701 184.066 100.704 184.158 100.678C184.25 100.651 184.331 100.597 184.388 100.522C184.408 100.496 184.425 100.467 184.438 100.437C184.525 100.242 184.682 100.085 184.88 99.9965C185.078 99.9075 185.303 99.8926 185.512 99.9546C185.544 99.9646 185.577 99.9709 185.61 99.9734V99.9734C185.706 99.9791 185.801 99.9546 185.881 99.9036C185.961 99.8526 186.022 99.7778 186.056 99.6902C186.089 99.6027 186.092 99.5071 186.065 99.4175C186.038 99.328 185.982 99.2493 185.906 99.1931V99.1931C185.879 99.1738 185.849 99.1577 185.818 99.1451V99.1451Z" fill="#4D8AF0"/>
<path opacity="0.5" d="M173 27.2576C172.8 27.1728 172.639 27.0192 172.547 26.8262C172.456 26.6332 172.441 26.4142 172.505 26.2109C172.515 26.1797 172.521 26.1475 172.524 26.1148V26.1148C172.53 26.0217 172.505 25.9292 172.452 25.8511C172.4 25.7729 172.323 25.7133 172.233 25.681C172.143 25.6487 172.045 25.6455 171.953 25.6718C171.862 25.6981 171.781 25.7525 171.723 25.827C171.703 25.8535 171.687 25.8821 171.674 25.9123C171.587 26.1072 171.429 26.264 171.231 26.353C171.033 26.442 170.808 26.4569 170.6 26.3949C170.568 26.3848 170.535 26.3785 170.501 26.376C170.406 26.3704 170.311 26.3949 170.231 26.4459C170.15 26.4969 170.089 26.5717 170.056 26.6592C170.023 26.7468 170.02 26.8424 170.047 26.9319C170.073 27.0215 170.129 27.1001 170.206 27.1563V27.1563C170.233 27.1756 170.262 27.1918 170.293 27.2044C170.493 27.2892 170.654 27.4428 170.746 27.6358C170.837 27.8288 170.852 28.0478 170.789 28.2511C170.778 28.2823 170.772 28.3145 170.769 28.3472C170.763 28.4403 170.788 28.5328 170.841 28.6109C170.893 28.6891 170.97 28.7487 171.06 28.781C171.15 28.8133 171.248 28.8165 171.34 28.7902C171.431 28.7639 171.512 28.7095 171.57 28.635C171.59 28.6085 171.606 28.5799 171.619 28.5497C171.706 28.3548 171.864 28.198 172.062 28.109C172.26 28.02 172.485 28.0051 172.693 28.0671C172.725 28.0772 172.758 28.0835 172.792 28.086V28.086C172.887 28.0916 172.982 28.0671 173.063 28.0161C173.143 27.9651 173.204 27.8903 173.237 27.8028C173.27 27.7152 173.274 27.6196 173.247 27.5301C173.22 27.4405 173.164 27.3619 173.087 27.3057C173.06 27.2864 173.031 27.2702 173 27.2576V27.2576Z" fill="#4D8AF0"/>
<path opacity="0.5" d="M178.804 68.2689C178.604 68.184 178.443 68.0304 178.352 67.8374C178.261 67.6444 178.245 67.4254 178.309 67.2221C178.319 67.191 178.326 67.1587 178.328 67.1261V67.1261C178.334 67.0329 178.309 66.9405 178.257 66.8623C178.204 66.7842 178.128 66.7245 178.038 66.6922C177.948 66.6599 177.85 66.6567 177.758 66.683C177.666 66.7093 177.585 66.7637 177.528 66.8383V66.8383C177.508 66.8647 177.491 66.8933 177.478 66.9235C177.391 67.1184 177.234 67.2752 177.036 67.3642C176.838 67.4532 176.613 67.4681 176.404 67.4061C176.372 67.3961 176.339 67.3898 176.306 67.3873C176.21 67.3816 176.115 67.4061 176.035 67.4571C175.955 67.5081 175.894 67.5829 175.861 67.6705C175.827 67.758 175.824 67.8536 175.851 67.9432C175.878 68.0327 175.934 68.1114 176.01 68.1675V68.1675C176.038 68.1869 176.067 68.203 176.098 68.2156C176.298 68.3005 176.459 68.454 176.55 68.647C176.641 68.84 176.657 69.059 176.593 69.2623C176.583 69.2935 176.576 69.3257 176.574 69.3584V69.3584C176.568 69.4515 176.593 69.544 176.645 69.6221C176.698 69.7003 176.775 69.7599 176.864 69.7922C176.954 69.8245 177.052 69.8277 177.144 69.8015C177.236 69.7752 177.317 69.7207 177.374 69.6462V69.6462C177.394 69.6198 177.411 69.5912 177.424 69.5609C177.511 69.3661 177.668 69.2092 177.866 69.1202C178.065 69.0312 178.289 69.0163 178.498 69.0784C178.53 69.0884 178.563 69.0947 178.596 69.0972V69.0972C178.692 69.1028 178.787 69.0784 178.867 69.0274C178.947 68.9764 179.008 68.9015 179.042 68.814C179.075 68.7265 179.078 68.6308 179.051 68.5413C179.024 68.4518 178.968 68.3731 178.892 68.3169V68.3169C178.865 68.2976 178.835 68.2815 178.804 68.2689V68.2689Z" fill="#4D8AF0"/>
<path opacity="0.5" d="M17.4608 100.487C18.2623 100.487 18.912 99.854 18.912 99.073C18.912 98.292 18.2623 97.6588 17.4608 97.6588C16.6593 97.6588 16.0096 98.292 16.0096 99.073C16.0096 99.854 16.6593 100.487 17.4608 100.487Z" fill="#F55F44"/>
<path opacity="0.5" d="M141.293 53.8193C142.094 53.8193 142.744 53.1862 142.744 52.4051C142.744 51.6241 142.094 50.991 141.293 50.991C140.492 50.991 139.842 51.6241 139.842 52.4051C139.842 53.1862 140.492 53.8193 141.293 53.8193Z" fill="#4D8AF0"/>
<path opacity="0.5" d="M153.144 89.6451C153.946 89.6451 154.595 89.012 154.595 88.2309C154.595 87.4499 153.946 86.8168 153.144 86.8168C152.343 86.8168 151.693 87.4499 151.693 88.2309C151.693 89.012 152.343 89.6451 153.144 89.6451Z" fill="#47E6B1"/>
<path opacity="0.5" d="M3.19115 15.1651C3.9926 15.1651 4.64231 14.532 4.64231 13.751C4.64231 12.9699 3.9926 12.3368 3.19115 12.3368C2.3897 12.3368 1.73999 12.9699 1.73999 13.751C1.73999 14.532 2.3897 15.1651 3.19115 15.1651Z" fill="#F55F44"/>
<path d="M107.527 59.0532C106.405 66.945 89.7461 83.4492 89.7461 83.4492C89.7461 83.4492 77.1513 62.9939 78.2737 55.102C78.5359 53.2268 79.1751 51.4204 80.1546 49.7863C81.1342 48.1521 82.4349 46.7223 83.9823 45.5788C85.5297 44.4352 87.2934 43.6003 89.1724 43.1219C91.0513 42.6435 93.0087 42.531 94.9323 42.7908C96.856 43.0506 98.7081 43.6777 100.383 44.636C102.057 45.5944 103.522 46.8653 104.692 48.3759C105.861 49.8865 106.714 51.6071 107.201 53.4393C107.687 55.2715 107.798 57.1792 107.527 59.0532V59.0532Z" fill="url(#paint1_linear)"/>
<path d="M106.567 59.3028C105.514 66.7052 89.8888 82.1858 89.8888 82.1858C89.8888 82.1858 78.075 62.9991 79.1278 55.5967C79.3734 53.8375 79.9727 52.1428 80.8914 50.6097C81.8101 49.0765 83.0302 47.7351 84.4817 46.6621C85.9332 45.5892 87.5877 44.8059 89.3503 44.357C91.113 43.9081 92.9492 43.8025 94.7537 44.0463C96.5583 44.29 98.2958 44.8783 99.8668 45.7774C101.438 46.6765 102.811 47.8688 103.909 49.286C105.006 50.7032 105.806 52.3175 106.262 54.0363C106.718 55.7552 106.822 57.5448 106.567 59.3028V59.3028Z" fill="#00B2D9"/>
<path d="M99.8598 57.304C100.386 53.6028 97.7417 50.1876 93.9531 49.6759C90.1645 49.1642 86.6665 51.7498 86.1401 55.451C85.6137 59.1522 88.2583 62.5674 92.0468 63.0791C95.8354 63.5908 99.3334 61.0052 99.8598 57.304Z" fill="white"/>
</g>
<defs>
<linearGradient id="paint0_linear" x1="44.9503" y1="167.517" x2="110.424" y2="7.7869" gradientUnits="userSpaceOnUse">
<stop stop-color="#808080" stop-opacity="0.25"/>
<stop offset="0.53514" stop-color="#808080" stop-opacity="0.12"/>
<stop offset="1" stop-color="#808080" stop-opacity="0.1"/>
</linearGradient>
<linearGradient id="paint1_linear" x1="14226.5" y1="18611" x2="15176.1" y2="11580.4" gradientUnits="userSpaceOnUse">
<stop stop-color="#808080" stop-opacity="0.25"/>
<stop offset="0.53514" stop-color="#808080" stop-opacity="0.12"/>
<stop offset="1" stop-color="#808080" stop-opacity="0.1"/>
</linearGradient>
<clipPath id="clip0">
<rect width="202" height="185" fill="white" transform="translate(-0.00012207)"/>
</clipPath>
</defs>
</svg>
