<svg width="80" height="80" viewBox="0 0 80 80" fill="none" xmlns="http://www.w3.org/2000/svg">
<path d="M45.5665 73.3334H45.3665C44.6329 73.2892 43.9344 73.0038 43.3798 72.5215C42.8252 72.0392 42.4455 71.3872 42.2998 70.6668L36.6665 43.3335L9.33317 37.7001C8.6114 37.5568 7.95735 37.1786 7.47301 36.6246C6.98867 36.0706 6.70126 35.3719 6.6556 34.6375C6.60993 33.9031 6.80858 33.1741 7.22057 32.5644C7.63255 31.9547 8.23472 31.4984 8.93317 31.2668L62.2665 13.5001C62.8652 13.2529 63.5229 13.1855 64.1592 13.3061C64.7956 13.4266 65.383 13.73 65.8498 14.1791C66.3165 14.6281 66.6423 15.2034 66.7874 15.8347C66.9324 16.4659 66.8904 17.1257 66.6665 17.7335L48.8998 71.0668C48.6679 71.7567 48.2165 72.3518 47.6146 72.7611C47.0127 73.1704 46.2934 73.3714 45.5665 73.3334ZM22.8998 33.6668L40.1998 37.2001C40.8465 37.3249 41.4418 37.6384 41.9104 38.1011C42.3791 38.5639 42.7002 39.1551 42.8332 39.8001L46.3332 57.1001L58.0665 21.9335L22.8998 33.6668Z" fill="#00B2D9"/>
</svg>
