<svg width="2000" height="952" viewBox="0 0 2000 952" fill="none" xmlns="http://www.w3.org/2000/svg">
<rect width="2000" height="948" fill="url(#paint0_linear)"/>
<g clip-path="url(#clip0)">
<path d="M316 429C376.751 429 426 379.751 426 319C426 258.249 376.751 209 316 209C255.249 209 206 258.249 206 319C206 379.751 255.249 429 316 429Z" fill="#FAA05D"/>
<path d="M316.894 960.554L174.488 820.413L139.173 785.657L33.7663 681.929L-96.8971 821.241L-227 959.972" fill="#DFE7E9"/>
<path d="M1018.2 961.4H55.3621L174.488 832.429L394.582 574.592L409.415 557.217L608.506 323.977L746.266 541.89L749.872 547.593L925.131 824.783L1018.2 961.4Z" fill="#E5ECEE"/>
<path d="M1495 960.554L1257.18 680.292L1140.59 542.907L1027.91 684.014L925.131 812.765L807.579 959.972" fill="#DFE7E9"/>
<path opacity="0.1" d="M139.172 785.657L76.422 827.677L2.3353 798.528L-96.8972 821.241L33.7662 681.929L139.172 785.657Z" fill="#2A2E43" fill-opacity="0.2"/>
<path opacity="0.1" d="M746.266 541.89L725.245 578.777L678.111 529.459L626.469 578.777L597.279 522.731L550.128 578.777L536.656 542.914L505.239 578.777L449.106 542.914L409.415 557.217L608.506 323.977L746.266 541.89Z" fill="#2A2E43" fill-opacity="0.3"/>
<path opacity="0.1" d="M1257.18 680.292L1198.96 751.438L1151.82 695.382L1079.98 753.681L1027.91 684.014L1140.59 542.907L1257.18 680.292Z" fill="#2A2E43" fill-opacity="0.4"/>
<path d="M1043.2 497.509C1033.7 487.985 1021.96 480.997 1009.05 477.186C996.146 473.376 982.487 472.865 969.331 475.701C956.175 478.537 943.943 484.629 933.758 493.417C923.574 502.205 915.763 513.408 911.043 525.997L1058.6 519.169C1054.71 511.143 1049.5 503.823 1043.2 497.509Z" fill="#BFECF5"/>
<rect x="-9043.5" y="-3652.5" width="12017" height="8930" stroke="black" stroke-width="3"/>
</g>
<g opacity="0.3">
<path opacity="0.3" d="M1382.26 235.056H1415.2C1415.2 235.056 1402.79 257.145 1382.26 235.056Z" fill="#030B44"/>
<path opacity="0.3" d="M1384.25 244.451L1405.85 219.435C1405.85 219.435 1414.29 243.344 1384.25 244.451Z" fill="#030B44"/>
</g>
<g opacity="0.3">
<path opacity="0.3" d="M1264.61 304.169H1297.55C1297.55 304.169 1285.14 326.257 1264.61 304.169Z" fill="#030B44"/>
<path opacity="0.3" d="M1266.6 313.563L1288.19 288.548C1288.19 288.548 1296.64 312.457 1266.6 313.563Z" fill="#030B44"/>
</g>
<g opacity="0.3">
<path opacity="0.3" d="M1222 44.7576H1257.33C1257.33 44.7576 1244.02 68.4958 1222 44.7576Z" fill="#030B44"/>
<path opacity="0.3" d="M1224.13 54.8464L1247.3 28C1247.3 28 1256.36 53.6494 1224.13 54.8464Z" fill="#030B44"/>
</g>
<path d="M1548 954.183C1548 971.188 1501.03 975.06 1414.09 973.769C1325.23 972.452 1194.6 965.736 1029.71 962.155C967.34 960.803 900.058 959.89 828.286 959.89C381.208 959.89 -71 995.155 -71 954.183C-71 944.526 -50.8765 935.308 -14.2495 926.845C94.3489 901.755 348.002 883.38 651.878 880.422C665.702 880.281 679.626 880.179 693.65 880.114C708.5 880.035 723.45 879.997 738.5 880C859.312 880 973.953 882.423 1076.92 886.769C1077.25 886.786 1077.56 886.804 1077.89 886.813C1086.16 887.164 1094.34 887.527 1102.45 887.901C1111.3 888.314 1120.05 888.738 1128.71 889.174C1130.49 889.262 1132.28 889.35 1134.04 889.446C1135.33 889.508 1136.61 889.578 1137.88 889.648C1140.21 889.763 1142.55 889.885 1144.86 890.017C1144.94 890.015 1145.02 890.018 1145.1 890.026C1149.35 890.254 1153.57 890.482 1157.76 890.711C1158.2 890.737 1158.64 890.763 1159.08 890.781C1280.86 897.585 1381.51 907.25 1449.89 918.76C1512.46 929.286 1548 941.348 1548 954.183Z" fill="#DAE1E4"/>
<path d="M406.716 829.054L434.089 829.429L441.34 831.025L442.06 831.894L451.761 841.987L461.151 851.812L469.156 858.341L481.141 864.589L482.397 866.209L483.252 868.969L483.231 879.878L480.302 880.866L478.409 891.149L475.246 891.226L475.2 889.271L473.924 885.421L471.542 882.484L467.99 880.248L464.108 879.548L457.712 879.398L452.657 880.62L449.116 882.784L443.838 888.81L439.439 896.036L439.475 897.563L407.349 898.343L407.183 863.603L406.716 829.054Z" fill="#F4F5F6"/>
<path d="M439.471 896.097L444.368 888.064L448.341 883.506L450.94 881.365L454.621 879.962L459.387 879.418L466.242 879.68L469.162 880.923L471.45 882.456L473.542 884.728L474.84 888.18L474.986 889.215L474.232 889.509L471.523 885.571L467.424 882.096L461.354 880.226L456.091 880.354L452.043 881.674L447.76 884.712L444.601 888.914L442.774 895.467L439.502 897.41L439.471 896.097Z" fill="#BFC0C7"/>
<path d="M306.835 886.298L307.904 886.455L301.806 899.132L297.273 899.242L300.989 892.795L303.044 889.507L305.032 887.289L306.835 886.298Z" fill="#BFC0C7"/>
<path d="M334.189 895.015L335.501 897.794L336.791 900.911L334.683 899.281L334.189 895.015Z" fill="#BFC0C7"/>
<path d="M480.368 881.109L482.473 881.302L483.958 882.336L484.631 883.817L484.344 885.841L483.516 888.214L482.685 890.434L478.503 891.238L480.368 881.109Z" fill="#BFC0C7"/>
<path d="M406.754 828.075L451.446 828.396L446.486 829.8L441.555 831.081L438.173 830.307L434.792 829.534L406.776 829.022L406.754 828.075Z" fill="#BFC0C7"/>
<path d="M231.824 889.829L232.641 889.595L232.678 891.214L235.464 894.508L231.239 896.108L231.824 889.829Z" fill="#8F929D"/>
<path d="M229.535 889.549L232.552 888.406L232.577 889.475L231.916 889.827L231.564 893.044L231.029 896.204L228.89 895.859L229.535 889.549Z" fill="#BFC0C7"/>
<path d="M230.185 827.043L229.205 807.112L229.244 802.222L229.828 799.855L231.019 798.696L233.872 798.351L238.554 798.085L263.825 797.105L322.414 795.531L378.572 794.168L434.878 792.588L449.942 792.436L458.009 799.024L471.969 812.956L474.235 816.201L473.757 817.893L470.416 822.13L463.88 827.728L435.679 828.412L406.762 828.411L407.331 900.157L336.881 900.847L334.503 895.466L330.03 887.66L327.991 886.365L306.532 886.366L305.06 887.196L302.687 889.882L298.819 896.332L295.945 901.057L267.193 900.288L239.471 899.3L237.636 897.613L235.24 894.055L232.799 891.18L232.423 881.503L231.881 858.17L230.185 827.043Z" fill="#F4F5F6"/>
<path d="M428.061 801.279L427.856 813.446" stroke="#2A2E43" stroke-linecap="square"/>
<path d="M430.069 801.23L429.864 813.397" stroke="#2A2E43" stroke-linecap="square"/>
<path fill-rule="evenodd" clip-rule="evenodd" d="M412.712 801.529C424.281 801.248 435.851 800.968 447.42 800.687C447.543 800.684 449.049 802.133 451.938 805.033C453.938 807.056 455.023 808.266 455.191 808.662C455.444 809.257 455.658 809.647 455.48 810.797C455.297 811.982 454.295 812.865 453.102 812.894L412.785 813.872C411.374 813.907 410.203 812.786 410.17 811.369C410.169 811.344 410.169 811.318 410.169 811.293L410.215 804.08C410.224 802.693 411.33 801.563 412.712 801.529Z" stroke="#2A2E43"/>
<path fill-rule="evenodd" clip-rule="evenodd" d="M412.49 800.007L447.102 799.167C447.461 799.158 447.809 799.295 448.066 799.546L452.979 804.339C453.01 804.369 453.042 804.399 453.074 804.428C454.976 806.163 456.21 807.59 456.777 808.709C457.755 810.641 456.987 813.005 455.062 813.989C454.541 814.255 453.966 814.401 453.382 814.415L412.659 815.403C410.509 815.456 408.725 813.748 408.674 811.589C408.674 811.556 408.673 811.524 408.673 811.491L408.686 803.913C408.689 801.791 410.378 800.058 412.49 800.007Z" stroke="#2A2E43"/>
<path d="M231.164 896.232L235.325 894.542" stroke="#2A2E43" stroke-linecap="round"/>
<path d="M229.73 889.544L232.564 888.375" stroke="#2A2E43" stroke-linecap="square"/>
<path d="M231.928 889.796L232.56 889.506" stroke="#2A2E43" stroke-linecap="square"/>
<path d="M231.787 889.779L229.732 889.539C229.665 889.532 229.604 889.58 229.597 889.647L228.876 895.837C228.868 895.904 228.916 895.965 228.983 895.973L231.038 896.212C231.105 896.22 231.165 896.172 231.173 896.105L231.894 889.914C231.901 889.847 231.854 889.786 231.787 889.779Z" stroke="#2A2E43"/>
<path fill-rule="evenodd" clip-rule="evenodd" d="M229.813 820.491L473.404 814.58L474.54 816.373C474.442 816.918 474.281 817.374 474.059 817.741C473.837 818.107 473.447 818.561 472.889 819.101C471.956 820.237 471.18 821.14 470.558 821.812C469.937 822.484 468.971 823.464 467.659 824.754C466.768 825.743 466.071 826.432 465.568 826.819C465.066 827.207 464.476 827.511 463.798 827.732C463.426 827.941 462.354 828.099 460.582 828.205C458.81 828.311 456.177 828.375 452.683 828.397L406.774 828.246L407.217 866.973L394.059 867.292L393.581 846.682C394.389 846.295 394.92 845.927 395.171 845.579C395.423 845.231 395.634 844.574 395.804 843.609L395.248 819.653C394.662 818.969 394.237 818.473 393.972 818.164C393.707 817.856 393.207 817.628 392.471 817.482L327.667 819.055C326.828 819.235 326.271 819.488 325.995 819.814C325.719 820.139 325.358 820.655 324.913 821.36C324.987 831.937 325.173 839.922 325.469 845.316C325.495 845.781 325.762 846.815 326.639 847.586C326.915 847.828 327.484 848.086 328.347 848.361L328.51 868.883L232.166 871.221L229.813 820.491Z" fill="#FAA05D"/>
<path d="M394.363 847.138L327.07 848.771L327.538 868.928L394.831 867.295L394.363 847.138Z" fill="#FAA05D"/>
<path fill-rule="evenodd" clip-rule="evenodd" d="M231.004 798.808C233.516 797.46 293.97 796.39 351.35 794.879C401.833 793.551 448.991 792.04 449.995 792.486C453.241 793.929 474.499 814.605 474.54 816.373C474.581 818.141 466.18 826.805 463.912 827.799C462.4 828.461 443.354 828.61 406.774 828.246L407.419 900.17C368.971 900.46 345.469 900.708 336.913 900.916C335.471 898.464 332.344 888.869 329.37 887.099C323.957 883.877 307.716 886.297 307.445 886.297C302.985 886.286 299.508 896.899 295.879 900.991C276.576 900.715 257.757 900.137 239.422 899.256C236.608 897.057 236.567 895.274 232.767 891.221C231.668 843.881 229.537 818.397 229.311 809.812C229.189 805.18 228.492 800.157 231.004 798.808Z" stroke="#2A2E43"/>
<path d="M441.538 831.142L451.855 828.417" stroke="#2A2E43" stroke-linecap="square"/>
<path fill-rule="evenodd" clip-rule="evenodd" d="M480.24 881.006C481.58 881.005 482.546 881.205 483.141 881.607C484.032 882.21 484.467 883.035 484.647 883.96C484.767 884.578 484.437 885.893 483.659 887.907C483.172 889.092 482.847 889.89 482.686 890.301C482.524 890.712 481.108 891.029 478.437 891.25L480.24 881.006Z" stroke="#2A2E43"/>
<path d="M473.991 889.637L475.017 889.245" stroke="#2A2E43" stroke-linecap="square"/>
<path d="M297.287 899.272L302.032 899.157" stroke="#2A2E43" stroke-linecap="square"/>
<path fill-rule="evenodd" clip-rule="evenodd" d="M407.132 856.912L465.45 855.497L473.056 860.599C476.154 861.962 478.389 863.038 479.76 863.829C481.131 864.62 481.886 865.233 482.025 865.668L407.229 867.483L407.132 856.912Z" fill="#FAA05D"/>
<path fill-rule="evenodd" clip-rule="evenodd" d="M406.928 829.112C423.421 829.326 432.523 829.483 434.236 829.585C435.948 829.686 438.296 830.208 441.281 831.149L460.509 851.092C464.229 854.621 467.527 857.232 470.401 858.922C473.275 860.613 476.193 862.123 479.156 863.454C481.043 864.334 482.257 865.535 482.797 867.056C483.336 868.577 483.437 872.892 483.097 880.003L480.24 881.006L478.437 891.25L475.137 891.33C475.177 889.506 474.897 887.828 474.296 886.294C473.395 883.994 470.046 879.721 463.899 879.555C461.353 879.487 456.486 879.043 452.432 880.747C449.96 881.787 449.188 882.436 445.923 886.227C443.746 888.755 441.937 891.548 440.496 894.605L439.54 896.159L407.449 896.937L406.928 829.112Z" stroke="#2A2E43"/>
<path fill-rule="evenodd" clip-rule="evenodd" d="M406.945 833.187C425.235 833.366 435.036 833.495 436.347 833.573C437.658 833.651 438.893 834.177 440.054 835.153C447.507 842.411 452.297 847.25 454.425 849.67C457.618 853.299 458.357 853.998 459.966 857.793C461.575 861.588 461.384 863.314 461.452 866.245C461.52 869.175 460.369 875.162 460.369 875.162C460.369 875.162 455.996 875.163 452.296 876.416C448.596 877.669 448.111 877.657 445.272 880.276C442.434 882.895 441.986 885.138 440.756 887.064C439.526 888.991 437.721 892.78 437.228 893.504C436.9 893.987 426.95 894.098 407.377 893.838L406.945 833.187Z" stroke="#2A2E43"/>
<path fill-rule="evenodd" clip-rule="evenodd" d="M444.793 841.82C449.467 847.196 451.994 850.205 452.375 850.847C452.947 851.809 452.422 852.866 451.375 852.892C450.327 852.917 423.253 853.712 421.011 853.629C418.769 853.546 418.749 852.715 418.426 851.67C418.104 850.626 415.299 838.657 415.172 837.504C415.045 836.351 415.122 835.34 416.621 835.252C418.121 835.163 432.853 834.91 436.35 835.319C438.681 835.591 441.495 837.758 444.793 841.82Z" stroke="#2A2E43"/>
<path d="M439.452 897.35L439.548 896.248" stroke="#2A2E43" stroke-linecap="square"/>
<path d="M407.453 898.31L439.569 897.531L442.775 895.497" stroke="#2A2E43" stroke-linecap="square"/>
<path d="M411.974 833.418C413.048 843.743 413.702 853.928 413.935 863.97C414.168 874.013 413.981 883.966 413.376 893.827" stroke="#2A2E43" stroke-linecap="square"/>
<path fill-rule="evenodd" clip-rule="evenodd" d="M441.98 831.899C441.621 832.199 441.377 832.612 441.25 833.136C441.262 833.646 458.41 850.877 458.953 851.384C459.316 851.723 460.04 851.817 461.127 851.668L452.202 842.475L441.98 831.899Z" stroke="#2A2E43" stroke-linecap="square"/>
<path d="M336.834 900.879L334.636 899.313" stroke="#2A2E43" stroke-linecap="round"/>
<ellipse rx="9.76824" ry="9.68389" transform="matrix(0.999706 -0.0242578 0.0231944 0.999731 318.273 899.129)" fill="#F4F5F6"/>
<path fill-rule="evenodd" clip-rule="evenodd" d="M318.001 885.515C321.063 885.44 323.952 885.502 326.416 886.145C326.903 886.272 327.348 886.304 327.949 886.583C328.579 886.874 329.36 887.409 329.597 887.403C331.638 889.771 334.512 893.981 334.622 898.702C334.832 907.743 327.701 915.249 318.696 915.467C309.69 915.686 302.22 908.534 302.01 899.493C301.884 894.073 303.24 890.568 308.21 886.223C309.277 886.197 314.395 885.602 318.001 885.515ZM318.089 889.325C312.713 889.455 308.456 893.937 308.581 899.334C308.706 904.731 313.166 909.001 318.543 908.871C323.919 908.74 328.176 904.259 328.051 898.861C327.926 893.464 323.466 889.194 318.089 889.325Z" fill="#555869" stroke="#555869"/>
<ellipse rx="9.76824" ry="9.68388" transform="matrix(0.999706 -0.0242578 0.0231944 0.999731 459.262 896.319)" fill="#F4F5F6"/>
<path fill-rule="evenodd" clip-rule="evenodd" d="M458.852 879.981C467.858 879.763 475.328 886.914 475.538 895.955C475.748 904.996 468.617 912.502 459.612 912.72C450.606 912.939 443.136 905.787 442.926 896.746C442.716 887.706 449.847 880.2 458.852 879.981ZM459.005 886.578C453.629 886.708 449.372 891.19 449.497 896.587C449.622 901.984 454.082 906.254 459.459 906.124C464.835 905.993 469.092 901.512 468.967 896.115C468.842 890.717 464.382 886.447 459.005 886.578Z" fill="#555869" stroke="#555869"/>
<path d="M416.845 859.702C417.857 859.637 418.711 859.595 419.408 859.579C420.104 859.562 421.298 859.553 422.991 859.553" stroke="#2A2E43" stroke-linecap="round"/>
<path d="M416.73 859.98C416.915 859.975 417.062 859.849 417.058 859.697C417.055 859.545 416.902 859.426 416.717 859.43C416.533 859.435 416.386 859.561 416.389 859.713C416.393 859.865 416.545 859.984 416.73 859.98Z" fill="#2A2E43"/>
<path d="M423.193 859.089L422.524 859.106C422.423 859.108 422.343 859.192 422.345 859.293L422.355 859.721C422.358 859.822 422.441 859.902 422.542 859.9L423.211 859.883C423.312 859.881 423.392 859.797 423.39 859.696L423.38 859.268C423.377 859.167 423.294 859.087 423.193 859.089Z" stroke="#2A2E43"/>
<path d="M417.468 858.984L416.495 859.008C416.192 859.015 415.953 859.267 415.96 859.571L415.971 860.059C415.978 860.363 416.229 860.603 416.531 860.596L417.505 860.572C417.807 860.565 418.047 860.313 418.04 860.009L418.028 859.52C418.021 859.217 417.77 858.977 417.468 858.984Z" stroke="#2A2E43"/>
<path d="M417.056 863.516C417.408 863.508 417.688 863.214 417.68 862.86C417.671 862.505 417.379 862.225 417.026 862.234C416.673 862.242 416.394 862.536 416.402 862.891C416.41 863.245 416.703 863.525 417.056 863.516Z" stroke="#2A2E43"/>
<path d="M417.043 862.967C417.093 862.965 417.133 862.923 417.132 862.873C417.131 862.822 417.089 862.782 417.039 862.783C416.988 862.785 416.948 862.827 416.95 862.877C416.951 862.928 416.993 862.968 417.043 862.967Z" fill="#2A2E43" stroke="#2A2E43"/>
<path fill-rule="evenodd" clip-rule="evenodd" d="M329.764 820.532L390.364 819.061C392.213 819.016 393.746 820.484 393.789 822.339L394.251 842.252C394.294 844.107 392.83 845.648 390.982 845.692L330.382 847.163C328.534 847.208 327.001 845.74 326.958 843.885L326.496 823.972C326.453 822.117 327.916 820.577 329.764 820.532ZM358.543 819.833L359.161 846.465L358.543 819.833ZM360.064 819.796L360.682 846.428L360.064 819.796ZM328.208 819.042L391.85 817.497C393.698 817.452 395.231 818.92 395.274 820.776L395.807 843.742C395.85 845.597 394.387 847.138 392.539 847.183L328.897 848.727C327.048 848.772 325.515 847.304 325.472 845.449L324.939 822.482C324.896 820.627 326.36 819.086 328.208 819.042Z" stroke="#2A2E43"/>
<path d="M164.156 240.92C154.658 231.396 142.917 224.408 130.01 220.598C117.102 216.787 103.444 216.276 90.2874 219.112C77.1312 221.948 64.8993 228.04 54.7147 236.828C44.5302 245.616 36.7195 256.819 32 269.408L179.552 262.58C175.663 254.555 170.46 247.234 164.156 240.92Z" fill="#BFECF5"/>
<path d="M482.39 122.614C472.892 113.09 461.151 106.102 448.243 102.291C435.336 98.4807 421.678 97.97 408.521 100.806C395.365 103.642 383.133 109.734 372.949 118.522C362.764 127.31 354.953 138.513 350.234 151.102L497.786 144.274C493.897 136.248 488.694 128.928 482.39 122.614Z" fill="#BFECF5"/>
<defs>
<linearGradient id="paint0_linear" x1="720" y1="0" x2="720" y2="948" gradientUnits="userSpaceOnUse">
<stop stop-color="#00B2D9" stop-opacity="0.09"/>
<stop offset="0.609375" stop-color="#FAA05D" stop-opacity="0.1"/>
</linearGradient>
<clipPath id="clip0">
<rect width="1722" height="784" fill="white" transform="translate(-227 179)"/>
</clipPath>
</defs>
</svg>
