<?xml version="1.0" encoding="UTF-8" standalone="no"?>
<svg
   xmlns:dc="http://purl.org/dc/elements/1.1/"
   xmlns:cc="http://creativecommons.org/ns#"
   xmlns:rdf="http://www.w3.org/1999/02/22-rdf-syntax-ns#"
   xmlns:svg="http://www.w3.org/2000/svg"
   xmlns="http://www.w3.org/2000/svg"
   id="svg8"
   version="1.1"
   viewBox="0 0 33.421566 33.421566"
   height="33.421566mm"
   width="33.421566mm">
  <defs
     id="defs2">
    <clipPath
       id="clipPath9582"
       clipPathUnits="userSpaceOnUse">
      <rect
         ry="0.079697266"
         rx="0.14210717"
         y="-139.82961"
         x="-113.18864"
         height="204.86209"
         width="40.691788"
         id="rect9584"
         style="opacity:1;fill:#ffffff;fill-opacity:1;stroke:none;stroke-width:1.32291663;stroke-linecap:round;stroke-linejoin:round;stroke-miterlimit:4;stroke-dasharray:none;stroke-dashoffset:0;stroke-opacity:1" />
    </clipPath>
  </defs>
  <metadata
     id="metadata5">
    <rdf:RDF>
      <cc:Work
         rdf:about="">
        <dc:format>image/svg+xml</dc:format>
        <dc:type
           rdf:resource="http://purl.org/dc/dcmitype/StillImage" />
        <dc:title></dc:title>
      </cc:Work>
    </rdf:RDF>
  </metadata>
  <g
     transform="translate(-45.749777,-76.701799)"
     id="layer1">
    <circle
       r="14.726408"
       cy="93.412582"
       cx="62.46056"
       id="path842"
       style="opacity:1;fill:none;fill-opacity:1;stroke:#343e5b;stroke-width:3.96875;stroke-linecap:round;stroke-linejoin:round;stroke-miterlimit:4;stroke-dasharray:none;stroke-dashoffset:0;stroke-opacity:1" />
    <path
       id="path830"
       d="m 61.070088,103.64238 c -0.260322,-0.0557 -0.683868,-0.27061 -0.921886,-0.46766 -0.107409,-0.0889 -0.26402,-0.25328 -0.34803,-0.36525 -0.161727,-0.21555 -0.192419,-0.27985 -0.892279,-1.86965 -1.784836,-4.054423 -3.600441,-7.813576 -4.831231,-10.002917 -0.403225,-0.717258 -0.464252,-0.858727 -0.527765,-1.223411 -0.128319,-0.736757 0.139715,-1.511875 0.696605,-2.014499 0.541245,-0.488504 1.253054,-0.6859 1.954662,-0.542061 0.656904,0.134679 1.167394,0.513752 1.537718,1.141859 0.646938,1.097271 2.195117,4.132926 3.190142,6.255203 0.27149,0.579053 0.564656,1.204359 0.651482,1.389566 l 0.157864,0.336742 0.323323,-0.573999 c 3.161565,-5.612779 7.726811,-12.491901 11.474458,-16.539318 0.541234,-0.584529 1.809253,-1.856616 1.964348,-1.970654 1.10544,-0.812806 2.720007,-0.409861 3.321169,0.828856 0.171419,0.353214 0.218818,0.56371 0.220384,0.978684 0.0016,0.398192 -0.0423,0.608049 -0.197142,0.944328 -0.141414,0.307145 -0.215132,0.395734 -1.018982,1.224543 -1.16149,1.197564 -1.775604,1.871681 -2.698255,2.961906 -3.673543,4.340739 -8.336925,11.888023 -11.15422,17.546982 -0.258515,0.51926 -0.499563,0.98639 -0.535658,1.03799 -0.229631,0.32845 -0.548219,0.60192 -0.883854,0.75872 -0.431066,0.20138 -1.009652,0.26538 -1.482853,0.16404 z"
       style="fill:#333d5a;fill-opacity:1;stroke:none;stroke-width:1.22849369;stroke-miterlimit:4;stroke-dasharray:none;paint-order:fill markers stroke" />
  </g>
</svg>
