<?xml version="1.0" encoding="UTF-8" standalone="no"?>
<!DOCTYPE svg PUBLIC "-//W3C//DTD SVG 1.1//EN" "http://www.w3.org/Graphics/SVG/1.1/DTD/svg11.dtd">
<svg width="100%" height="100%" viewBox="0 0 2100 2547" version="1.1" xmlns="http://www.w3.org/2000/svg" xmlns:xlink="http://www.w3.org/1999/xlink" xml:space="preserve" xmlns:serif="http://www.serif.com/" style="fill-rule:evenodd;clip-rule:evenodd;stroke-linecap:round;stroke-linejoin:round;stroke-miterlimit:1.5;">
    <g transform="matrix(1,0,0,1,-6271.57,-4414.54)">
        <g id="Workout-Logo-2" transform="matrix(0.823529,0,0,0.771651,6271.57,4414.54)">
            <rect x="0" y="0" width="2550" height="3300" style="fill:none;"/>
            <g transform="matrix(10.9003,0,0,7.89822,-22825.5,-18013.2)">
                <g transform="matrix(0.341286,0.284159,-0.192928,0.502671,1973.91,1800.82)">
                    <g transform="matrix(1,0,0,1,-120.264,-1034.06)">
                        <path d="M1059.06,1967.95L925.237,1644.32L1000.41,1534.25L1106.67,1545.95L1147.19,1615.53L1068.63,1699.63L1030.32,1699.27L1073.03,1768.3C1073.03,1768.3 1158.22,1829.57 1194.58,1854.82C1226.47,1876.97 1294.22,1887.11 1291.22,1919.81C1288.23,1952.5 1205.64,2030.39 1176.6,2051C1160.27,2062.6 1133.35,2055.05 1116.99,2043.5C1097.4,2029.66 1059.06,1967.95 1059.06,1967.95Z" style="fill:rgb(255,191,0);"/>
                        <path d="M995.188,1522.89L996.766,1522.3L998.41,1521.91L1000.09,1521.76L1001.78,1521.83L1108.03,1533.53L1109.67,1533.82L1111.26,1534.33L1112.77,1535.04L1114.16,1535.95L1115.43,1537.04L1116.54,1538.28L1117.47,1539.66L1157.99,1609.24L1158.77,1610.83L1159.32,1612.52L1159.62,1614.27L1159.68,1616.04L1159.48,1617.8L1159.03,1619.52L1158.35,1621.16L1157.44,1622.68L1156.32,1624.06L1077.77,1708.16L1076.51,1709.34L1075.1,1710.33L1073.56,1711.11L1071.93,1711.68L1070.24,1712.02L1068.52,1712.12L1052.89,1711.98L1082.35,1759.6L1082.47,1759.68L1084.06,1760.83L1086.06,1762.26L1088.43,1763.97L1091.15,1765.92L1094.2,1768.11L1097.55,1770.52L1099.34,1771.8L1101.18,1773.12L1103.1,1774.49L1105.07,1775.91L1107.1,1777.36L1109.18,1778.86L1111.32,1780.38L1113.5,1781.95L1115.73,1783.54L1118,1785.17L1120.31,1786.82L1122.66,1788.5L1125.03,1790.2L1127.44,1791.92L1129.88,1793.66L1132.33,1795.42L1134.81,1797.19L1137.31,1798.97L1139.82,1800.76L1142.34,1802.56L1144.86,1804.36L1147.4,1806.17L1149.93,1807.98L1152.47,1809.78L1155,1811.58L1157.52,1813.38L1160.04,1815.17L1161.29,1816.06L1162.54,1816.94L1163.78,1817.83L1165.02,1818.71L1166.25,1819.58L1167.48,1820.46L1168.71,1821.32L1169.92,1822.19L1171.13,1823.05L1172.34,1823.9L1173.54,1824.75L1174.73,1825.59L1175.91,1826.43L1177.08,1827.26L1178.24,1828.08L1179.4,1828.9L1180.55,1829.71L1181.68,1830.51L1182.81,1831.3L1183.92,1832.09L1185.03,1832.87L1186.12,1833.64L1187.2,1834.4L1188.27,1835.15L1189.32,1835.89L1190.36,1836.62L1191.39,1837.35L1192.41,1838.06L1193.41,1838.76L1194.39,1839.45L1195.37,1840.13L1196.32,1840.8L1197.26,1841.46L1198.19,1842.1L1199.09,1842.73L1199.98,1843.36L1200.86,1843.96L1201.71,1844.55L1201.87,1844.66L1202.02,1844.77L1202.18,1844.88L1202.34,1844.99L1202.5,1845.1L1202.66,1845.2L1202.83,1845.31L1202.99,1845.42L1203.16,1845.53L1203.32,1845.64L1203.49,1845.75L1203.65,1845.85L1203.82,1845.96L1203.99,1846.07L1204.16,1846.18L1204.33,1846.29L1204.51,1846.4L1204.68,1846.51L1204.85,1846.61L1205.03,1846.72L1205.21,1846.83L1205.38,1846.94L1205.56,1847.05L1205.74,1847.15L1205.92,1847.26L1206.11,1847.37L1206.28,1847.48L1206.47,1847.59L1206.65,1847.7L1206.84,1847.8L1207.02,1847.91L1207.21,1848.02L1207.4,1848.13L1207.59,1848.24L1207.78,1848.35L1207.96,1848.45L1208.15,1848.56L1208.35,1848.67L1208.54,1848.78L1208.73,1848.88L1208.93,1848.99L1209.13,1849.1L1209.32,1849.21L1209.52,1849.32L1209.72,1849.42L1209.91,1849.53L1210.11,1849.64L1210.31,1849.75L1210.51,1849.85L1210.72,1849.96L1210.92,1850.07L1211.12,1850.18L1211.33,1850.28L1211.53,1850.39L1211.74,1850.5L1211.94,1850.61L1212.15,1850.71L1212.36,1850.82L1212.57,1850.93L1212.78,1851.03L1212.99,1851.14L1213.2,1851.25L1213.41,1851.35L1213.62,1851.46L1213.84,1851.57L1214.05,1851.67L1214.26,1851.78L1214.48,1851.89L1214.69,1852L1214.91,1852.1L1215.13,1852.21L1215.35,1852.31L1215.57,1852.42L1215.78,1852.53L1216,1852.63L1216.23,1852.74L1216.44,1852.85L1216.67,1852.95L1216.89,1853.06L1217.11,1853.16L1217.34,1853.27L1217.56,1853.38L1217.79,1853.48L1218.01,1853.59L1218.24,1853.69L1218.46,1853.8L1218.69,1853.9L1218.92,1854.01L1219.15,1854.12L1219.38,1854.22L1219.6,1854.33L1219.83,1854.43L1220.07,1854.54L1220.3,1854.64L1220.53,1854.75L1220.76,1854.86L1220.99,1854.96L1221.23,1855.07L1221.46,1855.17L1221.69,1855.28L1221.93,1855.38L1222.16,1855.49L1222.4,1855.59L1222.63,1855.7L1222.87,1855.8L1223.11,1855.91L1223.35,1856.01L1223.59,1856.12L1223.82,1856.22L1224.06,1856.33L1224.54,1856.54L1225.02,1856.75L1225.51,1856.96L1225.99,1857.16L1226.48,1857.38L1226.96,1857.58L1227.45,1857.79L1227.94,1858L1228.44,1858.21L1228.93,1858.42L1229.42,1858.63L1229.92,1858.84L1230.42,1859.05L1230.92,1859.26L1231.42,1859.47L1231.92,1859.67L1232.42,1859.88L1232.92,1860.09L1233.43,1860.3L1233.93,1860.51L1234.44,1860.72L1234.95,1860.93L1235.46,1861.14L1235.97,1861.35L1236.47,1861.56L1237.5,1861.98L1238.52,1862.4L1240.58,1863.24L1241.61,1863.66L1242.65,1864.08L1243.68,1864.51L1244.71,1864.93L1245.23,1865.14L1245.75,1865.36L1246.27,1865.57L1246.79,1865.79L1247.31,1866L1247.82,1866.22L1248.34,1866.43L1248.86,1866.65L1249.38,1866.86L1249.9,1867.08L1250.41,1867.3L1250.93,1867.51L1251.45,1867.73L1251.97,1867.95L1252.48,1868.17L1253,1868.39L1253.51,1868.61L1254.03,1868.83L1254.54,1869.05L1255.06,1869.27L1255.57,1869.49L1256.09,1869.72L1256.6,1869.94L1256.86,1870.05L1257.11,1870.17L1257.37,1870.28L1257.62,1870.39L1257.88,1870.5L1258.13,1870.62L1258.39,1870.73L1258.64,1870.84L1258.9,1870.96L1259.15,1871.07L1259.4,1871.18L1259.66,1871.3L1259.92,1871.41L1260.17,1871.53L1260.42,1871.64L1260.67,1871.76L1260.93,1871.87L1261.18,1871.99L1261.43,1872.1L1261.68,1872.22L1261.94,1872.34L1262.19,1872.45L1262.44,1872.57L1262.69,1872.68L1262.94,1872.8L1263.19,1872.92L1263.44,1873.04L1263.69,1873.15L1263.94,1873.27L1264.19,1873.39L1264.44,1873.51L1264.69,1873.63L1264.94,1873.75L1265.19,1873.86L1265.44,1873.98L1265.69,1874.1L1265.93,1874.22L1266.18,1874.34L1266.43,1874.46L1266.67,1874.58L1266.92,1874.7L1267.17,1874.83L1267.41,1874.95L1267.66,1875.07L1267.9,1875.19L1268.15,1875.31L1268.39,1875.43L1268.64,1875.56L1268.88,1875.68L1269.12,1875.81L1269.37,1875.93L1269.61,1876.05L1269.85,1876.18L1270.1,1876.3L1270.34,1876.43L1270.58,1876.55L1270.82,1876.68L1271.06,1876.81L1271.3,1876.93L1271.54,1877.06L1271.78,1877.19L1272.02,1877.31L1272.26,1877.44L1272.49,1877.57L1272.73,1877.7L1272.97,1877.83L1273.21,1877.95L1273.45,1878.09L1273.68,1878.22L1273.91,1878.35L1274.15,1878.48L1274.39,1878.61L1274.62,1878.74L1274.85,1878.87L1275.09,1879L1275.32,1879.14L1275.55,1879.27L1275.79,1879.4L1276.02,1879.54L1276.25,1879.67L1276.48,1879.81L1276.71,1879.94L1276.94,1880.08L1277.17,1880.21L1277.4,1880.35L1277.63,1880.49L1277.86,1880.63L1278.08,1880.76L1278.31,1880.9L1278.54,1881.04L1278.76,1881.18L1278.99,1881.32L1279.21,1881.46L1279.44,1881.6L1279.66,1881.74L1279.89,1881.88L1280.11,1882.03L1280.33,1882.17L1280.55,1882.31L1280.77,1882.46L1281,1882.6L1281.22,1882.75L1281.44,1882.89L1281.66,1883.04L1281.87,1883.18L1282.09,1883.33L1282.31,1883.48L1282.53,1883.63L1282.75,1883.78L1282.96,1883.92L1283.17,1884.07L1283.39,1884.23L1283.61,1884.38L1283.82,1884.53L1284.03,1884.68L1284.24,1884.83L1284.46,1884.99L1284.67,1885.14L1284.88,1885.3L1285.09,1885.45L1285.3,1885.61L1285.51,1885.77L1285.72,1885.93L1285.92,1886.09L1286.13,1886.24L1286.34,1886.4L1286.54,1886.56L1286.75,1886.73L1286.95,1886.89L1287.15,1887.05L1287.36,1887.21L1287.56,1887.38L1287.76,1887.54L1287.96,1887.71L1288.16,1887.88L1288.36,1888.04L1288.46,1888.12L1288.56,1888.21L1288.66,1888.3L1288.76,1888.38L1288.86,1888.46L1288.96,1888.55L1289.06,1888.63L1289.15,1888.71L1289.25,1888.8L1289.35,1888.89L1289.45,1888.98L1289.55,1889.06L1289.64,1889.15L1289.74,1889.24L1289.84,1889.32L1289.93,1889.41L1290.03,1889.49L1290.13,1889.58L1290.22,1889.67L1290.32,1889.76L1290.42,1889.85L1290.51,1889.93L1290.61,1890.03L1290.7,1890.12L1290.79,1890.2L1290.89,1890.29L1290.99,1890.38L1291.08,1890.47L1291.18,1890.56L1291.27,1890.65L1291.36,1890.74L1291.46,1890.83L1291.55,1890.92L1291.65,1891.02L1291.74,1891.11L1291.83,1891.19L1291.92,1891.29L1292.02,1891.38L1292.11,1891.47L1292.2,1891.57L1292.29,1891.66L1292.38,1891.75L1292.48,1891.85L1292.57,1891.94L1292.66,1892.03L1292.74,1892.12L1292.84,1892.22L1292.93,1892.32L1293.02,1892.41L1293.11,1892.5L1293.2,1892.6L1293.29,1892.7L1293.37,1892.79L1293.47,1892.89L1293.56,1892.98L1293.64,1893.08L1293.73,1893.18L1293.81,1893.27L1293.91,1893.37L1293.99,1893.47L1294.08,1893.57L1294.17,1893.67L1294.25,1893.76L1294.34,1893.86L1294.43,1893.96L1294.52,1894.06L1294.6,1894.16L1294.69,1894.26L1294.77,1894.36L1294.86,1894.46L1294.94,1894.56L1295.03,1894.66L1295.11,1894.76L1295.19,1894.86L1295.28,1894.96L1295.36,1895.06L1295.45,1895.17L1295.53,1895.27L1295.61,1895.37L1295.7,1895.48L1295.78,1895.58L1295.86,1895.68L1295.94,1895.79L1296.02,1895.89L1296.1,1896L1296.18,1896.1L1296.27,1896.21L1296.34,1896.32L1296.42,1896.42L1296.5,1896.53L1296.58,1896.63L1296.66,1896.74L1296.74,1896.85L1296.82,1896.95L1296.89,1897.06L1296.97,1897.17L1297.05,1897.28L1297.13,1897.39L1297.2,1897.49L1297.28,1897.6L1297.36,1897.71L1297.43,1897.82L1297.51,1897.93L1297.59,1898.05L1297.66,1898.15L1297.73,1898.26L1297.8,1898.37L1297.88,1898.48L1297.96,1898.6L1298.03,1898.72L1298.1,1898.82L1298.17,1898.93L1298.25,1899.05L1298.32,1899.16L1298.39,1899.27L1298.46,1899.39L1298.53,1899.5L1298.61,1899.62L1298.68,1899.74L1298.74,1899.85L1298.81,1899.96L1298.88,1900.08L1298.95,1900.2L1299.02,1900.32L1299.09,1900.43L1299.16,1900.55L1299.23,1900.67L1299.29,1900.78L1299.36,1900.9L1299.42,1901.01L1299.49,1901.13L1299.55,1901.25L1299.62,1901.38L1299.68,1901.5L1299.75,1901.61L1299.81,1901.73L1299.88,1901.86L1299.94,1901.98L1300,1902.09L1300.06,1902.22L1300.12,1902.34L1300.18,1902.45L1300.25,1902.59L1300.31,1902.71L1300.37,1902.83L1300.43,1902.95L1300.49,1903.08L1300.54,1903.19L1300.6,1903.32L1300.66,1903.45L1300.72,1903.58L1300.77,1903.69L1300.83,1903.82L1300.89,1903.95L1300.94,1904.08L1301,1904.2L1301.05,1904.33L1301.11,1904.46L1301.16,1904.59L1301.21,1904.71L1301.27,1904.83L1301.32,1904.96L1301.37,1905.1L1301.42,1905.23L1301.48,1905.35L1301.53,1905.48L1301.57,1905.61L1301.62,1905.73L1301.67,1905.87L1301.72,1906L1301.77,1906.13L1301.82,1906.26L1301.86,1906.39L1301.91,1906.52L1301.96,1906.65L1302,1906.8L1302.05,1906.93L1302.09,1907.05L1302.14,1907.19L1302.18,1907.32L1302.22,1907.45L1302.27,1907.59L1302.31,1907.72L1302.35,1907.86L1302.39,1907.99L1302.43,1908.12L1302.47,1908.26L1302.51,1908.39L1302.55,1908.52L1302.59,1908.67L1302.62,1908.8L1302.66,1908.94L1302.7,1909.08L1302.73,1909.21L1302.77,1909.35L1302.8,1909.48L1302.84,1909.62L1302.87,1909.76L1302.9,1909.89L1302.94,1910.04L1302.97,1910.17L1303,1910.31L1303.03,1910.44L1303.06,1910.59L1303.09,1910.73L1303.12,1910.87L1303.15,1911.01L1303.18,1911.14L1303.2,1911.28L1303.23,1911.42L1303.26,1911.57L1303.28,1911.71L1303.31,1911.85L1303.33,1911.99L1303.36,1912.12L1303.38,1912.27L1303.4,1912.41L1303.42,1912.55L1303.45,1912.7L1303.47,1912.84L1303.49,1912.97L1303.51,1913.12L1303.53,1913.26L1303.55,1913.41L1303.56,1913.55L1303.58,1913.69L1303.6,1913.83L1303.61,1913.97L1303.63,1914.12L1303.64,1914.26L1303.66,1914.41L1303.67,1914.55L1303.69,1914.69L1303.7,1914.84L1303.71,1914.98L1303.72,1915.12L1303.73,1915.27L1303.74,1915.41L1303.75,1915.56L1303.76,1915.7L1303.77,1915.84L1303.78,1915.99L1303.78,1916.13L1303.79,1916.28L1303.8,1916.43L1303.8,1916.57L1303.81,1916.71L1303.81,1916.85L1303.81,1917L1303.82,1917.15L1303.82,1917.3L1303.82,1917.43L1303.82,1917.59L1303.82,1917.74L1303.82,1917.87L1303.82,1918.03L1303.82,1918.17L1303.82,1918.31L1303.81,1918.46L1303.81,1918.61L1303.81,1918.76L1303.8,1918.89L1303.8,1919.04L1303.79,1919.2L1303.78,1919.33L1303.78,1919.48L1303.77,1919.63L1303.76,1919.78L1303.75,1919.92L1303.74,1920.07L1303.73,1920.22L1303.72,1920.36L1303.71,1920.51L1303.7,1920.64L1303.68,1920.8L1303.67,1920.95L1303.66,1921.1L1303.64,1921.26L1303.63,1921.4L1303.61,1921.55L1303.6,1921.7L1303.58,1921.85L1303.56,1922L1303.54,1922.15L1303.52,1922.31L1303.5,1922.45L1303.48,1922.59L1303.46,1922.75L1303.44,1922.91L1303.41,1923.05L1303.39,1923.2L1303.37,1923.35L1303.35,1923.49L1303.32,1923.64L1303.3,1923.78L1303.27,1923.94L1303.24,1924.09L1303.22,1924.24L1303.19,1924.37L1303.16,1924.53L1303.13,1924.68L1303.1,1924.82L1303.07,1924.97L1303.04,1925.12L1303.01,1925.27L1302.98,1925.4L1302.95,1925.56L1302.92,1925.7L1302.89,1925.85L1302.85,1926L1302.82,1926.14L1302.79,1926.29L1302.75,1926.43L1302.72,1926.57L1302.68,1926.72L1302.64,1926.87L1302.61,1927.02L1302.57,1927.16L1302.53,1927.3L1302.49,1927.45L1302.45,1927.6L1302.42,1927.74L1302.38,1927.88L1302.34,1928.03L1302.3,1928.18L1302.26,1928.32L1302.22,1928.46L1302.17,1928.6L1302.13,1928.75L1302.09,1928.89L1302.05,1929.04L1302,1929.18L1301.96,1929.32L1301.92,1929.47L1301.87,1929.62L1301.83,1929.76L1301.78,1929.9L1301.73,1930.04L1301.69,1930.19L1301.64,1930.33L1301.6,1930.47L1301.55,1930.62L1301.5,1930.76L1301.45,1930.91L1301.4,1931.05L1301.35,1931.19L1301.3,1931.34L1301.25,1931.48L1301.2,1931.62L1301.15,1931.76L1301.1,1931.9L1301.05,1932.05L1301,1932.19L1300.94,1932.34L1300.89,1932.48L1300.84,1932.62L1300.78,1932.77L1300.73,1932.91L1300.67,1933.05L1300.62,1933.19L1300.57,1933.34L1300.51,1933.48L1300.46,1933.62L1300.4,1933.77L1300.34,1933.91L1300.29,1934.05L1300.23,1934.19L1300.17,1934.34L1300.11,1934.48L1300.05,1934.63L1300,1934.76L1299.93,1934.91L1299.87,1935.05L1299.81,1935.19L1299.76,1935.34L1299.69,1935.49L1299.63,1935.63L1299.57,1935.76L1299.51,1935.91L1299.45,1936.05L1299.38,1936.2L1299.32,1936.34L1299.26,1936.48L1299.19,1936.62L1299.13,1936.77L1299.07,1936.91L1299,1937.05L1298.93,1937.2L1298.87,1937.35L1298.81,1937.48L1298.74,1937.63L1298.67,1937.77L1298.61,1937.92L1298.54,1938.06L1298.47,1938.2L1298.4,1938.34L1298.34,1938.49L1298.27,1938.63L1298.2,1938.78L1298.13,1938.92L1298.06,1939.07L1297.99,1939.2L1297.92,1939.35L1297.85,1939.5L1297.78,1939.64L1297.71,1939.78L1297.64,1939.92L1297.56,1940.07L1297.49,1940.22L1297.42,1940.36L1297.35,1940.5L1297.28,1940.64L1297.2,1940.79L1297.13,1940.94L1297.06,1941.07L1296.98,1941.22L1296.9,1941.37L1296.83,1941.51L1296.75,1941.66L1296.68,1941.8L1296.6,1941.94L1296.53,1942.09L1296.45,1942.24L1296.37,1942.38L1296.3,1942.52L1296.22,1942.67L1296.14,1942.82L1296.06,1942.96L1295.98,1943.11L1295.9,1943.25L1295.83,1943.4L1295.75,1943.54L1295.67,1943.68L1295.59,1943.83L1295.51,1943.97L1295.42,1944.12L1295.26,1944.41L1295.1,1944.7L1294.93,1945L1294.77,1945.29L1294.6,1945.58L1294.43,1945.87L1294.26,1946.16L1294.09,1946.46L1293.92,1946.75L1293.75,1947.04L1293.57,1947.34L1293.4,1947.63L1293.22,1947.93L1293.04,1948.22L1292.87,1948.52L1292.69,1948.81L1292.5,1949.11L1292.32,1949.4L1292.14,1949.7L1291.95,1949.99L1291.77,1950.29L1291.58,1950.59L1291.39,1950.88L1291.2,1951.18L1291.01,1951.48L1290.82,1951.78L1290.63,1952.08L1290.44,1952.37L1290.24,1952.67L1290.05,1952.97L1289.85,1953.27L1289.65,1953.57L1289.45,1953.87L1289.26,1954.17L1289.05,1954.47L1288.85,1954.77L1288.65,1955.07L1288.44,1955.38L1288.24,1955.68L1288.04,1955.98L1287.83,1956.28L1287.62,1956.59L1287.41,1956.88L1287.2,1957.19L1286.99,1957.49L1286.78,1957.8L1286.56,1958.1L1286.35,1958.4L1286.13,1958.71L1285.92,1959.01L1285.7,1959.32L1285.48,1959.62L1285.27,1959.93L1285.05,1960.23L1284.83,1960.54L1284.6,1960.85L1284.38,1961.15L1284.16,1961.46L1283.93,1961.77L1283.71,1962.07L1283.48,1962.38L1283.25,1962.69L1283.03,1963L1282.8,1963.3L1282.57,1963.61L1282.34,1963.92L1282.11,1964.23L1281.87,1964.54L1281.64,1964.85L1281.4,1965.16L1281.17,1965.46L1280.93,1965.78L1280.7,1966.09L1280.46,1966.4L1280.22,1966.71L1279.98,1967.02L1279.74,1967.33L1279.5,1967.64L1279.26,1967.95L1279.02,1968.26L1278.77,1968.57L1278.53,1968.88L1278.28,1969.2L1278.04,1969.51L1277.79,1969.82L1277.54,1970.13L1277.3,1970.45L1277.05,1970.76L1276.8,1971.07L1276.55,1971.38L1276.3,1971.7L1276.04,1972.01L1275.79,1972.32L1275.54,1972.64L1275.28,1972.95L1275.03,1973.27L1274.77,1973.58L1274.52,1973.89L1274.26,1974.21L1274,1974.52L1273.74,1974.84L1273.49,1975.15L1273.22,1975.47L1272.96,1975.78L1272.7,1976.1L1272.44,1976.41L1272.18,1976.73L1271.92,1977.04L1271.65,1977.36L1271.39,1977.67L1271.12,1977.99L1270.86,1978.31L1270.59,1978.62L1270.32,1978.94L1270.06,1979.25L1269.79,1979.57L1269.52,1979.88L1269.25,1980.2L1268.98,1980.52L1268.71,1980.84L1268.44,1981.15L1268.16,1981.47L1267.89,1981.78L1267.62,1982.1L1267.35,1982.42L1267.07,1982.73L1266.8,1983.05L1266.52,1983.36L1266.25,1983.68L1265.97,1984L1265.69,1984.32L1265.41,1984.63L1265.14,1984.95L1264.86,1985.26L1264.58,1985.58L1264.3,1985.9L1264.02,1986.22L1263.74,1986.53L1263.46,1986.85L1263.18,1987.16L1262.9,1987.48L1262.61,1987.8L1262.33,1988.11L1262.05,1988.43L1261.76,1988.75L1261.48,1989.06L1261.2,1989.38L1260.91,1989.7L1260.62,1990.01L1260.34,1990.33L1260.05,1990.64L1259.77,1990.96L1259.48,1991.28L1259.19,1991.59L1258.9,1991.91L1258.61,1992.22L1258.33,1992.54L1258.04,1992.85L1257.75,1993.17L1257.46,1993.49L1257.17,1993.8L1256.88,1994.12L1256.59,1994.43L1256.29,1994.75L1256,1995.06L1255.71,1995.37L1255.42,1995.69L1255.12,1996L1254.83,1996.32L1254.54,1996.63L1254.25,1996.95L1253.95,1997.26L1253.66,1997.57L1253.36,1997.89L1253.07,1998.2L1252.77,1998.51L1252.48,1998.83L1252.18,1999.14L1251.88,1999.45L1251.59,1999.76L1251.29,2000.08L1251,2000.39L1250.7,2000.7L1250.4,2001.01L1250.11,2001.32L1249.81,2001.63L1249.51,2001.94L1249.21,2002.25L1248.91,2002.57L1248.61,2002.88L1248.32,2003.18L1248.02,2003.5L1247.72,2003.81L1247.42,2004.12L1247.12,2004.42L1246.82,2004.73L1246.52,2005.04L1246.22,2005.35L1245.92,2005.66L1245.62,2005.97L1245.32,2006.27L1245.02,2006.58L1244.72,2006.89L1244.42,2007.19L1244.12,2007.5L1243.82,2007.81L1243.52,2008.11L1243.22,2008.42L1242.91,2008.72L1242.61,2009.03L1242.31,2009.33L1242.01,2009.64L1241.71,2009.94L1241.41,2010.25L1241.11,2010.55L1240.8,2010.85L1240.5,2011.15L1240.2,2011.46L1239.9,2011.76L1239.6,2012.06L1239.3,2012.36L1238.99,2012.66L1238.69,2012.96L1238.39,2013.26L1238.09,2013.56L1237.79,2013.86L1237.48,2014.16L1237.18,2014.46L1236.88,2014.76L1236.58,2015.05L1236.28,2015.35L1235.97,2015.65L1235.67,2015.94L1235.37,2016.24L1235.07,2016.54L1234.77,2016.83L1234.47,2017.13L1234.16,2017.42L1233.86,2017.72L1233.56,2018.01L1233.26,2018.3L1232.96,2018.6L1232.66,2018.89L1232.36,2019.18L1232.06,2019.47L1231.76,2019.76L1231.45,2020.05L1231.16,2020.34L1230.86,2020.63L1230.56,2020.92L1230.26,2021.21L1229.96,2021.5L1229.66,2021.78L1229.36,2022.07L1229.06,2022.36L1228.76,2022.64L1228.46,2022.93L1228.16,2023.21L1227.86,2023.5L1227.56,2023.78L1227.27,2024.06L1226.97,2024.35L1226.67,2024.63L1226.37,2024.91L1226.07,2025.19L1225.78,2025.47L1225.48,2025.75L1225.18,2026.03L1224.89,2026.31L1224.59,2026.59L1224.3,2026.87L1224,2027.15L1223.7,2027.42L1223.41,2027.7L1223.12,2027.97L1222.82,2028.25L1222.53,2028.52L1222.23,2028.8L1221.94,2029.07L1221.64,2029.34L1221.35,2029.62L1221.06,2029.88L1220.77,2030.15L1220.48,2030.42L1220.18,2030.69L1219.89,2030.96L1219.6,2031.23L1219.31,2031.5L1219.02,2031.77L1218.73,2032.03L1218.44,2032.3L1218.15,2032.56L1217.87,2032.83L1217.58,2033.09L1217.29,2033.35L1217,2033.61L1216.71,2033.88L1216.42,2034.14L1216.14,2034.39L1215.86,2034.65L1215.57,2034.91L1215.28,2035.17L1215,2035.43L1214.71,2035.69L1214.43,2035.94L1214.15,2036.2L1213.87,2036.45L1213.58,2036.71L1213.3,2036.96L1213.02,2037.21L1212.74,2037.46L1212.46,2037.71L1212.18,2037.96L1211.9,2038.21L1211.62,2038.46L1211.34,2038.71L1211.07,2038.95L1210.79,2039.2L1210.51,2039.44L1210.24,2039.69L1209.96,2039.93L1209.68,2040.18L1209.41,2040.42L1209.14,2040.66L1208.86,2040.9L1208.59,2041.14L1208.32,2041.38L1208.05,2041.62L1207.77,2041.86L1207.5,2042.09L1207.23,2042.32L1206.96,2042.56L1206.69,2042.8L1206.43,2043.03L1206.16,2043.26L1205.89,2043.49L1205.62,2043.72L1205.36,2043.95L1205.09,2044.18L1204.83,2044.41L1204.57,2044.63L1204.3,2044.86L1204.04,2045.09L1203.78,2045.31L1203.52,2045.54L1203.26,2045.76L1203,2045.98L1202.74,2046.2L1202.48,2046.42L1202.22,2046.64L1201.96,2046.86L1201.71,2047.08L1201.45,2047.29L1201.2,2047.51L1200.94,2047.72L1200.69,2047.94L1200.43,2048.15L1200.18,2048.36L1199.93,2048.57L1199.68,2048.78L1199.43,2048.99L1199.18,2049.2L1198.93,2049.41L1198.69,2049.61L1198.44,2049.82L1198.19,2050.02L1197.95,2050.22L1197.7,2050.43L1197.46,2050.63L1197.22,2050.83L1196.98,2051.03L1196.74,2051.22L1196.49,2051.42L1196.25,2051.62L1196.02,2051.81L1195.78,2052.01L1195.54,2052.2L1195.3,2052.39L1195.07,2052.59L1194.83,2052.77L1194.6,2052.96L1194.36,2053.15L1194.13,2053.34L1193.9,2053.52L1193.67,2053.71L1193.44,2053.89L1193.21,2054.08L1192.98,2054.26L1192.76,2054.44L1192.53,2054.62L1192.3,2054.8L1192.08,2054.98L1191.86,2055.15L1191.63,2055.33L1191.41,2055.5L1191.19,2055.68L1190.97,2055.85L1190.75,2056.02L1190.53,2056.19L1190.32,2056.36L1190.1,2056.53L1189.88,2056.7L1189.67,2056.86L1189.45,2057.03L1189.24,2057.19L1189.03,2057.35L1188.82,2057.51L1188.61,2057.68L1188.4,2057.84L1188.19,2057.99L1187.98,2058.15L1187.77,2058.31L1187.57,2058.46L1187.37,2058.62L1187.16,2058.77L1186.96,2058.92L1186.76,2059.07L1186.56,2059.22L1186.36,2059.37L1186.16,2059.52L1185.96,2059.66L1185.76,2059.81L1185.57,2059.95L1185.37,2060.1L1185.17,2060.24L1184.98,2060.38L1184.79,2060.51L1184.6,2060.65L1184.41,2060.79L1184.22,2060.93L1184.03,2061.06L1183.83,2061.2L1183.7,2061.29L1183.56,2061.39L1183.42,2061.49L1183.28,2061.59L1183.14,2061.68L1183,2061.78L1182.86,2061.87L1182.72,2061.97L1182.58,2062.06L1182.44,2062.15L1182.3,2062.24L1182.15,2062.33L1182.01,2062.42L1181.86,2062.51L1181.72,2062.6L1181.58,2062.69L1181.43,2062.78L1181.29,2062.87L1181.14,2062.95L1181.01,2063.03L1180.86,2063.12L1180.71,2063.21L1180.56,2063.29L1180.42,2063.37L1180.28,2063.46L1180.13,2063.54L1179.99,2063.62L1179.84,2063.7L1179.69,2063.78L1179.54,2063.86L1179.4,2063.94L1179.25,2064.02L1179.1,2064.09L1178.96,2064.17L1178.8,2064.25L1178.65,2064.32L1178.51,2064.4L1178.37,2064.47L1178.21,2064.54L1178.06,2064.62L1177.91,2064.69L1177.77,2064.76L1177.62,2064.83L1177.47,2064.9L1177.32,2064.97L1177.16,2065.04L1177.02,2065.11L1176.87,2065.18L1176.71,2065.24L1176.57,2065.31L1176.41,2065.38L1176.27,2065.44L1176.12,2065.5L1175.96,2065.57L1175.81,2065.64L1175.66,2065.7L1175.51,2065.76L1175.35,2065.82L1175.2,2065.88L1175.05,2065.94L1174.9,2066L1174.75,2066.06L1174.59,2066.12L1174.44,2066.18L1174.29,2066.23L1174.13,2066.29L1173.98,2066.35L1173.83,2066.4L1173.68,2066.46L1173.53,2066.51L1173.37,2066.57L1173.22,2066.62L1173.07,2066.67L1172.91,2066.72L1172.76,2066.78L1172.6,2066.83L1172.45,2066.88L1172.29,2066.93L1172.14,2066.97L1171.99,2067.02L1171.83,2067.07L1171.67,2067.12L1171.52,2067.17L1171.37,2067.21L1171.21,2067.26L1171.06,2067.3L1170.9,2067.35L1170.75,2067.39L1170.6,2067.43L1170.43,2067.48L1170.28,2067.52L1170.13,2067.56L1169.97,2067.6L1169.81,2067.65L1169.66,2067.68L1169.51,2067.72L1169.35,2067.76L1169.19,2067.8L1169.04,2067.84L1168.88,2067.88L1168.73,2067.91L1168.57,2067.95L1168.41,2067.99L1168.26,2068.02L1168.11,2068.06L1167.95,2068.09L1167.79,2068.12L1167.64,2068.16L1167.48,2068.19L1167.33,2068.22L1167.17,2068.26L1167.01,2068.28L1166.85,2068.32L1166.7,2068.35L1166.54,2068.38L1166.38,2068.41L1166.23,2068.43L1166.08,2068.46L1165.91,2068.49L1165.77,2068.51L1165.61,2068.54L1165.45,2068.57L1165.29,2068.6L1165.14,2068.62L1164.98,2068.64L1164.82,2068.67L1164.67,2068.69L1164.51,2068.72L1164.35,2068.74L1164.2,2068.76L1164.04,2068.78L1163.88,2068.8L1163.72,2068.82L1163.58,2068.84L1163.41,2068.86L1163.25,2068.88L1163.1,2068.9L1162.95,2068.92L1162.78,2068.94L1162.63,2068.96L1162.47,2068.97L1162.32,2068.99L1162.17,2069.01L1162,2069.02L1161.85,2069.04L1161.69,2069.05L1161.54,2069.07L1161.38,2069.08L1161.22,2069.09L1161.07,2069.1L1160.91,2069.12L1160.75,2069.13L1160.59,2069.14L1160.43,2069.15L1160.29,2069.16L1160.12,2069.17L1159.97,2069.18L1159.81,2069.19L1159.65,2069.2L1159.5,2069.21L1159.35,2069.22L1159.18,2069.23L1159.03,2069.23L1158.87,2069.24L1158.72,2069.25L1158.57,2069.25L1158.41,2069.26L1158.24,2069.26L1158.09,2069.27L1157.94,2069.27L1157.78,2069.28L1157.62,2069.28L1157.46,2069.28L1157.31,2069.28L1157.16,2069.29L1157,2069.29L1156.84,2069.29L1156.69,2069.29L1156.53,2069.29L1156.38,2069.29L1156.22,2069.29L1156.06,2069.29L1155.9,2069.29L1155.75,2069.29L1155.6,2069.29L1155.44,2069.29L1155.29,2069.28L1155.13,2069.28L1154.97,2069.28L1154.82,2069.27L1154.66,2069.27L1154.51,2069.26L1154.35,2069.26L1154.19,2069.26L1154.04,2069.25L1153.88,2069.24L1153.73,2069.24L1153.58,2069.23L1153.42,2069.22L1153.26,2069.22L1153.11,2069.21L1152.95,2069.2L1152.8,2069.19L1152.65,2069.18L1152.49,2069.17L1152.34,2069.16L1152.18,2069.15L1152.03,2069.14L1151.87,2069.13L1151.71,2069.12L1151.56,2069.11L1151.41,2069.1L1151.25,2069.09L1151.09,2069.07L1150.95,2069.06L1150.79,2069.05L1150.63,2069.03L1150.48,2069.02L1150.33,2069.01L1150.18,2068.99L1150.02,2068.98L1149.86,2068.96L1149.71,2068.95L1149.56,2068.93L1149.4,2068.91L1149.25,2068.9L1149.1,2068.88L1148.94,2068.86L1148.79,2068.85L1148.64,2068.83L1148.48,2068.81L1148.33,2068.79L1148.18,2068.77L1148.02,2068.75L1147.87,2068.73L1147.71,2068.71L1147.56,2068.69L1147.41,2068.67L1147.26,2068.65L1147.1,2068.63L1146.95,2068.61L1146.8,2068.59L1146.65,2068.56L1146.5,2068.54L1146.34,2068.52L1146.18,2068.49L1146.03,2068.47L1145.88,2068.45L1145.73,2068.43L1145.58,2068.4L1145.42,2068.37L1145.28,2068.35L1145.12,2068.32L1144.97,2068.3L1144.82,2068.27L1144.66,2068.25L1144.51,2068.22L1144.36,2068.19L1144.21,2068.17L1144.06,2068.14L1143.91,2068.11L1143.76,2068.08L1143.61,2068.05L1143.45,2068.03L1143.3,2068L1143.15,2067.97L1143,2067.94L1142.85,2067.91L1142.7,2067.88L1142.55,2067.85L1142.4,2067.82L1142.25,2067.79L1142.09,2067.75L1141.95,2067.72L1141.8,2067.69L1141.65,2067.66L1141.5,2067.63L1141.35,2067.59L1141.2,2067.56L1141.04,2067.53L1140.89,2067.49L1140.75,2067.46L1140.6,2067.43L1140.45,2067.39L1140.3,2067.36L1140.15,2067.32L1140.01,2067.29L1139.86,2067.25L1139.7,2067.22L1139.55,2067.18L1139.41,2067.15L1139.25,2067.11L1139.11,2067.07L1138.96,2067.03L1138.81,2066.99L1138.66,2066.96L1138.52,2066.92L1138.37,2066.88L1138.22,2066.84L1138.07,2066.8L1137.92,2066.76L1137.78,2066.73L1137.63,2066.69L1137.48,2066.65L1137.33,2066.61L1137.18,2066.57L1137.03,2066.53L1136.88,2066.49L1136.74,2066.44L1136.6,2066.4L1136.44,2066.36L1136.3,2066.32L1136.16,2066.28L1136,2066.23L1135.86,2066.19L1135.71,2066.15L1135.57,2066.11L1135.43,2066.07L1135.27,2066.02L1135.13,2065.98L1134.99,2065.93L1134.84,2065.89L1134.69,2065.84L1134.55,2065.8L1134.4,2065.75L1134.26,2065.71L1134.11,2065.66L1133.97,2065.62L1133.82,2065.57L1133.68,2065.53L1133.53,2065.48L1133.38,2065.43L1133.24,2065.38L1133.1,2065.34L1132.95,2065.29L1132.81,2065.24L1132.67,2065.19L1132.52,2065.14L1132.38,2065.1L1132.23,2065.05L1132.09,2065L1131.95,2064.95L1131.81,2064.9L1131.66,2064.85L1131.51,2064.8L1131.38,2064.75L1131.23,2064.7L1131.09,2064.65L1130.95,2064.6L1130.8,2064.55L1130.66,2064.5L1130.52,2064.45L1130.38,2064.39L1130.23,2064.34L1130.09,2064.29L1129.95,2064.24L1129.81,2064.18L1129.67,2064.13L1129.53,2064.08L1129.39,2064.03L1129.24,2063.97L1129.1,2063.92L1128.96,2063.87L1128.82,2063.81L1128.68,2063.76L1128.54,2063.7L1128.4,2063.65L1128.26,2063.59L1128.12,2063.54L1127.98,2063.48L1127.85,2063.43L1127.7,2063.37L1127.56,2063.31L1127.43,2063.26L1127.28,2063.2L1127.14,2063.14L1126.87,2063.03L1126.59,2062.92L1126.31,2062.8L1126.04,2062.69L1125.76,2062.57L1125.49,2062.45L1125.21,2062.33L1124.94,2062.21L1124.66,2062.09L1124.39,2061.97L1124.12,2061.85L1123.85,2061.73L1123.58,2061.6L1123.31,2061.48L1123.04,2061.35L1122.77,2061.23L1122.5,2061.1L1122.24,2060.97L1121.97,2060.85L1121.7,2060.72L1121.43,2060.59L1121.17,2060.46L1120.91,2060.32L1120.64,2060.19L1120.38,2060.06L1120.12,2059.93L1119.86,2059.79L1119.6,2059.66L1119.34,2059.52L1119.08,2059.39L1118.82,2059.25L1118.56,2059.11L1118.3,2058.97L1118.05,2058.83L1117.79,2058.69L1117.54,2058.55L1117.28,2058.41L1117.03,2058.27L1116.77,2058.13L1116.52,2057.99L1116.27,2057.84L1116.02,2057.7L1115.77,2057.55L1115.52,2057.41L1115.27,2057.26L1115.02,2057.11L1114.78,2056.96L1114.53,2056.82L1114.28,2056.66L1114.04,2056.51L1113.8,2056.37L1113.56,2056.22L1113.31,2056.06L1113.07,2055.91L1112.83,2055.76L1112.59,2055.6L1112.35,2055.45L1112.11,2055.29L1111.88,2055.14L1111.64,2054.98L1111.4,2054.82L1111.17,2054.67L1110.94,2054.51L1110.7,2054.35L1110.47,2054.19L1110.36,2054.11L1110.24,2054.03L1110.12,2053.95L1110.01,2053.87L1109.89,2053.79L1109.77,2053.7L1109.62,2053.59L1109.45,2053.47L1109.3,2053.36L1109.14,2053.25L1108.98,2053.12L1108.82,2053.01L1108.66,2052.89L1108.5,2052.77L1108.35,2052.65L1108.19,2052.53L1108.03,2052.41L1107.87,2052.28L1107.71,2052.16L1107.57,2052.04L1107.4,2051.91L1107.25,2051.78L1107.09,2051.66L1106.94,2051.54L1106.78,2051.41L1106.63,2051.28L1106.48,2051.15L1106.32,2051.02L1106.16,2050.89L1106.01,2050.76L1105.86,2050.63L1105.7,2050.5L1105.55,2050.37L1105.4,2050.23L1105.25,2050.1L1105.09,2049.96L1104.94,2049.83L1104.79,2049.69L1104.63,2049.55L1104.48,2049.42L1104.33,2049.28L1104.17,2049.14L1104.03,2049L1103.87,2048.86L1103.72,2048.72L1103.57,2048.58L1103.41,2048.44L1103.26,2048.29L1103.11,2048.15L1102.96,2048L1102.81,2047.86L1102.65,2047.72L1102.5,2047.57L1102.34,2047.42L1102.2,2047.27L1102.05,2047.13L1101.89,2046.98L1101.74,2046.83L1101.59,2046.67L1101.43,2046.52L1101.29,2046.38L1101.13,2046.22L1100.98,2046.07L1100.82,2045.91L1100.67,2045.77L1100.52,2045.61L1100.37,2045.45L1100.22,2045.3L1100.06,2045.14L1099.91,2044.98L1099.76,2044.83L1099.6,2044.67L1099.45,2044.51L1099.3,2044.35L1099.14,2044.19L1098.99,2044.03L1098.84,2043.87L1098.69,2043.71L1098.53,2043.54L1098.38,2043.38L1098.23,2043.22L1098.07,2043.05L1097.92,2042.89L1097.77,2042.72L1097.61,2042.56L1097.46,2042.39L1097.31,2042.22L1097.15,2042.06L1097,2041.89L1096.85,2041.72L1096.69,2041.55L1096.54,2041.38L1096.38,2041.21L1096.23,2041.04L1096.08,2040.87L1095.92,2040.69L1095.77,2040.52L1095.61,2040.35L1095.46,2040.17L1095.3,2040L1095.15,2039.83L1094.99,2039.65L1094.84,2039.47L1094.68,2039.3L1094.53,2039.12L1094.38,2038.95L1094.22,2038.77L1094.06,2038.59L1093.91,2038.41L1093.75,2038.23L1093.6,2038.05L1093.44,2037.87L1093.29,2037.69L1093.13,2037.51L1092.98,2037.33L1092.82,2037.14L1092.66,2036.96L1092.51,2036.78L1092.35,2036.59L1092.2,2036.41L1092.04,2036.23L1091.89,2036.04L1091.73,2035.86L1091.58,2035.67L1091.42,2035.48L1091.27,2035.3L1091.11,2035.11L1090.95,2034.92L1090.8,2034.74L1090.64,2034.55L1090.48,2034.36L1090.33,2034.17L1090.17,2033.98L1090.02,2033.79L1089.86,2033.6L1089.7,2033.41L1089.55,2033.22L1089.39,2033.02L1089.08,2032.64L1088.77,2032.25L1088.45,2031.87L1088.14,2031.48L1087.83,2031.09L1087.51,2030.7L1087.2,2030.31L1086.89,2029.91L1086.58,2029.52L1086.26,2029.12L1085.95,2028.72L1085.64,2028.32L1085.32,2027.92L1085.01,2027.52L1084.7,2027.12L1084.39,2026.72L1084.07,2026.31L1083.76,2025.91L1083.45,2025.5L1083.14,2025.1L1082.83,2024.69L1082.52,2024.28L1082.2,2023.87L1081.89,2023.46L1081.58,2023.05L1081.27,2022.64L1080.96,2022.23L1080.65,2021.82L1080.34,2021.4L1080.04,2020.99L1079.73,2020.58L1079.42,2020.16L1079.11,2019.75L1078.8,2019.33L1078.5,2018.92L1078.19,2018.5L1077.88,2018.09L1077.58,2017.67L1077.27,2017.25L1076.97,2016.84L1076.66,2016.42L1076.36,2016L1076.06,2015.59L1075.76,2015.17L1075.45,2014.75L1075.15,2014.34L1074.86,2013.92L1074.56,2013.5L1074.26,2013.09L1073.96,2012.67L1073.66,2012.26L1073.36,2011.84L1073.07,2011.43L1072.77,2011.01L1072.48,2010.6L1072.18,2010.18L1071.89,2009.77L1071.6,2009.36L1071.31,2008.95L1071.02,2008.54L1070.73,2008.12L1070.44,2007.71L1070.16,2007.31L1069.87,2006.9L1069.59,2006.49L1069.3,2006.08L1069.02,2005.67L1068.74,2005.27L1068.46,2004.87L1068.18,2004.46L1067.9,2004.06L1067.62,2003.66L1067.34,2003.26L1067.07,2002.86L1066.8,2002.46L1066.52,2002.07L1066.25,2001.67L1065.98,2001.28L1065.71,2000.88L1065.44,2000.49L1065.18,2000.1L1064.91,1999.71L1064.65,1999.33L1064.39,1998.94L1064.13,1998.56L1063.87,1998.17L1063.61,1997.79L1063.35,1997.41L1063.1,1997.04L1062.84,1996.66L1062.59,1996.29L1062.34,1995.91L1062.09,1995.54L1061.85,1995.18L1061.6,1994.81L1061.35,1994.44L1061.11,1994.08L1060.87,1993.72L1060.63,1993.37L1060.39,1993.01L1059.92,1992.3L1059.46,1991.61L1059,1990.92L1058.56,1990.24L1058.11,1989.57L1057.68,1988.91L1057.26,1988.27L1056.84,1987.63L1056.43,1987.01L1056.03,1986.39L1055.63,1985.79L1055.25,1985.2L1054.87,1984.62L1054.51,1984.06L1054.15,1983.51L1053.8,1982.97L1053.46,1982.44L1053.13,1981.93L1052.81,1981.44L1052.5,1980.96L1052.2,1980.49L1051.91,1980.04L1051.63,1979.6L1051.36,1979.18L1051.11,1978.78L1050.86,1978.39L1050.62,1978.02L1050.4,1977.66L1050.18,1977.33L1049.98,1977.01L1049.79,1976.7L1049.45,1976.16L1049.15,1975.69L1048.9,1975.29L1048.71,1974.98L1048.56,1974.75L1048.45,1974.57L1047.94,1973.67L1047.5,1972.73L913.686,1649.09L913.127,1647.41L912.811,1645.67L912.744,1643.91L912.927,1642.15L913.356,1640.43L914.023,1638.79L914.915,1637.27L990.087,1527.2L991.131,1525.88L992.345,1524.7L993.705,1523.7L995.188,1522.89ZM925.237,1644.32L1059.06,1967.95L1059.16,1968.13L1059.3,1968.35L1059.49,1968.65L1059.73,1969.03L1060.02,1969.49L1060.36,1970.03L1060.54,1970.32L1060.74,1970.63L1060.95,1970.96L1061.17,1971.31L1061.4,1971.67L1061.65,1972.06L1061.9,1972.45L1062.16,1972.87L1062.44,1973.3L1062.72,1973.74L1063.02,1974.2L1063.32,1974.67L1063.64,1975.16L1063.96,1975.66L1064.3,1976.18L1064.64,1976.71L1064.99,1977.26L1065.35,1977.81L1065.72,1978.38L1066.1,1978.96L1066.49,1979.55L1066.88,1980.16L1067.29,1980.77L1067.7,1981.4L1068.12,1982.04L1068.55,1982.69L1068.98,1983.35L1069.42,1984.01L1069.87,1984.69L1070.33,1985.38L1070.79,1986.07L1071.03,1986.42L1071.26,1986.78L1071.5,1987.13L1071.74,1987.49L1071.98,1987.85L1072.22,1988.21L1072.46,1988.57L1072.71,1988.93L1072.96,1989.3L1073.2,1989.67L1073.45,1990.04L1073.71,1990.41L1073.96,1990.78L1074.21,1991.16L1074.47,1991.53L1074.72,1991.91L1074.98,1992.29L1075.24,1992.67L1075.5,1993.05L1075.77,1993.44L1076.03,1993.82L1076.29,1994.21L1076.56,1994.6L1076.83,1994.99L1077.09,1995.38L1077.36,1995.77L1077.63,1996.16L1077.9,1996.55L1078.18,1996.95L1078.45,1997.34L1078.73,1997.74L1079,1998.13L1079.28,1998.53L1079.56,1998.93L1079.84,1999.33L1080.12,1999.73L1080.39,2000.13L1080.68,2000.54L1080.96,2000.94L1081.24,2001.34L1081.53,2001.74L1081.81,2002.15L1082.1,2002.55L1082.38,2002.96L1082.67,2003.36L1082.96,2003.77L1083.25,2004.17L1083.54,2004.58L1083.83,2004.99L1084.12,2005.39L1084.41,2005.8L1084.7,2006.21L1085,2006.62L1085.29,2007.02L1085.59,2007.43L1085.88,2007.84L1086.17,2008.24L1086.47,2008.65L1086.77,2009.06L1087.06,2009.47L1087.36,2009.87L1087.66,2010.28L1087.96,2010.68L1088.26,2011.09L1088.55,2011.49L1088.85,2011.9L1089.15,2012.3L1089.45,2012.71L1089.75,2013.11L1090.05,2013.51L1090.35,2013.91L1090.65,2014.32L1090.95,2014.72L1091.26,2015.12L1091.56,2015.52L1091.86,2015.91L1092.16,2016.31L1092.46,2016.71L1092.76,2017.1L1093.06,2017.5L1093.37,2017.89L1093.67,2018.28L1093.97,2018.67L1094.27,2019.07L1094.57,2019.46L1094.87,2019.84L1095.18,2020.23L1095.48,2020.62L1095.78,2021L1096.08,2021.38L1096.38,2021.76L1096.68,2022.14L1096.98,2022.52L1097.28,2022.9L1097.58,2023.27L1097.88,2023.65L1098.18,2024.02L1098.48,2024.39L1098.78,2024.76L1099.08,2025.13L1099.23,2025.31L1099.38,2025.49L1099.53,2025.67L1099.67,2025.85L1099.82,2026.04L1099.97,2026.22L1100.12,2026.4L1100.27,2026.58L1100.42,2026.75L1100.57,2026.93L1100.71,2027.11L1100.86,2027.29L1101.01,2027.47L1101.16,2027.64L1101.31,2027.82L1101.45,2027.99L1101.6,2028.17L1101.75,2028.34L1101.89,2028.52L1102.04,2028.69L1102.19,2028.86L1102.34,2029.04L1102.48,2029.21L1102.63,2029.38L1102.77,2029.55L1102.92,2029.72L1103.07,2029.89L1103.21,2030.06L1103.36,2030.23L1103.5,2030.39L1103.65,2030.56L1103.79,2030.73L1103.94,2030.89L1104.08,2031.06L1104.23,2031.22L1104.37,2031.39L1104.52,2031.55L1104.66,2031.71L1104.8,2031.87L1104.95,2032.04L1105.09,2032.2L1105.23,2032.36L1105.38,2032.52L1105.52,2032.67L1105.66,2032.83L1105.8,2032.99L1105.95,2033.15L1106.09,2033.3L1106.23,2033.46L1106.37,2033.61L1106.51,2033.77L1106.65,2033.92L1106.8,2034.08L1106.93,2034.23L1107.08,2034.38L1107.22,2034.53L1107.36,2034.68L1107.5,2034.83L1107.63,2034.98L1107.77,2035.12L1107.91,2035.27L1108.05,2035.42L1108.19,2035.56L1108.33,2035.71L1108.47,2035.85L1108.6,2035.99L1108.74,2036.14L1108.88,2036.28L1109.02,2036.42L1109.15,2036.56L1109.29,2036.7L1109.42,2036.84L1109.56,2036.97L1109.7,2037.11L1109.83,2037.25L1109.97,2037.38L1110.1,2037.52L1110.24,2037.65L1110.37,2037.78L1110.5,2037.91L1110.64,2038.05L1110.77,2038.17L1110.9,2038.3L1111.04,2038.43L1111.17,2038.56L1111.3,2038.69L1111.43,2038.81L1111.56,2038.94L1111.69,2039.06L1111.83,2039.19L1111.95,2039.31L1112.09,2039.43L1112.21,2039.55L1112.34,2039.67L1112.47,2039.79L1112.6,2039.91L1112.73,2040.02L1112.86,2040.14L1112.99,2040.25L1113.11,2040.37L1113.24,2040.48L1113.37,2040.59L1113.49,2040.71L1113.62,2040.82L1113.75,2040.92L1113.87,2041.03L1114,2041.14L1114.12,2041.25L1114.24,2041.35L1114.37,2041.46L1114.49,2041.56L1114.62,2041.66L1114.74,2041.76L1114.86,2041.87L1114.98,2041.97L1115.1,2042.06L1115.22,2042.16L1115.35,2042.26L1115.46,2042.35L1115.59,2042.45L1115.7,2042.54L1115.82,2042.63L1115.94,2042.72L1116.06,2042.81L1116.18,2042.9L1116.3,2042.99L1116.41,2043.08L1116.53,2043.16L1116.65,2043.25L1116.76,2043.33L1116.88,2043.42L1116.99,2043.5L1117.09,2043.57L1117.18,2043.63L1117.28,2043.7L1117.38,2043.77L1117.48,2043.84L1117.57,2043.9L1117.77,2044.04L1117.96,2044.17L1118.16,2044.3L1118.36,2044.44L1118.56,2044.57L1118.76,2044.7L1118.96,2044.83L1119.16,2044.96L1119.36,2045.1L1119.56,2045.23L1119.77,2045.36L1119.97,2045.49L1120.18,2045.61L1120.38,2045.74L1120.59,2045.87L1120.8,2046L1121.01,2046.12L1121.22,2046.25L1121.43,2046.38L1121.64,2046.5L1121.85,2046.63L1122.07,2046.75L1122.28,2046.88L1122.5,2047L1122.71,2047.13L1122.93,2047.25L1123.14,2047.37L1123.36,2047.49L1123.58,2047.61L1123.8,2047.73L1124.02,2047.85L1124.24,2047.97L1124.46,2048.09L1124.68,2048.21L1124.91,2048.33L1125.13,2048.45L1125.35,2048.56L1125.58,2048.68L1125.8,2048.8L1126.03,2048.91L1126.26,2049.02L1126.48,2049.14L1126.71,2049.25L1126.94,2049.36L1127.17,2049.47L1127.4,2049.59L1127.63,2049.7L1127.86,2049.81L1128.09,2049.92L1128.32,2050.03L1128.56,2050.13L1128.79,2050.24L1129.02,2050.35L1129.26,2050.45L1129.49,2050.56L1129.73,2050.66L1129.96,2050.77L1130.2,2050.87L1130.44,2050.97L1130.67,2051.07L1130.91,2051.18L1131.15,2051.28L1131.39,2051.38L1131.63,2051.47L1131.87,2051.57L1131.99,2051.62L1132.11,2051.67L1132.23,2051.72L1132.35,2051.77L1132.47,2051.82L1132.59,2051.86L1132.71,2051.91L1132.83,2051.96L1132.95,2052.01L1133.07,2052.05L1133.19,2052.1L1133.32,2052.15L1133.44,2052.19L1133.56,2052.24L1133.68,2052.29L1133.8,2052.33L1133.92,2052.38L1134.04,2052.42L1134.17,2052.47L1134.29,2052.51L1134.41,2052.56L1134.53,2052.61L1134.65,2052.65L1134.78,2052.69L1134.9,2052.74L1135.02,2052.78L1135.14,2052.83L1135.27,2052.87L1135.39,2052.91L1135.51,2052.96L1135.64,2053L1135.76,2053.04L1135.88,2053.09L1136.01,2053.13L1136.13,2053.17L1136.25,2053.21L1136.38,2053.25L1136.5,2053.3L1136.62,2053.34L1136.75,2053.38L1136.87,2053.42L1137,2053.46L1137.12,2053.5L1137.24,2053.54L1137.37,2053.58L1137.49,2053.62L1137.62,2053.66L1137.74,2053.7L1137.86,2053.74L1137.99,2053.78L1138.11,2053.82L1138.24,2053.86L1138.36,2053.89L1138.49,2053.93L1138.61,2053.97L1138.74,2054.01L1138.86,2054.05L1138.99,2054.08L1139.11,2054.12L1139.24,2054.16L1139.36,2054.19L1139.49,2054.23L1139.61,2054.27L1139.74,2054.3L1139.86,2054.34L1139.99,2054.37L1140.11,2054.41L1140.24,2054.44L1140.36,2054.48L1140.49,2054.51L1140.62,2054.55L1140.74,2054.58L1140.87,2054.62L1140.99,2054.65L1141.12,2054.68L1141.24,2054.72L1141.37,2054.75L1141.5,2054.78L1141.62,2054.81L1141.75,2054.85L1141.87,2054.88L1142,2054.91L1142.13,2054.94L1142.25,2054.97L1142.38,2055L1142.5,2055.03L1142.63,2055.06L1142.76,2055.09L1142.88,2055.12L1143.01,2055.15L1143.14,2055.18L1143.26,2055.21L1143.39,2055.24L1143.52,2055.27L1143.64,2055.3L1143.77,2055.33L1143.89,2055.36L1144.02,2055.38L1144.15,2055.41L1144.27,2055.44L1144.4,2055.47L1144.53,2055.49L1144.65,2055.52L1144.78,2055.55L1144.91,2055.57L1145.03,2055.6L1145.16,2055.62L1145.29,2055.65L1145.41,2055.67L1145.54,2055.7L1145.67,2055.72L1145.79,2055.75L1145.92,2055.77L1146.05,2055.8L1146.17,2055.82L1146.3,2055.84L1146.43,2055.86L1146.55,2055.89L1146.68,2055.91L1146.81,2055.93L1146.93,2055.95L1147.06,2055.97L1147.19,2056L1147.32,2056.02L1147.44,2056.04L1147.57,2056.06L1147.69,2056.08L1147.82,2056.1L1147.95,2056.12L1148.08,2056.14L1148.2,2056.16L1148.33,2056.18L1148.45,2056.2L1148.58,2056.21L1148.71,2056.23L1148.84,2056.25L1148.96,2056.27L1149.09,2056.28L1149.21,2056.3L1149.34,2056.32L1149.47,2056.34L1149.6,2056.35L1149.72,2056.37L1149.85,2056.38L1149.97,2056.4L1150.1,2056.41L1150.23,2056.43L1150.35,2056.44L1150.48,2056.46L1150.61,2056.47L1150.73,2056.48L1150.86,2056.5L1150.99,2056.51L1151.11,2056.52L1151.24,2056.54L1151.36,2056.55L1151.49,2056.56L1151.62,2056.57L1151.74,2056.58L1151.87,2056.59L1151.99,2056.61L1152.12,2056.62L1152.25,2056.63L1152.37,2056.64L1152.5,2056.64L1152.62,2056.65L1152.75,2056.66L1152.88,2056.67L1153,2056.68L1153.13,2056.69L1153.25,2056.7L1153.38,2056.7L1153.5,2056.71L1153.63,2056.72L1153.75,2056.72L1153.88,2056.73L1154,2056.74L1154.13,2056.74L1154.25,2056.75L1154.38,2056.75L1154.5,2056.76L1154.63,2056.76L1154.75,2056.77L1154.88,2056.77L1155,2056.77L1155.13,2056.78L1155.25,2056.78L1155.38,2056.78L1155.5,2056.78L1155.63,2056.79L1155.75,2056.79L1155.88,2056.79L1156,2056.79L1156.12,2056.79L1156.25,2056.79L1156.37,2056.79L1156.5,2056.79L1156.62,2056.79L1156.74,2056.79L1156.87,2056.79L1156.99,2056.79L1157.11,2056.79L1157.24,2056.78L1157.36,2056.78L1157.49,2056.78L1157.61,2056.78L1157.73,2056.77L1157.85,2056.77L1157.98,2056.76L1158.1,2056.76L1158.22,2056.76L1158.35,2056.75L1158.47,2056.74L1158.59,2056.74L1158.71,2056.73L1158.84,2056.73L1158.96,2056.72L1159.08,2056.71L1159.2,2056.71L1159.33,2056.7L1159.45,2056.69L1159.57,2056.68L1159.69,2056.67L1159.81,2056.66L1159.93,2056.66L1160.06,2056.65L1160.18,2056.64L1160.3,2056.62L1160.42,2056.62L1160.54,2056.6L1160.66,2056.59L1160.78,2056.58L1160.9,2056.57L1161.02,2056.56L1161.14,2056.54L1161.26,2056.53L1161.38,2056.52L1161.5,2056.5L1161.62,2056.49L1161.74,2056.47L1161.86,2056.46L1161.98,2056.45L1162.1,2056.43L1162.22,2056.41L1162.34,2056.4L1162.46,2056.38L1162.58,2056.36L1162.7,2056.35L1162.82,2056.33L1162.94,2056.31L1163.06,2056.29L1163.17,2056.27L1163.29,2056.26L1163.41,2056.24L1163.53,2056.22L1163.65,2056.2L1163.77,2056.18L1163.88,2056.16L1164,2056.13L1164.12,2056.11L1164.24,2056.09L1164.35,2056.07L1164.47,2056.05L1164.59,2056.02L1164.7,2056L1164.82,2055.98L1164.94,2055.95L1165.05,2055.93L1165.17,2055.9L1165.29,2055.88L1165.4,2055.85L1165.52,2055.83L1165.63,2055.8L1165.75,2055.77L1165.87,2055.75L1165.98,2055.72L1166.1,2055.69L1166.21,2055.66L1166.33,2055.64L1166.44,2055.61L1166.55,2055.58L1166.67,2055.55L1166.78,2055.52L1166.9,2055.49L1167.01,2055.46L1167.12,2055.43L1167.24,2055.39L1167.35,2055.36L1167.46,2055.33L1167.58,2055.3L1167.69,2055.26L1167.8,2055.23L1167.92,2055.2L1168.03,2055.16L1168.14,2055.13L1168.25,2055.09L1168.37,2055.06L1168.48,2055.02L1168.59,2054.99L1168.7,2054.95L1168.81,2054.91L1168.92,2054.88L1169.03,2054.84L1169.14,2054.8L1169.26,2054.76L1169.37,2054.72L1169.48,2054.68L1169.59,2054.65L1169.7,2054.61L1169.81,2054.57L1169.91,2054.53L1170.02,2054.48L1170.13,2054.44L1170.24,2054.4L1170.35,2054.36L1170.46,2054.32L1170.57,2054.27L1170.68,2054.23L1170.79,2054.18L1170.89,2054.14L1171,2054.1L1171.11,2054.05L1171.21,2054.01L1171.32,2053.96L1171.43,2053.91L1171.54,2053.87L1171.64,2053.82L1171.75,2053.77L1171.86,2053.72L1171.96,2053.68L1172.07,2053.63L1172.17,2053.58L1172.28,2053.53L1172.38,2053.48L1172.49,2053.43L1172.59,2053.38L1172.7,2053.33L1172.8,2053.28L1172.9,2053.22L1173.01,2053.17L1173.11,2053.12L1173.22,2053.06L1173.32,2053.01L1173.42,2052.96L1173.53,2052.9L1173.63,2052.85L1173.73,2052.79L1173.83,2052.74L1173.93,2052.68L1174.04,2052.62L1174.14,2052.57L1174.24,2052.51L1174.34,2052.45L1174.44,2052.39L1174.54,2052.34L1174.64,2052.28L1174.74,2052.22L1174.84,2052.16L1174.94,2052.1L1175.04,2052.03L1175.14,2051.97L1175.24,2051.91L1175.34,2051.85L1175.44,2051.79L1175.54,2051.72L1175.63,2051.66L1175.73,2051.6L1175.83,2051.53L1175.93,2051.47L1176.03,2051.4L1176.12,2051.34L1176.22,2051.27L1176.32,2051.2L1176.41,2051.14L1176.51,2051.07L1176.6,2051L1176.77,2050.88L1176.95,2050.76L1177.12,2050.64L1177.29,2050.51L1177.47,2050.38L1177.65,2050.26L1177.82,2050.13L1178,2050L1178.18,2049.86L1178.37,2049.73L1178.55,2049.6L1178.73,2049.46L1178.92,2049.32L1179.1,2049.19L1179.29,2049.05L1179.48,2048.91L1179.67,2048.76L1179.86,2048.62L1180.05,2048.48L1180.24,2048.33L1180.44,2048.18L1180.63,2048.04L1180.83,2047.89L1181.03,2047.74L1181.22,2047.59L1181.42,2047.43L1181.62,2047.28L1181.83,2047.12L1182.03,2046.97L1182.23,2046.81L1182.44,2046.65L1182.64,2046.49L1182.85,2046.33L1183.06,2046.17L1183.27,2046.01L1183.48,2045.84L1183.69,2045.68L1183.9,2045.51L1184.11,2045.34L1184.33,2045.17L1184.54,2045L1184.76,2044.83L1184.97,2044.66L1185.19,2044.49L1185.41,2044.31L1185.63,2044.13L1185.85,2043.96L1186.07,2043.78L1186.3,2043.6L1186.52,2043.42L1186.74,2043.24L1186.97,2043.06L1187.19,2042.87L1187.42,2042.69L1187.65,2042.5L1187.88,2042.32L1188.11,2042.13L1188.34,2041.94L1188.57,2041.75L1188.8,2041.56L1189.04,2041.37L1189.27,2041.18L1189.51,2040.98L1189.74,2040.79L1189.98,2040.59L1190.22,2040.4L1190.46,2040.2L1190.69,2040L1190.93,2039.8L1191.18,2039.6L1191.42,2039.4L1191.66,2039.19L1191.9,2038.99L1192.15,2038.79L1192.39,2038.58L1192.64,2038.37L1192.88,2038.16L1193.13,2037.96L1193.38,2037.75L1193.63,2037.54L1193.88,2037.33L1194.13,2037.11L1194.38,2036.9L1194.63,2036.68L1194.88,2036.47L1195.14,2036.25L1195.39,2036.04L1195.65,2035.82L1195.9,2035.6L1196.16,2035.38L1196.41,2035.16L1196.67,2034.94L1196.93,2034.72L1197.19,2034.49L1197.45,2034.27L1197.71,2034.04L1197.97,2033.82L1198.23,2033.59L1198.49,2033.36L1198.75,2033.13L1199.02,2032.9L1199.28,2032.67L1199.55,2032.44L1199.81,2032.21L1200.08,2031.98L1200.34,2031.75L1200.61,2031.51L1200.88,2031.28L1201.14,2031.04L1201.41,2030.8L1201.68,2030.56L1201.95,2030.33L1202.22,2030.09L1202.49,2029.85L1202.77,2029.61L1203.04,2029.36L1203.31,2029.12L1203.58,2028.88L1203.86,2028.63L1204.13,2028.39L1204.41,2028.14L1204.68,2027.9L1204.96,2027.65L1205.23,2027.4L1205.51,2027.15L1205.79,2026.91L1206.06,2026.66L1206.34,2026.4L1206.62,2026.15L1206.9,2025.9L1207.18,2025.65L1207.46,2025.39L1207.74,2025.14L1208.02,2024.89L1208.3,2024.63L1208.58,2024.37L1208.86,2024.12L1209.15,2023.86L1209.43,2023.6L1209.71,2023.34L1210,2023.08L1210.28,2022.82L1210.57,2022.56L1210.85,2022.3L1211.13,2022.04L1211.42,2021.77L1211.71,2021.51L1211.99,2021.25L1212.28,2020.98L1212.57,2020.72L1212.85,2020.45L1213.14,2020.18L1213.43,2019.91L1213.72,2019.65L1214.01,2019.38L1214.29,2019.11L1214.58,2018.84L1214.87,2018.57L1215.16,2018.3L1215.45,2018.03L1215.74,2017.75L1216.03,2017.48L1216.32,2017.21L1216.61,2016.93L1216.9,2016.66L1217.2,2016.38L1217.49,2016.11L1217.78,2015.83L1218.07,2015.56L1218.37,2015.28L1218.66,2015L1218.95,2014.72L1219.24,2014.44L1219.54,2014.16L1219.83,2013.88L1220.12,2013.6L1220.42,2013.32L1220.71,2013.04L1221.01,2012.76L1221.3,2012.48L1221.59,2012.19L1221.89,2011.91L1222.18,2011.63L1222.48,2011.34L1222.77,2011.06L1223.07,2010.77L1223.36,2010.49L1223.66,2010.2L1223.95,2009.92L1224.25,2009.63L1224.55,2009.34L1224.84,2009.05L1225.14,2008.77L1225.43,2008.48L1225.73,2008.19L1226.03,2007.9L1226.32,2007.61L1226.62,2007.32L1226.91,2007.03L1227.21,2006.74L1227.51,2006.44L1227.8,2006.15L1228.1,2005.86L1228.39,2005.57L1228.69,2005.27L1228.99,2004.98L1229.28,2004.69L1229.58,2004.39L1229.88,2004.1L1230.17,2003.8L1230.47,2003.51L1230.77,2003.21L1231.06,2002.92L1231.36,2002.62L1231.65,2002.32L1231.95,2002.03L1232.25,2001.73L1232.54,2001.43L1232.84,2001.13L1233.13,2000.84L1233.43,2000.54L1233.72,2000.24L1234.02,1999.94L1234.32,1999.64L1234.61,1999.34L1234.91,1999.04L1235.2,1998.74L1235.5,1998.44L1235.79,1998.14L1236.09,1997.84L1236.38,1997.54L1236.67,1997.24L1236.97,1996.93L1237.26,1996.63L1237.56,1996.33L1237.85,1996.03L1238.14,1995.73L1238.44,1995.42L1238.73,1995.12L1239.02,1994.82L1239.32,1994.51L1239.61,1994.21L1239.9,1993.9L1240.19,1993.6L1240.49,1993.3L1240.78,1992.99L1241.07,1992.69L1241.36,1992.38L1241.65,1992.08L1241.94,1991.77L1242.23,1991.47L1242.52,1991.16L1242.81,1990.85L1243.1,1990.55L1243.39,1990.24L1243.68,1989.94L1243.97,1989.63L1244.26,1989.32L1244.55,1989.02L1244.83,1988.71L1245.12,1988.4L1245.41,1988.1L1245.69,1987.79L1245.98,1987.48L1246.27,1987.17L1246.55,1986.87L1246.84,1986.56L1247.12,1986.25L1247.41,1985.94L1247.69,1985.64L1247.98,1985.33L1248.26,1985.02L1248.54,1984.71L1248.83,1984.4L1249.11,1984.1L1249.39,1983.79L1249.67,1983.48L1249.95,1983.17L1250.23,1982.86L1250.51,1982.56L1250.79,1982.25L1251.07,1981.94L1251.35,1981.63L1251.63,1981.32L1251.91,1981.01L1252.18,1980.71L1252.46,1980.4L1252.74,1980.09L1253.01,1979.78L1253.29,1979.47L1253.57,1979.16L1253.84,1978.86L1254.11,1978.55L1254.39,1978.24L1254.66,1977.93L1254.93,1977.62L1255.2,1977.32L1255.48,1977.01L1255.75,1976.7L1256.02,1976.39L1256.29,1976.08L1256.56,1975.78L1256.82,1975.47L1257.09,1975.16L1257.36,1974.85L1257.63,1974.54L1257.89,1974.24L1258.16,1973.93L1258.42,1973.62L1258.69,1973.32L1258.95,1973.01L1259.21,1972.7L1259.48,1972.39L1259.74,1972.09L1260,1971.78L1260.26,1971.48L1260.52,1971.17L1260.78,1970.86L1261.04,1970.56L1261.3,1970.25L1261.55,1969.94L1261.81,1969.64L1262.07,1969.33L1262.32,1969.03L1262.58,1968.72L1262.83,1968.42L1263.08,1968.12L1263.34,1967.81L1263.59,1967.51L1263.84,1967.2L1264.09,1966.9L1264.34,1966.6L1264.59,1966.29L1264.83,1965.99L1265.08,1965.68L1265.33,1965.38L1265.57,1965.08L1265.82,1964.78L1266.06,1964.48L1266.31,1964.17L1266.55,1963.87L1266.79,1963.57L1267.03,1963.27L1267.27,1962.97L1267.51,1962.67L1267.75,1962.37L1267.99,1962.07L1268.22,1961.77L1268.46,1961.47L1268.69,1961.17L1268.93,1960.87L1269.16,1960.57L1269.39,1960.27L1269.62,1959.98L1269.86,1959.68L1270.09,1959.38L1270.31,1959.08L1270.54,1958.79L1270.77,1958.49L1271,1958.19L1271.22,1957.9L1271.44,1957.6L1271.67,1957.31L1271.89,1957.01L1272.11,1956.72L1272.33,1956.42L1272.55,1956.13L1272.77,1955.84L1272.99,1955.55L1273.2,1955.25L1273.42,1954.96L1273.64,1954.67L1273.85,1954.38L1274.06,1954.09L1274.27,1953.8L1274.49,1953.51L1274.69,1953.22L1274.9,1952.93L1275.11,1952.64L1275.32,1952.35L1275.52,1952.06L1275.73,1951.78L1275.93,1951.49L1276.13,1951.2L1276.34,1950.91L1276.54,1950.63L1276.74,1950.34L1276.93,1950.06L1277.13,1949.77L1277.33,1949.49L1277.52,1949.21L1277.71,1948.92L1277.91,1948.64L1278.1,1948.36L1278.29,1948.08L1278.48,1947.8L1278.67,1947.52L1278.86,1947.24L1279.04,1946.96L1279.23,1946.68L1279.41,1946.4L1279.59,1946.12L1279.77,1945.84L1279.95,1945.57L1280.13,1945.29L1280.31,1945.02L1280.49,1944.74L1280.66,1944.47L1280.84,1944.19L1281.01,1943.92L1281.18,1943.64L1281.35,1943.37L1281.52,1943.1L1281.69,1942.83L1281.86,1942.56L1282.02,1942.29L1282.19,1942.02L1282.35,1941.75L1282.51,1941.48L1282.67,1941.21L1282.83,1940.95L1282.99,1940.68L1283.15,1940.41L1283.3,1940.15L1283.46,1939.88L1283.61,1939.62L1283.76,1939.36L1283.91,1939.1L1284.06,1938.83L1284.21,1938.57L1284.35,1938.31L1284.5,1938.05L1284.57,1937.92L1284.64,1937.79L1284.71,1937.66L1284.78,1937.53L1284.85,1937.4L1284.92,1937.28L1285,1937.15L1285.06,1937.02L1285.13,1936.89L1285.2,1936.76L1285.27,1936.63L1285.34,1936.51L1285.41,1936.38L1285.47,1936.25L1285.54,1936.12L1285.61,1936L1285.67,1935.87L1285.74,1935.74L1285.81,1935.62L1285.87,1935.49L1285.94,1935.36L1286,1935.24L1286.07,1935.11L1286.13,1934.99L1286.19,1934.86L1286.26,1934.73L1286.32,1934.61L1286.38,1934.48L1286.44,1934.36L1286.51,1934.23L1286.57,1934.11L1286.63,1933.99L1286.69,1933.86L1286.75,1933.74L1286.81,1933.61L1286.87,1933.49L1286.93,1933.37L1286.99,1933.24L1287.05,1933.12L1287.11,1933L1287.16,1932.88L1287.22,1932.75L1287.28,1932.63L1287.34,1932.51L1287.39,1932.39L1287.45,1932.27L1287.5,1932.14L1287.56,1932.02L1287.61,1931.9L1287.67,1931.78L1287.72,1931.66L1287.78,1931.54L1287.83,1931.42L1287.88,1931.3L1287.93,1931.18L1287.99,1931.06L1288.04,1930.94L1288.09,1930.82L1288.14,1930.7L1288.19,1930.58L1288.24,1930.46L1288.29,1930.35L1288.34,1930.23L1288.39,1930.11L1288.44,1929.99L1288.49,1929.87L1288.54,1929.76L1288.59,1929.64L1288.63,1929.52L1288.68,1929.4L1288.73,1929.29L1288.77,1929.17L1288.82,1929.06L1288.86,1928.94L1288.91,1928.82L1288.95,1928.71L1289,1928.59L1289.04,1928.48L1289.09,1928.36L1289.13,1928.25L1289.17,1928.13L1289.21,1928.02L1289.26,1927.9L1289.3,1927.79L1289.34,1927.68L1289.38,1927.56L1289.42,1927.45L1289.46,1927.34L1289.5,1927.23L1289.54,1927.11L1289.58,1927L1289.61,1926.89L1289.65,1926.78L1289.69,1926.66L1289.73,1926.55L1289.76,1926.44L1289.8,1926.33L1289.83,1926.22L1289.87,1926.11L1289.9,1926L1289.94,1925.89L1289.97,1925.78L1290.01,1925.67L1290.04,1925.56L1290.07,1925.45L1290.11,1925.34L1290.14,1925.23L1290.17,1925.12L1290.2,1925.02L1290.23,1924.91L1290.26,1924.8L1290.29,1924.69L1290.32,1924.58L1290.35,1924.48L1290.38,1924.37L1290.41,1924.26L1290.43,1924.16L1290.46,1924.05L1290.49,1923.94L1290.52,1923.84L1290.54,1923.73L1290.57,1923.63L1290.59,1923.52L1290.62,1923.42L1290.64,1923.31L1290.67,1923.21L1290.69,1923.11L1290.71,1923L1290.74,1922.9L1290.76,1922.79L1290.78,1922.69L1290.8,1922.59L1290.82,1922.49L1290.84,1922.38L1290.86,1922.28L1290.88,1922.18L1290.9,1922.08L1290.92,1921.98L1290.94,1921.87L1290.96,1921.77L1290.98,1921.67L1290.99,1921.57L1291.01,1921.47L1291.03,1921.37L1291.04,1921.27L1291.06,1921.17L1291.07,1921.07L1291.09,1920.97L1291.1,1920.88L1291.11,1920.78L1291.13,1920.68L1291.14,1920.58L1291.15,1920.48L1291.16,1920.39L1291.17,1920.29L1291.18,1920.19L1291.2,1920.1L1291.21,1920L1291.21,1919.9L1291.22,1919.81L1291.23,1919.71L1291.24,1919.62L1291.25,1919.52L1291.26,1919.42L1291.26,1919.33L1291.27,1919.23L1291.28,1919.14L1291.28,1919.04L1291.29,1918.95L1291.29,1918.86L1291.3,1918.76L1291.3,1918.67L1291.3,1918.57L1291.31,1918.48L1291.31,1918.38L1291.31,1918.29L1291.32,1918.2L1291.32,1918.1L1291.32,1918.01L1291.32,1917.92L1291.32,1917.82L1291.32,1917.73L1291.32,1917.64L1291.32,1917.54L1291.32,1917.45L1291.32,1917.36L1291.32,1917.27L1291.31,1917.17L1291.31,1917.08L1291.31,1916.99L1291.31,1916.9L1291.3,1916.81L1291.3,1916.71L1291.29,1916.62L1291.29,1916.53L1291.28,1916.44L1291.28,1916.35L1291.27,1916.26L1291.26,1916.17L1291.26,1916.08L1291.25,1915.99L1291.24,1915.89L1291.24,1915.8L1291.23,1915.71L1291.22,1915.62L1291.21,1915.53L1291.2,1915.44L1291.19,1915.35L1291.18,1915.26L1291.17,1915.17L1291.16,1915.08L1291.15,1915L1291.13,1914.91L1291.12,1914.82L1291.11,1914.73L1291.1,1914.64L1291.09,1914.55L1291.07,1914.46L1291.06,1914.37L1291.04,1914.28L1291.03,1914.2L1291.01,1914.11L1291,1914.02L1290.98,1913.93L1290.97,1913.84L1290.95,1913.76L1290.93,1913.67L1290.92,1913.58L1290.9,1913.49L1290.88,1913.41L1290.86,1913.32L1290.84,1913.23L1290.83,1913.14L1290.81,1913.06L1290.79,1912.97L1290.77,1912.88L1290.75,1912.8L1290.72,1912.71L1290.7,1912.63L1290.68,1912.54L1290.66,1912.45L1290.64,1912.37L1290.62,1912.28L1290.59,1912.2L1290.57,1912.11L1290.55,1912.03L1290.52,1911.94L1290.5,1911.85L1290.47,1911.77L1290.45,1911.68L1290.42,1911.6L1290.4,1911.52L1290.37,1911.43L1290.34,1911.35L1290.32,1911.26L1290.29,1911.18L1290.26,1911.09L1290.23,1911.01L1290.21,1910.92L1290.18,1910.84L1290.15,1910.76L1290.12,1910.67L1290.09,1910.59L1290.06,1910.51L1290.03,1910.42L1290,1910.34L1289.97,1910.26L1289.94,1910.17L1289.9,1910.09L1289.87,1910.01L1289.84,1909.92L1289.81,1909.84L1289.78,1909.76L1289.74,1909.68L1289.71,1909.6L1289.67,1909.51L1289.64,1909.43L1289.61,1909.35L1289.57,1909.27L1289.53,1909.18L1289.5,1909.1L1289.46,1909.02L1289.43,1908.94L1289.39,1908.86L1289.35,1908.78L1289.32,1908.7L1289.28,1908.62L1289.24,1908.54L1289.2,1908.45L1289.16,1908.37L1289.12,1908.29L1289.08,1908.21L1289.05,1908.13L1289.01,1908.05L1288.96,1907.97L1288.92,1907.89L1288.88,1907.81L1288.84,1907.73L1288.8,1907.65L1288.76,1907.57L1288.72,1907.49L1288.67,1907.41L1288.63,1907.33L1288.59,1907.25L1288.54,1907.17L1288.5,1907.1L1288.46,1907.02L1288.41,1906.94L1288.37,1906.86L1288.32,1906.78L1288.28,1906.7L1288.23,1906.62L1288.18,1906.55L1288.14,1906.47L1288.09,1906.39L1288.04,1906.31L1288,1906.23L1287.95,1906.15L1287.9,1906.08L1287.85,1906L1287.81,1905.92L1287.76,1905.85L1287.71,1905.77L1287.66,1905.69L1287.61,1905.61L1287.56,1905.54L1287.51,1905.46L1287.46,1905.38L1287.41,1905.31L1287.35,1905.23L1287.3,1905.15L1287.25,1905.08L1287.2,1905L1287.15,1904.92L1287.09,1904.85L1287.04,1904.77L1286.99,1904.69L1286.93,1904.62L1286.88,1904.54L1286.83,1904.47L1286.77,1904.39L1286.72,1904.32L1286.66,1904.24L1286.61,1904.16L1286.55,1904.09L1286.49,1904.01L1286.44,1903.94L1286.38,1903.86L1286.32,1903.79L1286.27,1903.71L1286.21,1903.64L1286.15,1903.57L1286.09,1903.49L1286.03,1903.42L1285.98,1903.34L1285.92,1903.27L1285.86,1903.19L1285.8,1903.12L1285.74,1903.05L1285.68,1902.97L1285.62,1902.9L1285.56,1902.82L1285.5,1902.75L1285.43,1902.68L1285.37,1902.6L1285.31,1902.53L1285.25,1902.46L1285.19,1902.38L1285.12,1902.31L1285.06,1902.24L1285,1902.16L1284.93,1902.09L1284.87,1902.02L1284.81,1901.95L1284.74,1901.87L1284.68,1901.8L1284.61,1901.73L1284.55,1901.66L1284.48,1901.59L1284.42,1901.51L1284.35,1901.44L1284.28,1901.37L1284.22,1901.3L1284.15,1901.23L1284.08,1901.15L1284.02,1901.08L1283.95,1901.01L1283.88,1900.94L1283.81,1900.87L1283.74,1900.8L1283.67,1900.73L1283.61,1900.65L1283.54,1900.58L1283.47,1900.51L1283.4,1900.44L1283.33,1900.37L1283.26,1900.3L1283.19,1900.23L1283.12,1900.16L1283.04,1900.09L1282.97,1900.02L1282.9,1899.95L1282.83,1899.88L1282.76,1899.81L1282.68,1899.74L1282.61,1899.67L1282.54,1899.6L1282.47,1899.53L1282.39,1899.46L1282.32,1899.39L1282.25,1899.32L1282.17,1899.25L1282.1,1899.18L1282.02,1899.11L1281.95,1899.04L1281.87,1898.97L1281.8,1898.9L1281.72,1898.83L1281.64,1898.77L1281.57,1898.7L1281.49,1898.63L1281.41,1898.56L1281.34,1898.49L1281.26,1898.42L1281.18,1898.35L1281.11,1898.29L1281.03,1898.22L1280.95,1898.15L1280.87,1898.08L1280.79,1898.01L1280.71,1897.94L1280.63,1897.88L1280.56,1897.81L1280.48,1897.74L1280.4,1897.67L1280.32,1897.61L1280.15,1897.47L1279.99,1897.34L1279.83,1897.2L1279.67,1897.07L1279.5,1896.93L1279.34,1896.8L1279.17,1896.67L1279,1896.54L1278.83,1896.4L1278.66,1896.27L1278.49,1896.14L1278.32,1896.01L1278.15,1895.88L1277.98,1895.75L1277.8,1895.61L1277.63,1895.48L1277.45,1895.35L1277.28,1895.22L1277.1,1895.09L1276.92,1894.96L1276.74,1894.84L1276.56,1894.71L1276.38,1894.58L1276.2,1894.45L1276.01,1894.32L1275.83,1894.19L1275.65,1894.07L1275.46,1893.94L1275.28,1893.81L1275.09,1893.68L1274.9,1893.56L1274.71,1893.43L1274.52,1893.31L1274.33,1893.18L1274.14,1893.05L1273.95,1892.93L1273.76,1892.8L1273.57,1892.68L1273.37,1892.55L1273.18,1892.43L1272.98,1892.31L1272.78,1892.18L1272.59,1892.06L1272.39,1891.93L1272.19,1891.81L1271.99,1891.69L1271.79,1891.57L1271.59,1891.44L1271.39,1891.32L1271.19,1891.2L1270.98,1891.08L1270.78,1890.96L1270.58,1890.84L1270.37,1890.72L1270.16,1890.59L1269.96,1890.47L1269.75,1890.35L1269.54,1890.23L1269.33,1890.11L1269.12,1889.99L1268.91,1889.87L1268.7,1889.75L1268.49,1889.63L1268.28,1889.52L1268.07,1889.4L1267.86,1889.28L1267.64,1889.16L1267.43,1889.04L1267.21,1888.92L1267,1888.81L1266.78,1888.69L1266.56,1888.57L1266.34,1888.45L1266.13,1888.34L1265.91,1888.22L1265.69,1888.1L1265.47,1887.99L1265.25,1887.87L1265.03,1887.76L1264.8,1887.64L1264.58,1887.52L1264.36,1887.41L1264.13,1887.29L1263.91,1887.18L1263.68,1887.06L1263.46,1886.95L1263.23,1886.83L1263.01,1886.72L1262.78,1886.61L1262.55,1886.49L1262.33,1886.38L1262.1,1886.26L1261.87,1886.15L1261.64,1886.04L1261.41,1885.92L1261.18,1885.81L1260.95,1885.7L1260.71,1885.58L1260.48,1885.47L1260.25,1885.36L1260.02,1885.25L1259.78,1885.13L1259.55,1885.02L1259.31,1884.91L1259.08,1884.8L1258.84,1884.69L1258.61,1884.58L1258.37,1884.46L1258.13,1884.35L1257.9,1884.24L1257.66,1884.13L1257.42,1884.02L1257.18,1883.91L1256.94,1883.8L1256.7,1883.69L1256.46,1883.58L1256.23,1883.47L1255.98,1883.36L1255.74,1883.25L1255.5,1883.14L1255.26,1883.03L1255.02,1882.92L1254.78,1882.81L1254.53,1882.7L1254.29,1882.59L1254.05,1882.48L1253.8,1882.37L1253.56,1882.26L1253.31,1882.15L1253.07,1882.04L1252.82,1881.93L1252.58,1881.83L1252.33,1881.72L1252.08,1881.61L1251.84,1881.5L1251.59,1881.39L1251.09,1881.18L1250.6,1880.96L1250.1,1880.75L1249.6,1880.53L1249.1,1880.32L1248.6,1880.1L1248.1,1879.89L1247.6,1879.67L1247.09,1879.46L1246.59,1879.25L1246.08,1879.04L1245.58,1878.82L1245.07,1878.61L1244.56,1878.4L1244.05,1878.18L1243.54,1877.97L1243.03,1877.76L1242.52,1877.55L1242.01,1877.34L1241.5,1877.13L1240.99,1876.91L1240.48,1876.7L1239.96,1876.49L1238.94,1876.07L1237.91,1875.65L1236.88,1875.23L1235.85,1874.81L1233.79,1873.96L1232.76,1873.54L1231.73,1873.12L1231.21,1872.91L1230.7,1872.7L1230.19,1872.49L1229.67,1872.28L1229.16,1872.06L1228.65,1871.85L1228.14,1871.64L1227.62,1871.43L1227.11,1871.21L1226.6,1871L1226.09,1870.79L1225.59,1870.58L1225.08,1870.36L1224.57,1870.15L1224.06,1869.93L1223.56,1869.72L1223.05,1869.51L1222.55,1869.29L1222.04,1869.08L1221.54,1868.86L1221.04,1868.64L1220.54,1868.43L1220.04,1868.21L1219.54,1867.99L1219.04,1867.78L1218.8,1867.67L1218.55,1867.56L1218.3,1867.45L1218.05,1867.34L1217.81,1867.23L1217.56,1867.12L1217.31,1867.01L1217.07,1866.9L1216.82,1866.79L1216.58,1866.68L1216.33,1866.57L1216.09,1866.46L1215.84,1866.35L1215.6,1866.24L1215.36,1866.13L1215.11,1866.02L1214.87,1865.91L1214.63,1865.8L1214.38,1865.69L1214.14,1865.58L1213.9,1865.46L1213.66,1865.35L1213.42,1865.24L1213.18,1865.13L1212.94,1865.02L1212.7,1864.9L1212.46,1864.79L1212.22,1864.68L1211.99,1864.57L1211.75,1864.45L1211.51,1864.34L1211.28,1864.23L1211.04,1864.12L1210.8,1864L1210.57,1863.89L1210.33,1863.78L1210.1,1863.66L1209.87,1863.55L1209.63,1863.43L1209.4,1863.32L1209.17,1863.21L1208.93,1863.09L1208.7,1862.98L1208.47,1862.86L1208.24,1862.75L1208.01,1862.63L1207.78,1862.52L1207.55,1862.4L1207.33,1862.29L1207.1,1862.17L1206.87,1862.05L1206.64,1861.94L1206.42,1861.82L1206.19,1861.7L1205.97,1861.59L1205.74,1861.47L1205.52,1861.35L1205.3,1861.23L1205.07,1861.12L1204.85,1861L1204.63,1860.88L1204.41,1860.76L1204.19,1860.64L1203.97,1860.53L1203.75,1860.41L1203.53,1860.29L1203.31,1860.17L1203.09,1860.05L1202.88,1859.93L1202.66,1859.81L1202.45,1859.69L1202.23,1859.57L1202.02,1859.45L1201.8,1859.33L1201.59,1859.21L1201.38,1859.09L1201.17,1858.96L1200.95,1858.84L1200.75,1858.72L1200.54,1858.6L1200.33,1858.48L1200.12,1858.35L1199.91,1858.23L1199.7,1858.11L1199.5,1857.99L1199.29,1857.86L1199.09,1857.74L1198.88,1857.61L1198.68,1857.49L1198.48,1857.37L1198.28,1857.24L1198.07,1857.12L1197.87,1856.99L1197.67,1856.87L1197.47,1856.74L1197.28,1856.61L1197.08,1856.49L1196.88,1856.36L1196.69,1856.23L1196.49,1856.11L1196.3,1855.98L1196.1,1855.85L1195.91,1855.73L1195.72,1855.6L1195.53,1855.47L1195.34,1855.34L1195.15,1855.21L1194.96,1855.08L1194.77,1854.95L1194.58,1854.82L1193.72,1854.23L1192.84,1853.61L1191.95,1852.99L1191.03,1852.35L1190.11,1851.7L1189.16,1851.05L1188.2,1850.37L1187.22,1849.69L1186.23,1849L1185.23,1848.29L1184.21,1847.58L1183.18,1846.85L1182.13,1846.12L1181.07,1845.37L1180,1844.62L1178.92,1843.86L1177.82,1843.08L1176.72,1842.3L1175.6,1841.52L1174.47,1840.72L1173.33,1839.91L1172.19,1839.1L1171.03,1838.29L1169.86,1837.46L1168.69,1836.63L1167.5,1835.79L1166.31,1834.95L1165.11,1834.1L1163.91,1833.24L1162.69,1832.38L1161.47,1831.52L1160.25,1830.65L1159.02,1829.78L1157.78,1828.9L1156.54,1828.02L1155.3,1827.13L1154.05,1826.25L1152.79,1825.35L1150.28,1823.57L1147.75,1821.77L1145.22,1819.97L1142.68,1818.16L1140.14,1816.35L1137.61,1814.54L1135.08,1812.74L1132.55,1810.93L1130.04,1809.14L1127.55,1807.36L1125.07,1805.59L1122.61,1803.83L1120.17,1802.09L1117.76,1800.37L1115.38,1798.67L1113.04,1796.99L1110.73,1795.33L1108.45,1793.71L1106.23,1792.11L1104.04,1790.55L1101.9,1789.02L1099.82,1787.52L1097.79,1786.07L1095.81,1784.65L1093.9,1783.28L1092.05,1781.95L1090.27,1780.67L1086.91,1778.27L1083.86,1776.07L1081.13,1774.12L1078.76,1772.41L1076.77,1770.98L1075.17,1769.83L1074,1768.99L1073.03,1768.3L1030.32,1699.27L1068.63,1699.63L1147.19,1615.53L1106.67,1545.95L1000.41,1534.25L925.237,1644.32Z" style="fill:rgb(255,19,19);"/>
                    </g>
                    <g transform="matrix(1,0,0,1,-112.43,-1038.49)">
                        <path d="M1126.03,1574.04L1144.98,1564.26L1157.49,1585.82L1139.88,1596.1L1126.03,1574.04Z" style="fill:rgb(255,191,0);"/>
                        <path d="M1121.82,1565.88L1140.77,1556.1L1141.05,1555.97L1141.32,1555.84L1141.6,1555.72L1141.89,1555.62L1142.17,1555.52L1142.46,1555.43L1142.76,1555.35L1143.05,1555.28L1143.35,1555.22L1143.65,1555.17L1143.95,1555.14L1144.25,1555.11L1144.56,1555.09L1144.86,1555.08L1145.16,1555.08L1145.47,1555.09L1145.77,1555.11L1146.07,1555.14L1146.37,1555.18L1146.67,1555.24L1146.97,1555.3L1147.27,1555.37L1147.56,1555.45L1147.85,1555.54L1148.14,1555.64L1148.42,1555.75L1148.7,1555.86L1148.98,1555.99L1149.25,1556.13L1149.51,1556.27L1149.77,1556.43L1150.03,1556.59L1150.28,1556.76L1150.53,1556.94L1150.77,1557.13L1151,1557.32L1151.22,1557.53L1151.44,1557.74L1151.65,1557.95L1151.86,1558.18L1152.06,1558.41L1152.25,1558.65L1152.43,1558.89L1152.6,1559.14L1152.77,1559.39L1152.92,1559.65L1165.43,1581.22L1165.58,1581.49L1165.71,1581.76L1165.85,1582.04L1165.97,1582.32L1166.08,1582.6L1166.18,1582.89L1166.28,1583.18L1166.36,1583.48L1166.43,1583.77L1166.5,1584.07L1166.55,1584.37L1166.59,1584.68L1166.62,1584.98L1166.65,1585.29L1166.66,1585.59L1166.66,1585.9L1166.65,1586.2L1166.64,1586.51L1166.61,1586.82L1166.57,1587.12L1166.52,1587.42L1166.46,1587.72L1166.4,1588.02L1166.32,1588.32L1166.23,1588.61L1166.13,1588.9L1166.02,1589.19L1165.91,1589.47L1165.78,1589.75L1165.65,1590.02L1165.5,1590.29L1165.35,1590.56L1165.18,1590.82L1165.01,1591.07L1164.84,1591.32L1164.65,1591.56L1164.45,1591.8L1164.25,1592.03L1164.04,1592.25L1163.82,1592.46L1163.6,1592.67L1163.36,1592.87L1163.12,1593.06L1162.88,1593.25L1162.63,1593.42L1162.37,1593.59L1162.11,1593.75L1144.51,1604.02L1144.24,1604.17L1143.97,1604.31L1143.69,1604.44L1143.41,1604.57L1143.13,1604.68L1142.84,1604.79L1142.55,1604.88L1142.25,1604.96L1141.95,1605.04L1141.65,1605.1L1141.35,1605.15L1141.05,1605.2L1140.74,1605.23L1140.43,1605.26L1140.13,1605.27L1139.82,1605.27L1139.51,1605.27L1139.21,1605.25L1138.9,1605.22L1138.6,1605.18L1138.3,1605.13L1137.99,1605.08L1137.69,1605.01L1137.4,1604.93L1137.1,1604.84L1136.81,1604.74L1136.53,1604.64L1136.24,1604.52L1135.96,1604.39L1135.69,1604.26L1135.42,1604.11L1135.15,1603.96L1134.89,1603.8L1134.63,1603.62L1134.39,1603.44L1134.14,1603.26L1133.91,1603.06L1133.68,1602.86L1133.45,1602.65L1133.24,1602.43L1133.03,1602.2L1132.83,1601.97L1132.64,1601.73L1132.45,1601.49L1132.28,1601.23L1132.11,1600.98L1118.26,1578.92L1118.1,1578.66L1117.95,1578.4L1117.81,1578.13L1117.68,1577.85L1117.56,1577.58L1117.45,1577.29L1117.34,1577.01L1117.25,1576.72L1117.17,1576.43L1117.09,1576.13L1117.03,1575.84L1116.97,1575.54L1116.93,1575.24L1116.89,1574.93L1116.87,1574.63L1116.86,1574.33L1116.85,1574.02L1116.86,1573.72L1116.87,1573.42L1116.9,1573.11L1116.93,1572.81L1116.98,1572.51L1117.03,1572.21L1117.1,1571.92L1117.17,1571.62L1117.26,1571.33L1117.35,1571.04L1117.46,1570.76L1117.57,1570.47L1117.69,1570.2L1117.83,1569.92L1117.97,1569.65L1118.12,1569.39L1118.28,1569.13L1118.44,1568.88L1118.62,1568.63L1118.8,1568.38L1118.99,1568.15L1119.19,1567.92L1119.4,1567.7L1119.61,1567.48L1119.83,1567.27L1120.06,1567.07L1120.29,1566.88L1120.53,1566.69L1120.78,1566.51L1121.03,1566.34L1121.29,1566.18L1121.55,1566.03L1121.82,1565.88ZM1139.88,1596.1L1157.49,1585.82L1144.98,1564.26L1126.03,1574.04L1139.88,1596.1Z" style="fill:rgb(255,16,16);"/>
                    </g>
                    <g transform="matrix(0.780479,0,0,0.780479,86.6825,-1294.26)">
                        <g transform="matrix(7.19569e-17,0.408723,-0.388177,-2.39856e-17,1533.14,1537.16)">
                            <path d="M1947.35,1190.23L1965.29,1024.77L2105.23,939.432L2183.53,891.948L2240.24,942.192" style="fill:rgb(255,191,0);stroke:rgb(255,16,16);stroke-width:29.5px;"/>
                        </g>
                        <g transform="matrix(7.19569e-17,0.408723,-0.388177,-2.39856e-17,1513.94,1569.07)">
                            <path d="M1942.06,1192.04L1961.29,1027.16L2171.51,899.104L2228.22,949.348" style="fill:rgb(255,191,0);stroke:rgb(255,16,16);stroke-width:29.5px;"/>
                        </g>
                        <g transform="matrix(7.19569e-17,0.408723,-0.388177,-2.39856e-17,1491.6,1601.37)">
                            <path d="M1934.23,1186.12L1961.29,1027.16L2163.5,903.874L2228.86,968.281L2170.43,1001.83L2108.05,1037.97L2035.64,1079.75L2012.36,1242" style="fill:rgb(255,191,0);stroke:rgb(255,16,16);stroke-width:29.5px;"/>
                        </g>
                    </g>
                </g>
                <g transform="matrix(0.203987,0,0,0.300448,1980.89,1797.17)">
                    <g transform="matrix(9.93205e-17,0.56415,-0.535792,-3.31068e-17,1856.59,1572.73)">
                        <path d="M2171.51,899.104L2401.78,1039.08L2401.78,1319.04L2171.51,1459.02L1941.25,1319.04L1941.25,1039.08L2171.51,899.104Z" style="fill:rgb(255,191,0);"/>
                        <path d="M1920.86,1034.52L1922.2,1030.16L1924.38,1026.18L1927.3,1022.77L1930.83,1020.08L2161.09,880.096L2165.07,878.229L2169.33,877.275L2173.69,877.275L2177.95,878.229L2181.93,880.096L2412.2,1020.08L2415.72,1022.77L2418.64,1026.18L2420.82,1030.16L2422.17,1034.52L2422.62,1039.08L2422.62,1319.04L2422.17,1323.61L2420.82,1327.97L2418.64,1331.94L2415.72,1335.35L2412.2,1338.05L2181.93,1478.03L2177.95,1479.9L2173.69,1480.85L2169.33,1480.85L2165.07,1479.9L2161.09,1478.03L1930.83,1338.05L1927.3,1335.35L1924.38,1331.94L1922.2,1327.97L1920.86,1323.61L1920.4,1319.04L1920.4,1039.08L1920.86,1034.52ZM1941.25,1319.04L2171.51,1459.02L2401.78,1319.04L2401.78,1039.08L2171.51,899.104L1941.25,1039.08L1941.25,1319.04Z" style="fill:rgb(255,16,16);"/>
                    </g>
                    <g transform="matrix(7.19569e-17,0.408723,-0.388177,-2.39856e-17,1682.54,1910.25)">
                        <path d="M2171.51,899.104L2401.78,1039.08L2401.78,1319.04L2171.51,1459.02L1941.25,1319.04L1941.25,1039.08L2171.51,899.104Z" style="fill:rgb(255,191,0);"/>
                        <path d="M1913.11,1032.79L1914.96,1026.76L1917.97,1021.28L1922,1016.57L1926.86,1012.85L2157.13,872.867L2162.62,870.291L2168.51,868.974L2174.52,868.974L2180.4,870.291L2185.9,872.867L2416.16,1012.85L2421.03,1016.57L2425.05,1021.28L2428.06,1026.76L2429.92,1032.79L2430.55,1039.08L2430.55,1319.04L2429.92,1325.34L2428.06,1331.37L2425.05,1336.85L2421.03,1341.56L2416.16,1345.28L2185.9,1485.26L2180.4,1487.84L2174.52,1489.15L2168.51,1489.15L2162.62,1487.84L2157.13,1485.26L1926.86,1345.28L1922,1341.56L1917.97,1336.85L1914.96,1331.37L1913.11,1325.34L1912.48,1319.04L1912.48,1039.08L1913.11,1032.79ZM1941.25,1319.04L2171.51,1459.02L2401.78,1319.04L2401.78,1039.08L2171.51,899.104L1941.25,1039.08L1941.25,1319.04Z" style="fill:rgb(255,16,16);"/>
                    </g>
                </g>
                <g transform="matrix(0.305981,0,0,0.450671,1789.85,1333.31)">
                    <g transform="matrix(9.93205e-17,0.56415,-0.535792,-3.31068e-17,1856.59,1572.73)">
                        <path d="M2171.51,899.104L2401.78,1039.08L2401.78,1319.04L2171.51,1459.02L1941.25,1319.04L1941.25,1039.08L2171.51,899.104Z" style="fill:rgb(255,191,0);"/>
                        <path d="M1920.72,1035.27L1921.66,1031.58L1923.2,1028.11L1925.28,1024.97L1927.85,1022.27L1930.83,1020.08L2161.09,880.096L2164.38,878.479L2167.89,877.489L2171.51,877.155L2175.13,877.489L2178.64,878.479L2181.93,880.096L2412.2,1020.08L2415.18,1022.27L2417.75,1024.97L2419.83,1028.11L2421.37,1031.58L2422.31,1035.27L2422.62,1039.08L2422.62,1319.04L2422.31,1322.85L2421.37,1326.55L2419.83,1330.02L2417.75,1333.15L2415.18,1335.86L2412.2,1338.05L2181.93,1478.03L2178.64,1479.65L2175.13,1480.64L2171.51,1480.97L2167.89,1480.64L2164.38,1479.65L2161.09,1478.03L1930.83,1338.05L1927.85,1335.86L1925.28,1333.15L1923.2,1330.02L1921.66,1326.55L1920.72,1322.85L1920.4,1319.04L1920.4,1039.08L1920.72,1035.27ZM1941.25,1319.04L2171.51,1459.02L2401.78,1319.04L2401.78,1039.08L2171.51,899.104L1941.25,1039.08L1941.25,1319.04Z" style="fill:rgb(255,16,16);"/>
                    </g>
                    <g transform="matrix(7.19569e-17,0.408723,-0.388177,-2.39856e-17,1682.54,1910.25)">
                        <path d="M2171.51,899.104L2401.78,1039.08L2401.78,1319.04L2171.51,1459.02L1941.25,1319.04L1941.25,1039.08L2171.51,899.104Z" style="fill:rgb(255,191,0);"/>
                        <path d="M1912.91,1033.82L1914.21,1028.72L1916.33,1023.94L1919.21,1019.61L1922.75,1015.88L1926.86,1012.85L2157.13,872.868L2161.67,870.636L2166.52,869.269L2171.51,868.809L2176.51,869.269L2181.35,870.636L2185.9,872.868L2416.16,1012.85L2420.27,1015.88L2423.82,1019.61L2426.7,1023.94L2428.81,1028.72L2430.11,1033.82L2430.55,1039.08L2430.55,1319.04L2430.11,1324.3L2428.81,1329.4L2426.7,1334.19L2423.82,1338.52L2420.27,1342.25L2416.16,1345.28L2185.9,1485.26L2181.35,1487.49L2176.51,1488.86L2171.51,1489.32L2166.52,1488.86L2161.67,1487.49L2157.13,1485.26L1926.86,1345.28L1922.75,1342.25L1919.21,1338.52L1916.33,1334.19L1914.21,1329.4L1912.91,1324.3L1912.48,1319.04L1912.48,1039.08L1912.91,1033.82ZM1941.25,1319.04L2171.51,1459.02L2401.78,1319.04L2401.78,1039.08L2171.51,899.104L1941.25,1039.08L1941.25,1319.04Z" style="fill:rgb(255,16,16);"/>
                    </g>
                </g>
            </g>
            <g transform="matrix(4.44703,0,0,4.746,-3783.14,-11453.9)">
                <g transform="matrix(9.93205e-17,0.56415,-0.535792,-3.31068e-17,1856.59,1572.73)">
                    <path d="M2171.51,899.104L2401.78,1039.08L2401.78,1319.04L2171.51,1459.02L1941.25,1319.04L1941.25,1039.08L2171.51,899.104Z" style="fill:rgb(255,191,0);"/>
                    <path d="M1920.64,1035.81L1921.33,1032.61L1922.47,1029.56L1924.03,1026.72L1925.97,1024.15L1928.25,1021.92L1930.83,1020.08L2161.09,880.096L2163.9,878.672L2166.87,877.705L2169.95,877.217L2173.07,877.217L2176.15,877.705L2179.13,878.672L2181.93,880.096L2412.2,1020.08L2414.77,1021.92L2417.06,1024.15L2419,1026.72L2420.56,1029.56L2421.7,1032.61L2422.39,1035.81L2422.62,1039.08L2422.62,1319.04L2422.39,1322.31L2421.7,1325.51L2420.56,1328.57L2419,1331.41L2417.06,1333.97L2414.77,1336.2L2412.2,1338.05L2181.93,1478.03L2179.13,1479.45L2176.15,1480.42L2173.07,1480.91L2169.95,1480.91L2166.87,1480.42L2163.9,1479.45L2161.09,1478.03L1930.83,1338.05L1928.25,1336.2L1925.97,1333.97L1924.03,1331.41L1922.47,1328.57L1921.33,1325.51L1920.64,1322.31L1920.4,1319.04L1920.4,1039.08L1920.64,1035.81ZM1941.25,1319.04L2171.51,1459.02L2401.78,1319.04L2401.78,1039.08L2171.51,899.104L1941.25,1039.08L1941.25,1319.04Z" style="fill:rgb(255,16,16);"/>
                </g>
                <g transform="matrix(7.19569e-17,0.408723,-0.388177,-2.39856e-17,1682.54,1910.25)">
                    <path d="M2171.51,899.104L2401.78,1039.08L2401.78,1319.04L2171.51,1459.02L1941.25,1319.04L1941.25,1039.08L2171.51,899.104Z" style="fill:rgb(255,191,0);"/>
                    <path d="M1912.8,1034.57L1913.75,1030.15L1915.33,1025.94L1917.48,1022.02L1920.16,1018.48L1923.31,1015.4L1926.86,1012.85L2157.13,872.868L2161,870.903L2165.11,869.568L2169.36,868.894L2173.66,868.894L2177.91,869.568L2182.02,870.903L2185.9,872.868L2416.16,1012.85L2419.72,1015.4L2422.87,1018.48L2425.55,1022.02L2427.7,1025.94L2429.27,1030.15L2430.23,1034.57L2430.55,1039.08L2430.55,1319.04L2430.23,1323.56L2429.27,1327.97L2427.7,1332.19L2425.55,1336.11L2422.87,1339.65L2419.72,1342.73L2416.16,1345.28L2185.9,1485.26L2182.02,1487.22L2177.91,1488.56L2173.66,1489.23L2169.36,1489.23L2165.11,1488.56L2161,1487.22L2157.13,1485.26L1926.86,1345.28L1923.31,1342.73L1920.16,1339.65L1917.48,1336.11L1915.33,1332.19L1913.75,1327.97L1912.8,1323.56L1912.48,1319.04L1912.48,1039.08L1912.8,1034.57ZM1941.25,1319.04L2171.51,1459.02L2401.78,1319.04L2401.78,1039.08L2171.51,899.104L1941.25,1039.08L1941.25,1319.04Z" style="fill:rgb(255,16,16);"/>
                </g>
            </g>
        </g>
    </g>
</svg>
