<svg width="211" height="177" viewBox="0 0 211 177" fill="none" xmlns="http://www.w3.org/2000/svg">
<g clip-path="url(#clip0)">
<path d="M100.73 177C156.362 177 201.46 165.679 201.46 151.714C201.46 137.75 156.362 126.429 100.73 126.429C45.0984 126.429 0 137.75 0 151.714C0 165.679 45.0984 177 100.73 177Z" fill="#F2F2F2"/>
<path d="M139.059 63.75C148.54 63.75 156.227 56.3019 156.227 47.1143C156.227 37.9266 148.54 30.4785 139.059 30.4785C129.577 30.4785 121.891 37.9266 121.891 47.1143C121.891 56.3019 129.577 63.75 139.059 63.75Z" fill="#38B9E0"/>
<path d="M109.878 102.902C119.359 102.902 127.046 95.4543 127.046 86.2666C127.046 77.0789 119.359 69.6309 109.878 69.6309C100.396 69.6309 92.7101 77.0789 92.7101 86.2666C92.7101 95.4543 100.396 102.902 109.878 102.902Z" fill="#38B9E0"/>
<path d="M109.989 171.834C165.621 171.834 210.719 160.513 210.719 146.548C210.719 132.583 165.621 121.263 109.989 121.263C54.3577 121.263 9.25928 132.583 9.25928 146.548C9.25928 160.513 54.3577 171.834 109.989 171.834Z" stroke="#3F3D56" stroke-width="2" stroke-miterlimit="10"/>
<path d="M35.0183 138.256C47.2603 138.256 57.1845 128.639 57.1845 116.777C57.1845 104.914 47.2603 95.2974 35.0183 95.2974C22.7762 95.2974 12.8521 104.914 12.8521 116.777C12.8521 128.639 22.7762 138.256 35.0183 138.256Z" fill="#2F2E41"/>
<path d="M31.6513 133.633H24.9172V145.325H31.6513V133.633Z" fill="#2F2E41"/>
<path d="M45.1194 133.633H38.3854V145.325H45.1194V133.633Z" fill="#2F2E41"/>
<path d="M30.5289 147.5C33.6282 147.5 36.1406 146.587 36.1406 145.461C36.1406 144.334 33.6282 143.421 30.5289 143.421C27.4297 143.421 24.9172 144.334 24.9172 145.461C24.9172 146.587 27.4297 147.5 30.5289 147.5Z" fill="#2F2E41"/>
<path d="M43.9971 147.228C47.0963 147.228 49.6088 146.315 49.6088 145.189C49.6088 144.063 47.0963 143.15 43.9971 143.15C40.8978 143.15 38.3854 144.063 38.3854 145.189C38.3854 146.315 40.8978 147.228 43.9971 147.228Z" fill="#2F2E41"/>
<path d="M35.5795 118.68C39.7635 118.68 43.1553 115.393 43.1553 111.339C43.1553 107.284 39.7635 103.998 35.5795 103.998C31.3955 103.998 28.0037 107.284 28.0037 111.339C28.0037 115.393 31.3955 118.68 35.5795 118.68Z" fill="white"/>
<path d="M35.5795 113.786C36.9741 113.786 38.1047 112.69 38.1047 111.339C38.1047 109.987 36.9741 108.892 35.5795 108.892C34.1848 108.892 33.0542 109.987 33.0542 111.339C33.0542 112.69 34.1848 113.786 35.5795 113.786Z" fill="#3F3D56"/>
<path d="M13.5163 96.8014C11.7265 89.0342 17.4478 81.1857 26.2953 79.2714C35.1427 77.3571 43.7659 82.1018 45.5558 89.869C47.3456 97.6362 41.482 100.501 32.6346 102.415C23.7872 104.33 15.3061 104.569 13.5163 96.8014Z" fill="#38B9E0"/>
<path d="M55.808 112.492C61.4353 110.158 65.3842 106.879 64.628 105.167C63.8719 103.455 58.6972 103.959 53.0699 106.293C47.4427 108.627 43.4938 111.907 44.2499 113.619C45.006 115.33 50.1808 114.826 55.808 112.492Z" fill="#2F2E41"/>
<path d="M14.2815 126.902C19.9088 124.569 23.8577 121.289 23.1016 119.577C22.3455 117.865 17.1707 118.37 11.5434 120.703C5.91618 123.037 1.96731 126.317 2.72341 128.029C3.47952 129.741 8.65427 129.236 14.2815 126.902Z" fill="#2F2E41"/>
<path d="M47.9252 123.03C47.9252 125.133 42.3391 129.284 36.1406 129.284C29.9421 129.284 24.0754 125.404 24.0754 123.302C24.0754 121.2 29.9421 121.671 36.1406 121.671C42.3391 121.671 47.9252 120.928 47.9252 123.03Z" fill="white"/>
<path d="M77.0495 134.169C86.531 134.169 94.2173 126.721 94.2173 117.534C94.2173 108.346 86.531 100.898 77.0495 100.898C67.568 100.898 59.8817 108.346 59.8817 117.534C59.8817 126.721 67.568 134.169 77.0495 134.169Z" fill="#38B9E0"/>
<path d="M77.0342 147.619V117.442" stroke="#3F3D56" stroke-width="2" stroke-miterlimit="10"/>
<path d="M77.0343 121.71C79.4665 121.71 81.4381 119.799 81.4381 117.442C81.4381 115.085 79.4665 113.175 77.0343 113.175C74.6021 113.175 72.6304 115.085 72.6304 117.442C72.6304 119.799 74.6021 121.71 77.0343 121.71Z" fill="#3F3D56"/>
<path d="M77.0343 136.041C77.0343 136.041 76.4051 122.929 63.5081 124.453L77.0343 136.041Z" fill="#3F3D56"/>
<path d="M139.07 147.83V47.1753" stroke="#3F3D56" stroke-width="2" stroke-miterlimit="10"/>
<path d="M139.07 51.3951C141.502 51.3951 143.473 49.4846 143.473 47.1278C143.473 44.7709 141.502 42.8604 139.07 42.8604C136.637 42.8604 134.666 44.7709 134.666 47.1278C134.666 49.4846 136.637 51.3951 139.07 51.3951Z" fill="#3F3D56"/>
<path d="M125.543 124.22C127.976 124.22 129.947 122.309 129.947 119.952C129.947 117.596 127.976 115.685 125.543 115.685C123.111 115.685 121.14 117.596 121.14 119.952C121.14 122.309 123.111 124.22 125.543 124.22Z" fill="#3F3D56"/>
<path d="M139.07 68.9259C139.07 68.9259 138.44 55.814 125.543 57.3381L139.07 68.9259Z" fill="#3F3D56"/>
<path d="M139.07 106.097C139.07 106.097 138.44 92.9849 125.543 94.509L139.07 106.097Z" fill="#3F3D56"/>
<path d="M139.07 146.657C139.07 146.657 141.901 121.171 125.543 119.952" stroke="#3F3D56" stroke-width="2" stroke-miterlimit="10"/>
<path d="M152.598 124.22C155.03 124.22 157.002 122.309 157.002 119.952C157.002 117.596 155.03 115.685 152.598 115.685C150.166 115.685 148.194 117.596 148.194 119.952C148.194 122.309 150.166 124.22 152.598 124.22Z" fill="#3F3D56"/>
<path d="M139.071 146.657C139.071 146.657 136.24 121.171 152.598 119.952" stroke="#3F3D56" stroke-width="2" stroke-miterlimit="10"/>
<path d="M152.866 84.1901C155.298 84.1901 157.27 82.2795 157.27 79.9227C157.27 77.5659 155.298 75.6553 152.866 75.6553C150.434 75.6553 148.462 77.5659 148.462 79.9227C148.462 82.2795 150.434 84.1901 152.866 84.1901Z" fill="#3F3D56"/>
<path d="M139.34 105.268C139.34 105.268 136.509 81.1416 152.866 79.9224" stroke="#3F3D56" stroke-width="2" stroke-miterlimit="10"/>
<path d="M109.894 147.689V86.248" stroke="#3F3D56" stroke-width="2" stroke-miterlimit="10"/>
<path d="M109.894 90.5153C112.326 90.5153 114.298 88.6047 114.298 86.2479C114.298 83.891 112.326 81.9805 109.894 81.9805C107.461 81.9805 105.49 83.891 105.49 86.2479C105.49 88.6047 107.461 90.5153 109.894 90.5153Z" fill="#3F3D56"/>
<path d="M109.894 103.627C109.894 103.627 109.265 90.5152 96.3674 92.0393L109.894 103.627Z" fill="#3F3D56"/>
<path d="M109.894 146.516C109.894 146.516 112.725 121.302 96.3674 120.083" stroke="#3F3D56" stroke-width="2" stroke-miterlimit="10"/>
<path d="M96.3674 124.35C98.7996 124.35 100.771 122.439 100.771 120.082C100.771 117.726 98.7996 115.815 96.3674 115.815C93.9352 115.815 91.9635 117.726 91.9635 120.082C91.9635 122.439 93.9352 124.35 96.3674 124.35Z" fill="#3F3D56"/>
<path d="M61.3097 147.63H152.219" stroke="#3F3D56" stroke-width="2" stroke-miterlimit="10"/>
<path d="M185.467 104.133C190.426 104.133 194.445 100.238 194.445 95.4329C194.445 90.6277 190.426 86.7324 185.467 86.7324C180.508 86.7324 176.488 90.6277 176.488 95.4329C176.488 100.238 180.508 104.133 185.467 104.133Z" fill="#F2F2F2"/>
<path d="M44.0518 49.7559C49.0107 49.7559 53.0306 45.8606 53.0306 41.0554C53.0306 36.2503 49.0107 32.355 44.0518 32.355C39.093 32.355 35.0731 36.2503 35.0731 41.0554C35.0731 45.8606 39.093 49.7559 44.0518 49.7559Z" fill="#F2F2F2"/>
<path d="M134.681 17.4009C139.64 17.4009 143.66 13.5056 143.66 8.70046C143.66 3.89533 139.64 0 134.681 0C129.722 0 125.702 3.89533 125.702 8.70046C125.702 13.5056 129.722 17.4009 134.681 17.4009Z" fill="#F2F2F2"/>
</g>
<defs>
<clipPath id="clip0">
<rect width="211" height="177" fill="white"/>
</clipPath>
</defs>
</svg>
