<svg xmlns="http://www.w3.org/2000/svg" xmlns:xlink="http://www.w3.org/1999/xlink" viewBox="0 0 1474 737"><defs><style>.cls-1,.cls-79{fill:none;}.cls-2{isolation:isolate;}.cls-3{fill:url(#linear-gradient);}.cls-4{fill:url(#linear-gradient-2);}.cls-5{fill:url(#linear-gradient-3);}.cls-6{fill:url(#linear-gradient-4);}.cls-7{fill:url(#linear-gradient-5);}.cls-8{fill:url(#linear-gradient-6);}.cls-9{fill:url(#linear-gradient-7);}.cls-10{fill:url(#linear-gradient-8);}.cls-11{fill:url(#linear-gradient-9);}.cls-12{fill:url(#linear-gradient-10);}.cls-13{fill:url(#linear-gradient-11);}.cls-14{fill:url(#linear-gradient-12);}.cls-15{fill:url(#linear-gradient-13);}.cls-16{fill:url(#linear-gradient-14);}.cls-17{fill:url(#linear-gradient-15);}.cls-18{fill:url(#linear-gradient-16);}.cls-19{fill:url(#linear-gradient-17);}.cls-20{fill:url(#linear-gradient-18);}.cls-21{fill:url(#linear-gradient-19);}.cls-22{fill:url(#linear-gradient-20);}.cls-23{fill:url(#linear-gradient-21);}.cls-24{fill:url(#linear-gradient-22);}.cls-25{fill:url(#linear-gradient-23);}.cls-26{fill:url(#linear-gradient-24);}.cls-27{fill:url(#linear-gradient-25);}.cls-28{fill:url(#linear-gradient-26);}.cls-29{fill:url(#linear-gradient-27);}.cls-30{fill:url(#linear-gradient-28);}.cls-31{fill:url(#linear-gradient-29);}.cls-32{fill:url(#linear-gradient-30);}.cls-33{fill:url(#linear-gradient-31);}.cls-34{fill:url(#linear-gradient-32);}.cls-35{fill:url(#linear-gradient-33);}.cls-36{fill:url(#linear-gradient-34);}.cls-37{fill:url(#linear-gradient-35);}.cls-38{fill:url(#linear-gradient-36);}.cls-39{fill:url(#linear-gradient-37);}.cls-40{fill:#ef5023;}.cls-41{fill:url(#linear-gradient-38);}.cls-42{fill:url(#linear-gradient-39);}.cls-43{fill:url(#linear-gradient-40);}.cls-44{fill:url(#linear-gradient-41);}.cls-45{fill:url(#linear-gradient-42);}.cls-46{fill:url(#linear-gradient-43);}.cls-47{fill:url(#linear-gradient-44);}.cls-48{fill:url(#linear-gradient-45);}.cls-49{fill:url(#linear-gradient-46);}.cls-50{fill:url(#linear-gradient-47);}.cls-51{fill:url(#linear-gradient-48);}.cls-52{fill:url(#linear-gradient-49);}.cls-53{fill:url(#linear-gradient-50);}.cls-54{fill:url(#linear-gradient-51);}.cls-55{fill:url(#linear-gradient-52);}.cls-56{fill:url(#linear-gradient-53);}.cls-57{fill:url(#linear-gradient-54);}.cls-58{fill:url(#linear-gradient-55);}.cls-59{fill:url(#linear-gradient-56);}.cls-60{fill:url(#linear-gradient-57);}.cls-61{fill:url(#linear-gradient-58);}.cls-62{fill:url(#linear-gradient-59);}.cls-63{fill:url(#linear-gradient-60);}.cls-64{fill:url(#linear-gradient-61);}.cls-65{fill:#d2d2ff;}.cls-66{fill:url(#linear-gradient-62);}.cls-67{fill:url(#linear-gradient-63);}.cls-68{fill:url(#linear-gradient-64);}.cls-69{fill:url(#linear-gradient-65);}.cls-70{fill:url(#linear-gradient-66);}.cls-71{fill:url(#linear-gradient-67);}.cls-72{fill:url(#linear-gradient-68);}.cls-73{fill:url(#linear-gradient-69);}.cls-74{fill:url(#linear-gradient-70);}.cls-75{fill:#252526;}.cls-76{fill:#e5cbb1;}.cls-76,.cls-83{mix-blend-mode:multiply;}.cls-77{clip-path:url(#clip-path);}.cls-78{fill:#0ba14a;}.cls-79{stroke:#fff;stroke-miterlimit:10;}.cls-80{clip-path:url(#clip-path-2);}.cls-81{clip-path:url(#clip-path-3);}.cls-82{clip-path:url(#clip-path-4);}.cls-83{opacity:0.51;}.cls-84{fill:#0d23a0;opacity:0.65;}</style><linearGradient id="linear-gradient" x1="526.05" y1="175.76" x2="2000" y2="175.76" gradientUnits="userSpaceOnUse"><stop offset="0.21" stop-color="#fff" stop-opacity="0.9"/><stop offset="1" stop-color="#040454"/></linearGradient><linearGradient id="linear-gradient-2" x1="526.05" y1="85.69" x2="2000" y2="85.69" xlink:href="#linear-gradient"/><linearGradient id="linear-gradient-3" x1="526.05" y1="399.45" x2="2000" y2="399.45" xlink:href="#linear-gradient"/><linearGradient id="linear-gradient-4" x1="526.05" y1="125.55" x2="2000" y2="125.55" xlink:href="#linear-gradient"/><linearGradient id="linear-gradient-5" x1="1541.86" y1="267.86" x2="1745.15" y2="64.57" gradientUnits="userSpaceOnUse"><stop offset="0" stop-color="#fff" stop-opacity="0"/><stop offset="1" stop-color="#383875"/></linearGradient><linearGradient id="linear-gradient-6" x1="526.05" y1="96.15" x2="2000" y2="96.15" xlink:href="#linear-gradient"/><linearGradient id="linear-gradient-7" x1="1488.84" y1="214.84" x2="1692.13" y2="11.56" xlink:href="#linear-gradient-5"/><linearGradient id="linear-gradient-8" x1="526.05" y1="91.58" x2="2000" y2="91.58" xlink:href="#linear-gradient"/><linearGradient id="linear-gradient-9" x1="1697.43" y1="196.31" x2="1851.31" y2="42.42" xlink:href="#linear-gradient-5"/><linearGradient id="linear-gradient-10" x1="526.05" y1="166.03" x2="2000" y2="166.03" xlink:href="#linear-gradient"/><linearGradient id="linear-gradient-11" x1="1771.65" y1="270.53" x2="1925.53" y2="116.64" xlink:href="#linear-gradient-5"/><linearGradient id="linear-gradient-12" x1="526.05" y1="128.07" x2="2000" y2="128.07" xlink:href="#linear-gradient"/><linearGradient id="linear-gradient-13" x1="1719.84" y1="218.72" x2="1873.73" y2="64.83" xlink:href="#linear-gradient-5"/><linearGradient id="linear-gradient-14" x1="526.05" y1="128.21" x2="2000" y2="128.21" xlink:href="#linear-gradient"/><linearGradient id="linear-gradient-15" x1="1561.57" y1="287.57" x2="1764.86" y2="84.28" xlink:href="#linear-gradient-5"/><linearGradient id="linear-gradient-16" x1="1675.13" y1="174.01" x2="1829.02" y2="20.12" xlink:href="#linear-gradient-5"/><linearGradient id="linear-gradient-17" x1="526.05" y1="129.03" x2="2000" y2="129.03" xlink:href="#linear-gradient"/><linearGradient id="linear-gradient-18" x1="1598.52" y1="324.52" x2="1801.81" y2="121.23" xlink:href="#linear-gradient-5"/><linearGradient id="linear-gradient-19" x1="1712.08" y1="210.96" x2="1865.97" y2="57.07" xlink:href="#linear-gradient-5"/><linearGradient id="linear-gradient-20" x1="526.05" y1="102.56" x2="2000" y2="102.56" xlink:href="#linear-gradient"/><linearGradient id="linear-gradient-21" x1="1564.87" y1="290.86" x2="1768.15" y2="87.58" xlink:href="#linear-gradient-5"/><linearGradient id="linear-gradient-22" x1="1678.43" y1="177.31" x2="1832.31" y2="23.42" xlink:href="#linear-gradient-5"/><linearGradient id="linear-gradient-23" x1="526.05" y1="151.78" x2="2000" y2="151.78" xlink:href="#linear-gradient"/><linearGradient id="linear-gradient-24" x1="1569.1" y1="295.1" x2="1772.39" y2="91.81" xlink:href="#linear-gradient-5"/><linearGradient id="linear-gradient-25" x1="1682.66" y1="181.54" x2="1836.55" y2="27.65" xlink:href="#linear-gradient-5"/><linearGradient id="linear-gradient-26" x1="526.05" y1="160.41" x2="2000" y2="160.41" xlink:href="#linear-gradient"/><linearGradient id="linear-gradient-27" x1="1599.78" y1="325.78" x2="1803.07" y2="122.49" xlink:href="#linear-gradient-5"/><linearGradient id="linear-gradient-28" x1="1713.34" y1="212.22" x2="1867.23" y2="58.33" xlink:href="#linear-gradient-5"/><linearGradient id="linear-gradient-29" x1="526.05" y1="159.48" x2="2000" y2="159.48" xlink:href="#linear-gradient"/><linearGradient id="linear-gradient-30" x1="1611.81" y1="337.81" x2="1815.1" y2="134.52" xlink:href="#linear-gradient-5"/><linearGradient id="linear-gradient-31" x1="1725.37" y1="224.25" x2="1879.26" y2="70.36" xlink:href="#linear-gradient-5"/><linearGradient id="linear-gradient-32" x1="526.05" y1="399.05" x2="2000" y2="399.05" xlink:href="#linear-gradient"/><linearGradient id="linear-gradient-33" x1="525.92" y1="399.05" x2="2000" y2="399.05" gradientUnits="userSpaceOnUse"><stop offset="0" stop-color="#fff" stop-opacity="0.5"/><stop offset="1" stop-color="#5982ea"/></linearGradient><linearGradient id="linear-gradient-34" x1="525.92" y1="399.05" x2="2000" y2="399.05" gradientUnits="userSpaceOnUse"><stop offset="0.31" stop-color="#fff" stop-opacity="0.5"/><stop offset="1" stop-color="#0a5bbc" stop-opacity="0.75"/></linearGradient><linearGradient id="linear-gradient-35" x1="526.05" y1="239.08" x2="2000" y2="239.08" xlink:href="#linear-gradient"/><linearGradient id="linear-gradient-36" x1="525.92" y1="239.08" x2="2000" y2="239.08" xlink:href="#linear-gradient-33"/><linearGradient id="linear-gradient-37" x1="525.92" y1="239.08" x2="2000" y2="239.08" xlink:href="#linear-gradient-34"/><linearGradient id="linear-gradient-38" x1="526.05" y1="323.19" x2="2000" y2="323.19" xlink:href="#linear-gradient"/><linearGradient id="linear-gradient-39" x1="525.92" y1="323.19" x2="2000" y2="323.19" xlink:href="#linear-gradient-33"/><linearGradient id="linear-gradient-40" x1="525.92" y1="323.19" x2="2000" y2="323.19" xlink:href="#linear-gradient-34"/><linearGradient id="linear-gradient-41" x1="526.05" y1="165.73" x2="2000" y2="165.73" xlink:href="#linear-gradient"/><linearGradient id="linear-gradient-42" x1="1510.22" y1="236.21" x2="1713.5" y2="32.92" xlink:href="#linear-gradient-5"/><linearGradient id="linear-gradient-43" x1="525.92" y1="165.73" x2="2000" y2="165.73" xlink:href="#linear-gradient-33"/><linearGradient id="linear-gradient-44" x1="525.92" y1="165.73" x2="2000" y2="165.73" xlink:href="#linear-gradient-34"/><linearGradient id="linear-gradient-45" x1="526.05" y1="182" x2="2000" y2="182" xlink:href="#linear-gradient"/><linearGradient id="linear-gradient-46" x1="1755.92" y1="254.8" x2="1909.81" y2="100.91" xlink:href="#linear-gradient-5"/><linearGradient id="linear-gradient-47" x1="525.92" y1="182" x2="2000" y2="182" xlink:href="#linear-gradient-33"/><linearGradient id="linear-gradient-48" x1="525.92" y1="182" x2="2000" y2="182" xlink:href="#linear-gradient-34"/><linearGradient id="linear-gradient-49" x1="526.05" y1="172.48" x2="2000" y2="172.48" xlink:href="#linear-gradient"/><linearGradient id="linear-gradient-50" x1="1588.14" y1="314.13" x2="1791.42" y2="110.85" xlink:href="#linear-gradient-5"/><linearGradient id="linear-gradient-51" x1="1701.7" y1="200.57" x2="1855.59" y2="46.68" xlink:href="#linear-gradient-5"/><linearGradient id="linear-gradient-52" x1="525.92" y1="172.48" x2="2000" y2="172.48" xlink:href="#linear-gradient-33"/><linearGradient id="linear-gradient-53" x1="525.92" y1="172.48" x2="2000" y2="172.48" xlink:href="#linear-gradient-34"/><linearGradient id="linear-gradient-54" x1="526.05" y1="313.53" x2="2000" y2="313.53" xlink:href="#linear-gradient"/><linearGradient id="linear-gradient-55" x1="525.92" y1="313.53" x2="2000" y2="313.53" xlink:href="#linear-gradient-33"/><linearGradient id="linear-gradient-56" x1="525.92" y1="313.53" x2="2000" y2="313.53" xlink:href="#linear-gradient-34"/><linearGradient id="linear-gradient-57" x1="1055.38" y1="313.53" x2="2000" y2="313.53" gradientUnits="userSpaceOnUse"><stop offset="0.02" stop-color="#fff" stop-opacity="0.5"/><stop offset="1" stop-color="#2929d3" stop-opacity="0.75"/></linearGradient><linearGradient id="linear-gradient-58" x1="526.05" y1="359.93" x2="2000" y2="359.93" xlink:href="#linear-gradient"/><linearGradient id="linear-gradient-59" x1="525.92" y1="359.93" x2="2000" y2="359.93" xlink:href="#linear-gradient-33"/><linearGradient id="linear-gradient-60" x1="525.92" y1="359.93" x2="2000" y2="359.93" xlink:href="#linear-gradient-34"/><linearGradient id="linear-gradient-61" x1="1055.38" y1="359.93" x2="2000" y2="359.93" xlink:href="#linear-gradient-57"/><linearGradient id="linear-gradient-62" x1="526.01" y1="565.21" x2="2000" y2="565.21" gradientUnits="userSpaceOnUse"><stop offset="0" stop-color="#fff"/><stop offset="1" stop-color="#251884"/></linearGradient><linearGradient id="linear-gradient-63" x1="526.05" y1="109.02" x2="2000" y2="109.02" xlink:href="#linear-gradient"/><linearGradient id="linear-gradient-64" x1="1820.9" y1="109.02" x2="2068.61" y2="109.02" xlink:href="#linear-gradient-5"/><linearGradient id="linear-gradient-65" x1="526.05" y1="130.3" x2="2000" y2="130.3" xlink:href="#linear-gradient"/><linearGradient id="linear-gradient-66" x1="1764.96" y1="263.84" x2="1918.85" y2="109.96" xlink:href="#linear-gradient-5"/><linearGradient id="linear-gradient-67" x1="1820.9" y1="130.3" x2="2068.61" y2="130.3" xlink:href="#linear-gradient-5"/><linearGradient id="linear-gradient-68" x1="526.05" y1="127.55" x2="2000" y2="127.55" xlink:href="#linear-gradient"/><linearGradient id="linear-gradient-69" x1="1730.62" y1="229.5" x2="1884.51" y2="75.61" xlink:href="#linear-gradient-5"/><linearGradient id="linear-gradient-70" x1="1820.9" y1="127.55" x2="2068.61" y2="127.55" xlink:href="#linear-gradient-5"/><clipPath id="clip-path" transform="translate(-526)"><path class="cls-1" d="M1865.4,431s28.26,22.61,43.54,0-5.35-87.62,22.91-82,7.13,99.24-12.22,107.41c-29.48,12.44-54.23-10.36-54.23-10.36Z"/></clipPath><clipPath id="clip-path-2" transform="translate(-526)"><path class="cls-1" d="M1859.67,279.51s16.15,15.09,24.88,0-3-58.46,13.1-54.69,4.07,66.22-7,71.67c-16.84,8.3-31-6.92-31-6.92Z"/></clipPath><clipPath id="clip-path-3" transform="translate(-526)"><path class="cls-1" d="M1858.2,382.59s-23.07,16.93-35.55,0S1827,317,1804,321.2s-5.83,74.32,10,80.44c24.08,9.32,44.28-7.76,44.28-7.76Z"/></clipPath><clipPath id="clip-path-4" transform="translate(-526)"><path class="cls-1" d="M1884.63,404.6c0,98.63-1.42,183.54-22.77,181.43-47.49-4.71-34.86-80-34.86-178.59s8.8-178.58,28-178.58S1884.63,306,1884.63,404.6Z"/></clipPath></defs><title>homePageIllustrationBlue</title><g class="cls-2"><g id="blue_small_version_copy" data-name="blue small version copy"><path class="cls-1" d="M2000,399.55V0H526V737H1921.85c-154-7-489.31-47.47-565.62-265.69a177.79,177.79,0,0,1-9.48-73.27c1.74-24.25,7.54-47.53,13.52-71.15l1.86-7.4c10.72-42.57,20.68-86.7,7.37-140-.71-2.84-1.46-5.66-2.24-8.44C1345.06,91.84,1294.7,35.45,1256,.37h743.63V737h.37V399.55Z" transform="translate(-526)"/><path class="cls-3" d="M1941.48,185.17c12.31.53,23.31.72,31.14.29l27-1.47V165.82h-46.57A34,34,0,0,1,1941.48,185.17Z" transform="translate(-526)"/><path class="cls-4" d="M1441.73,156.34a44.3,44.3,0,0,1-.61-7.24A43.46,43.46,0,0,1,1463.59,111a46.45,46.45,0,0,1,61.93-34.59,70.27,70.27,0,0,1,122.36-8.78,60.33,60.33,0,0,1,68.52,14.18,55.69,55.69,0,0,1,27.54,14.67,53.18,53.18,0,0,1,87.5,2,45.52,45.52,0,0,1,18.4-3.87c1.12,0,2.24.06,3.34.14a29.86,29.86,0,0,1,39.74,4.31,29.66,29.66,0,0,1,13.89-3.43c.34,0,.67,0,1,0a53.82,53.82,0,0,1,91.82-26.75V.37H1256c38.7,35.08,89.06,91.47,111.26,170.65,20.64-3.55,38.06-6.63,41.83-8.17C1414.21,160.75,1429.39,158.19,1441.73,156.34Z" transform="translate(-526)"/><path class="cls-5" d="M1999.63,399.53v-.15h-3Z" transform="translate(-526)"/><path class="cls-6" d="M1691.93,131.34a35,35,0,0,1,8.61-17c-5.2-.31-11.35-.74-17.47-1.22.32,3.89.4,17.77.43,24.92A33.06,33.06,0,0,1,1691.93,131.34Z" transform="translate(-526)"/><path class="cls-7" d="M1691.93,131.34a35,35,0,0,1,8.61-17c-5.2-.31-11.35-.74-17.47-1.22.32,3.89.4,17.77.43,24.92A33.06,33.06,0,0,1,1691.93,131.34Z" transform="translate(-526)"/><path class="cls-8" d="M1564.26,142c9.13-4.48,50.19-3.72,66.16,0,13.65,3.2,30.62,10.22,45.24,11.27a32.91,32.91,0,0,1,2.75-7.81c-8.6-.67-15.88-1.24-16.34-1.32-1.1-.18-8.84-2-9-2.47s4.24-.48,4.24-.48,9.14.21,19.88.43c.83-3.89,4.64-21.75,4.75-24.16a29.86,29.86,0,0,1,.42-4.4c-14-1.12-27.49-2.55-28.43-3.62-1.38-1.58,36.79-1.41,54-1.19a35.17,35.17,0,0,1,31-3.06,52.88,52.88,0,0,1,5.12-8.66,55.69,55.69,0,0,0-27.54-14.67,60.33,60.33,0,0,0-68.52-14.18,70.27,70.27,0,0,0-122.36,8.78A46.45,46.45,0,0,0,1463.59,111a43.46,43.46,0,0,0-22.47,38.08,44.3,44.3,0,0,0,.61,7.24c9.65-1.45,17.56-2.45,17.56-2.45S1555.13,146.44,1564.26,142Z" transform="translate(-526)"/><path class="cls-9" d="M1564.26,142c9.13-4.48,50.19-3.72,66.16,0,13.65,3.2,30.62,10.22,45.24,11.27a32.91,32.91,0,0,1,2.75-7.81c-8.6-.67-15.88-1.24-16.34-1.32-1.1-.18-8.84-2-9-2.47s4.24-.48,4.24-.48,9.14.21,19.88.43c.83-3.89,4.64-21.75,4.75-24.16a29.86,29.86,0,0,1,.42-4.4c-14-1.12-27.49-2.55-28.43-3.62-1.38-1.58,36.79-1.41,54-1.19a35.17,35.17,0,0,1,31-3.06,52.88,52.88,0,0,1,5.12-8.66,55.69,55.69,0,0,0-27.54-14.67,60.33,60.33,0,0,0-68.52-14.18,70.27,70.27,0,0,0-122.36,8.78A46.45,46.45,0,0,0,1463.59,111a43.46,43.46,0,0,0-22.47,38.08,44.3,44.3,0,0,0,.61,7.24c9.65-1.45,17.56-2.45,17.56-2.45S1555.13,146.44,1564.26,142Z" transform="translate(-526)"/><path class="cls-10" d="M1750.8,104.55a45.15,45.15,0,0,1,36.09,4c5.35.15,11.86.25,19.33-.12,1.61-.08,12.34-.25,24.42-.29A33.88,33.88,0,0,1,1849,98.45a29.94,29.94,0,0,1,4.2-3.67c-1.1-.08-2.22-.14-3.34-.14a45.52,45.52,0,0,0-18.4,3.87,53.18,53.18,0,0,0-87.5-2A56.12,56.12,0,0,1,1750.8,104.55Z" transform="translate(-526)"/><path class="cls-11" d="M1750.8,104.55a45.15,45.15,0,0,1,36.09,4c5.35.15,11.86.25,19.33-.12,1.61-.08,12.34-.25,24.42-.29A33.88,33.88,0,0,1,1849,98.45a29.94,29.94,0,0,1,4.2-3.67c-1.1-.08-2.22-.14-3.34-.14a45.52,45.52,0,0,0-18.4,3.87,53.18,53.18,0,0,0-87.5-2A56.12,56.12,0,0,1,1750.8,104.55Z" transform="translate(-526)"/><path class="cls-12" d="M1953.06,165.82h-98.22a33.93,33.93,0,0,1-30.44-18.93l-9.59.72-5.38.45a44.9,44.9,0,0,1-6.51,22.84c20.11,4.06,39.89,7.51,51.06,8.29,17.92,1.25,56.78,4.67,87.5,6A34,34,0,0,0,1953.06,165.82Z" transform="translate(-526)"/><path class="cls-13" d="M1953.06,165.82h-98.22a33.93,33.93,0,0,1-30.44-18.93l-9.59.72-5.38.45a44.9,44.9,0,0,1-6.51,22.84c20.11,4.06,39.89,7.51,51.06,8.29,17.92,1.25,56.78,4.67,87.5,6A34,34,0,0,0,1953.06,165.82Z" transform="translate(-526)"/><path class="cls-14" d="M1826,114c-6.58.43-12.22.72-15.34.79-3.74.08-8.86.59-14,1.24A44.89,44.89,0,0,1,1809.09,142l2.41.09c1.2,0,5.39,0,10.94-.08a34,34,0,0,1,3.54-28Z" transform="translate(-526)"/><path class="cls-15" d="M1826,114c-6.58.43-12.22.72-15.34.79-3.74.08-8.86.59-14,1.24A44.89,44.89,0,0,1,1809.09,142l2.41.09c1.2,0,5.39,0,10.94-.08a34,34,0,0,1,3.54-28Z" transform="translate(-526)"/><path class="cls-16" d="M1711.39,114.82c-2.38,0-6.24-.24-10.85-.51a35,35,0,0,0-8.61,17,33.06,33.06,0,0,0-8.43,6.67c0,1.68,0,3,0,3.71,12.31.24,24.8.45,27,.37,3.94-.16,25.54-.72,31.7-.88-1.32-5.63-.73-11.84,1.65-15.34.92-1,1.95-2.68,3.37-4.16a18.89,18.89,0,0,1-1-2.52C1743.49,118.71,1722,115.05,1711.39,114.82Z" transform="translate(-526)"/><path class="cls-17" d="M1711.39,114.82c-2.38,0-6.24-.24-10.85-.51a35,35,0,0,0-8.61,17,33.06,33.06,0,0,0-8.43,6.67c0,1.68,0,3,0,3.71,12.31.24,24.8.45,27,.37,3.94-.16,25.54-.72,31.7-.88-1.32-5.63-.73-11.84,1.65-15.34.92-1,1.95-2.68,3.37-4.16a18.89,18.89,0,0,1-1-2.52C1743.49,118.71,1722,115.05,1711.39,114.82Z" transform="translate(-526)"/><path class="cls-18" d="M1711.39,114.82c-2.38,0-6.24-.24-10.85-.51a35,35,0,0,0-8.61,17,33.06,33.06,0,0,0-8.43,6.67c0,1.68,0,3,0,3.71,12.31.24,24.8.45,27,.37,3.94-.16,25.54-.72,31.7-.88-1.32-5.63-.73-11.84,1.65-15.34.92-1,1.95-2.68,3.37-4.16a18.89,18.89,0,0,1-1-2.52C1743.49,118.71,1722,115.05,1711.39,114.82Z" transform="translate(-526)"/><path class="cls-19" d="M1775.8,119.19a17.41,17.41,0,0,1-1,2.52,32.76,32.76,0,0,1,2.52,3.09c5-1.89,8.84-2.39,9.56-1s-2.1,4.4-6.72,7.39a25.07,25.07,0,0,1-.34,10c5.35.14,22.34.58,29.3.79a44.89,44.89,0,0,0-12.47-25.94C1787.18,117.24,1777.57,118.88,1775.8,119.19Z" transform="translate(-526)"/><path class="cls-20" d="M1775.8,119.19a17.41,17.41,0,0,1-1,2.52,32.76,32.76,0,0,1,2.52,3.09c5-1.89,8.84-2.39,9.56-1s-2.1,4.4-6.72,7.39a25.07,25.07,0,0,1-.34,10c5.35.14,22.34.58,29.3.79a44.89,44.89,0,0,0-12.47-25.94C1787.18,117.24,1777.57,118.88,1775.8,119.19Z" transform="translate(-526)"/><path class="cls-21" d="M1775.8,119.19a17.41,17.41,0,0,1-1,2.52,32.76,32.76,0,0,1,2.52,3.09c5-1.89,8.84-2.39,9.56-1s-2.1,4.4-6.72,7.39a25.07,25.07,0,0,1-.34,10c5.35.14,22.34.58,29.3.79a44.89,44.89,0,0,0-12.47-25.94C1787.18,117.24,1777.57,118.88,1775.8,119.19Z" transform="translate(-526)"/><path class="cls-22" d="M1726.44,102.91a35,35,0,0,0-18.58,5.31c4.21.06,7.16.12,8,.16,15.58.77,27-.49,32.38,0,2.27-2,6.22-3.35,12.82-3.35s10.55,1.38,12.82,3.35c2.78-.23,7.24,0,13.06.16a45.15,45.15,0,0,0-36.09-4,56.12,56.12,0,0,0-6.86-8,52.88,52.88,0,0,0-5.12,8.66A35,35,0,0,0,1726.44,102.91Z" transform="translate(-526)"/><path class="cls-23" d="M1726.44,102.91a35,35,0,0,0-18.58,5.31c4.21.06,7.16.12,8,.16,15.58.77,27-.49,32.38,0,2.27-2,6.22-3.35,12.82-3.35s10.55,1.38,12.82,3.35c2.78-.23,7.24,0,13.06.16a45.15,45.15,0,0,0-36.09-4,56.12,56.12,0,0,0-6.86-8,52.88,52.88,0,0,0-5.12,8.66A35,35,0,0,0,1726.44,102.91Z" transform="translate(-526)"/><path class="cls-24" d="M1726.44,102.91a35,35,0,0,0-18.58,5.31c4.21.06,7.16.12,8,.16,15.58.77,27-.49,32.38,0,2.27-2,6.22-3.35,12.82-3.35s10.55,1.38,12.82,3.35c2.78-.23,7.24,0,13.06.16a45.15,45.15,0,0,0-36.09-4,56.12,56.12,0,0,0-6.86-8,52.88,52.88,0,0,0-5.12,8.66A35,35,0,0,0,1726.44,102.91Z" transform="translate(-526)"/><path class="cls-25" d="M1748.79,152.2l-.34-.32c-2.21-.35-5.16-.74-8.47-1.12-2.54.54-4.34.44-4.8-.46,0,0,0-.06,0-.08-12.14-1.3-26.43-2.5-28-2.61s-16.5-1.23-28.8-2.18a32.91,32.91,0,0,0-2.75,7.81,43.55,43.55,0,0,0,7.23,0c16-1.49,41.07-1.48,59.32,3.76,1.2.34,2.62.73,4.22,1.16l.58-1.3S1747.93,154.56,1748.79,152.2Z" transform="translate(-526)"/><path class="cls-26" d="M1748.79,152.2l-.34-.32c-2.21-.35-5.16-.74-8.47-1.12-2.54.54-4.34.44-4.8-.46,0,0,0-.06,0-.08-12.14-1.3-26.43-2.5-28-2.61s-16.5-1.23-28.8-2.18a32.91,32.91,0,0,0-2.75,7.81,43.55,43.55,0,0,0,7.23,0c16-1.49,41.07-1.48,59.32,3.76,1.2.34,2.62.73,4.22,1.16l.58-1.3S1747.93,154.56,1748.79,152.2Z" transform="translate(-526)"/><path class="cls-27" d="M1748.79,152.2l-.34-.32c-2.21-.35-5.16-.74-8.47-1.12-2.54.54-4.34.44-4.8-.46,0,0,0-.06,0-.08-12.14-1.3-26.43-2.5-28-2.61s-16.5-1.23-28.8-2.18a32.91,32.91,0,0,0-2.75,7.81,43.55,43.55,0,0,0,7.23,0c16-1.49,41.07-1.48,59.32,3.76,1.2.34,2.62.73,4.22,1.16l.58-1.3S1747.93,154.56,1748.79,152.2Z" transform="translate(-526)"/><path class="cls-28" d="M1768,155.57a19.83,19.83,0,0,1-13.91,0c-.94.87-2.28,2.16-3.63,3.59,6.81,1.72,15.86,3.86,25.88,6.09-.34-.59-.74-1.25-1.11-1.79A56,56,0,0,0,1768,155.57Z" transform="translate(-526)"/><path class="cls-29" d="M1768,155.57a19.83,19.83,0,0,1-13.91,0c-.94.87-2.28,2.16-3.63,3.59,6.81,1.72,15.86,3.86,25.88,6.09-.34-.59-.74-1.25-1.11-1.79A56,56,0,0,0,1768,155.57Z" transform="translate(-526)"/><path class="cls-30" d="M1768,155.57a19.83,19.83,0,0,1-13.91,0c-.94.87-2.28,2.16-3.63,3.59,6.81,1.72,15.86,3.86,25.88,6.09-.34-.59-.74-1.25-1.11-1.79A56,56,0,0,0,1768,155.57Z" transform="translate(-526)"/><path class="cls-31" d="M1773.23,152.2c.86,2.36,1.79,4.63,1.79,4.63l4,9c7.66,1.69,15.8,3.42,23.89,5.05a44.9,44.9,0,0,0,6.51-22.84c-9.24.8-27.66,2.5-35.85,3.82Z" transform="translate(-526)"/><path class="cls-32" d="M1773.23,152.2c.86,2.36,1.79,4.63,1.79,4.63l4,9c7.66,1.69,15.8,3.42,23.89,5.05a44.9,44.9,0,0,0,6.51-22.84c-9.24.8-27.66,2.5-35.85,3.82Z" transform="translate(-526)"/><path class="cls-33" d="M1773.23,152.2c.86,2.36,1.79,4.63,1.79,4.63l4,9c7.66,1.69,15.8,3.42,23.89,5.05a44.9,44.9,0,0,0,6.51-22.84c-9.24.8-27.66,2.5-35.85,3.82Z" transform="translate(-526)"/><path class="cls-34" d="M1996.68,399.38h3v-.66h-16.17C1988.28,399,1992.7,399.17,1996.68,399.38Z" transform="translate(-526)"/><path class="cls-35" d="M1996.68,399.38h3v-.66h-16.17C1988.28,399,1992.7,399.17,1996.68,399.38Z" transform="translate(-526)"/><path class="cls-36" d="M1996.68,399.38h3v-.66h-16.17C1988.28,399,1992.7,399.17,1996.68,399.38Z" transform="translate(-526)"/><path class="cls-37" d="M1444.89,307.9l54.81-7h43.15l64.14-4.27s64.14-14,67.64-16.69,99.13-28.33,99.13-28.33,98-20.18,105-20.18,73.48-3.11,73.48-3.11h47.44V184l-27,1.47c-7.83.43-18.83.24-31.14-.29a33.9,33.9,0,0,1-21.85,7.92H1707.85a33.12,33.12,0,0,1-5.67-.49H1484.62a43.51,43.51,0,0,1-42.89-36.26c-12.34,1.85-27.52,4.41-32.64,6.51-3.77,1.54-21.19,4.62-41.83,8.17.78,2.78,1.53,5.6,2.24,8.44,13.31,53.33,3.35,97.46-7.37,140l18.31,2.33C1408.61,315.18,1444.89,307.9,1444.89,307.9Z" transform="translate(-526)"/><path class="cls-38" d="M1444.89,307.9l54.81-7h43.15l64.14-4.27s64.14-14,67.64-16.69,99.13-28.33,99.13-28.33,98-20.18,105-20.18,73.48-3.11,73.48-3.11h47.44V184l-27,1.47c-7.83.43-18.83.24-31.14-.29a33.9,33.9,0,0,1-21.85,7.92H1707.85a33.12,33.12,0,0,1-5.67-.49H1484.62a43.51,43.51,0,0,1-42.89-36.26c-12.34,1.85-27.52,4.41-32.64,6.51-3.77,1.54-21.19,4.62-41.83,8.17.78,2.78,1.53,5.6,2.24,8.44,13.31,53.33,3.35,97.46-7.37,140l18.31,2.33C1408.61,315.18,1444.89,307.9,1444.89,307.9Z" transform="translate(-526)"/><path class="cls-39" d="M1444.89,307.9l54.81-7h43.15l64.14-4.27s64.14-14,67.64-16.69,99.13-28.33,99.13-28.33,98-20.18,105-20.18,73.48-3.11,73.48-3.11h47.44V184l-27,1.47c-7.83.43-18.83.24-31.14-.29a33.9,33.9,0,0,1-21.85,7.92H1707.85a33.12,33.12,0,0,1-5.67-.49H1484.62a43.51,43.51,0,0,1-42.89-36.26c-12.34,1.85-27.52,4.41-32.64,6.51-3.77,1.54-21.19,4.62-41.83,8.17.78,2.78,1.53,5.6,2.24,8.44,13.31,53.33,3.35,97.46-7.37,140l18.31,2.33C1408.61,315.18,1444.89,307.9,1444.89,307.9Z" transform="translate(-526)"/><path class="cls-40" d="M1362.13,319.49l-1.86,7.4c5.55-1.54,12.56-3.28,20.17-5.07Z" transform="translate(-526)"/><path class="cls-41" d="M1362.13,319.49l-1.86,7.4c5.55-1.54,12.56-3.28,20.17-5.07Z" transform="translate(-526)"/><path class="cls-42" d="M1362.13,319.49l-1.86,7.4c5.55-1.54,12.56-3.28,20.17-5.07Z" transform="translate(-526)"/><path class="cls-43" d="M1362.13,319.49l-1.86,7.4c5.55-1.54,12.56-3.28,20.17-5.07Z" transform="translate(-526)"/><path class="cls-44" d="M1674.93,160.17a32.92,32.92,0,0,1,.73-6.93c-14.62-1.05-31.59-8.07-45.24-11.27-16-3.74-57-4.5-66.16,0s-105,11.94-105,11.94-7.91,1-17.56,2.45a43.51,43.51,0,0,0,42.89,36.26h217.56A32.93,32.93,0,0,1,1674.93,160.17Z" transform="translate(-526)"/><path class="cls-45" d="M1674.93,160.17a32.92,32.92,0,0,1,.73-6.93c-14.62-1.05-31.59-8.07-45.24-11.27-16-3.74-57-4.5-66.16,0s-105,11.94-105,11.94-7.91,1-17.56,2.45a43.51,43.51,0,0,0,42.89,36.26h217.56A32.93,32.93,0,0,1,1674.93,160.17Z" transform="translate(-526)"/><path class="cls-46" d="M1674.93,160.17a32.92,32.92,0,0,1,.73-6.93c-14.62-1.05-31.59-8.07-45.24-11.27-16-3.74-57-4.5-66.16,0s-105,11.94-105,11.94-7.91,1-17.56,2.45a43.51,43.51,0,0,0,42.89,36.26h217.56A32.93,32.93,0,0,1,1674.93,160.17Z" transform="translate(-526)"/><path class="cls-47" d="M1674.93,160.17a32.92,32.92,0,0,1,.73-6.93c-14.62-1.05-31.59-8.07-45.24-11.27-16-3.74-57-4.5-66.16,0s-105,11.94-105,11.94-7.91,1-17.56,2.45a43.51,43.51,0,0,0,42.89,36.26h217.56A32.93,32.93,0,0,1,1674.93,160.17Z" transform="translate(-526)"/><path class="cls-48" d="M1802.92,170.9a45,45,0,0,1-38.54,21.7h-62.2a33.12,33.12,0,0,0,5.67.49h211.78a33.9,33.9,0,0,0,21.85-7.92c-30.72-1.31-69.58-4.73-87.5-6C1842.81,178.41,1823,175,1802.92,170.9Z" transform="translate(-526)"/><path class="cls-49" d="M1802.92,170.9a45,45,0,0,1-38.54,21.7h-62.2a33.12,33.12,0,0,0,5.67.49h211.78a33.9,33.9,0,0,0,21.85-7.92c-30.72-1.31-69.58-4.73-87.5-6C1842.81,178.41,1823,175,1802.92,170.9Z" transform="translate(-526)"/><path class="cls-50" d="M1802.92,170.9a45,45,0,0,1-38.54,21.7h-62.2a33.12,33.12,0,0,0,5.67.49h211.78a33.9,33.9,0,0,0,21.85-7.92c-30.72-1.31-69.58-4.73-87.5-6C1842.81,178.41,1823,175,1802.92,170.9Z" transform="translate(-526)"/><path class="cls-51" d="M1802.92,170.9a45,45,0,0,1-38.54,21.7h-62.2a33.12,33.12,0,0,0,5.67.49h211.78a33.9,33.9,0,0,0,21.85-7.92c-30.72-1.31-69.58-4.73-87.5-6C1842.81,178.41,1823,175,1802.92,170.9Z" transform="translate(-526)"/><path class="cls-52" d="M1802.92,170.9c-8.09-1.63-16.23-3.36-23.89-5.05l.09.21c1.85.24,3.31,2.18,3.31,4.5a5,5,0,0,1-1.21,3.33c0,.07,0,.14,0,.21,0,2.81-1.22,5.08-2.72,5.08s-2.73-2.27-2.73-5.08c0-.27,0-.53,0-.79a5.2,5.2,0,0,1-.77-2.75,4.75,4.75,0,0,1,2-4c-.14-.27-.41-.75-.73-1.3-10-2.23-19.07-4.37-25.88-6.09a35.53,35.53,0,0,0-3.6,4.3c-.71,1-1.54,2.53-1.85,3.09a4.76,4.76,0,0,1,2,4,5.2,5.2,0,0,1-.77,2.75c0,.26,0,.52,0,.79,0,2.81-1.22,5.08-2.72,5.08s-2.72-2.27-2.72-5.08a1.48,1.48,0,0,1,0-.21,5,5,0,0,1-1.22-3.33c0-2.32,1.47-4.26,3.31-4.5l3.53-7.93c-1.6-.43-3-.82-4.22-1.16-18.25-5.24-43.35-5.25-59.32-3.76a43.55,43.55,0,0,1-7.23,0,33,33,0,0,0,26.52,39.36h62.2A45,45,0,0,0,1802.92,170.9Z" transform="translate(-526)"/><path class="cls-53" d="M1802.92,170.9c-8.09-1.63-16.23-3.36-23.89-5.05l.09.21c1.85.24,3.31,2.18,3.31,4.5a5,5,0,0,1-1.21,3.33c0,.07,0,.14,0,.21,0,2.81-1.22,5.08-2.72,5.08s-2.73-2.27-2.73-5.08c0-.27,0-.53,0-.79a5.2,5.2,0,0,1-.77-2.75,4.75,4.75,0,0,1,2-4c-.14-.27-.41-.75-.73-1.3-10-2.23-19.07-4.37-25.88-6.09a35.53,35.53,0,0,0-3.6,4.3c-.71,1-1.54,2.53-1.85,3.09a4.76,4.76,0,0,1,2,4,5.2,5.2,0,0,1-.77,2.75c0,.26,0,.52,0,.79,0,2.81-1.22,5.08-2.72,5.08s-2.72-2.27-2.72-5.08a1.48,1.48,0,0,1,0-.21,5,5,0,0,1-1.22-3.33c0-2.32,1.47-4.26,3.31-4.5l3.53-7.93c-1.6-.43-3-.82-4.22-1.16-18.25-5.24-43.35-5.25-59.32-3.76a43.55,43.55,0,0,1-7.23,0,33,33,0,0,0,26.52,39.36h62.2A45,45,0,0,0,1802.92,170.9Z" transform="translate(-526)"/><path class="cls-54" d="M1802.92,170.9c-8.09-1.63-16.23-3.36-23.89-5.05l.09.21c1.85.24,3.31,2.18,3.31,4.5a5,5,0,0,1-1.21,3.33c0,.07,0,.14,0,.21,0,2.81-1.22,5.08-2.72,5.08s-2.73-2.27-2.73-5.08c0-.27,0-.53,0-.79a5.2,5.2,0,0,1-.77-2.75,4.75,4.75,0,0,1,2-4c-.14-.27-.41-.75-.73-1.3-10-2.23-19.07-4.37-25.88-6.09a35.53,35.53,0,0,0-3.6,4.3c-.71,1-1.54,2.53-1.85,3.09a4.76,4.76,0,0,1,2,4,5.2,5.2,0,0,1-.77,2.75c0,.26,0,.52,0,.79,0,2.81-1.22,5.08-2.72,5.08s-2.72-2.27-2.72-5.08a1.48,1.48,0,0,1,0-.21,5,5,0,0,1-1.22-3.33c0-2.32,1.47-4.26,3.31-4.5l3.53-7.93c-1.6-.43-3-.82-4.22-1.16-18.25-5.24-43.35-5.25-59.32-3.76a43.55,43.55,0,0,1-7.23,0,33,33,0,0,0,26.52,39.36h62.2A45,45,0,0,0,1802.92,170.9Z" transform="translate(-526)"/><path class="cls-55" d="M1802.92,170.9c-8.09-1.63-16.23-3.36-23.89-5.05l.09.21c1.85.24,3.31,2.18,3.31,4.5a5,5,0,0,1-1.21,3.33c0,.07,0,.14,0,.21,0,2.81-1.22,5.08-2.72,5.08s-2.73-2.27-2.73-5.08c0-.27,0-.53,0-.79a5.2,5.2,0,0,1-.77-2.75,4.75,4.75,0,0,1,2-4c-.14-.27-.41-.75-.73-1.3-10-2.23-19.07-4.37-25.88-6.09a35.53,35.53,0,0,0-3.6,4.3c-.71,1-1.54,2.53-1.85,3.09a4.76,4.76,0,0,1,2,4,5.2,5.2,0,0,1-.77,2.75c0,.26,0,.52,0,.79,0,2.81-1.22,5.08-2.72,5.08s-2.72-2.27-2.72-5.08a1.48,1.48,0,0,1,0-.21,5,5,0,0,1-1.22-3.33c0-2.32,1.47-4.26,3.31-4.5l3.53-7.93c-1.6-.43-3-.82-4.22-1.16-18.25-5.24-43.35-5.25-59.32-3.76a43.55,43.55,0,0,1-7.23,0,33,33,0,0,0,26.52,39.36h62.2A45,45,0,0,0,1802.92,170.9Z" transform="translate(-526)"/><path class="cls-56" d="M1802.92,170.9c-8.09-1.63-16.23-3.36-23.89-5.05l.09.21c1.85.24,3.31,2.18,3.31,4.5a5,5,0,0,1-1.21,3.33c0,.07,0,.14,0,.21,0,2.81-1.22,5.08-2.72,5.08s-2.73-2.27-2.73-5.08c0-.27,0-.53,0-.79a5.2,5.2,0,0,1-.77-2.75,4.75,4.75,0,0,1,2-4c-.14-.27-.41-.75-.73-1.3-10-2.23-19.07-4.37-25.88-6.09a35.53,35.53,0,0,0-3.6,4.3c-.71,1-1.54,2.53-1.85,3.09a4.76,4.76,0,0,1,2,4,5.2,5.2,0,0,1-.77,2.75c0,.26,0,.52,0,.79,0,2.81-1.22,5.08-2.72,5.08s-2.72-2.27-2.72-5.08a1.48,1.48,0,0,1,0-.21,5,5,0,0,1-1.22-3.33c0-2.32,1.47-4.26,3.31-4.5l3.53-7.93c-1.6-.43-3-.82-4.22-1.16-18.25-5.24-43.35-5.25-59.32-3.76a43.55,43.55,0,0,1-7.23,0,33,33,0,0,0,26.52,39.36h62.2A45,45,0,0,0,1802.92,170.9Z" transform="translate(-526)"/><path class="cls-57" d="M1878.71,231.45c-7,0-105,20.18-105,20.18s-95.63,25.61-99.13,28.33S1607,296.65,1607,296.65l-64.14,4.27H1499.7l-54.81,7s-36.28,7.28-64.45,13.92c35.21,4.45,92.67,11.67,100.84,12.85,10.65,1.54,74.53,7.69,100.39,7.43s41.07,14.1,73,14.61,62.37,15.38,78.72,16.92c13,1.22,42.9,11.14,83.55,19.8,7.44,0,15.31,0,23.86.13,35.06.43,66.8,1.8,110.55,3.68,12,.52,22.79,1,32.1,1.48h16.17V228.34h-47.44S1885.71,231.45,1878.71,231.45Z" transform="translate(-526)"/><path class="cls-58" d="M1878.71,231.45c-7,0-105,20.18-105,20.18s-95.63,25.61-99.13,28.33S1607,296.65,1607,296.65l-64.14,4.27H1499.7l-54.81,7s-36.28,7.28-64.45,13.92c35.21,4.45,92.67,11.67,100.84,12.85,10.65,1.54,74.53,7.69,100.39,7.43s41.07,14.1,73,14.61,62.37,15.38,78.72,16.92c13,1.22,42.9,11.14,83.55,19.8,7.44,0,15.31,0,23.86.13,35.06.43,66.8,1.8,110.55,3.68,12,.52,22.79,1,32.1,1.48h16.17V228.34h-47.44S1885.71,231.45,1878.71,231.45Z" transform="translate(-526)"/><path class="cls-59" d="M1878.71,231.45c-7,0-105,20.18-105,20.18s-95.63,25.61-99.13,28.33S1607,296.65,1607,296.65l-64.14,4.27H1499.7l-54.81,7s-36.28,7.28-64.45,13.92c35.21,4.45,92.67,11.67,100.84,12.85,10.65,1.54,74.53,7.69,100.39,7.43s41.07,14.1,73,14.61,62.37,15.38,78.72,16.92c13,1.22,42.9,11.14,83.55,19.8,7.44,0,15.31,0,23.86.13,35.06.43,66.8,1.8,110.55,3.68,12,.52,22.79,1,32.1,1.48h16.17V228.34h-47.44S1885.71,231.45,1878.71,231.45Z" transform="translate(-526)"/><path class="cls-60" d="M1878.71,231.45c-7,0-105,20.18-105,20.18s-95.63,25.61-99.13,28.33S1607,296.65,1607,296.65l-64.14,4.27H1499.7l-54.81,7s-36.28,7.28-64.45,13.92c35.21,4.45,92.67,11.67,100.84,12.85,10.65,1.54,74.53,7.69,100.39,7.43s41.07,14.1,73,14.61,62.37,15.38,78.72,16.92c13,1.22,42.9,11.14,83.55,19.8,7.44,0,15.31,0,23.86.13,35.06.43,66.8,1.8,110.55,3.68,12,.52,22.79,1,32.1,1.48h16.17V228.34h-47.44S1885.71,231.45,1878.71,231.45Z" transform="translate(-526)"/><path class="cls-40" d="M1437.67,397.24c55.64-1,50.06-2,84-2.21,35.06-.25,48.21.7,120.87.74h8.84c86.53-.06,117.25-2.27,165.55-2.34-40.65-8.66-70.59-18.58-83.55-19.8-16.35-1.54-46.78-16.4-78.72-16.92s-47.15-14.86-73-14.61-89.74-5.89-100.39-7.43c-8.17-1.18-65.63-8.4-100.84-12.85-7.61,1.79-14.62,3.53-20.17,5.07-6,23.62-11.78,46.9-13.52,71.15l21.64-.06C1385.76,397.92,1408.72,397.78,1437.67,397.24Z" transform="translate(-526)"/><path class="cls-61" d="M1437.67,397.24c55.64-1,50.06-2,84-2.21,35.06-.25,48.21.7,120.87.74h8.84c86.53-.06,117.25-2.27,165.55-2.34-40.65-8.66-70.59-18.58-83.55-19.8-16.35-1.54-46.78-16.4-78.72-16.92s-47.15-14.86-73-14.61-89.74-5.89-100.39-7.43c-8.17-1.18-65.63-8.4-100.84-12.85-7.61,1.79-14.62,3.53-20.17,5.07-6,23.62-11.78,46.9-13.52,71.15l21.64-.06C1385.76,397.92,1408.72,397.78,1437.67,397.24Z" transform="translate(-526)"/><path class="cls-62" d="M1437.67,397.24c55.64-1,50.06-2,84-2.21,35.06-.25,48.21.7,120.87.74h8.84c86.53-.06,117.25-2.27,165.55-2.34-40.65-8.66-70.59-18.58-83.55-19.8-16.35-1.54-46.78-16.4-78.72-16.92s-47.15-14.86-73-14.61-89.74-5.89-100.39-7.43c-8.17-1.18-65.63-8.4-100.84-12.85-7.61,1.79-14.62,3.53-20.17,5.07-6,23.62-11.78,46.9-13.52,71.15l21.64-.06C1385.76,397.92,1408.72,397.78,1437.67,397.24Z" transform="translate(-526)"/><path class="cls-63" d="M1437.67,397.24c55.64-1,50.06-2,84-2.21,35.06-.25,48.21.7,120.87.74h8.84c86.53-.06,117.25-2.27,165.55-2.34-40.65-8.66-70.59-18.58-83.55-19.8-16.35-1.54-46.78-16.4-78.72-16.92s-47.15-14.86-73-14.61-89.74-5.89-100.39-7.43c-8.17-1.18-65.63-8.4-100.84-12.85-7.61,1.79-14.62,3.53-20.17,5.07-6,23.62-11.78,46.9-13.52,71.15l21.64-.06C1385.76,397.92,1408.72,397.78,1437.67,397.24Z" transform="translate(-526)"/><path class="cls-64" d="M1437.67,397.24c55.64-1,50.06-2,84-2.21,35.06-.25,48.21.7,120.87.74h8.84c86.53-.06,117.25-2.27,165.55-2.34-40.65-8.66-70.59-18.58-83.55-19.8-16.35-1.54-46.78-16.4-78.72-16.92s-47.15-14.86-73-14.61-89.74-5.89-100.39-7.43c-8.17-1.18-65.63-8.4-100.84-12.85-7.61,1.79-14.62,3.53-20.17,5.07-6,23.62-11.78,46.9-13.52,71.15l21.64-.06C1385.76,397.92,1408.72,397.78,1437.67,397.24Z" transform="translate(-526)"/><path class="cls-65" d="M1999.63,399.53l-3-.15c-4-.21-8.4-.43-13.22-.66-9.31-.46-20.12-1-32.1-1.48-43.75-1.88-75.49-3.25-110.55-3.68-8.55-.11-16.42-.15-23.86-.13-48.3.07-79,2.28-165.55,2.34h-8.84c-72.66,0-85.81-1-120.87-.74-34,.25-28.38,1.19-84,2.21-29,.54-51.91.68-69.28.74l-21.64.06a177.79,177.79,0,0,0,9.48,73.27C1432.54,689.53,1767.88,730,1921.85,737h77.78Z" transform="translate(-526)"/><path class="cls-66" d="M1999.63,399.53l-3-.15c-4-.21-8.4-.43-13.22-.66-9.31-.46-20.12-1-32.1-1.48-43.75-1.88-75.49-3.25-110.55-3.68-8.55-.11-16.42-.15-23.86-.13-48.3.07-79,2.28-165.55,2.34h-8.84c-72.66,0-85.81-1-120.87-.74-34,.25-28.38,1.19-84,2.21-29,.54-51.91.68-69.28.74l-21.64.06a177.79,177.79,0,0,0,9.48,73.27C1432.54,689.53,1767.88,730,1921.85,737h77.78Z" transform="translate(-526)"/><path class="cls-67" d="M1960.64,52.21a53.84,53.84,0,0,0-52.83,43.48c-.33,0-.66,0-1,0a29.66,29.66,0,0,0-13.89,3.43,29.86,29.86,0,0,0-39.74-4.31,45.6,45.6,0,0,1,30.14,14.46,42.4,42.4,0,0,1,26,17.21A34.13,34.13,0,0,1,1953.75,159a34.2,34.2,0,0,1-.69,6.84h46.57V68.94A53.66,53.66,0,0,0,1960.64,52.21Z" transform="translate(-526)"/><path class="cls-68" d="M1960.64,52.21a53.84,53.84,0,0,0-52.83,43.48c-.33,0-.66,0-1,0a29.66,29.66,0,0,0-13.89,3.43,29.86,29.86,0,0,0-39.74-4.31,45.6,45.6,0,0,1,30.14,14.46,42.4,42.4,0,0,1,26,17.21A34.13,34.13,0,0,1,1953.75,159a34.2,34.2,0,0,1-.69,6.84h46.57V68.94A53.66,53.66,0,0,0,1960.64,52.21Z" transform="translate(-526)"/><path class="cls-69" d="M1849,98.45a33.88,33.88,0,0,0-18.34,9.64c17.79-.06,38.51.15,37.48,1.32s-14.44,2.5-28.42,3.62a32.87,32.87,0,0,1,.42,4.4c.11,2.41,3.91,20.27,4.75,24.16,10.73-.22,19.88-.43,19.88-.43s4.42,0,4.23.48-7.92,2.29-9,2.47c-.8.14-22.5,1.8-35.56,2.78a33.93,33.93,0,0,0,30.44,18.93h98.22a34.12,34.12,0,0,0-33.43-40.95,33.84,33.84,0,0,0-10.27,1.58,42.4,42.4,0,0,0-26-17.21,45.6,45.6,0,0,0-30.14-14.46A29.94,29.94,0,0,0,1849,98.45Z" transform="translate(-526)"/><path class="cls-70" d="M1849,98.45a33.88,33.88,0,0,0-18.34,9.64c17.79-.06,38.51.15,37.48,1.32s-14.44,2.5-28.42,3.62a32.87,32.87,0,0,1,.42,4.4c.11,2.41,3.91,20.27,4.75,24.16,10.73-.22,19.88-.43,19.88-.43s4.42,0,4.23.48-7.92,2.29-9,2.47c-.8.14-22.5,1.8-35.56,2.78a33.93,33.93,0,0,0,30.44,18.93h98.22a34.12,34.12,0,0,0-33.43-40.95,33.84,33.84,0,0,0-10.27,1.58,42.4,42.4,0,0,0-26-17.21,45.6,45.6,0,0,0-30.14-14.46A29.94,29.94,0,0,0,1849,98.45Z" transform="translate(-526)"/><path class="cls-71" d="M1849,98.45a33.88,33.88,0,0,0-18.34,9.64c17.79-.06,38.51.15,37.48,1.32s-14.44,2.5-28.42,3.62a32.87,32.87,0,0,1,.42,4.4c.11,2.41,3.91,20.27,4.75,24.16,10.73-.22,19.88-.43,19.88-.43s4.42,0,4.23.48-7.92,2.29-9,2.47c-.8.14-22.5,1.8-35.56,2.78a33.93,33.93,0,0,0,30.44,18.93h98.22a34.12,34.12,0,0,0-33.43-40.95,33.84,33.84,0,0,0-10.27,1.58,42.4,42.4,0,0,0-26-17.21,45.6,45.6,0,0,0-30.14-14.46A29.94,29.94,0,0,0,1849,98.45Z" transform="translate(-526)"/><path class="cls-72" d="M1820.9,131.88a33.9,33.9,0,0,0,1.54,10.13c4.72-.07,10.42-.18,16.08-.29,0-3.81,0-23.83.44-28.63-4.43.35-8.89.67-13,.94A33.71,33.71,0,0,0,1820.9,131.88Z" transform="translate(-526)"/><path class="cls-73" d="M1820.9,131.88a33.9,33.9,0,0,0,1.54,10.13c4.72-.07,10.42-.18,16.08-.29,0-3.81,0-23.83.44-28.63-4.43.35-8.89.67-13,.94A33.71,33.71,0,0,0,1820.9,131.88Z" transform="translate(-526)"/><path class="cls-74" d="M1820.9,131.88a33.9,33.9,0,0,0,1.54,10.13c4.72-.07,10.42-.18,16.08-.29,0-3.81,0-23.83.44-28.63-4.43.35-8.89.67-13,.94A33.71,33.71,0,0,0,1820.9,131.88Z" transform="translate(-526)"/><path class="cls-75" d="M1869,141.64c.19-.45-4.23-.48-4.23-.48s-9.15.21-19.88.43c-.84-3.89-4.64-21.75-4.75-24.16a32.87,32.87,0,0,0-.42-4.4c14-1.12,27.49-2.55,28.42-3.62s-19.69-1.38-37.48-1.32c-12.08,0-22.81.21-24.42.29-7.47.37-14,.27-19.33.12-5.82-.17-10.28-.39-13.06-.16-2.27-2-6.21-3.35-12.82-3.35s-10.55,1.38-12.82,3.35c-5.33-.45-16.8.81-32.38,0-.79,0-3.74-.1-8-.16-17.17-.22-55.34-.39-54,1.19.94,1.07,14.45,2.5,28.43,3.62a29.86,29.86,0,0,0-.42,4.4c-.11,2.41-3.92,20.27-4.75,24.16-10.74-.22-19.88-.43-19.88-.43s-4.42,0-4.24.48,7.93,2.29,9,2.47c.46.08,7.74.65,16.34,1.32,12.3.95,27.28,2.07,28.8,2.18s15.81,1.31,28,2.61c0,0,0,.05,0,.08.46.9,2.26,1,4.8.46,3.31.38,6.26.77,8.47,1.12l.34.32c-.86,2.36-1.78,4.63-1.78,4.63l-.58,1.3-3.53,7.93c-1.84.24-3.31,2.18-3.31,4.5a5,5,0,0,0,1.22,3.33,1.48,1.48,0,0,0,0,.21c0,2.81,1.22,5.08,2.72,5.08s2.72-2.27,2.72-5.08c0-.27,0-.53,0-.79a5.2,5.2,0,0,0,.77-2.75,4.76,4.76,0,0,0-2-4c.31-.56,1.14-2.05,1.85-3.09a35.53,35.53,0,0,1,3.6-4.3c1.35-1.43,2.69-2.72,3.63-3.59a19.83,19.83,0,0,0,13.91,0,56,56,0,0,1,7.23,7.89c.37.54.77,1.2,1.11,1.79s.59,1,.73,1.3a4.75,4.75,0,0,0-2,4,5.2,5.2,0,0,0,.77,2.75c0,.26,0,.52,0,.79,0,2.81,1.22,5.08,2.73,5.08s2.72-2.27,2.72-5.08c0-.07,0-.14,0-.21a5,5,0,0,0,1.21-3.33c0-2.32-1.46-4.26-3.31-4.5l-.09-.21-4-9s-.93-2.27-1.79-4.63l.35-.32c8.19-1.32,26.61-3,35.85-3.82l5.38-.45,9.59-.72c13.06-1,34.76-2.64,35.56-2.78C1861.06,143.93,1868.8,142.09,1869,141.64Zm-125.1-15.77c-2.38,3.5-3,9.71-1.65,15.34-6.16.16-27.76.72-31.7.88-2.22.08-14.71-.13-27-.37,0-.72,0-2,0-3.71,0-7.15-.11-21-.43-24.92,6.12.48,12.27.91,17.47,1.22,4.61.27,8.47.46,10.85.51,10.57.23,32.1,3.89,34.84,4.37a18.89,18.89,0,0,0,1,2.52C1745.83,123.19,1744.8,124.85,1743.88,125.87Zm94.64,15.85c-5.66.11-11.36.22-16.08.29-5.55.08-9.74.12-10.94.08l-2.41-.09c-7-.21-23.95-.65-29.3-.79a25.07,25.07,0,0,0,.34-10c4.62-3,7.45-6,6.72-7.39s-4.61-.89-9.56,1a32.76,32.76,0,0,0-2.52-3.09,17.41,17.41,0,0,0,1-2.52c1.77-.31,11.38-2,20.82-3.13,5.16-.65,10.28-1.16,14-1.24,3.12-.07,8.76-.36,15.34-.79,4.09-.27,8.55-.59,13-.94C1838.56,117.89,1838.53,137.91,1838.52,141.72Z" transform="translate(-526)"/><path class="cls-76" d="M1862.93,587s79.53-9.78,81.09-22.13-57.21-14.18-60.28-13S1821.69,579.92,1862.93,587Z" transform="translate(-526)"/><g class="cls-77"><path class="cls-78" d="M1865.4,431s28.26,22.61,43.54,0-5.35-87.62,22.91-82,7.13,99.24-12.22,107.41c-29.48,12.44-54.23-10.36-54.23-10.36Z" transform="translate(-526)"/><path class="cls-79" d="M1863.07,436.08s29.37,18.66,45.68,5.69c20.59-16.36,21.55-89,10.52-93.08" transform="translate(-526)"/><path class="cls-79" d="M1863.07,443.71s35,20.3,54.52,6.19c24.56-17.79,25.71-96.83,12.55-101.21" transform="translate(-526)"/></g><g class="cls-80"><path class="cls-78" d="M1859.67,279.51s16.15,15.09,24.88,0-3-58.46,13.1-54.69,4.07,66.22-7,71.67c-16.84,8.3-31-6.92-31-6.92Z" transform="translate(-526)"/><path class="cls-79" d="M1897.65,224.82s7.83,46.29-9.57,66.31c-12.21,14.05-30.69-6.37-30.69-6.37" transform="translate(-526)"/><path class="cls-79" d="M1891.49,224.82s6.64,42.62-8.1,61c-10.35,12.93-26-5.86-26-5.86" transform="translate(-526)"/></g><g class="cls-81"><path class="cls-78" d="M1858.2,382.59s-23.07,16.93-35.55,0S1827,317,1804,321.2s-5.83,74.32,10,80.44c24.08,9.32,44.28-7.76,44.28-7.76Z" transform="translate(-526)"/><path class="cls-79" d="M1798.34,320.94s-.36,62.93,14.8,74c17.55,12.81,40.79,0,40.79,0" transform="translate(-526)"/><path class="cls-79" d="M1810,317.74s-.27,61.49,11.06,71.86c13.11,12,30.48,0,30.48,0" transform="translate(-526)"/></g><g class="cls-82"><path class="cls-78" d="M1884.63,404.6c0,98.63-1.42,183.54-22.77,181.43-47.49-4.71-34.86-80-34.86-178.59s8.8-178.58,28-178.58S1884.63,306,1884.63,404.6Z" transform="translate(-526)"/><path class="cls-79" d="M1859.67,222.81s16.38,97.37,17.13,208.11c.59,87.75-15.3,159-15.3,159" transform="translate(-526)"/><path class="cls-79" d="M1850.54,222.81s-25.07,117-15,267.88c5.84,87.55,14.07,95.34,14.07,95.34" transform="translate(-526)"/><path class="cls-79" d="M1855.05,225s6.33,114.9,4.18,265.74c-1.25,87.55-3,95.34-3,95.34" transform="translate(-526)"/></g><g class="cls-83"><path class="cls-76" d="M1883.74,551.2c-.48.19-2.39,1-5.08,2.34-3.37,20.61-8.62,32.59-16.8,31.78a37.46,37.46,0,0,1-9.17-2.05,35.64,35.64,0,0,0,10.24,3s79.53-9.77,81.09-22.12S1886.81,550,1883.74,551.2Z" transform="translate(-526)"/><path class="cls-84" d="M1878.66,553.54c3.81-23.32,5.21-57.7,5.71-97.2,9.55,3.43,21.92,5,35.26-.61,19.35-8.17,41.13-107.1,12.75-102.09-24.19,4.27-8.17,54-23.44,76.65-6.78,10-16.12,11.16-24.41,9.31.08-11.61.1-23.55.1-35.71,0-40-1.7-76.45-5-105.66a23,23,0,0,0,11-2.45c11.06-5.45,22.51-61,11.12-64.52-15.82-4.95-8.5,32.46-17.23,47.54-1.93,3.34-4.22,5.2-6.62,6.07-5-35.05-11.39-50-21-46.49-13.52,5-28.68,58.92-29.83,147.93a19.32,19.32,0,0,1-4.48-4.43c-12.47-16.94,3.21-61.73-16.92-56.7-19.92,5-7.61,69.63,8.19,75.75a40.81,40.81,0,0,0,13.08,2.74v3.06c0,91.68-10.91,163.14,25.69,176.54a37.46,37.46,0,0,0,9.17,2.05C1870,586.13,1875.29,574.15,1878.66,553.54Z" transform="translate(-526)"/></g></g></g></svg>