<svg id="cropped" xmlns="http://www.w3.org/2000/svg" xmlns:xlink="http://www.w3.org/1999/xlink" viewBox="0 0 2000 1001"><defs><style>.cls-1{fill:none;}.cls-2{fill:url(#linear-gradient);}.cls-3{fill:url(#linear-gradient-2);}.cls-4{fill:url(#linear-gradient-4);}.cls-5{fill:url(#linear-gradient-5);}.cls-6{fill:url(#linear-gradient-6);}.cls-7{fill:url(#linear-gradient-7);}.cls-8{fill:url(#linear-gradient-8);}.cls-9{fill:url(#linear-gradient-9);}.cls-10{fill:url(#linear-gradient-10);}.cls-11{fill:url(#linear-gradient-11);}.cls-12{fill:url(#linear-gradient-12);}.cls-13{fill:url(#linear-gradient-13);}.cls-14{fill:url(#linear-gradient-14);}.cls-15{fill:url(#linear-gradient-15);}.cls-16{fill:url(#linear-gradient-16);}.cls-17{fill:url(#linear-gradient-17);}.cls-18{fill:url(#linear-gradient-18);}.cls-19{fill:url(#linear-gradient-19);}.cls-20{fill:url(#linear-gradient-20);}.cls-21{fill:url(#linear-gradient-21);}.cls-22{fill:url(#linear-gradient-22);}.cls-23{fill:url(#linear-gradient-23);}.cls-24{fill:url(#linear-gradient-25);}.cls-25{fill:url(#linear-gradient-26);}.cls-26{fill:url(#linear-gradient-27);}.cls-27{fill:url(#linear-gradient-29);}.cls-28{fill:url(#linear-gradient-30);}.cls-29{fill:url(#linear-gradient-31);}.cls-30{fill:url(#linear-gradient-32);}.cls-31{fill:url(#linear-gradient-33);}.cls-32{fill:url(#linear-gradient-34);}.cls-33{fill:url(#linear-gradient-35);}.cls-34{fill:url(#linear-gradient-36);}.cls-35{fill:url(#linear-gradient-37);}.cls-36{fill:url(#linear-gradient-38);}.cls-37{fill:url(#linear-gradient-39);}.cls-38{fill:url(#linear-gradient-40);}.cls-39{fill:url(#linear-gradient-41);}.cls-40{fill:url(#linear-gradient-42);}.cls-41{fill:url(#linear-gradient-43);}.cls-42{fill:url(#linear-gradient-44);}.cls-43{fill:url(#linear-gradient-45);}.cls-44{fill:url(#linear-gradient-46);}.cls-45{fill:url(#linear-gradient-47);}.cls-46{fill:url(#linear-gradient-48);}.cls-47{fill:url(#linear-gradient-49);}.cls-48{fill:url(#linear-gradient-50);}.cls-49{fill:url(#linear-gradient-51);}.cls-50{fill:url(#linear-gradient-52);}.cls-51{fill:url(#linear-gradient-53);}.cls-52{fill:url(#linear-gradient-54);}.cls-53{fill:url(#linear-gradient-55);}.cls-54{fill:url(#linear-gradient-56);}.cls-55{fill:url(#linear-gradient-57);}.cls-56{fill:url(#linear-gradient-58);}.cls-57{fill:url(#linear-gradient-59);}.cls-58{fill:url(#linear-gradient-60);}.cls-59{fill:url(#linear-gradient-61);}.cls-60{fill:url(#linear-gradient-62);}.cls-61{fill:url(#linear-gradient-64);}.cls-62{fill:url(#linear-gradient-65);}.cls-63{fill:url(#linear-gradient-66);}.cls-64{fill:url(#linear-gradient-67);}.cls-65{fill:url(#linear-gradient-68);}.cls-66{fill:url(#linear-gradient-69);}.cls-67{fill:url(#linear-gradient-70);}.cls-68{fill:url(#linear-gradient-71);}.cls-69{fill:url(#linear-gradient-72);}.cls-70{fill:url(#linear-gradient-73);}.cls-71{fill:url(#linear-gradient-74);}.cls-72{fill:url(#linear-gradient-75);}.cls-73{fill:url(#linear-gradient-76);}.cls-74{fill:url(#linear-gradient-77);}.cls-75{fill:url(#linear-gradient-78);}.cls-76{fill:url(#linear-gradient-79);}.cls-77{fill:url(#linear-gradient-80);}.cls-78{fill:url(#linear-gradient-81);}.cls-79{fill:url(#linear-gradient-82);}.cls-80{fill:url(#linear-gradient-83);}.cls-81{fill:url(#linear-gradient-84);}.cls-82{fill:url(#linear-gradient-85);}.cls-83{fill:url(#linear-gradient-86);}.cls-84{fill:url(#linear-gradient-87);}.cls-85{fill:url(#linear-gradient-88);}.cls-86{fill:url(#linear-gradient-89);}.cls-87{fill:url(#linear-gradient-90);}.cls-88{fill:url(#linear-gradient-91);}.cls-89{fill:url(#linear-gradient-92);}.cls-90{fill:url(#linear-gradient-93);}.cls-91{fill:url(#linear-gradient-94);}.cls-92{fill:url(#linear-gradient-96);}.cls-93{fill:url(#linear-gradient-97);}.cls-94{fill:url(#linear-gradient-98);}.cls-95{fill:url(#linear-gradient-99);}.cls-96{fill:url(#linear-gradient-100);}.cls-97{fill:url(#linear-gradient-101);}.cls-98{fill:url(#linear-gradient-102);}.cls-99{fill:url(#linear-gradient-103);}.cls-100{fill:url(#linear-gradient-104);}.cls-101{fill:url(#linear-gradient-105);}.cls-102{fill:url(#linear-gradient-106);}.cls-103{fill:url(#linear-gradient-107);}.cls-104{fill:url(#linear-gradient-108);}.cls-105{fill:url(#linear-gradient-109);}.cls-106{fill:url(#linear-gradient-110);}.cls-107{fill:url(#linear-gradient-111);}.cls-108{fill:url(#linear-gradient-112);}.cls-109{fill:url(#linear-gradient-113);}.cls-110{fill:url(#linear-gradient-114);}.cls-111{fill:url(#linear-gradient-115);}.cls-112{fill:url(#linear-gradient-116);}.cls-113{fill:url(#linear-gradient-117);}.cls-114{fill:url(#linear-gradient-118);}.cls-115{fill:url(#linear-gradient-119);}.cls-116{fill:url(#linear-gradient-120);}.cls-117{fill:url(#linear-gradient-121);}.cls-118{fill:url(#linear-gradient-122);}.cls-119{fill:url(#linear-gradient-123);}.cls-120{fill:url(#linear-gradient-124);}.cls-121{fill:url(#linear-gradient-125);}.cls-122{fill:url(#linear-gradient-126);}.cls-123{fill:url(#linear-gradient-127);}.cls-124{fill:url(#linear-gradient-129);}.cls-125{fill:url(#linear-gradient-130);}.cls-126{fill:url(#linear-gradient-132);}.cls-127{fill:url(#linear-gradient-133);}.cls-128{fill:url(#linear-gradient-134);}.cls-129{fill:url(#linear-gradient-135);}.cls-130{fill:url(#linear-gradient-136);}.cls-131{fill:url(#linear-gradient-137);}.cls-132{fill:url(#linear-gradient-138);}.cls-133{fill:url(#linear-gradient-139);}.cls-134{fill:url(#linear-gradient-140);}.cls-135{fill:url(#linear-gradient-141);}.cls-136{fill:url(#linear-gradient-142);}.cls-137{fill:url(#linear-gradient-143);}.cls-138{fill:url(#linear-gradient-144);}.cls-139{fill:url(#linear-gradient-145);}.cls-140{fill:url(#linear-gradient-146);}.cls-141{fill:url(#linear-gradient-147);}.cls-142{fill:url(#linear-gradient-148);}.cls-143{fill:url(#linear-gradient-149);}.cls-144{fill:url(#linear-gradient-150);}.cls-145{fill:url(#linear-gradient-151);}.cls-146{fill:url(#linear-gradient-152);}.cls-147{fill:url(#linear-gradient-153);}.cls-148{fill:url(#linear-gradient-154);}.cls-149{fill:url(#linear-gradient-155);}.cls-150{fill:url(#linear-gradient-156);}.cls-151{fill:url(#linear-gradient-157);}.cls-152{fill:url(#linear-gradient-158);}.cls-153{fill:url(#linear-gradient-159);}.cls-154{fill:url(#linear-gradient-160);}.cls-155{fill:url(#linear-gradient-161);}.cls-156{fill:url(#linear-gradient-162);}.cls-157{fill:url(#linear-gradient-163);}.cls-158{fill:url(#linear-gradient-164);}.cls-159{fill:url(#linear-gradient-165);}.cls-160{fill:url(#linear-gradient-166);}.cls-161{fill:url(#linear-gradient-167);}.cls-162{fill:url(#linear-gradient-168);}.cls-163{fill:url(#linear-gradient-169);}.cls-164{fill:url(#linear-gradient-170);}.cls-165{fill:url(#linear-gradient-171);}.cls-166{fill:url(#linear-gradient-172);}.cls-167{fill:url(#linear-gradient-173);}.cls-168{fill:url(#linear-gradient-174);}.cls-169{fill:url(#linear-gradient-175);}.cls-170{fill:url(#linear-gradient-176);}.cls-171{fill:url(#linear-gradient-177);}.cls-172{fill:url(#linear-gradient-178);}.cls-173{fill:url(#linear-gradient-179);}.cls-174{fill:url(#linear-gradient-180);}.cls-175{fill:url(#linear-gradient-181);}.cls-176{fill:url(#linear-gradient-182);}.cls-177{fill:url(#linear-gradient-183);}.cls-178{fill:url(#linear-gradient-185);}.cls-179{fill:url(#linear-gradient-186);}.cls-180{fill:url(#linear-gradient-187);}.cls-181{fill:url(#linear-gradient-188);}.cls-182{fill:url(#linear-gradient-189);}.cls-183{fill:url(#linear-gradient-190);}.cls-184{fill:url(#linear-gradient-191);}.cls-185{fill:url(#linear-gradient-192);}.cls-186{fill:url(#linear-gradient-193);}.cls-187{fill:url(#linear-gradient-194);}.cls-188{fill:url(#linear-gradient-195);}.cls-189{fill:url(#linear-gradient-196);}.cls-190{fill:url(#linear-gradient-197);}.cls-191{fill:url(#linear-gradient-198);}.cls-192{fill:url(#linear-gradient-199);}.cls-193{fill:#5e6066;}.cls-194{fill:url(#linear-gradient-200);}.cls-195{fill:url(#linear-gradient-201);}.cls-196{fill:url(#linear-gradient-202);}.cls-197{fill:url(#linear-gradient-203);}.cls-198{fill:url(#linear-gradient-204);}.cls-199{fill:url(#linear-gradient-205);}.cls-200{fill:url(#linear-gradient-206);}.cls-201{fill:url(#linear-gradient-207);}.cls-202{fill:url(#linear-gradient-208);}.cls-203{fill:url(#linear-gradient-209);}.cls-204{fill:url(#linear-gradient-210);}.cls-205{fill:url(#linear-gradient-211);}.cls-206{fill:url(#linear-gradient-212);}.cls-207{fill:url(#linear-gradient-213);}.cls-208{fill:url(#linear-gradient-214);}.cls-209{fill:url(#linear-gradient-215);}.cls-210{fill:url(#linear-gradient-216);}.cls-211{fill:url(#linear-gradient-217);}.cls-212{fill:url(#linear-gradient-218);}.cls-213{fill:url(#linear-gradient-219);}.cls-214{fill:url(#linear-gradient-220);}.cls-215{fill:url(#linear-gradient-221);}.cls-216{fill:url(#linear-gradient-222);}.cls-217{fill:url(#linear-gradient-223);}.cls-218{fill:url(#linear-gradient-224);}.cls-219{fill:url(#linear-gradient-225);}.cls-220{fill:url(#linear-gradient-226);}.cls-221{fill:url(#linear-gradient-227);}.cls-222{fill:url(#linear-gradient-228);}</style><linearGradient id="linear-gradient" y1="841.84" x2="2000.04" y2="841.84" gradientUnits="userSpaceOnUse"><stop offset="0" stop-color="#0edd4d" stop-opacity="0.05"/><stop offset="1" stop-color="#fff"/></linearGradient><linearGradient id="linear-gradient-2" y1="841.84" x2="2000" y2="841.84" gradientUnits="userSpaceOnUse"><stop offset="0" stop-color="#152aea" stop-opacity="0.5"/><stop offset="1" stop-color="#fff"/></linearGradient><linearGradient id="linear-gradient-4" y1="841.84" x2="2000" y2="841.84" xlink:href="#linear-gradient"/><linearGradient id="linear-gradient-5" y1="289.71" x2="1774.16" y2="289.71" gradientUnits="userSpaceOnUse"><stop offset="0" stop-color="#ecef89" stop-opacity="0.05"/><stop offset="1" stop-color="#fff"/></linearGradient><linearGradient id="linear-gradient-6" x1="175.31" y1="754.74" x2="1352.11" y2="-422.05" gradientUnits="userSpaceOnUse"><stop offset="0" stop-color="#125bdd" stop-opacity="0.05"/><stop offset="1" stop-color="#fff"/></linearGradient><linearGradient id="linear-gradient-7" y1="29.98" x2="1774.16" y2="29.98" xlink:href="#linear-gradient-5"/><linearGradient id="linear-gradient-8" x1="59.43" y1="638.86" x2="1236.22" y2="-537.94" xlink:href="#linear-gradient-6"/><linearGradient id="linear-gradient-9" y1="32.52" x2="1774.16" y2="32.52" xlink:href="#linear-gradient-5"/><linearGradient id="linear-gradient-10" x1="260.47" y1="839.9" x2="1437.26" y2="-336.9" xlink:href="#linear-gradient-6"/><linearGradient id="linear-gradient-11" y1="0.43" x2="1774.16" y2="0.43" xlink:href="#linear-gradient-5"/><linearGradient id="linear-gradient-12" x1="-272.23" y1="307.19" x2="904.56" y2="-869.6" xlink:href="#linear-gradient-6"/><linearGradient id="linear-gradient-13" y1="308.35" x2="1774.16" y2="308.35" xlink:href="#linear-gradient-5"/><linearGradient id="linear-gradient-14" x1="-4.67" y1="574.75" x2="1172.12" y2="-602.04" xlink:href="#linear-gradient-6"/><linearGradient id="linear-gradient-15" x1="1154.32" y1="533.84" x2="2000" y2="533.84" gradientUnits="userSpaceOnUse"><stop offset="0" stop-color="#98f4e3" stop-opacity="0.25"/><stop offset="1" stop-color="#fff" stop-opacity="0.05"/></linearGradient><linearGradient id="linear-gradient-16" x1="1154.32" y1="148.23" y2="148.23" xlink:href="#linear-gradient-15"/><linearGradient id="linear-gradient-17" x1="-0.04" y1="51.07" x2="2000" y2="51.07" xlink:href="#linear-gradient"/><linearGradient id="linear-gradient-18" x1="1154.32" y1="51.07" y2="51.07" xlink:href="#linear-gradient-15"/><linearGradient id="linear-gradient-19" x1="-0.04" y1="533.84" x2="2000" y2="533.84" xlink:href="#linear-gradient"/><linearGradient id="linear-gradient-20" x1="1154.32" y1="533.84" y2="533.84" xlink:href="#linear-gradient-15"/><linearGradient id="linear-gradient-21" x1="-0.04" y1="247.73" x2="2000" y2="247.73" xlink:href="#linear-gradient"/><linearGradient id="linear-gradient-22" x1="1154.32" y1="247.73" y2="247.73" xlink:href="#linear-gradient-15"/><linearGradient id="linear-gradient-23" y1="598.5" y2="598.5" xlink:href="#linear-gradient-2"/><linearGradient id="linear-gradient-25" x1="-0.04" y1="598.5" x2="2000" y2="598.5" xlink:href="#linear-gradient"/><linearGradient id="linear-gradient-26" x1="1154.32" y1="598.5" y2="598.5" xlink:href="#linear-gradient-15"/><linearGradient id="linear-gradient-27" y1="52.39" y2="52.39" xlink:href="#linear-gradient-2"/><linearGradient id="linear-gradient-29" x1="-0.04" y1="52.39" x2="2000" y2="52.39" xlink:href="#linear-gradient"/><linearGradient id="linear-gradient-30" x1="1154.32" y1="52.39" y2="52.39" xlink:href="#linear-gradient-15"/><linearGradient id="linear-gradient-31" y1="274.97" x2="1774.16" y2="274.97" xlink:href="#linear-gradient-5"/><linearGradient id="linear-gradient-32" x1="587.51" y1="1166.94" x2="1764.3" y2="-9.85" xlink:href="#linear-gradient-6"/><linearGradient id="linear-gradient-33" x1="1154.32" y1="274.97" y2="274.97" xlink:href="#linear-gradient-15"/><linearGradient id="linear-gradient-34" y1="190.79" x2="1774.16" y2="190.79" xlink:href="#linear-gradient-5"/><linearGradient id="linear-gradient-35" x1="394" y1="973.43" x2="1570.79" y2="-203.36" xlink:href="#linear-gradient-6"/><linearGradient id="linear-gradient-36" x1="1154.32" y1="190.79" y2="190.79" xlink:href="#linear-gradient-15"/><linearGradient id="linear-gradient-37" y1="61.79" x2="1774.16" y2="61.79" xlink:href="#linear-gradient-5"/><linearGradient id="linear-gradient-38" x1="441.12" y1="1020.55" x2="1617.91" y2="-156.25" xlink:href="#linear-gradient-6"/><linearGradient id="linear-gradient-39" x1="1154.32" y1="61.79" y2="61.79" xlink:href="#linear-gradient-15"/><linearGradient id="linear-gradient-40" y1="279.42" x2="1774.16" y2="279.42" xlink:href="#linear-gradient-5"/><linearGradient id="linear-gradient-41" x1="-125.44" y1="453.98" x2="1051.35" y2="-722.81" xlink:href="#linear-gradient-6"/><linearGradient id="linear-gradient-42" x1="-117.56" y1="279.42" x2="244.55" y2="279.42" gradientUnits="userSpaceOnUse"><stop offset="0" stop-color="#1d35dd" stop-opacity="0.5"/><stop offset="1" stop-color="#fff" stop-opacity="0"/></linearGradient><linearGradient id="linear-gradient-43" y1="89.2" x2="1774.16" y2="89.2" xlink:href="#linear-gradient-5"/><linearGradient id="linear-gradient-44" x1="295.28" y1="874.71" x2="1472.07" y2="-302.08" xlink:href="#linear-gradient-6"/><linearGradient id="linear-gradient-45" x1="3124.93" y1="21.38" x2="3298.91" y2="195.36" gradientTransform="matrix(-1, 0, 0, 1, 4273.54, 0)" xlink:href="#linear-gradient-42"/><linearGradient id="linear-gradient-46" y1="111.52" x2="1774.16" y2="111.52" xlink:href="#linear-gradient-5"/><linearGradient id="linear-gradient-47" x1="364.17" y1="943.6" x2="1540.96" y2="-233.19" xlink:href="#linear-gradient-6"/><linearGradient id="linear-gradient-48" x1="1154.32" y1="111.52" y2="111.52" xlink:href="#linear-gradient-15"/><linearGradient id="linear-gradient-49" x1="3056.04" y1="90.27" x2="3230.02" y2="264.25" gradientTransform="matrix(-1, 0, 0, 1, 4273.54, 0)" xlink:href="#linear-gradient-42"/><linearGradient id="linear-gradient-50" y1="206.06" x2="1774.16" y2="206.06" xlink:href="#linear-gradient-5"/><linearGradient id="linear-gradient-51" x1="261.73" y1="841.16" x2="1438.53" y2="-335.63" xlink:href="#linear-gradient-6"/><linearGradient id="linear-gradient-52" x1="747.71" y1="165.21" x2="986.37" y2="303" xlink:href="#linear-gradient-42"/><linearGradient id="linear-gradient-53" x1="1154.32" y1="399.5" y2="399.5" xlink:href="#linear-gradient-15"/><linearGradient id="linear-gradient-54" x1="1495.43" y1="276.75" x2="1734.09" y2="414.54" gradientUnits="userSpaceOnUse"><stop offset="0" stop-color="#1d35dd" stop-opacity="0.15"/><stop offset="1" stop-color="#fff" stop-opacity="0"/></linearGradient><linearGradient id="linear-gradient-55" y1="347.06" x2="1774.16" y2="347.06" xlink:href="#linear-gradient-5"/><linearGradient id="linear-gradient-56" x1="682.71" y1="1262.14" x2="1859.51" y2="85.35" xlink:href="#linear-gradient-6"/><linearGradient id="linear-gradient-57" x1="1154.32" y1="347.06" y2="347.06" xlink:href="#linear-gradient-15"/><linearGradient id="linear-gradient-58" x1="1475.67" y1="310.98" x2="1714.32" y2="448.77" xlink:href="#linear-gradient-54"/><linearGradient id="linear-gradient-59" y1="137.58" x2="1774.16" y2="137.58" xlink:href="#linear-gradient-5"/><linearGradient id="linear-gradient-60" x1="-43.8" y1="535.63" x2="1133" y2="-641.16" xlink:href="#linear-gradient-6"/><linearGradient id="linear-gradient-61" x1="209.44" y1="92.43" x2="448.09" y2="230.22" xlink:href="#linear-gradient-54"/><linearGradient id="linear-gradient-62" y1="581.06" y2="581.06" xlink:href="#linear-gradient-2"/><linearGradient id="linear-gradient-64" x1="-0.04" y1="581.06" x2="2000" y2="581.06" xlink:href="#linear-gradient"/><linearGradient id="linear-gradient-65" x1="1154.32" y1="581.06" y2="581.06" xlink:href="#linear-gradient-15"/><linearGradient id="linear-gradient-66" x1="1843.7" y1="549.43" x2="2082.36" y2="687.22" xlink:href="#linear-gradient-54"/><linearGradient id="linear-gradient-67" y1="249.26" x2="1774.16" y2="249.26" xlink:href="#linear-gradient-5"/><linearGradient id="linear-gradient-68" x1="413.56" y1="992.99" x2="1590.35" y2="-183.8" xlink:href="#linear-gradient-6"/><linearGradient id="linear-gradient-69" x1="1145.64" y1="241.97" x2="1384.29" y2="379.76" xlink:href="#linear-gradient-54"/><linearGradient id="linear-gradient-70" y1="230.03" x2="1774.16" y2="230.03" xlink:href="#linear-gradient-5"/><linearGradient id="linear-gradient-71" x1="485.88" y1="1065.3" x2="1662.67" y2="-111.49" xlink:href="#linear-gradient-6"/><linearGradient id="linear-gradient-72" x1="1154.32" y1="230.03" y2="230.03" xlink:href="#linear-gradient-15"/><linearGradient id="linear-gradient-73" x1="1183.03" y1="177.21" x2="1421.68" y2="315" xlink:href="#linear-gradient-54"/><linearGradient id="linear-gradient-74" x1="756.99" y1="-54.09" x2="995.64" y2="83.69" xlink:href="#linear-gradient-54"/><linearGradient id="linear-gradient-75" y1="44.5" x2="1774.16" y2="44.5" xlink:href="#linear-gradient-5"/><linearGradient id="linear-gradient-76" x1="157.42" y1="736.84" x2="1334.21" y2="-439.95" xlink:href="#linear-gradient-6"/><linearGradient id="linear-gradient-77" x1="737.8" y1="-20.87" x2="976.46" y2="116.92" xlink:href="#linear-gradient-54"/><linearGradient id="linear-gradient-78" y1="62.71" x2="1774.16" y2="62.71" xlink:href="#linear-gradient-5"/><linearGradient id="linear-gradient-79" x1="231.67" y1="811.1" x2="1408.46" y2="-365.69" xlink:href="#linear-gradient-6"/><linearGradient id="linear-gradient-80" x1="3188.54" y1="-42.23" x2="3362.52" y2="131.75" gradientTransform="matrix(-1, 0, 0, 1, 4273.54, 0)" xlink:href="#linear-gradient-42"/><linearGradient id="linear-gradient-81" x1="758.39" y1="-56.53" x2="997.05" y2="81.26" xlink:href="#linear-gradient-54"/><linearGradient id="linear-gradient-82" y1="122.06" x2="1774.16" y2="122.06" xlink:href="#linear-gradient-5"/><linearGradient id="linear-gradient-83" x1="553.3" y1="1132.72" x2="1730.09" y2="-44.07" xlink:href="#linear-gradient-6"/><linearGradient id="linear-gradient-84" x1="1154.32" y1="122.06" y2="122.06" xlink:href="#linear-gradient-15"/><linearGradient id="linear-gradient-85" x1="1411.03" y1="81.21" x2="1649.68" y2="219" gradientUnits="userSpaceOnUse"><stop offset="0" stop-color="#1d35dd" stop-opacity="0.15"/><stop offset="0.04" stop-color="#263dde" stop-opacity="0.05"/><stop offset="1" stop-color="#fff" stop-opacity="0"/></linearGradient><linearGradient id="linear-gradient-86" x1="124.83" y1="479.74" x2="363.48" y2="617.53" xlink:href="#linear-gradient-85"/><linearGradient id="linear-gradient-87" y1="506.24" x2="1774.16" y2="506.24" xlink:href="#linear-gradient-5"/><linearGradient id="linear-gradient-88" x1="102.52" y1="681.95" x2="1279.31" y2="-494.84" xlink:href="#linear-gradient-6"/><linearGradient id="linear-gradient-89" x1="131.51" y1="468.17" x2="370.17" y2="605.95" xlink:href="#linear-gradient-85"/><linearGradient id="linear-gradient-90" x1="1708.17" y1="-73.59" x2="1860.09" y2="78.33" gradientUnits="userSpaceOnUse"><stop offset="0" stop-color="#1d35dd" stop-opacity="0.25"/><stop offset="1" stop-color="#fff" stop-opacity="0"/></linearGradient><linearGradient id="linear-gradient-91" x1="1154.32" y1="47.52" y2="47.52" xlink:href="#linear-gradient-15"/><linearGradient id="linear-gradient-92" x1="1690.72" y1="-56.13" x2="1842.63" y2="95.78" xlink:href="#linear-gradient-90"/><linearGradient id="linear-gradient-93" y1="47.52" x2="1774.16" y2="47.52" xlink:href="#linear-gradient-5"/><linearGradient id="linear-gradient-94" x1="581.53" y1="1160.96" x2="1758.33" y2="-15.83" xlink:href="#linear-gradient-6"/><linearGradient id="linear-gradient-96" x1="1635.38" y1="-0.8" x2="1787.3" y2="151.12" xlink:href="#linear-gradient-90"/><linearGradient id="linear-gradient-97" y1="90.8" x2="1774.16" y2="90.8" xlink:href="#linear-gradient-5"/><linearGradient id="linear-gradient-98" x1="557.51" y1="1136.94" x2="1734.3" y2="-39.86" xlink:href="#linear-gradient-6"/><linearGradient id="linear-gradient-99" x1="1154.32" y1="90.8" y2="90.8" xlink:href="#linear-gradient-15"/><linearGradient id="linear-gradient-100" x1="1454.62" y1="5.7" x2="1693.28" y2="143.49" xlink:href="#linear-gradient-85"/><linearGradient id="linear-gradient-101" x1="1573.41" y1="61.17" x2="1725.33" y2="213.08" xlink:href="#linear-gradient-90"/><linearGradient id="linear-gradient-102" y1="412.11" x2="1774.16" y2="412.11" xlink:href="#linear-gradient-5"/><linearGradient id="linear-gradient-103" x1="405.9" y1="985.32" x2="1582.69" y2="-191.47" xlink:href="#linear-gradient-6"/><linearGradient id="linear-gradient-104" x1="876.74" y1="362.56" x2="1028.66" y2="514.48" xlink:href="#linear-gradient-90"/><linearGradient id="linear-gradient-105" x1="602.24" y1="-34.67" x2="743.74" y2="106.83" xlink:href="#linear-gradient-42"/><linearGradient id="linear-gradient-106" y1="57.32" x2="1774.16" y2="57.32" xlink:href="#linear-gradient-5"/><linearGradient id="linear-gradient-107" x1="64.82" y1="644.25" x2="1241.62" y2="-532.54" xlink:href="#linear-gradient-6"/><linearGradient id="linear-gradient-108" x1="546.25" y1="21.33" x2="687.75" y2="162.83" xlink:href="#linear-gradient-42"/><linearGradient id="linear-gradient-109" y1="74.48" x2="1774.16" y2="74.48" xlink:href="#linear-gradient-5"/><linearGradient id="linear-gradient-110" x1="109.68" y1="689.1" x2="1286.47" y2="-487.69" xlink:href="#linear-gradient-6"/><linearGradient id="linear-gradient-111" x1="692.76" y1="57.15" x2="931.42" y2="194.94" xlink:href="#linear-gradient-54"/><linearGradient id="linear-gradient-112" x1="608.53" y1="-40.96" x2="750.04" y2="100.54" xlink:href="#linear-gradient-42"/><linearGradient id="linear-gradient-113" y1="335.97" x2="1774.16" y2="335.97" xlink:href="#linear-gradient-5"/><linearGradient id="linear-gradient-114" x1="-26.22" y1="553.21" x2="1150.58" y2="-623.58" xlink:href="#linear-gradient-6"/><linearGradient id="linear-gradient-115" x1="109.35" y1="280.4" x2="250.85" y2="421.9" xlink:href="#linear-gradient-42"/><linearGradient id="linear-gradient-116" y1="305.92" x2="1774.16" y2="305.92" xlink:href="#linear-gradient-5"/><linearGradient id="linear-gradient-117" x1="-52.66" y1="526.77" x2="1124.14" y2="-650.02" xlink:href="#linear-gradient-6"/><linearGradient id="linear-gradient-118" x1="-117.56" y1="305.92" x2="244.55" y2="305.92" xlink:href="#linear-gradient-42"/><linearGradient id="linear-gradient-119" x1="109.23" y1="280.53" x2="250.73" y2="422.03" xlink:href="#linear-gradient-42"/><linearGradient id="linear-gradient-120" x1="-1.66" y1="-18.6" x2="153.91" y2="136.96" xlink:href="#linear-gradient-54"/><linearGradient id="linear-gradient-121" x1="30.58" y1="-50.85" x2="186.15" y2="104.72" xlink:href="#linear-gradient-54"/><linearGradient id="linear-gradient-122" y1="39.83" x2="1774.16" y2="39.83" xlink:href="#linear-gradient-5"/><linearGradient id="linear-gradient-123" x1="-217" y1="362.43" x2="959.8" y2="-814.36" xlink:href="#linear-gradient-6"/><linearGradient id="linear-gradient-124" x1="16.44" y1="-36.71" x2="172.01" y2="118.86" xlink:href="#linear-gradient-54"/><linearGradient id="linear-gradient-125" x1="1154.32" y1="148.57" y2="148.57" xlink:href="#linear-gradient-15"/><linearGradient id="linear-gradient-126" x1="1873.55" y1="197.3" x2="1992.84" y2="78.01" xlink:href="#linear-gradient-42"/><linearGradient id="linear-gradient-127" x1="-0.04" y1="149.57" x2="2000" y2="149.57" xlink:href="#linear-gradient"/><linearGradient id="linear-gradient-129" x1="1887.2" y1="211.95" x2="2006.49" y2="92.66" xlink:href="#linear-gradient-42"/><linearGradient id="linear-gradient-130" y1="147.9" y2="147.9" xlink:href="#linear-gradient-2"/><linearGradient id="linear-gradient-132" x1="-0.04" y1="147.9" x2="2000" y2="147.9" xlink:href="#linear-gradient"/><linearGradient id="linear-gradient-133" x1="1154.32" y1="147.9" y2="147.9" xlink:href="#linear-gradient-15"/><linearGradient id="linear-gradient-134" x1="1903.91" y1="227.66" x2="2023.2" y2="108.37" xlink:href="#linear-gradient-42"/><linearGradient id="linear-gradient-135" y1="44.29" x2="1774.16" y2="44.29" xlink:href="#linear-gradient-5"/><linearGradient id="linear-gradient-136" x1="-96.64" y1="482.79" x2="1080.16" y2="-694" xlink:href="#linear-gradient-6"/><linearGradient id="linear-gradient-137" x1="290.13" y1="96.02" x2="366.65" y2="19.5" xlink:href="#linear-gradient-42"/><linearGradient id="linear-gradient-138" y1="73.41" x2="1774.16" y2="73.41" xlink:href="#linear-gradient-5"/><linearGradient id="linear-gradient-139" x1="-96.88" y1="482.54" x2="1079.91" y2="-694.25" xlink:href="#linear-gradient-6"/><linearGradient id="linear-gradient-140" x1="240.52" y1="38.6" x2="479.17" y2="176.39" xlink:href="#linear-gradient-54"/><linearGradient id="linear-gradient-141" x1="289.88" y1="95.78" x2="366.4" y2="19.26" xlink:href="#linear-gradient-42"/><linearGradient id="linear-gradient-142" y1="123.93" x2="1774.16" y2="123.93" xlink:href="#linear-gradient-5"/><linearGradient id="linear-gradient-143" x1="439.32" y1="1018.74" x2="1616.11" y2="-158.05" xlink:href="#linear-gradient-6"/><linearGradient id="linear-gradient-144" x1="1154.32" y1="123.93" y2="123.93" xlink:href="#linear-gradient-15"/><linearGradient id="linear-gradient-145" x1="2882.52" y1="201.99" x2="2997.96" y2="86.54" gradientTransform="matrix(-1, 0, 0, 1, 4262.97, 0)" xlink:href="#linear-gradient-42"/><linearGradient id="linear-gradient-146" y1="139.27" x2="1774.16" y2="139.27" xlink:href="#linear-gradient-5"/><linearGradient id="linear-gradient-147" x1="390.31" y1="969.74" x2="1567.1" y2="-207.06" xlink:href="#linear-gradient-6"/><linearGradient id="linear-gradient-148" x1="1154.32" y1="139.27" y2="139.27" xlink:href="#linear-gradient-15"/><linearGradient id="linear-gradient-149" x1="3029.9" y1="116.41" x2="3203.88" y2="290.39" gradientTransform="matrix(-1, 0, 0, 1, 4273.54, 0)" xlink:href="#linear-gradient-42"/><linearGradient id="linear-gradient-150" x1="2929.92" y1="249.39" x2="3045.36" y2="133.94" gradientTransform="matrix(-1, 0, 0, 1, 4262.97, 0)" xlink:href="#linear-gradient-42"/><linearGradient id="linear-gradient-151" y1="164.56" x2="1774.16" y2="164.56" xlink:href="#linear-gradient-5"/><linearGradient id="linear-gradient-152" x1="438.03" y1="1017.46" x2="1614.82" y2="-159.34" xlink:href="#linear-gradient-6"/><linearGradient id="linear-gradient-153" x1="1154.32" y1="164.56" y2="164.56" xlink:href="#linear-gradient-15"/><linearGradient id="linear-gradient-154" x1="1208.5" y1="133.09" x2="1447.15" y2="270.88" xlink:href="#linear-gradient-54"/><linearGradient id="linear-gradient-155" x1="2920.29" y1="239.76" x2="3035.74" y2="124.32" gradientTransform="matrix(-1, 0, 0, 1, 4262.97, 0)" xlink:href="#linear-gradient-42"/><linearGradient id="linear-gradient-156" y1="141.81" x2="1774.16" y2="141.81" xlink:href="#linear-gradient-5"/><linearGradient id="linear-gradient-157" x1="484.38" y1="1063.81" x2="1661.17" y2="-112.99" xlink:href="#linear-gradient-6"/><linearGradient id="linear-gradient-158" x1="1154.32" y1="141.81" y2="141.81" xlink:href="#linear-gradient-15"/><linearGradient id="linear-gradient-159" x1="1381.78" y1="131.87" x2="1620.43" y2="269.66" xlink:href="#linear-gradient-85"/><linearGradient id="linear-gradient-160" x1="2843.16" y1="162.63" x2="2958.61" y2="47.19" gradientTransform="matrix(-1, 0, 0, 1, 4262.97, 0)" xlink:href="#linear-gradient-42"/><linearGradient id="linear-gradient-161" y1="226.68" x2="1774.16" y2="226.68" xlink:href="#linear-gradient-5"/><linearGradient id="linear-gradient-162" x1="2.67" y1="582.09" x2="1179.46" y2="-594.7" xlink:href="#linear-gradient-6"/><linearGradient id="linear-gradient-163" x1="265.55" y1="319.21" x2="441.64" y2="143.12" xlink:href="#linear-gradient-90"/><linearGradient id="linear-gradient-164" y1="298.63" x2="1774.16" y2="298.63" xlink:href="#linear-gradient-5"/><linearGradient id="linear-gradient-165" x1="-6.5" y1="572.93" x2="1170.29" y2="-603.86" xlink:href="#linear-gradient-6"/><linearGradient id="linear-gradient-166" x1="256.39" y1="310.04" x2="432.47" y2="133.95" xlink:href="#linear-gradient-90"/><linearGradient id="linear-gradient-167" y1="266.3" x2="1774.16" y2="266.3" xlink:href="#linear-gradient-5"/><linearGradient id="linear-gradient-168" x1="109.47" y1="688.9" x2="1286.26" y2="-487.9" xlink:href="#linear-gradient-6"/><linearGradient id="linear-gradient-169" x1="372.36" y1="426.01" x2="548.44" y2="249.92" xlink:href="#linear-gradient-90"/><linearGradient id="linear-gradient-170" y1="184.26" x2="1774.16" y2="184.26" xlink:href="#linear-gradient-5"/><linearGradient id="linear-gradient-171" x1="-1.71" y1="577.72" x2="1175.09" y2="-599.07" xlink:href="#linear-gradient-6"/><linearGradient id="linear-gradient-172" x1="205.83" y1="98.68" x2="444.48" y2="236.47" xlink:href="#linear-gradient-54"/><linearGradient id="linear-gradient-173" x1="261.18" y1="314.84" x2="437.27" y2="138.75" xlink:href="#linear-gradient-90"/><linearGradient id="linear-gradient-174" y1="302.79" x2="1774.16" y2="302.79" xlink:href="#linear-gradient-5"/><linearGradient id="linear-gradient-175" x1="-9.41" y1="570.02" x2="1167.39" y2="-606.77" xlink:href="#linear-gradient-6"/><linearGradient id="linear-gradient-176" x1="172.46" y1="217.3" x2="313.96" y2="358.8" xlink:href="#linear-gradient-42"/><linearGradient id="linear-gradient-177" x1="253.48" y1="307.14" x2="429.57" y2="131.05" xlink:href="#linear-gradient-90"/><linearGradient id="linear-gradient-178" x1="1154.32" y1="318.31" y2="318.31" xlink:href="#linear-gradient-15"/><linearGradient id="linear-gradient-179" x1="1704.17" y1="422.81" x2="1880.26" y2="246.72" xlink:href="#linear-gradient-42"/><linearGradient id="linear-gradient-180" x1="-0.04" y1="342.23" x2="2000" y2="342.23" xlink:href="#linear-gradient"/><linearGradient id="linear-gradient-181" x1="1154.32" y1="342.23" y2="342.23" xlink:href="#linear-gradient-15"/><linearGradient id="linear-gradient-182" x1="1753.39" y1="473.03" x2="1929.48" y2="296.94" xlink:href="#linear-gradient-42"/><linearGradient id="linear-gradient-183" y1="341.23" y2="341.23" xlink:href="#linear-gradient-2"/><linearGradient id="linear-gradient-185" x1="-0.04" y1="341.23" x2="2000" y2="341.23" xlink:href="#linear-gradient"/><linearGradient id="linear-gradient-186" x1="1154.32" y1="341.23" y2="341.23" xlink:href="#linear-gradient-15"/><linearGradient id="linear-gradient-187" x1="1771.55" y1="490.19" x2="1947.64" y2="314.1" xlink:href="#linear-gradient-42"/><linearGradient id="linear-gradient-188" y1="307.98" x2="1774.16" y2="307.98" xlink:href="#linear-gradient-5"/><linearGradient id="linear-gradient-189" x1="713.07" y1="1292.49" x2="1889.86" y2="115.7" xlink:href="#linear-gradient-6"/><linearGradient id="linear-gradient-190" x1="1154.32" y1="307.98" y2="307.98" xlink:href="#linear-gradient-15"/><linearGradient id="linear-gradient-191" x1="1643.46" y1="362.1" x2="1819.55" y2="186.01" xlink:href="#linear-gradient-42"/><linearGradient id="linear-gradient-192" x1="1154.32" y1="358.92" y2="358.92" xlink:href="#linear-gradient-15"/><linearGradient id="linear-gradient-193" x1="1512.85" y1="246.59" x2="1751.5" y2="384.37" xlink:href="#linear-gradient-54"/><linearGradient id="linear-gradient-194" x1="1684.76" y1="403.39" x2="1860.85" y2="227.3" xlink:href="#linear-gradient-42"/><linearGradient id="linear-gradient-195" y1="348.92" x2="1774.16" y2="348.92" xlink:href="#linear-gradient-5"/><linearGradient id="linear-gradient-196" x1="724.28" y1="1303.71" x2="1901.07" y2="126.91" xlink:href="#linear-gradient-6"/><linearGradient id="linear-gradient-197" x1="1154.32" y1="348.92" y2="348.92" xlink:href="#linear-gradient-15"/><linearGradient id="linear-gradient-198" x1="1508.78" y1="253.64" x2="1747.43" y2="391.43" xlink:href="#linear-gradient-54"/><linearGradient id="linear-gradient-199" x1="1654.68" y1="373.31" x2="1830.76" y2="197.22" xlink:href="#linear-gradient-42"/><linearGradient id="linear-gradient-200" x1="102.02" y1="307.54" x2="539.3" y2="307.54" gradientTransform="translate(56.93 -93.83) rotate(9.15)" gradientUnits="userSpaceOnUse"><stop offset="0" stop-color="#1d35dd" stop-opacity="0.25"/><stop offset="0.97" stop-color="#f9f9fe" stop-opacity="0.01"/><stop offset="1" stop-color="#fff" stop-opacity="0"/></linearGradient><linearGradient id="linear-gradient-201" x1="102.02" y1="307.54" x2="539.3" y2="307.54" gradientTransform="translate(56.93 -93.83) rotate(9.15)" gradientUnits="userSpaceOnUse"><stop offset="0.48" stop-color="#ddf47a" stop-opacity="0.15"/><stop offset="0.97" stop-color="#f9f9fe" stop-opacity="0.01"/><stop offset="1" stop-color="#fff" stop-opacity="0"/></linearGradient><linearGradient id="linear-gradient-202" x1="102.02" y1="254.2" x2="539.3" y2="254.2" xlink:href="#linear-gradient-200"/><linearGradient id="linear-gradient-203" x1="102.02" y1="254.2" x2="539.3" y2="254.2" xlink:href="#linear-gradient-201"/><linearGradient id="linear-gradient-204" y1="308.77" x2="1774.16" y2="308.77" xlink:href="#linear-gradient-5"/><linearGradient id="linear-gradient-205" x1="41.05" y1="620.48" x2="1217.84" y2="-556.31" xlink:href="#linear-gradient-6"/><linearGradient id="linear-gradient-206" x1="723.97" y1="218.93" x2="962.63" y2="356.71" gradientTransform="matrix(-1, 0, 0, 1, 1229.36, 0)" gradientUnits="userSpaceOnUse"><stop offset="0" stop-color="#1d35dd" stop-opacity="0.35"/><stop offset="1" stop-color="#fff" stop-opacity="0"/></linearGradient><linearGradient id="linear-gradient-207" y1="334.59" x2="1774.16" y2="334.59" xlink:href="#linear-gradient-5"/><linearGradient id="linear-gradient-208" x1="83.68" y1="663.11" x2="1260.47" y2="-513.69" xlink:href="#linear-gradient-6"/><linearGradient id="linear-gradient-209" x1="697.18" y1="265.33" x2="935.84" y2="403.12" xlink:href="#linear-gradient-206"/><linearGradient id="linear-gradient-210" y1="340.92" x2="1774.16" y2="340.92" xlink:href="#linear-gradient-5"/><linearGradient id="linear-gradient-211" x1="22.09" y1="601.51" x2="1198.88" y2="-575.28" xlink:href="#linear-gradient-6"/><linearGradient id="linear-gradient-212" x1="168.49" y1="221.27" x2="309.99" y2="362.77" xlink:href="#linear-gradient-42"/><linearGradient id="linear-gradient-213" x1="727.28" y1="213.19" x2="965.94" y2="350.98" xlink:href="#linear-gradient-206"/><linearGradient id="linear-gradient-214" y1="248.28" x2="1774.16" y2="248.28" xlink:href="#linear-gradient-5"/><linearGradient id="linear-gradient-215" x1="42.54" y1="621.96" x2="1219.33" y2="-554.83" xlink:href="#linear-gradient-6"/><linearGradient id="linear-gradient-216" x1="305.42" y1="359.08" x2="481.51" y2="182.99" xlink:href="#linear-gradient-90"/><linearGradient id="linear-gradient-217" x1="733.85" y1="201.82" x2="972.5" y2="339.61" xlink:href="#linear-gradient-206"/><linearGradient id="linear-gradient-218" y1="295.91" x2="1774.16" y2="295.91" xlink:href="#linear-gradient-5"/><linearGradient id="linear-gradient-219" x1="74.6" y1="654.03" x2="1251.39" y2="-522.77" xlink:href="#linear-gradient-6"/><linearGradient id="linear-gradient-220" x1="337.48" y1="391.14" x2="513.57" y2="215.05" xlink:href="#linear-gradient-90"/><linearGradient id="linear-gradient-221" x1="708.32" y1="246.04" x2="946.97" y2="383.83" xlink:href="#linear-gradient-206"/><linearGradient id="linear-gradient-222" y1="300.25" x2="1774.16" y2="300.25" xlink:href="#linear-gradient-5"/><linearGradient id="linear-gradient-223" x1="6.12" y1="585.55" x2="1182.92" y2="-591.24" xlink:href="#linear-gradient-6"/><linearGradient id="linear-gradient-224" x1="269.01" y1="322.67" x2="445.1" y2="146.58" xlink:href="#linear-gradient-90"/><linearGradient id="linear-gradient-225" x1="742.05" y1="187.62" x2="980.7" y2="325.41" xlink:href="#linear-gradient-206"/><linearGradient id="linear-gradient-226" x1="102.02" y1="313.51" x2="539.3" y2="313.51" xlink:href="#linear-gradient-200"/><linearGradient id="linear-gradient-227" x1="102.02" y1="313.51" x2="539.3" y2="313.51" xlink:href="#linear-gradient-201"/><linearGradient id="linear-gradient-228" x1="716.94" y1="231.1" x2="955.6" y2="368.89" xlink:href="#linear-gradient-206"/></defs><title>landingPage</title><path class="cls-1" d="M1193.27,0h536.54c.22-.33.43-.67.66-1H950.35l1.21,1Z" transform="translate(0 1)"/><path class="cls-1" d="M635.75,0l1.36,0,.95,0H749.28l1.18-1H126.18c.21.33.41.66.61,1Z" transform="translate(0 1)"/><path class="cls-1" d="M2000,0V-1H1832.71c.23.33.43.67.65,1Z" transform="translate(0 1)"/><path class="cls-1" d="M35.69,0l.6-1H32.22c.56.32,1.12.65,1.67,1Z" transform="translate(0 1)"/><path class="cls-1" d="M1325.54,454.91l-921,86.51A40.66,40.66,0,0,1,364.52,575H120.46v-.4a32.17,32.17,0,0,1-13.16-5.25L0,579.43V1000L1606.12,681.67Z" transform="translate(0 1)"/><polygon class="cls-2" points="1606.12 682.67 0 1000.99 0 1001 1606.13 682.67 1606.12 682.67"/><polygon class="cls-3" points="0 1001 2000 1001 1606.13 682.67 0 1001"/><polygon class="cls-3" points="0 1001 2000 1001 1606.13 682.67 0 1001"/><polygon class="cls-4" points="0 1001 2000 1001 1606.13 682.67 0 1001"/><path class="cls-5" d="M93.34,542.88a32.16,32.16,0,0,1,32.2-32.12,33.22,33.22,0,0,1,3.48.18A50.87,50.87,0,0,1,171.24,474a66.19,66.19,0,0,1,115.84,7,51,51,0,0,1,68.07,13.89,41.22,41.22,0,0,1,9.37-1.08,40.62,40.62,0,0,1,40.67,40.57,41.32,41.32,0,0,1-.61,7l921-86.51L1183.09,339.77c-20.41-16.49-30.88-40.51-28.41-64.83a32.07,32.07,0,0,1,7.16-51.36l9.22-65.58H954.89a42.31,42.31,0,0,1-33-69H750.57c0,.22,0,.43,0,.65a25,25,0,0,1-25.06,25c-.49,0-1,0-1.47-.05v.05H511.83v-.05a25,25,0,1,1,9.1-48.76,44.25,44.25,0,0,1,64.78-34.21A57.49,57.49,0,0,1,635.75,0h-509a52.31,52.31,0,0,1,6.29,16.24A33.74,33.74,0,0,1,180,33.9,27.23,27.23,0,1,1,199.9,79.65c-.53,0-1.07,0-1.6-.05v.05H0V217.57A62.28,62.28,0,0,1,42.3,243.2a51.74,51.74,0,0,1,58-6.65A58.25,58.25,0,0,1,123.41,226c5.16-2.59,9.53-4.55,9.53-4.55s9.52-8.39,20.15-7.67c29.28,2,66.27,8.67,96.78,15.07a40.32,40.32,0,0,1,52.25-24.59c.81-1.73,1.71-3.41,2.68-5.05H198.41v-.4A32.12,32.12,0,0,1,203.49,135a33.21,33.21,0,0,1,3.48.19,50.84,50.84,0,0,1,42.22-36.92,66.35,66.35,0,0,1,23.37-22.31,27.74,27.74,0,0,1,23.58-50.07A30,30,0,0,1,353.06,39a30.54,30.54,0,0,1-.37,4.71,20.1,20.1,0,0,1,25.31.31,18.73,18.73,0,1,1,8.47,35.41H343.36A66.18,66.18,0,0,1,365,105.26a51,51,0,0,1,68.07,13.89,40.59,40.59,0,0,1,19.73,78.74,52.69,52.69,0,0,1,14.7,11.05,48.14,48.14,0,0,1,14.5,5.58c14-8.71,25.62-15.92,27.85-17.36a88.51,88.51,0,0,1,12.54-6.69L556,195.76l-23.71,38.66a38.9,38.9,0,0,1-1.62,63.76,50.89,50.89,0,0,1,3.29,8.76,33.17,33.17,0,0,1,3.47-.18,32.12,32.12,0,0,1,5.09,63.84v.4H298.5a40.82,40.82,0,0,1-11.07-1.53H79.19v-.05a25,25,0,0,1-23.58-24.95,26.06,26.06,0,0,1,.21-3.2H0V579.43l107.3-10.08A32.07,32.07,0,0,1,93.34,542.88Zm976-130.77a61.41,61.41,0,0,1-.8,9.93,26.82,26.82,0,0,1-10.27,51.63c-.53,0-1.06,0-1.59-.05v.05H828.88v-.05A26.83,26.83,0,0,1,830.46,420a27.75,27.75,0,0,1,5.11.49,47.5,47.5,0,0,1,80.33-28A47.36,47.36,0,0,1,949.13,379a48.12,48.12,0,0,1,6.28.41,61.74,61.74,0,0,1,114,32.73ZM741.77,207.76a33.17,33.17,0,0,1,3.47.18A50.87,50.87,0,0,1,787.47,171a66.19,66.19,0,0,1,115.84,7,51,51,0,0,1,68.06,13.89,41.35,41.35,0,0,1,9.37-1.08,40.58,40.58,0,1,1,0,81.15H736.68v-.4a32.12,32.12,0,0,1,5.09-63.84Z" transform="translate(0 1)"/><path class="cls-6" d="M93.34,542.88a32.16,32.16,0,0,1,32.2-32.12,33.22,33.22,0,0,1,3.48.18A50.87,50.87,0,0,1,171.24,474a66.19,66.19,0,0,1,115.84,7,51,51,0,0,1,68.07,13.89,41.22,41.22,0,0,1,9.37-1.08,40.62,40.62,0,0,1,40.67,40.57,41.32,41.32,0,0,1-.61,7l921-86.51L1183.09,339.77c-20.41-16.49-30.88-40.51-28.41-64.83a32.07,32.07,0,0,1,7.16-51.36l9.22-65.58H954.89a42.31,42.31,0,0,1-33-69H750.57c0,.22,0,.43,0,.65a25,25,0,0,1-25.06,25c-.49,0-1,0-1.47-.05v.05H511.83v-.05a25,25,0,1,1,9.1-48.76,44.25,44.25,0,0,1,64.78-34.21A57.49,57.49,0,0,1,635.75,0h-509a52.31,52.31,0,0,1,6.29,16.24A33.74,33.74,0,0,1,180,33.9,27.23,27.23,0,1,1,199.9,79.65c-.53,0-1.07,0-1.6-.05v.05H0V217.57A62.28,62.28,0,0,1,42.3,243.2a51.74,51.74,0,0,1,58-6.65A58.25,58.25,0,0,1,123.41,226c5.16-2.59,9.53-4.55,9.53-4.55s9.52-8.39,20.15-7.67c29.28,2,66.27,8.67,96.78,15.07a40.32,40.32,0,0,1,52.25-24.59c.81-1.73,1.71-3.41,2.68-5.05H198.41v-.4A32.12,32.12,0,0,1,203.49,135a33.21,33.21,0,0,1,3.48.19,50.84,50.84,0,0,1,42.22-36.92,66.35,66.35,0,0,1,23.37-22.31,27.74,27.74,0,0,1,23.58-50.07A30,30,0,0,1,353.06,39a30.54,30.54,0,0,1-.37,4.71,20.1,20.1,0,0,1,25.31.31,18.73,18.73,0,1,1,8.47,35.41H343.36A66.18,66.18,0,0,1,365,105.26a51,51,0,0,1,68.07,13.89,40.59,40.59,0,0,1,19.73,78.74,52.69,52.69,0,0,1,14.7,11.05,48.14,48.14,0,0,1,14.5,5.58c14-8.71,25.62-15.92,27.85-17.36a88.51,88.51,0,0,1,12.54-6.69L556,195.76l-23.71,38.66a38.9,38.9,0,0,1-1.62,63.76,50.89,50.89,0,0,1,3.29,8.76,33.17,33.17,0,0,1,3.47-.18,32.12,32.12,0,0,1,5.09,63.84v.4H298.5a40.82,40.82,0,0,1-11.07-1.53H79.19v-.05a25,25,0,0,1-23.58-24.95,26.06,26.06,0,0,1,.21-3.2H0V579.43l107.3-10.08A32.07,32.07,0,0,1,93.34,542.88Zm976-130.77a61.41,61.41,0,0,1-.8,9.93,26.82,26.82,0,0,1-10.27,51.63c-.53,0-1.06,0-1.59-.05v.05H828.88v-.05A26.83,26.83,0,0,1,830.46,420a27.75,27.75,0,0,1,5.11.49,47.5,47.5,0,0,1,80.33-28A47.36,47.36,0,0,1,949.13,379a48.12,48.12,0,0,1,6.28.41,61.74,61.74,0,0,1,114,32.73ZM741.77,207.76a33.17,33.17,0,0,1,3.47.18A50.87,50.87,0,0,1,787.47,171a66.19,66.19,0,0,1,115.84,7,51,51,0,0,1,68.06,13.89,41.35,41.35,0,0,1,9.37-1.08,40.58,40.58,0,1,1,0,81.15H736.68v-.4a32.12,32.12,0,0,1,5.09-63.84Z" transform="translate(0 1)"/><path class="cls-7" d="M694.58,57.31v.16A31.49,31.49,0,0,1,698,60c-.1-1-.15-2-.15-3.08a32.16,32.16,0,0,1,32.2-32.12,33.22,33.22,0,0,1,3.48.18A50.73,50.73,0,0,1,749.28,0H638.06A57.39,57.39,0,0,1,694.58,57.31Z" transform="translate(0 1)"/><path class="cls-8" d="M694.58,57.31v.16A31.49,31.49,0,0,1,698,60c-.1-1-.15-2-.15-3.08a32.16,32.16,0,0,1,32.2-32.12,33.22,33.22,0,0,1,3.48.18A50.73,50.73,0,0,1,749.28,0H638.06A57.39,57.39,0,0,1,694.58,57.31Z" transform="translate(0 1)"/><path class="cls-9" d="M959.69,8.93a41.28,41.28,0,0,1,9.37-1.08,40.68,40.68,0,0,1,38.86,28.57,69.07,69.07,0,0,1,108.34,27.35,53.12,53.12,0,0,1,67.86,1.28l9.15-65H951.56A51.07,51.07,0,0,1,959.69,8.93Z" transform="translate(0 1)"/><path class="cls-10" d="M959.69,8.93a41.28,41.28,0,0,1,9.37-1.08,40.68,40.68,0,0,1,38.86,28.57,69.07,69.07,0,0,1,108.34,27.35,53.12,53.12,0,0,1,67.86,1.28l9.15-65H951.56A51.07,51.07,0,0,1,959.69,8.93Z" transform="translate(0 1)"/><path class="cls-11" d="M35.18.85,35.69,0h-1.8Z" transform="translate(0 1)"/><path class="cls-12" d="M35.18.85,35.69,0h-1.8Z" transform="translate(0 1)"/><path class="cls-13" d="M261.4,304.31a57.7,57.7,0,0,1,.54,7.82v.16l.13.09a40.51,40.51,0,0,1,5-7.69h-.38A38.12,38.12,0,0,1,261.4,304.31Z" transform="translate(0 1)"/><path class="cls-14" d="M261.4,304.31a57.7,57.7,0,0,1,.54,7.82v.16l.13.09a40.51,40.51,0,0,1,5-7.69h-.38A38.12,38.12,0,0,1,261.4,304.31Z" transform="translate(0 1)"/><path class="cls-15" d="M1806.42,570.39,1869,386H1749.79a40.68,40.68,0,0,1-38.33,27h-45.18a85.16,85.16,0,0,1-38.7,13.53l-302,28.38,280.58,226.76,86.27-17.1C1746.74,653.8,1790.33,617.8,1806.42,570.39Z" transform="translate(0 1)"/><path class="cls-16" d="M1843.3,33.48a61.2,61.2,0,0,1-.81,9.92A26.82,26.82,0,0,1,1832.22,95c-.53,0-1.06,0-1.58,0v0h-75.26l-37.62,190.31c.23.09.47.16.69.25a61,61,0,0,1,106-7.6,52.42,52.42,0,0,1,59.38,12.26,48.26,48.26,0,0,1,15.53,6.2L1933.14,197h-47.69a29.34,29.34,0,0,1-5.08-58.24,25.93,25.93,0,0,1,38.07.55,25.81,25.81,0,0,1,12-3l.87,0A46.63,46.63,0,0,1,1966,100.13L2000,0H1833.36A61.12,61.12,0,0,1,1843.3,33.48Z" transform="translate(0 1)"/><polygon class="cls-17" points="1966.02 101.13 2000 1 1966.02 101.13 1966.02 101.13"/><polygon class="cls-18" points="1966.02 101.13 2000 1 1966.02 101.13 1966.02 101.13"/><path class="cls-19" d="M1806.42,570.39c-16.09,47.41-59.68,83.41-114,94.18l-86.27,17.1h0l86.27-17.1c54.35-10.77,97.94-46.77,114-94.18L1869,386h0Z" transform="translate(0 1)"/><path class="cls-20" d="M1806.42,570.39c-16.09,47.41-59.68,83.41-114,94.18l-86.27,17.1h0l86.27-17.1c54.35-10.77,97.94-46.77,114-94.18L1869,386h0Z" transform="translate(0 1)"/><polygon class="cls-21" points="1899.39 297.45 1899.39 297.45 1933.14 198 1933.14 198 1899.39 297.45"/><polygon class="cls-22" points="1899.39 297.45 1899.39 297.45 1933.14 198 1933.14 198 1899.39 297.45"/><path class="cls-23" d="M1944.78,647H1838v-.4a32.12,32.12,0,0,1,5.08-63.84,33.22,33.22,0,0,1,3.48.18A50.87,50.87,0,0,1,1888.78,546,66.2,66.2,0,0,1,2000,544.83V197h-66.86l-33.75,99.45a48.61,48.61,0,0,1,14.28,13.45,39,39,0,1,1,11.76,76.1H1869l-62.57,184.39c-16.09,47.41-59.68,83.41-114,94.18l-86.27,17.1L2000,1000V647Z" transform="translate(0 1)"/><path class="cls-23" d="M1944.78,647H1838v-.4a32.12,32.12,0,0,1,5.08-63.84,33.22,33.22,0,0,1,3.48.18A50.87,50.87,0,0,1,1888.78,546,66.2,66.2,0,0,1,2000,544.83V197h-66.86l-33.75,99.45a48.61,48.61,0,0,1,14.28,13.45,39,39,0,1,1,11.76,76.1H1869l-62.57,184.39c-16.09,47.41-59.68,83.41-114,94.18l-86.27,17.1L2000,1000V647Z" transform="translate(0 1)"/><path class="cls-24" d="M1944.78,647H1838v-.4a32.12,32.12,0,0,1,5.08-63.84,33.22,33.22,0,0,1,3.48.18A50.87,50.87,0,0,1,1888.78,546,66.2,66.2,0,0,1,2000,544.83V197h-66.86l-33.75,99.45a48.61,48.61,0,0,1,14.28,13.45,39,39,0,1,1,11.76,76.1H1869l-62.57,184.39c-16.09,47.41-59.68,83.41-114,94.18l-86.27,17.1L2000,1000V647Z" transform="translate(0 1)"/><path class="cls-25" d="M1944.78,647H1838v-.4a32.12,32.12,0,0,1,5.08-63.84,33.22,33.22,0,0,1,3.48.18A50.87,50.87,0,0,1,1888.78,546,66.2,66.2,0,0,1,2000,544.83V197h-66.86l-33.75,99.45a48.61,48.61,0,0,1,14.28,13.45,39,39,0,1,1,11.76,76.1H1869l-62.57,184.39c-16.09,47.41-59.68,83.41-114,94.18l-86.27,17.1L2000,1000V647Z" transform="translate(0 1)"/><path class="cls-26" d="M1977.12,98.79a46.44,46.44,0,0,1,22.88,6V0l-34,100.13A46.73,46.73,0,0,1,1977.12,98.79Z" transform="translate(0 1)"/><path class="cls-26" d="M1977.12,98.79a46.44,46.44,0,0,1,22.88,6V0l-34,100.13A46.73,46.73,0,0,1,1977.12,98.79Z" transform="translate(0 1)"/><path class="cls-27" d="M1977.12,98.79a46.44,46.44,0,0,1,22.88,6V0l-34,100.13A46.73,46.73,0,0,1,1977.12,98.79Z" transform="translate(0 1)"/><path class="cls-28" d="M1977.12,98.79a46.44,46.44,0,0,1,22.88,6V0l-34,100.13A46.73,46.73,0,0,1,1977.12,98.79Z" transform="translate(0 1)"/><path class="cls-29" d="M1666.28,413H1467.4v-.4a32.12,32.12,0,0,1,5.08-63.84,33.37,33.37,0,0,1,3.48.18A50.87,50.87,0,0,1,1518.18,312,66.19,66.19,0,0,1,1634,319a50.74,50.74,0,0,1,26.59-7.48c1.71,0,3.4.11,5.07.27a40.27,40.27,0,0,1,52.08-26.49L1755.38,95H1621.32a51.11,51.11,0,0,1,13.37,12.9,41.28,41.28,0,0,1,9.37-1.08,40.58,40.58,0,1,1,0,81.15H1400v-.4a32.22,32.22,0,0,1-19.17-10.6h-50.35a66.16,66.16,0,0,1,8.14,13,51,51,0,0,1,68.07,13.89,41.28,41.28,0,0,1,9.37-1.08,40.58,40.58,0,1,1,0,81.15H1172v-.4a32.15,32.15,0,0,1-17.32-8.66c-2.47,24.32,8,48.34,28.41,64.83l142.45,115.14,302-28.38A85.16,85.16,0,0,0,1666.28,413Z" transform="translate(0 1)"/><path class="cls-30" d="M1666.28,413H1467.4v-.4a32.12,32.12,0,0,1,5.08-63.84,33.37,33.37,0,0,1,3.48.18A50.87,50.87,0,0,1,1518.18,312,66.19,66.19,0,0,1,1634,319a50.74,50.74,0,0,1,26.59-7.48c1.71,0,3.4.11,5.07.27a40.27,40.27,0,0,1,52.08-26.49L1755.38,95H1621.32a51.11,51.11,0,0,1,13.37,12.9,41.28,41.28,0,0,1,9.37-1.08,40.58,40.58,0,1,1,0,81.15H1400v-.4a32.22,32.22,0,0,1-19.17-10.6h-50.35a66.16,66.16,0,0,1,8.14,13,51,51,0,0,1,68.07,13.89,41.28,41.28,0,0,1,9.37-1.08,40.58,40.58,0,1,1,0,81.15H1172v-.4a32.15,32.15,0,0,1-17.32-8.66c-2.47,24.32,8,48.34,28.41,64.83l142.45,115.14,302-28.38A85.16,85.16,0,0,0,1666.28,413Z" transform="translate(0 1)"/><path class="cls-31" d="M1666.28,413H1467.4v-.4a32.12,32.12,0,0,1,5.08-63.84,33.37,33.37,0,0,1,3.48.18A50.87,50.87,0,0,1,1518.18,312,66.19,66.19,0,0,1,1634,319a50.74,50.74,0,0,1,26.59-7.48c1.71,0,3.4.11,5.07.27a40.27,40.27,0,0,1,52.08-26.49L1755.38,95H1621.32a51.11,51.11,0,0,1,13.37,12.9,41.28,41.28,0,0,1,9.37-1.08,40.58,40.58,0,1,1,0,81.15H1400v-.4a32.22,32.22,0,0,1-19.17-10.6h-50.35a66.16,66.16,0,0,1,8.14,13,51,51,0,0,1,68.07,13.89,41.28,41.28,0,0,1,9.37-1.08,40.58,40.58,0,1,1,0,81.15H1172v-.4a32.15,32.15,0,0,1-17.32-8.66c-2.47,24.32,8,48.34,28.41,64.83l142.45,115.14,302-28.38A85.16,85.16,0,0,0,1666.28,413Z" transform="translate(0 1)"/><path class="cls-32" d="M1180.56,219.94A50.87,50.87,0,0,1,1222.78,183a68,68,0,0,1,5.06-7A28.31,28.31,0,0,1,1208.37,158h-37.31l-9.22,65.58a32.1,32.1,0,0,1,15.24-3.82A33.22,33.22,0,0,1,1180.56,219.94Z" transform="translate(0 1)"/><path class="cls-33" d="M1180.56,219.94A50.87,50.87,0,0,1,1222.78,183a68,68,0,0,1,5.06-7A28.31,28.31,0,0,1,1208.37,158h-37.31l-9.22,65.58a32.1,32.1,0,0,1,15.24-3.82A33.22,33.22,0,0,1,1180.56,219.94Z" transform="translate(0 1)"/><path class="cls-34" d="M1180.56,219.94A50.87,50.87,0,0,1,1222.78,183a68,68,0,0,1,5.06-7A28.31,28.31,0,0,1,1208.37,158h-37.31l-9.22,65.58a32.1,32.1,0,0,1,15.24-3.82A33.22,33.22,0,0,1,1180.56,219.94Z" transform="translate(0 1)"/><path class="cls-35" d="M1200.63,91.16a33.57,33.57,0,0,1,37,29.49,28.27,28.27,0,0,1,10.27,2.93,30.31,30.31,0,0,1,38.18-.48,45.26,45.26,0,0,1,85.31-27,42.08,42.08,0,0,1,45.75,10.49A50.8,50.8,0,0,1,1450.78,87a66.19,66.19,0,0,1,115.84,7,50.55,50.55,0,0,1,18.75-6.88,26.84,26.84,0,0,1,24.11-45.31,47.5,47.5,0,0,1,80.34-28A47.39,47.39,0,0,1,1723.05.33a46.39,46.39,0,0,1,6.27.42c.16-.26.33-.5.49-.75H1193.27l-9.15,65.05A52.92,52.92,0,0,1,1200.63,91.16Z" transform="translate(0 1)"/><path class="cls-36" d="M1200.63,91.16a33.57,33.57,0,0,1,37,29.49,28.27,28.27,0,0,1,10.27,2.93,30.31,30.31,0,0,1,38.18-.48,45.26,45.26,0,0,1,85.31-27,42.08,42.08,0,0,1,45.75,10.49A50.8,50.8,0,0,1,1450.78,87a66.19,66.19,0,0,1,115.84,7,50.55,50.55,0,0,1,18.75-6.88,26.84,26.84,0,0,1,24.11-45.31,47.5,47.5,0,0,1,80.34-28A47.39,47.39,0,0,1,1723.05.33a46.39,46.39,0,0,1,6.27.42c.16-.26.33-.5.49-.75H1193.27l-9.15,65.05A52.92,52.92,0,0,1,1200.63,91.16Z" transform="translate(0 1)"/><path class="cls-37" d="M1200.63,91.16a33.57,33.57,0,0,1,37,29.49,28.27,28.27,0,0,1,10.27,2.93,30.31,30.31,0,0,1,38.18-.48,45.26,45.26,0,0,1,85.31-27,42.08,42.08,0,0,1,45.75,10.49A50.8,50.8,0,0,1,1450.78,87a66.19,66.19,0,0,1,115.84,7,50.55,50.55,0,0,1,18.75-6.88,26.84,26.84,0,0,1,24.11-45.31,47.5,47.5,0,0,1,80.34-28A47.39,47.39,0,0,1,1723.05.33a46.39,46.39,0,0,1,6.27.42c.16-.26.33-.5.49-.75H1193.27l-9.15,65.05A52.92,52.92,0,0,1,1200.63,91.16Z" transform="translate(0 1)"/><path class="cls-38" d="M80.67,319.48a25.3,25.3,0,0,1,7.62,1.18,44.25,44.25,0,0,1,64.78-34.21,57.54,57.54,0,0,1,11.81-15.88c-5.75-1.3-11-2.5-15.41-3.55-31.21-7.38-43-23.24-42.51-30,.16-2.38,9.1-7.33,16.45-11a58.25,58.25,0,0,0-23.12,10.54,51.74,51.74,0,0,0-58,6.65A62.28,62.28,0,0,0,0,217.57v123.7H55.82A25,25,0,0,1,80.67,319.48Z" transform="translate(0 1)"/><path class="cls-39" d="M80.67,319.48a25.3,25.3,0,0,1,7.62,1.18,44.25,44.25,0,0,1,64.78-34.21,57.54,57.54,0,0,1,11.81-15.88c-5.75-1.3-11-2.5-15.41-3.55-31.21-7.38-43-23.24-42.51-30,.16-2.38,9.1-7.33,16.45-11a58.25,58.25,0,0,0-23.12,10.54,51.74,51.74,0,0,0-58,6.65A62.28,62.28,0,0,0,0,217.57v123.7H55.82A25,25,0,0,1,80.67,319.48Z" transform="translate(0 1)"/><path class="cls-40" d="M80.67,319.48a25.3,25.3,0,0,1,7.62,1.18,44.25,44.25,0,0,1,64.78-34.21,57.54,57.54,0,0,1,11.81-15.88c-5.75-1.3-11-2.5-15.41-3.55-31.21-7.38-43-23.24-42.51-30,.16-2.38,9.1-7.33,16.45-11a58.25,58.25,0,0,0-23.12,10.54,51.74,51.74,0,0,0-58,6.65A62.28,62.28,0,0,0,0,217.57v123.7H55.82A25,25,0,0,1,80.67,319.48Z" transform="translate(0 1)"/><path class="cls-41" d="M1149.43,52.15a52.92,52.92,0,0,0-33.17,11.62,69.07,69.07,0,0,0-108.34-27.35A40.57,40.57,0,0,1,969.06,89H921.92a42.31,42.31,0,0,0,33,69h216.17l13.06-92.95A52.9,52.9,0,0,0,1149.43,52.15Z" transform="translate(0 1)"/><path class="cls-42" d="M1149.43,52.15a52.92,52.92,0,0,0-33.17,11.62,69.07,69.07,0,0,0-108.34-27.35A40.57,40.57,0,0,1,969.06,89H921.92a42.31,42.31,0,0,0,33,69h216.17l13.06-92.95A52.9,52.9,0,0,0,1149.43,52.15Z" transform="translate(0 1)"/><path class="cls-43" d="M1149.43,52.15a52.92,52.92,0,0,0-33.17,11.62,69.07,69.07,0,0,0-108.34-27.35A40.57,40.57,0,0,1,969.06,89H921.92a42.31,42.31,0,0,0,33,69h216.17l13.06-92.95A52.9,52.9,0,0,0,1149.43,52.15Z" transform="translate(0 1)"/><path class="cls-44" d="M1206.81,148.77a28.27,28.27,0,0,1,28.31-28.24c.84,0,1.68,0,2.51.12a33.57,33.57,0,0,0-37-29.49,52.92,52.92,0,0,0-16.51-26.11l-13.06,93h37.31A27.94,27.94,0,0,1,1206.81,148.77Z" transform="translate(0 1)"/><path class="cls-45" d="M1206.81,148.77a28.27,28.27,0,0,1,28.31-28.24c.84,0,1.68,0,2.51.12a33.57,33.57,0,0,0-37-29.49,52.92,52.92,0,0,0-16.51-26.11l-13.06,93h37.31A27.94,27.94,0,0,1,1206.81,148.77Z" transform="translate(0 1)"/><path class="cls-46" d="M1206.81,148.77a28.27,28.27,0,0,1,28.31-28.24c.84,0,1.68,0,2.51.12a33.57,33.57,0,0,0-37-29.49,52.92,52.92,0,0,0-16.51-26.11l-13.06,93h37.31A27.94,27.94,0,0,1,1206.81,148.77Z" transform="translate(0 1)"/><path class="cls-47" d="M1206.81,148.77a28.27,28.27,0,0,1,28.31-28.24c.84,0,1.68,0,2.51.12a33.57,33.57,0,0,0-37-29.49,52.92,52.92,0,0,0-16.51-26.11l-13.06,93h37.31A27.94,27.94,0,0,1,1206.81,148.77Z" transform="translate(0 1)"/><path class="cls-48" d="M736.68,271.6v.4H980.74a40.58,40.58,0,1,0,0-81.15,41.35,41.35,0,0,0-9.37,1.08A51,51,0,0,0,903.31,178a66.19,66.19,0,0,0-115.84-7,50.87,50.87,0,0,0-42.23,36.92,33.17,33.17,0,0,0-3.47-.18,32.12,32.12,0,0,0-5.09,63.84Z" transform="translate(0 1)"/><path class="cls-49" d="M736.68,271.6v.4H980.74a40.58,40.58,0,1,0,0-81.15,41.35,41.35,0,0,0-9.37,1.08A51,51,0,0,0,903.31,178a66.19,66.19,0,0,0-115.84-7,50.87,50.87,0,0,0-42.23,36.92,33.17,33.17,0,0,0-3.47-.18,32.12,32.12,0,0,0-5.09,63.84Z" transform="translate(0 1)"/><path class="cls-50" d="M736.68,271.6v.4H980.74a40.58,40.58,0,1,0,0-81.15,41.35,41.35,0,0,0-9.37,1.08A51,51,0,0,0,903.31,178a66.19,66.19,0,0,0-115.84-7,50.87,50.87,0,0,0-42.23,36.92,33.17,33.17,0,0,0-3.47-.18,32.12,32.12,0,0,0-5.09,63.84Z" transform="translate(0 1)"/><path class="cls-51" d="M1666.28,413h45.18a40.68,40.68,0,0,0,38.33-27h-57.33A85.78,85.78,0,0,1,1666.28,413Z" transform="translate(0 1)"/><path class="cls-52" d="M1666.28,413h45.18a40.68,40.68,0,0,0,38.33-27h-57.33A85.78,85.78,0,0,1,1666.28,413Z" transform="translate(0 1)"/><path class="cls-53" d="M1692.46,386H1683a37.58,37.58,0,0,1-18.23-70.51c.24-1.24.55-2.46.9-3.66-1.67-.16-3.36-.27-5.07-.27A50.74,50.74,0,0,0,1634,319a66.19,66.19,0,0,0-115.84-7A50.87,50.87,0,0,0,1476,348.94a33.37,33.37,0,0,0-3.48-.18,32.12,32.12,0,0,0-5.08,63.84v.4h198.88A85.78,85.78,0,0,0,1692.46,386Z" transform="translate(0 1)"/><path class="cls-54" d="M1692.46,386H1683a37.58,37.58,0,0,1-18.23-70.51c.24-1.24.55-2.46.9-3.66-1.67-.16-3.36-.27-5.07-.27A50.74,50.74,0,0,0,1634,319a66.19,66.19,0,0,0-115.84-7A50.87,50.87,0,0,0,1476,348.94a33.37,33.37,0,0,0-3.48-.18,32.12,32.12,0,0,0-5.08,63.84v.4h198.88A85.78,85.78,0,0,0,1692.46,386Z" transform="translate(0 1)"/><path class="cls-55" d="M1692.46,386H1683a37.58,37.58,0,0,1-18.23-70.51c.24-1.24.55-2.46.9-3.66-1.67-.16-3.36-.27-5.07-.27A50.74,50.74,0,0,0,1634,319a66.19,66.19,0,0,0-115.84-7A50.87,50.87,0,0,0,1476,348.94a33.37,33.37,0,0,0-3.48-.18,32.12,32.12,0,0,0-5.08,63.84v.4h198.88A85.78,85.78,0,0,0,1692.46,386Z" transform="translate(0 1)"/><path class="cls-56" d="M1692.46,386H1683a37.58,37.58,0,0,1-18.23-70.51c.24-1.24.55-2.46.9-3.66-1.67-.16-3.36-.27-5.07-.27A50.74,50.74,0,0,0,1634,319a66.19,66.19,0,0,0-115.84-7A50.87,50.87,0,0,0,1476,348.94a33.37,33.37,0,0,0-3.48-.18,32.12,32.12,0,0,0-5.08,63.84v.4h198.88A85.78,85.78,0,0,0,1692.46,386Z" transform="translate(0 1)"/><path class="cls-57" d="M357.26,169.3a60.88,60.88,0,0,1,50.89,27.38,52.47,52.47,0,0,1,44.68,1.21,40.59,40.59,0,0,0-19.73-78.74A51,51,0,0,0,365,105.26a66.18,66.18,0,0,0-21.67-25.8H286.13a27.65,27.65,0,0,1-13.57-3.53,66.35,66.35,0,0,0-23.37,22.31A50.84,50.84,0,0,0,207,135.16a33.21,33.21,0,0,0-3.48-.19,32.12,32.12,0,0,0-5.08,63.85v.4H304.8A60.88,60.88,0,0,1,357.26,169.3Z" transform="translate(0 1)"/><path class="cls-58" d="M357.26,169.3a60.88,60.88,0,0,1,50.89,27.38,52.47,52.47,0,0,1,44.68,1.21,40.59,40.59,0,0,0-19.73-78.74A51,51,0,0,0,365,105.26a66.18,66.18,0,0,0-21.67-25.8H286.13a27.65,27.65,0,0,1-13.57-3.53,66.35,66.35,0,0,0-23.37,22.31A50.84,50.84,0,0,0,207,135.16a33.21,33.21,0,0,0-3.48-.19,32.12,32.12,0,0,0-5.08,63.85v.4H304.8A60.88,60.88,0,0,1,357.26,169.3Z" transform="translate(0 1)"/><path class="cls-59" d="M357.26,169.3a60.88,60.88,0,0,1,50.89,27.38,52.47,52.47,0,0,1,44.68,1.21,40.59,40.59,0,0,0-19.73-78.74A51,51,0,0,0,365,105.26a66.18,66.18,0,0,0-21.67-25.8H286.13a27.65,27.65,0,0,1-13.57-3.53,66.35,66.35,0,0,0-23.37,22.31A50.84,50.84,0,0,0,207,135.16a33.21,33.21,0,0,0-3.48-.19,32.12,32.12,0,0,0-5.08,63.85v.4H304.8A60.88,60.88,0,0,1,357.26,169.3Z" transform="translate(0 1)"/><path class="cls-60" d="M1944.78,515.13a66.08,66.08,0,0,0-56,30.89,50.87,50.87,0,0,0-42.22,36.92,33.22,33.22,0,0,0-3.48-.18A32.12,32.12,0,0,0,1838,646.6v.4h162V544.83A66.08,66.08,0,0,0,1944.78,515.13Z" transform="translate(0 1)"/><path class="cls-60" d="M1944.78,515.13a66.08,66.08,0,0,0-56,30.89,50.87,50.87,0,0,0-42.22,36.92,33.22,33.22,0,0,0-3.48-.18A32.12,32.12,0,0,0,1838,646.6v.4h162V544.83A66.08,66.08,0,0,0,1944.78,515.13Z" transform="translate(0 1)"/><path class="cls-61" d="M1944.78,515.13a66.08,66.08,0,0,0-56,30.89,50.87,50.87,0,0,0-42.22,36.92,33.22,33.22,0,0,0-3.48-.18A32.12,32.12,0,0,0,1838,646.6v.4h162V544.83A66.08,66.08,0,0,0,1944.78,515.13Z" transform="translate(0 1)"/><path class="cls-62" d="M1944.78,515.13a66.08,66.08,0,0,0-56,30.89,50.87,50.87,0,0,0-42.22,36.92,33.22,33.22,0,0,0-3.48-.18A32.12,32.12,0,0,0,1838,646.6v.4h162V544.83A66.08,66.08,0,0,0,1944.78,515.13Z" transform="translate(0 1)"/><path class="cls-63" d="M1944.78,515.13a66.08,66.08,0,0,0-56,30.89,50.87,50.87,0,0,0-42.22,36.92,33.22,33.22,0,0,0-3.48-.18A32.12,32.12,0,0,0,1838,646.6v.4h162V544.83A66.08,66.08,0,0,0,1944.78,515.13Z" transform="translate(0 1)"/><path class="cls-64" d="M1161.84,223.58a32.07,32.07,0,0,0-7.16,51.36c.09-.89.19-1.78.32-2.68Z" transform="translate(0 1)"/><path class="cls-65" d="M1161.84,223.58a32.07,32.07,0,0,0-7.16,51.36c.09-.89.19-1.78.32-2.68Z" transform="translate(0 1)"/><path class="cls-66" d="M1161.84,223.58a32.07,32.07,0,0,0-7.16,51.36c.09-.89.19-1.78.32-2.68Z" transform="translate(0 1)"/><path class="cls-67" d="M1172,284h244.06a40.58,40.58,0,1,0,0-81.15,41.28,41.28,0,0,0-9.37,1.08A51,51,0,0,0,1338.62,190a66.16,66.16,0,0,0-8.14-13h-95.36a28.16,28.16,0,0,1-7.28-.95,68,68,0,0,0-5.06,7,50.87,50.87,0,0,0-42.22,36.92,33.22,33.22,0,0,0-3.48-.18,32.1,32.1,0,0,0-15.24,3.82L1155,272.26c-.13.9-.23,1.79-.32,2.68A32.15,32.15,0,0,0,1172,283.6Z" transform="translate(0 1)"/><path class="cls-68" d="M1172,284h244.06a40.58,40.58,0,1,0,0-81.15,41.28,41.28,0,0,0-9.37,1.08A51,51,0,0,0,1338.62,190a66.16,66.16,0,0,0-8.14-13h-95.36a28.16,28.16,0,0,1-7.28-.95,68,68,0,0,0-5.06,7,50.87,50.87,0,0,0-42.22,36.92,33.22,33.22,0,0,0-3.48-.18,32.1,32.1,0,0,0-15.24,3.82L1155,272.26c-.13.9-.23,1.79-.32,2.68A32.15,32.15,0,0,0,1172,283.6Z" transform="translate(0 1)"/><path class="cls-69" d="M1172,284h244.06a40.58,40.58,0,1,0,0-81.15,41.28,41.28,0,0,0-9.37,1.08A51,51,0,0,0,1338.62,190a66.16,66.16,0,0,0-8.14-13h-95.36a28.16,28.16,0,0,1-7.28-.95,68,68,0,0,0-5.06,7,50.87,50.87,0,0,0-42.22,36.92,33.22,33.22,0,0,0-3.48-.18,32.1,32.1,0,0,0-15.24,3.82L1155,272.26c-.13.9-.23,1.79-.32,2.68A32.15,32.15,0,0,0,1172,283.6Z" transform="translate(0 1)"/><path class="cls-70" d="M1172,284h244.06a40.58,40.58,0,1,0,0-81.15,41.28,41.28,0,0,0-9.37,1.08A51,51,0,0,0,1338.62,190a66.16,66.16,0,0,0-8.14-13h-95.36a28.16,28.16,0,0,1-7.28-.95,68,68,0,0,0-5.06,7,50.87,50.87,0,0,0-42.22,36.92,33.22,33.22,0,0,0-3.48-.18,32.1,32.1,0,0,0-15.24,3.82L1155,272.26c-.13.9-.23,1.79-.32,2.68A32.15,32.15,0,0,0,1172,283.6Z" transform="translate(0 1)"/><path class="cls-71" d="M951.56,0l-1.21-1H750.46l-1.18,1Z" transform="translate(0 1)"/><path class="cls-72" d="M954.89,73.32a42.63,42.63,0,0,1,9.78,1.13,53.16,53.16,0,0,1,28-20.07,69.06,69.06,0,0,1,15.26-18A40.68,40.68,0,0,0,969.06,7.85a41.28,41.28,0,0,0-9.37,1.08A51.07,51.07,0,0,0,951.56,0H749.28a50.73,50.73,0,0,0-15.72,24.94,33.22,33.22,0,0,0-3.48-.18,32.16,32.16,0,0,0-32.2,32.12c0,1,0,2.06.15,3.08a30.85,30.85,0,0,1,9.2,12.64A25.05,25.05,0,0,1,750.57,89H921.92A42.41,42.41,0,0,1,954.89,73.32Z" transform="translate(0 1)"/><path class="cls-73" d="M954.89,73.32a42.63,42.63,0,0,1,9.78,1.13,53.16,53.16,0,0,1,28-20.07,69.06,69.06,0,0,1,15.26-18A40.68,40.68,0,0,0,969.06,7.85a41.28,41.28,0,0,0-9.37,1.08A51.07,51.07,0,0,0,951.56,0H749.28a50.73,50.73,0,0,0-15.72,24.94,33.22,33.22,0,0,0-3.48-.18,32.16,32.16,0,0,0-32.2,32.12c0,1,0,2.06.15,3.08a30.85,30.85,0,0,1,9.2,12.64A25.05,25.05,0,0,1,750.57,89H921.92A42.41,42.41,0,0,1,954.89,73.32Z" transform="translate(0 1)"/><path class="cls-74" d="M954.89,73.32a42.63,42.63,0,0,1,9.78,1.13,53.16,53.16,0,0,1,28-20.07,69.06,69.06,0,0,1,15.26-18A40.68,40.68,0,0,0,969.06,7.85a41.28,41.28,0,0,0-9.37,1.08A51.07,51.07,0,0,0,951.56,0H749.28a50.73,50.73,0,0,0-15.72,24.94,33.22,33.22,0,0,0-3.48-.18,32.16,32.16,0,0,0-32.2,32.12c0,1,0,2.06.15,3.08a30.85,30.85,0,0,1,9.2,12.64A25.05,25.05,0,0,1,750.57,89H921.92A42.41,42.41,0,0,1,954.89,73.32Z" transform="translate(0 1)"/><path class="cls-75" d="M1009.74,48.42a40.3,40.3,0,0,0-1.82-12,69.06,69.06,0,0,0-15.26,18,53.16,53.16,0,0,0-28,20.07A42.58,42.58,0,0,0,921.92,89h47.14A40.64,40.64,0,0,0,1009.74,48.42Z" transform="translate(0 1)"/><path class="cls-76" d="M1009.74,48.42a40.3,40.3,0,0,0-1.82-12,69.06,69.06,0,0,0-15.26,18,53.16,53.16,0,0,0-28,20.07A42.58,42.58,0,0,0,921.92,89h47.14A40.64,40.64,0,0,0,1009.74,48.42Z" transform="translate(0 1)"/><path class="cls-77" d="M1009.74,48.42a40.3,40.3,0,0,0-1.82-12,69.06,69.06,0,0,0-15.26,18,53.16,53.16,0,0,0-28,20.07A42.58,42.58,0,0,0,921.92,89h47.14A40.64,40.64,0,0,0,1009.74,48.42Z" transform="translate(0 1)"/><path class="cls-78" d="M1009.74,48.42a40.3,40.3,0,0,0-1.82-12,69.06,69.06,0,0,0-15.26,18,53.16,53.16,0,0,0-28,20.07A42.58,42.58,0,0,0,921.92,89h47.14A40.64,40.64,0,0,0,1009.74,48.42Z" transform="translate(0 1)"/><path class="cls-79" d="M1602.79,95a26.84,26.84,0,0,1-17.42-7.81,50.55,50.55,0,0,0-18.75,6.88,66.19,66.19,0,0,0-115.84-7,50.8,50.8,0,0,0-33.64,19.59A41.81,41.81,0,0,1,1386.49,177h-5.66A32.22,32.22,0,0,0,1400,187.6v.4h244.06a40.58,40.58,0,1,0,0-81.15,41.28,41.28,0,0,0-9.37,1.08A51.11,51.11,0,0,0,1621.32,95h-18.53Z" transform="translate(0 1)"/><path class="cls-80" d="M1602.79,95a26.84,26.84,0,0,1-17.42-7.81,50.55,50.55,0,0,0-18.75,6.88,66.19,66.19,0,0,0-115.84-7,50.8,50.8,0,0,0-33.64,19.59A41.81,41.81,0,0,1,1386.49,177h-5.66A32.22,32.22,0,0,0,1400,187.6v.4h244.06a40.58,40.58,0,1,0,0-81.15,41.28,41.28,0,0,0-9.37,1.08A51.11,51.11,0,0,0,1621.32,95h-18.53Z" transform="translate(0 1)"/><path class="cls-81" d="M1602.79,95a26.84,26.84,0,0,1-17.42-7.81,50.55,50.55,0,0,0-18.75,6.88,66.19,66.19,0,0,0-115.84-7,50.8,50.8,0,0,0-33.64,19.59A41.81,41.81,0,0,1,1386.49,177h-5.66A32.22,32.22,0,0,0,1400,187.6v.4h244.06a40.58,40.58,0,1,0,0-81.15,41.28,41.28,0,0,0-9.37,1.08A51.11,51.11,0,0,0,1621.32,95h-18.53Z" transform="translate(0 1)"/><path class="cls-82" d="M1602.79,95a26.84,26.84,0,0,1-17.42-7.81,50.55,50.55,0,0,0-18.75,6.88,66.19,66.19,0,0,0-115.84-7,50.8,50.8,0,0,0-33.64,19.59A41.81,41.81,0,0,1,1386.49,177h-5.66A32.22,32.22,0,0,0,1400,187.6v.4h244.06a40.58,40.58,0,1,0,0-81.15,41.28,41.28,0,0,0-9.37,1.08A51.11,51.11,0,0,0,1621.32,95h-18.53Z" transform="translate(0 1)"/><path class="cls-83" d="M120.46,574.6v.4H364.52a40.66,40.66,0,0,0,40.06-33.58L107.3,569.35A32.17,32.17,0,0,0,120.46,574.6Z" transform="translate(0 1)"/><path class="cls-84" d="M364.52,493.85a41.22,41.22,0,0,0-9.37,1.08A51,51,0,0,0,287.08,481a66.19,66.19,0,0,0-115.84-7A50.87,50.87,0,0,0,129,510.94a33.22,33.22,0,0,0-3.48-.18,32.1,32.1,0,0,0-18.24,58.59l297.28-27.93a41.32,41.32,0,0,0,.61-7A40.62,40.62,0,0,0,364.52,493.85Z" transform="translate(0 1)"/><path class="cls-85" d="M364.52,493.85a41.22,41.22,0,0,0-9.37,1.08A51,51,0,0,0,287.08,481a66.19,66.19,0,0,0-115.84-7A50.87,50.87,0,0,0,129,510.94a33.22,33.22,0,0,0-3.48-.18,32.1,32.1,0,0,0-18.24,58.59l297.28-27.93a41.32,41.32,0,0,0,.61-7A40.62,40.62,0,0,0,364.52,493.85Z" transform="translate(0 1)"/><path class="cls-86" d="M364.52,493.85a41.22,41.22,0,0,0-9.37,1.08A51,51,0,0,0,287.08,481a66.19,66.19,0,0,0-115.84-7A50.87,50.87,0,0,0,129,510.94a33.22,33.22,0,0,0-3.48-.18,32.1,32.1,0,0,0-18.24,58.59l297.28-27.93a41.32,41.32,0,0,0,.61-7A40.62,40.62,0,0,0,364.52,493.85Z" transform="translate(0 1)"/><path class="cls-87" d="M1774.16,0h59.2c-.22-.33-.42-.67-.65-1H1730.47c-.23.33-.44.67-.66,1Z" transform="translate(0 1)"/><path class="cls-88" d="M1830.64,95v0c.52,0,1,0,1.58,0a26.82,26.82,0,0,0,10.27-51.63A61.31,61.31,0,0,0,1833.36,0h-59.2l-18.78,95Z" transform="translate(0 1)"/><path class="cls-89" d="M1830.64,95v0c.52,0,1,0,1.58,0a26.82,26.82,0,0,0,10.27-51.63A61.31,61.31,0,0,0,1833.36,0h-59.2l-18.78,95Z" transform="translate(0 1)"/><path class="cls-90" d="M1723.05.33a47.39,47.39,0,0,0-33.23,13.54,47.5,47.5,0,0,0-80.34,28,26.82,26.82,0,0,0-24.11,45.31,50.84,50.84,0,0,1,36,7.86h134.06l18.78-95h-44.35c-.16.25-.33.49-.49.75A46.39,46.39,0,0,0,1723.05.33Z" transform="translate(0 1)"/><path class="cls-91" d="M1723.05.33a47.39,47.39,0,0,0-33.23,13.54,47.5,47.5,0,0,0-80.34,28,26.82,26.82,0,0,0-24.11,45.31,50.84,50.84,0,0,1,36,7.86h134.06l18.78-95h-44.35c-.16.25-.33.49-.49.75A46.39,46.39,0,0,0,1723.05.33Z" transform="translate(0 1)"/><path class="cls-88" d="M1723.05.33a47.39,47.39,0,0,0-33.23,13.54,47.5,47.5,0,0,0-80.34,28,26.82,26.82,0,0,0-24.11,45.31,50.84,50.84,0,0,1,36,7.86h134.06l18.78-95h-44.35c-.16.25-.33.49-.49.75A46.39,46.39,0,0,0,1723.05.33Z" transform="translate(0 1)"/><path class="cls-92" d="M1723.05.33a47.39,47.39,0,0,0-33.23,13.54,47.5,47.5,0,0,0-80.34,28,26.82,26.82,0,0,0-24.11,45.31,50.84,50.84,0,0,1,36,7.86h134.06l18.78-95h-44.35c-.16.25-.33.49-.49.75A46.39,46.39,0,0,0,1723.05.33Z" transform="translate(0 1)"/><path class="cls-93" d="M1585.37,87.17A26.84,26.84,0,0,0,1602.79,95v0h18.53a50.84,50.84,0,0,0-36-7.86Z" transform="translate(0 1)"/><path class="cls-94" d="M1585.37,87.17A26.84,26.84,0,0,0,1602.79,95v0h18.53a50.84,50.84,0,0,0-36-7.86Z" transform="translate(0 1)"/><path class="cls-95" d="M1585.37,87.17A26.84,26.84,0,0,0,1602.79,95v0h18.53a50.84,50.84,0,0,0-36-7.86Z" transform="translate(0 1)"/><path class="cls-96" d="M1585.37,87.17A26.84,26.84,0,0,0,1602.79,95v0h18.53a50.84,50.84,0,0,0-36-7.86Z" transform="translate(0 1)"/><path class="cls-97" d="M1585.37,87.17A26.84,26.84,0,0,0,1602.79,95v0h18.53a50.84,50.84,0,0,0-36-7.86Z" transform="translate(0 1)"/><path class="cls-98" d="M955.41,379.38a48.12,48.12,0,0,0-6.28-.41,47.36,47.36,0,0,0-33.23,13.54,47.5,47.5,0,0,0-80.33,28,27.75,27.75,0,0,0-5.11-.49,26.83,26.83,0,0,0-1.58,53.62v.05h227.84v-.05c.53,0,1.06.05,1.59.05A26.82,26.82,0,0,0,1068.58,422a61.72,61.72,0,0,0-113.17-42.66Z" transform="translate(0 1)"/><path class="cls-99" d="M955.41,379.38a48.12,48.12,0,0,0-6.28-.41,47.36,47.36,0,0,0-33.23,13.54,47.5,47.5,0,0,0-80.33,28,27.75,27.75,0,0,0-5.11-.49,26.83,26.83,0,0,0-1.58,53.62v.05h227.84v-.05c.53,0,1.06.05,1.59.05A26.82,26.82,0,0,0,1068.58,422a61.72,61.72,0,0,0-113.17-42.66Z" transform="translate(0 1)"/><path class="cls-100" d="M955.41,379.38a48.12,48.12,0,0,0-6.28-.41,47.36,47.36,0,0,0-33.23,13.54,47.5,47.5,0,0,0-80.33,28,27.75,27.75,0,0,0-5.11-.49,26.83,26.83,0,0,0-1.58,53.62v.05h227.84v-.05c.53,0,1.06.05,1.59.05A26.82,26.82,0,0,0,1068.58,422a61.72,61.72,0,0,0-113.17-42.66Z" transform="translate(0 1)"/><path class="cls-101" d="M637.11,0l-1.36,0h2.31Z" transform="translate(0 1)"/><path class="cls-102" d="M725,89v-.4A32.17,32.17,0,0,1,698,60a31.49,31.49,0,0,0-3.45-2.49v-.16A57.39,57.39,0,0,0,638.06,0h-2.31a57.49,57.49,0,0,0-50,31.63,44.25,44.25,0,0,0-64.78,34.21,25,25,0,1,0-9.1,48.76v.05H724.06v-.05c.49,0,1,.05,1.47.05a25,25,0,0,0,25.06-25c0-.22,0-.43,0-.65H725Z" transform="translate(0 1)"/><path class="cls-103" d="M725,89v-.4A32.17,32.17,0,0,1,698,60a31.49,31.49,0,0,0-3.45-2.49v-.16A57.39,57.39,0,0,0,638.06,0h-2.31a57.49,57.49,0,0,0-50,31.63,44.25,44.25,0,0,0-64.78,34.21,25,25,0,1,0-9.1,48.76v.05H724.06v-.05c.49,0,1,.05,1.47.05a25,25,0,0,0,25.06-25c0-.22,0-.43,0-.65H725Z" transform="translate(0 1)"/><path class="cls-104" d="M725,89v-.4A32.17,32.17,0,0,1,698,60a31.49,31.49,0,0,0-3.45-2.49v-.16A57.39,57.39,0,0,0,638.06,0h-2.31a57.49,57.49,0,0,0-50,31.63,44.25,44.25,0,0,0-64.78,34.21,25,25,0,1,0-9.1,48.76v.05H724.06v-.05c.49,0,1,.05,1.47.05a25,25,0,0,0,25.06-25c0-.22,0-.43,0-.65H725Z" transform="translate(0 1)"/><path class="cls-105" d="M725.53,64.66a25,25,0,0,0-18.3,7.94A30.85,30.85,0,0,0,698,60,32.17,32.17,0,0,0,725,88.6V89h25.57A25,25,0,0,0,725.53,64.66Z" transform="translate(0 1)"/><path class="cls-106" d="M725.53,64.66a25,25,0,0,0-18.3,7.94A30.85,30.85,0,0,0,698,60,32.17,32.17,0,0,0,725,88.6V89h25.57A25,25,0,0,0,725.53,64.66Z" transform="translate(0 1)"/><path class="cls-107" d="M725.53,64.66a25,25,0,0,0-18.3,7.94A30.85,30.85,0,0,0,698,60,32.17,32.17,0,0,0,725,88.6V89h25.57A25,25,0,0,0,725.53,64.66Z" transform="translate(0 1)"/><path class="cls-108" d="M725.53,64.66a25,25,0,0,0-18.3,7.94A30.85,30.85,0,0,0,698,60,32.17,32.17,0,0,0,725,88.6V89h25.57A25,25,0,0,0,725.53,64.66Z" transform="translate(0 1)"/><path class="cls-109" d="M257.82,330.42a40.31,40.31,0,0,1,4.25-18l-.13-.09v-.16a57.7,57.7,0,0,0-.54-7.82,37.38,37.38,0,0,1-7.5-1.84l-.6,2-9.46-1.77a46.69,46.69,0,0,1-42.12,38.39v.16H55.82a26.06,26.06,0,0,0-.21,3.2,25,25,0,0,0,23.58,24.95v.05H287.43A40.61,40.61,0,0,1,257.82,330.42Z" transform="translate(0 1)"/><path class="cls-110" d="M257.82,330.42a40.31,40.31,0,0,1,4.25-18l-.13-.09v-.16a57.7,57.7,0,0,0-.54-7.82,37.38,37.38,0,0,1-7.5-1.84l-.6,2-9.46-1.77a46.69,46.69,0,0,1-42.12,38.39v.16H55.82a26.06,26.06,0,0,0-.21,3.2,25,25,0,0,0,23.58,24.95v.05H287.43A40.61,40.61,0,0,1,257.82,330.42Z" transform="translate(0 1)"/><path class="cls-111" d="M257.82,330.42a40.31,40.31,0,0,1,4.25-18l-.13-.09v-.16a57.7,57.7,0,0,0-.54-7.82,37.38,37.38,0,0,1-7.5-1.84l-.6,2-9.46-1.77a46.69,46.69,0,0,1-42.12,38.39v.16H55.82a26.06,26.06,0,0,0-.21,3.2,25,25,0,0,0,23.58,24.95v.05H287.43A40.61,40.61,0,0,1,257.82,330.42Z" transform="translate(0 1)"/><path class="cls-112" d="M201.72,341.11a46.69,46.69,0,0,0,42.12-38.39l-15.4-2.88a5.78,5.78,0,0,1-3.89-7.2l2.52-8.43c-18.48-4-43.13-9.33-62.19-13.64a57.54,57.54,0,0,0-11.81,15.88,44.25,44.25,0,0,0-64.78,34.21,25.3,25.3,0,0,0-7.62-1.18,25,25,0,0,0-24.85,21.79h145.9Z" transform="translate(0 1)"/><path class="cls-113" d="M201.72,341.11a46.69,46.69,0,0,0,42.12-38.39l-15.4-2.88a5.78,5.78,0,0,1-3.89-7.2l2.52-8.43c-18.48-4-43.13-9.33-62.19-13.64a57.54,57.54,0,0,0-11.81,15.88,44.25,44.25,0,0,0-64.78,34.21,25.3,25.3,0,0,0-7.62-1.18,25,25,0,0,0-24.85,21.79h145.9Z" transform="translate(0 1)"/><path class="cls-114" d="M201.72,341.11a46.69,46.69,0,0,0,42.12-38.39l-15.4-2.88a5.78,5.78,0,0,1-3.89-7.2l2.52-8.43c-18.48-4-43.13-9.33-62.19-13.64a57.54,57.54,0,0,0-11.81,15.88,44.25,44.25,0,0,0-64.78,34.21,25.3,25.3,0,0,0-7.62-1.18,25,25,0,0,0-24.85,21.79h145.9Z" transform="translate(0 1)"/><path class="cls-115" d="M201.72,341.11a46.69,46.69,0,0,0,42.12-38.39l-15.4-2.88a5.78,5.78,0,0,1-3.89-7.2l2.52-8.43c-18.48-4-43.13-9.33-62.19-13.64a57.54,57.54,0,0,0-11.81,15.88,44.25,44.25,0,0,0-64.78,34.21,25.3,25.3,0,0,0-7.62-1.18,25,25,0,0,0-24.85,21.79h145.9Z" transform="translate(0 1)"/><path class="cls-116" d="M32.22-1H0V0H33.89C33.34-.35,32.78-.68,32.22-1Z" transform="translate(0 1)"/><path class="cls-117" d="M126.79,0c-.2-.34-.4-.67-.61-1H36.29l-.6,1Z" transform="translate(0 1)"/><path class="cls-118" d="M81.24,79.65H198.3V79.6c.53,0,1.07.05,1.6.05A27.19,27.19,0,1,0,180,33.9a33.74,33.74,0,0,0-46.91-17.66A52.31,52.31,0,0,0,126.79,0H35.69l-.51.85L33.89,0H0V79.65H81.24Z" transform="translate(0 1)"/><path class="cls-119" d="M81.24,79.65H198.3V79.6c.53,0,1.07.05,1.6.05A27.19,27.19,0,1,0,180,33.9a33.74,33.74,0,0,0-46.91-17.66A52.31,52.31,0,0,0,126.79,0H35.69l-.51.85L33.89,0H0V79.65H81.24Z" transform="translate(0 1)"/><path class="cls-120" d="M81.24,79.65H198.3V79.6c.53,0,1.07.05,1.6.05A27.19,27.19,0,1,0,180,33.9a33.74,33.74,0,0,0-46.91-17.66A52.31,52.31,0,0,0,126.79,0H35.69l-.51.85L33.89,0H0V79.65H81.24Z" transform="translate(0 1)"/><path class="cls-121" d="M1931.35,136.37l-.87,0a25.81,25.81,0,0,0-12,3,25.93,25.93,0,0,0-38.07-.55,29.34,29.34,0,0,0,5.08,58.24h47.69L1966,100.13A46.63,46.63,0,0,0,1931.35,136.37Z" transform="translate(0 1)"/><path class="cls-122" d="M1931.35,136.37l-.87,0a25.81,25.81,0,0,0-12,3,25.93,25.93,0,0,0-38.07-.55,29.34,29.34,0,0,0,5.08,58.24h47.69L1966,100.13A46.63,46.63,0,0,0,1931.35,136.37Z" transform="translate(0 1)"/><polygon class="cls-123" points="1966.02 101.13 1933.14 198 1933.14 198 1966.02 101.13 1966.02 101.13"/><polygon class="cls-121" points="1966.02 101.13 1933.14 198 1933.14 198 1966.02 101.13 1966.02 101.13"/><polygon class="cls-124" points="1966.02 101.13 1933.14 198 1933.14 198 1966.02 101.13 1966.02 101.13"/><path class="cls-125" d="M1966,100.13,1933.14,197H2000V104.78a46.68,46.68,0,0,0-34-4.65Z" transform="translate(0 1)"/><path class="cls-125" d="M1966,100.13,1933.14,197H2000V104.78a46.68,46.68,0,0,0-34-4.65Z" transform="translate(0 1)"/><path class="cls-126" d="M1966,100.13,1933.14,197H2000V104.78a46.68,46.68,0,0,0-34-4.65Z" transform="translate(0 1)"/><path class="cls-127" d="M1966,100.13,1933.14,197H2000V104.78a46.68,46.68,0,0,0-34-4.65Z" transform="translate(0 1)"/><path class="cls-128" d="M1966,100.13,1933.14,197H2000V104.78a46.68,46.68,0,0,0-34-4.65Z" transform="translate(0 1)"/><path class="cls-129" d="M343.36,79.46h43.11A18.72,18.72,0,1,0,378,44.05a20.1,20.1,0,0,0-25.31-.31,30.54,30.54,0,0,0,.37-4.71,30,30,0,0,0-56.92-13.17,27.74,27.74,0,0,0-23.58,50.07,66.27,66.27,0,0,1,70.8,3.53Z" transform="translate(0 1)"/><path class="cls-130" d="M343.36,79.46h43.11A18.72,18.72,0,1,0,378,44.05a20.1,20.1,0,0,0-25.31-.31,30.54,30.54,0,0,0,.37-4.71,30,30,0,0,0-56.92-13.17,27.74,27.74,0,0,0-23.58,50.07,66.27,66.27,0,0,1,70.8,3.53Z" transform="translate(0 1)"/><path class="cls-131" d="M343.36,79.46h43.11A18.72,18.72,0,1,0,378,44.05a20.1,20.1,0,0,0-25.31-.31,30.54,30.54,0,0,0,.37-4.71,30,30,0,0,0-56.92-13.17,27.74,27.74,0,0,0-23.58,50.07,66.27,66.27,0,0,1,70.8,3.53Z" transform="translate(0 1)"/><path class="cls-132" d="M343.36,79.46a66.27,66.27,0,0,0-70.8-3.53,27.65,27.65,0,0,0,13.57,3.53Z" transform="translate(0 1)"/><path class="cls-133" d="M343.36,79.46a66.27,66.27,0,0,0-70.8-3.53,27.65,27.65,0,0,0,13.57,3.53Z" transform="translate(0 1)"/><path class="cls-134" d="M343.36,79.46a66.27,66.27,0,0,0-70.8-3.53,27.65,27.65,0,0,0,13.57,3.53Z" transform="translate(0 1)"/><path class="cls-135" d="M343.36,79.46a66.27,66.27,0,0,0-70.8-3.53,27.65,27.65,0,0,0,13.57,3.53Z" transform="translate(0 1)"/><path class="cls-136" d="M1405.08,123.76a33.22,33.22,0,0,1,3.48.18,50.34,50.34,0,0,1,8.58-17.33,42.08,42.08,0,0,0-45.75-10.49,45.24,45.24,0,0,0-85.31,27,30.31,30.31,0,0,0-38.18.48,28.27,28.27,0,0,0-10.27-2.93,34.7,34.7,0,0,1,.22,3.83,33.55,33.55,0,0,1-28.29,33.1V158h-1.19a28.31,28.31,0,0,0,19.47,18.05,66.19,66.19,0,0,1,102.64.95h50.35a32.1,32.1,0,0,1,24.25-53.24Z" transform="translate(0 1)"/><path class="cls-137" d="M1405.08,123.76a33.22,33.22,0,0,1,3.48.18,50.34,50.34,0,0,1,8.58-17.33,42.08,42.08,0,0,0-45.75-10.49,45.24,45.24,0,0,0-85.31,27,30.31,30.31,0,0,0-38.18.48,28.27,28.27,0,0,0-10.27-2.93,34.7,34.7,0,0,1,.22,3.83,33.55,33.55,0,0,1-28.29,33.1V158h-1.19a28.31,28.31,0,0,0,19.47,18.05,66.19,66.19,0,0,1,102.64.95h50.35a32.1,32.1,0,0,1,24.25-53.24Z" transform="translate(0 1)"/><path class="cls-138" d="M1405.08,123.76a33.22,33.22,0,0,1,3.48.18,50.34,50.34,0,0,1,8.58-17.33,42.08,42.08,0,0,0-45.75-10.49,45.24,45.24,0,0,0-85.31,27,30.31,30.31,0,0,0-38.18.48,28.27,28.27,0,0,0-10.27-2.93,34.7,34.7,0,0,1,.22,3.83,33.55,33.55,0,0,1-28.29,33.1V158h-1.19a28.31,28.31,0,0,0,19.47,18.05,66.19,66.19,0,0,1,102.64.95h50.35a32.1,32.1,0,0,1,24.25-53.24Z" transform="translate(0 1)"/><path class="cls-139" d="M1405.08,123.76a33.22,33.22,0,0,1,3.48.18,50.34,50.34,0,0,1,8.58-17.33,42.08,42.08,0,0,0-45.75-10.49,45.24,45.24,0,0,0-85.31,27,30.31,30.31,0,0,0-38.18.48,28.27,28.27,0,0,0-10.27-2.93,34.7,34.7,0,0,1,.22,3.83,33.55,33.55,0,0,1-28.29,33.1V158h-1.19a28.31,28.31,0,0,0,19.47,18.05,66.19,66.19,0,0,1,102.64.95h50.35a32.1,32.1,0,0,1,24.25-53.24Z" transform="translate(0 1)"/><path class="cls-140" d="M1209.56,157.58a33.55,33.55,0,0,0,28.29-33.1,34.7,34.7,0,0,0-.22-3.83c-.83-.07-1.67-.12-2.51-.12a28.27,28.27,0,0,0-28.31,28.24,27.94,27.94,0,0,0,1.56,9.23h1.19Z" transform="translate(0 1)"/><path class="cls-141" d="M1209.56,157.58a33.55,33.55,0,0,0,28.29-33.1,34.7,34.7,0,0,0-.22-3.83c-.83-.07-1.67-.12-2.51-.12a28.27,28.27,0,0,0-28.31,28.24,27.94,27.94,0,0,0,1.56,9.23h1.19Z" transform="translate(0 1)"/><path class="cls-142" d="M1209.56,157.58a33.55,33.55,0,0,0,28.29-33.1,34.7,34.7,0,0,0-.22-3.83c-.83-.07-1.67-.12-2.51-.12a28.27,28.27,0,0,0-28.31,28.24,27.94,27.94,0,0,0,1.56,9.23h1.19Z" transform="translate(0 1)"/><path class="cls-143" d="M1209.56,157.58a33.55,33.55,0,0,0,28.29-33.1,34.7,34.7,0,0,0-.22-3.83c-.83-.07-1.67-.12-2.51-.12a28.27,28.27,0,0,0-28.31,28.24,27.94,27.94,0,0,0,1.56,9.23h1.19Z" transform="translate(0 1)"/><path class="cls-144" d="M1209.56,157.58a33.55,33.55,0,0,0,28.29-33.1,34.7,34.7,0,0,0-.22-3.83c-.83-.07-1.67-.12-2.51-.12a28.27,28.27,0,0,0-28.31,28.24,27.94,27.94,0,0,0,1.56,9.23h1.19Z" transform="translate(0 1)"/><path class="cls-145" d="M1278.78,152.13a66,66,0,0,0-50.94,23.92,28.16,28.16,0,0,0,7.28.95h95.36A66,66,0,0,0,1278.78,152.13Z" transform="translate(0 1)"/><path class="cls-146" d="M1278.78,152.13a66,66,0,0,0-50.94,23.92,28.16,28.16,0,0,0,7.28.95h95.36A66,66,0,0,0,1278.78,152.13Z" transform="translate(0 1)"/><path class="cls-147" d="M1278.78,152.13a66,66,0,0,0-50.94,23.92,28.16,28.16,0,0,0,7.28.95h95.36A66,66,0,0,0,1278.78,152.13Z" transform="translate(0 1)"/><path class="cls-148" d="M1278.78,152.13a66,66,0,0,0-50.94,23.92,28.16,28.16,0,0,0,7.28.95h95.36A66,66,0,0,0,1278.78,152.13Z" transform="translate(0 1)"/><path class="cls-149" d="M1278.78,152.13a66,66,0,0,0-50.94,23.92,28.16,28.16,0,0,0,7.28.95h95.36A66,66,0,0,0,1278.78,152.13Z" transform="translate(0 1)"/><path class="cls-150" d="M1428.43,135.16a41.64,41.64,0,0,0-11.29-28.55,50.34,50.34,0,0,0-8.58,17.33,33.22,33.22,0,0,0-3.48-.18A32.1,32.1,0,0,0,1380.83,177h5.66A41.88,41.88,0,0,0,1428.43,135.16Z" transform="translate(0 1)"/><path class="cls-151" d="M1428.43,135.16a41.64,41.64,0,0,0-11.29-28.55,50.34,50.34,0,0,0-8.58,17.33,33.22,33.22,0,0,0-3.48-.18A32.1,32.1,0,0,0,1380.83,177h5.66A41.88,41.88,0,0,0,1428.43,135.16Z" transform="translate(0 1)"/><path class="cls-152" d="M1428.43,135.16a41.64,41.64,0,0,0-11.29-28.55,50.34,50.34,0,0,0-8.58,17.33,33.22,33.22,0,0,0-3.48-.18A32.1,32.1,0,0,0,1380.83,177h5.66A41.88,41.88,0,0,0,1428.43,135.16Z" transform="translate(0 1)"/><path class="cls-153" d="M1428.43,135.16a41.64,41.64,0,0,0-11.29-28.55,50.34,50.34,0,0,0-8.58,17.33,33.22,33.22,0,0,0-3.48-.18A32.1,32.1,0,0,0,1380.83,177h5.66A41.88,41.88,0,0,0,1428.43,135.16Z" transform="translate(0 1)"/><path class="cls-154" d="M1428.43,135.16a41.64,41.64,0,0,0-11.29-28.55,50.34,50.34,0,0,0-8.58,17.33,33.22,33.22,0,0,0-3.48-.18A32.1,32.1,0,0,0,1380.83,177h5.66A41.88,41.88,0,0,0,1428.43,135.16Z" transform="translate(0 1)"/><path class="cls-155" d="M379.7,225.25l18.6-7,7.51.51-8.93,9.18L333.8,247.8l.47.1,58,7.58a65.9,65.9,0,0,1,43.55-16.35c2.06,0,4.09.1,6.1.28,11.8-7.31,27.05-16.75,40.15-24.89a48.14,48.14,0,0,0-14.5-5.58,52.69,52.69,0,0,0-14.7-11.05,41.14,41.14,0,0,1-10.36,1.33H304.8c-1,1.64-1.87,3.32-2.68,5.05a40.32,40.32,0,0,0-52.25,24.59c19.85,4.17,36.95,8.22,47.42,10.78Z" transform="translate(0 1)"/><path class="cls-156" d="M379.7,225.25l18.6-7,7.51.51-8.93,9.18L333.8,247.8l.47.1,58,7.58a65.9,65.9,0,0,1,43.55-16.35c2.06,0,4.09.1,6.1.28,11.8-7.31,27.05-16.75,40.15-24.89a48.14,48.14,0,0,0-14.5-5.58,52.69,52.69,0,0,0-14.7-11.05,41.14,41.14,0,0,1-10.36,1.33H304.8c-1,1.64-1.87,3.32-2.68,5.05a40.32,40.32,0,0,0-52.25,24.59c19.85,4.17,36.95,8.22,47.42,10.78Z" transform="translate(0 1)"/><path class="cls-157" d="M379.7,225.25l18.6-7,7.51.51-8.93,9.18L333.8,247.8l.47.1,58,7.58a65.9,65.9,0,0,1,43.55-16.35c2.06,0,4.09.1,6.1.28,11.8-7.31,27.05-16.75,40.15-24.89a48.14,48.14,0,0,0-14.5-5.58,52.69,52.69,0,0,0-14.7-11.05,41.14,41.14,0,0,1-10.36,1.33H304.8c-1,1.64-1.87,3.32-2.68,5.05a40.32,40.32,0,0,0-52.25,24.59c19.85,4.17,36.95,8.22,47.42,10.78Z" transform="translate(0 1)"/><path class="cls-158" d="M266.67,304.69h.38a41.06,41.06,0,0,1,10.23-8.89c-3.14-1-6.56-2.09-10.09-3.22l1.49.61-2.91,9.72-3.94-.73,0,.1-.74-.1c.13.71.24,1.42.34,2.13A38.12,38.12,0,0,0,266.67,304.69Z" transform="translate(0 1)"/><path class="cls-159" d="M266.67,304.69h.38a41.06,41.06,0,0,1,10.23-8.89c-3.14-1-6.56-2.09-10.09-3.22l1.49.61-2.91,9.72-3.94-.73,0,.1-.74-.1c.13.71.24,1.42.34,2.13A38.12,38.12,0,0,0,266.67,304.69Z" transform="translate(0 1)"/><path class="cls-160" d="M266.67,304.69h.38a41.06,41.06,0,0,1,10.23-8.89c-3.14-1-6.56-2.09-10.09-3.22l1.49.61-2.91,9.72-3.94-.73,0,.1-.74-.1c.13.71.24,1.42.34,2.13A38.12,38.12,0,0,0,266.67,304.69Z" transform="translate(0 1)"/><path class="cls-161" d="M521.23,263.46a62.47,62.47,0,0,1,7.62-1l16.38,3.37-22,13.83a8.67,8.67,0,0,1,1.55,3.24,5.09,5.09,0,0,1-1.41,4.21,51,51,0,0,1,7.31,11.06,38.9,38.9,0,0,0,1.62-63.76L513,266C516.74,264.8,520.26,263.71,521.23,263.46Z" transform="translate(0 1)"/><path class="cls-162" d="M521.23,263.46a62.47,62.47,0,0,1,7.62-1l16.38,3.37-22,13.83a8.67,8.67,0,0,1,1.55,3.24,5.09,5.09,0,0,1-1.41,4.21,51,51,0,0,1,7.31,11.06,38.9,38.9,0,0,0,1.62-63.76L513,266C516.74,264.8,520.26,263.71,521.23,263.46Z" transform="translate(0 1)"/><path class="cls-163" d="M521.23,263.46a62.47,62.47,0,0,1,7.62-1l16.38,3.37-22,13.83a8.67,8.67,0,0,1,1.55,3.24,5.09,5.09,0,0,1-1.41,4.21,51,51,0,0,1,7.31,11.06,38.9,38.9,0,0,0,1.62-63.76L513,266C516.74,264.8,520.26,263.71,521.23,263.46Z" transform="translate(0 1)"/><path class="cls-164" d="M391.62,199.22h50.85a41.14,41.14,0,0,0,10.36-1.33,52.47,52.47,0,0,0-44.68-1.21,61,61,0,0,0-103.35,2.54h86.82Z" transform="translate(0 1)"/><path class="cls-165" d="M391.62,199.22h50.85a41.14,41.14,0,0,0,10.36-1.33,52.47,52.47,0,0,0-44.68-1.21,61,61,0,0,0-103.35,2.54h86.82Z" transform="translate(0 1)"/><path class="cls-166" d="M391.62,199.22h50.85a41.14,41.14,0,0,0,10.36-1.33,52.47,52.47,0,0,0-44.68-1.21,61,61,0,0,0-103.35,2.54h86.82Z" transform="translate(0 1)"/><path class="cls-167" d="M391.62,199.22h50.85a41.14,41.14,0,0,0,10.36-1.33,52.47,52.47,0,0,0-44.68-1.21,61,61,0,0,0-103.35,2.54h86.82Z" transform="translate(0 1)"/><path class="cls-168" d="M261.06,302.18l-6.79-.92-.37,1.21a37.38,37.38,0,0,0,7.5,1.84C261.3,303.6,261.19,302.89,261.06,302.18Z" transform="translate(0 1)"/><path class="cls-169" d="M261.06,302.18l-6.79-.92-.37,1.21a37.38,37.38,0,0,0,7.5,1.84C261.3,303.6,261.19,302.89,261.06,302.18Z" transform="translate(0 1)"/><path class="cls-170" d="M261.06,302.18l-6.79-.92-.37,1.21a37.38,37.38,0,0,0,7.5,1.84C261.3,303.6,261.19,302.89,261.06,302.18Z" transform="translate(0 1)"/><path class="cls-171" d="M261.06,302.18l-6.79-.92-.37,1.21a37.38,37.38,0,0,0,7.5,1.84C261.3,303.6,261.19,302.89,261.06,302.18Z" transform="translate(0 1)"/><path class="cls-172" d="M1711.46,331.85A40.57,40.57,0,0,1,1749.79,386H1869l30.39-89.55a48.26,48.26,0,0,0-15.53-6.2A52.42,52.42,0,0,0,1824.48,278a61,61,0,0,0-106,7.6c-.22-.09-.46-.16-.69-.25L1708.55,332C1709.51,331.9,1710.48,331.85,1711.46,331.85Z" transform="translate(0 1)"/><path class="cls-173" d="M1711.46,331.85A40.57,40.57,0,0,1,1749.79,386H1869l30.39-89.55a48.26,48.26,0,0,0-15.53-6.2A52.42,52.42,0,0,0,1824.48,278a61,61,0,0,0-106,7.6c-.22-.09-.46-.16-.69-.25L1708.55,332C1709.51,331.9,1710.48,331.85,1711.46,331.85Z" transform="translate(0 1)"/><polygon class="cls-174" points="1869 387 1869 387 1899.39 297.45 1899.39 297.45 1869 387"/><polygon class="cls-175" points="1869 387 1869 387 1899.39 297.45 1899.39 297.45 1869 387"/><polygon class="cls-176" points="1869 387 1869 387 1899.39 297.45 1899.39 297.45 1869 387"/><path class="cls-177" d="M1925.43,386a39,39,0,1,0-11.76-76.1,48.61,48.61,0,0,0-14.28-13.45L1869,386Z" transform="translate(0 1)"/><path class="cls-177" d="M1925.43,386a39,39,0,1,0-11.76-76.1,48.61,48.61,0,0,0-14.28-13.45L1869,386Z" transform="translate(0 1)"/><path class="cls-178" d="M1925.43,386a39,39,0,1,0-11.76-76.1,48.61,48.61,0,0,0-14.28-13.45L1869,386Z" transform="translate(0 1)"/><path class="cls-179" d="M1925.43,386a39,39,0,1,0-11.76-76.1,48.61,48.61,0,0,0-14.28-13.45L1869,386Z" transform="translate(0 1)"/><path class="cls-180" d="M1925.43,386a39,39,0,1,0-11.76-76.1,48.61,48.61,0,0,0-14.28-13.45L1869,386Z" transform="translate(0 1)"/><path class="cls-181" d="M1665.68,311.83a50.83,50.83,0,0,1,36.4,21.1,41.7,41.7,0,0,1,6.47-1l9.21-46.62a40.27,40.27,0,0,0-52.08,26.49Z" transform="translate(0 1)"/><path class="cls-182" d="M1665.68,311.83a50.83,50.83,0,0,1,36.4,21.1,41.7,41.7,0,0,1,6.47-1l9.21-46.62a40.27,40.27,0,0,0-52.08,26.49Z" transform="translate(0 1)"/><path class="cls-183" d="M1665.68,311.83a50.83,50.83,0,0,1,36.4,21.1,41.7,41.7,0,0,1,6.47-1l9.21-46.62a40.27,40.27,0,0,0-52.08,26.49Z" transform="translate(0 1)"/><path class="cls-184" d="M1665.68,311.83a50.83,50.83,0,0,1,36.4,21.1,41.7,41.7,0,0,1,6.47-1l9.21-46.62a40.27,40.27,0,0,0-52.08,26.49Z" transform="translate(0 1)"/><path class="cls-185" d="M1711.46,331.85c-1,0-2,0-2.91.11l-5.13,25.94a85.66,85.66,0,0,1-11,28.1h57.33a40.57,40.57,0,0,0-38.33-54.15Z" transform="translate(0 1)"/><path class="cls-186" d="M1711.46,331.85c-1,0-2,0-2.91.11l-5.13,25.94a85.66,85.66,0,0,1-11,28.1h57.33a40.57,40.57,0,0,0-38.33-54.15Z" transform="translate(0 1)"/><path class="cls-187" d="M1711.46,331.85c-1,0-2,0-2.91.11l-5.13,25.94a85.66,85.66,0,0,1-11,28.1h57.33a40.57,40.57,0,0,0-38.33-54.15Z" transform="translate(0 1)"/><path class="cls-188" d="M1645.31,348.4A37.65,37.65,0,0,0,1683,386h9.45a85.66,85.66,0,0,0,11-28.1l5.13-25.94a41.7,41.7,0,0,0-6.47,1,50.83,50.83,0,0,0-36.4-21.1c-.35,1.2-.66,2.42-.9,3.66A37.57,37.57,0,0,0,1645.31,348.4Z" transform="translate(0 1)"/><path class="cls-189" d="M1645.31,348.4A37.65,37.65,0,0,0,1683,386h9.45a85.66,85.66,0,0,0,11-28.1l5.13-25.94a41.7,41.7,0,0,0-6.47,1,50.83,50.83,0,0,0-36.4-21.1c-.35,1.2-.66,2.42-.9,3.66A37.57,37.57,0,0,0,1645.31,348.4Z" transform="translate(0 1)"/><path class="cls-190" d="M1645.31,348.4A37.65,37.65,0,0,0,1683,386h9.45a85.66,85.66,0,0,0,11-28.1l5.13-25.94a41.7,41.7,0,0,0-6.47,1,50.83,50.83,0,0,0-36.4-21.1c-.35,1.2-.66,2.42-.9,3.66A37.57,37.57,0,0,0,1645.31,348.4Z" transform="translate(0 1)"/><path class="cls-191" d="M1645.31,348.4A37.65,37.65,0,0,0,1683,386h9.45a85.66,85.66,0,0,0,11-28.1l5.13-25.94a41.7,41.7,0,0,0-6.47,1,50.83,50.83,0,0,0-36.4-21.1c-.35,1.2-.66,2.42-.9,3.66A37.57,37.57,0,0,0,1645.31,348.4Z" transform="translate(0 1)"/><path class="cls-192" d="M1645.31,348.4A37.65,37.65,0,0,0,1683,386h9.45a85.66,85.66,0,0,0,11-28.1l5.13-25.94a41.7,41.7,0,0,0-6.47,1,50.83,50.83,0,0,0-36.4-21.1c-.35,1.2-.66,2.42-.9,3.66A37.57,37.57,0,0,0,1645.31,348.4Z" transform="translate(0 1)"/><path class="cls-193" d="M107,237c-.46,6.75,11.3,22.61,42.51,30,4.41,1.05,9.66,2.25,15.41,3.55,19.06,4.31,43.71,9.66,62.19,13.64l-2.52,8.43a5.78,5.78,0,0,0,3.89,7.2l15.4,2.88,9.46,1.77.6-2,.37-1.21,6.79.92.74.1,0-.1,3.94.73,2.91-9.72-1.49-.61c3.53,1.13,6.95,2.23,10.09,3.22a40.61,40.61,0,0,1,21.22-5.95,41.28,41.28,0,0,1,9.37,1.08A51,51,0,0,1,375.94,277a66.23,66.23,0,0,1,16.29-21.56l-58-7.58-.47-.1,63.08-19.88,8.93-9.18-7.51-.51-18.6,7-82.41,14.39c-10.47-2.56-27.57-6.61-47.42-10.78-30.51-6.4-67.5-13.09-96.78-15.07-10.63-.72-20.15,7.67-20.15,7.67s-4.37,2-9.53,4.55C116.06,229.7,107.12,234.65,107,237Z" transform="translate(0 1)"/><path class="cls-194" d="M107,237c-.46,6.75,11.3,22.61,42.51,30,4.41,1.05,9.66,2.25,15.41,3.55,19.06,4.31,43.71,9.66,62.19,13.64l-2.52,8.43a5.78,5.78,0,0,0,3.89,7.2l15.4,2.88,9.46,1.77.6-2,.37-1.21,6.79.92.74.1,0-.1,3.94.73,2.91-9.72-1.49-.61c3.53,1.13,6.95,2.23,10.09,3.22a40.61,40.61,0,0,1,21.22-5.95,41.28,41.28,0,0,1,9.37,1.08A51,51,0,0,1,375.94,277a66.23,66.23,0,0,1,16.29-21.56l-58-7.58-.47-.1,63.08-19.88,8.93-9.18-7.51-.51-18.6,7-82.41,14.39c-10.47-2.56-27.57-6.61-47.42-10.78-30.51-6.4-67.5-13.09-96.78-15.07-10.63-.72-20.15,7.67-20.15,7.67s-4.37,2-9.53,4.55C116.06,229.7,107.12,234.65,107,237Z" transform="translate(0 1)"/><path class="cls-195" d="M107,237c-.46,6.75,11.3,22.61,42.51,30,4.41,1.05,9.66,2.25,15.41,3.55,19.06,4.31,43.71,9.66,62.19,13.64l-2.52,8.43a5.78,5.78,0,0,0,3.89,7.2l15.4,2.88,9.46,1.77.6-2,.37-1.21,6.79.92.74.1,0-.1,3.94.73,2.91-9.72-1.49-.61c3.53,1.13,6.95,2.23,10.09,3.22a40.61,40.61,0,0,1,21.22-5.95,41.28,41.28,0,0,1,9.37,1.08A51,51,0,0,1,375.94,277a66.23,66.23,0,0,1,16.29-21.56l-58-7.58-.47-.1,63.08-19.88,8.93-9.18-7.51-.51-18.6,7-82.41,14.39c-10.47-2.56-27.57-6.61-47.42-10.78-30.51-6.4-67.5-13.09-96.78-15.07-10.63-.72-20.15,7.67-20.15,7.67s-4.37,2-9.53,4.55C116.06,229.7,107.12,234.65,107,237Z" transform="translate(0 1)"/><path class="cls-193" d="M491.78,270a50.85,50.85,0,0,1,31.62,17.1,5.09,5.09,0,0,0,1.41-4.21,8.67,8.67,0,0,0-1.55-3.24l22-13.83-16.38-3.37a62.47,62.47,0,0,0-7.62,1c-1,.25-4.49,1.34-8.26,2.53l19.36-31.57L556,195.76l-33.62-5.29a88.51,88.51,0,0,0-12.54,6.69c-2.23,1.44-13.81,8.65-27.85,17.36-13.1,8.14-28.35,17.58-40.15,24.89A66.12,66.12,0,0,1,491.78,270Z" transform="translate(0 1)"/><path class="cls-196" d="M491.78,270a50.85,50.85,0,0,1,31.62,17.1,5.09,5.09,0,0,0,1.41-4.21,8.67,8.67,0,0,0-1.55-3.24l22-13.83-16.38-3.37a62.47,62.47,0,0,0-7.62,1c-1,.25-4.49,1.34-8.26,2.53l19.36-31.57L556,195.76l-33.62-5.29a88.51,88.51,0,0,0-12.54,6.69c-2.23,1.44-13.81,8.65-27.85,17.36-13.1,8.14-28.35,17.58-40.15,24.89A66.12,66.12,0,0,1,491.78,270Z" transform="translate(0 1)"/><path class="cls-197" d="M491.78,270a50.85,50.85,0,0,1,31.62,17.1,5.09,5.09,0,0,0,1.41-4.21,8.67,8.67,0,0,0-1.55-3.24l22-13.83-16.38-3.37a62.47,62.47,0,0,0-7.62,1c-1,.25-4.49,1.34-8.26,2.53l19.36-31.57L556,195.76l-33.62-5.29a88.51,88.51,0,0,0-12.54,6.69c-2.23,1.44-13.81,8.65-27.85,17.36-13.1,8.14-28.35,17.58-40.15,24.89A66.12,66.12,0,0,1,491.78,270Z" transform="translate(0 1)"/><path class="cls-198" d="M373,305.14s.37-.19.95-.45h-34.3l13.94,8.17Z" transform="translate(0 1)"/><path class="cls-199" d="M373,305.14s.37-.19.95-.45h-34.3l13.94,8.17Z" transform="translate(0 1)"/><path class="cls-200" d="M373,305.14s.37-.19.95-.45h-34.3l13.94,8.17Z" transform="translate(0 1)"/><path class="cls-201" d="M386.56,304.69l-12.24,14.85-27.76-2.64s-23.26-7.32-39.37-12.21H267.05a40.51,40.51,0,0,0-5,7.69,31,31,0,0,1,12.52,15,25,25,0,1,1,18.3,42.05c-.49,0-1,0-1.47-.05v.05h-4A40.82,40.82,0,0,0,298.5,371H542.56v-.4a32.12,32.12,0,0,0-5.09-63.84,33.17,33.17,0,0,0-3.47.18,50.89,50.89,0,0,0-3.29-8.76,38.94,38.94,0,0,1-21.61,6.51Z" transform="translate(0 1)"/><path class="cls-202" d="M386.56,304.69l-12.24,14.85-27.76-2.64s-23.26-7.32-39.37-12.21H267.05a40.51,40.51,0,0,0-5,7.69,31,31,0,0,1,12.52,15,25,25,0,1,1,18.3,42.05c-.49,0-1,0-1.47-.05v.05h-4A40.82,40.82,0,0,0,298.5,371H542.56v-.4a32.12,32.12,0,0,0-5.09-63.84,33.17,33.17,0,0,0-3.47.18,50.89,50.89,0,0,0-3.29-8.76,38.94,38.94,0,0,1-21.61,6.51Z" transform="translate(0 1)"/><path class="cls-203" d="M386.56,304.69l-12.24,14.85-27.76-2.64s-23.26-7.32-39.37-12.21H267.05a40.51,40.51,0,0,0-5,7.69,31,31,0,0,1,12.52,15,25,25,0,1,1,18.3,42.05c-.49,0-1,0-1.47-.05v.05h-4A40.82,40.82,0,0,0,298.5,371H542.56v-.4a32.12,32.12,0,0,0-5.09-63.84,33.17,33.17,0,0,0-3.47.18,50.89,50.89,0,0,0-3.29-8.76,38.94,38.94,0,0,1-21.61,6.51Z" transform="translate(0 1)"/><path class="cls-204" d="M291.42,369.42c.49,0,1,.05,1.47.05a25,25,0,1,0-18.3-42.05,31,31,0,0,0-12.52-15,40.52,40.52,0,0,0,25.36,57.09h4Z" transform="translate(0 1)"/><path class="cls-205" d="M291.42,369.42c.49,0,1,.05,1.47.05a25,25,0,1,0-18.3-42.05,31,31,0,0,0-12.52-15,40.52,40.52,0,0,0,25.36,57.09h4Z" transform="translate(0 1)"/><path class="cls-206" d="M291.42,369.42c.49,0,1,.05,1.47.05a25,25,0,1,0-18.3-42.05,31,31,0,0,0-12.52-15,40.52,40.52,0,0,0,25.36,57.09h4Z" transform="translate(0 1)"/><path class="cls-207" d="M291.42,369.42c.49,0,1,.05,1.47.05a25,25,0,1,0-18.3-42.05,31,31,0,0,0-12.52-15,40.52,40.52,0,0,0,25.36,57.09h4Z" transform="translate(0 1)"/><path class="cls-208" d="M422.37,251.49l19.51-12.08c-2-.18-4-.28-6.1-.28a65.9,65.9,0,0,0-43.55,16.35l15,2A125.85,125.85,0,0,0,422.37,251.49Z" transform="translate(0 1)"/><path class="cls-209" d="M422.37,251.49l19.51-12.08c-2-.18-4-.28-6.1-.28a65.9,65.9,0,0,0-43.55,16.35l15,2A125.85,125.85,0,0,0,422.37,251.49Z" transform="translate(0 1)"/><path class="cls-210" d="M422.37,251.49l19.51-12.08c-2-.18-4-.28-6.1-.28a65.9,65.9,0,0,0-43.55,16.35l15,2A125.85,125.85,0,0,0,422.37,251.49Z" transform="translate(0 1)"/><path class="cls-211" d="M422.37,251.49l19.51-12.08c-2-.18-4-.28-6.1-.28a65.9,65.9,0,0,0-43.55,16.35l15,2A125.85,125.85,0,0,0,422.37,251.49Z" transform="translate(0 1)"/><path class="cls-212" d="M515.53,292.88l4.1,5.12-14.28-1-11.49-2.59c-34.55,1.61-101.69,4.74-110.64,5.24-12.13.69-47.56-.2-47.56-.2l-6.06-.71,10.09,5.92H374c1.31-.58,3.65-1.5,5.21-1.39,2.26.15,7.47,1.25,7.47,1.25l-.11.14H509.1a38.94,38.94,0,0,0,21.61-6.51,51,51,0,0,0-7.31-11.06C521.3,289.7,517.5,291.87,515.53,292.88Z" transform="translate(0 1)"/><path class="cls-213" d="M515.53,292.88l4.1,5.12-14.28-1-11.49-2.59c-34.55,1.61-101.69,4.74-110.64,5.24-12.13.69-47.56-.2-47.56-.2l-6.06-.71,10.09,5.92H374c1.31-.58,3.65-1.5,5.21-1.39,2.26.15,7.47,1.25,7.47,1.25l-.11.14H509.1a38.94,38.94,0,0,0,21.61-6.51,51,51,0,0,0-7.31-11.06C521.3,289.7,517.5,291.87,515.53,292.88Z" transform="translate(0 1)"/><path class="cls-214" d="M515.53,292.88l4.1,5.12-14.28-1-11.49-2.59c-34.55,1.61-101.69,4.74-110.64,5.24-12.13.69-47.56-.2-47.56-.2l-6.06-.71,10.09,5.92H374c1.31-.58,3.65-1.5,5.21-1.39,2.26.15,7.47,1.25,7.47,1.25l-.11.14H509.1a38.94,38.94,0,0,0,21.61-6.51,51,51,0,0,0-7.31-11.06C521.3,289.7,517.5,291.87,515.53,292.88Z" transform="translate(0 1)"/><path class="cls-215" d="M515.53,292.88l4.1,5.12-14.28-1-11.49-2.59c-34.55,1.61-101.69,4.74-110.64,5.24-12.13.69-47.56-.2-47.56-.2l-6.06-.71,10.09,5.92H374c1.31-.58,3.65-1.5,5.21-1.39,2.26.15,7.47,1.25,7.47,1.25l-.11.14H509.1a38.94,38.94,0,0,0,21.61-6.51,51,51,0,0,0-7.31-11.06C521.3,289.7,517.5,291.87,515.53,292.88Z" transform="translate(0 1)"/><path class="cls-216" d="M267.05,304.69h40.14c-7.23-2.2-13-3.91-14.63-4.25s-7.54-2.18-15.28-4.64A41.06,41.06,0,0,0,267.05,304.69Z" transform="translate(0 1)"/><path class="cls-217" d="M267.05,304.69h40.14c-7.23-2.2-13-3.91-14.63-4.25s-7.54-2.18-15.28-4.64A41.06,41.06,0,0,0,267.05,304.69Z" transform="translate(0 1)"/><path class="cls-218" d="M267.05,304.69h40.14c-7.23-2.2-13-3.91-14.63-4.25s-7.54-2.18-15.28-4.64A41.06,41.06,0,0,0,267.05,304.69Z" transform="translate(0 1)"/><path class="cls-219" d="M267.05,304.69h40.14c-7.23-2.2-13-3.91-14.63-4.25s-7.54-2.18-15.28-4.64A41.06,41.06,0,0,0,267.05,304.69Z" transform="translate(0 1)"/><path class="cls-193" d="M307.19,304.69c16.11,4.89,39.37,12.21,39.37,12.21l27.76,2.64,12.24-14.85.11-.14s-5.21-1.1-7.47-1.25c-1.56-.11-3.9.81-5.21,1.39-.58.26-.95.45-.95.45l-19.41,7.72-13.94-8.17-10.09-5.92,6.06.71s35.43.89,47.56.2c8.95-.5,76.09-3.63,110.64-5.24L505.35,297l14.28,1-4.1-5.12c2-1,5.77-3.18,7.87-5.76A50.85,50.85,0,0,0,491.78,270a66.12,66.12,0,0,0-49.9-30.61l-19.51,12.08a125.85,125.85,0,0,1-15.15,5.95l-15-2A66.23,66.23,0,0,0,375.94,277a51,51,0,0,0-68.07,13.89,41.28,41.28,0,0,0-9.37-1.08,40.61,40.61,0,0,0-21.22,5.95c7.74,2.46,13.75,4.32,15.28,4.64S300,302.49,307.19,304.69Z" transform="translate(0 1)"/><path class="cls-220" d="M307.19,304.69c16.11,4.89,39.37,12.21,39.37,12.21l27.76,2.64,12.24-14.85.11-.14s-5.21-1.1-7.47-1.25c-1.56-.11-3.9.81-5.21,1.39-.58.26-.95.45-.95.45l-19.41,7.72-13.94-8.17-10.09-5.92,6.06.71s35.43.89,47.56.2c8.95-.5,76.09-3.63,110.64-5.24L505.35,297l14.28,1-4.1-5.12c2-1,5.77-3.18,7.87-5.76A50.85,50.85,0,0,0,491.78,270a66.12,66.12,0,0,0-49.9-30.61l-19.51,12.08a125.85,125.85,0,0,1-15.15,5.95l-15-2A66.23,66.23,0,0,0,375.94,277a51,51,0,0,0-68.07,13.89,41.28,41.28,0,0,0-9.37-1.08,40.61,40.61,0,0,0-21.22,5.95c7.74,2.46,13.75,4.32,15.28,4.64S300,302.49,307.19,304.69Z" transform="translate(0 1)"/><path class="cls-221" d="M307.19,304.69c16.11,4.89,39.37,12.21,39.37,12.21l27.76,2.64,12.24-14.85.11-.14s-5.21-1.1-7.47-1.25c-1.56-.11-3.9.81-5.21,1.39-.58.26-.95.45-.95.45l-19.41,7.72-13.94-8.17-10.09-5.92,6.06.71s35.43.89,47.56.2c8.95-.5,76.09-3.63,110.64-5.24L505.35,297l14.28,1-4.1-5.12c2-1,5.77-3.18,7.87-5.76A50.85,50.85,0,0,0,491.78,270a66.12,66.12,0,0,0-49.9-30.61l-19.51,12.08a125.85,125.85,0,0,1-15.15,5.95l-15-2A66.23,66.23,0,0,0,375.94,277a51,51,0,0,0-68.07,13.89,41.28,41.28,0,0,0-9.37-1.08,40.61,40.61,0,0,0-21.22,5.95c7.74,2.46,13.75,4.32,15.28,4.64S300,302.49,307.19,304.69Z" transform="translate(0 1)"/><path class="cls-222" d="M307.19,304.69c16.11,4.89,39.37,12.21,39.37,12.21l27.76,2.64,12.24-14.85.11-.14s-5.21-1.1-7.47-1.25c-1.56-.11-3.9.81-5.21,1.39-.58.26-.95.45-.95.45l-19.41,7.72-13.94-8.17-10.09-5.92,6.06.71s35.43.89,47.56.2c8.95-.5,76.09-3.63,110.64-5.24L505.35,297l14.28,1-4.1-5.12c2-1,5.77-3.18,7.87-5.76A50.85,50.85,0,0,0,491.78,270a66.12,66.12,0,0,0-49.9-30.61l-19.51,12.08a125.85,125.85,0,0,1-15.15,5.95l-15-2A66.23,66.23,0,0,0,375.94,277a51,51,0,0,0-68.07,13.89,41.28,41.28,0,0,0-9.37-1.08,40.61,40.61,0,0,0-21.22,5.95c7.74,2.46,13.75,4.32,15.28,4.64S300,302.49,307.19,304.69Z" transform="translate(0 1)"/></svg>