<svg id="Layer_1" data-name="Layer 1" xmlns="http://www.w3.org/2000/svg" xmlns:xlink="http://www.w3.org/1999/xlink" viewBox="0 0 1366 768"><defs><style>.cls-1{fill:url(#linear-gradient);}.cls-2{fill:url(#linear-gradient-2);}.cls-3{fill:url(#linear-gradient-3);}.cls-4{fill:url(#linear-gradient-4);}.cls-5{fill:url(#linear-gradient-5);}.cls-6{fill:url(#linear-gradient-6);}.cls-7{fill:url(#linear-gradient-7);}.cls-8{fill:url(#linear-gradient-8);}.cls-9{fill:url(#linear-gradient-9);}</style><linearGradient id="linear-gradient" x1="456" y1="402" x2="456" gradientUnits="userSpaceOnUse"><stop offset="0" stop-color="#ecef89" stop-opacity="0.05"/><stop offset="1" stop-color="#fff"/></linearGradient><linearGradient id="linear-gradient-2" x1="27" y1="429" x2="684" y2="-228" gradientUnits="userSpaceOnUse"><stop offset="0" stop-color="#bdbdc9" stop-opacity="0.05"/><stop offset="1" stop-color="#fff"/></linearGradient><linearGradient id="linear-gradient-3" y1="384" x2="1366" y2="384" gradientUnits="userSpaceOnUse"><stop offset="0" stop-color="#0e2c89" stop-opacity="0.25"/><stop offset="1" stop-color="#fff"/></linearGradient><linearGradient id="linear-gradient-4" x1="149.5" y1="917.5" x2="832.5" y2="234.5" gradientUnits="userSpaceOnUse"><stop offset="0" stop-color="#2491d3" stop-opacity="0.8"/><stop offset="1" stop-color="#fff"/></linearGradient><linearGradient id="linear-gradient-5" x1="220.32" y1="312.22" x2="220.32" y2="215.65" gradientUnits="userSpaceOnUse"><stop offset="0" stop-color="#0827a5" stop-opacity="0.05"/><stop offset="1" stop-color="#fff"/></linearGradient><linearGradient id="linear-gradient-6" x1="350.7" y1="206.54" x2="602.93" y2="206.54" xlink:href="#linear-gradient-5"/><linearGradient id="linear-gradient-7" x1="444.11" y1="176.19" x2="498.88" y2="81.34" xlink:href="#linear-gradient-5"/><linearGradient id="linear-gradient-8" x1="266.17" y1="88.67" x2="380.04" y2="88.67" xlink:href="#linear-gradient-5"/><linearGradient id="linear-gradient-9" x1="227.65" y1="252.36" x2="304.83" y2="118.67" xlink:href="#linear-gradient-5"/></defs><title>logIn</title><path class="cls-1" d="M0,0V402l348.08-71.74a119.5,119.5,0,0,0,29-12.89L912,0Z"/><path class="cls-2" d="M0,0V402l348.08-71.74a119.5,119.5,0,0,0,29-12.89L912,0Z"/><path class="cls-3" d="M1366,768H0V0L211.71,468.86a36.45,36.45,0,0,0,24.48,20.38Z"/><path class="cls-4" d="M1366,768H0V0L211.71,468.86a36.45,36.45,0,0,0,24.48,20.38Z"/><path class="cls-5" d="M360.66,276a36.26,36.26,0,0,0-47.1-34.56,45.27,45.27,0,0,0-64.72-10.6,40,40,0,0,0-45,5.17,48.3,48.3,0,0,0-87.06,20,28.67,28.67,0,1,0-8.18,56.15c.5,0,1,0,1.51,0v0h217.3v-.12A36.23,36.23,0,0,0,360.66,276Z"/><path class="cls-6" d="M383.6,194.2a32.69,32.69,0,0,1,7.58.88,41.2,41.2,0,0,1,21.69-15.6,53.48,53.48,0,0,1,95.81,7.29,41.14,41.14,0,0,1,65.4,21.29A26,26,0,0,1,581,259.67V260H383.6a32.9,32.9,0,0,1,0-65.8Z"/><path class="cls-7" d="M531.16,107.84a22.49,22.49,0,0,0-10.22,2.44A24.67,24.67,0,0,0,517,107.6,36.16,36.16,0,0,0,445.77,106h-.67a20,20,0,0,0-9.34,2.3,20.06,20.06,0,0,0-29.51-.43,22.8,22.8,0,0,0,3.94,45.26h121a22.62,22.62,0,1,0,0-45.24Z"/><path class="cls-8" d="M365.5,86.91a14.47,14.47,0,0,0-6.57,1.57,15.56,15.56,0,0,0-19.61-.24,24.43,24.43,0,0,0,.28-3.66,23.25,23.25,0,0,0-44.12-10.24A21.55,21.55,0,1,0,287.72,116H365.5a14.55,14.55,0,0,0,0-29.09Z"/><path class="cls-9" d="M359.48,154.91a30.52,30.52,0,0,0-9.12,1.4,37.6,37.6,0,0,0-23.11-15.26,40.52,40.52,0,0,0-46-9.53,47.21,47.21,0,0,0-82.19,5.9,31.21,31.21,0,0,0-41.6,23.24,29.22,29.22,0,0,0,14.13,54.79H359.48a30.27,30.27,0,0,0,0-60.54Z"/><path d="M266,270a36.81,36.81,0,0,1,12.88-5.68,25.07,25.07,0,0,1,7.19-.55,18.33,18.33,0,0,1,7.05,2,17.46,17.46,0,0,1,6.65,6.23l.5.76.43.8c.27.54.57,1.06.82,1.61l.66,1.67a40.22,40.22,0,0,1,2.32,13.9,57.9,57.9,0,0,0-3.77-13.3c-1.84-4.12-4.59-7.91-8.54-9.9s-8.55-2.32-13-1.65a41.62,41.62,0,0,0-6.68,1.61A54,54,0,0,0,266,270Z"/><path d="M343,270a54,54,0,0,0-6.48-2.54,41.62,41.62,0,0,0-6.68-1.61c-4.48-.67-9.15-.43-13,1.65s-6.7,5.78-8.54,9.9a57.9,57.9,0,0,0-3.77,13.3,40.22,40.22,0,0,1,2.32-13.9l.66-1.67c.25-.55.55-1.07.82-1.61l.43-.8.5-.76a17.46,17.46,0,0,1,6.65-6.23,18.33,18.33,0,0,1,7.05-2,25.07,25.07,0,0,1,7.19.55A36.81,36.81,0,0,1,343,270Z"/><path d="M329,257.07a21.62,21.62,0,0,1,8.86-4.54,14.26,14.26,0,0,1,5.18-.3,11,11,0,0,1,4.94,2,15.84,15.84,0,0,1,5.47,8.64,32.22,32.22,0,0,1,1.05,9.89,67.58,67.58,0,0,0-2.53-9.4,22.27,22.27,0,0,0-2.1-4.2,11.83,11.83,0,0,0-3.06-3.31,11.54,11.54,0,0,0-8.66-1.75A31.41,31.41,0,0,0,329,257.07Z"/><path d="M380,257.07a31.41,31.41,0,0,0-9.15-3,11.54,11.54,0,0,0-8.66,1.75,11.83,11.83,0,0,0-3.06,3.31,22.27,22.27,0,0,0-2.1,4.2,67.58,67.58,0,0,0-2.53,9.4,32.22,32.22,0,0,1,1.05-9.89,15.84,15.84,0,0,1,5.47-8.64,11,11,0,0,1,4.94-2,14.26,14.26,0,0,1,5.18.3A21.62,21.62,0,0,1,380,257.07Z"/><path d="M231,223.48a12,12,0,0,1,5.34-3.07,8.86,8.86,0,0,1,3.26-.25,7,7,0,0,1,3.18,1.24,9.56,9.56,0,0,1,3.39,5.49,16.83,16.83,0,0,1,.35,6.11,57.82,57.82,0,0,0-1.83-5.62,10.08,10.08,0,0,0-3.08-4.35,6.93,6.93,0,0,0-5-1.09A22.58,22.58,0,0,0,231,223.48Z"/><path d="M262,223.48a22.58,22.58,0,0,0-5.62-1.54,6.93,6.93,0,0,0-5,1.09,10.24,10.24,0,0,0-3.08,4.35c-.72,1.76-1.24,3.67-1.83,5.62a17,17,0,0,1,.35-6.11,9.61,9.61,0,0,1,3.39-5.49,7,7,0,0,1,3.18-1.24,8.93,8.93,0,0,1,3.27.25A12,12,0,0,1,262,223.48Z"/></svg>