<svg id="logo" xmlns="http://www.w3.org/2000/svg" viewBox="0 0 466 218.98"><defs><style>.cls-1,.cls-3{fill:none;}.cls-1,.cls-2,.cls-3,.cls-4{stroke:#000;}.cls-1,.cls-3,.cls-4{stroke-miterlimit:10;}.cls-1{stroke-width:2px;}.cls-2,.cls-4{stroke-width:3px;}.cls-3{stroke-width:13px;}.cls-4{fill:#fff;}</style></defs><title>Logo</title><path d="M321.41,185.7c2.84-.37,4.75-1.56,5.71-3.58a10.94,10.94,0,0,0,.82-4.76q0-6.36-4.5-9.23t-12.88-2.87q-9.68,0-13.74,5.26-2.26,2.91-2.95,8.65H282.31q.35-13.66,8.83-19a36.14,36.14,0,0,1,19.7-5.35q13,0,21.11,5t8,15.42l-.34,56.72s-7.37-1.52-9.3-4.55a17.4,17.4,0,0,1-2.13-6.81,31.49,31.49,0,0,1-10.88,8.6,33.63,33.63,0,0,1-15.62,3.65q-10.26,0-16.76-6.22A20.65,20.65,0,0,1,278.45,211q0-10.25,6.4-15.88t16.8-7Z" transform="translate(-40 -19.18)"/><path class="cls-1" d="M293.87,182.87H282.31" transform="translate(-40 -19.18)"/><path class="cls-2" d="M164.27,42.7l26.18-20.44v211.2H164.27Zm30.82-20.44v211.2m-34.52,0V42.7" transform="translate(-40 -19.18)"/><path d="M268.08,229c-3.78,2-12.18,4.61-22.88,4.61-24,0-39.67-16.3-39.67-40.66,0-24.53,16.79-42.31,42.8-42.31,8.56,0,16.13,2.14,20.08,4.12L265.12,166c-3.46-2-8.89-3.79-16.79-3.79-18.27,0-28.15,13.5-28.15,30.13,0,18.44,11.85,29.8,27.66,29.8a41.19,41.19,0,0,0,17.78-3.95Z" transform="translate(-40 -19.18)"/><path d="M496.23,164.87Q506,174.36,506,192.8q0,17.8-8.61,29.43t-26.73,11.62q-15.11,0-24-10.28T437.78,196q0-18.57,9.37-29.57t25.15-11A33.09,33.09,0,0,1,496.23,164.87Zm-7.7,49a46.77,46.77,0,0,0,4.53-20.73q0-10.3-3.27-16.77-5.18-10.19-17.83-10.18-11.23,0-16.34,8.66t-5.1,20.9q0,11.76,5.1,19.6t16.2,7.84Q484,223.19,488.53,213.87Z" transform="translate(-40 -19.18)"/><path class="cls-3" d="M422.79,234.1V187.18s0-28.16-29.42-28.16-29.43,28.16-29.43,28.16V234.1" transform="translate(-40 -19.18)"/><line class="cls-4" x1="314.67" y1="137.99" x2="314.67" y2="214.92"/><path d="M129.55,185.7c2.84-.37,4.75-1.56,5.71-3.58a10.94,10.94,0,0,0,.82-4.76q0-6.36-4.5-9.23t-12.88-2.87q-9.67,0-13.74,5.26-2.26,2.91-2.95,8.65H90.45q.35-13.66,8.83-19A36.14,36.14,0,0,1,119,154.8q13,0,21.11,5t8,15.42l-.34,56.72s-7.37-1.52-9.3-4.55a17.4,17.4,0,0,1-2.13-6.81,31.49,31.49,0,0,1-10.88,8.6,33.63,33.63,0,0,1-15.62,3.65q-10.26,0-16.76-6.22A20.65,20.65,0,0,1,86.59,211q0-10.25,6.4-15.88t16.8-7Z" transform="translate(-40 -19.18)"/><path class="cls-1" d="M102,182.87H90.45" transform="translate(-40 -19.18)"/><line class="cls-1" x1="73.25" y1="73.08" x2="38.45" y2="93.01"/><path d="M99.69,19.91c-12.2,0-25.28,3.87-35.1,13.39-12.2,11.6-16.66,30-16.66,50.27v6.84H40v19.93h7.93v124H73.81v-124l34.8-19.93H73.81V82.68c0-22,5.65-41.65,28-41.65,7.37,0,16.09.28,16.09.28l.46-18.56A62.51,62.51,0,0,0,99.69,19.91Z" transform="translate(-40 -19.18)"/><line class="cls-1" x1="7.93" y1="217.98" x2="33.81" y2="217.98"/></svg>