<svg id="Layer_1" data-name="Layer 1" xmlns="http://www.w3.org/2000/svg" viewBox="0 0 467.8 489.4"><defs><style>.cls-1{fill:#c93;}.cls-2{fill:#ccc;}.cls-3{fill:#fff;}</style></defs><title>Billing</title><circle class="cls-1" cx="233.9" cy="244.5" r="133.9"/><path class="cls-2" d="M475.9,187.7a24.35,24.35,0,0,0-10.6-32.8l-54.2-27.5a6.09,6.09,0,0,1-3.3-4.6l-9.6-60.1a24.29,24.29,0,0,0-24-20.6,25.61,25.61,0,0,0-3.9.3l-60,9.6a6.33,6.33,0,0,1-5.4-1.8l-43-43A24.22,24.22,0,0,0,244.7,0a23.81,23.81,0,0,0-17.2,7.2l-43,43a6.33,6.33,0,0,1-5.4,1.8l-60-9.6a25.61,25.61,0,0,0-3.9-.3,24.14,24.14,0,0,0-24,20.6l-9.5,60.1a6.34,6.34,0,0,1-3.3,4.6L24.2,154.9a24.35,24.35,0,0,0-10.6,32.8l27.7,54.1a6.35,6.35,0,0,1,0,5.7L13.5,301.7a24.35,24.35,0,0,0,10.6,32.8L78.3,362a6.09,6.09,0,0,1,3.3,4.6L91,426.7a24.29,24.29,0,0,0,24,20.6,25.61,25.61,0,0,0,3.9-.3l60-9.6a6.33,6.33,0,0,1,5.4,1.8l43,43a24.22,24.22,0,0,0,17.2,7.2,23.81,23.81,0,0,0,17.2-7.2l43-43a6.33,6.33,0,0,1,5.4-1.8l60,9.6a25.61,25.61,0,0,0,3.9.3,24.14,24.14,0,0,0,24-20.6l9.5-60.1a6.34,6.34,0,0,1,3.3-4.6L465,334.5a24.35,24.35,0,0,0,10.6-32.8l-27.7-54.1a6.35,6.35,0,0,1,0-5.7Zm-43.8,68.1,27.7,54.1a6.18,6.18,0,0,1,.4,4.8,5.85,5.85,0,0,1-3.1,3.6l-54.2,27.6a24.37,24.37,0,0,0-13,17.9l-9.5,60.1a6.22,6.22,0,0,1-7.1,5.2l-60-9.6a25.31,25.31,0,0,0-3.8-.3,23.81,23.81,0,0,0-17.2,7.2l-43,43a6.28,6.28,0,0,1-8.8,0l-43-43a24.64,24.64,0,0,0-17.2-7.2,23.4,23.4,0,0,0-3.8.3l-60,9.6a6.3,6.3,0,0,1-7.1-5.2L100,363.8a24.37,24.37,0,0,0-13-17.9L32.8,318.4a6.19,6.19,0,0,1-2.7-8.4l27.7-54.1a24.78,24.78,0,0,0,0-22.2L29.7,179.5a6.18,6.18,0,0,1-.4-4.8,5.85,5.85,0,0,1,3.1-3.6l54.2-27.5a24.37,24.37,0,0,0,13-17.9L109,65.6a6.35,6.35,0,0,1,7.1-5.2l60,9.6a25.31,25.31,0,0,0,3.8.3h0a23.81,23.81,0,0,0,17.2-7.2l43-43a6.28,6.28,0,0,1,8.8,0l43,43A24.26,24.26,0,0,0,313,69.9l60-9.6a6.3,6.3,0,0,1,7.1,5.2l9.5,60.1a24.37,24.37,0,0,0,13,17.9L456.8,171a6.19,6.19,0,0,1,2.7,8.4l-27.7,54.1A25.32,25.32,0,0,0,432.1,255.8Z" transform="translate(-10.8)"/><path class="cls-3" d="M257.1,235.5H232.2a18.2,18.2,0,0,1,0-36.4H276a9.1,9.1,0,1,0,0-18.2H253.6V164a9.1,9.1,0,0,0-18.2,0v16.9H232a36.3,36.3,0,0,0,0,72.6h24.9a18.2,18.2,0,1,1,0,36.4H212.2a9.1,9.1,0,1,0,0,18.2h23.2v17.2a9.1,9.1,0,0,0,18.2,0V308.1H257a36.3,36.3,0,0,0,.1-72.6Z" transform="translate(-10.8)"/><path class="cls-2" d="M121.9,190.3a9.24,9.24,0,0,0,4.2,1,9,9,0,1,0-4.2-1Z" transform="translate(-10.8)"/><path class="cls-2" d="M315.5,141.7a9,9,0,0,0,5.1,1.6,9.25,9.25,0,0,0,7.5-3.9,9.06,9.06,0,1,0-12.6,2.3Z" transform="translate(-10.8)"/><path class="cls-2" d="M344.8,164.7a8.71,8.71,0,0,0,6-2.3,9.13,9.13,0,0,0,.8-12.8,9.06,9.06,0,1,0-13.5,12.1A8.75,8.75,0,0,0,344.8,164.7Z" transform="translate(-10.8)"/><path class="cls-2" d="M289.2,361.2a9.05,9.05,0,0,0,3.3,17.5,8.66,8.66,0,0,0,3.2-.6,9.05,9.05,0,1,0-6.5-16.9Z" transform="translate(-10.8)"/><path class="cls-2" d="M315.8,347.1a9.12,9.12,0,0,0-2.3,12.6,9.25,9.25,0,0,0,7.5,3.9,9,9,0,0,0,7.5-14.2A9.24,9.24,0,0,0,315.8,347.1Z" transform="translate(-10.8)"/><path class="cls-2" d="M200.7,361.4a9.08,9.08,0,1,0-6.4,17,8.66,8.66,0,0,0,3.2.6,9.09,9.09,0,0,0,3.2-17.6Z" transform="translate(-10.8)"/><path class="cls-2" d="M260,368.4a9,9,0,0,0-7.9,10.1,9.15,9.15,0,0,0,9,8,4.1,4.1,0,0,0,1.1-.1,9.07,9.07,0,1,0-2.2-18Z" transform="translate(-10.8)"/><path class="cls-2" d="M229.9,368.5h0a9.11,9.11,0,0,0-10.1,8,9,9,0,0,0,7.9,10c.4,0,.7.1,1.1.1a9.15,9.15,0,0,0,9-8A9,9,0,0,0,229.9,368.5Z" transform="translate(-10.8)"/><path class="cls-2" d="M365.9,214.5h0a9.07,9.07,0,0,0,8.8,6.9,8.33,8.33,0,0,0,2.2-.3,9.07,9.07,0,1,0-11-6.6Z" transform="translate(-10.8)"/><path class="cls-2" d="M378.6,235.3a9.13,9.13,0,0,0-9.1,9.1,9.05,9.05,0,1,0,9.1-9.1Z" transform="translate(-10.8)"/><path class="cls-2" d="M376.9,267.6a9.07,9.07,0,1,0-4.4,17.6,7.8,7.8,0,0,0,2.2.3,9.07,9.07,0,0,0,8.8-6.9A8.91,8.91,0,0,0,376.9,267.6Z" transform="translate(-10.8)"/><path class="cls-2" d="M363.2,191.2a9,9,0,0,0,4.2-1,9.14,9.14,0,1,0-4.2,1Z" transform="translate(-10.8)"/><path class="cls-2" d="M338.3,327.1a9,9,0,0,0,.8,12.8,9.2,9.2,0,0,0,6,2.3,8.87,8.87,0,0,0,6.8-3.1,9.07,9.07,0,0,0-13.6-12Z" transform="translate(-10.8)"/><path class="cls-2" d="M367.6,298.5a9,9,0,1,0-8.4,16,9,9,0,0,0,8.4-16Z" transform="translate(-10.8)"/><path class="cls-2" d="M144.5,164.8a9,9,0,1,0-6-2.2A8.91,8.91,0,0,0,144.5,164.8Z" transform="translate(-10.8)"/><path class="cls-2" d="M122,299a9.18,9.18,0,0,0-3.8,12.3A9,9,0,1,0,122,299Z" transform="translate(-10.8)"/><path class="cls-2" d="M123.5,274.7a9.07,9.07,0,1,0-8.8,11.3,8.33,8.33,0,0,0,2.2-.3A9,9,0,0,0,123.5,274.7Z" transform="translate(-10.8)"/><path class="cls-2" d="M112.5,221.3a8.33,8.33,0,0,0,2.2.3,9.18,9.18,0,1,0-2.2-.3Z" transform="translate(-10.8)"/><path class="cls-2" d="M110.8,254a9,9,0,0,0,9-9.1v-.4a9.05,9.05,0,1,0-18.1,0v.4a9.2,9.2,0,0,0,9.1,9.1Z" transform="translate(-10.8)"/><path class="cls-2" d="M138.7,326.8a9.05,9.05,0,0,0,6.1,15.8,8.54,8.54,0,0,0,6-2.3,9,9,0,0,0,.7-12.8A9.13,9.13,0,0,0,138.7,326.8Z" transform="translate(-10.8)"/><path class="cls-2" d="M228.4,120.7a4.1,4.1,0,0,0,1.1-.1,9.07,9.07,0,1,0-10.1-7.9A9.15,9.15,0,0,0,228.4,120.7Z" transform="translate(-10.8)"/><path class="cls-2" d="M259.6,120.6c.4,0,.7.1,1.1.1a9.33,9.33,0,1,0-1.1-.1Z" transform="translate(-10.8)"/><path class="cls-2" d="M288.9,127.7a8.66,8.66,0,0,0,3.2.6,9.12,9.12,0,1,0-3.2-.6Z" transform="translate(-10.8)"/><path class="cls-2" d="M197.1,128.4a8.66,8.66,0,0,0,3.2-.6,9.08,9.08,0,1,0-6.4-17h0a9,9,0,0,0-5.2,11.7A8.89,8.89,0,0,0,197.1,128.4Z" transform="translate(-10.8)"/><path class="cls-2" d="M174,347.4a9.06,9.06,0,1,0-5.2,16.5,9.25,9.25,0,0,0,7.5-3.9A8.94,8.94,0,0,0,174,347.4Z" transform="translate(-10.8)"/><path class="cls-2" d="M168.6,143.4a9.05,9.05,0,1,0-7.4-3.9A8.69,8.69,0,0,0,168.6,143.4Z" transform="translate(-10.8)"/></svg>