<svg id="Layer_1" data-name="Layer 1" xmlns="http://www.w3.org/2000/svg" viewBox="0 0 49.85 70.76"><defs><style>.cls-1{fill:#6b6b6b;stroke:#000;stroke-miterlimit:10;}</style></defs><title>Quilly Logo - Black Border</title><path class="cls-1" d="M52.63,66.42C47.22,66,45.1,62.6,41,60a19.06,19.06,0,0,0-1.78-1c0-.05-.07-.11-.12-.17-2.52-2.91-1.5-7.69-4-10.72-1.12-1.36-3-2-4.32-3.23a17.58,17.58,0,0,1-4.41-7.79C24.45,31,21.72,19,25.6,12.44a15.59,15.59,0,0,1,10.27-5c5.51-.26,11.24,2.25,13.94,7.14,5.39,9.76,1.66,27-7,33.85-2.73,2.14,1.11,5.94,3.82,3.82C55.25,45.48,58.69,31,57.21,20.51,55.66,9.46,47.72,2.33,36.52,2.08A19.19,19.19,0,0,0,22.3,8.13a2.54,2.54,0,0,0-.43.29C12,16.51,7.26,30.48,9.08,43c.82,5.66,3.24,11.93,7.65,15.8,4.83,4.25,13.2,3.81,19.45,4.76a12.45,12.45,0,0,1,2.43,1.33c4.75,3.44,7.74,6.48,14,6.91C56.09,72.07,56.08,66.67,52.63,66.42ZM28.11,48.5c2.52,2.21,4.13,3.7,5,7.19l.19.75a19.35,19.35,0,0,1-4.78-2.77c-8.35-6.88-11.79-19.78-9-30.35a57.64,57.64,0,0,0,1.18,9.32C21.88,38.41,23.51,44.47,28.11,48.5ZM13.39,41.26a34.79,34.79,0,0,1,0-7.19c.68,8.67,4.4,17.25,10.84,23,.23.21.48.4.72.6a20.15,20.15,0,0,1-3.08-1C16.34,54.49,14,46.64,13.39,41.26Z" transform="translate(-8.2 -1.57)"/></svg>