<svg width="24" height="24" viewBox="0 0 24 24" fill="none" xmlns="http://www.w3.org/2000/svg">
<path d="M18.62 8.21998L13.62 4.21998C13.4435 4.08047 13.225 4.00458 13 4.00458C12.775 4.00458 12.5565 4.08047 12.38 4.21998L7.38 8.21998C7.19782 8.39194 7.08682 8.62603 7.06897 8.87592C7.05112 9.12581 7.12771 9.3733 7.2836 9.56942C7.43949 9.76554 7.66332 9.896 7.91079 9.93499C8.15827 9.97398 8.41136 9.91866 8.62 9.77998L12 7.07998V16C12 16.2652 11.8946 16.5195 11.7071 16.7071C11.5196 16.8946 11.2652 17 11 17H6C5.73478 17 5.48043 17.1053 5.29289 17.2929C5.10536 17.4804 5 17.7348 5 18C5 18.2652 5.10536 18.5195 5.29289 18.7071C5.48043 18.8946 5.73478 19 6 19H11C11.7956 19 12.5587 18.6839 13.1213 18.1213C13.6839 17.5587 14 16.7956 14 16V7.07998L17.38 9.77998C17.5559 9.92114 17.7744 9.99867 18 9.99998C18.1502 9.99928 18.2983 9.96476 18.4334 9.89898C18.5684 9.83319 18.6869 9.73783 18.78 9.61998C18.9435 9.41274 19.0184 9.14927 18.9885 8.88701C18.9585 8.62475 18.826 8.38497 18.62 8.21998Z" fill="#454F63"/>
</svg>
