<svg width="24" height="24" viewBox="0 0 24 24" fill="none" xmlns="http://www.w3.org/2000/svg">
<path d="M19.4 7.33998L16.66 4.59998C16.3024 4.26408 15.8338 4.07134 15.3433 4.05843C14.8529 4.04553 14.3748 4.21335 14 4.52998L4.99999 13.53C4.67676 13.8559 4.4755 14.2832 4.42999 14.74L3.99999 18.91C3.98652 19.0564 4.00553 19.2041 4.05565 19.3424C4.10578 19.4806 4.18579 19.6062 4.28999 19.71C4.38343 19.8027 4.49425 19.876 4.61609 19.9258C4.73792 19.9755 4.86838 20.0007 4.99999 20H5.08999L9.25999 19.62C9.71679 19.5745 10.144 19.3732 10.47 19.05L19.47 10.05C19.8193 9.68095 20.0081 9.18849 19.995 8.68052C19.9818 8.17254 19.7679 7.69049 19.4 7.33998ZM9.07999 17.62L6.07999 17.9L6.34999 14.9L12 9.31998L14.7 12.02L9.07999 17.62ZM16 10.68L13.32 7.99998L15.27 5.99998L18 8.72998L16 10.68Z" fill="#00B2D9"/>
</svg>
