<svg width="20" height="20" viewBox="0 0 20 20" fill="none" xmlns="http://www.w3.org/2000/svg">
<path d="M13.4308 12.4667L17.3 16.3333C17.3635 16.3968 17.4138 16.4722 17.4482 16.5551C17.4825 16.638 17.5002 16.7269 17.5002 16.8167C17.5002 16.9064 17.4825 16.9953 17.4482 17.0783C17.4138 17.1612 17.3635 17.2365 17.3 17.3C17.2365 17.3635 17.1612 17.4138 17.0783 17.4482C16.9953 17.4825 16.9064 17.5002 16.8167 17.5002C16.7269 17.5002 16.638 17.4825 16.5551 17.4482C16.4722 17.4138 16.3968 17.3635 16.3333 17.3L12.4667 13.4308C11.2414 14.4097 9.6879 14.8822 8.12514 14.7514C6.56239 14.6206 5.10903 13.8964 4.06355 12.7275C3.01807 11.5586 2.45983 10.0338 2.50348 8.46616C2.54712 6.89855 3.18935 5.40714 4.29824 4.29824C5.40714 3.18935 6.89855 2.54712 8.46616 2.50348C10.0338 2.45983 11.5586 3.01807 12.7275 4.06355C13.8964 5.10903 14.6206 6.56239 14.7514 8.12514C14.8822 9.6879 14.4097 11.2414 13.4308 12.4667ZM8.63667 13.4092C9.58055 13.409 10.5032 13.129 11.2879 12.6045C12.0726 12.0799 12.6842 11.3345 13.0453 10.4625C13.4064 9.59038 13.5008 8.63081 13.3165 7.70509C13.1323 6.77938 12.6777 5.92908 12.0102 5.26171C11.3427 4.59435 10.4924 4.1399 9.5666 3.95582C8.64085 3.77174 7.6813 3.8663 6.80929 4.22754C5.93728 4.58878 5.19197 5.20049 4.66759 5.9853C4.14322 6.77012 3.86334 7.6928 3.86334 8.63667C3.86334 9.26348 3.98681 9.88414 4.22671 10.4632C4.4666 11.0423 4.81821 11.5685 5.26147 12.0116C5.70472 12.4548 6.23094 12.8063 6.81006 13.0461C7.38918 13.2859 8.00987 13.4093 8.63667 13.4092Z" fill="#454F63"/>
</svg>
