<svg width="24" height="24" viewBox="0 0 24 24" fill="none" xmlns="http://www.w3.org/2000/svg">
<path d="M16 10H7.07998L9.77998 6.62002C9.87503 6.51932 9.94813 6.39998 9.99465 6.26955C10.0412 6.13913 10.0601 6.00046 10.0502 5.86234C10.0404 5.72422 10.0019 5.58965 9.93733 5.46716C9.87274 5.34467 9.78342 5.23694 9.67502 5.15077C9.56662 5.06461 9.4415 5.00189 9.3076 4.96661C9.1737 4.93132 9.03393 4.92423 8.89714 4.94578C8.76035 4.96733 8.62953 5.01706 8.51297 5.0918C8.3964 5.16655 8.29663 5.2647 8.21998 5.38002L4.21998 10.38C4.08047 10.5566 4.00458 10.775 4.00458 11C4.00458 11.225 4.08047 11.4435 4.21998 11.62L8.21998 16.62C8.3131 16.7379 8.43158 16.8332 8.56662 16.899C8.70165 16.9648 8.84977 16.9993 8.99998 17C9.22554 16.9987 9.44404 16.9212 9.61998 16.78C9.82602 16.615 9.95848 16.3752 9.98845 16.113C10.0184 15.8507 9.94348 15.5872 9.77998 15.38L7.07998 12H16C16.2652 12 16.5195 12.1054 16.7071 12.2929C16.8946 12.4804 17 12.7348 17 13V18C17 18.2652 17.1053 18.5196 17.2929 18.7071C17.4804 18.8947 17.7348 19 18 19C18.2652 19 18.5195 18.8947 18.7071 18.7071C18.8946 18.5196 19 18.2652 19 18V13C19 12.2044 18.6839 11.4413 18.1213 10.8787C17.5587 10.3161 16.7956 10 16 10Z" fill="#454F63"/>
</svg>
