<svg width="24" height="24" viewBox="0 0 24 24" fill="none" xmlns="http://www.w3.org/2000/svg">
<path d="M21 11.35C20.9885 11.164 20.9253 10.985 20.8176 10.8331C20.7098 10.6811 20.5617 10.5623 20.39 10.49L18.24 9.56998L20.5 8.26998C20.6602 8.17782 20.7918 8.04306 20.88 7.88065C20.9683 7.71825 21.0098 7.53456 21 7.34998C20.9885 7.16404 20.9253 6.985 20.8176 6.83305C20.7098 6.6811 20.5617 6.56228 20.39 6.48998L12.39 3.07998C12.2666 3.02772 12.134 3.00079 12 3.00079C11.866 3.00079 11.7334 3.02772 11.61 3.07998L3.61001 6.48998C3.43832 6.56228 3.29024 6.6811 3.18246 6.83305C3.07468 6.985 3.01149 7.16404 3.00001 7.34998C2.99018 7.53456 3.03171 7.71825 3.11997 7.88065C3.20824 8.04306 3.33978 8.17782 3.50001 8.26998L5.76001 9.56998L3.61001 10.49C3.43832 10.5623 3.29024 10.6811 3.18246 10.8331C3.07468 10.985 3.01149 11.164 3.00001 11.35C2.99018 11.5346 3.03171 11.7182 3.11997 11.8807C3.20824 12.0431 3.33978 12.1778 3.50001 12.27L5.76001 13.57L3.61001 14.49C3.43832 14.5623 3.29024 14.6811 3.18246 14.8331C3.07468 14.985 3.01149 15.164 3.00001 15.35C2.99018 15.5346 3.03171 15.7182 3.11997 15.8807C3.20824 16.0431 3.33978 16.1778 3.50001 16.27L11.5 20.87C11.652 20.9577 11.8245 21.004 12 21.004C12.1755 21.004 12.348 20.9577 12.5 20.87L20.5 16.27C20.6602 16.1778 20.7918 16.0431 20.88 15.8807C20.9683 15.7182 21.0098 15.5346 21 15.35C20.9885 15.164 20.9253 14.985 20.8176 14.8331C20.7098 14.6811 20.5617 14.5623 20.39 14.49L18.24 13.57L20.5 12.27C20.6602 12.1778 20.7918 12.0431 20.88 11.8807C20.9683 11.7182 21.0098 11.5346 21 11.35ZM12 5.08998L17.76 7.53998L12 10.85L6.24001 7.53998L12 5.08998ZM11.5 12.87C11.652 12.9577 11.8245 13.004 12 13.004C12.1755 13.004 12.348 12.9577 12.5 12.87L16.07 10.87L17.76 11.59L12 14.85L6.24001 11.54L7.93001 10.82L11.5 12.87ZM17.76 15.54L12 18.85L6.24001 15.54L7.93001 14.82L11.5 16.87C11.652 16.9577 11.8245 17.004 12 17.004C12.1755 17.004 12.348 16.9577 12.5 16.87L16.07 14.82L17.76 15.54Z" fill="#454F63"/>
</svg>
