<svg width="20" height="20" viewBox="0 0 20 20" fill="none" xmlns="http://www.w3.org/2000/svg">
<path d="M10 1.66669C8.24342 1.6666 6.55775 2.35982 5.30941 3.59568C4.06107 4.83154 3.35094 6.51016 3.33337 8.26669C3.33337 12.8334 9.20837 17.9167 9.45837 18.1334C9.60932 18.2625 9.80141 18.3334 10 18.3334C10.1987 18.3334 10.3908 18.2625 10.5417 18.1334C10.8334 17.9167 16.6667 12.8334 16.6667 8.26669C16.6491 6.51016 15.939 4.83154 14.6907 3.59568C13.4423 2.35982 11.7567 1.6666 10 1.66669ZM10 16.375C8.60837 15.05 5.00004 11.375 5.00004 8.26669C5.00004 6.9406 5.52682 5.66884 6.46451 4.73115C7.40219 3.79347 8.67396 3.26669 10 3.26669C11.3261 3.26669 12.5979 3.79347 13.5356 4.73115C14.4733 5.66884 15 6.9406 15 8.26669C15 11.35 11.3917 15.05 10 16.375Z" fill="#454F63"/>
<path d="M10 5C9.42318 5 8.85927 5.17106 8.37963 5.49155C7.89999 5.81203 7.52615 6.26756 7.30539 6.80051C7.08464 7.33346 7.02688 7.9199 7.13942 8.48568C7.25196 9.05146 7.52974 9.57116 7.93765 9.97906C8.34555 10.387 8.86525 10.6648 9.43103 10.7773C9.99681 10.8898 10.5833 10.8321 11.1162 10.6113C11.6492 10.3906 12.1047 10.0167 12.4252 9.53708C12.7457 9.05744 12.9167 8.49353 12.9167 7.91667C12.9167 7.14312 12.6094 6.40125 12.0624 5.85427C11.5155 5.30729 10.7736 5 10 5ZM10 9.16667C9.75282 9.16667 9.51114 9.09336 9.30558 8.956C9.10002 8.81865 8.9398 8.62343 8.84519 8.39502C8.75058 8.16661 8.72583 7.91528 8.77406 7.6728C8.82229 7.43033 8.94134 7.2076 9.11616 7.03278C9.29097 6.85797 9.5137 6.73892 9.75618 6.69068C9.99866 6.64245 10.25 6.66721 10.4784 6.76182C10.7068 6.85643 10.902 7.01664 11.0394 7.2222C11.1767 7.42777 11.25 7.66944 11.25 7.91667C11.25 8.24819 11.1183 8.56613 10.8839 8.80055C10.6495 9.03497 10.3316 9.16667 10 9.16667Z" fill="#454F63"/>
</svg>
