<svg width="24" height="24" viewBox="0 0 24 24" fill="none" xmlns="http://www.w3.org/2000/svg">
<path d="M20 20C19.8034 20.0023 19.6111 19.9428 19.45 19.83L12 14.9L4.55003 19.83C4.36642 19.9484 4.1491 20.0033 3.93131 19.9865C3.71351 19.9697 3.50721 19.882 3.34394 19.7369C3.18067 19.5918 3.06941 19.3972 3.02717 19.1828C2.98494 18.9685 3.01404 18.7462 3.11003 18.55L11.11 2.55002C11.194 2.38622 11.3214 2.24875 11.4785 2.15276C11.6355 2.05677 11.816 2.00598 12 2.00598C12.1841 2.00598 12.3646 2.05677 12.5216 2.15276C12.6786 2.24875 12.8061 2.38622 12.89 2.55002L20.89 18.55C20.9897 18.7473 21.0212 18.9721 20.9796 19.1892C20.938 19.4063 20.8256 19.6036 20.66 19.75C20.4777 19.9108 20.2431 19.9997 20 20ZM12 12.7C12.1961 12.7016 12.3873 12.7607 12.55 12.87L17.43 16.1L12 5.24002L6.57003 16.1L11.45 12.87C11.6127 12.7607 11.804 12.7016 12 12.7Z" fill="#454F63"/>
</svg>
