<svg width="20" height="22" viewBox="0 0 20 22" fill="none" xmlns="http://www.w3.org/2000/svg">
<path d="M19.2205 11.0088L19.2205 11.0088C19.3999 11.0664 19.5477 11.1584 19.649 11.27C19.7499 11.3811 19.7997 11.5058 19.8001 11.6289V21.2141C19.7998 21.3213 19.7621 21.4297 19.6855 21.5295C19.6086 21.6298 19.4951 21.718 19.3524 21.7834L19.3522 21.7835C19.1893 21.8586 18.9977 21.8996 18.8002 21.9C18.6546 21.8995 18.5113 21.8769 18.38 21.8342L18.3796 21.8341L14.4306 20.5691L14.4001 20.5593L14.3696 20.5691L10.4354 21.8293H10.3961H10.3798L10.3644 21.8345C10.2511 21.8723 10.1267 21.8922 10.0001 21.8922C9.87348 21.8922 9.74903 21.8723 9.63575 21.8345L9.62033 21.8293H9.60407H9.56469L5.63058 20.5691L5.60007 20.5593L5.56956 20.5691L1.62056 21.8341L1.62012 21.8342C1.48887 21.8769 1.34558 21.8995 1.19993 21.9C1.00249 21.8996 0.810813 21.8586 0.647965 21.7835L0.647731 21.7834C0.505087 21.718 0.391515 21.6298 0.314624 21.5295C0.238102 21.4297 0.200346 21.3214 0.20007 21.2142V11.6286H0.200501L0.199642 11.6193C0.187001 11.4833 0.234885 11.3434 0.345636 11.2198C0.457135 11.0953 0.625831 10.9953 0.830469 10.9393L0.830495 10.9394L0.834671 10.9381L5.21975 9.52859H5.83897L5.94885 9.58745L5.97097 9.5993H5.99607H6.03544L9.96956 10.8595L10.0001 10.8693L10.0306 10.8595L13.9647 9.5993H14.8354L19.2205 11.0088ZM2.26978 12.0361L2.20007 12.0583V12.1314V19.9886V20.1253L2.33036 20.0839L4.53036 19.3846L4.60007 19.3624V19.2893V11.4322V11.2954L4.46978 11.3369L2.26978 12.0361ZM6.73036 11.3369L6.60007 11.2954V11.4322V19.2893V19.3624L6.66978 19.3846L8.86978 20.0839L9.00007 20.1253V19.9886V12.1314V12.0583L8.93036 12.0361L6.73036 11.3369ZM11.0698 12.0361L11.0001 12.0583V12.1314V19.9886V20.1253L11.1304 20.0839L13.3304 19.3846L13.4001 19.3624V19.2893V11.4322V11.2954L13.2698 11.3369L11.0698 12.0361ZM17.6698 20.0839L17.8001 20.1253V19.9886V12.1314V12.0583L17.7304 12.0361L15.5304 11.3369L15.4001 11.2954V11.4322V19.2893V19.3624L15.4698 19.3846L17.6698 20.0839Z" fill="white" fill-opacity="0.95" stroke="#2A2E43" stroke-width="0.2"/>
<path d="M10 0.982117C8.94603 0.982065 7.93463 1.39057 7.18562 2.11884C6.43662 2.84712 6.01054 3.8363 6 4.8714C6 7.56247 9.525 10.558 9.675 10.6857C9.76557 10.7618 9.88082 10.8036 10 10.8036C10.1192 10.8036 10.2344 10.7618 10.325 10.6857C10.5 10.558 14 7.56247 14 4.8714C13.9895 3.8363 13.5634 2.84712 12.8144 2.11884C12.0654 1.39057 11.054 0.982065 10 0.982117ZM10 9.64953C9.165 8.86872 7 6.7031 7 4.8714C7 4.08996 7.31607 3.34053 7.87868 2.78796C8.44129 2.2354 9.20435 1.92497 10 1.92497C10.7956 1.92497 11.5587 2.2354 12.1213 2.78796C12.6839 3.34053 13 4.08996 13 4.8714C13 6.68837 10.835 8.86872 10 9.64953Z" fill="white" fill-opacity="0.95"/>
<path d="M10 2.94641C9.65388 2.94641 9.31554 3.04721 9.02775 3.23607C8.73997 3.42493 8.51566 3.69336 8.38321 4.00742C8.25076 4.32148 8.2161 4.66707 8.28363 5.00047C8.35115 5.33388 8.51782 5.64013 8.76256 5.8805C9.00731 6.12087 9.31913 6.28457 9.65859 6.35089C9.99806 6.4172 10.3499 6.38317 10.6697 6.25308C10.9895 6.12299 11.2628 5.90269 11.4551 5.62005C11.6474 5.3374 11.75 5.0051 11.75 4.66516C11.75 4.20932 11.5656 3.77215 11.2374 3.44982C10.9092 3.12749 10.4641 2.94641 10 2.94641ZM10 5.40177C9.85167 5.40177 9.70666 5.35857 9.58332 5.27763C9.45999 5.19669 9.36386 5.08165 9.30709 4.94705C9.25033 4.81245 9.23547 4.66434 9.26441 4.52146C9.29335 4.37857 9.36478 4.24732 9.46967 4.1443C9.57456 4.04128 9.7082 3.97113 9.85368 3.94271C9.99917 3.91429 10.15 3.92887 10.287 3.98462C10.4241 4.04038 10.5412 4.13479 10.6236 4.25592C10.706 4.37706 10.75 4.51947 10.75 4.66516C10.75 4.86052 10.671 5.04788 10.5303 5.18602C10.3897 5.32416 10.1989 5.40177 10 5.40177Z" fill="white" fill-opacity="0.95"/>
</svg>
