<svg width="24" height="24" viewBox="0 0 24 24" fill="none" xmlns="http://www.w3.org/2000/svg">
<path d="M10.29 11.33C10.4231 11.8249 10.4231 12.3461 10.29 12.841L14.69 16.141C15.2132 15.6796 15.8848 15.4219 16.5823 15.4149C17.2798 15.4078 17.9565 15.652 18.4888 16.1027C19.0211 16.5535 19.3735 17.1807 19.4815 17.8698C19.5896 18.5589 19.446 19.2639 19.0772 19.8559C18.7083 20.4479 18.1388 20.8874 17.4726 21.0942C16.8064 21.3009 16.0881 21.2611 15.4489 20.9819C14.8097 20.7027 14.2922 20.2028 13.9911 19.5737C13.6901 18.9445 13.6254 18.2279 13.809 17.555L9.40903 14.255C8.99029 14.6265 8.47312 14.8692 7.91974 14.9537C7.36636 15.0382 6.80034 14.9611 6.28978 14.7315C5.77921 14.502 5.34585 14.1298 5.04182 13.6597C4.73779 13.1897 4.57605 12.6418 4.57605 12.082C4.57605 11.5222 4.73779 10.9743 5.04182 10.5043C5.34585 10.0343 5.77921 9.66207 6.28978 9.43251C6.80034 9.20295 7.36636 9.1258 7.91974 9.21034C8.47312 9.29487 8.99029 9.5375 9.40903 9.90902L13.809 6.60902C13.6275 5.93556 13.6943 5.21927 13.9973 4.59101C14.3003 3.96276 14.8192 3.4645 15.4593 3.18726C16.0993 2.91003 16.8177 2.87234 17.4833 3.08107C18.1488 3.2898 18.717 3.73102 19.0841 4.32412C19.4512 4.91721 19.5926 5.62258 19.4825 6.31134C19.3724 7.0001 19.0182 7.62627 18.4846 8.07543C17.951 8.52459 17.2736 8.76676 16.5761 8.75769C15.8787 8.74862 15.2078 8.48891 14.686 8.02602L10.286 11.326L10.29 11.33ZM16.615 7.10502C16.8611 7.10502 17.1016 7.03213 17.3062 6.89554C17.5108 6.75896 17.6704 6.56481 17.7648 6.33761C17.8591 6.11041 17.8841 5.86034 17.8365 5.61897C17.7888 5.3776 17.6707 5.15575 17.4971 4.98144C17.3235 4.80713 17.1021 4.68816 16.861 4.63956C16.6198 4.59096 16.3696 4.6149 16.142 4.70836C15.9145 4.80183 15.7197 4.96062 15.5823 5.16471C15.4449 5.36879 15.371 5.609 15.37 5.85502C15.3695 6.01894 15.4013 6.18135 15.4637 6.33292C15.5261 6.4845 15.6178 6.62227 15.7336 6.73831C15.8494 6.85436 15.9869 6.9464 16.1384 7.00916C16.2898 7.07192 16.4521 7.10416 16.616 7.10402L16.615 7.10502ZM16.615 19.557C16.8613 19.557 17.102 19.484 17.3067 19.3472C17.5115 19.2104 17.671 19.016 17.7653 18.7885C17.8595 18.561 17.8841 18.3106 17.8361 18.0691C17.7881 17.8276 17.6695 17.6058 17.4954 17.4317C17.3213 17.2576 17.0994 17.139 16.8579 17.0909C16.6164 17.0429 16.3661 17.0676 16.1386 17.1618C15.9111 17.256 15.7167 17.4156 15.5798 17.6203C15.443 17.8251 15.37 18.0658 15.37 18.312C15.3706 18.642 15.5021 18.9584 15.7357 19.1914C15.9694 19.4245 16.286 19.5553 16.616 19.555L16.615 19.557ZM7.48403 13.33C7.73026 13.33 7.97097 13.257 8.17571 13.1202C8.38045 12.9834 8.54003 12.789 8.63426 12.5615C8.72849 12.334 8.75314 12.0836 8.7051 11.8421C8.65707 11.6006 8.53849 11.3788 8.36438 11.2047C8.19026 11.0306 7.96842 10.912 7.72691 10.8639C7.48541 10.8159 7.23508 10.8406 7.00759 10.9348C6.78009 11.029 6.58565 11.1886 6.44885 11.3933C6.31204 11.5981 6.23903 11.8388 6.23903 12.085C6.23903 12.4152 6.3702 12.7319 6.60368 12.9654C6.83716 13.1989 7.15383 13.33 7.48403 13.33Z" fill="#454F63"/>
</svg>
