<svg width="24" height="24" viewBox="0 0 24 24" fill="none" xmlns="http://www.w3.org/2000/svg">
<path d="M10.241 18.52L4.36195 12.64C4.25139 12.5733 4.16 12.4791 4.09657 12.3666C4.03314 12.2541 3.99989 12.1271 4.00001 11.998C3.99924 11.8653 4.03373 11.7349 4.09999 11.62C4.13421 11.5571 4.17725 11.4995 4.22792 11.449C4.25232 11.4245 4.27839 11.4018 4.30592 11.381L10.2379 5.44898C10.3787 5.30847 10.5695 5.22955 10.7684 5.22955C10.9674 5.22955 11.1582 5.30847 11.299 5.44898C11.4395 5.58977 11.5184 5.78056 11.5184 5.97948C11.5184 6.17839 11.4395 6.36918 11.299 6.50998L6.55995 11.248H19.2479C19.3465 11.248 19.4441 11.2674 19.5352 11.3052C19.6262 11.3429 19.709 11.3983 19.7787 11.468C19.8484 11.5378 19.9035 11.6205 19.9412 11.7117C19.9788 11.8028 19.9981 11.9004 19.9979 11.999C19.9979 12.1979 19.919 12.3887 19.7783 12.5293C19.6377 12.67 19.4468 12.749 19.2479 12.749H6.5879L11.299 17.46C11.4395 17.6008 11.5184 17.7916 11.5184 17.9905C11.5184 18.1894 11.4395 18.3802 11.299 18.521C11.2292 18.5906 11.1464 18.6458 11.0553 18.6834C10.9642 18.721 10.8665 18.7402 10.768 18.74C10.5701 18.7391 10.3807 18.66 10.241 18.52Z" fill="white"/>
</svg>
