<svg width="24" height="24" viewBox="0 0 24 24" fill="none" xmlns="http://www.w3.org/2000/svg">
<path d="M9.85996 18C9.72285 17.9995 9.58729 17.9709 9.4617 17.9158C9.33612 17.8608 9.2232 17.7805 9.12996 17.68L4.26996 12.51C4.08829 12.3164 3.99097 12.0585 3.99941 11.7932C4.00785 11.5278 4.12136 11.2766 4.31496 11.095C4.50857 10.9133 4.76642 10.816 5.03178 10.8244C5.29715 10.8329 5.54829 10.9464 5.72996 11.14L9.84996 15.53L18.26 6.32997C18.3453 6.22369 18.4515 6.13599 18.572 6.07223C18.6924 6.00848 18.8247 5.97004 18.9606 5.95925C19.0964 5.94847 19.2331 5.96557 19.3621 6.00952C19.4911 6.05347 19.6098 6.12333 19.7108 6.21482C19.8119 6.3063 19.8932 6.41748 19.9497 6.54151C20.0062 6.66555 20.0367 6.79983 20.0395 6.93611C20.0422 7.07239 20.017 7.20778 19.9655 7.33398C19.914 7.46018 19.8373 7.57452 19.74 7.66997L10.6 17.67C10.5076 17.7723 10.3951 17.8545 10.2695 17.9113C10.1438 17.9681 10.0078 17.9983 9.86996 18H9.85996Z" fill="white" fill-opacity="0.95"/>
</svg>
