<svg width="24" height="24" viewBox="0 0 24 24" fill="none" xmlns="http://www.w3.org/2000/svg">
<path d="M10.241 18.52L4.36201 12.64C4.25145 12.5733 4.16006 12.4791 4.09663 12.3666C4.0332 12.2541 3.99995 12.1271 4.00007 11.998C3.9993 11.8654 4.03379 11.7349 4.10005 11.62C4.13427 11.5571 4.17731 11.4995 4.22798 11.449C4.25238 11.4246 4.27845 11.4018 4.30598 11.381L10.238 5.44899C10.3788 5.30848 10.5696 5.22957 10.7685 5.22957C10.9674 5.22957 11.1582 5.30848 11.299 5.44899C11.4395 5.58979 11.5185 5.78058 11.5185 5.97949C11.5185 6.17841 11.4395 6.3692 11.299 6.50999L6.56001 11.248H19.248C19.3466 11.248 19.4442 11.2674 19.5352 11.3052C19.6263 11.3429 19.7091 11.3983 19.7788 11.468C19.8484 11.5378 19.9036 11.6206 19.9412 11.7117C19.9789 11.8028 19.9981 11.9004 19.998 11.999C19.998 12.1979 19.919 12.3887 19.7784 12.5293C19.6377 12.67 19.4469 12.749 19.248 12.749H6.58796L11.299 17.46C11.4395 17.6008 11.5185 17.7916 11.5185 17.9905C11.5185 18.1894 11.4395 18.3802 11.299 18.521C11.2293 18.5906 11.1465 18.6458 11.0554 18.6834C10.9643 18.721 10.8666 18.7402 10.768 18.74C10.5702 18.7391 10.3808 18.66 10.241 18.52Z" fill="white"/>
</svg>
