<svg width="20" height="20" viewBox="0 0 20 20" fill="none" xmlns="http://www.w3.org/2000/svg">
<path d="M13.4308 12.4667L17.3 16.3333C17.3635 16.3968 17.4138 16.4722 17.4482 16.5551C17.4825 16.638 17.5002 16.7269 17.5002 16.8167C17.5002 16.9064 17.4825 16.9953 17.4482 17.0782C17.4138 17.1612 17.3635 17.2365 17.3 17.3C17.2365 17.3635 17.1612 17.4138 17.0782 17.4482C16.9953 17.4825 16.9064 17.5002 16.8167 17.5002C16.7269 17.5002 16.638 17.4825 16.5551 17.4482C16.4722 17.4138 16.3968 17.3635 16.3333 17.3L12.4667 13.4308C11.2414 14.4096 9.68789 14.8822 8.12513 14.7514C6.56237 14.6206 5.10902 13.8964 4.06354 12.7275C3.01806 11.5586 2.45982 10.0338 2.50346 8.46615C2.54711 6.89853 3.18933 5.40713 4.29823 4.29823C5.40713 3.18933 6.89853 2.54711 8.46615 2.50346C10.0338 2.45982 11.5586 3.01806 12.7275 4.06354C13.8964 5.10902 14.6206 6.56237 14.7514 8.12513C14.8822 9.68789 14.4096 11.2414 13.4308 12.4667ZM8.63666 13.4092C9.58054 13.409 10.5032 13.129 11.2879 12.6044C12.0726 12.0799 12.6842 11.3345 13.0453 10.4624C13.4064 9.59036 13.5008 8.6308 13.3165 7.70508C13.1323 6.77936 12.6777 5.92906 12.0102 5.2617C11.3427 4.59433 10.4923 4.13988 9.56659 3.9558C8.64084 3.77172 7.68129 3.86628 6.80928 4.22752C5.93727 4.58877 5.19195 5.20047 4.66758 5.98529C4.14321 6.7701 3.86333 7.69278 3.86333 8.63666C3.86333 9.26346 3.9868 9.88413 4.22669 10.4632C4.46658 11.0423 4.8182 11.5684 5.26145 12.0116C5.70471 12.4548 6.23092 12.8063 6.81005 13.0461C7.38917 13.2859 8.00986 13.4093 8.63666 13.4092Z" fill="white"/>
</svg>
