<svg width="18" height="18" viewBox="0 0 18 18" fill="none" xmlns="http://www.w3.org/2000/svg">
<path d="M15.4729 9.72711C15.3112 11.1954 14.6538 12.5648 13.6093 13.6093C12.5648 14.6538 11.1954 15.3112 9.72711 15.4729V16.2729C9.72711 16.3684 9.7083 16.4629 9.67176 16.5511C9.63522 16.6394 9.58166 16.7195 9.51414 16.787C9.44663 16.8546 9.36647 16.9081 9.27825 16.9447C9.19004 16.9812 9.09549 17 9 17C8.90451 17 8.80996 16.9812 8.72175 16.9447C8.63353 16.9081 8.55337 16.8546 8.48586 16.787C8.41834 16.7195 8.36478 16.6394 8.32824 16.5511C8.2917 16.4629 8.27289 16.3684 8.27289 16.2729V15.4729C6.79552 15.3352 5.41269 14.6857 4.36351 13.6365C3.31433 12.5873 2.66476 11.2045 2.52711 9.72711H1.72711C1.63163 9.72711 1.53707 9.7083 1.44886 9.67176C1.36064 9.63522 1.28048 9.58166 1.21297 9.51414C1.14545 9.44663 1.09189 9.36647 1.05535 9.27825C1.01881 9.19004 1 9.09549 1 9C1 8.90451 1.01881 8.80996 1.05535 8.72175C1.09189 8.63353 1.14545 8.55337 1.21297 8.48586C1.28048 8.41834 1.36064 8.36478 1.44886 8.32824C1.53707 8.2917 1.63163 8.27289 1.72711 8.27289H2.52711C2.66476 6.79552 3.31433 5.41269 4.36351 4.36351C5.41269 3.31433 6.79552 2.66476 8.27289 2.52711V1.72711C8.27289 1.63163 8.2917 1.53707 8.32824 1.44886C8.36478 1.36064 8.41834 1.28048 8.48586 1.21297C8.55337 1.14545 8.63353 1.09189 8.72175 1.05535C8.80996 1.01881 8.90451 1 9 1C9.09549 1 9.19004 1.01881 9.27825 1.05535C9.36647 1.09189 9.44663 1.14545 9.51414 1.21297C9.58166 1.28048 9.63522 1.36064 9.67176 1.44886C9.7083 1.53707 9.72711 1.63163 9.72711 1.72711V2.52711C11.1954 2.68883 12.5648 3.34617 13.6093 4.3907C14.6538 5.43523 15.3112 6.80458 15.4729 8.27289H16.2729C16.3684 8.27289 16.4629 8.2917 16.5511 8.32824C16.6394 8.36478 16.7195 8.41834 16.787 8.48586C16.8546 8.55337 16.9081 8.63353 16.9447 8.72175C16.9812 8.80996 17 8.90451 17 9C17 9.09549 16.9812 9.19004 16.9447 9.27825C16.9081 9.36647 16.8546 9.44663 16.787 9.51414C16.7195 9.58166 16.6394 9.63522 16.5511 9.67176C16.4629 9.7083 16.3684 9.72711 16.2729 9.72711H15.4729ZM9 14.0907C10.0068 14.0907 10.9911 13.7921 11.8282 13.2327C12.6654 12.6734 13.3179 11.8783 13.7032 10.9481C14.0885 10.0179 14.1893 8.99435 13.9929 8.00686C13.7964 7.01937 13.3116 6.1123 12.5996 5.40035C11.8877 4.68841 10.9806 4.20357 9.99314 4.00715C9.00565 3.81072 7.98208 3.91154 7.05189 4.29684C6.12169 4.68214 5.32663 5.33462 4.76727 6.17178C4.2079 7.00893 3.90933 7.99316 3.90933 9C3.9052 9.66967 4.03406 10.3335 4.28842 10.953C4.54279 11.5725 4.91761 12.1353 5.39115 12.6089C5.86468 13.0824 6.42752 13.4572 7.04701 13.7116C7.6665 13.9659 8.33033 14.0948 9 14.0907ZM9 11.9084C8.42455 11.9084 7.86203 11.7378 7.38357 11.4181C6.90511 11.0984 6.53222 10.6439 6.31204 10.1123C6.09187 9.5806 6.0343 8.99558 6.14663 8.4312C6.25896 7.86682 6.53614 7.34843 6.94311 6.94159C7.35007 6.53475 7.86855 6.25773 8.43296 6.14557C8.99738 6.03341 9.58237 6.09116 10.114 6.31149C10.6456 6.53183 11.0999 6.90486 11.4195 7.38342C11.739 7.86197 11.9095 8.42455 11.9093 9C11.9072 9.77095 11.6 10.5097 11.0549 11.0549C10.5097 11.6 9.77095 11.9072 9 11.9093V11.9084ZM9 10.4542C9.28762 10.4542 9.56878 10.3689 9.80792 10.2091C10.0471 10.0493 10.2335 9.82223 10.3435 9.55651C10.4536 9.29078 10.4824 8.99839 10.4263 8.7163C10.3702 8.4342 10.2317 8.17509 10.0283 7.97171C9.82491 7.76833 9.5658 7.62983 9.2837 7.57372C9.00161 7.51761 8.70922 7.54641 8.44349 7.65647C8.17777 7.76654 7.95065 7.95293 7.79086 8.19208C7.63107 8.43122 7.54578 8.71238 7.54578 9C7.54695 9.38532 7.70054 9.75453 7.973 10.027C8.24547 10.2995 8.61468 10.453 9 10.4542Z" fill="white"/>
</svg>
