<svg width="24" height="24" viewBox="0 0 24 24" fill="none" xmlns="http://www.w3.org/2000/svg">
<path d="M10.291 5.45201L16.2199 11.382C16.2486 11.4034 16.2757 11.4268 16.301 11.452C16.3713 11.5223 16.427 11.6059 16.4646 11.6979C16.5022 11.79 16.521 11.8886 16.52 11.988C16.5209 12.0873 16.5019 12.1857 16.4643 12.2775C16.4267 12.3694 16.3712 12.4529 16.301 12.523C16.2766 12.5474 16.2505 12.5702 16.223 12.591L10.291 18.523C10.1502 18.6635 9.95937 18.7424 9.76046 18.7424C9.56155 18.7424 9.37074 18.6635 9.22994 18.523C9.08943 18.3822 9.01058 18.1914 9.01058 17.9925C9.01058 17.7936 9.08943 17.6028 9.22994 17.462L14.706 11.987L9.22994 6.51201C9.08943 6.37121 9.01058 6.18042 9.01058 5.98151C9.01058 5.78259 9.08943 5.5918 9.22994 5.45101C9.29969 5.38136 9.3826 5.32616 9.47372 5.28858C9.56484 5.251 9.66238 5.23178 9.76095 5.23201C9.85942 5.23204 9.95699 5.25149 10.0479 5.28924C10.1389 5.32699 10.2214 5.3823 10.291 5.45201Z" fill="white"/>
</svg>
