<svg xmlns="http://www.w3.org/2000/svg" data-name="Layer 1" viewBox="0 0 97.44 96.88" x="0px" y="0px"><title>126 Castle</title><path d="M97.36,44.56a1.27,1.27,0,0,0-1.27,1.27v5.56H85.25V45.83a1.27,1.27,0,0,0-2.54,0v5.56H71.87V45.83a1.27,1.27,0,0,0-2.54,0v21a1.27,1.27,0,0,0,1.27,1.27h3.85v6H63.76V38a148.62,148.62,0,0,1-.06-.29,1.24,1.24,0,0,0-.24-.5s0,0,0-.06L51.37,23.75v-6.6l18.73.2a1.3,1.3,0,0,0,1.17-.74,1.27,1.27,0,0,0-.2-1.37l-5-5.62,4.95-5.5A1.27,1.27,0,0,0,70.11,2h-20a1.27,1.27,0,0,0-1.27,1.27V23.75L36.77,37.15s0,0,0,.06a1.24,1.24,0,0,0-.24.5,148.62,148.62,0,0,1-.06.29V74.1H25.54v-6h3.7a1.27,1.27,0,0,0,1.27-1.27v-21a1.27,1.27,0,0,0-2.54,0v5.56H17.12V45.83a1.27,1.27,0,0,0-2.54,0v5.56H3.74V45.83a1.27,1.27,0,0,0-2.54,0v21a1.27,1.27,0,0,0,1.27,1.27h3.7V97.6a1.27,1.27,0,0,0,1.27,1.27H92.24a1.27,1.27,0,0,0,1.27-1.27V68.07h3.85a1.27,1.27,0,0,0,1.27-1.27v-21A1.27,1.27,0,0,0,97.36,44.56Z" transform="translate(-1.19 -2)"></path></svg>