<svg id="Layer_1" data-name="Layer 1" xmlns="http://www.w3.org/2000/svg" viewBox="0 0 157.51 82.42"><defs><style>.cls-1{fill:#6b6b6b;stroke:#000;stroke-miterlimit:10;}</style></defs><title>Quilly Full Logo - Black Border</title><path class="cls-1" d="M92.71,32.3a4.24,4.24,0,0,0,3-1.08,3.85,3.85,0,0,0,1.15-3q0-3.24-3.6-3.24a4.86,4.86,0,0,0-3.2,1,3.5,3.5,0,0,0-1.26,2.84Q88.82,32.3,92.71,32.3Z" transform="translate(-8.2 -1.57)"/><path class="cls-1" d="M164.56,51a1.79,1.79,0,0,0-1.22-.68,2.22,2.22,0,0,0-1,.22,96.76,96.76,0,0,0-11.88,7.63q.86-5.25,2.2-10.91a41.59,41.59,0,0,0,1.33-7.6q0-1.37-2.16-1.37-2.45,0-3.31,3.24L146.42,49q-2.16,7.27-6,7.27-2.52,0-2.52-3.28a35.52,35.52,0,0,1,1.8-9.32,11.09,11.09,0,0,1,.58-1.3,5.78,5.78,0,0,0,.86-2.56,1.66,1.66,0,0,0-.65-1.44,2.52,2.52,0,0,0-1.51-.47,3.4,3.4,0,0,0-1.87.68,4.6,4.6,0,0,0-1.51,1.62,29.06,29.06,0,0,0-3.33,11q-4.38,5-8,5t-3.46-5.83a30.61,30.61,0,0,1,.29-3.53A52.57,52.57,0,0,0,132.59,34.1q5.18-7.92,5.9-15.19v-.58a5,5,0,0,0-1.3-3.49,4.48,4.48,0,0,0-3.46-1.4q-3.67,0-7,3.56a29.63,29.63,0,0,0-5.54,9,76.93,76.93,0,0,0-5.47,21.74q-.07.79-.07,2.3c0,.25,0,.48,0,.73h-.05a1.71,1.71,0,0,0-1.26.5q-4.39,5-8,5t-3.45-5.83a30.58,30.58,0,0,1,.29-3.53A52.57,52.57,0,0,0,114.67,34.1q5.18-7.92,5.9-15.19v-.58a5,5,0,0,0-1.3-3.49,4.48,4.48,0,0,0-3.46-1.4q-3.67,0-7,3.56a29.63,29.63,0,0,0-5.54,9,76.94,76.94,0,0,0-5.47,21.74q-.07.79-.07,2.3c0,.41,0,.8,0,1.19a2.26,2.26,0,0,0-.24.25q-4.25,4.9-7.27,4.9-2.52,0-2.52-3.38a24,24,0,0,1,1.3-6.7,32.43,32.43,0,0,1,2.12-5.62,5.13,5.13,0,0,0,.83-2,1.38,1.38,0,0,0-.76-1.08,3.17,3.17,0,0,0-1.8-.5,4.29,4.29,0,0,0-1.87.4,6,6,0,0,0-2,2.48,30.15,30.15,0,0,0-2.3,6.37,33.85,33.85,0,0,0-1,5.42l-.33.23q-3.67,4-6,4.18-1,0-1-1.66l.07-.86a68.26,68.26,0,0,1,3.24-14.33l.07-.29a1.85,1.85,0,0,0-.79-1.44,2.92,2.92,0,0,0-1.91-.65,2.51,2.51,0,0,0-1.8.65,7.62,7.62,0,0,0-1.4,3l-1.94,7.2A15.68,15.68,0,0,1,67.26,54q-2.05,2.27-4,2.27-2.45,0-2.45-3.53v-.5a33.41,33.41,0,0,1,2-8.5,43.77,43.77,0,0,0,1.73-5.29q0-.47-.72-1a3.51,3.51,0,0,0-2.12-.54,2.57,2.57,0,0,0-2.27,1.48,36,36,0,0,0-2.34,6.16,29.88,29.88,0,0,0-1.48,9,8.83,8.83,0,0,0,1.55,5.4A5.41,5.41,0,0,0,61.82,61a7.4,7.4,0,0,0,5.33-2.16,11.7,11.7,0,0,0,3-4.39L70,56.71Q70,61,74.28,61q2.66,0,7.09-2.84c.54-.35,1-.68,1.45-1a6.49,6.49,0,0,0,1.24,1.79,6.93,6.93,0,0,0,5.18,2c3.29,0,6.47-1.54,9.55-4.61A9.69,9.69,0,0,0,99.69,58a6.27,6.27,0,0,0,5.54,2.92c3.93,0,7.64-1.89,11.13-5.63A10.32,10.32,0,0,0,117.62,58a6.27,6.27,0,0,0,5.54,2.92c3.35,0,6.55-1.39,9.58-4.11a6.69,6.69,0,0,0,1.18,1.92,5.35,5.35,0,0,0,4.1,2,8.47,8.47,0,0,0,4.72-1.58,10.51,10.51,0,0,0,3.6-4l-2.16,6.26q-.94.72-3.6,2.45A38.11,38.11,0,0,0,133.17,70a5.76,5.76,0,0,1-.65.76q-.58.61-.76.83l-.68.86c-.34.43-.58.76-.72,1l-.61.9a5.12,5.12,0,0,0-.58,1l-.4,1a5.29,5.29,0,0,0-.43,2.23q0,4.9,6,4.9a11.62,11.62,0,0,0,5.58-1.33,12.87,12.87,0,0,0,4-3.2,19.35,19.35,0,0,0,2.74-4.9,51.66,51.66,0,0,0,3-10.73q2.09-1.37,14-8.42a2.44,2.44,0,0,0,.86-3.92ZM125.86,27q3.06-7.7,6.08-7.7,1.22,0,1.22,1.44-.07,4-3.64,10.08a67.73,67.73,0,0,1-7.81,10.8A68.39,68.39,0,0,1,125.86,27Zm-17.93,0q3.06-7.7,6.08-7.7,1.22,0,1.22,1.44-.07,4-3.64,10.08a67.73,67.73,0,0,1-7.81,10.8A68.39,68.39,0,0,1,107.93,27Zm30.35,50.9a4.62,4.62,0,0,1-3.1,1.37,1.42,1.42,0,0,1-1.58-1.62q0-1.62,3.28-5.47a26.35,26.35,0,0,1,6.44-5.72Q141.31,75,138.28,77.95Z" transform="translate(-8.2 -1.57)"/><path class="cls-1" d="M52.63,66.42C47.22,66,45.1,62.6,41,60a19.06,19.06,0,0,0-1.78-1c0-.05-.07-.11-.12-.17-2.52-2.91-1.5-7.69-4-10.72-1.12-1.36-3-2-4.32-3.23a17.58,17.58,0,0,1-4.41-7.79C24.45,31,21.72,19,25.6,12.44a15.59,15.59,0,0,1,10.27-5c5.51-.26,11.24,2.25,13.94,7.14,5.39,9.76,1.66,27-7,33.85-2.73,2.14,1.11,5.94,3.82,3.82C55.25,45.48,58.69,31,57.21,20.51,55.66,9.46,47.72,2.33,36.52,2.08A19.19,19.19,0,0,0,22.3,8.13a2.54,2.54,0,0,0-.43.29C12,16.51,7.26,30.48,9.08,43c.82,5.66,3.24,11.93,7.65,15.8,4.83,4.25,13.2,3.81,19.45,4.76a12.45,12.45,0,0,1,2.43,1.33c4.75,3.44,7.74,6.48,14,6.91C56.09,72.07,56.08,66.67,52.63,66.42ZM28.11,48.5c2.52,2.21,4.13,3.7,5,7.19l.19.75a19.35,19.35,0,0,1-4.78-2.77c-8.35-6.88-11.79-19.78-9-30.35a57.64,57.64,0,0,0,1.18,9.32C21.88,38.41,23.51,44.47,28.11,48.5ZM13.39,41.26a34.79,34.79,0,0,1,0-7.19c.68,8.67,4.4,17.25,10.84,23,.23.21.48.4.72.6a20.15,20.15,0,0,1-3.08-1C16.34,54.49,14,46.64,13.39,41.26Z" transform="translate(-8.2 -1.57)"/></svg>