<svg id="Layer_1" data-name="Layer 1" xmlns="http://www.w3.org/2000/svg" viewBox="0 0 177.85 254"><defs><style>.cls-1{fill:#fff;}</style></defs><title>Quilly Logo - White</title><path class="cls-1" d="M201.41,237.31C181.75,235.94,174,223.37,159,213.74a69.38,69.38,0,0,0-6.47-3.65c-.15-.2-.26-.41-.43-.6-9.18-10.58-5.45-28-14.51-39-4.08-5-11-7.38-15.74-11.76-8.14-7.57-12.77-17.94-16.06-28.36-7-22.17-16.93-65.56-2.82-89.59,10.06-10.2,22.83-17.49,37.41-18.18,20.06-1,40.91,8.19,50.74,26,19.61,35.52,6,98.46-25.63,123.26-10,7.79,4,21.62,13.9,13.9C211,161,223.51,108.32,218.12,70.15,212.45,29.89,183.56,3.93,142.78,3,122,2.55,104.55,11.47,91,25.06a9.24,9.24,0,0,0-1.58,1c-36.08,29.47-53.18,80.33-46.54,126,3,20.61,11.81,43.43,27.84,57.53,17.59,15.47,48.06,13.86,70.83,17.32a45.33,45.33,0,0,1,8.86,4.83c17.29,12.53,28.18,23.58,51,25.17C214,257.85,214,238.18,201.41,237.31Zm-89.26-65.25c9.18,8.06,15,13.48,18.19,26.19L131,201a70.46,70.46,0,0,1-17.42-10.1c-30.39-25.07-42.91-72-32.74-110.49a209.86,209.86,0,0,0,4.29,33.92C89.48,135.31,95.4,157.36,112.15,172.06ZM58.57,145.7a126.67,126.67,0,0,1,0-26.17c2.49,31.56,16,62.8,39.47,83.8.85.76,1.75,1.44,2.62,2.17A73.36,73.36,0,0,1,89.46,202C69.31,193.84,60.64,165.29,58.57,145.7Z" transform="translate(-41.48 -3)"/></svg>