<svg id="Layer_1" data-name="Layer 1" xmlns="http://www.w3.org/2000/svg" viewBox="0 0 156.51 81.41"><defs><style>.cls-1{isolation:isolate;}.cls-2{fill:#0b0f27;}</style></defs><title>Quilly Full Logo - Blue Text</title><g class="cls-1"><path class="cls-2" d="M69.53,37.33a68.3,68.3,0,0,0-3.24,14.32l-.07.87c0,1.1.34,1.65,1,1.65q2.31-.14,6-4.17a2.8,2.8,0,0,1,1.54-.72,2.37,2.37,0,0,1,1.48.83,2.26,2.26,0,0,1,.86,1.54q0,1.66-4.42,4.5c-3,1.9-5.32,2.85-7.1,2.85q-4.24,0-4.32-4.25l.22-2.23a11.77,11.77,0,0,1-3,4.39,7.41,7.41,0,0,1-5.33,2.16A5.4,5.4,0,0,1,48.47,57a8.84,8.84,0,0,1-1.54-5.4,30,30,0,0,1,1.47-9,36.9,36.9,0,0,1,2.34-6.15A2.57,2.57,0,0,1,53,35a3.49,3.49,0,0,1,2.12.54c.48.36.72.7.72,1a43.2,43.2,0,0,1-1.72,5.29,33.14,33.14,0,0,0-2,8.5v.5c0,2.35.82,3.53,2.45,3.53,1.29,0,2.63-.76,4-2.27a15.68,15.68,0,0,0,3.21-6.23l1.94-7.2a7.56,7.56,0,0,1,1.41-3,2.5,2.5,0,0,1,1.8-.65,2.9,2.9,0,0,1,1.9.65,1.85,1.85,0,0,1,.8,1.44Z" transform="translate(0 -0.13)"/><path class="cls-2" d="M73.42,51.8a29.14,29.14,0,0,1,1.15-7.45A30.26,30.26,0,0,1,76.88,38a5.89,5.89,0,0,1,2-2.48,4.32,4.32,0,0,1,1.87-.4,3.15,3.15,0,0,1,1.8.51,1.37,1.37,0,0,1,.76,1.08,5.19,5.19,0,0,1-.83,2,32.24,32.24,0,0,0-2.13,5.62A24,24,0,0,0,79,51c0,2.25.84,3.38,2.52,3.38q3,0,7.27-4.9a1.73,1.73,0,0,1,1.4-.72,2.25,2.25,0,0,1,1.52.62,1.87,1.87,0,0,1,.68,1.44,3.06,3.06,0,0,1-.79,1.83q-5.34,6.27-11.09,6.27a7,7,0,0,1-5.19-2A7.06,7.06,0,0,1,73.42,51.8ZM84,30.34q-3.89,0-3.88-3.38a3.51,3.51,0,0,1,1.26-2.85,4.88,4.88,0,0,1,3.2-1q3.6,0,3.6,3.24a3.83,3.83,0,0,1-1.15,3A4.26,4.26,0,0,1,84,30.34Z" transform="translate(0 -0.13)"/><path class="cls-2" d="M96.53,58.93A6.27,6.27,0,0,1,91,56a14.16,14.16,0,0,1-1.95-8c0-1,0-1.77.08-2.3A76.51,76.51,0,0,1,94.59,24a29.73,29.73,0,0,1,5.54-9q3.32-3.55,7-3.56a4.48,4.48,0,0,1,3.45,1.4,4.93,4.93,0,0,1,1.3,3.49V17q-.72,7.28-5.91,15.19A52.72,52.72,0,0,1,94.52,45a29,29,0,0,0-.29,3.53c0,3.88,1.15,5.83,3.45,5.83s5.07-1.68,8-5a1.68,1.68,0,0,1,1.26-.51,2.15,2.15,0,0,1,1.44.62,2,2,0,0,1,.68,1.51,2.76,2.76,0,0,1-.86,1.83Q102.73,58.93,96.53,58.93Zm8.79-41.55q-3,0-6.09,7.71A68.22,68.22,0,0,0,95.09,39.7a67.67,67.67,0,0,0,7.81-10.8q3.57-6,3.64-10.08C106.54,17.86,106.13,17.38,105.32,17.38Z" transform="translate(0 -0.13)"/><path class="cls-2" d="M114.46,58.93A6.27,6.27,0,0,1,108.92,56a14.16,14.16,0,0,1-2-8c0-1,0-1.77.07-2.3A76.88,76.88,0,0,1,112.52,24a29.53,29.53,0,0,1,5.54-9q3.31-3.55,7-3.56a4.5,4.5,0,0,1,3.46,1.4,5,5,0,0,1,1.3,3.49V17q-.72,7.28-5.91,15.19A52.54,52.54,0,0,1,112.44,45a30.66,30.66,0,0,0-.28,3.53c0,3.88,1.15,5.83,3.45,5.83s5.06-1.68,8-5a1.71,1.71,0,0,1,1.26-.51,2.12,2.12,0,0,1,1.44.62A1.93,1.93,0,0,1,127,50.9a2.73,2.73,0,0,1-.87,1.83Q120.66,58.93,114.46,58.93Zm8.78-41.55q-3,0-6.08,7.71A68.22,68.22,0,0,0,113,39.7a67.67,67.67,0,0,0,7.81-10.8q3.57-6,3.64-10.08Q124.47,17.38,123.24,17.38Z" transform="translate(0 -0.13)"/><path class="cls-2" d="M125.62,81.53q-6,0-6-4.89a5.22,5.22,0,0,1,.44-2.23q.21-.59.39-1a4.86,4.86,0,0,1,.58-1c.26-.39.46-.69.61-.9s.38-.54.72-1,.56-.72.68-.87.37-.42.76-.83a6.27,6.27,0,0,0,.65-.75,37.56,37.56,0,0,1,7.41-6.12q2.67-1.73,3.6-2.45l2.16-6.26a10.47,10.47,0,0,1-3.6,4,8.48,8.48,0,0,1-4.71,1.58,5.37,5.37,0,0,1-4.11-2,7.16,7.16,0,0,1-1.76-4.93,28.61,28.61,0,0,1,3.46-13.54,4.54,4.54,0,0,1,1.51-1.62A3.41,3.41,0,0,1,130.3,36a2.45,2.45,0,0,1,1.51.47,1.66,1.66,0,0,1,.65,1.44,5.74,5.74,0,0,1-.87,2.55,11.3,11.3,0,0,0-.57,1.3,35.52,35.52,0,0,0-1.8,9.32c0,2.19.84,3.28,2.52,3.28q3.81,0,6-7.27l2.09-7.49c.58-2.16,1.68-3.24,3.32-3.24,1.43,0,2.15.45,2.15,1.37a41.4,41.4,0,0,1-1.33,7.59q-1.33,5.65-2.19,10.91a95.54,95.54,0,0,1,11.88-7.63,2.14,2.14,0,0,1,1-.22,1.78,1.78,0,0,1,1.23.69,2.56,2.56,0,0,1,.65,1.83A2.6,2.6,0,0,1,155,53q-12,7-14,8.42a51.92,51.92,0,0,1-3,10.73,19.38,19.38,0,0,1-2.74,4.9,12.79,12.79,0,0,1-4,3.2A11.62,11.62,0,0,1,125.62,81.53Zm.86-4.17a4.63,4.63,0,0,0,3.1-1.37q3-3,5-11.45a26.57,26.57,0,0,0-6.45,5.73c-2.18,2.56-3.27,4.39-3.27,5.47A1.42,1.42,0,0,0,126.48,77.36Z" transform="translate(0 -0.13)"/></g><path class="cls-2" d="M37.89,50.31C46.55,43.53,50,29.05,48.51,18.56,47,7.51,39,.38,27.82.13,16-.14,8,10.72,5.52,21.13c-2.84,11.78.83,25.76,10,34a29,29,0,0,0,6.58,4.38c2.54,1.25,5.51,1.79,7.8,3.44,4.75,3.44,7.74,6.48,14,6.91,3.47.24,3.45-5.16,0-5.4-5.38-.41-7.5-3.81-11.6-6.41s-8.72-3.18-12.48-6.28C10.11,43.77,7,27.6,12.69,16.45c2.81-5.53,8-10.6,14.5-10.9,5.51-.26,11.24,2.25,13.94,7.14,5.39,9.76,1.66,27-7,33.85-2.73,2.14,1.11,5.94,3.82,3.82Z" transform="translate(0 -0.13)"/><path class="cls-2" d="M22.2,1.71C8.91,4.18,10,20.87,12,30.71c1.19,5.77,2.82,11.82,7.42,15.86,2.52,2.21,4.13,3.7,5,7.19.64,2.58,1,4.24,2.81,6.27,1.9,2.19,5.07-1,3.18-3.18-2.52-2.91-1.5-7.69-4-10.72-1.12-1.36-3-2-4.32-3.23a17.53,17.53,0,0,1-4.41-7.79C15.1,27,11.08,8.34,23.4,6.05,26.24,5.52,25,1.18,22.2,1.71Z" transform="translate(0 -0.13)"/><path class="cls-2" d="M13.17,6.47C3.3,14.56-1.44,28.53.38,41.05,1.2,46.71,3.62,53,8,56.85c5.15,4.53,14.33,3.73,20.67,5,2.83.55,4-3.78,1.2-4.34-5.38-1.06-11.6-.66-16.72-2.72C7.64,52.54,5.3,44.69,4.69,39.31,3.53,28.34,7.75,16.67,16.3,9.65c2.24-1.83-1-5-3.18-3.18Z" transform="translate(0 -0.13)"/></svg>