<svg id="Layer_1" data-name="Layer 1" xmlns="http://www.w3.org/2000/svg" viewBox="0 0 156.51 81.42"><title>Quilly Full Logo - Black Text</title><path d="M78.24,39.28A68.26,68.26,0,0,0,75,53.61l-.07.86q0,1.66,1,1.66,2.3-.14,6-4.18a2.81,2.81,0,0,1,1.55-.72,2.39,2.39,0,0,1,1.48.83,2.29,2.29,0,0,1,.86,1.55q0,1.66-4.43,4.5T74.28,61Q70,61,70,56.71l.22-2.23a11.7,11.7,0,0,1-3,4.39A7.4,7.4,0,0,1,61.82,61a5.41,5.41,0,0,1-4.64-2.09,8.83,8.83,0,0,1-1.55-5.4,29.88,29.88,0,0,1,1.48-9,36,36,0,0,1,2.34-6.16,2.57,2.57,0,0,1,2.27-1.48,3.51,3.51,0,0,1,2.12.54q.72.54.72,1a43.77,43.77,0,0,1-1.73,5.29,33.41,33.41,0,0,0-2,8.5v.5q0,3.53,2.45,3.53,1.94,0,4-2.27a15.68,15.68,0,0,0,3.2-6.23l1.94-7.2a7.62,7.62,0,0,1,1.4-3,2.51,2.51,0,0,1,1.8-.65,2.92,2.92,0,0,1,1.91.65A1.85,1.85,0,0,1,78.31,39Z" transform="translate(-8.7 -2.07)"/><path d="M82.12,53.75a29.26,29.26,0,0,1,1.15-7.45,30.15,30.15,0,0,1,2.3-6.37,6,6,0,0,1,2-2.48,4.29,4.29,0,0,1,1.87-.4,3.17,3.17,0,0,1,1.8.5A1.38,1.38,0,0,1,92,38.63a5.13,5.13,0,0,1-.83,2A32.43,32.43,0,0,0,89,46.27a24,24,0,0,0-1.3,6.7q0,3.39,2.52,3.38,3,0,7.27-4.9a1.74,1.74,0,0,1,1.4-.72,2.22,2.22,0,0,1,1.51.61,1.88,1.88,0,0,1,.68,1.44,3.09,3.09,0,0,1-.79,1.84Q95,60.88,89.25,60.88a6.93,6.93,0,0,1-5.18-2A7,7,0,0,1,82.12,53.75ZM92.71,32.3q-3.89,0-3.89-3.38a3.5,3.5,0,0,1,1.26-2.84,4.86,4.86,0,0,1,3.2-1q3.6,0,3.6,3.24a3.85,3.85,0,0,1-1.15,3A4.24,4.24,0,0,1,92.71,32.3Z" transform="translate(-8.7 -2.07)"/><path d="M105.23,60.88A6.27,6.27,0,0,1,99.69,58a14.19,14.19,0,0,1-1.94-8q0-1.51.07-2.3A76.94,76.94,0,0,1,103.29,26a29.63,29.63,0,0,1,5.54-9q3.31-3.56,7-3.56a4.48,4.48,0,0,1,3.46,1.4,5,5,0,0,1,1.3,3.49v.58q-.72,7.27-5.9,15.19a52.57,52.57,0,0,1-11.45,12.82,30.58,30.58,0,0,0-.29,3.53q0,5.83,3.45,5.83t8-5a1.71,1.71,0,0,1,1.26-.5,2.14,2.14,0,0,1,1.44.61,2,2,0,0,1,.68,1.51,2.75,2.75,0,0,1-.86,1.84Q111.43,60.88,105.23,60.88ZM114,19.34q-3,0-6.08,7.7a68.39,68.39,0,0,0-4.14,14.62,67.73,67.73,0,0,0,7.81-10.8q3.56-6,3.64-10.08Q115.24,19.34,114,19.34Z" transform="translate(-8.7 -2.07)"/><path d="M123.16,60.88A6.27,6.27,0,0,1,117.62,58a14.19,14.19,0,0,1-1.94-8q0-1.51.07-2.3A76.93,76.93,0,0,1,121.22,26a29.63,29.63,0,0,1,5.54-9q3.31-3.56,7-3.56a4.48,4.48,0,0,1,3.46,1.4,5,5,0,0,1,1.3,3.49v.58q-.72,7.27-5.9,15.19a52.57,52.57,0,0,1-11.45,12.82,30.61,30.61,0,0,0-.29,3.53q0,5.83,3.46,5.83t8-5a1.71,1.71,0,0,1,1.26-.5,2.14,2.14,0,0,1,1.44.61,2,2,0,0,1,.68,1.51,2.75,2.75,0,0,1-.86,1.84Q129.35,60.88,123.16,60.88Zm8.78-41.54q-3,0-6.08,7.7a68.39,68.39,0,0,0-4.14,14.62,67.73,67.73,0,0,0,7.81-10.8q3.56-6,3.64-10.08Q133.17,19.34,131.95,19.34Z" transform="translate(-8.7 -2.07)"/><path d="M134.32,83.49q-6,0-6-4.9a5.29,5.29,0,0,1,.43-2.23l.4-1a5.12,5.12,0,0,1,.58-1l.61-.9c.14-.22.38-.54.72-1l.68-.86q.18-.22.76-.83a5.76,5.76,0,0,0,.65-.76,38.11,38.11,0,0,1,7.42-6.12q2.66-1.73,3.6-2.45l2.16-6.26a10.51,10.51,0,0,1-3.6,4A8.47,8.47,0,0,1,138,60.67a5.35,5.35,0,0,1-4.1-2,7.13,7.13,0,0,1-1.76-4.93,28.66,28.66,0,0,1,3.46-13.54,4.6,4.6,0,0,1,1.51-1.62,3.4,3.4,0,0,1,1.87-.68,2.52,2.52,0,0,1,1.51.47,1.66,1.66,0,0,1,.65,1.44,5.78,5.78,0,0,1-.86,2.56,11.09,11.09,0,0,0-.58,1.3,35.52,35.52,0,0,0-1.8,9.32q0,3.28,2.52,3.28,3.82,0,6-7.27l2.09-7.49q.86-3.24,3.31-3.24,2.16,0,2.16,1.37a41.59,41.59,0,0,1-1.33,7.6q-1.33,5.65-2.2,10.91a96.76,96.76,0,0,1,11.88-7.63,2.22,2.22,0,0,1,1-.22,1.79,1.79,0,0,1,1.22.68,2.44,2.44,0,0,1-.86,3.92q-12,7.06-14,8.42a51.66,51.66,0,0,1-3,10.73A19.35,19.35,0,0,1,143.9,79a12.87,12.87,0,0,1-4,3.2A11.62,11.62,0,0,1,134.32,83.49Zm.86-4.18a4.62,4.62,0,0,0,3.1-1.37q3-3,5-11.45a26.35,26.35,0,0,0-6.44,5.72q-3.28,3.85-3.28,5.47A1.42,1.42,0,0,0,135.19,79.32Z" transform="translate(-8.7 -2.07)"/><path d="M46.59,52.26C55.25,45.48,58.69,31,57.21,20.51,55.66,9.46,47.72,2.33,36.52,2.08c-11.86-.27-19.79,10.59-22.3,21-2.84,11.78.83,25.76,10,34a28.88,28.88,0,0,0,6.58,4.38c2.54,1.25,5.51,1.79,7.8,3.44,4.75,3.44,7.74,6.48,14,6.91,3.47.24,3.45-5.16,0-5.4C47.22,66,45.1,62.6,41,60s-8.72-3.18-12.48-6.28c-9.71-8-12.81-24.17-7.13-35.32,2.81-5.53,8-10.6,14.5-10.9,5.51-.26,11.24,2.25,13.94,7.14,5.39,9.76,1.66,27-7,33.85-2.73,2.14,1.11,5.94,3.82,3.82Z" transform="translate(-8.7 -2.07)"/><path d="M30.9,3.66c-13.29,2.47-12.24,19.16-10.21,29,1.19,5.77,2.82,11.82,7.42,15.86,2.52,2.21,4.13,3.7,5,7.19.64,2.58,1,4.24,2.81,6.27,1.9,2.19,5.07-1,3.18-3.18-2.52-2.91-1.5-7.69-4-10.72-1.12-1.36-3-2-4.32-3.23a17.58,17.58,0,0,1-4.41-7.79C23.8,28.9,19.78,10.29,32.1,8c2.84-.53,1.64-4.87-1.2-4.34Z" transform="translate(-8.7 -2.07)"/><path d="M21.87,8.42C12,16.51,7.26,30.48,9.08,43c.82,5.66,3.24,11.93,7.65,15.8,5.15,4.53,14.33,3.73,20.67,5,2.83.55,4-3.78,1.2-4.34C33.22,58.4,27,58.8,21.88,56.74,16.34,54.49,14,46.64,13.39,41.26,12.23,30.29,16.45,18.62,25,11.6c2.24-1.83-1-5-3.18-3.18Z" transform="translate(-8.7 -2.07)"/></svg>