<svg xmlns="http://www.w3.org/2000/svg" viewBox="0 0 693 197"><defs><style>.cls-1,.cls-2{fill:#fff;}.cls-2{font-size:100px;font-family:AktivGrotesk-Light, Aktiv Grotesk;letter-spacing:-0.01em;}.cls-3{letter-spacing:-0.02em;}.cls-4{letter-spacing:-0.02em;}.cls-5{letter-spacing:-0.02em;}.cls-6{letter-spacing:0em;}.cls-7{letter-spacing:-0.12em;}.cls-8{letter-spacing:-0.03em;}.cls-9{letter-spacing:0.01em;}.cls-10{letter-spacing:-0.01em;}</style></defs><title>ghost_texts-heavy</title><g id="Layer_2" data-name="Layer 2"><g id="Layer_1-2" data-name="Layer 1"><path class="cls-1" d="M76.9,0A74.9,74.9,0,0,0,0,75c.1,41.7,34.8,75.6,76.5,74.6A74.7,74.7,0,0,0,131,124.3l16.5,22.4a1.2,1.2,0,0,0,2.2-.7V75.7C149.7,35,117.6,1.1,76.9,0Zm25.9,35.7A18.1,18.1,0,1,1,84.7,53.8,18.1,18.1,0,0,1,102.8,35.7Zm-56,0A18.1,18.1,0,0,1,64.9,53c0,2.8-4.3,2.8-4.3,0A13.8,13.8,0,0,0,33,53a2.1,2.1,0,1,1-4.2,0A18,18,0,0,1,46.8,35.7Zm44.4,71.8v3.1c0,10-7.4,15.1-16.4,15.1s-16-5.1-16-15.1v-3.2c-14.8-4-27.5-13-29.7-23.4,0-1.7,2.9-1.7,2.9,0,3,8.6,12.4,14.4,24.9,17.1a78.5,78.5,0,0,0,17.3,1.8h1.6a79.2,79.2,0,0,0,17.3-1.8C105.6,98.4,115,92.6,118,84c0-1.7,2.9-1.7,2.9,0C118.7,94.4,106,103.5,91.2,107.5Z"/><text class="cls-2" transform="translate(175.1 113.9)">G<tspan class="cls-3" x="70.4" y="0">h</tspan><tspan class="cls-4" x="124.6" y="0">o</tspan><tspan class="cls-5" x="181.6" y="0">s</tspan><tspan class="cls-6" x="231.4" y="0">t </tspan><tspan class="cls-7" x="286.7" y="0">T</tspan><tspan class="cls-8" x="333.3" y="0">e</tspan><tspan class="cls-9" x="385.9" y="0">x</tspan><tspan class="cls-10" x="434.7" y="0">t</tspan><tspan class="cls-6" x="466.5" y="0">s</tspan></text></g></g></svg>