<svg xmlns="http://www.w3.org/2000/svg" viewBox="0 0 688 149.7"><defs><style>.cls-1{fill:#fff;}</style></defs><title>ghost-texts-heavy</title><g id="Layer_2" data-name="Layer 2"><g id="Layer_1-2" data-name="Layer 1"><path class="cls-1" d="M76.9,0A74.9,74.9,0,0,0,0,75c.1,41.7,34.8,75.6,76.5,74.6A74.7,74.7,0,0,0,131,124.3l16.5,22.4a1.2,1.2,0,0,0,2.2-.7V75.7C149.7,35,117.6,1.1,76.9,0Zm25.9,35.7A18.1,18.1,0,1,1,84.7,53.8,18.1,18.1,0,0,1,102.8,35.7Zm-56,0A18.1,18.1,0,0,1,64.9,53c0,2.8-4.3,2.8-4.3,0A13.8,13.8,0,0,0,33,53a2.1,2.1,0,1,1-4.2,0A18,18,0,0,1,46.8,35.7Zm44.4,71.8v3.1c0,10-7.4,15.1-16.4,15.1s-16-5.1-16-15.1v-3.2c-14.8-4-27.5-13-29.7-23.4,0-1.7,2.9-1.7,2.9,0,3,8.6,12.4,14.4,24.9,17.1a78.5,78.5,0,0,0,17.3,1.8h1.6a79.2,79.2,0,0,0,17.3-1.8C105.6,98.4,115,92.6,118,84c0-1.7,2.9-1.7,2.9,0C118.7,94.4,106,103.5,91.2,107.5Z"/><path class="cls-1" d="M213.8,78.6H240v27.6a31.9,31.9,0,0,1-5.9,4.3,35.7,35.7,0,0,1-6.7,2.9,34,34,0,0,1-7,1.7,43.2,43.2,0,0,1-7,.6,34.9,34.9,0,0,1-13.7-2.5,26.7,26.7,0,0,1-10.3-7.2,31.5,31.5,0,0,1-6.5-11.7,51.4,51.4,0,0,1-2.2-15.9,50.4,50.4,0,0,1,2.4-16.3,34.7,34.7,0,0,1,6.7-11.8,29.2,29.2,0,0,1,10.1-7.2,32,32,0,0,1,12.5-2.4q11.1,0,17.4,5.1a26.7,26.7,0,0,1,8.7,14.4l-5.7,1.3a36.1,36.1,0,0,0-2.6-6.3,16.9,16.9,0,0,0-3.9-4.9,20.2,20.2,0,0,0-5.8-3.2,27.8,27.8,0,0,0-8.1-1.1,24.1,24.1,0,0,0-11,2.4,21.3,21.3,0,0,0-7.9,6.7,28.5,28.5,0,0,0-4.9,10.2A47.5,47.5,0,0,0,187,78.2a47.5,47.5,0,0,0,1.6,12.9,28.4,28.4,0,0,0,4.9,10.2,22,22,0,0,0,8.2,6.6,26.6,26.6,0,0,0,11.7,2.4,37.7,37.7,0,0,0,11.1-1.6,29.2,29.2,0,0,0,9.7-4.7V84.1H213.8Z"/><path class="cls-1" d="M252.4,42.5h5.8V70.8a26.5,26.5,0,0,1,9-7.7,23.3,23.3,0,0,1,10.1-2.3c5.9,0,10.2,1.6,13,4.9s4.2,7.9,4.2,13.9v34.3h-5.8V81.2c0-5.4-.9-9.3-2.9-11.7s-5-3.5-9.2-3.5a20.9,20.9,0,0,0-6.3,1.1,17.5,17.5,0,0,0-6.1,3.7,19.6,19.6,0,0,0-4.5,5.3,16.3,16.3,0,0,0-1.5,7.6v30.2h-5.8Z"/><path class="cls-1" d="M329.1,115.5a27.3,27.3,0,0,1-10.2-1.9,21.5,21.5,0,0,1-7.5-5.5,24.9,24.9,0,0,1-4.7-8.5,36.1,36.1,0,0,1-1.6-11.2A36.9,36.9,0,0,1,306.8,77a26.3,26.3,0,0,1,4.9-8.7,21.6,21.6,0,0,1,7.7-5.6,27.8,27.8,0,0,1,20.2,0,20.7,20.7,0,0,1,7.6,5.4,23.8,23.8,0,0,1,4.7,8.6,35,35,0,0,1,1.7,11.1,36.9,36.9,0,0,1-1.7,11.4,24.6,24.6,0,0,1-4.9,8.7,19.7,19.7,0,0,1-7.7,5.6A25.4,25.4,0,0,1,329.1,115.5Zm.2-5a17.6,17.6,0,0,0,8.3-1.8,15,15,0,0,0,5.6-4.7,20.1,20.1,0,0,0,3.2-7.1,36.2,36.2,0,0,0,1-8.9,34.6,34.6,0,0,0-1-8.7,19.6,19.6,0,0,0-3.2-7,16.3,16.3,0,0,0-5.6-4.8,18.9,18.9,0,0,0-8.3-1.7,19.2,19.2,0,0,0-8.3,1.7,16.3,16.3,0,0,0-5.6,4.8,21.3,21.3,0,0,0-3.1,7,34.9,34.9,0,0,0-1,8.8,36,36,0,0,0,1,8.8,21.9,21.9,0,0,0,3.1,7.1,15,15,0,0,0,5.6,4.7A17.8,17.8,0,0,0,329.3,110.5Z"/><path class="cls-1" d="M366.8,99.6c.7,4,2.4,6.8,5.1,8.5s6.5,2.5,11.4,2.5,8.5-1,10.6-2.8a9,9,0,0,0,3.1-7,12.7,12.7,0,0,0-.4-3.4,6.6,6.6,0,0,0-1.6-2.8,7.6,7.6,0,0,0-3.3-2.2,25,25,0,0,0-5.5-1.5l-6.3-1c-2.7-.5-5.2-1.1-7.4-1.7a20.1,20.1,0,0,1-5.5-2.7,10.4,10.4,0,0,1-3.4-4.1,15,15,0,0,1-1.1-6,12.9,12.9,0,0,1,1.5-6.2,15,15,0,0,1,4.1-4.6,19,19,0,0,1,6.1-2.8,27.6,27.6,0,0,1,7.7-1,31.3,31.3,0,0,1,8.8,1,16.6,16.6,0,0,1,5.8,2.9,12.7,12.7,0,0,1,3.5,4.2,22.5,22.5,0,0,1,2,5.1l-5.3,1.1a19.5,19.5,0,0,0-1.9-4.1,10.2,10.2,0,0,0-2.6-2.9,13.4,13.4,0,0,0-4-1.7,31.4,31.4,0,0,0-12.7.1,12,12,0,0,0-4.4,2.1,6.8,6.8,0,0,0-2.3,3,8.4,8.4,0,0,0-.7,3.5,10.4,10.4,0,0,0,.4,3.2,6,6,0,0,0,1.6,2.6,12.5,12.5,0,0,0,3.3,1.9,39.6,39.6,0,0,0,5.7,1.4l7.9,1.3c5.4.9,9.4,2.5,12.1,4.8s4,5.8,4,10.6a12.5,12.5,0,0,1-1.3,5.7,11.6,11.6,0,0,1-3.7,4.6,16.7,16.7,0,0,1-6.1,3.1,27.7,27.7,0,0,1-8.5,1.2,40.1,40.1,0,0,1-8.7-.9,22.1,22.1,0,0,1-6.8-2.8,15.7,15.7,0,0,1-4.7-4.9,17.9,17.9,0,0,1-2.2-7.3Z"/><path class="cls-1" d="M416.4,67.2h-8V62.4h8V48.2h5.8V62.4h14.6v4.8H422.2v33.7a11.7,11.7,0,0,0,1.6,6.4c1,1.8,2.9,2.7,5.6,2.7a26.5,26.5,0,0,0,4.4-.4l3.2-.9,1.2,4.7c-1,.4-2.3.7-3.7,1.1a27.5,27.5,0,0,1-5.6.5,13.1,13.1,0,0,1-6.9-1.5,9.2,9.2,0,0,1-3.8-4,15.9,15.9,0,0,1-1.5-5.6c-.2-2.2-.3-4.4-.3-6.7Z"/><path class="cls-1" d="M488.3,48.1H463.5V42.5h55.6v5.6H494.4v65.8h-6.1Z"/><path class="cls-1" d="M558.3,100.4a17.6,17.6,0,0,1-6.4,10.9c-3.4,2.8-8.4,4.2-14.8,4.2s-13.1-2.4-17.2-7.2-6.2-11.3-6.2-19.6a36.1,36.1,0,0,1,1.8-12,24.2,24.2,0,0,1,4.9-8.8,20.6,20.6,0,0,1,7.4-5.3,23.4,23.4,0,0,1,9.3-1.8,24.1,24.1,0,0,1,10.2,1.9,19.3,19.3,0,0,1,6.9,5.3,22.8,22.8,0,0,1,3.8,8,38.4,38.4,0,0,1,1.2,9.9v3.7H519.6a30.7,30.7,0,0,0,1.1,8.2,22.1,22.1,0,0,0,3.3,6.7,16,16,0,0,0,5.5,4.5,17,17,0,0,0,7.6,1.7,24.8,24.8,0,0,0,6.6-.8,13.4,13.4,0,0,0,4.5-2.1,11.3,11.3,0,0,0,2.9-3.3,16.7,16.7,0,0,0,1.6-4.1Zm-5.1-15.8a30.7,30.7,0,0,0-.9-7.7,16.3,16.3,0,0,0-2.8-6.1,11.5,11.5,0,0,0-5-3.9,16.6,16.6,0,0,0-7.4-1.4c-5,0-9,1.5-12,4.7s-4.8,7.9-5.4,14.4Z"/><path class="cls-1" d="M581.3,86.4l-17.4-24h6.8l14.2,20.1,14.3-20.1h6.3l-17,24.2,19.2,27.3h-6.8L584.7,90.7l-16,23.2h-6.5Z"/><path class="cls-1" d="M619.6,67.2h-8V62.4h8V48.2h5.8V62.4H640v4.8H625.4v33.7a12.6,12.6,0,0,0,1.6,6.4c1.1,1.8,3,2.7,5.6,2.7a25.5,25.5,0,0,0,4.4-.4l3.2-.9,1.2,4.7-3.6,1.1a28.6,28.6,0,0,1-5.7.5,13.6,13.6,0,0,1-6.9-1.5,9.5,9.5,0,0,1-3.7-4,14.1,14.1,0,0,1-1.6-5.6c-.2-2.2-.3-4.4-.3-6.7Z"/><path class="cls-1" d="M651.7,99.6c.7,4,2.4,6.8,5.1,8.5s6.5,2.5,11.4,2.5,8.5-1,10.6-2.8a9,9,0,0,0,3.1-7,12.7,12.7,0,0,0-.4-3.4,6.6,6.6,0,0,0-1.6-2.8,7.6,7.6,0,0,0-3.3-2.2,25,25,0,0,0-5.5-1.5l-6.3-1c-2.7-.5-5.2-1.1-7.4-1.7a20.1,20.1,0,0,1-5.5-2.7,10.4,10.4,0,0,1-3.4-4.1,15,15,0,0,1-1.1-6,12.9,12.9,0,0,1,1.5-6.2,15,15,0,0,1,4.1-4.6,19,19,0,0,1,6.1-2.8,27.6,27.6,0,0,1,7.7-1,31.3,31.3,0,0,1,8.8,1,16.6,16.6,0,0,1,5.8,2.9,12.7,12.7,0,0,1,3.5,4.2,22.5,22.5,0,0,1,2,5.1l-5.3,1.1a19.5,19.5,0,0,0-1.9-4.1,10.2,10.2,0,0,0-2.6-2.9,13.4,13.4,0,0,0-4-1.7,31.4,31.4,0,0,0-12.7.1,12,12,0,0,0-4.4,2.1,6.8,6.8,0,0,0-2.3,3,8.4,8.4,0,0,0-.7,3.5,10.4,10.4,0,0,0,.4,3.2,6,6,0,0,0,1.6,2.6,12.5,12.5,0,0,0,3.3,1.9,39.6,39.6,0,0,0,5.7,1.4l7.9,1.3c5.4.9,9.4,2.5,12.1,4.8s4,5.8,4,10.6a12.5,12.5,0,0,1-1.3,5.7,11.6,11.6,0,0,1-3.7,4.6,16.7,16.7,0,0,1-6.1,3.1,27.7,27.7,0,0,1-8.5,1.2,40.1,40.1,0,0,1-8.7-.9,22.1,22.1,0,0,1-6.8-2.8,15.7,15.7,0,0,1-4.7-4.9,17.9,17.9,0,0,1-2.2-7.3Z"/></g></g></svg>