<svg xmlns="http://www.w3.org/2000/svg" xmlns:xlink="http://www.w3.org/1999/xlink" viewBox="0 0 2000 1000"><defs><style>.cls-1{fill:url(#linear-gradient);}.cls-2{fill:#45f2ff;}.cls-3{fill:url(#linear-gradient-2);}.cls-4{fill:url(#linear-gradient-3);}.cls-5{fill:#1721ff;}</style><linearGradient id="linear-gradient" y1="500" x2="2000" y2="500" gradientUnits="userSpaceOnUse"><stop offset="0" stop-color="#797b7c" stop-opacity="0.3"/><stop offset="1" stop-color="#fff" stop-opacity="0.4"/></linearGradient><linearGradient id="linear-gradient-2" x1="1506.63" y1="327.52" x2="1845.7" y2="327.52" gradientUnits="userSpaceOnUse"><stop offset="0" stop-color="#45f2ff" stop-opacity="0.5"/><stop offset="1" stop-color="#ea4ecd" stop-opacity="0.5"/></linearGradient><linearGradient id="linear-gradient-3" x1="1264.23" y1="0.06" x2="1641.57" y2="0.06" gradientTransform="translate(613.97 -684.87) rotate(45)" xlink:href="#linear-gradient-2"/></defs><title>billing</title><g id="single_graphic" data-name="single graphic"><path class="cls-1" d="M2000,1000,627,160.65a303,303,0,0,0-89.88-36.71L0,0H2000Z"/><path class="cls-2" d="M1843.84,333.05c0,128.78-147,218-203.16,194.06-30.62-13-17.29-52.48-63.68-121.29-52.43-77.77-103.94-78.51-109.16-121.28-7.16-58.69,79.54-140.47,172.84-145.55C1744.38,133.34,1843.84,220.72,1843.84,333.05Z"/><path class="cls-3" d="M1790,466.66c-91.06,91.06-258.07,50.22-280.88-6.43-12.43-30.88,24.89-49.33,40.74-130.79,17.92-92.07-18-129,8.57-162.95,36.44-46.56,155.57-43.08,225.14,19.3C1860.88,255.12,1869.43,387.24,1790,466.66Z"/><path class="cls-4" d="M1625.53,523.07c-149.92,0-253.79-147-225.93-203.16,15.18-30.62,61.1-17.29,141.21-63.67,90.54-52.44,91.4-104,141.21-109.16,68.32-7.17,163.53,79.53,169.45,172.83C1858,423.61,1756.31,523.07,1625.53,523.07Z"/><path class="cls-5" d="M1675.72,478.6c-1.86,0-3.43-1.06-3.68-2.49l-45-264.94-32.52,171.42c-.26,1.4-1.82,2.44-3.66,2.44h0c-1.84,0-3.4-1-3.66-2.45l-16.37-88.41-19,33a4.2,4.2,0,0,1-4.89,1.46c-1.87-.64-2.71-2.33-1.88-3.78l24.26-42.1a4,4,0,0,1,3.89-1.67,3.37,3.37,0,0,1,3.16,2.43l14.57,78.67L1623.54,190c.26-1.4,1.83-2.44,3.66-2.44h0c1.85,0,3.41,1.07,3.65,2.48l43.91,258.31,21.49-211.38c.15-1.42,1.62-2.54,3.46-2.63a3.68,3.68,0,0,1,3.87,2.28l33.33,124.28,32.25-87.06a3.67,3.67,0,0,1,3.48-2.08,3.76,3.76,0,0,1,3.6,2l19,44,10.19-66.8c.23-1.57,2.08-2.69,4.11-2.51s3.49,1.61,3.25,3.18l-12.13,79.53a3.4,3.4,0,0,1-3.3,2.51,3.87,3.87,0,0,1-3.9-1.94L1773,284.24l-33.09,89.36a3.71,3.71,0,0,1-3.7,2.07,3.59,3.59,0,0,1-3.5-2.27l-31.1-116L1679.41,476c-.14,1.46-1.7,2.6-3.59,2.64Z"/></g></svg>