<svg xmlns="http://www.w3.org/2000/svg" xmlns:xlink="http://www.w3.org/1999/xlink" viewBox="0 0 801 400.5"><defs><style>.cls-1,.cls-79{fill:none;}.cls-2{isolation:isolate;}.cls-3{fill:url(#linear-gradient);}.cls-4{fill:url(#linear-gradient-2);}.cls-5{fill:url(#linear-gradient-3);}.cls-6{fill:url(#linear-gradient-4);}.cls-7{fill:url(#linear-gradient-5);}.cls-8{fill:url(#linear-gradient-6);}.cls-9{fill:url(#linear-gradient-7);}.cls-10{fill:url(#linear-gradient-8);}.cls-11{fill:url(#linear-gradient-9);}.cls-12{fill:url(#linear-gradient-10);}.cls-13{fill:url(#linear-gradient-11);}.cls-14{fill:url(#linear-gradient-12);}.cls-15{fill:url(#linear-gradient-13);}.cls-16{fill:url(#linear-gradient-14);}.cls-17{fill:url(#linear-gradient-15);}.cls-18{fill:url(#linear-gradient-16);}.cls-19{fill:url(#linear-gradient-17);}.cls-20{fill:url(#linear-gradient-18);}.cls-21{fill:url(#linear-gradient-19);}.cls-22{fill:url(#linear-gradient-20);}.cls-23{fill:url(#linear-gradient-21);}.cls-24{fill:url(#linear-gradient-22);}.cls-25{fill:url(#linear-gradient-23);}.cls-26{fill:url(#linear-gradient-24);}.cls-27{fill:url(#linear-gradient-25);}.cls-28{fill:url(#linear-gradient-26);}.cls-29{fill:url(#linear-gradient-27);}.cls-30{fill:url(#linear-gradient-28);}.cls-31{fill:url(#linear-gradient-29);}.cls-32{fill:url(#linear-gradient-30);}.cls-33{fill:url(#linear-gradient-31);}.cls-34{fill:url(#linear-gradient-32);}.cls-35{fill:url(#linear-gradient-33);}.cls-36{fill:url(#linear-gradient-34);}.cls-37{fill:url(#linear-gradient-35);}.cls-38{fill:url(#linear-gradient-36);}.cls-39{fill:url(#linear-gradient-37);}.cls-40{fill:#ef5023;}.cls-41{fill:url(#linear-gradient-38);}.cls-42{fill:url(#linear-gradient-39);}.cls-43{fill:url(#linear-gradient-40);}.cls-44{fill:url(#linear-gradient-41);}.cls-45{fill:url(#linear-gradient-42);}.cls-46{fill:url(#linear-gradient-43);}.cls-47{fill:url(#linear-gradient-44);}.cls-48{fill:url(#linear-gradient-45);}.cls-49{fill:url(#linear-gradient-46);}.cls-50{fill:url(#linear-gradient-47);}.cls-51{fill:url(#linear-gradient-48);}.cls-52{fill:url(#linear-gradient-49);}.cls-53{fill:url(#linear-gradient-50);}.cls-54{fill:url(#linear-gradient-51);}.cls-55{fill:url(#linear-gradient-52);}.cls-56{fill:url(#linear-gradient-53);}.cls-57{fill:url(#linear-gradient-54);}.cls-58{fill:url(#linear-gradient-55);}.cls-59{fill:url(#linear-gradient-56);}.cls-60{fill:url(#linear-gradient-57);}.cls-61{fill:url(#linear-gradient-58);}.cls-62{fill:url(#linear-gradient-59);}.cls-63{fill:url(#linear-gradient-60);}.cls-64{fill:url(#linear-gradient-61);}.cls-65{fill:#d2d2ff;}.cls-66{fill:url(#linear-gradient-62);}.cls-67{fill:url(#linear-gradient-63);}.cls-68{fill:url(#linear-gradient-64);}.cls-69{fill:url(#linear-gradient-65);}.cls-70{fill:url(#linear-gradient-66);}.cls-71{fill:url(#linear-gradient-67);}.cls-72{fill:url(#linear-gradient-68);}.cls-73{fill:url(#linear-gradient-69);}.cls-74{fill:url(#linear-gradient-70);}.cls-75{fill:#252526;}.cls-76{fill:#e5cbb1;}.cls-76,.cls-83{mix-blend-mode:multiply;}.cls-77{clip-path:url(#clip-path);}.cls-78{fill:#0ba14a;}.cls-79{stroke:#fff;stroke-miterlimit:10;}.cls-80{clip-path:url(#clip-path-2);}.cls-81{clip-path:url(#clip-path-3);}.cls-82{clip-path:url(#clip-path-4);}.cls-83{opacity:0.51;}.cls-84{fill:#0d23a0;opacity:0.65;}</style><linearGradient id="linear-gradient" x1="1199.03" y1="95.51" x2="2000" y2="95.51" gradientUnits="userSpaceOnUse"><stop offset="0.21" stop-color="#fff" stop-opacity="0.9"/><stop offset="1" stop-color="#040454"/></linearGradient><linearGradient id="linear-gradient-2" x1="1199.03" y1="46.57" x2="2000" y2="46.57" xlink:href="#linear-gradient"/><linearGradient id="linear-gradient-3" x1="1199.03" y1="217.07" x2="2000" y2="217.07" xlink:href="#linear-gradient"/><linearGradient id="linear-gradient-4" x1="1199.03" y1="68.23" x2="2000" y2="68.23" xlink:href="#linear-gradient"/><linearGradient id="linear-gradient-5" x1="1751.04" y1="145.56" x2="1861.51" y2="35.09" gradientUnits="userSpaceOnUse"><stop offset="0" stop-color="#fff" stop-opacity="0"/><stop offset="1" stop-color="#383875"/></linearGradient><linearGradient id="linear-gradient-6" x1="1199.03" y1="52.25" x2="2000" y2="52.25" xlink:href="#linear-gradient"/><linearGradient id="linear-gradient-7" x1="1722.23" y1="116.75" x2="1832.7" y2="6.28" xlink:href="#linear-gradient-5"/><linearGradient id="linear-gradient-8" x1="1199.03" y1="49.77" x2="2000" y2="49.77" xlink:href="#linear-gradient"/><linearGradient id="linear-gradient-9" x1="1835.58" y1="106.68" x2="1919.2" y2="23.05" xlink:href="#linear-gradient-5"/><linearGradient id="linear-gradient-10" x1="1199.03" y1="90.23" x2="2000" y2="90.23" xlink:href="#linear-gradient"/><linearGradient id="linear-gradient-11" x1="1875.91" y1="147.01" x2="1959.53" y2="63.38" xlink:href="#linear-gradient-5"/><linearGradient id="linear-gradient-12" x1="1199.03" y1="69.59" x2="2000" y2="69.59" xlink:href="#linear-gradient"/><linearGradient id="linear-gradient-13" x1="1847.76" y1="118.86" x2="1931.38" y2="35.23" xlink:href="#linear-gradient-5"/><linearGradient id="linear-gradient-14" x1="1199.03" y1="69.67" x2="2000" y2="69.67" xlink:href="#linear-gradient"/><linearGradient id="linear-gradient-15" x1="1761.75" y1="156.27" x2="1872.22" y2="45.8" xlink:href="#linear-gradient-5"/><linearGradient id="linear-gradient-16" x1="1823.46" y1="94.56" x2="1907.09" y2="10.94" xlink:href="#linear-gradient-5"/><linearGradient id="linear-gradient-17" x1="1199.03" y1="70.12" x2="2000" y2="70.12" xlink:href="#linear-gradient"/><linearGradient id="linear-gradient-18" x1="1781.83" y1="176.35" x2="1892.3" y2="65.88" xlink:href="#linear-gradient-5"/><linearGradient id="linear-gradient-19" x1="1843.54" y1="114.64" x2="1927.17" y2="31.02" xlink:href="#linear-gradient-5"/><linearGradient id="linear-gradient-20" x1="1199.03" y1="55.74" x2="2000" y2="55.74" xlink:href="#linear-gradient"/><linearGradient id="linear-gradient-21" x1="1763.54" y1="158.06" x2="1874.01" y2="47.59" xlink:href="#linear-gradient-5"/><linearGradient id="linear-gradient-22" x1="1825.25" y1="96.35" x2="1908.88" y2="12.73" xlink:href="#linear-gradient-5"/><linearGradient id="linear-gradient-23" x1="1199.03" y1="82.48" x2="2000" y2="82.48" xlink:href="#linear-gradient"/><linearGradient id="linear-gradient-24" x1="1765.84" y1="160.36" x2="1876.31" y2="49.89" xlink:href="#linear-gradient-5"/><linearGradient id="linear-gradient-25" x1="1827.55" y1="98.65" x2="1911.18" y2="15.03" xlink:href="#linear-gradient-5"/><linearGradient id="linear-gradient-26" x1="1199.03" y1="87.17" x2="2000" y2="87.17" xlink:href="#linear-gradient"/><linearGradient id="linear-gradient-27" x1="1782.51" y1="177.03" x2="1892.98" y2="66.56" xlink:href="#linear-gradient-5"/><linearGradient id="linear-gradient-28" x1="1844.22" y1="115.32" x2="1927.85" y2="31.7" xlink:href="#linear-gradient-5"/><linearGradient id="linear-gradient-29" x1="1199.03" y1="86.67" x2="2000" y2="86.67" xlink:href="#linear-gradient"/><linearGradient id="linear-gradient-30" x1="1789.05" y1="183.57" x2="1899.52" y2="73.1" xlink:href="#linear-gradient-5"/><linearGradient id="linear-gradient-31" x1="1850.76" y1="121.86" x2="1934.39" y2="38.24" xlink:href="#linear-gradient-5"/><linearGradient id="linear-gradient-32" x1="1199.03" y1="216.85" x2="2000" y2="216.85" xlink:href="#linear-gradient"/><linearGradient id="linear-gradient-33" x1="1198.96" y1="216.85" x2="2000" y2="216.85" gradientUnits="userSpaceOnUse"><stop offset="0" stop-color="#fff" stop-opacity="0.5"/><stop offset="1" stop-color="#5982ea"/></linearGradient><linearGradient id="linear-gradient-34" x1="1198.96" y1="216.85" x2="2000" y2="216.85" gradientUnits="userSpaceOnUse"><stop offset="0.31" stop-color="#fff" stop-opacity="0.5"/><stop offset="1" stop-color="#0a5bbc" stop-opacity="0.75"/></linearGradient><linearGradient id="linear-gradient-35" x1="1199.03" y1="129.92" x2="2000" y2="129.92" xlink:href="#linear-gradient"/><linearGradient id="linear-gradient-36" x1="1198.96" y1="129.92" x2="2000" y2="129.92" xlink:href="#linear-gradient-33"/><linearGradient id="linear-gradient-37" x1="1198.96" y1="129.92" x2="2000" y2="129.92" xlink:href="#linear-gradient-34"/><linearGradient id="linear-gradient-38" x1="1199.03" y1="175.63" x2="2000" y2="175.63" xlink:href="#linear-gradient"/><linearGradient id="linear-gradient-39" x1="1198.96" y1="175.63" x2="2000" y2="175.63" xlink:href="#linear-gradient-33"/><linearGradient id="linear-gradient-40" x1="1198.96" y1="175.63" x2="2000" y2="175.63" xlink:href="#linear-gradient-34"/><linearGradient id="linear-gradient-41" x1="1199.03" y1="90.06" x2="2000" y2="90.06" xlink:href="#linear-gradient"/><linearGradient id="linear-gradient-42" x1="1733.84" y1="128.36" x2="1844.31" y2="17.89" xlink:href="#linear-gradient-5"/><linearGradient id="linear-gradient-43" x1="1198.96" y1="90.06" x2="2000" y2="90.06" xlink:href="#linear-gradient-33"/><linearGradient id="linear-gradient-44" x1="1198.96" y1="90.06" x2="2000" y2="90.06" xlink:href="#linear-gradient-34"/><linearGradient id="linear-gradient-45" x1="1199.03" y1="98.9" x2="2000" y2="98.9" xlink:href="#linear-gradient"/><linearGradient id="linear-gradient-46" x1="1867.36" y1="138.46" x2="1950.99" y2="54.84" xlink:href="#linear-gradient-5"/><linearGradient id="linear-gradient-47" x1="1198.96" y1="98.9" x2="2000" y2="98.9" xlink:href="#linear-gradient-33"/><linearGradient id="linear-gradient-48" x1="1198.96" y1="98.9" x2="2000" y2="98.9" xlink:href="#linear-gradient-34"/><linearGradient id="linear-gradient-49" x1="1199.03" y1="93.73" x2="2000" y2="93.73" xlink:href="#linear-gradient"/><linearGradient id="linear-gradient-50" x1="1776.19" y1="170.71" x2="1886.66" y2="60.24" xlink:href="#linear-gradient-5"/><linearGradient id="linear-gradient-51" x1="1837.9" y1="108.99" x2="1921.52" y2="25.37" xlink:href="#linear-gradient-5"/><linearGradient id="linear-gradient-52" x1="1198.96" y1="93.73" x2="2000" y2="93.73" xlink:href="#linear-gradient-33"/><linearGradient id="linear-gradient-53" x1="1198.96" y1="93.73" x2="2000" y2="93.73" xlink:href="#linear-gradient-34"/><linearGradient id="linear-gradient-54" x1="1199.03" y1="170.38" x2="2000" y2="170.38" xlink:href="#linear-gradient"/><linearGradient id="linear-gradient-55" x1="1198.96" y1="170.38" x2="2000" y2="170.38" xlink:href="#linear-gradient-33"/><linearGradient id="linear-gradient-56" x1="1198.96" y1="170.38" x2="2000" y2="170.38" xlink:href="#linear-gradient-34"/><linearGradient id="linear-gradient-57" x1="1486.67" y1="170.38" x2="2000" y2="170.38" gradientUnits="userSpaceOnUse"><stop offset="0.02" stop-color="#fff" stop-opacity="0.5"/><stop offset="1" stop-color="#2929d3" stop-opacity="0.75"/></linearGradient><linearGradient id="linear-gradient-58" x1="1199.03" y1="195.59" x2="2000" y2="195.59" xlink:href="#linear-gradient"/><linearGradient id="linear-gradient-59" x1="1198.96" y1="195.59" x2="2000" y2="195.59" xlink:href="#linear-gradient-33"/><linearGradient id="linear-gradient-60" x1="1198.96" y1="195.59" x2="2000" y2="195.59" xlink:href="#linear-gradient-34"/><linearGradient id="linear-gradient-61" x1="1486.67" y1="195.59" x2="2000" y2="195.59" xlink:href="#linear-gradient-57"/><linearGradient id="linear-gradient-62" x1="1199.01" y1="307.15" x2="2000" y2="307.15" gradientUnits="userSpaceOnUse"><stop offset="0" stop-color="#fff"/><stop offset="1" stop-color="#251884"/></linearGradient><linearGradient id="linear-gradient-63" x1="1199.03" y1="59.24" x2="2000" y2="59.24" xlink:href="#linear-gradient"/><linearGradient id="linear-gradient-64" x1="1902.67" y1="59.24" x2="2037.29" y2="59.24" xlink:href="#linear-gradient-5"/><linearGradient id="linear-gradient-65" x1="1199.03" y1="70.81" x2="2000" y2="70.81" xlink:href="#linear-gradient"/><linearGradient id="linear-gradient-66" x1="1872.28" y1="143.38" x2="1955.9" y2="59.75" xlink:href="#linear-gradient-5"/><linearGradient id="linear-gradient-67" x1="1902.67" y1="70.81" x2="2037.29" y2="70.81" xlink:href="#linear-gradient-5"/><linearGradient id="linear-gradient-68" x1="1199.03" y1="69.31" x2="2000" y2="69.31" xlink:href="#linear-gradient"/><linearGradient id="linear-gradient-69" x1="1853.61" y1="124.72" x2="1937.24" y2="41.09" xlink:href="#linear-gradient-5"/><linearGradient id="linear-gradient-70" x1="1902.67" y1="69.31" x2="2037.29" y2="69.31" xlink:href="#linear-gradient-5"/><clipPath id="clip-path" transform="translate(-1199)"><path class="cls-1" d="M1926.86,234.21s15.35,12.29,23.65,0-2.9-47.61,12.46-44.54,3.87,53.93-6.65,58.37c-16,6.76-29.46-5.63-29.46-5.63Z"/></clipPath><clipPath id="clip-path-2" transform="translate(-1199)"><path class="cls-1" d="M1923.74,151.89s8.78,8.2,13.52,0-1.66-31.77,7.12-29.72,2.21,36-3.8,39c-9.15,4.51-16.84-3.76-16.84-3.76Z"/></clipPath><clipPath id="clip-path-3" transform="translate(-1199)"><path class="cls-1" d="M1922.94,207.91s-12.53,9.2-19.31,0,2.37-35.67-10.17-33.36-3.16,40.38,5.42,43.71c13.08,5.06,24.06-4.22,24.06-4.22Z"/></clipPath><clipPath id="clip-path-4" transform="translate(-1199)"><path class="cls-1" d="M1937.3,219.87c0,53.59-.77,99.74-12.37,98.59-25.81-2.56-18.94-43.45-18.94-97s4.78-97,15.24-97S1937.3,166.27,1937.3,219.87Z"/></clipPath></defs><title>homePageIllustrationSmall</title><g class="cls-2"><g id="blue_small_version_copy" data-name="blue small version copy"><path class="cls-1" d="M2000,217.12V0H1199V400.5h758.53c-83.67-3.79-265.9-25.8-307.37-144.38A96.68,96.68,0,0,1,1645,216.3c1-13.17,4.1-25.82,7.35-38.66.33-1.34.67-2.68,1-4,5.82-23.14,11.24-47.12,4-76.1-.38-1.54-.79-3.07-1.22-4.59-12.06-43-39.43-73.67-60.45-92.73h404.1V400.5h.2V217.12Z" transform="translate(-1199)"/><path class="cls-3" d="M1968.2,100.63c6.69.28,12.67.38,16.92.15l14.68-.79V90.11h-25.31A18.49,18.49,0,0,1,1968.2,100.63Z" transform="translate(-1199)"/><path class="cls-4" d="M1696.63,85a23.28,23.28,0,0,1-.34-3.94,23.62,23.62,0,0,1,12.21-20.69,25.26,25.26,0,0,1,33.66-18.8,38.19,38.19,0,0,1,66.49-4.77,32.82,32.82,0,0,1,37.24,7.71,30.21,30.21,0,0,1,15,8,28.9,28.9,0,0,1,47.55,1.09,24.7,24.7,0,0,1,10-2.1c.61,0,1.22,0,1.82.07a16.24,16.24,0,0,1,21.59,2.35,16.14,16.14,0,0,1,7.55-1.87l.54,0a29.24,29.24,0,0,1,49.9-14.53V.2H1595.7c21,19.06,48.39,49.71,60.45,92.73,11.22-1.93,20.69-3.6,22.74-4.44C1681.67,87.36,1689.92,86,1696.63,85Z" transform="translate(-1199)"/><path class="cls-5" d="M1999.8,217.11V217h-1.61Z" transform="translate(-1199)"/><path class="cls-6" d="M1832.59,71.37a18.94,18.94,0,0,1,4.68-9.25c-2.83-.17-6.17-.4-9.5-.67.18,2.12.22,9.66.24,13.55A17.94,17.94,0,0,1,1832.59,71.37Z" transform="translate(-1199)"/><path class="cls-7" d="M1832.59,71.37a18.94,18.94,0,0,1,4.68-9.25c-2.83-.17-6.17-.4-9.5-.67.18,2.12.22,9.66.24,13.55A17.94,17.94,0,0,1,1832.59,71.37Z" transform="translate(-1199)"/><path class="cls-8" d="M1763.21,77.14c5-2.44,27.28-2,36,0,7.42,1.74,16.64,5.56,24.59,6.12a18.08,18.08,0,0,1,1.49-4.24c-4.67-.36-8.63-.68-8.88-.72a32.14,32.14,0,0,1-4.9-1.34c-.1-.25,2.3-.26,2.3-.26l10.8.23c.45-2.11,2.52-11.82,2.58-13.12a17.29,17.29,0,0,1,.23-2.4c-7.59-.61-14.94-1.38-15.45-2-.75-.86,20-.77,29.32-.65a19,19,0,0,1,10.1-2.89,19.23,19.23,0,0,1,6.73,1.22,29.49,29.49,0,0,1,2.78-4.7,30.21,30.21,0,0,0-15-8,32.82,32.82,0,0,0-37.24-7.71,38.19,38.19,0,0,0-66.49,4.77,25.26,25.26,0,0,0-33.66,18.8A23.62,23.62,0,0,0,1696.29,81a23.28,23.28,0,0,0,.34,3.94c5.24-.79,9.54-1.33,9.54-1.33S1758.25,79.58,1763.21,77.14Z" transform="translate(-1199)"/><path class="cls-9" d="M1763.21,77.14c5-2.44,27.28-2,36,0,7.42,1.74,16.64,5.56,24.59,6.12a18.08,18.08,0,0,1,1.49-4.24c-4.67-.36-8.63-.68-8.88-.72a32.14,32.14,0,0,1-4.9-1.34c-.1-.25,2.3-.26,2.3-.26l10.8.23c.45-2.11,2.52-11.82,2.58-13.12a17.29,17.29,0,0,1,.23-2.4c-7.59-.61-14.94-1.38-15.45-2-.75-.86,20-.77,29.32-.65a19,19,0,0,1,10.1-2.89,19.23,19.23,0,0,1,6.73,1.22,29.49,29.49,0,0,1,2.78-4.7,30.21,30.21,0,0,0-15-8,32.82,32.82,0,0,0-37.24-7.71,38.19,38.19,0,0,0-66.49,4.77,25.26,25.26,0,0,0-33.66,18.8A23.62,23.62,0,0,0,1696.29,81a23.28,23.28,0,0,0,.34,3.94c5.24-.79,9.54-1.33,9.54-1.33S1758.25,79.58,1763.21,77.14Z" transform="translate(-1199)"/><path class="cls-10" d="M1864.58,56.82A24.45,24.45,0,0,1,1884.19,59c2.91.08,6.45.13,10.5-.06.88,0,6.71-.14,13.28-.16a18.33,18.33,0,0,1,10-5.24,16.17,16.17,0,0,1,2.29-2c-.6,0-1.21-.07-1.82-.07a24.7,24.7,0,0,0-10,2.1,28.9,28.9,0,0,0-47.55-1.09A30,30,0,0,1,1864.58,56.82Z" transform="translate(-1199)"/><path class="cls-11" d="M1864.58,56.82A24.45,24.45,0,0,1,1884.19,59c2.91.08,6.45.13,10.5-.06.88,0,6.71-.14,13.28-.16a18.33,18.33,0,0,1,10-5.24,16.17,16.17,0,0,1,2.29-2c-.6,0-1.21-.07-1.82-.07a24.7,24.7,0,0,0-10,2.1,28.9,28.9,0,0,0-47.55-1.09A30,30,0,0,1,1864.58,56.82Z" transform="translate(-1199)"/><path class="cls-12" d="M1974.49,90.11h-53.37a18.45,18.45,0,0,1-16.55-10.29l-5.2.4c-.28,0-1.37.1-2.93.24a24.29,24.29,0,0,1-3.54,12.41c10.93,2.2,21.68,4.08,27.75,4.51,9.74.68,30.85,2.53,47.55,3.25A18.49,18.49,0,0,0,1974.49,90.11Z" transform="translate(-1199)"/><path class="cls-13" d="M1974.49,90.11h-53.37a18.45,18.45,0,0,1-16.55-10.29l-5.2.4c-.28,0-1.37.1-2.93.24a24.29,24.29,0,0,1-3.54,12.41c10.93,2.2,21.68,4.08,27.75,4.51,9.74.68,30.85,2.53,47.55,3.25A18.49,18.49,0,0,0,1974.49,90.11Z" transform="translate(-1199)"/><path class="cls-14" d="M1905.43,62c-3.57.24-6.64.4-8.33.43-2,0-4.81.33-7.62.68a24.42,24.42,0,0,1,6.78,14.1l1.3,0c.66,0,2.94,0,6,0A18.45,18.45,0,0,1,1905.43,62Z" transform="translate(-1199)"/><path class="cls-15" d="M1905.43,62c-3.57.24-6.64.4-8.33.43-2,0-4.81.33-7.62.68a24.42,24.42,0,0,1,6.78,14.1l1.3,0c.66,0,2.94,0,6,0A18.45,18.45,0,0,1,1905.43,62Z" transform="translate(-1199)"/><path class="cls-16" d="M1843.16,62.39c-1.29,0-3.39-.12-5.89-.27a18.94,18.94,0,0,0-4.68,9.25A17.94,17.94,0,0,0,1828,75v2c6.7.14,13.48.25,14.69.2,2.14-.08,13.88-.39,17.22-.48-.72-3-.39-6.43.9-8.33.5-.55,1.06-1.46,1.83-2.26a10.26,10.26,0,0,1-.56-1.37C1860.61,64.51,1848.91,62.52,1843.16,62.39Z" transform="translate(-1199)"/><path class="cls-17" d="M1843.16,62.39c-1.29,0-3.39-.12-5.89-.27a18.94,18.94,0,0,0-4.68,9.25A17.94,17.94,0,0,0,1828,75v2c6.7.14,13.48.25,14.69.2,2.14-.08,13.88-.39,17.22-.48-.72-3-.39-6.43.9-8.33.5-.55,1.06-1.46,1.83-2.26a10.26,10.26,0,0,1-.56-1.37C1860.61,64.51,1848.91,62.52,1843.16,62.39Z" transform="translate(-1199)"/><path class="cls-18" d="M1843.16,62.39c-1.29,0-3.39-.12-5.89-.27a18.94,18.94,0,0,0-4.68,9.25A17.94,17.94,0,0,0,1828,75v2c6.7.14,13.48.25,14.69.2,2.14-.08,13.88-.39,17.22-.48-.72-3-.39-6.43.9-8.33.5-.55,1.06-1.46,1.83-2.26a10.26,10.26,0,0,1-.56-1.37C1860.61,64.51,1848.91,62.52,1843.16,62.39Z" transform="translate(-1199)"/><path class="cls-19" d="M1878.17,64.77a10.26,10.26,0,0,1-.56,1.37,16.74,16.74,0,0,1,1.36,1.68c2.69-1,4.81-1.3,5.2-.54s-1.14,2.39-3.65,4a13.76,13.76,0,0,1-.18,5.44c2.9.08,12.14.32,15.92.44a24.42,24.42,0,0,0-6.78-14.1C1884.35,63.71,1879.13,64.6,1878.17,64.77Z" transform="translate(-1199)"/><path class="cls-20" d="M1878.17,64.77a10.26,10.26,0,0,1-.56,1.37,16.74,16.74,0,0,1,1.36,1.68c2.69-1,4.81-1.3,5.2-.54s-1.14,2.39-3.65,4a13.76,13.76,0,0,1-.18,5.44c2.9.08,12.14.32,15.92.44a24.42,24.42,0,0,0-6.78-14.1C1884.35,63.71,1879.13,64.6,1878.17,64.77Z" transform="translate(-1199)"/><path class="cls-21" d="M1878.17,64.77a10.26,10.26,0,0,1-.56,1.37,16.74,16.74,0,0,1,1.36,1.68c2.69-1,4.81-1.3,5.2-.54s-1.14,2.39-3.65,4a13.76,13.76,0,0,1-.18,5.44c2.9.08,12.14.32,15.92.44a24.42,24.42,0,0,0-6.78-14.1C1884.35,63.71,1879.13,64.6,1878.17,64.77Z" transform="translate(-1199)"/><path class="cls-22" d="M1851.34,55.92a19,19,0,0,0-10.1,2.89c2.29,0,3.9.06,4.33.09,8.46.41,14.7-.27,17.59,0,1.24-1.08,3.38-1.83,7-1.83s5.73.75,7,1.83c1.51-.13,3.93,0,7.09.08a24.45,24.45,0,0,0-19.61-2.14,30,30,0,0,0-3.73-4.38,29.49,29.49,0,0,0-2.78,4.7A19.23,19.23,0,0,0,1851.34,55.92Z" transform="translate(-1199)"/><path class="cls-23" d="M1851.34,55.92a19,19,0,0,0-10.1,2.89c2.29,0,3.9.06,4.33.09,8.46.41,14.7-.27,17.59,0,1.24-1.08,3.38-1.83,7-1.83s5.73.75,7,1.83c1.51-.13,3.93,0,7.09.08a24.45,24.45,0,0,0-19.61-2.14,30,30,0,0,0-3.73-4.38,29.49,29.49,0,0,0-2.78,4.7A19.23,19.23,0,0,0,1851.34,55.92Z" transform="translate(-1199)"/><path class="cls-24" d="M1851.34,55.92a19,19,0,0,0-10.1,2.89c2.29,0,3.9.06,4.33.09,8.46.41,14.7-.27,17.59,0,1.24-1.08,3.38-1.83,7-1.83s5.73.75,7,1.83c1.51-.13,3.93,0,7.09.08a24.45,24.45,0,0,0-19.61-2.14,30,30,0,0,0-3.73-4.38,29.49,29.49,0,0,0-2.78,4.7A19.23,19.23,0,0,0,1851.34,55.92Z" transform="translate(-1199)"/><path class="cls-25" d="M1863.49,82.71l-.19-.17c-1.2-.2-2.8-.41-4.6-.62-1.38.3-2.36.24-2.61-.24a.09.09,0,0,1,0-.05c-6.6-.71-14.36-1.36-15.19-1.41L1825.24,79a18.08,18.08,0,0,0-1.49,4.24,24.53,24.53,0,0,0,3.93,0c8.68-.81,22.31-.81,32.23,2,.65.19,1.42.4,2.3.63l.31-.71S1863,84,1863.49,82.71Z" transform="translate(-1199)"/><path class="cls-26" d="M1863.49,82.71l-.19-.17c-1.2-.2-2.8-.41-4.6-.62-1.38.3-2.36.24-2.61-.24a.09.09,0,0,1,0-.05c-6.6-.71-14.36-1.36-15.19-1.41L1825.24,79a18.08,18.08,0,0,0-1.49,4.24,24.53,24.53,0,0,0,3.93,0c8.68-.81,22.31-.81,32.23,2,.65.19,1.42.4,2.3.63l.31-.71S1863,84,1863.49,82.71Z" transform="translate(-1199)"/><path class="cls-27" d="M1863.49,82.71l-.19-.17c-1.2-.2-2.8-.41-4.6-.62-1.38.3-2.36.24-2.61-.24a.09.09,0,0,1,0-.05c-6.6-.71-14.36-1.36-15.19-1.41L1825.24,79a18.08,18.08,0,0,0-1.49,4.24,24.53,24.53,0,0,0,3.93,0c8.68-.81,22.31-.81,32.23,2,.65.19,1.42.4,2.3.63l.31-.71S1863,84,1863.49,82.71Z" transform="translate(-1199)"/><path class="cls-28" d="M1873.91,84.54a10.85,10.85,0,0,1-7.56,0c-.51.47-1.24,1.18-2,1.95,3.7.94,8.62,2.1,14.06,3.31-.18-.32-.4-.68-.6-1A30.4,30.4,0,0,0,1873.91,84.54Z" transform="translate(-1199)"/><path class="cls-29" d="M1873.91,84.54a10.85,10.85,0,0,1-7.56,0c-.51.47-1.24,1.18-2,1.95,3.7.94,8.62,2.1,14.06,3.31-.18-.32-.4-.68-.6-1A30.4,30.4,0,0,0,1873.91,84.54Z" transform="translate(-1199)"/><path class="cls-30" d="M1873.91,84.54a10.85,10.85,0,0,1-7.56,0c-.51.47-1.24,1.18-2,1.95,3.7.94,8.62,2.1,14.06,3.31-.18-.32-.4-.68-.6-1A30.4,30.4,0,0,0,1873.91,84.54Z" transform="translate(-1199)"/><path class="cls-31" d="M1876.77,82.71c.47,1.28,1,2.51,1,2.51l2.18,4.91c4.16.92,8.59,1.85,13,2.74a24.29,24.29,0,0,0,3.54-12.41c-5,.43-15,1.36-19.48,2.08Z" transform="translate(-1199)"/><path class="cls-32" d="M1876.77,82.71c.47,1.28,1,2.51,1,2.51l2.18,4.91c4.16.92,8.59,1.85,13,2.74a24.29,24.29,0,0,0,3.54-12.41c-5,.43-15,1.36-19.48,2.08Z" transform="translate(-1199)"/><path class="cls-33" d="M1876.77,82.71c.47,1.28,1,2.51,1,2.51l2.18,4.91c4.16.92,8.59,1.85,13,2.74a24.29,24.29,0,0,0,3.54-12.41c-5,.43-15,1.36-19.48,2.08Z" transform="translate(-1199)"/><path class="cls-34" d="M1998.19,217h1.61v-.36H1991Z" transform="translate(-1199)"/><path class="cls-35" d="M1998.19,217h1.61v-.36H1991Z" transform="translate(-1199)"/><path class="cls-36" d="M1998.19,217h1.61v-.36H1991Z" transform="translate(-1199)"/><path class="cls-37" d="M1698.34,167.32l29.79-3.8h23.45l34.85-2.32s34.86-7.59,36.76-9.06,53.87-15.4,53.87-15.4,53.23-11,57-11,39.93-1.68,39.93-1.68h25.78V100l-14.68.79c-4.25.23-10.23.13-16.92-.15a18.48,18.48,0,0,1-11.87,4.3H1841.24a17.38,17.38,0,0,1-3.08-.27H1719.93a23.63,23.63,0,0,1-23.3-19.7c-6.71,1-15,2.4-17.74,3.53-2.05.84-11.52,2.51-22.74,4.44.43,1.52.84,3,1.22,4.59,7.24,29,1.82,53-4,76.1l10,1.26C1678.63,171.28,1698.34,167.32,1698.34,167.32Z" transform="translate(-1199)"/><path class="cls-38" d="M1698.34,167.32l29.79-3.8h23.45l34.85-2.32s34.86-7.59,36.76-9.06,53.87-15.4,53.87-15.4,53.23-11,57-11,39.93-1.68,39.93-1.68h25.78V100l-14.68.79c-4.25.23-10.23.13-16.92-.15a18.48,18.48,0,0,1-11.87,4.3H1841.24a17.38,17.38,0,0,1-3.08-.27H1719.93a23.63,23.63,0,0,1-23.3-19.7c-6.71,1-15,2.4-17.74,3.53-2.05.84-11.52,2.51-22.74,4.44.43,1.52.84,3,1.22,4.59,7.24,29,1.82,53-4,76.1l10,1.26C1678.63,171.28,1698.34,167.32,1698.34,167.32Z" transform="translate(-1199)"/><path class="cls-39" d="M1698.34,167.32l29.79-3.8h23.45l34.85-2.32s34.86-7.59,36.76-9.06,53.87-15.4,53.87-15.4,53.23-11,57-11,39.93-1.68,39.93-1.68h25.78V100l-14.68.79c-4.25.23-10.23.13-16.92-.15a18.48,18.48,0,0,1-11.87,4.3H1841.24a17.38,17.38,0,0,1-3.08-.27H1719.93a23.63,23.63,0,0,1-23.3-19.7c-6.71,1-15,2.4-17.74,3.53-2.05.84-11.52,2.51-22.74,4.44.43,1.52.84,3,1.22,4.59,7.24,29,1.82,53-4,76.1l10,1.26C1678.63,171.28,1698.34,167.32,1698.34,167.32Z" transform="translate(-1199)"/><path class="cls-40" d="M1653.37,173.62c-.34,1.34-.68,2.68-1,4,3-.84,6.83-1.79,11-2.76Z" transform="translate(-1199)"/><path class="cls-41" d="M1653.37,173.62c-.34,1.34-.68,2.68-1,4,3-.84,6.83-1.79,11-2.76Z" transform="translate(-1199)"/><path class="cls-42" d="M1653.37,173.62c-.34,1.34-.68,2.68-1,4,3-.84,6.83-1.79,11-2.76Z" transform="translate(-1199)"/><path class="cls-43" d="M1653.37,173.62c-.34,1.34-.68,2.68-1,4,3-.84,6.83-1.79,11-2.76Z" transform="translate(-1199)"/><path class="cls-44" d="M1823.35,87a18.06,18.06,0,0,1,.4-3.77c-8-.56-17.17-4.38-24.59-6.12-8.67-2-31-2.45-36,0s-57,6.49-57,6.49-4.3.54-9.54,1.33a23.63,23.63,0,0,0,23.3,19.7h118.23A17.89,17.89,0,0,1,1823.35,87Z" transform="translate(-1199)"/><path class="cls-45" d="M1823.35,87a18.06,18.06,0,0,1,.4-3.77c-8-.56-17.17-4.38-24.59-6.12-8.67-2-31-2.45-36,0s-57,6.49-57,6.49-4.3.54-9.54,1.33a23.63,23.63,0,0,0,23.3,19.7h118.23A17.89,17.89,0,0,1,1823.35,87Z" transform="translate(-1199)"/><path class="cls-46" d="M1823.35,87a18.06,18.06,0,0,1,.4-3.77c-8-.56-17.17-4.38-24.59-6.12-8.67-2-31-2.45-36,0s-57,6.49-57,6.49-4.3.54-9.54,1.33a23.63,23.63,0,0,0,23.3,19.7h118.23A17.89,17.89,0,0,1,1823.35,87Z" transform="translate(-1199)"/><path class="cls-47" d="M1823.35,87a18.06,18.06,0,0,1,.4-3.77c-8-.56-17.17-4.38-24.59-6.12-8.67-2-31-2.45-36,0s-57,6.49-57,6.49-4.3.54-9.54,1.33a23.63,23.63,0,0,0,23.3,19.7h118.23A17.89,17.89,0,0,1,1823.35,87Z" transform="translate(-1199)"/><path class="cls-48" d="M1892.9,92.87A24.45,24.45,0,0,1,1872,104.66h-33.8a17.38,17.38,0,0,0,3.08.27h115.09a18.48,18.48,0,0,0,11.87-4.3c-16.7-.72-37.81-2.57-47.55-3.25C1914.58,97,1903.83,95.07,1892.9,92.87Z" transform="translate(-1199)"/><path class="cls-49" d="M1892.9,92.87A24.45,24.45,0,0,1,1872,104.66h-33.8a17.38,17.38,0,0,0,3.08.27h115.09a18.48,18.48,0,0,0,11.87-4.3c-16.7-.72-37.81-2.57-47.55-3.25C1914.58,97,1903.83,95.07,1892.9,92.87Z" transform="translate(-1199)"/><path class="cls-50" d="M1892.9,92.87A24.45,24.45,0,0,1,1872,104.66h-33.8a17.38,17.38,0,0,0,3.08.27h115.09a18.48,18.48,0,0,0,11.87-4.3c-16.7-.72-37.81-2.57-47.55-3.25C1914.58,97,1903.83,95.07,1892.9,92.87Z" transform="translate(-1199)"/><path class="cls-51" d="M1892.9,92.87A24.45,24.45,0,0,1,1872,104.66h-33.8a17.38,17.38,0,0,0,3.08.27h115.09a18.48,18.48,0,0,0,11.87-4.3c-16.7-.72-37.81-2.57-47.55-3.25C1914.58,97,1903.83,95.07,1892.9,92.87Z" transform="translate(-1199)"/><path class="cls-52" d="M1892.9,92.87c-4.39-.89-8.82-1.82-13-2.74l0,.11a2.34,2.34,0,0,1,1.8,2.45,2.72,2.72,0,0,1-.66,1.8v.12c0,1.53-.66,2.76-1.47,2.76s-1.48-1.23-1.48-2.76a3,3,0,0,1,0-.43,2.74,2.74,0,0,1-.42-1.49,2.57,2.57,0,0,1,1.08-2.18c-.08-.15-.22-.41-.4-.71-5.44-1.21-10.36-2.37-14.06-3.31a19.15,19.15,0,0,0-2,2.34,18,18,0,0,0-1,1.68,2.57,2.57,0,0,1,1.08,2.18,2.74,2.74,0,0,1-.42,1.49,3,3,0,0,1,0,.43c0,1.53-.66,2.76-1.48,2.76s-1.47-1.23-1.47-2.76v-.12a2.72,2.72,0,0,1-.66-1.8,2.34,2.34,0,0,1,1.8-2.45l1.92-4.31c-.88-.23-1.65-.44-2.3-.63-9.92-2.85-23.55-2.85-32.23-2a24.53,24.53,0,0,1-3.93,0,17.9,17.9,0,0,0,14.41,21.39H1872A24.45,24.45,0,0,0,1892.9,92.87Z" transform="translate(-1199)"/><path class="cls-53" d="M1892.9,92.87c-4.39-.89-8.82-1.82-13-2.74l0,.11a2.34,2.34,0,0,1,1.8,2.45,2.72,2.72,0,0,1-.66,1.8v.12c0,1.53-.66,2.76-1.47,2.76s-1.48-1.23-1.48-2.76a3,3,0,0,1,0-.43,2.74,2.74,0,0,1-.42-1.49,2.57,2.57,0,0,1,1.08-2.18c-.08-.15-.22-.41-.4-.71-5.44-1.21-10.36-2.37-14.06-3.31a19.15,19.15,0,0,0-2,2.34,18,18,0,0,0-1,1.68,2.57,2.57,0,0,1,1.08,2.18,2.74,2.74,0,0,1-.42,1.49,3,3,0,0,1,0,.43c0,1.53-.66,2.76-1.48,2.76s-1.47-1.23-1.47-2.76v-.12a2.72,2.72,0,0,1-.66-1.8,2.34,2.34,0,0,1,1.8-2.45l1.92-4.31c-.88-.23-1.65-.44-2.3-.63-9.92-2.85-23.55-2.85-32.23-2a24.53,24.53,0,0,1-3.93,0,17.9,17.9,0,0,0,14.41,21.39H1872A24.45,24.45,0,0,0,1892.9,92.87Z" transform="translate(-1199)"/><path class="cls-54" d="M1892.9,92.87c-4.39-.89-8.82-1.82-13-2.74l0,.11a2.34,2.34,0,0,1,1.8,2.45,2.72,2.72,0,0,1-.66,1.8v.12c0,1.53-.66,2.76-1.47,2.76s-1.48-1.23-1.48-2.76a3,3,0,0,1,0-.43,2.74,2.74,0,0,1-.42-1.49,2.57,2.57,0,0,1,1.08-2.18c-.08-.15-.22-.41-.4-.71-5.44-1.21-10.36-2.37-14.06-3.31a19.15,19.15,0,0,0-2,2.34,18,18,0,0,0-1,1.68,2.57,2.57,0,0,1,1.08,2.18,2.74,2.74,0,0,1-.42,1.49,3,3,0,0,1,0,.43c0,1.53-.66,2.76-1.48,2.76s-1.47-1.23-1.47-2.76v-.12a2.72,2.72,0,0,1-.66-1.8,2.34,2.34,0,0,1,1.8-2.45l1.92-4.31c-.88-.23-1.65-.44-2.3-.63-9.92-2.85-23.55-2.85-32.23-2a24.53,24.53,0,0,1-3.93,0,17.9,17.9,0,0,0,14.41,21.39H1872A24.45,24.45,0,0,0,1892.9,92.87Z" transform="translate(-1199)"/><path class="cls-55" d="M1892.9,92.87c-4.39-.89-8.82-1.82-13-2.74l0,.11a2.34,2.34,0,0,1,1.8,2.45,2.72,2.72,0,0,1-.66,1.8v.12c0,1.53-.66,2.76-1.47,2.76s-1.48-1.23-1.48-2.76a3,3,0,0,1,0-.43,2.74,2.74,0,0,1-.42-1.49,2.57,2.57,0,0,1,1.08-2.18c-.08-.15-.22-.41-.4-.71-5.44-1.21-10.36-2.37-14.06-3.31a19.15,19.15,0,0,0-2,2.34,18,18,0,0,0-1,1.68,2.57,2.57,0,0,1,1.08,2.18,2.74,2.74,0,0,1-.42,1.49,3,3,0,0,1,0,.43c0,1.53-.66,2.76-1.48,2.76s-1.47-1.23-1.47-2.76v-.12a2.72,2.72,0,0,1-.66-1.8,2.34,2.34,0,0,1,1.8-2.45l1.92-4.31c-.88-.23-1.65-.44-2.3-.63-9.92-2.85-23.55-2.85-32.23-2a24.53,24.53,0,0,1-3.93,0,17.9,17.9,0,0,0,14.41,21.39H1872A24.45,24.45,0,0,0,1892.9,92.87Z" transform="translate(-1199)"/><path class="cls-56" d="M1892.9,92.87c-4.39-.89-8.82-1.82-13-2.74l0,.11a2.34,2.34,0,0,1,1.8,2.45,2.72,2.72,0,0,1-.66,1.8v.12c0,1.53-.66,2.76-1.47,2.76s-1.48-1.23-1.48-2.76a3,3,0,0,1,0-.43,2.74,2.74,0,0,1-.42-1.49,2.57,2.57,0,0,1,1.08-2.18c-.08-.15-.22-.41-.4-.71-5.44-1.21-10.36-2.37-14.06-3.31a19.15,19.15,0,0,0-2,2.34,18,18,0,0,0-1,1.68,2.57,2.57,0,0,1,1.08,2.18,2.74,2.74,0,0,1-.42,1.49,3,3,0,0,1,0,.43c0,1.53-.66,2.76-1.48,2.76s-1.47-1.23-1.47-2.76v-.12a2.72,2.72,0,0,1-.66-1.8,2.34,2.34,0,0,1,1.8-2.45l1.92-4.31c-.88-.23-1.65-.44-2.3-.63-9.92-2.85-23.55-2.85-32.23-2a24.53,24.53,0,0,1-3.93,0,17.9,17.9,0,0,0,14.41,21.39H1872A24.45,24.45,0,0,0,1892.9,92.87Z" transform="translate(-1199)"/><path class="cls-57" d="M1934.09,125.77c-3.8,0-57,11-57,11s-52,13.92-53.87,15.4-36.76,9.06-36.76,9.06l-34.85,2.32h-23.45l-29.79,3.8s-19.71,4-35,7.56c19.13,2.42,50.36,6.34,54.8,7,5.79.83,40.5,4.18,54.55,4s22.32,7.66,39.68,7.94,33.89,8.35,42.77,9.19c7.05.66,23.32,6.05,45.41,10.75,4,0,8.31,0,13,.08,19,.23,36.3,1,60.08,2,6.51.28,12.38.55,17.44.8h8.79V124.09H1974S1937.89,125.77,1934.09,125.77Z" transform="translate(-1199)"/><path class="cls-58" d="M1934.09,125.77c-3.8,0-57,11-57,11s-52,13.92-53.87,15.4-36.76,9.06-36.76,9.06l-34.85,2.32h-23.45l-29.79,3.8s-19.71,4-35,7.56c19.13,2.42,50.36,6.34,54.8,7,5.79.83,40.5,4.18,54.55,4s22.32,7.66,39.68,7.94,33.89,8.35,42.77,9.19c7.05.66,23.32,6.05,45.41,10.75,4,0,8.31,0,13,.08,19,.23,36.3,1,60.08,2,6.51.28,12.38.55,17.44.8h8.79V124.09H1974S1937.89,125.77,1934.09,125.77Z" transform="translate(-1199)"/><path class="cls-59" d="M1934.09,125.77c-3.8,0-57,11-57,11s-52,13.92-53.87,15.4-36.76,9.06-36.76,9.06l-34.85,2.32h-23.45l-29.79,3.8s-19.71,4-35,7.56c19.13,2.42,50.36,6.34,54.8,7,5.79.83,40.5,4.18,54.55,4s22.32,7.66,39.68,7.94,33.89,8.35,42.77,9.19c7.05.66,23.32,6.05,45.41,10.75,4,0,8.31,0,13,.08,19,.23,36.3,1,60.08,2,6.51.28,12.38.55,17.44.8h8.79V124.09H1974S1937.89,125.77,1934.09,125.77Z" transform="translate(-1199)"/><path class="cls-60" d="M1934.09,125.77c-3.8,0-57,11-57,11s-52,13.92-53.87,15.4-36.76,9.06-36.76,9.06l-34.85,2.32h-23.45l-29.79,3.8s-19.71,4-35,7.56c19.13,2.42,50.36,6.34,54.8,7,5.79.83,40.5,4.18,54.55,4s22.32,7.66,39.68,7.94,33.89,8.35,42.77,9.19c7.05.66,23.32,6.05,45.41,10.75,4,0,8.31,0,13,.08,19,.23,36.3,1,60.08,2,6.51.28,12.38.55,17.44.8h8.79V124.09H1974S1937.89,125.77,1934.09,125.77Z" transform="translate(-1199)"/><path class="cls-40" d="M1694.42,215.87c30.23-.56,27.2-1.07,45.66-1.2,19.05-.14,26.2.38,65.68.4h4.8c47,0,63.72-1.23,90-1.28-22.09-4.7-38.36-10.09-45.41-10.75-8.88-.84-25.41-8.92-42.77-9.19s-25.63-8.08-39.68-7.94-48.76-3.21-54.55-4c-4.44-.65-35.67-4.57-54.8-7-4.13,1-8,1.92-11,2.76-3.25,12.84-6.4,25.49-7.35,38.66l11.76,0C1666.21,216.24,1678.69,216.16,1694.42,215.87Z" transform="translate(-1199)"/><path class="cls-61" d="M1694.42,215.87c30.23-.56,27.2-1.07,45.66-1.2,19.05-.14,26.2.38,65.68.4h4.8c47,0,63.72-1.23,90-1.28-22.09-4.7-38.36-10.09-45.41-10.75-8.88-.84-25.41-8.92-42.77-9.19s-25.63-8.08-39.68-7.94-48.76-3.21-54.55-4c-4.44-.65-35.67-4.57-54.8-7-4.13,1-8,1.92-11,2.76-3.25,12.84-6.4,25.49-7.35,38.66l11.76,0C1666.21,216.24,1678.69,216.16,1694.42,215.87Z" transform="translate(-1199)"/><path class="cls-62" d="M1694.42,215.87c30.23-.56,27.2-1.07,45.66-1.2,19.05-.14,26.2.38,65.68.4h4.8c47,0,63.72-1.23,90-1.28-22.09-4.7-38.36-10.09-45.41-10.75-8.88-.84-25.41-8.92-42.77-9.19s-25.63-8.08-39.68-7.94-48.76-3.21-54.55-4c-4.44-.65-35.67-4.57-54.8-7-4.13,1-8,1.92-11,2.76-3.25,12.84-6.4,25.49-7.35,38.66l11.76,0C1666.21,216.24,1678.69,216.16,1694.42,215.87Z" transform="translate(-1199)"/><path class="cls-63" d="M1694.42,215.87c30.23-.56,27.2-1.07,45.66-1.2,19.05-.14,26.2.38,65.68.4h4.8c47,0,63.72-1.23,90-1.28-22.09-4.7-38.36-10.09-45.41-10.75-8.88-.84-25.41-8.92-42.77-9.19s-25.63-8.08-39.68-7.94-48.76-3.21-54.55-4c-4.44-.65-35.67-4.57-54.8-7-4.13,1-8,1.92-11,2.76-3.25,12.84-6.4,25.49-7.35,38.66l11.76,0C1666.21,216.24,1678.69,216.16,1694.42,215.87Z" transform="translate(-1199)"/><path class="cls-64" d="M1694.42,215.87c30.23-.56,27.2-1.07,45.66-1.2,19.05-.14,26.2.38,65.68.4h4.8c47,0,63.72-1.23,90-1.28-22.09-4.7-38.36-10.09-45.41-10.75-8.88-.84-25.41-8.92-42.77-9.19s-25.63-8.08-39.68-7.94-48.76-3.21-54.55-4c-4.44-.65-35.67-4.57-54.8-7-4.13,1-8,1.92-11,2.76-3.25,12.84-6.4,25.49-7.35,38.66l11.76,0C1666.21,216.24,1678.69,216.16,1694.42,215.87Z" transform="translate(-1199)"/><path class="cls-65" d="M1999.8,217.11l-1.61-.08-7.18-.36c-5.06-.25-10.93-.52-17.44-.8-23.78-1-41-1.77-60.08-2-4.65-.06-8.92-.08-13-.08-26.25.05-42.94,1.25-90,1.28h-4.8c-39.48,0-46.63-.54-65.68-.4-18.46.13-15.43.64-45.66,1.2-15.73.29-28.21.37-37.65.4l-11.76,0a96.68,96.68,0,0,0,5.15,39.82c41.47,118.58,223.7,140.59,307.37,144.38h42.27Z" transform="translate(-1199)"/><path class="cls-66" d="M1999.8,217.11l-1.61-.08-7.18-.36c-5.06-.25-10.93-.52-17.44-.8-23.78-1-41-1.77-60.08-2-4.65-.06-8.92-.08-13-.08-26.25.05-42.94,1.25-90,1.28h-4.8c-39.48,0-46.63-.54-65.68-.4-18.46.13-15.43.64-45.66,1.2-15.73.29-28.21.37-37.65.4l-11.76,0a96.68,96.68,0,0,0,5.15,39.82c41.47,118.58,223.7,140.59,307.37,144.38h42.27Z" transform="translate(-1199)"/><path class="cls-67" d="M1978.61,28.37A29.26,29.26,0,0,0,1949.9,52l-.54,0a16.14,16.14,0,0,0-7.55,1.87,16.24,16.24,0,0,0-21.59-2.35,24.79,24.79,0,0,1,16.37,7.86,23.07,23.07,0,0,1,14.15,9.35,18.77,18.77,0,0,1,5.59-.85,18.54,18.54,0,0,1,18.54,18.53,18.19,18.19,0,0,1-.38,3.72h25.31V37.47A29.17,29.17,0,0,0,1978.61,28.37Z" transform="translate(-1199)"/><path class="cls-68" d="M1978.61,28.37A29.26,29.26,0,0,0,1949.9,52l-.54,0a16.14,16.14,0,0,0-7.55,1.87,16.24,16.24,0,0,0-21.59-2.35,24.79,24.79,0,0,1,16.37,7.86,23.07,23.07,0,0,1,14.15,9.35,18.77,18.77,0,0,1,5.59-.85,18.54,18.54,0,0,1,18.54,18.53,18.19,18.19,0,0,1-.38,3.72h25.31V37.47A29.17,29.17,0,0,0,1978.61,28.37Z" transform="translate(-1199)"/><path class="cls-69" d="M1917.93,53.5a18.33,18.33,0,0,0-10,5.24c9.66,0,20.92.08,20.37.72s-7.86,1.35-15.45,2a17.29,17.29,0,0,1,.23,2.4c.06,1.3,2.13,11,2.58,13.12l10.8-.23s2.4,0,2.3.26a32.14,32.14,0,0,1-4.9,1.34c-.44.08-12.23,1-19.33,1.51a18.45,18.45,0,0,0,16.55,10.29h53.37a18.19,18.19,0,0,0,.38-3.72,18.54,18.54,0,0,0-18.54-18.53,18.77,18.77,0,0,0-5.59.85,23.07,23.07,0,0,0-14.15-9.35,24.79,24.79,0,0,0-16.37-7.86A16.17,16.17,0,0,0,1917.93,53.5Z" transform="translate(-1199)"/><path class="cls-70" d="M1917.93,53.5a18.33,18.33,0,0,0-10,5.24c9.66,0,20.92.08,20.37.72s-7.86,1.35-15.45,2a17.29,17.29,0,0,1,.23,2.4c.06,1.3,2.13,11,2.58,13.12l10.8-.23s2.4,0,2.3.26a32.14,32.14,0,0,1-4.9,1.34c-.44.08-12.23,1-19.33,1.51a18.45,18.45,0,0,0,16.55,10.29h53.37a18.19,18.19,0,0,0,.38-3.72,18.54,18.54,0,0,0-18.54-18.53,18.77,18.77,0,0,0-5.59.85,23.07,23.07,0,0,0-14.15-9.35,24.79,24.79,0,0,0-16.37-7.86A16.17,16.17,0,0,0,1917.93,53.5Z" transform="translate(-1199)"/><path class="cls-71" d="M1917.93,53.5a18.33,18.33,0,0,0-10,5.24c9.66,0,20.92.08,20.37.72s-7.86,1.35-15.45,2a17.29,17.29,0,0,1,.23,2.4c.06,1.3,2.13,11,2.58,13.12l10.8-.23s2.4,0,2.3.26a32.14,32.14,0,0,1-4.9,1.34c-.44.08-12.23,1-19.33,1.51a18.45,18.45,0,0,0,16.55,10.29h53.37a18.19,18.19,0,0,0,.38-3.72,18.54,18.54,0,0,0-18.54-18.53,18.77,18.77,0,0,0-5.59.85,23.07,23.07,0,0,0-14.15-9.35,24.79,24.79,0,0,0-16.37-7.86A16.17,16.17,0,0,0,1917.93,53.5Z" transform="translate(-1199)"/><path class="cls-72" d="M1902.67,71.67a18.55,18.55,0,0,0,.84,5.5l8.74-.16c0-2.07,0-13,.24-15.56-2.41.2-4.83.37-7.06.51A18.43,18.43,0,0,0,1902.67,71.67Z" transform="translate(-1199)"/><path class="cls-73" d="M1902.67,71.67a18.55,18.55,0,0,0,.84,5.5l8.74-.16c0-2.07,0-13,.24-15.56-2.41.2-4.83.37-7.06.51A18.43,18.43,0,0,0,1902.67,71.67Z" transform="translate(-1199)"/><path class="cls-74" d="M1902.67,71.67a18.55,18.55,0,0,0,.84,5.5l8.74-.16c0-2.07,0-13,.24-15.56-2.41.2-4.83.37-7.06.51A18.43,18.43,0,0,0,1902.67,71.67Z" transform="translate(-1199)"/><path class="cls-75" d="M1928.8,77c.1-.25-2.3-.26-2.3-.26l-10.8.23c-.45-2.11-2.52-11.82-2.58-13.12a17.29,17.29,0,0,0-.23-2.4c7.59-.61,14.94-1.38,15.45-2s-10.71-.75-20.37-.72c-6.57,0-12.4.11-13.28.16-4,.19-7.59.14-10.5.06-3.16-.09-5.58-.21-7.09-.08-1.24-1.08-3.38-1.83-7-1.83s-5.73.75-7,1.83c-2.89-.25-9.13.43-17.59,0-.43,0-2-.06-4.33-.09-9.33-.12-30.07-.21-29.32.65.51.58,7.86,1.35,15.45,2a17.29,17.29,0,0,0-.23,2.4c-.06,1.3-2.13,11-2.58,13.12l-10.8-.23s-2.4,0-2.3.26a32.14,32.14,0,0,0,4.9,1.34c.25,0,4.21.36,8.88.72l15.65,1.19c.83,0,8.59.7,15.19,1.41a.09.09,0,0,0,0,.05c.25.48,1.23.54,2.61.24,1.8.21,3.4.42,4.6.62l.19.17c-.47,1.28-1,2.51-1,2.51l-.31.71-1.92,4.31a2.34,2.34,0,0,0-1.8,2.45,2.72,2.72,0,0,0,.66,1.8v.12c0,1.53.66,2.76,1.47,2.76s1.48-1.23,1.48-2.76a3,3,0,0,0,0-.43,2.74,2.74,0,0,0,.42-1.49,2.57,2.57,0,0,0-1.08-2.18,18,18,0,0,1,1-1.68,19.15,19.15,0,0,1,2-2.34c.73-.77,1.46-1.48,2-1.95a10.85,10.85,0,0,0,7.56,0,30.4,30.4,0,0,1,3.93,4.29c.2.29.42.65.6,1s.32.56.4.71a2.57,2.57,0,0,0-1.08,2.18,2.74,2.74,0,0,0,.42,1.49,3,3,0,0,0,0,.43c0,1.53.66,2.76,1.48,2.76s1.47-1.23,1.47-2.76v-.12a2.72,2.72,0,0,0,.66-1.8,2.34,2.34,0,0,0-1.8-2.45l0-.11-2.18-4.91s-.5-1.23-1-2.51l.19-.17c4.45-.72,14.46-1.65,19.48-2.08,1.56-.14,2.65-.22,2.93-.24l5.2-.4c7.1-.53,18.89-1.43,19.33-1.51A32.14,32.14,0,0,0,1928.8,77Zm-68-8.57c-1.29,1.9-1.62,5.28-.9,8.33-3.34.09-15.08.4-17.22.48-1.21.05-8-.06-14.69-.2V75c0-3.89-.06-11.43-.24-13.55,3.33.27,6.67.5,9.5.67,2.5.15,4.6.25,5.89.27,5.75.13,17.45,2.12,18.93,2.38a10.26,10.26,0,0,0,.56,1.37C1861.88,66.94,1861.32,67.85,1860.82,68.4ZM1912.25,77l-8.74.16c-3,0-5.29.07-6,0l-1.3,0c-3.78-.12-13-.36-15.92-.44a13.76,13.76,0,0,0,.18-5.44c2.51-1.62,4-3.24,3.65-4s-2.51-.49-5.2.54a16.74,16.74,0,0,0-1.36-1.68,10.26,10.26,0,0,0,.56-1.37c1-.17,6.18-1.06,11.31-1.7,2.81-.35,5.58-.63,7.62-.68,1.69,0,4.76-.19,8.33-.43,2.23-.14,4.65-.31,7.06-.51C1912.27,64.06,1912.25,74.94,1912.25,77Z" transform="translate(-1199)"/><path class="cls-76" d="M1925.52,319s43.21-5.32,44.06-12-31.09-7.7-32.76-7.05S1903.1,315.14,1925.52,319Z" transform="translate(-1199)"/><g class="cls-77"><path class="cls-78" d="M1926.86,234.21s15.35,12.29,23.65,0-2.9-47.61,12.46-44.54,3.87,53.93-6.65,58.37c-16,6.76-29.46-5.63-29.46-5.63Z" transform="translate(-1199)"/><path class="cls-79" d="M1925.59,237s16,10.15,24.82,3.1c11.19-8.89,11.71-48.4,5.72-50.59" transform="translate(-1199)"/><path class="cls-79" d="M1925.59,241.12s19,11,29.62,3.37c13.35-9.67,14-52.62,6.83-55" transform="translate(-1199)"/></g><g class="cls-80"><path class="cls-78" d="M1923.74,151.89s8.78,8.2,13.52,0-1.66-31.77,7.12-29.72,2.21,36-3.8,39c-9.15,4.51-16.84-3.76-16.84-3.76Z" transform="translate(-1199)"/><path class="cls-79" d="M1944.38,122.17s4.26,25.16-5.2,36c-6.64,7.64-16.68-3.46-16.68-3.46" transform="translate(-1199)"/><path class="cls-79" d="M1941,122.17s3.61,23.16-4.4,33.17c-5.62,7-14.13-3.18-14.13-3.18" transform="translate(-1199)"/></g><g class="cls-81"><path class="cls-78" d="M1922.94,207.91s-12.53,9.2-19.31,0,2.37-35.67-10.17-33.36-3.16,40.38,5.42,43.71c13.08,5.06,24.06-4.22,24.06-4.22Z" transform="translate(-1199)"/><path class="cls-79" d="M1890.41,174.4s-.19,34.2,8,40.21c9.53,7,22.16,0,22.16,0" transform="translate(-1199)"/><path class="cls-79" d="M1896.76,172.66s-.14,33.42,6,39.06c7.13,6.52,16.57,0,16.57,0" transform="translate(-1199)"/></g><g class="cls-82"><path class="cls-78" d="M1937.3,219.87c0,53.59-.77,99.74-12.37,98.59-25.81-2.56-18.94-43.45-18.94-97s4.78-97,15.24-97S1937.3,166.27,1937.3,219.87Z" transform="translate(-1199)"/><path class="cls-79" d="M1923.74,121.08a798,798,0,0,1,9.31,113.09,429.22,429.22,0,0,1-8.31,86.41" transform="translate(-1199)"/><path class="cls-79" d="M1918.78,121.08s-13.62,63.6-8.15,145.57c3.17,47.58,7.65,51.81,7.65,51.81" transform="translate(-1199)"/><path class="cls-79" d="M1921.23,122.24s3.44,62.44,2.27,144.41c-.68,47.58-1.64,51.81-1.64,51.81" transform="translate(-1199)"/></g><g class="cls-83"><path class="cls-76" d="M1936.82,299.53c-.26.11-1.3.56-2.76,1.27-1.83,11.21-4.68,17.71-9.13,17.27a20.31,20.31,0,0,1-5-1.11,19.44,19.44,0,0,0,5.57,1.65s43.21-5.31,44.06-12S1938.49,298.88,1936.82,299.53Z" transform="translate(-1199)"/><path class="cls-84" d="M1934.06,300.8c2.07-12.67,2.83-31.35,3.1-52.81a25.82,25.82,0,0,0,19.16-.34c10.52-4.44,22.36-58.2,6.93-55.48-13.14,2.32-4.44,29.37-12.74,41.66-3.68,5.45-8.75,6.06-13.26,5.06,0-6.31,0-12.8,0-19.41a530.76,530.76,0,0,0-2.71-57.41,12.54,12.54,0,0,0,6-1.34c6-3,12.23-33.13,6.05-35.06-8.6-2.69-4.62,17.64-9.37,25.84a6.93,6.93,0,0,1-3.59,3.29c-2.71-19-6.2-27.18-11.4-25.26-7.35,2.7-15.58,32-16.21,80.39a10.44,10.44,0,0,1-2.43-2.41c-6.78-9.2,1.74-33.55-9.2-30.81s-4.13,37.84,4.45,41.16a22.14,22.14,0,0,0,7.11,1.49V221c0,49.81-5.93,88.65,14,95.93a20.31,20.31,0,0,0,5,1.11C1929.38,318.51,1932.23,312,1934.06,300.8Z" transform="translate(-1199)"/></g></g></g></svg>