<?xml version="1.0" encoding="UTF-8"?>
<!--Generator: Apple Native CoreSVG 123-->
<!DOCTYPE svg
PUBLIC "-//W3C//DTD SVG 1.1//EN"
       "http://www.w3.org/Graphics/SVG/1.1/DTD/svg11.dtd">
<svg version="1.1" xmlns="http://www.w3.org/2000/svg" xmlns:xlink="http://www.w3.org/1999/xlink" width="3300" height="2200">
 <!--glyph: "uni100665.medium", point size: 100.000000, font version: "Version 15.0d7e11", template writer version: "5"-->
 <g id="Notes">
  <rect height="2200" id="artboard" style="fill:white;opacity:1" width="3300" x="0" y="0"/>
  <line id="" style="fill:none;stroke:black;opacity:1;stroke-width:0.5;" x1="263" x2="3036" y1="292" y2="292"/>
  <text style="stroke:none;fill:black;font-family:-apple-system,&quot;SF Pro Display&quot;,&quot;SF Pro Text&quot;,Helvetica,sans-serif;font-weight:bold;" transform="matrix(1 0 0 1 263 322)">Weight/Scale Variations</text>
  <text style="stroke:none;fill:black;font-family:-apple-system,&quot;SF Pro Display&quot;,&quot;SF Pro Text&quot;,Helvetica,sans-serif;text-anchor:middle;" transform="matrix(1 0 0 1 559.711 322)">Ultralight</text>
  <text style="stroke:none;fill:black;font-family:-apple-system,&quot;SF Pro Display&quot;,&quot;SF Pro Text&quot;,Helvetica,sans-serif;text-anchor:middle;" transform="matrix(1 0 0 1 856.422 322)">Thin</text>
  <text style="stroke:none;fill:black;font-family:-apple-system,&quot;SF Pro Display&quot;,&quot;SF Pro Text&quot;,Helvetica,sans-serif;text-anchor:middle;" transform="matrix(1 0 0 1 1153.13 322)">Light</text>
  <text style="stroke:none;fill:black;font-family:-apple-system,&quot;SF Pro Display&quot;,&quot;SF Pro Text&quot;,Helvetica,sans-serif;text-anchor:middle;" transform="matrix(1 0 0 1 1449.84 322)">Regular</text>
  <text style="stroke:none;fill:black;font-family:-apple-system,&quot;SF Pro Display&quot;,&quot;SF Pro Text&quot;,Helvetica,sans-serif;text-anchor:middle;" transform="matrix(1 0 0 1 1746.56 322)">Medium</text>
  <text style="stroke:none;fill:black;font-family:-apple-system,&quot;SF Pro Display&quot;,&quot;SF Pro Text&quot;,Helvetica,sans-serif;text-anchor:middle;" transform="matrix(1 0 0 1 2043.27 322)">Semibold</text>
  <text style="stroke:none;fill:black;font-family:-apple-system,&quot;SF Pro Display&quot;,&quot;SF Pro Text&quot;,Helvetica,sans-serif;text-anchor:middle;" transform="matrix(1 0 0 1 2339.98 322)">Bold</text>
  <text style="stroke:none;fill:black;font-family:-apple-system,&quot;SF Pro Display&quot;,&quot;SF Pro Text&quot;,Helvetica,sans-serif;text-anchor:middle;" transform="matrix(1 0 0 1 2636.69 322)">Heavy</text>
  <text style="stroke:none;fill:black;font-family:-apple-system,&quot;SF Pro Display&quot;,&quot;SF Pro Text&quot;,Helvetica,sans-serif;text-anchor:middle;" transform="matrix(1 0 0 1 2933.4 322)">Black</text>
  <line id="" style="fill:none;stroke:black;opacity:1;stroke-width:0.5;" x1="263" x2="3036" y1="1903" y2="1903"/>
  <g id="" transform="matrix(1 0 0 1 263 1933)">
   <path d="M 9.24805 0.830078 C 13.5547 0.830078 17.1387 -2.74414 17.1387 -7.05078 C 17.1387 -11.3574 13.5449 -14.9316 9.23828 -14.9316 C 4.94141 -14.9316 1.36719 -11.3574 1.36719 -7.05078 C 1.36719 -2.74414 4.95117 0.830078 9.24805 0.830078 Z M 9.24805 -0.654297 C 5.70312 -0.654297 2.87109 -3.49609 2.87109 -7.05078 C 2.87109 -10.6055 5.69336 -13.4473 9.23828 -13.4473 C 12.793 -13.4473 15.6348 -10.6055 15.6445 -7.05078 C 15.6543 -3.49609 12.8027 -0.654297 9.24805 -0.654297 Z M 9.22852 -3.42773 C 9.69727 -3.42773 9.9707 -3.74023 9.9707 -4.25781 L 9.9707 -6.31836 L 12.1973 -6.31836 C 12.6953 -6.31836 13.0371 -6.57227 13.0371 -7.04102 C 13.0371 -7.51953 12.7148 -7.7832 12.1973 -7.7832 L 9.9707 -7.7832 L 9.9707 -10.0098 C 9.9707 -10.5273 9.69727 -10.8496 9.22852 -10.8496 C 8.75977 -10.8496 8.50586 -10.5078 8.50586 -10.0098 L 8.50586 -7.7832 L 6.29883 -7.7832 C 5.78125 -7.7832 5.44922 -7.51953 5.44922 -7.04102 C 5.44922 -6.57227 5.80078 -6.31836 6.29883 -6.31836 L 8.50586 -6.31836 L 8.50586 -4.25781 C 8.50586 -3.75977 8.75977 -3.42773 9.22852 -3.42773 Z"/>
  </g>
  <g id="" transform="matrix(1 0 0 1 281.506 1933)">
   <path d="M 11.709 2.91016 C 17.1582 2.91016 21.6699 -1.60156 21.6699 -7.05078 C 21.6699 -12.4902 17.1484 -17.0117 11.6992 -17.0117 C 6.25977 -17.0117 1.74805 -12.4902 1.74805 -7.05078 C 1.74805 -1.60156 6.26953 2.91016 11.709 2.91016 Z M 11.709 1.25 C 7.09961 1.25 3.41797 -2.44141 3.41797 -7.05078 C 3.41797 -11.6504 7.08984 -15.3516 11.6992 -15.3516 C 16.3086 -15.3516 20 -11.6504 20.0098 -7.05078 C 20.0195 -2.44141 16.3184 1.25 11.709 1.25 Z M 11.6895 -2.41211 C 12.207 -2.41211 12.5195 -2.77344 12.5195 -3.33984 L 12.5195 -6.23047 L 15.5762 -6.23047 C 16.123 -6.23047 16.5039 -6.51367 16.5039 -7.03125 C 16.5039 -7.55859 16.1426 -7.86133 15.5762 -7.86133 L 12.5195 -7.86133 L 12.5195 -10.9277 C 12.5195 -11.5039 12.207 -11.8555 11.6895 -11.8555 C 11.1719 -11.8555 10.8789 -11.4844 10.8789 -10.9277 L 10.8789 -7.86133 L 7.83203 -7.86133 C 7.26562 -7.86133 6.89453 -7.55859 6.89453 -7.03125 C 6.89453 -6.51367 7.28516 -6.23047 7.83203 -6.23047 L 10.8789 -6.23047 L 10.8789 -3.33984 C 10.8789 -2.79297 11.1719 -2.41211 11.6895 -2.41211 Z"/>
  </g>
  <g id="" transform="matrix(1 0 0 1 304.924 1933)">
   <path d="M 14.9707 5.67383 C 21.9336 5.67383 27.6953 -0.078125 27.6953 -7.04102 C 27.6953 -14.0039 21.9238 -19.7559 14.9609 -19.7559 C 8.00781 -19.7559 2.25586 -14.0039 2.25586 -7.04102 C 2.25586 -0.078125 8.01758 5.67383 14.9707 5.67383 Z M 14.9707 3.85742 C 8.93555 3.85742 4.08203 -1.00586 4.08203 -7.04102 C 4.08203 -13.0762 8.92578 -17.9395 14.9609 -17.9395 C 21.0059 -17.9395 25.8594 -13.0762 25.8691 -7.04102 C 25.8789 -1.00586 21.0156 3.85742 14.9707 3.85742 Z M 14.9512 -1.06445 C 15.5176 -1.06445 15.8691 -1.45508 15.8691 -2.06055 L 15.8691 -6.13281 L 20.1074 -6.13281 C 20.6934 -6.13281 21.1133 -6.46484 21.1133 -7.02148 C 21.1133 -7.59766 20.7227 -7.93945 20.1074 -7.93945 L 15.8691 -7.93945 L 15.8691 -12.1875 C 15.8691 -12.8027 15.5176 -13.1934 14.9512 -13.1934 C 14.3848 -13.1934 14.0625 -12.7832 14.0625 -12.1875 L 14.0625 -7.93945 L 9.83398 -7.93945 C 9.21875 -7.93945 8.80859 -7.59766 8.80859 -7.02148 C 8.80859 -6.46484 9.23828 -6.13281 9.83398 -6.13281 L 14.0625 -6.13281 L 14.0625 -2.06055 C 14.0625 -1.47461 14.3848 -1.06445 14.9512 -1.06445 Z"/>
  </g>
  <text style="stroke:none;fill:black;font-family:-apple-system,&quot;SF Pro Display&quot;,&quot;SF Pro Text&quot;,Helvetica,sans-serif;font-weight:bold;" transform="matrix(1 0 0 1 263 1953)">Design Variations</text>
  <text style="stroke:none;fill:black;font-family:-apple-system,&quot;SF Pro Display&quot;,&quot;SF Pro Text&quot;,Helvetica,sans-serif;" transform="matrix(1 0 0 1 263 1971)">Symbols are supported in up to nine weights and three scales.</text>
  <text style="stroke:none;fill:black;font-family:-apple-system,&quot;SF Pro Display&quot;,&quot;SF Pro Text&quot;,Helvetica,sans-serif;" transform="matrix(1 0 0 1 263 1989)">For optimal layout with text and other symbols, vertically align</text>
  <text style="stroke:none;fill:black;font-family:-apple-system,&quot;SF Pro Display&quot;,&quot;SF Pro Text&quot;,Helvetica,sans-serif;" transform="matrix(1 0 0 1 263 2007)">symbols with the adjacent text.</text>
  <rect height="14" id="" style="fill:#00AEEF;stroke:none;opacity:0.4;" width="3" x="776" y="1919"/>
  <g id="" transform="matrix(1 0 0 1 779 1933)">
   <path d="M 10.5273 0 L 12.373 0 L 7.17773 -14.0918 L 5.43945 -14.0918 L 0.244141 0 L 2.08984 0 L 3.50586 -4.0332 L 9.11133 -4.0332 Z M 6.2793 -11.9531 L 6.33789 -11.9531 L 8.59375 -5.52734 L 4.02344 -5.52734 Z"/>
  </g>
  <rect height="14" id="" style="fill:#00AEEF;stroke:none;opacity:0.4;" width="3" x="791.617" y="1919"/>
  <text style="stroke:none;fill:black;font-family:-apple-system,&quot;SF Pro Display&quot;,&quot;SF Pro Text&quot;,Helvetica,sans-serif;font-weight:bold;" transform="matrix(1 0 0 1 776 1953)">Margins</text>
  <text style="stroke:none;fill:black;font-family:-apple-system,&quot;SF Pro Display&quot;,&quot;SF Pro Text&quot;,Helvetica,sans-serif;" transform="matrix(1 0 0 1 776 1971)">Leading and trailing margins on the left and right side of each symbol</text>
  <text style="stroke:none;fill:black;font-family:-apple-system,&quot;SF Pro Display&quot;,&quot;SF Pro Text&quot;,Helvetica,sans-serif;" transform="matrix(1 0 0 1 776 1989)">can be adjusted by modifying the width of the blue rectangles.</text>
  <text style="stroke:none;fill:black;font-family:-apple-system,&quot;SF Pro Display&quot;,&quot;SF Pro Text&quot;,Helvetica,sans-serif;" transform="matrix(1 0 0 1 776 2007)">Modifications are automatically applied proportionally to all</text>
  <text style="stroke:none;fill:black;font-family:-apple-system,&quot;SF Pro Display&quot;,&quot;SF Pro Text&quot;,Helvetica,sans-serif;" transform="matrix(1 0 0 1 776 2025)">scales and weights.</text>
  <g id="" transform="matrix(1 0 0 1 1289 1933)">
   <path d="M 2.83203 3.11523 L 4.375 4.6582 C 5.22461 5.48828 6.19141 5.41992 7.06055 4.46289 L 17.2754 -6.66016 C 17.7051 -6.36719 18.0957 -6.37695 18.5645 -6.47461 L 19.6094 -6.68945 L 20.3027 -5.99609 L 20.2539 -5.47852 C 20.1855 -4.95117 20.3516 -4.53125 20.8496 -4.0332 L 21.6602 -3.22266 C 22.168 -2.71484 22.8223 -2.68555 23.3008 -3.16406 L 26.5527 -6.41602 C 27.0312 -6.89453 27.0117 -7.54883 26.5039 -8.05664 L 25.6836 -8.87695 C 25.1855 -9.375 24.7754 -9.55078 24.2383 -9.47266 L 23.7109 -9.41406 L 23.0566 -10.0781 L 23.3398 -11.2207 C 23.4863 -11.7871 23.3398 -12.2559 22.7148 -12.8613 L 20.3027 -15.2539 C 16.7578 -18.7793 12.2266 -18.6719 9.11133 -15.5371 C 8.69141 -15.1074 8.64258 -14.5215 8.91602 -14.0918 C 9.15039 -13.7207 9.62891 -13.4961 10.2734 -13.6621 C 11.7871 -14.043 13.3008 -13.9258 14.7852 -12.9199 L 14.1602 -11.3379 C 13.9258 -10.752 13.9453 -10.2734 14.1797 -9.83398 L 3.01758 0.439453 C 2.08008 1.30859 1.97266 2.25586 2.83203 3.11523 Z M 10.6738 -15.1465 C 13.3398 -17.1387 16.6504 -16.8262 19.0527 -14.4141 L 21.6797 -11.8066 C 21.9141 -11.5723 21.9434 -11.3867 21.8848 -11.0938 L 21.5039 -9.53125 L 23.0762 -7.95898 L 24.043 -8.04688 C 24.3262 -8.07617 24.4141 -8.05664 24.6387 -7.83203 L 25.2637 -7.20703 L 22.5098 -4.46289 L 21.8848 -5.07812 C 21.6602 -5.30273 21.6406 -5.40039 21.6699 -5.68359 L 21.7578 -6.64062 L 20.1953 -8.20312 L 18.5742 -7.89062 C 18.291 -7.83203 18.1445 -7.83203 17.9102 -8.07617 L 15.7324 -10.2539 C 15.5078 -10.4883 15.4785 -10.625 15.6055 -10.9473 L 16.5527 -13.2227 C 14.9512 -14.7559 12.8418 -15.6055 10.8008 -14.9512 C 10.7129 -14.9219 10.6445 -14.9414 10.6152 -14.9805 C 10.5859 -15.0293 10.5859 -15.0781 10.6738 -15.1465 Z M 4.10156 2.41211 C 3.61328 1.91406 3.78906 1.61133 4.12109 1.30859 L 15.0781 -8.80859 L 16.3086 -7.57812 L 6.15234 3.34961 C 5.84961 3.68164 5.46875 3.7793 5.06836 3.37891 Z"/>
  </g>
  <text style="stroke:none;fill:black;font-family:-apple-system,&quot;SF Pro Display&quot;,&quot;SF Pro Text&quot;,Helvetica,sans-serif;font-weight:bold;" transform="matrix(1 0 0 1 1289 1953)">Exporting</text>
  <text style="stroke:none;fill:black;font-family:-apple-system,&quot;SF Pro Display&quot;,&quot;SF Pro Text&quot;,Helvetica,sans-serif;" transform="matrix(1 0 0 1 1289 1971)">Symbols should be outlined when exporting to ensure the</text>
  <text style="stroke:none;fill:black;font-family:-apple-system,&quot;SF Pro Display&quot;,&quot;SF Pro Text&quot;,Helvetica,sans-serif;" transform="matrix(1 0 0 1 1289 1989)">design is preserved when submitting to Xcode.</text>
  <text id="template-version" style="stroke:none;fill:black;font-family:-apple-system,&quot;SF Pro Display&quot;,&quot;SF Pro Text&quot;,Helvetica,sans-serif;text-anchor:end;" transform="matrix(1 0 0 1 3036 1933)">Template v.1.0</text>
  <text style="stroke:none;fill:black;font-family:-apple-system,&quot;SF Pro Display&quot;,&quot;SF Pro Text&quot;,Helvetica,sans-serif;text-anchor:end;" transform="matrix(1 0 0 1 3036 1951)">Generated from wifi.exclamationmark</text>
  <text style="stroke:none;fill:black;font-family:-apple-system,&quot;SF Pro Display&quot;,&quot;SF Pro Text&quot;,Helvetica,sans-serif;text-anchor:end;" transform="matrix(1 0 0 1 3036 1969)">Typeset at 100 points</text>
  <text style="stroke:none;fill:black;font-family:-apple-system,&quot;SF Pro Display&quot;,&quot;SF Pro Text&quot;,Helvetica,sans-serif;" transform="matrix(1 0 0 1 263 726)">Small</text>
  <text style="stroke:none;fill:black;font-family:-apple-system,&quot;SF Pro Display&quot;,&quot;SF Pro Text&quot;,Helvetica,sans-serif;" transform="matrix(1 0 0 1 263 1156)">Medium</text>
  <text style="stroke:none;fill:black;font-family:-apple-system,&quot;SF Pro Display&quot;,&quot;SF Pro Text&quot;,Helvetica,sans-serif;" transform="matrix(1 0 0 1 263 1586)">Large</text>
 </g>
 <g id="Guides">
  <g id="H-reference" style="fill:#27AAE1;stroke:none;" transform="matrix(1 0 0 1 339 696)">
   <path d="M 54.9316 0 L 57.666 0 L 30.5664 -70.459 L 28.0762 -70.459 L 0.976562 0 L 3.66211 0 L 12.9395 -24.4629 L 45.7031 -24.4629 Z M 29.1992 -67.0898 L 29.4434 -67.0898 L 44.8242 -26.709 L 13.8184 -26.709 Z"/>
  </g>
  <line id="Baseline-S" style="fill:none;stroke:#27AAE1;opacity:1;stroke-width:0.577;" x1="263" x2="3036" y1="696" y2="696"/>
  <line id="Capline-S" style="fill:none;stroke:#27AAE1;opacity:1;stroke-width:0.577;" x1="263" x2="3036" y1="625.541" y2="625.541"/>
  <g id="H-reference" style="fill:#27AAE1;stroke:none;" transform="matrix(1 0 0 1 339 1126)">
   <path d="M 54.9316 0 L 57.666 0 L 30.5664 -70.459 L 28.0762 -70.459 L 0.976562 0 L 3.66211 0 L 12.9395 -24.4629 L 45.7031 -24.4629 Z M 29.1992 -67.0898 L 29.4434 -67.0898 L 44.8242 -26.709 L 13.8184 -26.709 Z"/>
  </g>
  <line id="Baseline-M" style="fill:none;stroke:#27AAE1;opacity:1;stroke-width:0.577;" x1="263" x2="3036" y1="1126" y2="1126"/>
  <line id="Capline-M" style="fill:none;stroke:#27AAE1;opacity:1;stroke-width:0.577;" x1="263" x2="3036" y1="1055.54" y2="1055.54"/>
  <g id="H-reference" style="fill:#27AAE1;stroke:none;" transform="matrix(1 0 0 1 339 1556)">
   <path d="M 54.9316 0 L 57.666 0 L 30.5664 -70.459 L 28.0762 -70.459 L 0.976562 0 L 3.66211 0 L 12.9395 -24.4629 L 45.7031 -24.4629 Z M 29.1992 -67.0898 L 29.4434 -67.0898 L 44.8242 -26.709 L 13.8184 -26.709 Z"/>
  </g>
  <line id="Baseline-L" style="fill:none;stroke:#27AAE1;opacity:1;stroke-width:0.577;" x1="263" x2="3036" y1="1556" y2="1556"/>
  <line id="Capline-L" style="fill:none;stroke:#27AAE1;opacity:1;stroke-width:0.577;" x1="263" x2="3036" y1="1485.54" y2="1485.54"/>
  <rect height="119.336" id="left-margin" style="fill:#00AEEF;stroke:none;opacity:0.4;" width="9.9535" x="1385.86" y="1030.79"/>
  <rect height="119.336" id="right-margin" style="fill:#00AEEF;stroke:none;opacity:0.4;" width="9.94628" x="1503.89" y="1030.79"/>
 </g>
 <g id="Symbols">
  <g id="Black-L" transform="matrix(1 0 0 1 2848.95 1556)">
   <path d="M 84.4727 -15.8203 C 92.3828 -15.8203 96.5332 -20.5078 96.8262 -28.6133 C 97.1191 -41.2109 98.291 -71.2891 98.3887 -81.25 C 98.3887 -88.8184 93.1152 -95.1172 84.5215 -95.1172 C 75.8789 -95.1172 70.5078 -88.8184 70.5078 -81.25 C 70.6055 -71.3379 71.7773 -41.2109 72.1191 -28.6133 C 72.4121 -20.5078 76.5137 -15.8203 84.4727 -15.8203 Z M 22.8027 -41.6504 C 24.5117 -39.8438 27.3438 -39.9414 29.0039 -41.7969 C 38.3789 -51.6602 49.5117 -58.4961 61.8652 -62.1582 L 61.7188 -84.4727 C 42.2363 -79.9316 24.6582 -69.5312 13.8184 -55.957 C 12.5 -54.3457 12.5488 -52.1973 14.1113 -50.5859 Z M 140.039 -41.6504 C 141.65 -39.9414 144.434 -40.0391 146.094 -41.7969 L 154.785 -50.5859 C 156.299 -52.1973 156.445 -54.3945 155.078 -55.957 C 143.799 -69.0918 126.465 -79.5898 107.227 -84.2773 L 107.031 -62.207 C 119.531 -58.5449 130.615 -51.6602 140.039 -41.6504 Z M 47.9492 -16.4551 C 49.8535 -14.6484 52.4902 -14.7461 54.2969 -16.748 C 56.9824 -19.7266 60.2539 -22.3145 63.8672 -24.2188 L 62.3047 -47.9492 C 52.3438 -44.5312 43.7988 -38.6719 37.9395 -31.4941 C 36.5723 -29.7852 36.6211 -27.6855 38.2324 -26.123 Z M 114.893 -16.4551 C 116.602 -14.5996 119.092 -14.6484 120.898 -16.5039 L 130.664 -26.123 C 132.227 -27.6367 132.373 -29.834 130.957 -31.4941 C 124.902 -38.4277 116.455 -44.2871 106.592 -47.8027 L 105.078 -24.1211 C 108.74 -22.0703 112.109 -19.4824 114.893 -16.4551 Z M 84.5215 22.168 C 92.8711 22.168 99.707 15.7715 99.707 7.66602 C 99.707 -0.439453 92.8711 -6.83594 84.5215 -6.83594 C 76.0254 -6.83594 69.2383 -0.439453 69.2383 7.66602 C 69.2383 15.7715 76.0254 22.168 84.5215 22.168 Z"/>
  </g>
  <g id="Heavy-L" transform="matrix(1 0 0 1 2552.78 1556)">
   <path d="M 83.9355 -14.9414 C 90.6738 -14.9414 94.2871 -18.9941 94.5312 -25.8789 C 94.7754 -41.1621 95.7031 -69.873 95.8008 -83.2031 C 95.8008 -89.6973 91.2598 -94.9707 83.9355 -94.9707 C 76.6602 -94.9707 72.0215 -89.6973 72.0215 -83.2031 C 72.1191 -69.9219 73.0469 -41.1621 73.3398 -25.8789 C 73.584 -18.9941 77.1973 -14.9414 83.9355 -14.9414 Z M 22.5586 -42.0898 C 24.1211 -40.4297 26.6602 -40.5273 28.1738 -42.2363 C 38.1348 -52.6855 50.1465 -59.7656 63.5742 -63.1836 L 63.3789 -84.4238 C 43.1641 -80.1758 24.9023 -69.5312 13.7207 -55.7129 C 12.5488 -54.248 12.5977 -52.2949 14.0137 -50.8301 Z M 139.795 -42.0898 C 141.26 -40.5273 143.75 -40.625 145.312 -42.2852 L 153.809 -50.8301 C 155.225 -52.2949 155.322 -54.2969 154.102 -55.7129 C 142.627 -69.1895 124.512 -79.8828 104.492 -84.2773 L 104.297 -63.2324 C 117.773 -59.7656 129.785 -52.6367 139.795 -42.0898 Z M 47.7051 -16.8945 C 49.4629 -15.1855 51.8066 -15.2832 53.4668 -17.1875 C 56.6406 -20.6543 60.6445 -23.6328 65.1367 -25.6348 L 63.916 -48.0469 C 53.1738 -44.7754 43.9941 -38.7207 37.8418 -31.25 C 36.6211 -29.7363 36.6699 -27.832 38.1348 -26.416 Z M 114.6 -16.8945 C 116.211 -15.1855 118.408 -15.2344 120.117 -16.9434 L 129.688 -26.416 C 131.152 -27.7832 131.25 -29.7852 129.98 -31.25 C 123.73 -38.5254 114.551 -44.6289 103.906 -47.9492 L 102.734 -25.5371 C 107.275 -23.3887 111.377 -20.4102 114.6 -16.8945 Z M 83.9355 20.752 C 91.5039 20.752 97.7051 14.8926 97.7051 7.51953 C 97.7051 0.195312 91.5039 -5.66406 83.9355 -5.66406 C 76.3184 -5.66406 70.166 0.195312 70.166 7.51953 C 70.166 14.8926 76.3184 20.752 83.9355 20.752 Z"/>
  </g>
  <g id="Bold-L" transform="matrix(1 0 0 1 2256.65 1556)">
   <path d="M 83.3496 -14.0137 C 88.7207 -14.0137 91.748 -17.2363 91.9434 -22.8027 C 92.1875 -41.1621 92.8223 -68.3105 92.9199 -85.3516 C 92.9199 -90.7227 89.1113 -94.873 83.3496 -94.873 C 77.5879 -94.873 73.6816 -90.7227 73.6816 -85.3516 C 73.8281 -68.3105 74.5117 -41.1621 74.7559 -22.8027 C 74.9512 -17.2363 77.9297 -14.0137 83.3496 -14.0137 Z M 22.2656 -42.5781 C 23.6816 -41.1133 25.8789 -41.1621 27.2461 -42.6758 C 37.8418 -53.9062 50.8789 -61.2305 65.4297 -64.3555 L 65.2832 -84.3262 C 44.2383 -80.4199 25.0977 -69.5312 13.623 -55.5176 C 12.5977 -54.1992 12.6465 -52.4414 13.8672 -51.1719 Z M 139.502 -42.5781 C 140.82 -41.2109 143.018 -41.2598 144.434 -42.7734 L 152.734 -51.1719 C 154.004 -52.4414 154.102 -54.1992 152.979 -55.5176 C 141.309 -69.2871 122.314 -80.2246 101.416 -84.2285 L 101.221 -64.3555 C 115.82 -61.1816 128.809 -53.7598 139.502 -42.5781 Z M 47.4121 -17.334 C 48.9746 -15.8203 51.0254 -15.918 52.5391 -17.627 C 56.25 -21.6797 61.1328 -25.0488 66.6016 -27.1973 L 65.7227 -48.1934 C 54.1504 -45.0684 44.1895 -38.7695 37.7441 -31.0059 C 36.6211 -29.6387 36.7188 -27.9785 37.9883 -26.709 Z M 114.307 -17.3828 C 115.723 -15.8691 117.676 -15.918 119.287 -17.4316 L 128.613 -26.709 C 129.883 -27.9297 130.029 -29.6875 128.857 -31.0059 C 122.363 -38.6719 112.451 -44.9707 100.928 -48.0957 L 100.098 -27.0996 C 105.566 -24.8535 110.547 -21.4355 114.307 -17.3828 Z M 83.3496 19.1895 C 90.0391 19.1895 95.459 13.916 95.459 7.42188 C 95.459 0.878906 90.0391 -4.3457 83.3496 -4.3457 C 76.6602 -4.3457 71.1914 0.878906 71.1914 7.42188 C 71.1914 13.916 76.6602 19.1895 83.3496 19.1895 Z"/>
  </g>
  <g id="Semibold-L" transform="matrix(1 0 0 1 1960.36 1556)">
   <path d="M 82.959 -13.3301 C 87.4023 -13.3301 90.0391 -16.0645 90.1855 -20.6543 C 90.3809 -41.1621 90.8203 -67.2363 90.9668 -86.8652 C 90.9668 -91.4062 87.6465 -94.7754 82.9102 -94.7754 C 78.1738 -94.7754 74.8535 -91.4062 74.8535 -86.8652 C 75 -67.2363 75.4883 -41.1621 75.7324 -20.6543 C 75.8301 -16.0645 78.4668 -13.3301 82.959 -13.3301 Z M 22.0703 -42.9199 C 23.3398 -41.6016 25.3906 -41.6504 26.6602 -43.0176 C 37.6465 -54.6875 51.416 -62.207 66.748 -65.1855 L 66.5527 -84.2773 C 44.9707 -80.5664 25.293 -69.5312 13.5742 -55.3223 C 12.5977 -54.1504 12.6465 -52.5391 13.8184 -51.3672 Z M 139.307 -42.9688 C 140.479 -41.6992 142.48 -41.6992 143.848 -43.1152 L 152.002 -51.3672 C 153.174 -52.5391 153.223 -54.1504 152.246 -55.3223 C 140.43 -69.3848 120.801 -80.4688 99.2676 -84.1797 L 99.1211 -65.1367 C 114.453 -62.1582 128.174 -54.541 139.307 -42.9688 Z M 47.2168 -17.6758 C 48.6816 -16.2598 50.5371 -16.4062 51.9043 -17.9199 C 55.957 -22.4121 61.4746 -26.0742 67.5781 -28.2715 L 66.9434 -48.2422 C 54.7852 -45.2637 44.3359 -38.7695 37.6953 -30.8594 C 36.6699 -29.5898 36.7676 -28.0762 37.9395 -26.9531 Z M 114.111 -17.7246 C 115.43 -16.3086 117.188 -16.3574 118.652 -17.7734 L 127.881 -26.9531 C 129.053 -28.0273 129.15 -29.6387 128.125 -30.8594 C 121.436 -38.7207 110.986 -45.2148 98.877 -48.1934 L 98.291 -28.1738 C 104.443 -25.8789 109.961 -22.168 114.111 -17.7246 Z M 82.9102 18.0664 C 88.9648 18.0664 93.8965 13.2324 93.8965 7.32422 C 93.8965 1.36719 88.9648 -3.41797 82.9102 -3.41797 C 76.8555 -3.41797 71.9238 1.31836 71.9238 7.32422 C 71.9238 13.2324 76.8555 18.0664 82.9102 18.0664 Z"/>
  </g>
  <g id="Medium-L" transform="matrix(1 0 0 1 1663.96 1556)">
   <path d="M 82.6172 -12.793 C 86.377 -12.793 88.7207 -15.1855 88.8184 -19.043 C 89.0137 -41.1133 89.3555 -66.4062 89.4531 -87.9883 C 89.4531 -91.8945 86.5234 -94.6777 82.6172 -94.6777 C 78.6621 -94.6777 75.7324 -91.8945 75.7324 -87.9883 C 75.8789 -66.4062 76.2207 -41.1133 76.4648 -19.043 C 76.5625 -15.1855 78.8574 -12.793 82.6172 -12.793 Z M 21.9238 -43.1641 C 23.0957 -41.9434 24.9512 -41.9922 26.1719 -43.2617 C 37.5 -55.3223 51.8066 -62.9395 67.7246 -65.7715 L 67.5293 -84.2773 C 45.5078 -80.7129 25.3906 -69.5312 13.5254 -55.2246 C 12.6465 -54.1016 12.6465 -52.6367 13.7207 -51.5137 Z M 139.16 -43.2129 C 140.283 -42.041 142.09 -42.041 143.359 -43.4082 L 151.465 -51.5137 C 152.539 -52.6367 152.588 -54.1016 151.66 -55.2246 C 139.697 -69.4336 119.629 -80.6152 97.6562 -84.1797 L 97.5098 -65.7227 C 113.428 -62.8906 127.686 -55.127 139.16 -43.2129 Z M 47.0703 -17.9199 C 48.4375 -16.6016 50.0977 -16.6992 51.416 -18.1641 C 55.7617 -22.9492 61.7188 -26.8066 68.3105 -29.0527 L 67.8711 -48.291 C 55.3223 -45.4102 44.4336 -38.8184 37.6465 -30.7129 C 36.7188 -29.5898 36.7676 -28.1738 37.8418 -27.0996 Z M 113.965 -17.9688 C 115.186 -16.6504 116.797 -16.6992 118.213 -18.0664 L 127.344 -27.0996 C 128.418 -28.125 128.516 -29.5898 127.539 -30.7129 C 120.752 -38.8184 109.863 -45.4102 97.3633 -48.291 L 96.9238 -28.9551 C 103.564 -26.6602 109.57 -22.7051 113.965 -17.9688 Z M 82.6172 17.2363 C 88.1836 17.2363 92.7246 12.7441 92.7246 7.22656 C 92.7246 1.70898 88.1836 -2.73438 82.6172 -2.73438 C 77.0508 -2.73438 72.4609 1.66016 72.4609 7.22656 C 72.4609 12.7441 77.0508 17.2363 82.6172 17.2363 Z"/>
  </g>
  <g id="Regular-L" transform="matrix(1 0 0 1 1367.64 1556)">
   <path d="M 82.2266 -12.1582 C 85.0586 -12.1582 87.0117 -14.0137 87.0605 -16.9434 C 87.207 -41.1133 87.3535 -65.332 87.5 -89.502 C 87.5 -92.5781 85.1074 -94.6289 82.1777 -94.6289 C 79.2969 -94.6289 76.8555 -92.5781 76.8555 -89.502 C 77.0508 -65.332 77.1973 -41.1133 77.3926 -16.9434 C 77.4414 -14.0137 79.3945 -12.1582 82.2266 -12.1582 Z M 21.7285 -43.5059 C 22.8027 -42.3828 24.4629 -42.4316 25.5371 -43.6035 C 37.3535 -56.1035 52.2949 -63.916 68.9941 -66.5527 L 68.7988 -84.1797 C 46.2402 -80.8594 25.5371 -69.5312 13.4766 -55.0293 C 12.6465 -54.0527 12.6953 -52.7344 13.6719 -51.709 Z M 138.965 -43.5547 C 139.99 -42.4805 141.553 -42.4805 142.773 -43.75 L 150.732 -51.709 C 151.709 -52.7344 151.709 -54.0527 150.879 -55.0293 C 138.818 -69.4824 118.164 -80.8594 95.5566 -84.1309 L 95.4102 -66.5039 C 112.109 -63.8184 127.002 -55.9082 138.965 -43.5547 Z M 46.875 -18.2129 C 48.0957 -17.041 49.6094 -17.1387 50.7812 -18.457 C 55.5176 -23.6328 62.0605 -27.7832 69.3359 -30.127 L 69.1406 -48.3887 C 55.957 -45.6055 44.5801 -38.8672 37.5488 -30.5176 C 36.7188 -29.541 36.8164 -28.2715 37.793 -27.2949 Z M 113.721 -18.3105 C 114.893 -17.0898 116.26 -17.1387 117.627 -18.4082 L 126.611 -27.2949 C 127.588 -28.2227 127.637 -29.541 126.807 -30.5176 C 119.824 -38.8672 108.398 -45.6543 95.3125 -48.3887 L 95.166 -30.0293 C 102.393 -27.6367 108.984 -23.4375 113.721 -18.3105 Z M 82.1777 16.1621 C 87.1582 16.1621 91.2109 12.1094 91.2109 7.17773 C 91.2109 2.19727 87.1582 -1.85547 82.1777 -1.85547 C 77.2461 -1.85547 73.1934 2.14844 73.1934 7.17773 C 73.1934 12.1094 77.2461 16.1621 82.1777 16.1621 Z"/>
  </g>
  <g id="Light-L" transform="matrix(1 0 0 1 1071.52 1556)">
   <path d="M 81.6406 -10.6934 C 83.7891 -10.6934 85.3027 -12.1094 85.3027 -14.4043 L 85.5957 -90.6738 C 85.5957 -93.0664 83.8379 -94.5312 81.5918 -94.5312 C 79.3457 -94.5312 77.5879 -93.0664 77.5879 -90.6738 C 77.7344 -65.2832 77.832 -39.7949 77.9297 -14.4043 C 77.9785 -12.1094 79.4434 -10.6934 81.6406 -10.6934 Z M 21.2891 -44.0918 C 22.3145 -43.0176 23.7793 -43.0664 24.8047 -44.1406 C 36.8652 -56.8848 52.3438 -64.8438 69.6777 -67.2363 L 69.5801 -83.8867 C 46.7773 -80.8594 25.5859 -69.6777 13.4277 -54.9805 C 12.6465 -54.0527 12.6953 -52.7832 13.5742 -51.8555 Z M 138.477 -44.1406 C 139.453 -43.1152 140.918 -43.1152 142.139 -44.3359 L 149.609 -51.8555 C 150.537 -52.7832 150.537 -54.0527 149.756 -54.9805 C 137.646 -69.6289 116.406 -80.8594 93.6523 -83.8379 L 93.5547 -67.2363 C 110.889 -64.7949 126.465 -56.8359 138.477 -44.1406 Z M 46.4355 -18.75 C 47.5586 -17.7246 48.877 -17.7734 50.0488 -18.9941 C 55.0781 -24.4629 62.1582 -28.7598 69.873 -31.0059 L 69.7754 -48.1445 C 56.3477 -45.6055 44.5801 -38.916 37.5 -30.4199 C 36.7676 -29.4922 36.8164 -28.3203 37.6953 -27.4414 Z M 113.281 -18.8965 C 114.355 -17.7246 115.625 -17.7734 116.943 -18.9941 L 125.488 -27.4414 C 126.367 -28.3203 126.465 -29.4922 125.684 -30.4199 C 118.652 -38.9648 106.836 -45.6543 93.5059 -48.1445 L 93.4082 -30.957 C 101.123 -28.6621 108.203 -24.3652 113.281 -18.8965 Z M 81.5918 14.8438 C 86.084 14.8438 89.7949 11.1328 89.7949 6.64062 C 89.7949 2.14844 86.084 -1.51367 81.5918 -1.51367 C 77.1484 -1.51367 73.3887 2.09961 73.3887 6.64062 C 73.3887 11.1328 77.1484 14.8438 81.5918 14.8438 Z"/>
  </g>
  <g id="Thin-L" transform="matrix(1 0 0 1 775.587 1556)">
   <path d="M 80.8594 -8.74023 C 82.1289 -8.74023 83.0078 -9.61914 83.0078 -10.9863 L 83.0566 -92.2852 C 83.0566 -93.6523 82.1777 -94.4824 80.8105 -94.4824 C 79.4922 -94.4824 78.6133 -93.6523 78.6133 -92.2852 C 78.6133 -65.1855 78.6621 -38.0859 78.6621 -10.9863 C 78.6621 -9.61914 79.4922 -8.74023 80.8594 -8.74023 Z M 20.7031 -44.8242 C 21.6309 -43.8965 22.9004 -43.8965 23.7793 -44.873 C 36.2305 -57.9102 52.3926 -66.0156 70.5566 -68.1641 L 70.5566 -83.4473 C 47.5586 -80.8594 25.5859 -69.873 13.4277 -54.9316 C 12.6465 -54.0039 12.7441 -52.8809 13.4766 -52.0508 Z M 137.891 -44.873 C 138.77 -43.8965 140.039 -43.8965 141.26 -45.1172 L 148.145 -52.0508 C 148.975 -52.8809 148.975 -54.0039 148.242 -54.9316 C 136.035 -69.8242 114.111 -80.8594 91.1133 -83.4473 L 91.1133 -68.1641 C 109.277 -66.0645 125.684 -58.1055 137.891 -44.873 Z M 45.8984 -19.4824 C 46.875 -18.5547 47.998 -18.5547 49.0234 -19.7266 C 54.4922 -25.5859 62.2559 -30.0293 70.6055 -32.1289 L 70.6055 -47.8027 C 56.9336 -45.5566 44.5801 -39.0137 37.4512 -30.3223 C 36.7676 -29.4922 36.8652 -28.418 37.6465 -27.6367 Z M 112.646 -19.7266 C 113.721 -18.5547 114.795 -18.5547 116.064 -19.7754 L 124.023 -27.6367 C 124.805 -28.418 124.854 -29.4922 124.219 -30.3223 C 117.139 -39.1113 104.736 -45.6543 91.0645 -47.8027 L 91.0645 -32.1289 C 99.4141 -30.0293 107.178 -25.5371 112.646 -19.7266 Z M 80.8105 13.1348 C 84.7168 13.1348 87.9395 9.86328 87.9395 6.00586 C 87.9395 2.14844 84.7168 -1.12305 80.8105 -1.12305 C 76.9531 -1.12305 73.7305 2.05078 73.7305 6.00586 C 73.7305 9.86328 76.9531 13.1348 80.8105 13.1348 Z"/>
  </g>
  <g id="Ultralight-L" transform="matrix(1 0 0 1 479.267 1556)">
   <path d="M 80.4199 -7.76367 C 81.25 -7.76367 81.8359 -8.34961 81.8359 -9.27734 L 81.7871 -93.0664 C 81.7871 -93.9453 81.3477 -94.4336 80.4199 -94.4336 C 79.541 -94.4336 79.1016 -93.9453 79.1016 -93.0664 C 79.0527 -65.1855 79.0527 -37.1582 79.0527 -9.27734 C 79.0039 -8.34961 79.4922 -7.76367 80.4199 -7.76367 Z M 137.598 -45.2637 C 138.428 -44.3359 139.6 -44.3359 140.82 -45.5078 L 147.412 -52.0996 C 148.193 -52.8809 148.193 -54.0039 147.461 -54.8828 C 135.254 -69.873 112.939 -80.8594 89.7949 -83.252 L 89.8438 -68.6523 C 108.447 -66.6992 125.293 -58.7402 137.598 -45.2637 Z M 20.4102 -45.166 C 21.2891 -44.3359 22.4121 -44.3359 23.291 -45.2637 C 35.9375 -58.4473 52.3926 -66.6016 71.0449 -68.6035 L 71.0449 -83.252 C 47.9004 -80.8594 25.6348 -69.9707 13.3789 -54.8828 C 12.6953 -54.0039 12.7441 -52.8809 13.4766 -52.0996 Z M 45.5566 -19.8242 C 46.5332 -18.9941 47.5098 -18.9941 48.5352 -20.0684 C 54.1992 -26.123 62.3047 -30.6641 70.9961 -32.7148 L 71.0449 -47.6562 C 57.1777 -45.5566 44.5801 -39.0625 37.4023 -30.2734 C 36.8164 -29.4922 36.8652 -28.4668 37.5977 -27.7344 Z M 112.305 -20.1172 C 113.33 -18.9941 114.355 -18.9941 115.625 -20.166 L 123.291 -27.7344 C 123.975 -28.4668 124.072 -29.4922 123.438 -30.2734 C 116.357 -39.1602 103.662 -45.6543 89.8438 -47.6562 L 89.8438 -32.7637 C 98.5352 -30.7129 106.689 -26.1719 112.305 -20.1172 Z M 80.4199 12.207 C 83.9844 12.207 87.0117 9.22852 87.0117 5.66406 C 87.0117 2.09961 83.9844 -0.927734 80.4199 -0.927734 C 76.9043 -0.927734 73.877 2.05078 73.877 5.66406 C 73.877 9.22852 76.9043 12.207 80.4199 12.207 Z"/>
  </g>
  <g id="Black-M" transform="matrix(1 0 0 1 2867.58 1126)">
   <path d="M 65.8203 -20.6055 C 73.1934 -20.6055 76.8555 -24.8535 77.1973 -32.4707 C 77.4414 -39.209 78.6621 -65.0391 78.6133 -68.9453 C 78.6133 -75.8301 74.0234 -81.7871 65.8691 -81.7871 C 57.7148 -81.7871 52.9785 -75.8301 52.9785 -68.9453 C 52.9785 -65.0879 54.1992 -39.209 54.4434 -32.4707 C 54.7852 -24.8535 58.3496 -20.6055 65.8203 -20.6055 Z M 17.7246 -39.8926 C 19.2383 -38.3301 21.6797 -38.3789 23.1445 -40.0391 C 29.7852 -46.9727 37.5 -52.002 45.9961 -55.0781 L 45.9473 -73.3398 C 31.7383 -69.5801 18.8477 -61.8652 10.7422 -51.5625 C 9.61914 -50.0977 9.66797 -48.1934 10.9863 -46.8262 Z M 108.594 -39.8926 C 110.01 -38.3789 112.451 -38.5254 113.916 -40.0391 L 120.605 -46.8262 C 121.924 -48.1934 122.07 -50.1465 120.898 -51.5625 C 112.354 -61.4258 99.707 -69.1895 85.7422 -73.1445 L 85.6445 -55.127 C 94.3359 -52.0996 102.051 -47.0703 108.594 -39.8926 Z M 37.2559 -20.4102 C 38.8672 -18.8477 41.2109 -18.8965 42.7734 -20.6543 C 44.3848 -22.4121 46.0938 -24.0234 48.0469 -25.293 L 46.4355 -44.8242 C 39.5996 -42.0898 33.6426 -37.8906 29.4434 -32.6172 C 28.2715 -31.1035 28.3203 -29.1992 29.6875 -27.8809 Z M 89.1113 -20.4102 C 90.625 -18.75 92.8223 -18.8477 94.3848 -20.4102 L 101.904 -27.8809 C 103.32 -29.1992 103.418 -31.1523 102.197 -32.6172 C 97.7539 -37.5977 91.8945 -41.8457 85.2051 -44.6289 L 83.5938 -25.2441 C 85.5957 -23.8281 87.4512 -22.2168 89.1113 -20.4102 Z M 65.8691 10.4492 C 73.1934 10.4492 79.1992 4.93164 79.1992 -2.09961 C 79.1992 -9.08203 73.1934 -14.5996 65.8691 -14.5996 C 58.4473 -14.5996 52.4902 -9.08203 52.4902 -2.09961 C 52.4902 4.93164 58.4473 10.4492 65.8691 10.4492 Z"/>
  </g>
  <g id="Heavy-M" transform="matrix(1 0 0 1 2571.28 1126)">
   <path d="M 65.3809 -20.0195 C 71.6309 -20.0195 74.8535 -23.6816 75.0977 -30.127 C 75.3418 -39.502 76.3184 -63.4766 76.3184 -70.752 C 76.3184 -76.6602 72.3145 -81.6406 65.4297 -81.6406 C 58.5938 -81.6406 54.4434 -76.6602 54.4434 -70.752 C 54.4922 -63.5254 55.4199 -39.502 55.6641 -30.127 C 55.9082 -23.6816 59.082 -20.0195 65.3809 -20.0195 Z M 17.5781 -40.2344 C 18.9453 -38.8184 21.1426 -38.8672 22.4609 -40.3809 C 29.6387 -47.9004 38.1836 -53.1738 47.6562 -56.0059 L 47.5586 -73.3398 C 32.6172 -69.8242 19.043 -61.8652 10.6934 -51.3184 C 9.66797 -50.0488 9.7168 -48.3398 10.8887 -47.0703 Z M 108.447 -40.2344 C 109.717 -38.916 111.865 -39.0137 113.232 -40.3809 L 119.873 -47.0703 C 121.045 -48.3398 121.143 -50.0977 120.117 -51.3184 C 111.377 -61.5234 97.998 -69.5312 83.252 -73.1934 L 83.1055 -56.0547 C 92.7246 -53.2227 101.27 -47.9492 108.447 -40.2344 Z M 37.1094 -20.7031 C 38.5742 -19.2871 40.625 -19.3848 42.0898 -20.9473 C 44.0918 -23.1934 46.582 -25.1465 49.2676 -26.6113 L 48.0469 -45.0195 C 40.4297 -42.3828 33.8867 -37.8906 29.3945 -32.373 C 28.3203 -31.0059 28.3691 -29.3457 29.5898 -28.125 Z M 88.916 -20.752 C 90.2832 -19.2383 92.2363 -19.3359 93.7012 -20.752 L 101.172 -28.125 C 102.393 -29.3457 102.539 -31.0547 101.416 -32.373 C 96.7773 -37.6953 90.2344 -42.1875 82.7637 -44.873 L 81.4941 -26.5137 C 84.2773 -25 86.8652 -22.998 88.916 -20.752 Z M 65.4297 9.27734 C 71.9727 9.27734 77.3926 4.24805 77.3926 -2.09961 C 77.3926 -8.39844 71.9727 -13.4277 65.4297 -13.4277 C 58.7891 -13.4277 53.418 -8.39844 53.418 -2.09961 C 53.418 4.24805 58.7891 9.27734 65.4297 9.27734 Z"/>
  </g>
  <g id="Bold-M" transform="matrix(1 0 0 1 2275.06 1126)">
   <path d="M 64.9414 -19.3848 C 69.9219 -19.3848 72.6074 -22.3633 72.8027 -27.4902 C 72.998 -39.8438 73.6816 -61.8164 73.7793 -72.7539 C 73.7793 -77.6367 70.3125 -81.543 64.9414 -81.543 C 59.5215 -81.543 56.0547 -77.6367 56.0547 -72.7539 C 56.1523 -61.8164 56.8359 -39.8438 57.0312 -27.4902 C 57.2266 -22.3633 59.9121 -19.3848 64.9414 -19.3848 Z M 17.3828 -40.625 C 18.6035 -39.3555 20.5078 -39.4531 21.6797 -40.7227 C 29.4922 -48.9746 38.9648 -54.4922 49.5117 -57.0801 L 49.4141 -73.3398 C 33.5938 -70.0684 19.2871 -61.8164 10.5957 -51.0742 C 9.7168 -49.9512 9.7168 -48.4863 10.791 -47.3633 Z M 108.252 -40.625 C 109.375 -39.4531 111.279 -39.502 112.451 -40.7715 L 118.994 -47.3633 C 120.068 -48.4863 120.166 -50 119.238 -51.0742 C 110.303 -61.5723 96.0938 -69.873 80.4199 -73.2422 L 80.3223 -57.0801 C 90.918 -54.4922 100.391 -48.9258 108.252 -40.625 Z M 36.9141 -21.0938 C 38.2324 -19.8242 39.9902 -19.873 41.2598 -21.2891 C 43.7988 -24.0723 47.0703 -26.4648 50.6836 -28.0273 L 49.8047 -45.2148 C 41.3574 -42.6758 34.082 -37.9395 29.2969 -32.1289 C 28.3203 -30.957 28.418 -29.4922 29.4922 -28.4668 Z M 88.7207 -21.0938 C 89.9414 -19.7754 91.6504 -19.873 92.9199 -21.1426 L 100.342 -28.4668 C 101.416 -29.4922 101.514 -31.0059 100.537 -32.1289 C 95.6543 -37.793 88.4277 -42.5781 80.0293 -45.1172 L 79.1504 -27.9785 C 82.8125 -26.3184 86.1816 -23.9258 88.7207 -21.0938 Z M 64.9414 7.91016 C 70.6543 7.91016 75.3418 3.4668 75.3418 -2.09961 C 75.3418 -7.66602 70.6543 -12.0605 64.9414 -12.0605 C 59.1797 -12.0605 54.4922 -7.66602 54.4922 -2.09961 C 54.4922 3.4668 59.1797 7.91016 64.9414 7.91016 Z"/>
  </g>
  <g id="Semibold-M" transform="matrix(1 0 0 1 1978.69 1126)">
   <path d="M 64.5996 -18.9453 C 68.7012 -18.9453 71.0938 -21.4355 71.2402 -25.6836 C 71.3867 -40.0879 71.875 -60.6445 71.9727 -74.1699 C 71.9727 -78.2715 68.9941 -81.4453 64.5996 -81.4453 C 60.2051 -81.4453 57.1777 -78.2715 57.1777 -74.1699 C 57.3242 -60.6445 57.7637 -40.0879 58.0078 -25.6836 C 58.1543 -21.4355 60.498 -18.9453 64.5996 -18.9453 Z M 17.2852 -40.8691 C 18.3594 -39.7461 20.0684 -39.7949 21.1426 -40.9668 C 29.3457 -49.707 39.502 -55.3711 50.8301 -57.8125 L 50.6836 -73.3398 C 34.2773 -70.2637 19.4824 -61.7676 10.5469 -50.9277 C 9.7168 -49.9023 9.76562 -48.584 10.7422 -47.6074 Z M 108.154 -40.8691 C 109.131 -39.8438 110.84 -39.8926 111.914 -41.0156 L 118.408 -47.6074 C 119.385 -48.584 119.434 -49.9512 118.604 -50.9277 C 109.57 -61.6211 94.8242 -70.166 78.5156 -73.2422 L 78.3691 -57.8125 C 89.6973 -55.3223 99.8047 -49.5605 108.154 -40.8691 Z M 36.7676 -21.3379 C 37.9883 -20.166 39.5508 -20.2637 40.7227 -21.5332 C 43.6035 -24.707 47.4121 -27.3438 51.6602 -29.0527 L 51.0254 -45.3125 C 41.9922 -42.9199 34.2285 -37.9395 29.248 -31.9336 C 28.3691 -30.9082 28.418 -29.6387 29.4434 -28.6621 Z M 88.623 -21.3379 C 89.6973 -20.166 91.2109 -20.2148 92.4316 -21.3867 L 99.7559 -28.6621 C 100.732 -29.5898 100.781 -30.9082 99.9512 -31.9336 C 94.873 -37.8906 87.1094 -42.8223 78.1738 -45.2637 L 77.5391 -28.9551 C 81.8359 -27.1973 85.6934 -24.5117 88.623 -21.3379 Z M 64.5996 6.98242 C 69.7266 6.98242 73.9258 2.92969 73.9258 -2.09961 C 73.9258 -7.12891 69.7266 -11.1328 64.5996 -11.1328 C 59.4727 -11.1328 55.2734 -7.12891 55.2734 -2.09961 C 55.2734 2.92969 59.4727 6.98242 64.5996 6.98242 Z"/>
  </g>
  <g id="Medium-M" transform="matrix(1 0 0 1 1682.22 1126)">
   <path d="M 64.3555 -18.6035 C 67.8223 -18.6035 69.9219 -20.752 70.0195 -24.3164 C 70.166 -40.2832 70.5078 -59.7656 70.6543 -75.1953 C 70.6543 -78.7598 67.9688 -81.3477 64.3555 -81.3477 C 60.6934 -81.3477 58.0078 -78.7598 58.0078 -75.1953 C 58.1543 -59.7656 58.4961 -40.2832 58.6914 -24.3164 C 58.7891 -20.752 60.8887 -18.6035 64.3555 -18.6035 Z M 17.1875 -41.0645 C 18.1641 -40.0391 19.7266 -40.0879 20.7031 -41.1621 C 29.2969 -50.2441 39.9414 -56.0547 51.8066 -58.3984 L 51.6113 -73.3398 C 34.8145 -70.4102 19.5801 -61.7676 10.498 -50.7812 C 9.76562 -49.9023 9.76562 -48.6816 10.6445 -47.7539 Z M 108.057 -41.1133 C 108.984 -40.1367 110.498 -40.1367 111.523 -41.2109 L 117.969 -47.7539 C 118.896 -48.6816 118.896 -49.9023 118.164 -50.7812 C 108.984 -61.6699 93.7988 -70.3613 77.0508 -73.291 L 76.9043 -58.3496 C 88.7695 -56.0059 99.3164 -50.0488 108.057 -41.1133 Z M 36.6699 -21.5332 C 37.793 -20.4102 39.2578 -20.5078 40.2832 -21.7285 C 43.457 -25.1465 47.7051 -28.0273 52.3926 -29.7852 L 51.9531 -45.4102 C 42.4805 -43.0664 34.375 -37.9883 29.1992 -31.8359 C 28.3691 -30.8594 28.4668 -29.6875 29.3457 -28.8086 Z M 88.5254 -21.5332 C 89.5508 -20.459 90.8691 -20.5078 91.9922 -21.582 L 99.2676 -28.8086 C 100.195 -29.6875 100.293 -30.8594 99.4629 -31.8359 C 94.2871 -37.9395 86.1816 -43.0176 76.709 -45.4102 L 76.3184 -29.6875 C 81.0547 -27.8809 85.3516 -24.9512 88.5254 -21.5332 Z M 64.3555 6.25 C 69.043 6.25 72.8516 2.53906 72.8516 -2.09961 C 72.8516 -6.73828 69.043 -10.4492 64.3555 -10.4492 C 59.668 -10.4492 55.8105 -6.73828 55.8105 -2.09961 C 55.8105 2.53906 59.668 6.25 64.3555 6.25 Z"/>
  </g>
  <g id="Regular-M" transform="matrix(1 0 0 1 1385.86 1126)">
   <path d="M 64.0625 -18.1641 C 66.6016 -18.1641 68.4082 -19.873 68.457 -22.5586 C 68.6035 -40.5273 68.75 -58.5938 68.8965 -76.6113 C 68.8965 -79.3945 66.6504 -81.2988 64.0137 -81.2988 C 61.377 -81.2988 59.1309 -79.3945 59.1309 -76.6113 C 59.3262 -58.5938 59.4727 -40.5273 59.668 -22.5586 C 59.7168 -19.873 61.4746 -18.1641 64.0625 -18.1641 Z M 17.041 -41.3574 C 17.9199 -40.4297 19.2871 -40.4785 20.166 -41.4062 C 29.1992 -50.9766 40.4785 -56.9824 53.0762 -59.1309 L 52.8809 -73.3398 C 35.498 -70.6055 19.7754 -61.7188 10.4492 -50.6348 C 9.76562 -49.8535 9.76562 -48.7793 10.5957 -47.9492 Z M 107.91 -41.3574 C 108.74 -40.5273 110.059 -40.5273 110.986 -41.5039 L 117.383 -47.9492 C 118.213 -48.7793 118.213 -49.8535 117.578 -50.6348 C 108.252 -61.7188 92.5293 -70.6055 75.0977 -73.291 L 74.9512 -59.082 C 87.5488 -56.8359 98.7305 -50.7324 107.91 -41.3574 Z M 36.5723 -21.7773 C 37.5488 -20.752 38.8184 -20.8496 39.7461 -21.9238 C 43.2129 -25.7812 48.0469 -28.9062 53.3691 -30.7617 L 53.1738 -45.5566 C 43.1152 -43.3105 34.5215 -37.9883 29.1016 -31.6406 C 28.418 -30.8105 28.4668 -29.834 29.2969 -29.0039 Z M 88.3789 -21.7773 C 89.3066 -20.8008 90.4297 -20.8496 91.5039 -21.875 L 98.7305 -29.0039 C 99.5117 -29.7852 99.5605 -30.8105 98.877 -31.6406 C 93.5059 -37.9883 84.9121 -43.3105 74.8535 -45.5566 L 74.707 -30.6641 C 80.0781 -28.7598 84.8633 -25.5859 88.3789 -21.7773 Z M 64.0137 5.37109 C 68.1152 5.37109 71.4355 2.00195 71.4355 -2.09961 C 71.4355 -6.25 68.1152 -9.52148 64.0137 -9.52148 C 59.9121 -9.52148 56.543 -6.25 56.543 -2.09961 C 56.543 2.00195 59.9121 5.37109 64.0137 5.37109 Z"/>
  </g>
  <g id="Light-M" transform="matrix(1 0 0 1 1089.66 1126)">
   <path d="M 63.5254 -16.8457 C 65.4785 -16.8457 66.8457 -18.1641 66.8945 -20.2148 L 67.1875 -77.6855 C 67.1875 -79.834 65.5273 -81.25 63.4766 -81.25 C 61.4258 -81.25 59.7656 -79.834 59.7656 -77.6855 C 59.9121 -58.5449 60.0098 -39.3555 60.1562 -20.2148 C 60.1562 -18.1641 61.5234 -16.8457 63.5254 -16.8457 Z M 16.6504 -41.8457 C 17.4805 -40.9668 18.7012 -41.0156 19.5312 -41.8945 C 28.7598 -51.6602 40.4785 -57.7637 53.6621 -59.7656 L 53.5645 -73.0957 C 35.9863 -70.6055 19.7754 -61.8652 10.4004 -50.5859 C 9.76562 -49.8047 9.81445 -48.8281 10.5469 -48.0469 Z M 107.52 -41.8457 C 108.301 -41.0645 109.473 -41.0645 110.4 -42.041 L 116.406 -48.0469 C 117.188 -48.8281 117.188 -49.8047 116.553 -50.5859 C 107.178 -61.8164 90.9668 -70.6055 73.3887 -73.0469 L 73.291 -59.7168 C 86.4258 -57.7148 98.2422 -51.5625 107.52 -41.8457 Z M 36.1816 -22.2168 C 37.0605 -21.3379 38.1836 -21.4355 39.0625 -22.4121 C 42.8223 -26.5137 48.0957 -29.7852 53.8574 -31.543 L 53.7598 -45.3613 C 43.457 -43.2617 34.5215 -38.0371 29.0527 -31.543 C 28.4668 -30.8105 28.5156 -29.8828 29.248 -29.1504 Z M 87.9395 -22.3145 C 88.8184 -21.3867 89.8926 -21.4355 90.918 -22.4121 L 97.7051 -29.1504 C 98.4375 -29.834 98.4863 -30.8105 97.9004 -31.543 C 92.4805 -38.0859 83.4961 -43.3105 73.2422 -45.3613 L 73.1445 -31.4941 C 78.9062 -29.6875 84.1797 -26.3672 87.9395 -22.3145 Z M 63.4766 4.15039 C 67.1875 4.15039 70.166 1.12305 70.166 -2.53906 C 70.166 -6.25 67.1875 -9.27734 63.4766 -9.27734 C 59.8145 -9.27734 56.7383 -6.29883 56.7383 -2.53906 C 56.7383 1.12305 59.8145 4.15039 63.4766 4.15039 Z"/>
  </g>
  <g id="Thin-M" transform="matrix(1 0 0 1 793.629 1126)">
   <path d="M 62.793 -15.1367 C 63.9648 -15.1367 64.7949 -15.918 64.7949 -17.1875 C 64.8438 -37.793 64.8438 -58.4961 64.8926 -79.1016 C 64.8926 -80.3711 64.0137 -81.1523 62.793 -81.1523 C 61.5234 -81.1523 60.6445 -80.3711 60.6445 -79.1016 C 60.6934 -58.4961 60.7422 -37.793 60.791 -17.1875 C 60.791 -15.918 61.5723 -15.1367 62.793 -15.1367 Z M 16.1621 -42.4805 C 16.8457 -41.748 17.9199 -41.748 18.6035 -42.5781 C 28.1738 -52.5879 40.5762 -58.8379 54.4922 -60.5469 L 54.4434 -72.7051 C 36.6699 -70.6055 19.8242 -62.0605 10.3516 -50.4883 C 9.76562 -49.8047 9.86328 -48.877 10.4492 -48.1934 Z M 106.982 -42.5293 C 107.666 -41.7969 108.691 -41.7969 109.619 -42.7246 L 115.088 -48.1934 C 115.771 -48.877 115.771 -49.8047 115.186 -50.4883 C 105.762 -62.0117 88.916 -70.6055 71.1426 -72.7051 L 71.0938 -60.5469 C 85.0098 -58.8379 97.5586 -52.6855 106.982 -42.5293 Z M 35.6445 -22.8516 C 36.4258 -22.1191 37.3535 -22.168 38.1836 -23.0469 C 42.334 -27.4902 48.1934 -30.9082 54.541 -32.6172 L 54.4922 -45.0684 C 43.9453 -43.2617 34.5215 -38.1348 29.0039 -31.4453 C 28.4668 -30.7617 28.5156 -29.9316 29.1504 -29.2969 Z M 87.4023 -23.0469 C 88.2324 -22.1191 89.1113 -22.168 90.1367 -23.0957 L 96.4355 -29.2969 C 97.0215 -29.9316 97.0703 -30.7617 96.5332 -31.4453 C 91.0645 -38.1836 81.5918 -43.3105 71.0938 -45.0684 L 71.0449 -32.5684 C 77.3926 -30.9082 83.252 -27.4414 87.4023 -23.0469 Z M 62.793 2.63672 C 65.918 2.63672 68.5547 0 68.5547 -3.125 C 68.5547 -6.25 65.918 -8.88672 62.793 -8.88672 C 59.668 -8.88672 57.0312 -6.29883 57.0312 -3.125 C 57.0312 0 59.668 2.63672 62.793 2.63672 Z"/>
  </g>
  <g id="Ultralight-M" transform="matrix(1 0 0 1 497.284 1126)">
   <path d="M 62.4023 -14.2578 C 63.1836 -14.2578 63.7207 -14.7949 63.7207 -15.625 L 63.7207 -79.834 C 63.7207 -80.6641 63.2812 -81.1523 62.4023 -81.1523 C 61.5723 -81.1523 61.1328 -80.6641 61.1328 -79.834 C 61.1328 -58.4473 61.1328 -37.0117 61.1328 -15.625 C 61.1328 -14.7949 61.5723 -14.2578 62.4023 -14.2578 Z M 106.689 -42.8711 C 107.373 -42.1387 108.301 -42.1387 109.229 -43.0664 L 114.453 -48.291 C 115.039 -48.9258 115.039 -49.8047 114.502 -50.4883 C 105.029 -62.0605 87.8418 -70.6055 69.9707 -72.5098 L 69.9707 -60.9863 C 84.2773 -59.4238 97.2168 -53.2715 106.689 -42.8711 Z M 15.8691 -42.8223 C 16.5527 -42.1387 17.4805 -42.1387 18.1641 -42.8711 C 27.8809 -53.0762 40.5762 -59.375 54.8828 -60.9863 L 54.8828 -72.5098 C 37.0117 -70.6055 19.8242 -62.1094 10.3516 -50.4883 C 9.81445 -49.8047 9.86328 -48.9258 10.4004 -48.291 Z M 35.4004 -23.1934 C 36.1328 -22.5098 36.9141 -22.5098 37.7441 -23.3887 C 42.041 -28.0273 48.2422 -31.4941 54.8828 -33.1055 L 54.8828 -44.9219 C 44.2383 -43.2129 34.5215 -38.1836 29.0039 -31.3965 C 28.4668 -30.7617 28.5645 -29.9805 29.1016 -29.3945 Z M 87.1094 -23.3887 C 87.9395 -22.5098 88.7207 -22.5098 89.6973 -23.4375 L 95.752 -29.3945 C 96.2891 -29.9805 96.3867 -30.7617 95.8496 -31.3965 C 90.3809 -38.2324 80.6152 -43.3105 69.9707 -44.9219 L 69.9707 -33.1055 C 76.6113 -31.4941 82.8125 -28.0273 87.1094 -23.3887 Z M 62.4023 1.80664 C 65.2832 1.80664 67.6758 -0.585938 67.6758 -3.41797 C 67.6758 -6.29883 65.2832 -8.69141 62.4023 -8.69141 C 59.5703 -8.69141 57.1777 -6.34766 57.1777 -3.41797 C 57.1777 -0.585938 59.5703 1.80664 62.4023 1.80664 Z"/>
  </g>
  <g id="Black-S" transform="matrix(1 0 0 1 2881.84 696)">
   <path d="M 51.5625 -23.7305 C 57.2754 -23.7305 60.1074 -27.0508 60.3516 -32.9102 C 60.5469 -38.3789 61.4746 -58.4473 61.4746 -61.7676 C 61.4746 -67.0898 57.9102 -71.6797 51.6113 -71.6797 C 45.3125 -71.6797 41.6504 -67.0898 41.6504 -61.7676 C 41.6504 -58.4961 42.5781 -38.3789 42.7734 -32.9102 C 43.0176 -27.0508 45.8008 -23.7305 51.5625 -23.7305 Z M 13.916 -38.916 C 15.0879 -37.6953 16.9922 -37.7441 18.1152 -39.0137 C 23.3398 -44.4824 29.4434 -48.4375 36.1816 -50.8301 L 36.1328 -65.0879 C 24.9512 -62.1582 14.7949 -56.1035 8.44727 -47.998 C 7.56836 -46.875 7.61719 -45.4102 8.64258 -44.3359 Z M 85.1074 -38.916 C 86.1816 -37.7441 88.0859 -37.8418 89.209 -39.0137 L 94.4824 -44.3359 C 95.5078 -45.4102 95.6055 -46.9238 94.6777 -47.998 C 87.9883 -55.7617 78.0273 -61.8652 67.041 -64.9414 L 66.9434 -50.8789 C 73.8281 -48.5352 79.9316 -44.5801 85.1074 -38.916 Z M 29.1992 -23.6328 C 30.4688 -22.4121 32.2754 -22.4609 33.4961 -23.8281 C 34.7656 -25.2441 36.1816 -26.5137 37.7441 -27.5391 L 36.5234 -42.7734 C 31.1035 -40.625 26.416 -37.3047 23.0957 -33.1543 C 22.168 -31.9824 22.2168 -30.5176 23.291 -29.4922 Z M 69.8242 -23.6328 C 70.9961 -22.3633 72.7051 -22.4121 73.9258 -23.6328 L 79.834 -29.4922 C 80.9082 -30.5176 81.0059 -32.0312 80.0293 -33.1543 C 76.5625 -37.1094 71.9238 -40.4297 66.6016 -42.627 L 65.3809 -27.4902 C 66.9922 -26.3672 68.5059 -25.0977 69.8242 -23.6328 Z M 51.6113 0.488281 C 57.2754 0.488281 61.9629 -3.80859 61.9629 -9.27734 C 61.9629 -14.6973 57.2754 -18.9941 51.6113 -18.9941 C 45.8496 -18.9941 41.2109 -14.6973 41.2109 -9.27734 C 41.2109 -3.80859 45.8496 0.488281 51.6113 0.488281 Z"/>
  </g>
  <g id="Heavy-S" transform="matrix(1 0 0 1 2585.39 696)">
   <path d="M 51.2695 -23.4375 C 56.2012 -23.4375 58.7402 -26.3184 58.9355 -31.3965 C 59.1309 -38.7695 59.8633 -57.2754 59.9121 -63.0371 C 59.9121 -67.6758 56.6895 -71.582 51.3184 -71.582 C 45.9473 -71.582 42.6758 -67.6758 42.6758 -63.0371 C 42.7246 -57.3242 43.457 -38.7695 43.6523 -31.3965 C 43.8477 -26.3184 46.3379 -23.4375 51.2695 -23.4375 Z M 13.8184 -39.1113 C 14.8926 -37.9883 16.6016 -38.0371 17.627 -39.209 C 23.2422 -45.1172 29.9805 -49.2676 37.3535 -51.5137 L 37.3047 -65.1367 C 25.5371 -62.3535 14.9414 -56.0547 8.39844 -47.8516 C 7.56836 -46.8262 7.61719 -45.5078 8.54492 -44.5312 Z M 85.0098 -39.1113 C 85.9863 -38.0859 87.6953 -38.1348 88.7207 -39.209 L 93.9941 -44.5312 C 94.9219 -45.5078 95.0195 -46.875 94.1895 -47.8516 C 87.3535 -55.8105 76.9043 -62.1094 65.2832 -64.9902 L 65.1855 -51.5137 C 72.7051 -49.3164 79.3945 -45.1172 85.0098 -39.1113 Z M 29.1016 -23.8281 C 30.2734 -22.7051 31.8848 -22.7539 33.0078 -24.0234 C 34.5703 -25.7812 36.5234 -27.2949 38.623 -28.4668 L 37.6465 -42.9199 C 31.6895 -40.8203 26.5625 -37.3047 23.0469 -33.0078 C 22.168 -31.9336 22.2168 -30.6152 23.1934 -29.6875 Z M 69.7266 -23.8281 C 70.8008 -22.6562 72.3145 -22.7051 73.4375 -23.8281 L 79.3457 -29.6875 C 80.3223 -30.6152 80.4199 -31.9824 79.541 -33.0078 C 75.8789 -37.1582 70.8008 -40.6738 64.8926 -42.8223 L 63.916 -28.3691 C 66.1133 -27.1484 68.1152 -25.6348 69.7266 -23.8281 Z M 51.3184 -0.292969 C 56.4453 -0.292969 60.6934 -4.24805 60.6934 -9.22852 C 60.6934 -14.1602 56.4453 -18.1152 51.3184 -18.1152 C 46.0938 -18.1152 41.8945 -14.1602 41.8945 -9.22852 C 41.8945 -4.24805 46.0938 -0.292969 51.3184 -0.292969 Z"/>
  </g>
  <g id="Bold-S" transform="matrix(1 0 0 1 2289 696)">
   <path d="M 50.9766 -23.0957 C 54.9805 -23.0957 57.2266 -25.5371 57.373 -29.6387 C 57.5195 -39.1602 58.0566 -56.0059 58.1543 -64.4531 C 58.1543 -68.3594 55.3223 -71.4844 50.9766 -71.4844 C 46.6797 -71.4844 43.7988 -68.3594 43.7988 -64.4531 C 43.8965 -56.0059 44.4336 -39.1602 44.6289 -29.6387 C 44.7754 -25.5371 46.9727 -23.0957 50.9766 -23.0957 Z M 13.7207 -39.3555 C 14.6973 -38.3301 16.2109 -38.3789 17.1387 -39.4043 C 23.1934 -45.8496 30.5664 -50.1465 38.7207 -52.2461 L 38.623 -65.1855 C 26.2695 -62.5488 15.1367 -56.0059 8.30078 -47.6562 C 7.61719 -46.7773 7.61719 -45.6055 8.49609 -44.7266 Z M 84.9121 -39.3555 C 85.791 -38.4277 87.3047 -38.4766 88.2324 -39.4531 L 93.457 -44.7266 C 94.3359 -45.6055 94.3848 -46.7773 93.6523 -47.6562 C 86.6699 -55.8594 75.6348 -62.4023 63.3789 -65.0879 L 63.2324 -52.2461 C 71.4844 -50.1465 78.7598 -45.752 84.9121 -39.3555 Z M 29.0039 -24.0234 C 30.0781 -22.998 31.4941 -23.0957 32.4707 -24.2188 C 34.4238 -26.3672 36.8652 -28.1738 39.6484 -29.4434 L 38.9648 -43.1152 C 32.3242 -41.0645 26.709 -37.3535 22.9492 -32.8125 C 22.2168 -31.8848 22.2656 -30.7617 23.1445 -29.8828 Z M 69.6289 -24.0234 C 70.6055 -22.998 71.9238 -23.0469 72.9492 -24.0723 L 78.8086 -29.8828 C 79.6875 -30.7129 79.7852 -31.8848 79.0039 -32.8125 C 75.1465 -37.2559 69.5801 -41.0156 63.0371 -43.0176 L 62.3535 -29.3945 C 65.1367 -28.0273 67.6758 -26.1719 69.6289 -24.0234 Z M 50.9766 -1.17188 C 55.5664 -1.17188 59.2773 -4.73633 59.2773 -9.17969 C 59.2773 -13.623 55.5664 -17.1387 50.9766 -17.1387 C 46.4355 -17.1387 42.7246 -13.623 42.7246 -9.17969 C 42.7246 -4.73633 46.4355 -1.17188 50.9766 -1.17188 Z"/>
  </g>
  <g id="Semibold-S" transform="matrix(1 0 0 1 1992.49 696)">
   <path d="M 50.7812 -22.9004 C 54.1992 -22.9004 56.1523 -24.9512 56.2988 -28.4668 C 56.4453 -39.4531 56.8359 -55.127 56.9336 -65.4297 C 56.9336 -68.8477 54.3945 -71.4355 50.7812 -71.4355 C 47.168 -71.4355 44.6289 -68.8477 44.6289 -65.4297 C 44.7266 -55.127 45.1172 -39.4531 45.3125 -28.4668 C 45.4102 -24.9512 47.4121 -22.9004 50.7812 -22.9004 Z M 13.6719 -39.502 C 14.5508 -38.5742 15.918 -38.623 16.748 -39.5508 C 23.1445 -46.3379 30.957 -50.7812 39.6484 -52.7832 L 39.502 -65.1855 C 26.709 -62.6953 15.2344 -56.0059 8.25195 -47.5098 C 7.61719 -46.7285 7.66602 -45.7031 8.44727 -44.873 Z M 84.8633 -39.502 C 85.6445 -38.6719 87.0117 -38.7207 87.8906 -39.5996 L 93.1152 -44.873 C 93.8965 -45.7031 93.8965 -46.7773 93.2617 -47.5098 C 86.1816 -55.8594 74.7559 -62.5977 62.0117 -65.1367 L 61.9141 -52.7344 C 70.6055 -50.7324 78.3203 -46.1914 84.8633 -39.502 Z M 28.9551 -24.1699 C 29.9316 -23.2422 31.2012 -23.3398 32.1289 -24.3652 C 34.2773 -26.7578 37.1582 -28.8086 40.332 -30.1758 L 39.8438 -43.2129 C 32.8125 -41.2598 26.8555 -37.3535 22.9004 -32.666 C 22.2168 -31.8359 22.2656 -30.8105 23.0957 -30.0293 Z M 69.5801 -24.1699 C 70.459 -23.2422 71.6309 -23.291 72.6074 -24.2188 L 78.4668 -30.0293 C 79.248 -30.8105 79.2969 -31.8848 78.6133 -32.666 C 74.6582 -37.3047 68.7012 -41.2109 61.7188 -43.1641 L 61.2305 -30.0781 C 64.4531 -28.6621 67.3828 -26.5625 69.5801 -24.1699 Z M 50.7812 -1.80664 C 54.9316 -1.80664 58.3008 -5.07812 58.3008 -9.13086 C 58.3008 -13.1836 54.9316 -16.4551 50.7812 -16.4551 C 46.6309 -16.4551 43.2617 -13.1836 43.2617 -9.13086 C 43.2617 -5.07812 46.6309 -1.80664 50.7812 -1.80664 Z"/>
  </g>
  <g id="Medium-S" transform="matrix(1 0 0 1 1695.95 696)">
   <path d="M 50.6348 -22.7051 C 53.5645 -22.7051 55.3711 -24.5605 55.4688 -27.5879 C 55.6152 -39.6484 55.9082 -54.4434 56.0059 -66.1621 C 56.0059 -69.1895 53.6621 -71.3867 50.6348 -71.3867 C 47.5586 -71.3867 45.2148 -69.1895 45.2148 -66.1621 C 45.3613 -54.4434 45.6543 -39.6484 45.8496 -27.5879 C 45.8984 -24.5605 47.7051 -22.7051 50.6348 -22.7051 Z M 13.623 -39.5996 C 14.4043 -38.7695 15.7227 -38.8184 16.5039 -39.6973 C 23.0957 -46.7285 31.2988 -51.2695 40.3809 -53.1738 L 40.2344 -65.2344 C 27.0996 -62.793 15.332 -55.957 8.25195 -47.4121 C 7.66602 -46.7285 7.66602 -45.752 8.39844 -44.9707 Z M 84.8145 -39.5996 C 85.5469 -38.8672 86.8164 -38.8672 87.5977 -39.7461 L 92.8223 -44.9707 C 93.5547 -45.752 93.6035 -46.7285 92.9688 -47.4121 C 85.791 -55.9082 74.1211 -62.7441 60.9863 -65.1367 L 60.8887 -53.125 C 69.9707 -51.1719 78.0273 -46.5332 84.8145 -39.5996 Z M 28.9062 -24.3164 C 29.7852 -23.3887 31.0059 -23.4863 31.8359 -24.4629 C 34.1797 -27.0508 37.3535 -29.248 40.8691 -30.6641 L 40.5273 -43.3105 C 33.1543 -41.4062 26.9531 -37.3535 22.9004 -32.5684 C 22.2656 -31.8359 22.3145 -30.9082 23.0469 -30.127 Z M 69.5312 -24.3164 C 70.3125 -23.4375 71.4355 -23.4863 72.3145 -24.3652 L 78.1738 -30.127 C 78.9062 -30.8594 79.0039 -31.8359 78.3203 -32.5684 C 74.2676 -37.3047 68.0664 -41.3574 60.7422 -43.2617 L 60.4004 -30.6152 C 63.9648 -29.1016 67.1387 -26.9043 69.5312 -24.3164 Z M 50.6348 -2.24609 C 54.4434 -2.24609 57.5684 -5.32227 57.5684 -9.08203 C 57.5684 -12.8906 54.4434 -15.918 50.6348 -15.918 C 46.7773 -15.918 43.6523 -12.8906 43.6523 -9.08203 C 43.6523 -5.32227 46.7773 -2.24609 50.6348 -2.24609 Z"/>
  </g>
  <g id="Regular-S" transform="matrix(1 0 0 1 1399.43 696)">
   <path d="M 50.4395 -22.5098 C 52.7344 -22.5098 54.3457 -24.0234 54.3945 -26.416 C 54.541 -39.9414 54.6875 -53.5645 54.7852 -67.0898 C 54.7852 -69.6289 52.7344 -71.3379 50.3906 -71.3379 C 48.0469 -71.3379 45.9961 -69.6289 45.9961 -67.0898 C 46.1914 -53.5645 46.3379 -39.9414 46.4844 -26.416 C 46.5332 -24.0234 48.1445 -22.5098 50.4395 -22.5098 Z M 13.5742 -39.7949 C 14.2578 -39.0137 15.4297 -39.0625 16.1621 -39.8438 C 23.0957 -47.2168 31.6895 -51.9043 41.3086 -53.6621 L 41.1133 -65.2344 C 27.5879 -62.9395 15.4785 -55.9082 8.20312 -47.3145 C 7.66602 -46.6797 7.66602 -45.8008 8.34961 -45.1172 Z M 84.7656 -39.7949 C 85.4004 -39.1113 86.5234 -39.1113 87.2559 -39.8926 L 92.4805 -45.1172 C 93.1641 -45.8008 93.1641 -46.6797 92.627 -47.3145 C 85.3516 -55.9082 73.2422 -62.9395 59.668 -65.1855 L 59.5703 -53.6133 C 69.0918 -51.7578 77.5879 -46.9727 84.7656 -39.7949 Z M 28.8574 -24.4629 C 29.6387 -23.6328 30.7129 -23.7305 31.4941 -24.6094 C 34.082 -27.4414 37.5977 -29.8828 41.6016 -31.3477 L 41.4062 -43.4082 C 33.5938 -41.5527 27.0508 -37.3535 22.8516 -32.4707 C 22.2656 -31.7871 22.3145 -30.957 22.998 -30.2734 Z M 69.4824 -24.4629 C 70.166 -23.6816 71.1426 -23.7305 71.9727 -24.5117 L 77.832 -30.2734 C 78.5156 -30.9082 78.5645 -31.7871 77.9785 -32.4707 C 73.7793 -37.3535 67.1875 -41.5527 59.4727 -43.4082 L 59.3262 -31.2988 C 63.2812 -29.7363 66.8457 -27.2949 69.4824 -24.4629 Z M 50.3906 -2.88086 C 53.8574 -2.88086 56.5918 -5.66406 56.5918 -9.0332 C 56.5918 -12.5 53.8574 -15.2344 50.3906 -15.2344 C 47.0215 -15.2344 44.2383 -12.5 44.2383 -9.0332 C 44.2383 -5.66406 47.0215 -2.88086 50.3906 -2.88086 Z"/>
  </g>
  <g id="Light-S" transform="matrix(1 0 0 1 1103.18 696)">
   <path d="M 49.9512 -21.3379 C 51.7578 -21.3379 52.9785 -22.5098 53.0273 -24.3652 C 53.0762 -38.916 53.1738 -53.5156 53.2715 -68.0664 C 53.2715 -70.0195 51.7578 -71.2891 49.9512 -71.2891 C 48.0957 -71.2891 46.582 -70.0195 46.582 -68.0664 C 46.7285 -53.5156 46.8262 -38.916 46.9238 -24.3652 C 46.9727 -22.5098 48.1934 -21.3379 49.9512 -21.3379 Z M 13.2324 -40.2344 C 13.8672 -39.502 14.8926 -39.5508 15.5762 -40.2832 C 22.7051 -47.8516 31.7383 -52.5879 41.8457 -54.1992 L 41.6992 -64.9902 C 28.0273 -62.9395 15.4785 -56.0547 8.1543 -47.2656 C 7.66602 -46.6797 7.66602 -45.8496 8.30078 -45.2148 Z M 84.375 -40.2344 C 85.0098 -39.5996 85.9863 -39.5996 86.7188 -40.332 L 91.6016 -45.2148 C 92.1875 -45.8496 92.1875 -46.6797 91.6992 -47.2656 C 84.375 -56.0059 71.875 -62.9395 58.1543 -64.9414 L 58.0566 -54.1504 C 68.1641 -52.4902 77.1484 -47.7051 84.375 -40.2344 Z M 28.5156 -24.8535 C 29.248 -24.1211 30.1758 -24.2188 30.9082 -25 C 33.7402 -28.125 37.6465 -30.6152 42.041 -32.0801 L 41.8945 -43.2129 C 33.9355 -41.5527 27.0508 -37.4023 22.8027 -32.373 C 22.2656 -31.7871 22.3145 -31.0059 22.9492 -30.4199 Z M 69.0918 -24.9023 C 69.7754 -24.1699 70.6543 -24.2188 71.4355 -24.9512 L 76.9531 -30.4199 C 77.5391 -30.957 77.5879 -31.7871 77.0996 -32.373 C 72.8516 -37.4512 65.9668 -41.5527 58.0078 -43.2129 L 57.9102 -31.9824 C 62.2559 -30.5176 66.2109 -27.9785 69.0918 -24.9023 Z M 49.9512 -3.90625 C 53.0273 -3.90625 55.4688 -6.39648 55.4688 -9.47266 C 55.4688 -12.5 53.0273 -14.9902 49.9512 -14.9902 C 46.9238 -14.9902 44.3848 -12.5488 44.3848 -9.47266 C 44.3848 -6.39648 46.9238 -3.90625 49.9512 -3.90625 Z"/>
  </g>
  <g id="Thin-S" transform="matrix(1 0 0 1 807.081 696)">
   <path d="M 49.3164 -19.8242 C 50.3906 -19.8242 51.1719 -20.5566 51.1719 -21.6797 L 51.2695 -69.3359 C 51.2695 -70.5078 50.4395 -71.2402 49.3164 -71.2402 C 48.1934 -71.2402 47.3633 -70.5078 47.3633 -69.3359 C 47.4121 -53.4668 47.4609 -37.5488 47.5098 -21.6797 C 47.5098 -20.5566 48.2422 -19.8242 49.3164 -19.8242 Z M 12.7441 -40.7715 C 13.3301 -40.1855 14.1602 -40.1855 14.7461 -40.8203 C 22.2168 -48.6328 31.7871 -53.5156 42.5293 -54.9316 L 42.4805 -64.6484 C 28.6133 -62.9395 15.5273 -56.2012 8.1543 -47.2168 C 7.66602 -46.6309 7.71484 -45.8984 8.20312 -45.3613 Z M 83.8867 -40.8203 C 84.4727 -40.2344 85.3027 -40.2344 86.0352 -40.9668 L 90.4297 -45.3613 C 90.9668 -45.8984 90.9668 -46.6309 90.5273 -47.2168 C 83.1055 -56.1523 70.0684 -62.9395 56.1523 -64.6484 L 56.1035 -54.8828 C 66.8945 -53.5156 76.5625 -48.6816 83.8867 -40.8203 Z M 28.0273 -25.4395 C 28.6621 -24.8047 29.4434 -24.8535 30.0781 -25.5859 C 33.252 -29.0039 37.7441 -31.6406 42.627 -32.959 L 42.5781 -42.9688 C 34.375 -41.5039 27.0508 -37.5 22.7539 -32.2754 C 22.3145 -31.7383 22.3633 -31.0547 22.8516 -30.5664 Z M 68.6035 -25.5371 C 69.2383 -24.8047 69.9707 -24.8535 70.752 -25.5859 L 75.7812 -30.5664 C 76.2695 -31.0547 76.3184 -31.7383 75.8789 -32.2754 C 71.6309 -37.5488 64.3066 -41.5527 56.1035 -42.9688 L 56.0547 -32.959 C 60.9375 -31.5918 65.4297 -28.9551 68.6035 -25.5371 Z M 49.3164 -5.27344 C 51.9043 -5.27344 54.0039 -7.42188 54.0039 -9.96094 C 54.0039 -12.5488 51.9043 -14.6484 49.3164 -14.6484 C 46.7773 -14.6484 44.6289 -12.5488 44.6289 -9.96094 C 44.6289 -7.42188 46.7773 -5.27344 49.3164 -5.27344 Z"/>
  </g>
  <g id="Ultralight-S" transform="matrix(1 0 0 1 510.688 696)">
   <path d="M 49.0234 -19.043 C 49.707 -19.043 50.2441 -19.5312 50.2441 -20.2637 L 50.2441 -69.9707 C 50.2441 -70.752 49.7559 -71.1914 49.0234 -71.1914 C 48.2422 -71.1914 47.7539 -70.752 47.7539 -69.9707 C 47.8027 -53.418 47.8027 -36.8164 47.8027 -20.2637 C 47.8027 -19.5312 48.2422 -19.043 49.0234 -19.043 Z M 12.5 -41.1133 C 13.0859 -40.5273 13.8184 -40.5273 14.3555 -41.1621 C 21.9238 -49.0723 31.7871 -54.0039 42.9199 -55.2734 L 42.8711 -64.502 C 28.9062 -62.9395 15.5273 -56.2988 8.10547 -47.168 C 7.66602 -46.6309 7.71484 -45.9473 8.1543 -45.459 Z M 83.6426 -41.1621 C 84.2285 -40.5273 84.9609 -40.5273 85.6934 -41.3086 L 89.8438 -45.459 C 90.332 -45.9473 90.332 -46.6309 89.8926 -47.168 C 82.4707 -56.25 69.1406 -62.9395 55.127 -64.502 L 55.127 -55.2734 C 66.2109 -54.0527 76.2695 -49.2188 83.6426 -41.1621 Z M 27.7832 -25.7324 C 28.418 -25.1465 29.0527 -25.1465 29.6875 -25.8789 C 33.0078 -29.4434 37.793 -32.1777 42.9199 -33.4473 L 42.9199 -42.8711 C 34.5703 -41.5039 27.0508 -37.5488 22.7051 -32.2266 C 22.3145 -31.7383 22.3633 -31.1035 22.8027 -30.6641 Z M 68.3105 -25.8789 C 68.9941 -25.1465 69.6289 -25.1465 70.4102 -25.9277 L 75.1953 -30.6641 C 75.6348 -31.1035 75.6836 -31.7383 75.293 -32.2266 C 70.9961 -37.5977 63.4277 -41.5527 55.127 -42.8711 L 55.127 -33.4473 C 60.2539 -32.1289 64.9902 -29.4434 68.3105 -25.8789 Z M 49.0234 -6.00586 C 51.3184 -6.00586 53.2715 -7.95898 53.2715 -10.2539 C 53.2715 -12.5488 51.3184 -14.502 49.0234 -14.502 C 46.7285 -14.502 44.7754 -12.5977 44.7754 -10.2539 C 44.7754 -7.95898 46.7285 -6.00586 49.0234 -6.00586 Z"/>
  </g>
 </g>
</svg>
