<?xml version="1.0" encoding="UTF-8" standalone="no"?>
<!-- Created with Inkscape (http://www.inkscape.org/) -->

<svg
   xmlns:dc="http://purl.org/dc/elements/1.1/"
   xmlns:cc="http://creativecommons.org/ns#"
   xmlns:rdf="http://www.w3.org/1999/02/22-rdf-syntax-ns#"
   xmlns:svg="http://www.w3.org/2000/svg"
   xmlns="http://www.w3.org/2000/svg"
   xmlns:sodipodi="http://sodipodi.sourceforge.net/DTD/sodipodi-0.dtd"
   xmlns:inkscape="http://www.inkscape.org/namespaces/inkscape"
   width="32"
   height="32"
   viewBox="0 0 8.4666672 8.4666673"
   version="1.1"
   id="svg8"
   inkscape:version="0.92.2 (5c3e80d, 2017-08-06)"
   sodipodi:docname="CookBookLogoBlue.svg"
   inkscape:export-filename="C:\Users\diveb\LambdaSchool\Labs\Cookbook\Project\Labs8-Cookbook\cookbook\designs\Signup.png"
   inkscape:export-xdpi="100"
   inkscape:export-ydpi="100">
  <defs
     id="defs2">
    <clipPath
       clipPathUnits="userSpaceOnUse"
       id="clipPath4891">
      <rect
         style="opacity:1;fill:#ffffff;fill-opacity:1;stroke:#000000;stroke-width:0.26458335;stroke-linecap:round;stroke-linejoin:round;stroke-miterlimit:4;stroke-dasharray:none;stroke-dashoffset:0;stroke-opacity:1"
         id="rect4893"
         width="361.42084"
         height="26.659826"
         x="111.87903"
         y="92.67746"
         rx="0.2079649"
         ry="0.10135975" />
    </clipPath>
    <clipPath
       clipPathUnits="userSpaceOnUse"
       id="clipPath9582">
      <rect
         style="opacity:1;fill:#ffffff;fill-opacity:1;stroke:none;stroke-width:1.32291663;stroke-linecap:round;stroke-linejoin:round;stroke-miterlimit:4;stroke-dasharray:none;stroke-dashoffset:0;stroke-opacity:1"
         id="rect9584"
         width="40.691788"
         height="204.86209"
         x="-113.18864"
         y="-139.82961"
         rx="0.14210717"
         ry="0.079697266" />
    </clipPath>
    <clipPath
       clipPathUnits="userSpaceOnUse"
       id="clipPath9582-3">
      <rect
         style="opacity:1;fill:#ffffff;fill-opacity:1;stroke:none;stroke-width:1.32291663;stroke-linecap:round;stroke-linejoin:round;stroke-miterlimit:4;stroke-dasharray:none;stroke-dashoffset:0;stroke-opacity:1"
         id="rect9584-2"
         width="40.691788"
         height="204.86209"
         x="-113.18864"
         y="-139.82961"
         rx="0.14210717"
         ry="0.079697266" />
    </clipPath>
  </defs>
  <sodipodi:namedview
     id="base"
     pagecolor="#ffffff"
     bordercolor="#666666"
     borderopacity="1.0"
     inkscape:pageopacity="0.0"
     inkscape:pageshadow="2"
     inkscape:zoom="1"
     inkscape:cx="-301.92699"
     inkscape:cy="8.5354679"
     inkscape:document-units="px"
     inkscape:current-layer="layer1"
     showgrid="false"
     inkscape:window-width="2560"
     inkscape:window-height="1377"
     inkscape:window-x="2552"
     inkscape:window-y="-8"
     inkscape:window-maximized="1"
     units="px"
     inkscape:snap-global="true"
     inkscape:snap-page="true"
     fit-margin-top="0"
     fit-margin-left="0"
     fit-margin-right="0"
     fit-margin-bottom="0">
    <inkscape:grid
       type="xygrid"
       id="grid4618"
       originx="32.730435"
       originy="-232.43984" />
  </sodipodi:namedview>
  <metadata
     id="metadata5">
    <rdf:RDF>
      <cc:Work
         rdf:about="">
        <dc:format>image/svg+xml</dc:format>
        <dc:type
           rdf:resource="http://purl.org/dc/dcmitype/StillImage" />
        <dc:title />
      </cc:Work>
    </rdf:RDF>
  </metadata>
  <g
     inkscape:label="Layer 1"
     inkscape:groupmode="layer"
     id="layer1"
     transform="translate(32.730436,-56.093522)">
    <rect
       style="opacity:1;fill:#333d5a;fill-opacity:1;stroke:none;stroke-width:0.83953917;stroke-linecap:round;stroke-linejoin:round;stroke-miterlimit:4;stroke-dasharray:none;stroke-dashoffset:0;stroke-opacity:1"
       id="rect3004"
       width="8.4666672"
       height="6.4822922"
       x="-32.730434"
       y="57.085709"
       rx="0"
       ry="0" />
    <text
       xml:space="preserve"
       style="font-style:normal;font-variant:normal;font-weight:normal;font-stretch:normal;font-size:7.05555534px;line-height:1.25;font-family:Arial;-inkscape-font-specification:Arial;text-align:start;letter-spacing:1.32291675px;word-spacing:0px;writing-mode:lr-tb;text-anchor:start;fill:#000000;fill-opacity:1;stroke:none;stroke-width:0.26458335"
       x="7.2542925"
       y="30.663824"
       id="text4527"><tspan
         sodipodi:role="line"
         id="tspan4525"
         x="7.2542925"
         y="37.019146"
         style="stroke-width:0.26458335" /></text>
    <text
       xml:space="preserve"
       style="font-style:normal;font-variant:normal;font-weight:normal;font-stretch:normal;font-size:7.05555534px;line-height:1.25;font-family:Arial;-inkscape-font-specification:Arial;text-align:start;letter-spacing:1.32291675px;word-spacing:0px;writing-mode:lr-tb;text-anchor:start;fill:#000000;fill-opacity:1;stroke:none;stroke-width:0.26458335"
       x="10.451042"
       y="116.81874"
       id="text4659"><tspan
         sodipodi:role="line"
         id="tspan4657"
         x="10.451042"
         y="123.17406"
         style="stroke-width:0.26458335" /></text>
    <text
       xml:space="preserve"
       style="font-style:normal;font-variant:normal;font-weight:normal;font-stretch:normal;font-size:4.93888903px;line-height:1.25;font-family:'Arial Rounded MT Bold';-inkscape-font-specification:'Arial Rounded MT Bold, ';text-align:start;letter-spacing:0.26458335px;word-spacing:0px;writing-mode:lr-tb;text-anchor:start;fill:#b3b3b3;fill-opacity:1;stroke:none;stroke-width:0.26458335;stroke-miterlimit:4;stroke-dasharray:none"
       x="9.7005272"
       y="115.41142"
       id="text4567-3"><tspan
         sodipodi:role="line"
         id="tspan4565-1"
         x="9.7005272"
         y="119.86214"
         style="font-style:normal;font-variant:normal;font-weight:normal;font-stretch:normal;font-size:4.93888903px;font-family:'Arial Rounded MT Bold';-inkscape-font-specification:'Arial Rounded MT Bold, ';letter-spacing:0.26458335px;fill:#b3b3b3;stroke-width:0.26458335;stroke-miterlimit:4;stroke-dasharray:none" /></text>
    <g
       id="g5557"
       transform="matrix(0.48101017,0,0,0.48101017,-2.2472714,49.86301)"
       style="fill:#f6e9df;fill-opacity:1">
      <g
         id="g9765-8-8"
         style="display:inline;fill:#f6e9df;fill-opacity:1"
         transform="matrix(0.17722395,0,0,0.17722395,-93.089027,7.1907645)">
        <g
           id="g8370-6-4"
           transform="matrix(1.9427159,0,0,1.9427159,315.74713,-139.04393)"
           style="fill:#f6e9df;fill-opacity:1">
          <path
             id="path8354-1-2"
             d="m -47.485645,100.13694 c 0.419732,0.42846 0.754172,0.93158 0.98554,1.48168 h 14.417954 v 24.92074 H -47.20241 a 1.3844713,1.3844713 0 0 1 -0.291907,0.0357 1.3844713,1.3844713 0 0 1 -0.329476,-0.0357 h -1.079949 v -1.42773 c -0.01998,-0.67911 -0.384902,-1.2975 -0.975901,-1.63872 -0.159873,-0.0922 -0.329219,-0.15859 -0.502889,-0.20229 v 3.81786 c 0,0.45971 0.324051,0.70218 0.527937,0.80153 0.203879,0.0994 0.39313,0.12721 0.597291,0.12721 h 17.52871 c 0.204162,0 0.393417,-0.0278 0.597299,-0.12721 0.203879,-0.0994 0.531787,-0.34182 0.531787,-0.80153 v -26.02282 c 0,-0.45972 -0.327908,-0.69832 -0.531787,-0.79768 -0.203882,-0.0994 -0.393137,-0.13097 -0.597299,-0.13097 z m -2.896887,1.41136 v 8.26581 c 0.507397,0.0513 1.005364,0.18626 1.47879,0.40173 v -6.82651 c -0.01998,-0.67912 -0.384902,-1.29749 -0.975901,-1.63871 -0.159873,-0.0923 -0.329225,-0.15859 -0.502889,-0.20232 z m 0,11.06154 v 7.86601 c 0.507397,0.0512 1.005364,0.1853 1.47879,0.40075 v -6.42573 c -0.01998,-0.67912 -0.384902,-1.29749 -0.975901,-1.63873 -0.159873,-0.0922 -0.329219,-0.15859 -0.502889,-0.2023 z"
             style="color:#000000;font-style:normal;font-variant:normal;font-weight:normal;font-stretch:normal;font-size:medium;line-height:normal;font-family:sans-serif;font-variant-ligatures:normal;font-variant-position:normal;font-variant-caps:normal;font-variant-numeric:normal;font-variant-alternates:normal;font-feature-settings:normal;text-indent:0;text-align:start;text-decoration:none;text-decoration-line:none;text-decoration-style:solid;text-decoration-color:#000000;letter-spacing:normal;word-spacing:normal;text-transform:none;writing-mode:lr-tb;direction:ltr;text-orientation:mixed;dominant-baseline:auto;baseline-shift:baseline;text-anchor:start;white-space:normal;shape-padding:0;clip-rule:nonzero;display:inline;overflow:visible;visibility:visible;opacity:1;isolation:auto;mix-blend-mode:normal;color-interpolation:sRGB;color-interpolation-filters:linearRGB;solid-color:#000000;solid-opacity:1;vector-effect:none;fill:#f6e9df;fill-opacity:1;fill-rule:nonzero;stroke:none;stroke-width:1.47975266;stroke-linecap:round;stroke-linejoin:round;stroke-miterlimit:4;stroke-dasharray:none;stroke-dashoffset:0;stroke-opacity:1;color-rendering:auto;image-rendering:auto;shape-rendering:auto;text-rendering:auto;enable-background:accumulate"
             inkscape:connector-curvature="0" />
          <path
             style="color:#000000;font-style:normal;font-variant:normal;font-weight:normal;font-stretch:normal;font-size:medium;line-height:normal;font-family:sans-serif;font-variant-ligatures:normal;font-variant-position:normal;font-variant-caps:normal;font-variant-numeric:normal;font-variant-alternates:normal;font-feature-settings:normal;text-indent:0;text-align:start;text-decoration:none;text-decoration-line:none;text-decoration-style:solid;text-decoration-color:#000000;letter-spacing:normal;word-spacing:normal;text-transform:none;writing-mode:lr-tb;direction:ltr;text-orientation:mixed;dominant-baseline:auto;baseline-shift:baseline;text-anchor:start;white-space:normal;shape-padding:0;clip-rule:nonzero;display:inline;overflow:visible;visibility:visible;opacity:1;isolation:auto;mix-blend-mode:normal;color-interpolation:sRGB;color-interpolation-filters:linearRGB;solid-color:#000000;solid-opacity:1;vector-effect:none;fill:#f6e9df;fill-opacity:1;fill-rule:nonzero;stroke:none;stroke-width:10.86515522;stroke-linecap:round;stroke-linejoin:round;stroke-miterlimit:4;stroke-dasharray:none;stroke-dashoffset:0;stroke-opacity:1;color-rendering:auto;image-rendering:auto;shape-rendering:auto;text-rendering:auto;enable-background:accumulate"
             d="m 699.66992,263.02734 c -1.4991,0 -2.88777,0.234 -4.38476,0.96289 -1.497,0.72985 -3.87696,2.47996 -3.87696,5.85547 v 191.07422 c 0,3.37544 2.37996,5.15529 3.87696,5.88477 1.49699,0.72985 2.88566,0.93554 4.38476,0.93554 h 128.69922 c 1.49908,0 2.88776,-0.20562 4.38477,-0.93554 1.497,-0.72985 3.90429,-2.50933 3.90429,-5.88477 V 432.9082 c -1.23587,0.32161 -2.43862,0.8074 -3.57812,1.46485 -3.48861,2.01412 -5.91162,5.34212 -6.80664,9.16015 -0.0123,0.052 -0.0234,0.10403 -0.0352,0.15625 -0.10521,0.4725 -0.18866,0.95195 -0.24609,1.4375 -0.008,0.0669 -0.0145,0.13405 -0.0215,0.20117 -0.0516,0.49584 -0.084,0.99626 -0.084,1.50196 a 10.165547,10.165547 0 0 1 -0.10742,1.80273 v 0.0664 a 10.165547,10.165547 0 0 1 -6.89844,8.18945 h -0.125 a 10.165547,10.165547 0 0 1 -6.0625,0 h -0.0996 a 10.165547,10.165547 0 0 1 -7.02344,-10.05859 c 0,-12.38424 6.61873,-23.85679 17.34375,-30.04883 0.93484,-0.53974 1.89511,-1.0148 2.86524,-1.45898 v 0.0508 c 3.47953,-1.6009 7.14725,-2.6086 10.88086,-2.99805 l -0.002,-57.74414 c -1.23587,0.3216 -2.43862,0.80746 -3.57812,1.46484 -3.03922,1.75478 -5.27132,4.50688 -6.38867,7.71094 -0.16279,0.46681 -0.29778,0.94533 -0.41211,1.42969 -0.0149,0.0626 -0.0309,0.12462 -0.0449,0.1875 -0.10413,0.46921 -0.18517,0.94371 -0.24219,1.42578 -0.008,0.0669 -0.0145,0.13405 -0.0215,0.20117 -0.0516,0.49583 -0.084,0.99626 -0.084,1.50195 a 10.165547,10.165547 0 0 1 -0.10742,1.80469 v 0.0645 a 10.165547,10.165547 0 0 1 -20.20899,-1.86915 c 0,-12.38423 6.61873,-23.85678 17.34375,-30.04882 0.93488,-0.53974 1.89508,-1.01561 2.86524,-1.46094 v 0.0527 c 3.47956,-1.60097 7.14725,-2.61648 10.88086,-3.00586 l -0.002,-60.67773 c -1.23587,0.3216 -2.43866,0.80732 -3.57812,1.46484 -3.03813,1.75404 -5.27092,4.50446 -6.38867,7.70703 -2e-4,5.7e-4 2e-4,10e-4 0,0.002 -0.16305,0.46736 -0.29763,0.94472 -0.41211,1.42968 -0.0149,0.0626 -0.0309,0.12466 -0.0449,0.1875 -0.10416,0.46935 -0.18517,0.94553 -0.24219,1.42774 -0.008,0.0669 -0.0145,0.13403 -0.0215,0.20117 -0.0516,0.49556 -0.084,0.99459 -0.084,1.5 a 10.165547,10.165547 0 0 1 -0.10742,1.80469 v 0.0664 a 10.165547,10.165547 0 0 1 -20.20899,-1.87109 c 0,-6.81447 2.06095,-13.32308 5.65235,-18.86523 h -0.0586 c 1.26154,-1.94556 2.71394,-3.77172 4.34571,-5.43946 z m 61.83203,53.44922 c 7.65751,0 14.46963,1.52963 20.44922,4.58399 5.97976,3.05442 10.56067,6.83645 13.74414,11.35351 3.18345,4.47404 4.78125,8.71006 4.78125,12.71094 0,2.19388 -0.7775,4.12894 -2.32617,5.80664 -1.54873,1.67777 -3.42317,2.51953 -5.61719,2.51953 -2.45211,0 -4.29733,-0.57864 -5.54492,-1.74023 -1.20454,-1.16203 -2.56265,-3.16079 -4.06836,-6 -2.49514,-4.6891 -5.44325,-8.19455 -8.8418,-10.51758 -3.35555,-2.32318 -7.50194,-3.48828 -12.44921,-3.48828 -7.87263,0 -14.15462,2.99093 -18.84375,8.9707 -4.64613,5.9797 -6.96875,14.47317 -6.96875,25.48633 0,7.3562 1.03462,13.48639 3.09961,18.39062 2.06495,4.86114 4.98378,8.49912 8.76953,10.90821 3.7857,2.40909 8.22252,3.61523 13.29883,3.61523 5.50652,0 10.1498,-1.35815 13.93554,-4.06836 3.82874,-2.75323 6.70866,-6.77492 8.64453,-12.0664 0.81732,-2.49515 1.83061,-4.51374 3.03516,-6.0625 1.20454,-1.59165 3.13943,-2.39063 5.80664,-2.39063 2.28006,0 4.23633,0.79928 5.87109,2.39063 1.63474,1.59179 2.45508,3.56753 2.45508,5.93359 0,3.01147 -0.75216,6.28492 -2.25781,9.8125 -1.46256,3.48463 -3.78335,6.92174 -6.9668,10.32031 -3.18345,3.35547 -7.2539,6.0893 -12.20117,8.19727 -4.94725,2.1079 -10.70706,3.16211 -17.28906,3.16211 -4.99029,0 -9.5303,-0.47586 -13.61719,-1.42188 -4.08686,-0.94601 -7.81245,-2.40595 -11.16797,-4.38476 -3.31253,-2.02199 -6.36582,-4.66809 -9.16211,-7.9375 -2.49515,-2.96845 -4.62292,-6.28084 -6.38672,-9.9375 -1.76383,-3.69984 -3.1005,-7.64154 -4.0039,-11.81446 -0.86042,-4.17291 -1.28711,-8.60199 -1.28711,-13.29101 0,-7.61459 1.09503,-14.43423 3.28906,-20.45703 2.23703,-6.0228 5.41894,-11.16095 9.54883,-15.41993 4.1299,-4.30177 8.97388,-7.57349 14.52344,-9.81054 5.54957,-2.23706 11.46715,-3.35352 17.74804,-3.35352 z"
             transform="matrix(0.1361925,0,0,0.1361925,-165.29742,64.314551)"
             id="path8356-7-7"
             inkscape:connector-curvature="0" />
          <path
             style="color:#000000;font-style:normal;font-variant:normal;font-weight:normal;font-stretch:normal;font-size:medium;line-height:normal;font-family:sans-serif;font-variant-ligatures:normal;font-variant-position:normal;font-variant-caps:normal;font-variant-numeric:normal;font-variant-alternates:normal;font-feature-settings:normal;text-indent:0;text-align:start;text-decoration:none;text-decoration-line:none;text-decoration-style:solid;text-decoration-color:#000000;letter-spacing:normal;word-spacing:normal;text-transform:none;writing-mode:lr-tb;direction:ltr;text-orientation:mixed;dominant-baseline:auto;baseline-shift:baseline;text-anchor:start;white-space:normal;shape-padding:0;clip-rule:nonzero;display:inline;overflow:visible;visibility:visible;opacity:1;isolation:auto;mix-blend-mode:normal;color-interpolation:sRGB;color-interpolation-filters:linearRGB;solid-color:#000000;solid-opacity:1;vector-effect:none;fill:#f6e9df;fill-opacity:1;fill-rule:nonzero;stroke:none;stroke-width:1.10746622;stroke-linecap:round;stroke-linejoin:round;stroke-miterlimit:4;stroke-dasharray:none;stroke-dashoffset:0;stroke-opacity:1;color-rendering:auto;image-rendering:auto;shape-rendering:auto;text-rendering:auto;enable-background:accumulate"
             d="m -47.505859,104.00781 a 0.55378848,0.55378848 0 0 0 0.544921,-0.5625 c 10e-7,-1.39122 -0.744382,-2.67938 -1.949218,-3.375 -1.204837,-0.69561 -2.691648,-0.69561 -3.896485,0 -1.204836,0.69562 -1.947265,1.98378 -1.947265,3.375 a 0.55378848,0.55378848 0 1 0 1.107422,0 c 0,-0.99734 0.530808,-1.91734 1.394531,-2.41601 0.863723,-0.49867 1.925339,-0.49867 2.789062,0 0.863723,0.49867 1.394532,1.41867 1.394532,2.41601 a 0.55378848,0.55378848 0 0 0 0.5625,0.5625 z"
             id="path8360-6-2"
             inkscape:connector-curvature="0" />
          <g
             transform="matrix(1.8642551,0,0,1.8642551,44.676734,69.147517)"
             aria-label="B"
             style="font-style:normal;font-variant:normal;font-weight:normal;font-stretch:normal;font-size:9.45770359px;line-height:1.25;font-family:'Arial Rounded MT Bold';-inkscape-font-specification:'Arial Rounded MT Bold, ';text-align:start;letter-spacing:1.77331972px;word-spacing:0px;writing-mode:lr-tb;text-anchor:start;fill:#f6e9df;fill-opacity:1;stroke:none;stroke-width:0.35466391"
             id="g8364-4-0">
            <path
               inkscape:connector-curvature="0"
               d="m -45.19806,27.486 h -2.068873 q -0.447948,0 -0.641905,-0.198575 -0.189339,-0.203193 -0.189339,-0.641904 v -5.089058 q 0,-0.447948 0.193957,-0.641904 0.198575,-0.198575 0.637287,-0.198575 h 2.193559 q 0.484892,0 0.84048,0.06003 0.355587,0.06003 0.637286,0.230901 0.240137,0.143159 0.424858,0.364823 0.184721,0.217047 0.281699,0.484892 0.09698,0.263228 0.09698,0.558781 0,1.015964 -1.015965,1.487002 1.334608,0.424858 1.334608,1.653251 0,0.568016 -0.290935,1.0252 -0.290935,0.452566 -0.785064,0.669613 -0.309407,0.129305 -0.711175,0.184721 -0.401767,0.0508 -0.937457,0.0508 z m -0.101597,-3.006331 h -1.426968 v 1.976513 h 1.473148 q 1.390024,0 1.390024,-1.00211 0,-0.512601 -0.360205,-0.743502 -0.360206,-0.230901 -1.075999,-0.230901 z m -1.426968,-2.733867 v 1.750229 h 1.256101 q 0.512601,0 0.789682,-0.09698 0.281699,-0.09698 0.429476,-0.369442 0.11545,-0.193956 0.11545,-0.434093 0,-0.512601 -0.364824,-0.678849 -0.364823,-0.170867 -1.112942,-0.170867 z"
               style="font-style:normal;font-variant:normal;font-weight:normal;font-stretch:normal;font-family:'Arial Rounded MT Bold';-inkscape-font-specification:'Arial Rounded MT Bold, ';fill:#f6e9df;fill-opacity:1;stroke-width:0.35466391"
               id="path8362-8-7" />
          </g>
          <path
             style="color:#000000;font-style:normal;font-variant:normal;font-weight:normal;font-stretch:normal;font-size:medium;line-height:normal;font-family:sans-serif;font-variant-ligatures:normal;font-variant-position:normal;font-variant-caps:normal;font-variant-numeric:normal;font-variant-alternates:normal;font-feature-settings:normal;text-indent:0;text-align:start;text-decoration:none;text-decoration-line:none;text-decoration-style:solid;text-decoration-color:#000000;letter-spacing:normal;word-spacing:normal;text-transform:none;writing-mode:lr-tb;direction:ltr;text-orientation:mixed;dominant-baseline:auto;baseline-shift:baseline;text-anchor:start;white-space:normal;shape-padding:0;clip-rule:nonzero;display:inline;overflow:visible;visibility:visible;opacity:1;isolation:auto;mix-blend-mode:normal;color-interpolation:sRGB;color-interpolation-filters:linearRGB;solid-color:#000000;solid-opacity:1;vector-effect:none;fill:#f6e9df;fill-opacity:1;fill-rule:nonzero;stroke:none;stroke-width:1.10746622;stroke-linecap:round;stroke-linejoin:round;stroke-miterlimit:4;stroke-dasharray:none;stroke-dashoffset:0;stroke-opacity:1;color-rendering:auto;image-rendering:auto;shape-rendering:auto;text-rendering:auto;enable-background:accumulate"
             d="m -47.505859,115.07031 a 0.55378848,0.55378848 0 0 0 0.544921,-0.5625 c 10e-7,-1.39122 -0.744382,-2.67743 -1.949218,-3.37304 -1.204837,-0.69562 -2.691648,-0.69562 -3.896485,0 -1.204836,0.69561 -1.947265,1.98182 -1.947265,3.37304 a 0.55378848,0.55378848 0 1 0 1.107422,0 c 0,-0.99734 0.530808,-1.91539 1.394531,-2.41406 0.863723,-0.49867 1.925339,-0.49867 2.789062,0 0.863723,0.49867 1.394532,1.41672 1.394532,2.41406 a 0.55378848,0.55378848 0 0 0 0.5625,0.5625 z"
             id="path8366-0-7"
             inkscape:connector-curvature="0" />
          <path
             style="color:#000000;font-style:normal;font-variant:normal;font-weight:normal;font-stretch:normal;font-size:medium;line-height:normal;font-family:sans-serif;font-variant-ligatures:normal;font-variant-position:normal;font-variant-caps:normal;font-variant-numeric:normal;font-variant-alternates:normal;font-feature-settings:normal;text-indent:0;text-align:start;text-decoration:none;text-decoration-line:none;text-decoration-style:solid;text-decoration-color:#000000;letter-spacing:normal;word-spacing:normal;text-transform:none;writing-mode:lr-tb;direction:ltr;text-orientation:mixed;dominant-baseline:auto;baseline-shift:baseline;text-anchor:start;white-space:normal;shape-padding:0;clip-rule:nonzero;display:inline;overflow:visible;visibility:visible;opacity:1;isolation:auto;mix-blend-mode:normal;color-interpolation:sRGB;color-interpolation-filters:linearRGB;solid-color:#000000;solid-opacity:1;vector-effect:none;fill:#f6e9df;fill-opacity:1;fill-rule:nonzero;stroke:none;stroke-width:1.10746622;stroke-linecap:round;stroke-linejoin:round;stroke-miterlimit:4;stroke-dasharray:none;stroke-dashoffset:0;stroke-opacity:1;color-rendering:auto;image-rendering:auto;shape-rendering:auto;text-rendering:auto;enable-background:accumulate"
             d="m -47.505859,125.73242 a 0.55378848,0.55378848 0 0 0 0.544921,-0.5625 c 10e-7,-1.39122 -0.744382,-2.67939 -1.949218,-3.375 -1.204837,-0.69561 -2.691648,-0.69561 -3.896485,0 -1.204836,0.69561 -1.947265,1.98378 -1.947265,3.375 a 0.55378848,0.55378848 0 1 0 1.107422,0 c 0,-0.99734 0.530808,-1.91734 1.394531,-2.41601 0.863723,-0.49867 1.925339,-0.49867 2.789062,0 0.863723,0.49867 1.394532,1.41867 1.394532,2.41601 a 0.55378848,0.55378848 0 0 0 0.5625,0.5625 z"
             id="path8368-4-3"
             inkscape:connector-curvature="0" />
        </g>
      </g>
    </g>
    <g
       id="g5614"
       transform="translate(55.044367,62.170646)" />
  </g>
</svg>
