<svg width="1440" height="1196" viewBox="0 0 1440 1196" fill="none" xmlns="http://www.w3.org/2000/svg">
<path d="M-0.373291 0H1439.63V891.5L-0.373291 953.5V0Z" fill="url(#paint0_linear)"/>
<path d="M567.576 187.148C568.193 175.353 573.314 164.244 581.882 156.112C590.449 147.981 601.811 143.448 613.623 143.448C615.024 143.448 616.408 143.521 617.778 143.643C623.164 134.376 630.888 126.685 640.177 121.337C649.466 115.989 659.996 113.172 670.714 113.167C681.433 113.162 691.965 115.969 701.259 121.308C710.554 126.647 718.284 134.331 723.68 143.593C724.835 143.506 725.998 143.448 727.176 143.448C738.988 143.448 750.349 147.981 758.917 156.112C767.485 164.244 772.605 175.353 773.223 187.148" fill="#00B2D9" fill-opacity="0.1"/>
<path d="M577.18 183.601C577.798 171.806 582.918 160.696 591.486 152.565C600.053 144.434 611.415 139.901 623.227 139.901C624.628 139.901 626.012 139.974 627.382 140.096C632.768 130.829 640.492 123.138 649.781 117.79C659.07 112.442 669.6 109.625 680.318 109.62C691.037 109.615 701.569 112.422 710.863 117.761C720.158 123.1 727.888 130.784 733.284 140.046C734.439 139.959 735.602 139.901 736.78 139.901C748.592 139.901 759.953 144.434 768.521 152.565C777.089 160.696 782.209 171.806 782.827 183.601" fill="#00B2D9" fill-opacity="0.25"/>
<path d="M577.18 183.601C577.798 171.806 582.918 160.696 591.486 152.565C600.053 144.434 611.415 139.901 623.227 139.901C624.628 139.901 626.012 139.974 627.382 140.096C632.768 130.829 640.492 123.138 649.781 117.79C659.07 112.442 669.6 109.625 680.318 109.62C691.037 109.615 701.569 112.422 710.863 117.761C720.158 123.1 727.888 130.784 733.284 140.046C734.439 139.959 735.602 139.901 736.78 139.901C748.592 139.901 759.953 144.434 768.521 152.565C777.089 160.696 782.209 171.806 782.827 183.601" stroke="#9597A2" stroke-miterlimit="10"/>
<path d="M-29.3732 499C-24.2854 400.276 57.4748 321.791 157.593 321.791C163.283 321.791 168.902 322.087 174.463 322.583C196.334 285.006 227.695 253.816 265.412 232.13C303.13 210.444 345.884 199.021 389.405 199C432.927 198.979 475.692 210.363 513.43 232.013C551.168 253.664 582.558 284.823 604.464 322.38C609.156 322.028 613.879 321.791 618.66 321.791C718.779 321.791 800.539 400.276 805.627 499" fill="#00B2D9" fill-opacity="0.1"/>
<path d="M10.6268 485C15.7024 385.947 97.2668 307.2 197.146 307.2C202.822 307.2 208.427 307.497 213.975 307.995C235.794 270.292 267.079 238.999 304.706 217.241C342.333 195.482 384.985 184.021 428.402 184C471.82 183.979 514.482 195.401 552.13 217.123C589.778 238.846 621.092 270.109 642.946 307.792C647.626 307.439 652.338 307.2 657.108 307.2C756.987 307.2 838.551 385.947 843.627 485" fill="#00B2D9" fill-opacity="0.1"/>
<path d="M10.6268 485C15.7024 385.947 97.2668 307.2 197.146 307.2C202.822 307.2 208.427 307.497 213.975 307.995C235.794 270.292 267.079 238.999 304.706 217.241C342.333 195.482 384.985 184.021 428.402 184C471.82 183.979 514.482 195.401 552.13 217.123C589.778 238.846 621.092 270.109 642.946 307.792C647.626 307.439 652.338 307.2 657.108 307.2C756.987 307.2 838.551 385.947 843.627 485" stroke="#9597A2" stroke-miterlimit="10"/>
<path d="M-0.373169 168.9C0.462114 152.94 7.39052 137.909 18.9831 126.907C30.5757 115.905 45.9484 109.771 61.9306 109.771C63.8268 109.771 65.6992 109.87 67.5523 110.035C74.8405 97.4969 85.2908 87.09 97.8596 79.854C110.428 72.618 124.676 68.8062 139.179 68.7993C153.681 68.7925 167.932 72.5908 180.508 79.8149C193.083 87.039 203.544 97.4361 210.844 109.968C212.407 109.85 213.981 109.771 215.574 109.771C231.557 109.771 246.929 115.905 258.522 126.907C270.114 137.909 277.043 152.94 277.878 168.9" fill="#00B2D9" fill-opacity="0.1"/>
<path d="M12.6211 164.101C13.4564 148.141 20.3848 133.11 31.9774 122.108C43.57 111.106 58.9427 104.972 74.9249 104.972C76.821 104.972 78.6935 105.071 80.5465 105.236C87.8348 92.6976 98.2851 82.2906 110.854 75.0546C123.423 67.8186 137.67 64.0069 152.173 64C166.676 63.9932 180.927 67.7915 193.502 75.0156C206.078 82.2397 216.538 92.6367 223.838 105.168C225.401 105.051 226.975 104.972 228.569 104.972C244.551 104.972 259.923 111.106 271.516 122.108C283.109 133.11 290.037 148.141 290.872 164.101" fill="#00B2D9" fill-opacity="0.25"/>
<path d="M12.6211 164.101C13.4564 148.141 20.3848 133.11 31.9774 122.108C43.57 111.106 58.9427 104.972 74.9249 104.972C76.821 104.972 78.6934 105.071 80.5465 105.236C87.8348 92.6976 98.2851 82.2906 110.854 75.0546C123.423 67.8186 137.67 64.0069 152.173 64C166.676 63.9932 180.927 67.7915 193.502 75.0156C206.078 82.2397 216.538 92.6367 223.838 105.168C225.401 105.051 226.975 104.972 228.569 104.972C244.551 104.972 259.923 111.106 271.516 122.108C283.109 133.11 290.037 148.141 290.872 164.101" stroke="#9597A2" stroke-miterlimit="10"/>
<path d="M379.761 481.908C379.761 481.908 366 494.534 339.778 516.201C313.557 537.867 277.971 587.398 277.971 587.398L218.425 655.097L156.363 755.654L131.211 808.469L121.194 833.276L103.866 853.728C103.866 853.728 82.6278 874.736 68.2262 884.43C60.5665 889.586 30.9054 909.355 9.15632 928.584C-9.98701 945.51 -21.9556 962.464 -21.9556 962.464C-21.9556 962.464 300.083 840.894 483.95 831.996C585.794 827.068 767.022 868.363 879.631 891.676C992.239 914.989 1077.71 929.351 1152.16 916.954C1182.08 911.973 1246.33 899.35 1299.06 876.351C1377.54 842.122 1442.71 789.49 1442.71 789.49L1426.23 779.176L1413.91 734.471L1380.32 661.458L1355.16 610.41L1328 564.301C1328 564.301 1300.62 491.378 1284.68 467.595C1268.73 443.813 1227.65 414.109 1215.75 396.321L1209.4 372.561L1200.04 356.862L1186.45 339.242L1159.11 317.845L1138.79 286.301C1138.79 286.301 1125.58 257.307 1097.21 282.444C1087.83 290.749 1081.12 300.642 1073.44 309.899C1057.88 328.66 1045.07 345.43 1045.07 345.43L1016.3 312.43L983.17 282.989L962.597 254.201L932.339 209.052C932.339 209.052 924.824 177.087 910.395 169.649C897.804 163.158 885.429 167.333 877.065 173.972C868.702 180.611 798.941 212.304 798.941 212.304L730.634 259.565L657.578 295.424L628.014 318.634C628.014 318.634 618.522 296.445 606.942 287.947C593.918 278.389 575.705 274.378 562.773 283.85C562.773 283.85 476.875 353.739 464.244 364.617C451.614 375.495 416.199 423.188 416.199 423.188L399.602 455.942L379.761 481.908Z" fill="#EAEAEC"/>
<path d="M341.093 851.644C345.376 803.388 354.324 744.658 360.766 723.117C367.465 700.713 394.858 641.857 397.508 634.933C407.217 609.564 414.865 606.738 424.542 583.784C434.219 560.829 455.24 545.759 460.431 534.85C471.54 511.505 475.774 506.881 493.912 490.879C512.051 474.876 535.161 442.836 540.61 437.042C546.06 431.248 559.838 423.728 569.208 408.539C580.005 391.038 584.779 370.239 585.846 367.289C597.263 335.736 591.858 316.906 597.638 304.33C601.492 295.947 598.293 287.325 588.043 278.467" stroke="#CECED1" stroke-linecap="round"/>
<path d="M124.693 826.747C142.566 795.236 152.377 783.925 162.737 772.141C188.345 743.016 218.85 724.956 232.51 712.06C259.435 686.639 295.729 669.466 309.62 657.543C343.12 628.785 381.156 614.109 391.492 604.87C405.827 592.056 414.04 576.807 427.199 562.755C433.497 556.03 444.486 546.229 460.167 533.352" stroke="#CECED1" stroke-linecap="round"/>
<path d="M591.536 356.003C604.986 369.814 612.583 388.401 614.326 411.764C615.143 422.699 606.909 443.299 618.705 490.327C622.16 504.101 643.29 519.665 654.717 554.636C659.754 570.052 647.996 607.701 655.209 642.274C657.672 654.083 670.284 668.234 693.043 684.728" stroke="#CECED1" stroke-linecap="round"/>
<path d="M-22.8514 967.035L-23.0701 967.487L-22.165 967.902L-21.9463 967.45L-22.8514 967.035ZM187.469 708.388L187.033 708.149L187.469 708.388ZM285.519 581.833L285.87 582.182L285.907 582.145L285.937 582.101L285.519 581.833ZM364.968 496.561L364.673 496.164L364.968 496.561ZM424.292 414.692L423.894 414.397L424.292 414.692ZM495.942 339.381L495.667 338.97L495.942 339.381ZM746.699 467.796L747.13 467.532L746.699 467.796ZM770.118 517.355L770.521 517.05L770.118 517.355ZM816.46 559.587L816.882 559.849L817.429 559.004L817.008 558.742L816.46 559.587ZM-21.9463 967.45C-16.3274 955.83 -5.53773 944.565 7.85803 933.328C21.2487 922.096 37.1867 910.935 53.0643 899.501C68.931 888.074 84.7321 876.376 97.8014 864.093C110.868 851.812 121.243 838.91 126.215 825.061L125.269 824.745C120.376 838.374 110.135 851.143 97.1172 863.378C84.1026 875.61 68.3523 887.272 52.4839 898.7C36.6264 910.121 20.6455 921.311 7.21732 932.575C-6.20581 943.835 -17.1351 955.214 -22.8514 967.035L-21.9463 967.45ZM126.215 825.061C145.926 770.161 172.121 736.022 187.904 708.628L187.033 708.149C171.318 735.425 145.02 769.732 125.269 824.745L126.215 825.061ZM187.904 708.628C214.67 662.172 247.325 620.024 285.87 582.182L285.169 581.483C246.558 619.39 213.846 661.612 187.033 708.149L187.904 708.628ZM285.937 582.101C309.37 547.041 335.813 518.663 365.263 496.958L364.673 496.164C335.113 517.95 308.591 546.42 285.102 581.564L285.937 582.101ZM365.263 496.958C387.458 480.599 397.95 465.819 405.087 452.241C408.646 445.471 411.379 438.98 414.294 432.801C417.216 426.609 420.334 420.694 424.691 414.987L423.894 414.397C419.472 420.189 416.318 426.179 413.385 432.396C410.446 438.626 407.744 445.05 404.198 451.796C397.126 465.248 386.734 479.905 364.673 496.164L365.263 496.958ZM424.691 414.987C442.27 391.963 461.044 363.283 496.217 339.791L495.667 338.97C460.317 362.58 441.429 391.43 423.894 414.397L424.691 414.987ZM496.217 339.791C502.806 335.391 509.87 329.115 517.245 322.228C524.632 315.33 532.331 307.819 540.226 300.901C548.119 293.985 556.179 287.688 564.263 283.227C572.348 278.766 580.423 276.159 588.356 276.577L588.43 275.584C580.238 275.152 571.968 277.846 563.788 282.36C555.607 286.875 547.482 293.228 539.569 300.162C531.657 307.095 523.928 314.634 516.564 321.511C509.188 328.398 502.178 334.622 495.667 338.97L496.217 339.791ZM588.356 276.577C596.319 276.997 602.424 279.462 607.55 283.434C612.689 287.415 616.863 292.924 620.933 299.466C629.051 312.513 636.749 329.691 650.823 346.44L651.601 345.794C637.582 329.111 629.998 312.121 621.792 298.932C617.701 292.356 613.454 286.732 608.18 282.645C602.894 278.55 596.594 276.014 588.43 275.584L588.356 276.577ZM650.823 346.44C657.851 354.804 664.477 362.272 670.647 369.165C676.818 376.061 682.528 382.378 687.733 388.449C698.141 400.59 706.498 411.717 712.413 424.433L713.327 424.002C707.357 411.166 698.932 399.96 688.505 387.796C683.292 381.715 677.571 375.387 671.405 368.497C665.237 361.605 658.619 354.147 651.601 345.794L650.823 346.44ZM712.413 424.433C718.386 437.275 723.328 442.433 728.56 447.276C733.752 452.083 739.193 456.551 746.268 468.061L747.13 467.532C739.979 455.898 734.449 451.352 729.254 446.543C724.099 441.771 719.239 436.712 713.327 424.002L712.413 424.433ZM746.268 468.061C753.341 479.569 754.495 485.785 756.228 492.222C757.978 498.723 760.304 505.384 769.715 517.661L770.521 517.05C761.187 504.873 758.917 498.327 757.2 491.948C755.466 485.505 754.283 479.169 747.13 467.532L746.268 468.061ZM769.715 517.661C782.249 534.013 797.832 547.988 816.46 559.587L817.008 558.742C798.473 547.201 782.979 533.303 770.521 517.05L769.715 517.661Z" fill="#9597A2"/>
<path d="M918.519 350.315C924.015 358.78 927.227 365.047 928.154 369.117C928.736 371.673 930.488 380.909 940.925 391.693C943.972 394.841 951.764 397.77 960.325 403.889C962.337 405.328 965.036 408.239 968.421 412.623" stroke="#CECED1" stroke-linecap="round"/>
<path d="M903.875 166.884C906.197 170.164 908.03 173.805 909.375 177.805C909.835 179.174 915.427 199.206 915.488 219.96C915.503 225.061 913.65 244.534 903.658 267.769C901.351 273.135 897.131 290.189 903.314 311.087C905.003 316.794 917.569 335.303 917.663 357.124C917.712 368.282 906.294 389.792 903.225 415.474C902.226 423.833 904.359 438.226 900.129 457.445C897.872 467.7 891.869 486.361 882.121 513.426" stroke="#CECED1" stroke-linecap="round"/>
<path d="M628.644 318.815C643.579 307.537 653.742 299.906 659.133 295.922C661.754 293.984 682.272 285.074 723.317 264.257C764.362 243.439 757.066 236.56 788.66 220.407C801.951 213.611 820.981 199.521 847.933 188.148C874.885 176.775 888.624 161.89 905.757 165.744C922.89 169.599 922.167 190.678 934.634 211.008C947.101 231.338 950.198 233.442 961.697 249.574C973.196 265.705 970.339 268.848 991.079 289.693C1011.82 310.539 1020.21 316.644 1027.51 326.281C1032.37 332.706 1037.34 339.038 1042.43 345.279" stroke="#9597A2" stroke-linecap="square"/>
<path d="M990.379 516.616C997.418 531.522 1001.8 547.188 1003.51 563.612C1006.09 588.248 994.646 612.949 993.136 642.504C991.626 672.058 971.381 678.077 961.97 716.084C956.489 738.223 942.185 769.085 923.748 785.716C911.456 796.804 869.992 852.016 847.411 885.514" stroke="#CECED1" stroke-linecap="round"/>
<path d="M1119.3 272.35C1123.42 274.158 1128.4 279.14 1130.64 285.139C1137.21 302.747 1141.3 333.754 1150.62 345.439C1159.93 357.123 1179.17 367.516 1197.58 418.967C1202.65 433.138 1207.69 482.167 1217.18 521.119C1226.66 560.072 1235.13 544.688 1247.5 596.104C1249.56 604.636 1261.94 614.891 1265.08 629.247C1265.91 633.031 1264.54 638.685 1268.33 663.688C1269.8 673.424 1287.93 683.428 1291.74 704.782C1293.98 717.397 1332.81 725.526 1335.02 755.285C1335.83 766.223 1352.85 791.325 1354.79 808.073C1356.09 819.239 1365.48 828.463 1378.68 831.898" stroke="#CECED1" stroke-linecap="round"/>
<path d="M612.076 843.982C656.214 829.919 724.408 787.183 728.005 773.71C733.4 753.5 773.431 745.686 781.341 731.893C801.321 697.055 835.17 682.171 844.72 674.461C868.846 654.981 881.541 664.106 911.733 622.927C941.925 581.747 929.456 584.016 942.595 565.99C955.733 547.965 975.862 542.513 984.947 526.489C994.031 510.464 987.532 486.953 990.869 482.167C1008.88 456.328 1007.37 434.949 1019.67 424.005C1031.97 413.062 1048.68 414.724 1056.1 397.003C1063.51 379.282 1061.89 364.303 1070.83 349.858C1076.79 340.228 1087.35 316.272 1102.51 277.991" stroke="#CECED1" stroke-linecap="round"/>
<path d="M478.289 837.69L477.867 837.969L478.413 838.793L478.835 838.514L478.289 837.69ZM622 745.8L622.169 746.265L622 745.8ZM701.891 682.142L701.558 681.777L701.891 682.142ZM778.316 627.403L778.661 627.758L778.316 627.403ZM826.724 558.057L826.369 557.713L826.724 558.057ZM910.608 492.045L910.954 492.398L910.608 492.045ZM966.528 416.307L966.886 416.649L966.528 416.307ZM1023.25 376.392L1022.92 376.029L1023.25 376.392ZM1062 324.551L1061.64 324.212L1062 324.551ZM1202.67 356.177L1203.08 355.885L1202.67 356.177ZM1229.13 407.805L1229.52 407.486L1229.13 407.805ZM1283 461.54L1282.6 461.849L1283 461.54ZM1417.49 753.092L1416.99 753.181L1417.49 753.092ZM1440.2 788.142L1440.67 788.318L1441.04 787.388L1440.58 787.212L1440.2 788.142ZM478.835 838.514C501.29 823.686 529.678 803.399 556.153 785.448C582.663 767.473 607.24 751.853 622.169 746.265L621.831 745.335C606.762 750.975 582.076 766.677 555.596 784.631C529.079 802.61 500.748 822.86 478.289 837.69L478.835 838.514ZM622.169 746.265C624.826 745.27 628.48 743.186 633.114 740.043C637.756 736.894 643.41 732.664 650.073 727.355C663.4 716.736 680.785 701.786 702.225 682.507L701.558 681.777C680.124 701.05 662.756 715.984 649.453 726.585C642.801 731.885 637.17 736.098 632.558 739.226C627.937 742.359 624.367 744.385 621.831 745.335L622.169 746.265ZM702.225 682.507C710.402 675.155 721.386 669.202 734.449 661.188C747.488 653.189 762.516 643.179 778.661 627.758L777.971 627.049C761.9 642.4 746.94 652.365 733.932 660.345C720.948 668.311 709.827 674.341 701.558 681.777L702.225 682.507ZM778.661 627.758C782.293 624.289 785.552 619.802 788.788 614.647C792.022 609.494 795.255 603.638 798.817 597.438C805.95 585.024 814.439 571.161 827.08 558.402L826.369 557.713C813.63 570.571 805.087 584.531 797.946 596.96C794.371 603.182 791.158 609.004 787.937 614.134C784.717 619.263 781.511 623.667 777.971 627.049L778.661 627.758ZM827.08 558.402C835.204 550.201 847.537 542.002 862.203 531.674C876.847 521.362 893.761 508.962 910.954 492.398L910.261 491.692C893.125 508.2 876.263 520.564 861.631 530.868C847.021 541.157 834.577 549.428 826.369 557.713L827.08 558.402ZM910.954 492.398C918.669 484.966 925.406 473.416 933.806 460.093C942.224 446.741 952.353 431.531 966.886 416.649L966.171 415.965C951.56 430.927 941.385 446.21 932.957 459.579C924.51 472.975 917.859 484.372 910.261 491.692L910.954 492.398ZM966.886 416.649C972.381 411.023 980.927 406.156 990.974 400.114C1000.99 394.089 1012.44 386.932 1023.59 376.754L1022.92 376.029C1011.84 386.134 1000.47 393.248 990.465 399.267C980.484 405.268 971.783 410.218 966.171 415.965L966.886 416.649ZM1023.59 376.754C1026.16 374.414 1028.64 371.256 1031.22 367.543C1033.81 363.829 1036.51 359.528 1039.49 354.902C1045.47 345.637 1052.61 335.013 1062.36 324.891L1061.64 324.212C1051.82 334.41 1044.63 345.104 1038.65 354.378C1035.65 359.021 1032.97 363.296 1030.4 366.99C1027.83 370.684 1025.4 373.767 1022.92 376.029L1023.59 376.754ZM1062.36 324.891C1065.96 321.148 1070.25 316.002 1074.91 310.361C1079.58 304.714 1084.63 298.561 1089.78 292.781C1094.93 286.999 1100.16 281.605 1105.18 277.472C1110.22 273.329 1114.99 270.502 1119.22 269.773L1119.07 268.793C1114.57 269.569 1109.62 272.539 1104.55 276.712C1099.46 280.895 1094.19 286.335 1089.03 292.132C1083.87 297.929 1078.8 304.098 1074.14 309.741C1069.47 315.39 1065.21 320.503 1061.64 324.212L1062.36 324.891ZM1119.22 269.773C1123.36 269.061 1127.45 271.003 1131.56 274.706C1135.67 278.402 1139.73 283.772 1143.78 289.709C1145.81 292.675 1147.83 295.773 1149.86 298.866C1151.89 301.958 1153.92 305.044 1155.97 307.978C1160.05 313.838 1164.21 319.124 1168.48 322.65L1169.13 321.88C1164.97 318.444 1160.88 313.251 1156.8 307.402C1154.76 304.48 1152.74 301.405 1150.71 298.313C1148.68 295.222 1146.65 292.115 1144.62 289.14C1140.56 283.197 1136.45 277.743 1132.25 273.963C1128.05 270.189 1123.67 268.002 1119.07 268.793L1119.22 269.773ZM1168.48 322.65C1172.71 326.136 1175.95 328.614 1178.68 330.713C1181.42 332.813 1183.63 334.526 1185.8 336.493C1190.14 340.421 1194.37 345.384 1202.26 356.469L1203.08 355.885C1195.18 344.786 1190.91 339.753 1186.49 335.752C1184.28 333.755 1182.04 332.02 1179.31 329.922C1176.58 327.823 1173.34 325.355 1169.13 321.88L1168.48 322.65ZM1202.26 356.469C1206.18 361.987 1208.34 366.189 1209.73 369.823C1211.12 373.468 1211.75 376.541 1212.63 379.873C1214.39 386.558 1217.09 393.981 1228.74 408.124L1229.52 407.486C1217.95 393.438 1215.32 386.138 1213.6 379.604C1212.74 376.326 1212.09 373.164 1210.67 369.454C1209.25 365.733 1207.05 361.459 1203.08 355.885L1202.26 356.469ZM1228.74 408.124C1240.37 422.255 1249.03 429.504 1257.19 436.317C1265.34 443.118 1272.97 449.477 1282.6 461.849L1283.4 461.232C1273.71 448.775 1266.01 442.363 1257.85 435.551C1249.71 428.752 1241.1 421.547 1229.52 407.486L1228.74 408.124ZM1282.6 461.849C1292.21 474.193 1299.12 492.111 1306.51 511.73C1313.9 531.319 1321.75 552.568 1333.23 571.446L1334.1 570.92C1322.66 552.133 1314.85 530.975 1307.46 511.366C1300.08 491.787 1293.12 473.715 1283.4 461.232L1282.6 461.849ZM1333.23 571.446C1344.68 590.262 1358.69 616.396 1370.71 640.523C1382.73 664.66 1392.75 686.749 1396.23 697.488L1397.19 697.167C1393.68 686.349 1383.63 664.199 1371.61 640.068C1359.58 615.928 1345.56 589.768 1334.1 570.92L1333.23 571.446ZM1396.23 697.488C1399.74 708.312 1403.72 714.655 1407.4 722.037C1411.08 729.416 1414.51 737.921 1416.99 753.181L1417.99 753.004C1415.49 737.64 1412.02 729.042 1408.31 721.583C1404.59 714.128 1400.67 707.9 1397.19 697.167L1396.23 697.488ZM1416.99 753.181C1418.66 763.433 1421.47 771.047 1425.37 776.666C1429.27 782.293 1434.25 785.894 1440.2 788.142L1440.58 787.212C1434.79 785.028 1429.98 781.545 1426.2 776.091C1422.41 770.629 1419.64 763.167 1417.99 753.004L1416.99 753.181Z" fill="#9597A2"/>
<path d="M482.082 833.756C300.951 835.387 -22.0442 963.42 -22.0442 963.42L-7.89729 1060.45C-7.89729 1060.45 315.336 934.18 504.618 931.516C693.899 928.851 927.236 1023.11 1109.74 1020.73C1292.24 1018.36 1454.69 889.122 1454.69 889.122L1443.77 790.507C1443.77 790.507 1254.15 937.231 1067.77 920.996C881.389 904.762 663.214 832.124 482.082 833.756Z" fill="#BFC0C7" stroke="#9597A2" stroke-linejoin="round"/>
<path d="M-5.16081 1010.15C-5.16081 1010.15 315.449 882.862 495.233 881.218C675.018 879.574 891.562 951.74 1076.56 967.853C1261.55 983.965 1449.77 838.114 1449.77 838.114" stroke="white" stroke-opacity="0.5" stroke-dasharray="10 10"/>
<path d="M454.277 822.613L487.84 821.268L496.849 822.653L497.8 823.616L510.482 834.719L522.763 845.531L533.085 852.6L548.262 859.085L549.928 860.886L551.194 864.039L552.032 876.724L548.521 878.063L547.017 890.14L543.147 890.435L542.937 888.166L541.068 883.773L537.919 880.514L533.39 878.145L528.579 877.583L520.732 877.825L514.636 879.575L510.469 882.321L504.48 889.67L499.663 898.357L499.827 900.13L460.534 903.126L457.582 862.749L454.277 822.613Z" fill="#F4F5F6"/>
<path d="M499.707 898.425L505.071 888.768L509.577 883.21L512.591 880.552L516.989 878.681L522.785 877.74L531.203 877.598L534.88 878.853L537.804 880.487L540.546 882.992L542.409 886.921L542.67 888.115L541.769 888.505L538.139 884.104L532.843 880.329L525.259 878.551L518.821 879.042L513.967 880.84L508.961 884.65L505.423 889.741L503.704 897.478L499.848 899.95L499.707 898.425Z" fill="#BFC0C7"/>
<path d="M336.447 895.661L337.769 895.775L331.301 910.909L325.757 911.331L329.799 903.596L332.056 899.638L334.316 896.931L336.447 895.661Z" fill="#BFC0C7"/>
<path d="M370.646 904.016L372.473 907.162L374.3 910.701L371.589 908.944L370.646 904.016Z" fill="#BFC0C7"/>
<path d="M548.622 878.341L551.216 878.429L553.117 879.533L554.059 881.211L553.866 883.583L553.04 886.396L552.198 889.031L547.138 890.238L548.622 878.341Z" fill="#BFC0C7"/>
<path d="M454.246 821.473L509.021 818.939L503.057 820.894L497.116 822.704L492.913 822.025L488.709 821.345L454.348 822.572L454.246 821.473Z" fill="#BFC0C7"/>
<path d="M244.834 904.646L245.816 904.321L245.99 906.2L249.663 909.849L244.615 911.983L244.834 904.646Z" fill="#8F929D"/>
<path d="M242.008 904.469L245.614 902.944L245.729 904.185L244.946 904.637L244.77 908.4L244.364 912.109L241.717 911.847L242.008 904.469Z" fill="#BFC0C7"/>
<path d="M237.859 831.758L235.082 808.651L234.743 802.964L235.271 800.174L236.638 798.748L240.107 798.162L245.82 797.548L276.702 794.765L348.351 789.123L417.04 783.886L485.892 778.387L504.334 777.23L514.737 784.365L532.941 799.653L535.974 803.279L535.522 805.277L531.764 810.42L524.2 817.353L489.707 819.983L454.282 821.863L460.655 905.236L374.405 910.622L371.067 904.52L364.97 895.736L362.369 894.363L336.081 895.76L334.343 896.821L331.649 900.098L327.42 907.848L324.274 913.528L288.99 914.504L254.951 915.159L252.57 913.317L249.353 909.336L246.136 906.154L244.909 894.927L242.4 867.836L237.859 831.758Z" fill="#F4F5F6"/>
<path d="M478.228 788.934L478.94 803.092" stroke="#2A2E43" stroke-linecap="square"/>
<path d="M480.684 788.747L481.396 802.905" stroke="#2A2E43" stroke-linecap="square"/>
<path fill-rule="evenodd" clip-rule="evenodd" d="M459.445 790.223C473.596 789.144 487.746 788.065 501.897 786.986C502.048 786.975 504.007 788.561 507.776 791.746C510.386 793.967 511.81 795.303 512.048 795.753C512.405 796.427 512.697 796.867 512.571 798.216C512.44 799.605 511.283 800.698 509.823 800.809L460.511 804.569C458.784 804.7 457.261 803.474 457.109 801.828C457.106 801.799 457.104 801.769 457.102 801.74L456.588 793.352C456.489 791.738 457.755 790.352 459.445 790.223Z" stroke="#2A2E43"/>
<path fill-rule="evenodd" clip-rule="evenodd" d="M459.053 788.468L501.387 785.24C501.826 785.206 502.263 785.343 502.598 785.618L508.996 790.871C509.037 790.904 509.078 790.936 509.119 790.968C511.586 792.862 513.211 794.441 513.994 795.705C515.345 797.887 514.592 800.685 512.311 801.954C511.693 802.298 511.001 802.505 510.286 802.559L460.478 806.357C457.847 806.557 455.527 804.688 455.294 802.181C455.291 802.143 455.288 802.106 455.285 802.068L454.701 793.256C454.538 790.79 456.469 788.665 459.053 788.468Z" stroke="#2A2E43"/>
<path d="M244.532 912.132L249.496 909.897" stroke="#2A2E43" stroke-linecap="round"/>
<path d="M242.247 904.45L245.626 902.907" stroke="#2A2E43" stroke-linecap="square"/>
<path d="M244.959 904.6L245.711 904.222" stroke="#2A2E43" stroke-linecap="square"/>
<path d="M244.785 904.589L242.248 904.445C242.166 904.44 242.095 904.5 242.091 904.578L241.698 911.822C241.694 911.901 241.757 911.968 241.84 911.973L244.376 912.117C244.459 912.122 244.529 912.062 244.533 911.984L244.926 904.74C244.93 904.661 244.867 904.594 244.785 904.589Z" stroke="#2A2E43"/>
<path fill-rule="evenodd" clip-rule="evenodd" d="M236.885 824.165L534.828 801.448L536.362 803.458C536.284 804.098 536.123 804.639 535.88 805.08C535.637 805.521 535.195 806.073 534.554 806.737C533.502 808.119 532.622 809.22 531.914 810.041C531.206 810.862 530.099 812.065 528.595 813.649C527.581 814.858 526.782 815.703 526.197 816.187C525.612 816.67 524.913 817.062 524.101 817.363C523.662 817.631 522.361 817.884 520.199 818.122C518.036 818.361 514.815 818.606 510.536 818.859L454.284 821.67L457.891 866.664L441.797 867.891L439.581 843.961C440.54 843.459 441.161 842.997 441.442 842.576C441.723 842.154 441.929 841.377 442.061 840.244L439.485 812.43C438.713 811.673 438.153 811.124 437.804 810.782C437.455 810.44 436.824 810.209 435.911 810.086L356.647 816.13C355.634 816.395 354.971 816.725 354.659 817.122C354.347 817.518 353.946 818.14 353.456 818.989C354.384 831.281 355.243 840.553 356.032 846.804C356.101 847.343 356.509 848.528 357.645 849.367C358.002 849.63 358.719 849.894 359.798 850.157L361.622 874.004L243.782 882.989L236.885 824.165Z" fill="#FAA05D"/>
<path d="M440.575 844.441L358.267 850.717L360.434 874.12L442.742 867.844L440.575 844.441Z" fill="#FAA05D"/>
<path fill-rule="evenodd" clip-rule="evenodd" d="M236.629 798.88C239.6 797.149 313.574 791.972 383.748 786.484C445.487 781.655 503.138 776.831 504.403 777.284C508.494 778.751 536.171 801.406 536.362 803.458C536.552 805.511 526.944 816.13 524.245 817.433C522.445 818.302 499.125 819.714 454.283 821.67L460.764 905.245C413.686 908.083 384.914 909.901 374.45 910.699C372.49 907.942 367.899 896.99 364.116 895.126C357.23 891.733 337.525 895.603 337.194 895.62C331.729 895.898 328.31 908.462 324.187 913.455C300.519 914.39 277.419 914.942 254.888 915.11C251.267 912.738 251.075 910.667 246.099 906.202C241.008 851.238 236.382 821.749 235.426 811.783C234.91 806.406 233.658 800.611 236.629 798.88Z" stroke="#2A2E43"/>
<path d="M497.101 822.776L509.524 818.937" stroke="#2A2E43" stroke-linecap="square"/>
<path fill-rule="evenodd" clip-rule="evenodd" d="M548.457 878.23C550.098 878.141 551.298 878.311 552.058 878.74C553.197 879.383 553.796 880.313 554.089 881.377C554.285 882.087 553.985 883.638 553.191 886.03C552.688 887.439 552.354 888.388 552.188 888.877C552.023 889.365 550.313 889.825 547.059 890.257L548.457 878.23Z" stroke="#2A2E43"/>
<path d="M541.485 888.669L542.71 888.147" stroke="#2A2E43" stroke-linecap="square"/>
<path d="M325.776 911.365L331.58 910.923" stroke="#2A2E43" stroke-linecap="square"/>
<path fill-rule="evenodd" clip-rule="evenodd" d="M456.99 854.974L528.321 849.535L538.042 854.971C541.945 856.354 544.768 857.46 546.51 858.291C548.252 859.121 549.225 859.785 549.43 860.281L457.945 867.256L456.99 854.974Z" fill="#FAA05D"/>
<path fill-rule="evenodd" clip-rule="evenodd" d="M454.541 822.667C474.763 821.842 485.926 821.433 488.032 821.44C490.137 821.447 493.055 821.9 496.787 822.8L521.919 844.734C526.756 848.596 531.002 851.416 534.657 853.195C538.311 854.973 542.006 856.539 545.74 857.894C548.122 858.795 549.704 860.111 550.485 861.844C551.267 863.577 551.731 868.588 551.878 876.877L548.457 878.229L547.059 890.256L543.022 890.564C542.927 888.441 542.451 886.507 541.594 884.764C540.308 882.148 535.867 877.398 528.324 877.605C525.199 877.691 519.202 877.491 514.37 879.737C511.425 881.106 510.53 881.911 506.83 886.531C504.363 889.612 502.368 892.976 500.845 896.625L499.796 898.493L460.545 901.485L454.541 822.667Z" stroke="#2A2E43"/>
<path fill-rule="evenodd" clip-rule="evenodd" d="M454.884 827.403C477.305 826.422 489.322 825.934 490.934 825.939C492.546 825.944 494.101 826.476 495.6 827.535C505.304 835.489 511.555 840.803 514.354 843.477C518.552 847.489 519.513 848.253 521.784 852.561C524.056 856.868 523.959 858.888 524.274 862.29C524.589 865.692 523.652 872.728 523.652 872.728C523.652 872.728 518.295 873.013 513.861 874.71C509.427 876.408 508.832 876.425 505.562 879.655C502.292 882.884 501.921 885.522 500.567 887.841C499.212 890.16 497.3 894.683 496.755 895.557C496.391 896.14 484.21 896.916 460.212 897.887L454.884 827.403Z" stroke="#2A2E43"/>
<path fill-rule="evenodd" clip-rule="evenodd" d="M501.933 834.978C508.084 840.924 511.418 844.258 511.935 844.979C512.712 846.06 512.153 847.324 510.872 847.422C509.591 847.519 476.486 850.204 473.733 850.253C470.979 850.303 470.89 849.338 470.412 848.145C469.934 846.952 465.551 833.219 465.305 831.887C465.058 830.554 465.072 829.375 466.902 829.174C468.731 828.974 486.759 827.721 491.075 827.969C493.952 828.134 497.572 830.47 501.933 834.978Z" stroke="#2A2E43"/>
<path d="M499.783 899.884L499.814 898.596" stroke="#2A2E43" stroke-linecap="square"/>
<path d="M460.658 903.081L499.941 900.086L503.707 897.513" stroke="#2A2E43" stroke-linecap="square"/>
<path d="M461.064 827.345C463.196 839.279 464.802 851.076 465.882 862.737C466.962 874.398 467.521 885.98 467.56 897.484" stroke="#2A2E43" stroke-linecap="square"/>
<path fill-rule="evenodd" clip-rule="evenodd" d="M497.702 823.626C497.285 823.999 497.02 824.494 496.905 825.112C496.96 825.704 519.331 844.621 520.037 845.176C520.507 845.546 521.402 845.608 522.721 845.364L511.061 835.257L497.702 823.626Z" stroke="#2A2E43" stroke-linecap="square"/>
<path d="M374.35 910.661L371.534 908.983" stroke="#2A2E43" stroke-linecap="round"/>
<ellipse rx="11.9789" ry="11.2888" transform="matrix(0.997106 -0.0760254 0.0922174 0.995739 351.474 909.835)" fill="#F4F5F6"/>
<path fill-rule="evenodd" clip-rule="evenodd" d="M350.063 894.024C353.809 893.738 357.353 893.622 360.423 894.209C361.029 894.325 361.576 894.334 362.334 894.618C363.13 894.917 364.128 895.487 364.418 895.465C367.106 898.085 370.96 902.792 371.468 908.274C372.44 918.771 364.299 927.961 353.284 928.801C342.269 929.641 332.551 921.813 331.579 911.316C330.996 905.022 332.38 900.859 338.125 895.485C339.431 895.385 345.653 894.36 350.063 894.024ZM350.473 898.448C343.897 898.949 339.036 904.436 339.617 910.703C340.197 916.97 345.998 921.643 352.575 921.142C359.151 920.641 364.011 915.154 363.431 908.887C362.85 902.62 357.049 897.947 350.473 898.448Z" fill="#555869" stroke="#555869"/>
<ellipse rx="11.9789" ry="11.2888" transform="matrix(0.997106 -0.0760254 0.0922174 0.995739 523.969 897.397)" fill="#F4F5F6"/>
<path fill-rule="evenodd" clip-rule="evenodd" d="M522.175 878.429C533.19 877.589 542.907 885.418 543.879 895.914C544.851 906.411 536.71 915.602 525.695 916.441C514.68 917.281 504.963 909.453 503.99 898.956C503.018 888.459 511.16 879.269 522.175 878.429ZM522.884 886.088C516.308 886.589 511.447 892.076 512.028 898.343C512.608 904.61 518.41 909.284 524.986 908.782C531.562 908.281 536.422 902.794 535.842 896.527C535.261 890.26 529.46 885.587 522.884 886.088Z" fill="#555869" stroke="#555869"/>
<path d="M469.11 857.585C470.345 857.443 471.388 857.34 472.239 857.275C473.091 857.21 474.553 857.122 476.627 857.012" stroke="#2A2E43" stroke-linecap="round"/>
<path d="M468.991 857.916C469.217 857.898 469.387 857.742 469.371 857.565C469.354 857.389 469.158 857.26 468.932 857.277C468.706 857.295 468.536 857.451 468.552 857.628C468.568 857.804 468.765 857.933 468.991 857.916Z" fill="#2A2E43"/>
<path d="M476.838 856.46L476.019 856.522C475.896 856.532 475.805 856.635 475.816 856.752L475.862 857.248C475.873 857.366 475.981 857.454 476.105 857.444L476.923 857.382C477.047 857.372 477.138 857.27 477.127 857.152L477.081 856.656C477.07 856.538 476.961 856.45 476.838 856.46Z" stroke="#2A2E43"/>
<path d="M469.816 856.71L468.625 856.8C468.256 856.829 467.982 857.137 468.015 857.49L468.067 858.057C468.1 858.41 468.426 858.673 468.796 858.644L469.987 858.554C470.357 858.525 470.63 858.217 470.598 857.864L470.545 857.297C470.512 856.944 470.186 856.682 469.816 856.71Z" stroke="#2A2E43"/>
<path d="M469.67 862.006C470.101 861.973 470.42 861.613 470.382 861.202C470.344 860.791 469.963 860.484 469.532 860.517C469.1 860.55 468.781 860.91 468.819 861.321C468.857 861.732 469.238 862.039 469.67 862.006Z" stroke="#2A2E43"/>
<path d="M469.61 861.368C469.672 861.363 469.718 861.312 469.712 861.253C469.707 861.194 469.652 861.151 469.591 861.155C469.529 861.16 469.484 861.211 469.489 861.27C469.494 861.329 469.549 861.373 469.61 861.368Z" fill="#2A2E43" stroke="#2A2E43"/>
<path fill-rule="evenodd" clip-rule="evenodd" d="M359.333 817.711L433.455 812.06C435.715 811.887 437.71 813.494 437.909 815.648L440.05 838.768C440.25 840.922 438.579 842.808 436.318 842.98L362.197 848.632C359.937 848.804 357.942 847.198 357.743 845.043L355.602 821.924C355.402 819.77 357.073 817.883 359.333 817.711ZM394.534 815.027L397.397 845.948L394.534 815.027ZM396.394 814.885L399.258 845.806L396.394 814.885ZM357.309 816.08L435.151 810.145C437.412 809.972 439.406 811.579 439.605 813.733L442.075 840.399C442.274 842.553 440.604 844.439 438.343 844.611L360.501 850.547C358.24 850.719 356.246 849.112 356.046 846.958L353.577 820.293C353.377 818.138 355.048 816.252 357.309 816.08Z" stroke="#2A2E43"/>
<g opacity="0.3">
<path opacity="0.3" d="M1006.02 110.66H1041.35C1041.35 110.66 1028.04 134.26 1006.02 110.66Z" fill="#030B44"/>
<path opacity="0.3" d="M1008.15 120.69L1031.32 94C1031.32 94 1040.38 119.5 1008.15 120.69Z" fill="#030B44"/>
</g>
<g opacity="0.3">
<path opacity="0.3" d="M1117.28 164.85H1150.22C1150.22 164.85 1137.81 186.81 1117.28 164.85Z" fill="#030B44"/>
<path opacity="0.3" d="M1119.27 174.19L1140.87 149.32C1140.87 149.32 1149.31 173.09 1119.27 174.19Z" fill="#030B44"/>
</g>
<g opacity="0.3">
<path opacity="0.3" d="M999.626 233.56H1032.57C1032.57 233.56 1020.16 255.52 999.626 233.56Z" fill="#030B44"/>
<path opacity="0.3" d="M1001.62 242.9L1023.21 218.03C1023.21 218.03 1031.66 241.8 1001.62 242.9Z" fill="#030B44"/>
</g>
<defs>
<linearGradient id="paint0_linear" x1="719.627" y1="14" x2="719.627" y2="951" gradientUnits="userSpaceOnUse">
<stop stop-color="#C4C4C4" stop-opacity="0"/>
<stop offset="1" stop-color="#00B2D9" stop-opacity="0.09"/>
</linearGradient>
</defs>
</svg>
