<?xml version="1.0" encoding="utf-8"?>
<!-- Generator: Adobe Illustrator 22.1.0, SVG Export Plug-In . SVG Version: 6.00 Build 0)  -->
<svg version="1.1" id="Layer_1" xmlns="http://www.w3.org/2000/svg" xmlns:xlink="http://www.w3.org/1999/xlink" x="0px" y="0px"
	 viewBox="0 0 800 400" style="enable-background:new 0 0 800 400;" xml:space="preserve">
<style type="text/css">
	.st0{fill:#FC766A;}
	.st1{font-family:'Quadrat-Serial-Light-Regular';}
	.st2{font-size:120px;}
	.st3{letter-spacing:3;}
	.st4{fill:#FC766A;stroke:#FF842A;}
	.st5{font-size:285.1172px;}
	.st6{fill:#FC766A;stroke:#FF842A;stroke-miterlimit:10;}
	.st7{fill:#FC766A;stroke:#FFFFFF;stroke-miterlimit:10;}
</style>
<text transform="matrix(1 0 0 1 325.6289 238.1299)" class="st0 st1 st2 st3">tenantly</text>
<text transform="matrix(-1 0 0 -1 201.0986 96.5625)" class="st4 st1 st5">V</text>
<path class="st6" d="M283.5,302.5H326c-6.1-6.7-9.6-10.6-10.6-12c-2.3-3-4.2-6.4-5.7-10l-59-150.9c-3.5-9-7.2-16.1-11.2-21.2
	c-10.1-4.9-21.1-7.7-32.7-7.8l-0.1,0.3l12.4,28.7l0.2-0.4L283.5,302.5z"/>
<path class="st6" d="M229.6,302.5h42.5c-6.1-6.7-9.6-10.6-10.6-12c-2.3-3-4.2-6.4-5.7-10l-59-150.9c-3.5-9-7.2-16.1-11.2-21.2
	c-10.1-4.9-21.1-7.7-32.7-7.8l-0.1,0.3l12.4,28.7l0.2-0.4L229.6,302.5z"/>
<path class="st7" d="M132.3,238.5h-16.6c-1.2,0-2.2-1-2.2-2.2v-16.6c0-1.2,1-2.2,2.2-2.2h16.6c1.2,0,2.2,1,2.2,2.2v16.6
	C134.5,237.5,133.5,238.5,132.3,238.5z"/>
<path class="st7" d="M132.3,268.5h-16.6c-1.2,0-2.2-1-2.2-2.2v-16.6c0-1.2,1-2.2,2.2-2.2h16.6c1.2,0,2.2,1,2.2,2.2v16.6
	C134.5,267.5,133.5,268.5,132.3,268.5z"/>
<path class="st7" d="M105.3,238.5H88.7c-1.2,0-2.2-1-2.2-2.2v-16.6c0-1.2,1-2.2,2.2-2.2h16.6c1.2,0,2.2,1,2.2,2.2v16.6
	C107.5,237.5,106.5,238.5,105.3,238.5z"/>
<path class="st7" d="M105.3,268.5H88.7c-1.2,0-2.2-1-2.2-2.2v-16.6c0-1.2,1-2.2,2.2-2.2h16.6c1.2,0,2.2,1,2.2,2.2v16.6
	C107.5,267.5,106.5,268.5,105.3,268.5z"/>
</svg>
