<?xml version="1.0" encoding="utf-8"?>
<!-- Generator: Adobe Illustrator 22.1.0, SVG Export Plug-In . SVG Version: 6.00 Build 0)  -->
<svg version="1.1" id="Layer_1" xmlns="http://www.w3.org/2000/svg" xmlns:xlink="http://www.w3.org/1999/xlink" x="0px" y="0px"
	 viewBox="0 0 1300 400" style="enable-background:new 0 0 1300 400;" xml:space="preserve">
<style type="text/css">
	.st0{fill:#FC766A;stroke:#FF842A;}
	.st1{font-family:'Quadrat-Serial-Light-Regular';}
	.st2{font-size:285.1172px;}
	.st3{fill:#FC766A;stroke:#FF842A;stroke-miterlimit:10;}
	.st4{fill:#FC766A;stroke:#FFFFFF;stroke-miterlimit:10;}
	.st5{fill:#FC766A;}
	.st6{font-size:200px;}
	.st7{letter-spacing:5;}
</style>
<text transform="matrix(-1 0 0 -1 267.0986 104.5625)" class="st0 st1 st2">V</text>
<path class="st3" d="M349.5,310.5H392c-6.1-6.7-9.6-10.6-10.6-12c-2.3-3-4.2-6.4-5.7-10l-59-150.9c-3.5-9-7.2-16.1-11.2-21.2
	c-10.1-4.9-21.1-7.7-32.7-7.8l-0.1,0.3l12.4,28.7l0.2-0.4L349.5,310.5z"/>
<path class="st3" d="M295.6,310.5h42.5c-6.1-6.7-9.6-10.6-10.6-12c-2.3-3-4.2-6.4-5.7-10l-59-150.9c-3.5-9-7.2-16.1-11.2-21.2
	c-10.1-4.9-21.1-7.7-32.7-7.8l-0.1,0.3l12.4,28.7l0.2-0.4L295.6,310.5z"/>
<path class="st4" d="M191.3,310.5h-30.6c-1.2,0-2.2-1-2.2-2.2v-55.6c0-1.2,1-2.2,2.2-2.2h30.6c1.2,0,2.2,1,2.2,2.2v55.6
	C193.5,309.5,192.5,310.5,191.3,310.5z"/>
<text transform="matrix(1 0 0 1 432.6289 276.1299)" class="st5 st1 st6 st7">tenantly</text>
</svg>
