<?xml version="1.0" encoding="utf-8"?>
<!-- Generator: Adobe Illustrator 22.1.0, SVG Export Plug-In . SVG Version: 6.00 Build 0)  -->
<svg version="1.1" id="Layer_1" xmlns="http://www.w3.org/2000/svg" xmlns:xlink="http://www.w3.org/1999/xlink" x="0px" y="0px"
	 viewBox="0 0 400 400" style="enable-background:new 0 0 400 400;" xml:space="preserve">
<style type="text/css">
	.st0{fill:#1601F7;}
	.st1{fill:#0606C1;}
</style>
<g>
	<path class="st0" d="M155.8,155.6c3.3-28.8,20.3-53.4,44.2-67.3c-13.2-7.6-28.5-12-44.8-12c-49.5,0-89.7,40.2-89.7,89.7
		c0,33,17.8,61.8,44.4,77.4c-0.3-3-0.5-6.1-0.5-9.2C109.4,200.3,128.1,170.8,155.8,155.6z"/>
	<path class="st0" d="M200,243.6c-13.2,7.6-28.5,12-44.8,12c-16.5,0-32-4.5-45.3-12.3c4.6,45.2,42.8,80.5,89.2,80.5
		c46,0,83.9-34.7,89.1-79.3c-12.8,7.1-27.6,11.1-43.3,11.1C228.5,255.6,213.2,251.2,200,243.6z"/>
	<path class="st1" d="M200,243.6c-26.8-15.5-44.8-44.5-44.8-77.7c0-3.5,0.2-7,0.6-10.3c-27.7,15.3-46.4,44.7-46.4,78.5
		c0,3.1,0.2,6.2,0.5,9.2c13.3,7.8,28.8,12.3,45.3,12.3C171.5,255.6,186.8,251.2,200,243.6z"/>
	<path class="st1" d="M334.5,165.9c0-49.5-40.2-89.7-89.7-89.7c-16.3,0-31.6,4.4-44.8,12c24.3,14.1,41.4,39.2,44.4,68.5
		c26.5,15.6,44.4,44.4,44.4,77.4c0,3.5-0.2,7-0.6,10.3C315.8,229.2,334.5,199.7,334.5,165.9z"/>
	<path class="st0" d="M155.8,155.6c12.8-7.1,27.6-11.1,43.3-11.1c16.5,0,32,4.5,45.3,12.3c-3-29.3-20.1-54.4-44.4-68.5
		C176,102.1,159.1,126.7,155.8,155.6z"/>
	<path class="st1" d="M244.4,156.7c0.3,3,0.5,6.1,0.5,9.2c0,33.2-18,62.1-44.8,77.7c13.2,7.6,28.5,12,44.8,12
		c15.7,0,30.5-4,43.3-11.1c0.4-3.4,0.6-6.8,0.6-10.3C288.8,201.1,270.9,172.3,244.4,156.7z"/>
</g>
</svg>
