<?xml version="1.0" standalone="no"?>
<!DOCTYPE svg PUBLIC "-//W3C//DTD SVG 20010904//EN"
 "http://www.w3.org/TR/2001/REC-SVG-20010904/DTD/svg10.dtd">
<svg version="1.0" xmlns="http://www.w3.org/2000/svg"
 width="260.000000pt" height="260.000000pt" viewBox="0 0 260.000000 260.000000"
 preserveAspectRatio="xMidYMid meet">
<metadata>
Created by potrace 1.11, written by Peter Selinger 2001-2013
</metadata>
<g transform="translate(0.000000,260.000000) scale(0.100000,-0.100000)"
fill="#000000" stroke="none">
<path d="M428 2587 c11 -13 251 -718 278 -815 16 -59 51 -133 68 -144 6 -4 23
-8 38 -8 52 0 53 6 55 513 l3 467 -226 0 c-186 0 -224 -2 -216 -13z"/>
<path d="M1248 1305 l2 -1295 -25 0 -25 0 -2 1245 c-3 1095 -5 1247 -18 1255
-8 5 -64 10 -123 10 l-108 0 -15 -35 c-11 -28 -14 -113 -14 -479 0 -279 -4
-447 -10 -451 -17 -11 -171 -8 -182 3 -6 6 -30 66 -53 134 -24 68 -48 137 -54
153 -6 17 -57 167 -112 335 -55 168 -109 313 -119 324 -19 19 -52 23 -193 18
-72 -2 -78 -4 -89 -27 -12 -26 2 -92 36 -170 13 -30 21 -53 96 -280 22 -66 54
-160 70 -210 35 -104 36 -121 12 -134 -15 -8 -21 -1 -41 57 -13 37 -29 81 -36
97 -7 17 -38 109 -70 205 -31 96 -67 202 -79 235 -38 101 -67 188 -78 233 -5
23 -12 42 -14 42 -2 0 -4 -578 -4 -1285 l0 -1285 303 1 c175 1 281 5 252 9
-114 17 -184 53 -281 143 -81 75 -128 171 -185 377 -8 28 -14 132 -16 272 -3
187 -1 233 12 264 8 20 15 53 15 73 0 44 58 188 104 256 52 78 107 127 192
170 90 45 94 49 94 90 0 28 -38 163 -59 210 -5 11 -23 61 -40 110 -62 183
-109 316 -115 322 -3 4 -6 21 -6 40 0 26 4 33 20 33 23 0 44 -37 76 -135 24
-75 165 -482 183 -528 9 -23 41 -150 41 -162 0 -2 -8 -4 -17 -4 -155 0 -349
-180 -402 -371 -7 -25 -17 -60 -23 -79 -6 -19 -16 -76 -22 -127 -36 -277 28
-568 156 -718 62 -73 160 -133 238 -148 116 -21 186 -27 321 -28 134 0 148 2
170 21 l24 21 5 1126 c5 1119 5 1127 25 1127 20 0 20 -8 23 -1183 l2 -1182
135 0 c131 0 135 1 125 19 -7 13 -10 435 -10 1295 l0 1276 30 0 30 0 0 -1241
c0 -836 3 -1247 10 -1260 10 -17 22 -19 120 -19 l108 0 21 34 c20 33 21 45 21
490 l0 456 93 0 93 0 21 -52 c12 -29 31 -84 43 -123 13 -38 28 -81 35 -95 7
-14 29 -79 50 -145 35 -114 60 -188 99 -300 10 -27 23 -68 30 -90 6 -22 17
-50 24 -62 6 -12 12 -29 12 -38 0 -9 13 -30 29 -46 29 -29 31 -29 143 -29 75
0 118 4 126 12 21 21 13 76 -33 211 -96 281 -177 529 -182 562 -4 27 -2 36 12
41 10 4 20 1 25 -6 5 -8 41 -113 80 -234 40 -122 80 -241 90 -266 10 -25 39
-108 65 -185 26 -77 51 -147 56 -155 5 -9 9 529 9 1268 l0 1282 -292 -1 c-171
-1 -278 -5 -258 -9 82 -19 141 -39 155 -54 9 -9 23 -16 31 -16 16 0 136 -118
156 -153 55 -100 99 -205 109 -262 4 -27 13 -75 19 -105 14 -66 8 -440 -8
-485 -6 -16 -19 -61 -28 -100 -43 -178 -145 -314 -289 -384 -52 -26 -86 -49
-90 -61 -7 -21 1 -73 16 -100 4 -8 20 -53 35 -100 14 -47 35 -107 45 -135 11
-27 28 -79 38 -115 11 -36 34 -103 52 -150 41 -109 43 -135 9 -135 -23 0 -27
8 -53 90 -16 50 -35 102 -43 117 -8 14 -14 33 -14 42 0 9 -4 24 -10 34 -10 19
-88 245 -125 362 -12 41 -30 97 -39 123 -17 53 -18 51 49 62 22 4 57 15 79 26
22 10 46 19 53 19 8 0 16 7 20 15 3 9 18 22 34 30 32 17 103 113 144 195 112
222 115 619 6 864 -26 61 -105 170 -137 191 -14 9 -33 24 -42 33 -20 19 -105
54 -175 71 -27 6 -132 11 -252 11 -199 0 -204 0 -219 -22 -14 -20 -16 -146
-16 -1155 l0 -1133 -30 0 -30 0 0 1179 c0 776 3 1182 10 1186 30 19 -2 25
-127 25 l-138 0 3 -1295z m824 1018 c6 -7 19 -13 28 -13 32 0 134 -76 157
-116 61 -107 72 -135 89 -214 28 -133 29 -274 4 -391 -11 -54 -29 -117 -40
-141 -38 -85 -147 -175 -240 -198 -25 -6 -123 -14 -217 -17 l-173 -6 0 35 0
35 173 6 c144 6 179 10 212 27 22 11 45 20 51 20 7 0 42 29 78 64 57 56 68 73
88 138 20 63 23 94 23 223 0 181 -20 259 -89 352 -72 98 -169 133 -356 129
-95 -2 -103 -4 -121 -27 -22 -28 -24 -56 -7 -111 13 -45 18 -47 148 -52 120
-6 188 -17 220 -39 14 -9 39 -42 55 -74 28 -54 30 -65 29 -163 -1 -92 -5 -112
-28 -160 -21 -45 -37 -62 -89 -95 l-62 -40 -162 -3 -161 -3 -5 38 c-8 51 -8
189 -1 236 4 27 11 37 24 37 16 0 18 -11 22 -94 4 -129 11 -136 133 -136 99 0
177 18 217 50 30 23 68 122 68 177 0 65 -51 163 -83 163 -6 0 -19 8 -30 18
-16 14 -44 18 -182 20 l-163 4 -6 51 c-8 67 -6 192 3 237 5 28 13 36 36 42 53
12 343 4 357 -9z m-1162 -958 c17 -11 11 -54 -9 -65 -12 -6 -85 -10 -174 -9
-138 0 -159 -2 -193 -20 -21 -12 -44 -21 -50 -21 -11 0 -42 -23 -78 -57 -40
-40 -76 -104 -96 -174 -52 -185 -30 -383 57 -530 64 -106 170 -149 371 -149
85 0 96 2 113 23 21 26 26 102 7 142 -11 25 -13 25 -119 25 -185 0 -246 22
-296 108 -26 44 -28 54 -28 167 0 111 2 124 28 173 15 28 31 52 35 52 5 0 18
9 30 20 11 11 46 29 75 40 47 18 74 20 193 18 l139 -3 3 -153 3 -153 -23 3
c-22 3 -23 8 -28 101 -4 78 -9 101 -22 111 -22 16 -211 13 -265 -4 -46 -16
-97 -69 -112 -120 -17 -56 -13 -139 8 -186 13 -28 33 -49 67 -70 48 -28 53
-29 212 -32 l162 -4 0 -158 c0 -128 -3 -160 -15 -170 -20 -17 -379 -10 -397 8
-7 7 -20 12 -30 12 -10 0 -18 5 -18 10 0 6 -6 10 -14 10 -26 0 -115 100 -146
166 -87 181 -89 511 -5 688 25 53 115 146 141 146 6 0 17 6 23 14 7 8 44 20
84 26 40 7 81 16 92 20 23 8 261 4 275 -5z"/>
<path d="M1742 950 c-9 -15 -12 -132 -12 -485 l0 -465 220 0 c121 0 220 2 220
5 0 3 -4 13 -10 23 -5 9 -55 154 -110 322 -55 168 -105 313 -110 322 -5 10
-14 34 -19 55 -25 98 -75 220 -96 235 -21 15 -70 8 -83 -12z"/>
</g>
</svg>
