<svg width="24" height="24" viewBox="0 0 24 24" fill="none" xmlns="http://www.w3.org/2000/svg">
<g clip-path="url(#clip0)">
<path d="M5.22997 10.64C5.31392 10.7413 5.41702 10.825 5.53337 10.8863C5.64972 10.9477 5.77702 10.9855 5.908 10.9975C6.03898 11.0096 6.17105 10.9957 6.29665 10.9567C6.42226 10.9176 6.53892 10.8542 6.63997 10.77L11 7.14L11 19C11 19.2652 11.1053 19.5196 11.2929 19.7071C11.4804 19.8946 11.7348 20 12 20C12.2652 20 12.5195 19.8946 12.7071 19.7071C12.8946 19.5196 13 19.2652 13 19L13 7.14L17.36 10.77C17.4611 10.854 17.5778 10.9174 17.7034 10.9563C17.8289 10.9953 17.961 11.0091 18.0919 10.997C18.2228 10.9849 18.3501 10.9472 18.4664 10.8859C18.5828 10.8247 18.6859 10.7411 18.77 10.64C18.854 10.5389 18.9173 10.4222 18.9563 10.2966C18.9952 10.171 19.0091 10.039 18.997 9.90808C18.9849 9.77715 18.9472 9.64987 18.8859 9.53353C18.8247 9.41719 18.7411 9.31405 18.64 9.23L12.64 4.23L12.49 4.14L12.36 4.07C12.1283 3.9806 11.8716 3.9806 11.64 4.07L11.51 4.14L11.36 4.23L5.35997 9.23C5.25871 9.31395 5.17501 9.41705 5.11366 9.5334C5.05231 9.64974 5.01451 9.77705 5.00243 9.90803C4.99036 10.039 5.00424 10.1711 5.04329 10.2967C5.08233 10.4223 5.14577 10.539 5.22997 10.64Z" fill="white" fill-opacity="0.95"/>
</g>
<defs>
<clipPath id="clip0">
<rect width="24" height="24" fill="white"/>
</clipPath>
</defs>
</svg>
