<svg width="24" height="24" viewBox="0 0 24 24" fill="none" xmlns="http://www.w3.org/2000/svg">
<path d="M10.75 18.5C10.5511 18.5 10.3603 18.421 10.2197 18.2803C10.079 18.1397 10 17.9489 10 17.75C10 17.5511 10.079 17.3603 10.2197 17.2197C10.3603 17.079 10.5511 17 10.75 17H21.25C21.4489 17 21.6397 17.079 21.7803 17.2197C21.921 17.3603 22 17.5511 22 17.75C22 17.9489 21.921 18.1397 21.7803 18.2803C21.6397 18.421 21.4489 18.5 21.25 18.5H10.75ZM2.75 12.5C2.55109 12.5 2.36032 12.421 2.21967 12.2803C2.07902 12.1397 2 11.9489 2 11.75C2 11.5511 2.07902 11.3603 2.21967 11.2197C2.36032 11.079 2.55109 11 2.75 11H21.25C21.4489 11 21.6397 11.079 21.7803 11.2197C21.921 11.3603 22 11.5511 22 11.75C22 11.9489 21.921 12.1397 21.7803 12.2803C21.6397 12.421 21.4489 12.5 21.25 12.5H2.75ZM2.75 6.5C2.55109 6.5 2.36032 6.42098 2.21967 6.28033C2.07902 6.13968 2 5.94891 2 5.75C2 5.55109 2.07902 5.36032 2.21967 5.21967C2.36032 5.07902 2.55109 5 2.75 5H13.25C13.4489 5 13.6397 5.07902 13.7803 5.21967C13.921 5.36032 14 5.55109 14 5.75C14 5.94891 13.921 6.13968 13.7803 6.28033C13.6397 6.42098 13.4489 6.5 13.25 6.5H2.75Z" fill="white"/>
</svg>
