<svg width="22" height="21" viewBox="0 0 22 21" fill="none" xmlns="http://www.w3.org/2000/svg">
<path d="M3.67152 3.47413L3.84079 3.66591L3.84059 3.66609L4.30327 4.19138L5.67558 5.74941L5.84391 5.94053L5.84286 5.94146L6.30582 6.46708L6.48991 6.67608L6.80997 7.03946L7.26287 6.86813C7.97697 6.598 8.76327 6.60116 9.46533 6.86965L7.69608 8.428L7.64791 8.47043L7.17079 8.89067L7.12262 8.9331L5.35337 10.4914C5.17566 9.76111 5.2718 8.9807 5.62993 8.30642L5.85706 7.87877L5.53701 7.5154L5.35478 7.3085L4.89239 6.78354L4.89133 6.78447L4.72056 6.59058L3.34825 5.03255L3.1787 4.84005L3.17925 4.83957L2.71554 4.31421L1.84627 3.32937L2.80128 2.4882L3.67152 3.47413ZM4.90164 10.8893L4.9013 10.8896L5.1787 11.2046L4.9013 10.8896C4.90141 10.8895 4.90152 10.8894 4.90164 10.8893Z" stroke="white" stroke-opacity="0.95" stroke-width="1.4"/>
<path d="M5.99819 16.1088L5.99609 16.096C5.99392 16.0831 5.99024 16.062 5.98485 16.0339C5.97406 15.9776 5.95659 15.8942 5.93103 15.7928C5.87917 15.5872 5.79761 15.3224 5.67853 15.0655C5.41562 14.4983 5.11491 14.2501 4.78898 14.2501C4.78949 14.2501 4.78932 14.2501 4.78844 14.2502C4.7795 14.2516 4.69791 14.2639 4.52916 14.3706C4.35459 14.4811 4.14384 14.6564 3.90486 14.8976C3.42797 15.379 2.90888 16.0511 2.42347 16.7766C1.94035 17.4987 1.50688 18.2493 1.19725 18.8735C1.04212 19.1862 0.923094 19.4571 0.84473 19.6703C0.776298 19.8565 0.75705 19.9514 0.751844 19.977C0.750322 19.9845 0.75 19.9861 0.75 19.9823C0.750004 20.125 0.780017 20.1819 0.787098 20.1941C0.79427 20.2065 0.801731 20.2139 0.816611 20.2224C0.83612 20.2336 0.862581 20.2425 0.88887 20.2475C0.895663 20.2488 0.901119 20.2496 0.904762 20.2501H0.934316L1.07437 20.2501L1.60871 20.2501L3.53905 20.25L9.60428 20.25L20.6161 20.2501C20.8539 20.2501 20.9553 20.1882 21.0052 20.1442C21.0648 20.0915 21.1425 19.9816 21.1951 19.7497C21.3067 19.2584 21.2461 18.4932 21.036 17.551C20.6327 15.7425 19.7798 13.6933 19.3673 12.7023C19.3579 12.6798 19.3488 12.6579 19.3399 12.6365C19.3023 12.546 19.263 12.4509 19.2221 12.3518C18.8222 11.3826 18.2654 10.033 17.4966 8.87581C16.6302 7.57159 15.652 6.75006 14.5454 6.75006C14.3717 6.75006 14.1115 6.82552 13.7551 7.05796C13.4052 7.28617 13.0175 7.62987 12.6043 8.07364C11.7783 8.96078 10.9258 10.1653 10.1482 11.3998C9.374 12.6287 8.69025 13.8612 8.19914 14.7886C7.95392 15.2516 7.75751 15.6371 7.62271 15.9063C7.55533 16.0408 7.50338 16.1461 7.46848 16.2174L7.42913 16.2982L7.41942 16.3183L7.41713 16.3231L7.41663 16.3241L7.41657 16.3243L5.99819 16.1088ZM5.99819 16.1088L5.99821 16.109C5.99835 16.11 5.99844 16.1105 5.99846 16.1106L5.99839 16.1102L5.9983 16.1096L5.99825 16.1092M5.99819 16.1088L5.99825 16.1092M5.99825 16.1092C6.04625 16.4354 6.30164 16.692 6.62762 16.7416C6.95374 16.7911 7.27394 16.6217 7.41655 16.3243L5.99825 16.1092Z" stroke="white" stroke-opacity="0.95" stroke-width="1.5" stroke-linecap="round" stroke-linejoin="round"/>
</svg>
