<svg width="20" height="20" viewBox="0 0 20 20" fill="none" xmlns="http://www.w3.org/2000/svg">
<path d="M13.4308 12.4667L17.3 16.3333C17.3635 16.3968 17.4138 16.4722 17.4482 16.5551C17.4825 16.638 17.5002 16.7269 17.5002 16.8167C17.5002 16.9064 17.4825 16.9953 17.4482 17.0783C17.4138 17.1612 17.3635 17.2365 17.3 17.3C17.2365 17.3635 17.1612 17.4138 17.0783 17.4482C16.9953 17.4825 16.9064 17.5002 16.8167 17.5002C16.7269 17.5002 16.638 17.4825 16.5551 17.4482C16.4722 17.4138 16.3968 17.3635 16.3333 17.3L12.4667 13.4308C11.2414 14.4097 9.6879 14.8822 8.12515 14.7514C6.56239 14.6206 5.10903 13.8964 4.06355 12.7275C3.01807 11.5586 2.45983 10.0338 2.50348 8.46616C2.54712 6.89855 3.18935 5.40714 4.29825 4.29825C5.40714 3.18935 6.89855 2.54712 8.46616 2.50348C10.0338 2.45983 11.5586 3.01807 12.7275 4.06355C13.8964 5.10903 14.6206 6.56239 14.7514 8.12515C14.8822 9.6879 14.4097 11.2414 13.4308 12.4667ZM8.63667 13.4092C9.58055 13.409 10.5032 13.129 11.2879 12.6045C12.0726 12.0799 12.6842 11.3345 13.0453 10.4625C13.4064 9.59038 13.5008 8.63082 13.3165 7.7051C13.1323 6.77938 12.6777 5.92908 12.0102 5.26171C11.3427 4.59435 10.4924 4.1399 9.5666 3.95582C8.64085 3.77174 7.6813 3.8663 6.80929 4.22754C5.93728 4.58878 5.19197 5.20049 4.66759 5.9853C4.14322 6.77012 3.86334 7.6928 3.86334 8.63667C3.86334 9.26348 3.98681 9.88414 4.22671 10.4632C4.4666 11.0423 4.81821 11.5685 5.26147 12.0116C5.70472 12.4548 6.23094 12.8063 6.81006 13.0461C7.38918 13.2859 8.00987 13.4093 8.63667 13.4092Z" fill="white"/>
<path d="M17.4061 16.2273L17.406 16.2272L13.6308 12.4544C14.5773 11.2163 15.0311 9.66891 14.9009 8.11263C14.7669 6.51167 14.0249 5.02279 12.8275 3.95175C11.63 2.88071 10.0679 2.30882 8.46199 2.35354C6.85605 2.39825 5.32819 3.05617 4.19218 4.19218C3.05617 5.32819 2.39825 6.85605 2.35354 8.46199C2.30882 10.0679 2.88071 11.63 3.95175 12.8275C5.02279 14.0249 6.51167 14.7669 8.11263 14.9009C9.66891 15.0311 11.2163 14.5773 12.4544 13.6308L16.2272 17.406L16.2273 17.4061C16.3047 17.4835 16.3966 17.5449 16.4977 17.5868C16.5988 17.6287 16.7072 17.6502 16.8167 17.6502C16.9261 17.6502 17.0345 17.6287 17.1357 17.5868C17.2368 17.5449 17.3287 17.4835 17.4061 17.4061C17.4835 17.3287 17.5449 17.2368 17.5868 17.1357C17.6287 17.0345 17.6502 16.9261 17.6502 16.8167C17.6502 16.7072 17.6287 16.5988 17.5868 16.4977C17.5449 16.3966 17.4835 16.3047 17.4061 16.2273ZM11.2046 12.4798C10.4445 12.9878 9.55086 13.259 8.63665 13.2592C8.02955 13.2593 7.42837 13.1398 6.86745 12.9075C6.30653 12.6753 5.79685 12.3348 5.36753 11.9056C4.9382 11.4763 4.59764 10.9667 4.36529 10.4058C4.13293 9.84493 4.01334 9.24378 4.01334 8.63667C4.01334 7.72247 4.28443 6.82878 4.79232 6.06863C5.30021 5.30849 6.0221 4.71601 6.8667 4.36612C7.71131 4.01623 8.64069 3.92464 9.53735 4.10294C10.434 4.28123 11.2577 4.7214 11.9042 5.36779C12.5507 6.01418 12.991 6.83775 13.1694 7.73438C13.3479 8.631 13.2564 9.5604 12.9067 10.4051C12.557 11.2497 11.9646 11.9717 11.2046 12.4798Z" stroke="white" stroke-opacity="0.95" stroke-width="0.3"/>
</svg>
