<svg width="21" height="17" viewBox="0 0 21 17" fill="none" xmlns="http://www.w3.org/2000/svg">
<g clip-path="url(#clip0)">
<path d="M1.04913 17H19.9491C20.3334 17 20.6868 16.7878 20.8708 16.4465L1.04913 17ZM1.04913 17C0.860567 17 0.675478 16.9487 0.513298 16.8513M1.04913 17L0.513298 16.8513M0.513298 16.8513C0.351117 16.754 0.217827 16.6143 0.127423 16.4468L0.513298 16.8513ZM20.1994 15.7653L20.1995 15.7654C20.2296 15.8128 20.247 15.8683 20.249 15.926C20.2511 15.9838 20.2377 16.0406 20.2108 16.0903L20.2107 16.0905C20.156 16.1919 20.0545 16.25 19.9491 16.25H1.04913H1.04903C0.996913 16.25 0.945202 16.2358 0.899243 16.2083C0.853273 16.1807 0.814347 16.1404 0.787488 16.0907C0.760608 16.0409 0.747179 15.984 0.749227 15.9262C0.751276 15.8684 0.768684 15.8128 0.79885 15.7653L0.798867 15.7653L10.2488 0.89033C10.2488 0.890307 10.2489 0.890284 10.2489 0.89026C10.3061 0.800313 10.4013 0.75 10.4991 0.75C10.597 0.75 10.6922 0.800314 10.7494 0.89026C10.7494 0.890283 10.7494 0.890306 10.7494 0.890329L20.1994 15.7653ZM11.1322 2.62527L10.4991 1.62885L9.86607 2.62529L6.51723 7.89661L6.19682 8.40097L6.61682 8.82597L7.86567 10.0897L8.39913 10.6295L8.93258 10.0897L10.8124 8.1875H13.301H14.6661L13.934 7.03531L11.1322 2.62527Z" stroke="white" stroke-opacity="0.95" stroke-width="1.5"/>
</g>
<defs>
<clipPath id="clip0">
<rect width="21" height="17" fill="white"/>
</clipPath>
</defs>
</svg>
