<?xml version="1.0" encoding="UTF-8" standalone="no"?>
<!-- Created with Inkscape (http://www.inkscape.org/) -->

<svg
   xmlns:dc="http://purl.org/dc/elements/1.1/"
   xmlns:cc="http://creativecommons.org/ns#"
   xmlns:rdf="http://www.w3.org/1999/02/22-rdf-syntax-ns#"
   xmlns:svg="http://www.w3.org/2000/svg"
   xmlns="http://www.w3.org/2000/svg"
   xmlns:sodipodi="http://sodipodi.sourceforge.net/DTD/sodipodi-0.dtd"
   xmlns:inkscape="http://www.inkscape.org/namespaces/inkscape"
   width="116.3147mm"
   height="87.036568mm"
   viewBox="0 0 116.3147 87.036568"
   version="1.1"
   id="svg1847"
   inkscape:version="0.92.2 (5c3e80d, 2017-08-06)"
   sodipodi:docname="burgerWhite.svg">
  <defs
     id="defs1841">
    <clipPath
       clipPathUnits="userSpaceOnUse"
       id="clipPath2405">
      <rect
         style="opacity:1;fill:#333d5a;fill-opacity:1;stroke:none;stroke-width:0.8691563;stroke-linecap:round;stroke-linejoin:round;stroke-miterlimit:4;stroke-dasharray:none;stroke-dashoffset:0;stroke-opacity:1"
         id="rect2407"
         width="198.04671"
         height="165.17258"
         x="16.036171"
         y="28.928667"
         rx="4.2333331"
         ry="4.2333331" />
    </clipPath>
    <clipPath
       clipPathUnits="userSpaceOnUse"
       id="clipPath9582">
      <rect
         style="opacity:1;fill:#ffffff;fill-opacity:1;stroke:none;stroke-width:1.32291663;stroke-linecap:round;stroke-linejoin:round;stroke-miterlimit:4;stroke-dasharray:none;stroke-dashoffset:0;stroke-opacity:1"
         id="rect9584"
         width="40.691788"
         height="204.86209"
         x="-113.18864"
         y="-139.82961"
         rx="0.14210717"
         ry="0.079697266" />
    </clipPath>
    <clipPath
       clipPathUnits="userSpaceOnUse"
       id="clipPath9582-5">
      <rect
         style="opacity:1;fill:#ffffff;fill-opacity:1;stroke:none;stroke-width:1.32291663;stroke-linecap:round;stroke-linejoin:round;stroke-miterlimit:4;stroke-dasharray:none;stroke-dashoffset:0;stroke-opacity:1"
         id="rect9584-0"
         width="40.691788"
         height="204.86209"
         x="-113.18864"
         y="-139.82961"
         rx="0.14210717"
         ry="0.079697266" />
    </clipPath>
  </defs>
  <sodipodi:namedview
     id="base"
     pagecolor="#ffffff"
     bordercolor="#666666"
     borderopacity="1.0"
     inkscape:pageopacity="0.0"
     inkscape:pageshadow="2"
     inkscape:zoom="1.4"
     inkscape:cx="25.214011"
     inkscape:cy="122.0094"
     inkscape:document-units="mm"
     inkscape:current-layer="layer1"
     showgrid="false"
     inkscape:window-width="2560"
     inkscape:window-height="1377"
     inkscape:window-x="2552"
     inkscape:window-y="-8"
     inkscape:window-maximized="1"
     fit-margin-top="0"
     fit-margin-left="0"
     fit-margin-right="0"
     fit-margin-bottom="0" />
  <metadata
     id="metadata1844">
    <rdf:RDF>
      <cc:Work
         rdf:about="">
        <dc:format>image/svg+xml</dc:format>
        <dc:type
           rdf:resource="http://purl.org/dc/dcmitype/StillImage" />
        <dc:title></dc:title>
      </cc:Work>
    </rdf:RDF>
  </metadata>
  <g
     inkscape:label="Layer 1"
     inkscape:groupmode="layer"
     id="layer1"
     transform="translate(-44.938405,-72.072879)">
    <path
       style="fill:#ffffff;stroke-width:0.18033481;fill-opacity:1"
       d="M 75.797802,159.00112 C 65.26914,158.09325 56.39407,151.67878 52.26625,141.99368 c -1.210192,-2.83949 -2.164046,-7.20174 -2.165648,-9.90419 l -5.08e-4,-0.85659 h 35.028496 35.0285 l 3.83365,3.83054 3.83366,3.83055 3.83365,-3.83055 3.83365,-3.83054 h 10.34974 10.34975 l -0.12023,1.8346 c -0.31782,4.8496 -1.88481,9.45794 -4.65528,13.69067 -1.53242,2.34123 -5.20633,6.0009 -7.63944,7.60984 -3.25275,2.15091 -6.74157,3.56788 -10.63196,4.3181 -1.96096,0.37815 -2.29162,0.38295 -28.85358,0.41875 -14.778436,0.0199 -27.600241,-0.0268 -28.492898,-0.10374 z M 48.422617,125.7428 c -1.728779,-0.61664 -3.013484,-2.07067 -3.377101,-3.8222 -0.377823,-1.81996 0.253953,-3.60743 1.736186,-4.91214 1.561478,-1.37447 -0.56232,-1.28435 30.267277,-1.28435 h 27.604771 l 5.13716,5.13954 5.13718,5.13954 -32.909924,-0.008 c -27.229376,-0.007 -33.02826,-0.0501 -33.595549,-0.25247 z m 97.435263,-4.88553 5.13955,-5.15587 3.24602,0.0638 c 3.66678,0.0721 4.05643,0.17312 5.38317,1.39606 1.14866,1.0588 1.62304,2.13865 1.62646,3.70239 0.005,2.0505 -0.96926,3.6526 -2.82163,4.6424 -0.7553,0.40359 -0.83219,0.40739 -9.23737,0.45703 l -8.47574,0.0501 z M 50.161869,108.58898 c 0.726225,-11.869231 9.144387,-22.794421 22.824587,-29.622002 6.750335,-3.368997 13.632446,-5.415128 21.746501,-6.465491 3.60667,-0.46689 12.295843,-0.667342 16.771143,0 14.03605,1.81697 26.40748,7.350741 34.54182,15.450649 6.09632,6.070502 9.57613,13.230774 10.02927,20.636844 l 0.11659,1.90542 H 103.11853 50.045284 Z m 83.890521,-3.74376 c 2.00479,-0.77527 2.19932,-2.26825 0.41115,-3.15556 -0.95011,-0.47147 -2.72952,-0.57691 -3.66362,-0.2171 -1.91118,0.73616 -2.01644,2.4425 -0.20152,3.26669 0.8481,0.38513 2.59359,0.43869 3.45399,0.10597 z m -27.54041,-2.15273 c 0.56981,-0.4729 0.98741,-1.66873 0.99083,-2.837318 0.008,-2.610543 -1.58304,-4.091843 -2.93847,-2.736413 -1.25609,1.25608 -1.1999,4.099881 0.10684,5.406611 0.50745,0.50745 0.69933,0.59233 1.10749,0.48989 0.27153,-0.0682 0.60152,-0.2134 0.73331,-0.32277 z m -21.700759,-0.33053 c 0.914557,-0.42989 1.991525,-1.53694 2.365197,-2.431268 0.38865,-0.93016 0.31913,-1.649293 -0.210661,-2.179083 -0.398995,-0.399 -0.565074,-0.44743 -1.191106,-0.34732 -1.270238,0.20312 -2.245463,0.90993 -3.157937,2.288783 -0.646145,0.976388 -0.683473,2.214498 -0.08146,2.702108 0.552179,0.44724 1.27632,0.43667 2.27597,-0.0332 z m -18.06025,-0.49037 c 0.823337,-0.90978 0.419425,-2.887288 -0.886392,-4.339671 -1.154822,-1.28444 -2.374965,-1.52272 -3.075534,-0.60062 -0.548476,0.72192 -0.166613,2.734743 0.745755,3.930921 0.955389,1.25257 2.544677,1.75135 3.216171,1.00937 z m 76.627309,-6.011971 c 0.39,-0.4609 0.413,-1.634586 0.0521,-2.657556 -0.91381,-2.590012 -3.60245,-3.679491 -4.24861,-1.721604 -0.36208,1.097106 0.20029,2.772273 1.2998,3.87177 1.10121,1.10122 2.22735,1.29847 2.89674,0.50739 z m -20.15242,-2.451044 c 1.16444,-0.40871 2.54497,-1.74426 2.70948,-2.621215 0.42131,-2.245719 -3.02535,-2.35773 -5.00417,-0.162625 -1.8556,2.0584 -0.4605,3.75088 2.29469,2.78384 z M 78.656147,90.079764 c 1.025964,-1.255948 -1.099515,-4.356341 -3.264995,-4.762591 -2.068142,-0.387982 -2.408941,2.073974 -0.545096,3.937824 1.38388,1.383881 3.057425,1.746147 3.810091,0.824767 z m 18.44411,-3.656795 c 2.5166,-0.747353 2.27615,-2.940324 -0.38778,-3.536481 -1.793873,-0.401451 -3.892988,0.306724 -4.169014,1.406502 -0.172777,0.688403 0.131488,1.341759 0.809164,1.737539 1.153552,0.673715 2.371133,0.801211 3.74763,0.39244 z M 115.986,81.958005 c 0.46873,-0.565358 0.3083,-1.7647 -0.36402,-2.721285 -1.44733,-2.059313 -3.85144,-2.755786 -4.54164,-1.315729 -0.41088,0.857278 0.0241,1.989914 1.22435,3.187846 1.44787,1.445101 2.90798,1.78191 3.68131,0.849168 z"
       id="path2409"
       inkscape:connector-curvature="0"
       sodipodi:nodetypes="ccsccccccccccccccccssscccccccccccccccssccsscccsccccccccscccccascccccsccccccscaccaccaccsccccsccc" />
  </g>
</svg>
