<svg width="982" height="691" viewBox="0 0 982 691" fill="none" xmlns="http://www.w3.org/2000/svg">
<path d="M426 453.564C395.405 567.152 330.637 666.564 213 666.564C95.3633 666.564 0 571.2 0 453.564C0 335.927 123.99 317.476 213 240.564C393.754 84.3775 521.011 100.817 426 453.564Z" fill="#F2F2F2"/>
<path d="M488.402 173C525.958 173 556.402 142.555 556.402 105C556.402 67.4446 525.958 37 488.402 37C450.847 37 420.402 67.4446 420.402 105C420.402 142.555 450.847 173 488.402 173Z" fill="#FFE7BA"/>
<path d="M611.402 10H575.402V46H611.402V10Z" fill="#FFE7BA"/>
<path d="M215.598 690.127C309.486 690.127 385.598 679.773 385.598 667C385.598 654.227 309.486 643.873 215.598 643.873C121.709 643.873 45.5977 654.227 45.5977 667C45.5977 679.773 121.709 690.127 215.598 690.127Z" fill="#3F3D56"/>
<path d="M918 125H263V252H918V125Z" fill="#077BAD"/>
<path d="M206.402 633C250.033 633 285.402 597.63 285.402 554C285.402 510.37 250.033 475 206.402 475C162.772 475 127.402 510.37 127.402 554C127.402 597.63 162.772 633 206.402 633Z" fill="#2F2E41"/>
<path d="M194.402 616H170.402V659H194.402V616Z" fill="#2F2E41"/>
<path d="M242.402 616H218.402V659H242.402V616Z" fill="#2F2E41"/>
<path d="M190.402 667C201.448 667 210.402 663.642 210.402 659.5C210.402 655.358 201.448 652 190.402 652C179.357 652 170.402 655.358 170.402 659.5C170.402 663.642 179.357 667 190.402 667Z" fill="#2F2E41"/>
<path d="M238.402 666C249.448 666 258.402 662.642 258.402 658.5C258.402 654.358 249.448 651 238.402 651C227.357 651 218.402 654.358 218.402 658.5C218.402 662.642 227.357 666 238.402 666Z" fill="#2F2E41"/>
<path d="M208.402 561C223.314 561 235.402 548.912 235.402 534C235.402 519.088 223.314 507 208.402 507C193.491 507 181.402 519.088 181.402 534C181.402 548.912 193.491 561 208.402 561Z" fill="white"/>
<path d="M208.402 543C213.373 543 217.402 538.971 217.402 534C217.402 529.029 213.373 525 208.402 525C203.432 525 199.402 529.029 199.402 534C199.402 538.971 203.432 543 208.402 543Z" fill="#3F3D56"/>
<path d="M129.769 480.532C123.391 451.965 143.781 423.098 175.313 416.057C206.846 409.017 237.579 426.467 243.957 455.035C250.336 483.603 229.439 494.139 197.907 501.18C166.375 508.221 136.148 509.1 129.769 480.532Z" fill="#077BAD"/>
<path d="M179.402 406C223.033 406 258.402 370.63 258.402 327C258.402 283.37 223.033 248 179.402 248C135.772 248 100.402 283.37 100.402 327C100.402 370.63 135.772 406 179.402 406Z" fill="#2F2E41"/>
<path d="M167.402 389H143.402V432H167.402V389Z" fill="#2F2E41"/>
<path d="M215.402 389H191.402V432H215.402V389Z" fill="#2F2E41"/>
<path d="M163.402 440C174.448 440 183.402 436.642 183.402 432.5C183.402 428.358 174.448 425 163.402 425C152.357 425 143.402 428.358 143.402 432.5C143.402 436.642 152.357 440 163.402 440Z" fill="#2F2E41"/>
<path d="M211.402 439C222.448 439 231.402 435.642 231.402 431.5C231.402 427.358 222.448 424 211.402 424C200.357 424 191.402 427.358 191.402 431.5C191.402 435.642 200.357 439 211.402 439Z" fill="#2F2E41"/>
<path d="M181.402 334C196.314 334 208.402 321.912 208.402 307C208.402 292.088 196.314 280 181.402 280C166.491 280 154.402 292.088 154.402 307C154.402 321.912 166.491 334 181.402 334Z" fill="white"/>
<path d="M181.402 316C186.373 316 190.402 311.971 190.402 307C190.402 302.029 186.373 298 181.402 298C176.432 298 172.402 302.029 172.402 307C172.402 311.971 176.432 316 181.402 316Z" fill="#3F3D56"/>
<path d="M102.769 253.532C96.3906 224.965 116.781 196.098 148.313 189.057C179.846 182.017 210.579 199.467 216.957 228.035C223.336 256.603 202.439 267.139 170.907 274.18C139.375 281.22 109.148 282.1 102.769 253.532Z" fill="#077BAD"/>
<path d="M264.005 271.771C271.794 251.393 272.922 232.892 266.525 230.447C260.127 228.002 248.628 242.539 240.839 262.916C233.05 283.294 231.922 301.795 238.319 304.24C244.716 306.685 256.216 292.148 264.005 271.771Z" fill="#2F2E41"/>
<path d="M126.111 307.27C129.046 301.083 115.446 288.488 95.7358 279.14C76.0251 269.791 57.6674 267.229 54.7326 273.417C51.7978 279.604 65.3974 292.199 85.1081 301.548C104.819 310.896 123.177 313.458 126.111 307.27Z" fill="#2F2E41"/>
<path d="M140.598 355.5C140.598 363.232 160.506 378.5 182.598 378.5C204.689 378.5 225.402 356.732 225.402 349C225.402 341.268 204.689 350.5 182.598 350.5C160.506 350.5 140.598 347.768 140.598 355.5Z" fill="white"/>
<path d="M981 106H326V233H981V106Z" stroke="#3F3D56" stroke-miterlimit="10"/>
<path d="M623.402 1H587.402V37H623.402V1Z" stroke="#3F3D56" stroke-width="2" stroke-miterlimit="10"/>
</svg>
