<svg id="Layer_1" data-name="Layer 1" xmlns="http://www.w3.org/2000/svg" width="600" height="149.7" viewBox="0 0 600 149.7">
  <defs>
    <style>
      .cls-1 {
        fill: #5576ff;
      }

      .cls-2 {
        fill: #fff;
      }
    </style>
  </defs>
  <title>ghost_texts</title>
  <g>
    <path class="cls-1" d="M76.5,149.6A74.7,74.7,0,0,0,131,124.3l16.5,22.4a1.2,1.2,0,0,0,2.2-.7V75.7C149.7,35,117.6,1.1,76.9,0A74.9,74.9,0,0,0,0,75C.1,116.7,34.8,150.6,76.5,149.6Z"/>
    <path class="cls-2" d="M40.8,58.2a11.3,11.3,0,1,1,22.5,0,1.7,1.7,0,0,0,3.4,0,14.7,14.7,0,0,0-29.4,0C37.3,60.4,40.8,60.4,40.8,58.2Z"/>
    <circle class="cls-2" cx="97.6" cy="58.8" r="14.7"/>
    <path class="cls-2" d="M88.2,102.5c12-3.2,22.3-10.6,24.1-19.1a1.2,1.2,0,0,0-2.3,0c-2.5,7-10.1,11.7-20.3,13.9A68.4,68.4,0,0,1,75,98.8a68.7,68.7,0,0,1-14.8-1.5C50.1,95.1,42.4,90.4,40,83.4c0-1.4-2.4-1.4-2.4,0,1.8,8.5,12.1,15.8,24.1,19"/>
    <path class="cls-2" d="M88.2,97.6v7.5c0,8.1-6.1,12.2-13.4,12.2s-13.1-4.1-13.1-12.2V97.6A56.8,56.8,0,0,0,75,98.8,55.9,55.9,0,0,0,88.2,97.6Z"/>
    <g>
      <path class="cls-1" d="M211.9,75.8h18.9V98a28,28,0,0,1-22.3,10.4c-20.7,0-29.3-14.6-29.3-34.2s10.2-32.9,28.7-32.9,22.5,9,22.5,17.4h-3c0-8-5.9-14.6-20.1-14.6-16.8,0-24.9,14-24.9,30.1,0,20,9.4,31.4,25.7,31.4,8.4,0,14.4-2.8,20-8.7V78.5H211.9Z"/>
      <path class="cls-1" d="M247.6,42.3v26c3.9-4.9,9.4-9.3,16.3-9.3,10.6,0,14.1,7.3,14.1,18.5v29.8h-2.9V77.5c0-7.4-1.1-15.8-11.7-15.8-6.9,0-12,5.1-15.8,10.1v35.5h-2.8v-65Z"/>
      <path class="cls-1" d="M309.6,59c12.4,0,20.2,9.4,20.2,24.9s-7.8,24.5-20.2,24.5-19.9-9.6-19.9-24.5S297.1,59,309.6,59Zm0,46.8c9.6,0,17.2-7.1,17.2-21.9s-7.6-22.2-17.2-22.2-16.9,7.4-16.9,22.2S300,105.8,309.6,105.8Z"/>
      <path class="cls-1" d="M339.4,99.5c4.5,4,9.5,6.4,15.1,6.4,7.7,0,13.7-4,13.7-10.5S365,86.7,354.5,84s-14.8-6.2-14.8-12.8S345.8,59,354.9,59c6.5,0,11.5,2.1,15.6,6.9l-2,1.8a17.5,17.5,0,0,0-13.6-6.1c-7.5,0-12.2,3.4-12.2,9.4s4.4,8.3,13.4,10.7c11.1,2.9,15.1,6.7,15.1,13.4s-6.7,13.3-16.6,13.3a24.9,24.9,0,0,1-17.1-6.9Z"/>
      <path class="cls-1" d="M386.3,62.6V101c0,3.8,1.9,4.8,4.1,4.8a15.6,15.6,0,0,0,5.6-1.2l.7,2.3a17.3,17.3,0,0,1-7,1.5c-3.4,0-6.2-1.5-6.2-6.4V62.6h-5.6V60.8l5.6-.7.7-12h2.1v12H394v2.5Z"/>
      <path class="cls-1" d="M436,45H414.8V42.3h45.4V45H439.1v62.3H436Z"/>
      <path class="cls-1" d="M496.2,101.9a21.4,21.4,0,0,1-16.1,6.5c-12.2,0-20.4-7.4-20.4-24.5,0-15,7.8-24.9,20.1-24.9s17,7.6,17,23.6V84H462.6c0,13.3,5.5,21.8,17.6,21.8a18.9,18.9,0,0,0,14.3-5.8Zm-2.3-20.5c0-11.4-3.5-19.7-14.1-19.7-13.9,0-17.1,13.9-17.1,19.7Z"/>
      <path class="cls-1" d="M519.5,83.1l-15.9-23H507l14.3,20.7,13.8-20.7h3.4l-15.6,23,16.5,24.2h-3.5L521.2,85.4l-14.7,21.9h-3.3Z"/>
      <path class="cls-1" d="M552.2,62.6V101c0,3.8,1.9,4.8,4,4.8a15.2,15.2,0,0,0,5.6-1.2l.7,2.3a16.8,16.8,0,0,1-6.9,1.5c-3.4,0-6.2-1.5-6.2-6.4V62.6h-5.6V60.8l5.6-.7.7-12h2.1v12h7.6v2.5Z"/>
      <path class="cls-1" d="M568.1,99.5c4.6,4,9.6,6.4,15.2,6.4,7.7,0,13.7-4,13.7-10.5s-3.2-8.7-13.7-11.4-14.8-6.2-14.8-12.8,6-12.2,15.2-12.2c6.5,0,11.4,2.1,15.6,6.9l-2,1.8a17.5,17.5,0,0,0-13.6-6.1c-7.5,0-12.2,3.4-12.2,9.4s4.4,8.3,13.3,10.7c11.1,2.9,15.2,6.7,15.2,13.4s-6.8,13.3-16.6,13.3a25.1,25.1,0,0,1-17.2-6.9Z"/>
    </g>
  </g>
</svg>
