<svg width="1839" height="512" viewBox="0 0 1839 512" fill="none" xmlns="http://www.w3.org/2000/svg">
<rect x="16" y="50.5064" width="480" height="445.494" rx="34" stroke="#111111" stroke-width="32"/>
<line y1="161.195" x2="512" y2="161.195" stroke="#111111" stroke-width="32"/>
<rect x="45" y="231" width="188" height="32" rx="16" fill="#F0EB70"/>
<rect x="245" y="231" width="156" height="32" rx="16" fill="#7690B9"/>
<rect x="45" y="311" width="278" height="32" rx="16" fill="#7690B9"/>
<rect x="335" y="311" width="132" height="32" rx="16" fill="#F0EB70"/>
<rect x="45" y="391" width="94" height="32" rx="16" fill="#F0EB70"/>
<rect x="269" y="391" width="132" height="32" rx="16" fill="#7690B9"/>
<rect x="63" width="24" height="97.9235" rx="10" fill="#111111"/>
<rect x="433" width="24" height="97.9235" rx="10" fill="#111111"/>
<path d="M552.584 151.8H654.044C680.388 151.8 703.647 157.14 723.82 167.82C743.993 178.263 759.657 192.977 770.812 211.964C781.967 230.713 787.544 252.192 787.544 276.4C787.544 300.608 781.967 322.205 770.812 341.192C759.657 359.941 743.993 374.656 723.82 385.336C703.647 395.779 680.388 401 654.044 401H552.584V151.8ZM652.62 378.216C674.455 378.216 693.56 373.944 709.936 365.4C726.312 356.619 739.009 344.633 748.028 329.444C757.047 314.017 761.556 296.336 761.556 276.4C761.556 256.464 757.047 238.901 748.028 223.712C739.009 208.285 726.312 196.3 709.936 187.756C693.56 178.975 674.455 174.584 652.62 174.584H578.928V378.216H652.62ZM1081.55 151.8C1113.36 151.8 1138.28 159.395 1156.31 174.584C1174.35 189.773 1183.37 210.659 1183.37 237.24C1183.37 263.821 1174.35 284.707 1156.31 299.896C1138.28 314.848 1113.36 322.324 1081.55 322.324H1014.62V401H988.281V151.8H1081.55ZM1080.84 299.184C1105.52 299.184 1124.39 293.844 1137.44 283.164C1150.5 272.247 1157.02 256.939 1157.02 237.24C1157.02 217.067 1150.5 201.64 1137.44 190.96C1124.39 180.043 1105.52 174.584 1080.84 174.584H1014.62V299.184H1080.84ZM1187.4 213.744H1212.68V401H1187.4V213.744ZM1200.22 172.804C1195 172.804 1190.61 171.024 1187.05 167.464C1183.49 163.904 1181.71 159.632 1181.71 154.648C1181.71 149.901 1183.49 145.748 1187.05 142.188C1190.61 138.628 1195 136.848 1200.22 136.848C1205.44 136.848 1209.83 138.628 1213.39 142.188C1216.95 145.511 1218.73 149.545 1218.73 154.292C1218.73 159.513 1216.95 163.904 1213.39 167.464C1209.83 171.024 1205.44 172.804 1200.22 172.804ZM1317.9 402.78C1299.39 402.78 1282.77 398.745 1268.06 390.676C1253.58 382.607 1242.19 371.333 1233.88 356.856C1225.58 342.141 1221.42 325.647 1221.42 307.372C1221.42 289.097 1225.58 272.721 1233.88 258.244C1242.19 243.767 1253.58 232.493 1268.06 224.424C1282.77 216.355 1299.39 212.32 1317.9 212.32C1334.04 212.32 1348.4 215.524 1360.97 221.932C1373.79 228.103 1383.88 237.24 1391.23 249.344L1372.37 262.16C1366.2 252.904 1358.36 246.021 1348.87 241.512C1339.38 236.765 1329.05 234.392 1317.9 234.392C1304.37 234.392 1292.15 237.477 1281.23 243.648C1270.55 249.581 1262.12 258.125 1255.95 269.28C1250.02 280.435 1247.05 293.132 1247.05 307.372C1247.05 321.849 1250.02 334.665 1255.95 345.82C1262.12 356.737 1270.55 365.281 1281.23 371.452C1292.15 377.385 1304.37 380.352 1317.9 380.352C1329.05 380.352 1339.38 378.097 1348.87 373.588C1358.36 369.079 1366.2 362.196 1372.37 352.94L1391.23 365.756C1383.88 377.86 1373.79 387.116 1360.97 393.524C1348.16 399.695 1333.8 402.78 1317.9 402.78ZM1464.81 307.016L1420.66 347.6V401H1395.39V136.848H1420.66V315.916L1532.45 213.744H1563.77L1483.67 290.284L1571.25 401H1540.28L1464.81 307.016ZM1721.87 315.204H1565.23C1566.66 334.665 1574.13 350.448 1587.66 362.552C1601.19 374.419 1618.28 380.352 1638.93 380.352C1650.56 380.352 1661.24 378.335 1670.97 374.3C1680.7 370.028 1689.12 363.857 1696.24 355.788L1710.48 372.164C1702.18 382.132 1691.73 389.727 1679.15 394.948C1666.81 400.169 1653.17 402.78 1638.21 402.78C1618.99 402.78 1601.9 398.745 1586.95 390.676C1572.24 382.369 1560.73 370.977 1552.42 356.5C1544.11 342.023 1539.96 325.647 1539.96 307.372C1539.96 289.097 1543.87 272.721 1551.71 258.244C1559.78 243.767 1570.69 232.493 1584.46 224.424C1598.46 216.355 1614.13 212.32 1631.45 212.32C1648.78 212.32 1664.32 216.355 1678.09 224.424C1691.85 232.493 1702.65 243.767 1710.48 258.244C1718.31 272.484 1722.23 288.86 1722.23 307.372L1721.87 315.204ZM1631.45 234.036C1613.41 234.036 1598.22 239.851 1585.88 251.48C1573.78 262.872 1566.9 277.824 1565.23 296.336H1698.02C1696.36 277.824 1689.36 262.872 1677.02 251.48C1664.91 239.851 1649.73 234.036 1631.45 234.036ZM1755.17 250.412C1761.1 237.833 1769.88 228.34 1781.51 221.932C1793.38 215.524 1807.97 212.32 1825.3 212.32V236.884L1819.25 236.528C1799.55 236.528 1784.12 242.58 1772.97 254.684C1761.81 266.788 1756.23 283.757 1756.23 305.592V401H1730.96V213.744H1755.17V250.412Z" fill="#111111"/>
<path d="M924.665 270.348C940.329 275.569 952.315 283.401 960.621 293.844C969.165 304.287 973.437 316.865 973.437 331.58C973.437 346.057 969.521 358.755 961.689 369.672C953.857 380.352 942.584 388.659 927.869 394.592C913.392 400.288 896.304 403.136 876.605 403.136C846.701 403.136 823.205 396.728 806.117 383.912C789.029 371.096 780.485 353.652 780.485 331.58C780.485 316.628 784.52 304.049 792.589 293.844C800.896 283.401 812.881 275.569 828.545 270.348C815.729 265.364 805.999 258.244 799.353 248.988C792.708 239.495 789.385 228.34 789.385 215.524C789.385 195.351 797.217 179.331 812.881 167.464C828.783 155.597 850.024 149.664 876.605 149.664C894.168 149.664 909.476 152.393 922.529 157.852C935.82 163.073 946.144 170.668 953.501 180.636C960.859 190.604 964.537 202.233 964.537 215.524C964.537 228.34 961.096 239.495 954.213 248.988C947.331 258.244 937.481 265.364 924.665 270.348ZM815.017 216.236C815.017 230.001 820.476 240.919 831.393 248.988C842.311 257.057 857.381 261.092 876.605 261.092C895.829 261.092 910.9 257.057 921.817 248.988C932.972 240.919 938.549 230.12 938.549 216.592C938.549 202.589 932.853 191.553 921.461 183.484C910.307 175.415 895.355 171.38 876.605 171.38C857.619 171.38 842.548 175.415 831.393 183.484C820.476 191.553 815.017 202.471 815.017 216.236ZM876.605 381.42C898.677 381.42 915.884 376.911 928.225 367.892C940.804 358.873 947.093 346.651 947.093 331.224C947.093 315.797 940.804 303.693 928.225 294.912C915.884 285.893 898.677 281.384 876.605 281.384C854.771 281.384 837.564 285.893 824.985 294.912C812.644 303.693 806.473 315.797 806.473 331.224C806.473 346.888 812.644 359.229 824.985 368.248C837.327 377.029 854.533 381.42 876.605 381.42Z" fill="#7690B9"/>
</svg>
