<svg width="772" height="644" viewBox="0 0 772 644" fill="none" xmlns="http://www.w3.org/2000/svg">
<path d="M445.535 29.8139L445.239 31.2844L445.239 31.2844L445.535 29.8139ZM574.683 64.1407L575.18 62.7253L574.683 64.1407ZM695.49 112.756L694.916 114.142L695.49 112.756ZM757.123 201.123L758.353 201.981L757.123 201.123ZM531.656 204.707L531.507 206.2L531.507 206.2L531.656 204.707ZM165.893 207.32L165.802 205.823L165.785 205.824L165.769 205.825L165.893 207.32ZM19.7086 257.817L21.2058 257.908L19.7086 257.817ZM103.324 337.054L102.747 338.439L102.747 338.439L103.324 337.054ZM278.485 357.043L278.487 355.543L278.485 357.043ZM404.87 350.929L404.981 352.425L404.87 350.929ZM252.357 19.3564L252.226 17.8621L252.357 19.3564ZM516.732 392.038L518.181 391.653L516.732 392.038ZM437.934 445.203L437.591 443.742L437.934 445.203ZM309.077 491.876L309.888 493.137L309.077 491.876ZM219.155 614.277L232.502 603.239L216.268 597.199L219.155 614.277ZM123.25 41.5201C123.625 42.9723 123.625 42.9723 123.625 42.9723C123.625 42.9723 123.625 42.9723 123.625 42.9723C123.625 42.9723 123.625 42.9723 123.625 42.9723C123.626 42.9723 123.626 42.9722 123.626 42.9721C123.627 42.9719 123.628 42.9717 123.629 42.9713C123.632 42.9705 123.637 42.9694 123.643 42.9678C123.655 42.9648 123.673 42.9601 123.697 42.9538C123.746 42.9414 123.818 42.9227 123.915 42.898C124.109 42.8486 124.398 42.7751 124.779 42.6793C125.542 42.4876 126.672 42.2063 128.139 41.849L127.429 38.9342C125.954 39.2933 124.817 39.5764 124.048 39.7698C123.663 39.8665 123.37 39.9409 123.173 39.9911C123.075 40.0162 123 40.0354 122.95 40.0482C122.925 40.0547 122.906 40.0595 122.894 40.0628C122.887 40.0645 122.882 40.0657 122.879 40.0666C122.877 40.067 122.876 40.0674 122.875 40.0676C122.875 40.0677 122.874 40.0678 122.874 40.0678C122.874 40.0679 122.874 40.0679 122.874 40.0679C122.874 40.0679 122.874 40.0679 122.874 40.0679C122.874 40.068 122.874 40.068 123.25 41.5201ZM137.242 39.6974C139.936 39.0778 142.985 38.3905 146.347 37.654L145.705 34.7235C142.332 35.4624 139.273 36.1519 136.569 36.7737L137.242 39.6974ZM155.498 35.6958C158.4 35.0895 161.458 34.464 164.657 33.827L164.071 30.8848C160.863 31.5237 157.795 32.151 154.885 32.7592L155.498 35.6958ZM173.841 32.043C176.822 31.4787 179.895 30.9112 183.049 30.3454L182.519 27.3925C179.355 27.96 176.273 28.5293 173.283 29.0953L173.841 32.043ZM192.25 28.7418C195.27 28.2312 198.348 27.7261 201.476 27.2303L201.007 24.2672C197.868 24.7647 194.779 25.2715 191.75 25.7838L192.25 28.7418ZM210.729 25.8152C213.777 25.3662 216.863 24.9289 219.979 24.5066L219.576 21.5338C216.448 21.9577 213.351 22.3966 210.292 22.8472L210.729 25.8152ZM229.253 23.3073C232.329 22.9291 235.425 22.5681 238.536 22.2273L238.21 19.2451C235.085 19.5874 231.975 19.95 228.887 20.3297L229.253 23.3073ZM247.834 21.2752C249.383 21.128 250.935 20.9863 252.487 20.8507L252.226 17.8621C250.666 17.9984 249.107 18.1407 247.55 18.2887L247.834 21.2752ZM252.487 20.8507C254.092 20.7105 255.7 20.5769 257.309 20.4497L257.072 17.459C255.455 17.5869 253.84 17.7212 252.226 17.8621L252.487 20.8507ZM266.964 19.764C270.182 19.5609 273.405 19.3828 276.63 19.2287L276.486 16.2321C273.247 16.3869 270.009 16.5659 266.775 16.7699L266.964 19.764ZM286.303 18.8382C289.531 18.7315 292.758 18.6482 295.982 18.5876L295.926 15.5881C292.687 15.649 289.446 15.7327 286.204 15.8398L286.303 18.8382ZM305.665 18.4727C308.898 18.4565 312.127 18.4625 315.348 18.4899L315.373 15.49C312.139 15.4625 308.897 15.4565 305.65 15.4727L305.665 18.4727ZM325.031 18.6363C328.269 18.7066 331.496 18.7979 334.711 18.9095L334.815 15.9113C331.587 15.7993 328.347 15.7075 325.096 15.637L325.031 18.6363ZM344.388 19.308C347.627 19.4623 350.851 19.6367 354.056 19.8305L354.237 16.836C351.019 16.6414 347.783 16.4663 344.53 16.3114L344.388 19.308ZM363.722 20.477C366.961 20.7146 370.178 20.9715 373.369 21.2469L373.627 18.2581C370.423 17.9815 367.193 17.7236 363.941 17.4851L363.722 20.477ZM383.018 22.1433C386.259 22.4658 389.469 22.8071 392.646 23.1661L392.983 20.1851C389.793 19.8245 386.569 19.4818 383.315 19.158L383.018 22.1433ZM402.256 24.3191C405.498 24.7309 408.7 25.161 411.858 25.6083L412.279 22.6379C409.106 22.1886 405.89 21.7566 402.634 21.343L402.256 24.3191ZM421.433 27.0376C424.67 27.546 427.853 28.0723 430.979 28.6151L431.492 25.6594C428.35 25.1137 425.151 24.5848 421.899 24.074L421.433 27.0376ZM440.494 30.3518C442.093 30.6584 443.675 30.9694 445.239 31.2844L445.831 28.3435C444.258 28.0266 442.667 27.7138 441.059 27.4055L440.494 30.3518ZM445.239 31.2844C446.839 31.6068 448.405 31.922 449.938 32.2306L450.53 29.2896C448.997 28.981 447.431 28.6658 445.831 28.3435L445.239 31.2844ZM459.315 34.1186C462.583 34.7774 465.695 35.4068 468.675 36.0139L469.274 33.0742C466.291 32.4666 463.176 31.8368 459.908 31.1778L459.315 34.1186ZM478.014 37.9352C481.27 38.6132 484.373 39.2705 487.364 39.919L488 36.9871C484.999 36.3365 481.887 35.6776 478.626 34.9982L478.014 37.9352ZM496.662 41.9927C499.821 42.7196 502.892 43.4522 505.934 44.2078L506.657 41.2963C503.597 40.5361 500.508 39.7995 497.335 39.0691L496.662 41.9927ZM515.152 46.5946C518.161 47.4062 521.199 48.258 524.322 49.1669L525.16 46.2864C522.019 45.3721 518.962 44.515 515.933 43.6982L515.152 46.5946ZM533.45 51.9106C536.362 52.8118 539.378 53.7689 542.538 54.7932L543.463 51.9394C540.292 50.9114 537.263 49.9503 534.337 49.0448L533.45 51.9106ZM551.59 57.7801C554.472 58.7461 557.478 59.7662 560.628 60.8469L561.601 58.0092C558.445 56.9265 555.433 55.9041 552.543 54.9356L551.59 57.7801ZM569.662 63.9732C571.139 64.4883 572.647 65.0157 574.187 65.556L575.18 62.7253C573.639 62.1844 572.129 61.6563 570.65 61.1405L569.662 63.9732ZM574.187 65.556C575.681 66.0804 577.148 66.5971 578.587 67.1066L579.588 64.2785C578.146 63.7681 576.677 63.2505 575.18 62.7253L574.187 65.556ZM587.35 70.236C590.378 71.3281 593.283 72.387 596.078 73.417L597.116 70.602C594.313 69.5695 591.402 68.5083 588.367 67.4139L587.35 70.236ZM604.782 76.6628C607.792 77.7996 610.675 78.9035 613.453 79.9816L614.538 77.1848C611.751 76.1033 608.86 74.9962 605.841 73.8562L604.782 76.6628ZM622.084 83.3791C625.049 84.5628 627.909 85.7227 630.701 86.8692L631.84 84.0942C629.04 82.9441 626.171 81.7806 623.197 80.593L622.084 83.3791ZM639.274 90.4351C642.146 91.644 644.983 92.8505 647.827 94.068L649.007 91.3101C646.159 90.0908 643.317 88.8818 640.437 87.67L639.274 90.4351ZM656.365 97.7404C659.153 98.9433 661.989 100.169 664.908 101.428L666.096 98.6728C663.177 97.4144 660.344 96.1899 657.553 94.9859L656.365 97.7404ZM673.452 105.099C676.207 106.277 679.055 107.49 682.025 108.746L683.194 105.983C680.228 104.729 677.383 103.518 674.632 102.341L673.452 105.099ZM690.617 112.355C692.022 112.941 693.454 113.537 694.916 114.142L696.064 111.371C694.604 110.766 693.174 110.171 691.772 109.586L690.617 112.355ZM694.916 114.142C696.49 114.794 698.054 115.465 699.605 116.154L700.823 113.412C699.248 112.713 697.661 112.032 696.064 111.371L694.916 114.142ZM708.817 120.537C711.877 122.093 714.869 123.72 717.773 125.409L719.281 122.816C716.326 121.097 713.286 119.444 710.177 117.863L708.817 120.537ZM726.414 130.796C729.289 132.718 732.045 134.702 734.662 136.741L736.506 134.374C733.828 132.288 731.013 130.261 728.082 128.302L726.414 130.796ZM742.401 143.309C744.951 145.68 747.303 148.104 749.43 150.571L751.702 148.612C749.496 146.054 747.066 143.551 744.444 141.112L742.401 143.309ZM755.452 158.611C757.315 161.541 758.839 164.505 759.989 167.486L762.788 166.406C761.558 163.218 759.939 160.078 757.983 157.002L755.452 158.611ZM762.35 177.056C762.69 180.304 762.549 183.563 761.877 186.816L764.815 187.423C765.551 183.858 765.705 180.289 765.334 176.744L762.35 177.056ZM758.499 196.025C757.745 197.439 756.878 198.853 755.893 200.265L758.353 201.981C759.404 200.476 760.333 198.961 761.146 197.437L758.499 196.025ZM755.893 200.265C755.012 201.526 754.044 202.711 752.987 203.822L755.162 205.889C756.321 204.669 757.386 203.368 758.353 201.981L755.893 200.265ZM745.767 209.541C743.237 211.058 740.415 212.365 737.297 213.477L738.305 216.303C741.583 215.134 744.588 213.746 747.309 212.114L745.767 209.541ZM728.208 216.009C725.262 216.636 722.128 217.143 718.809 217.541L719.166 220.52C722.562 220.113 725.786 219.591 728.832 218.943L728.208 216.009ZM709.309 218.361C706.246 218.534 703.056 218.636 699.74 218.673L699.774 221.673C703.129 221.635 706.365 221.532 709.478 221.356L709.309 218.361ZM690.133 218.612C687.024 218.544 683.821 218.429 680.524 218.274L680.383 221.271C683.702 221.427 686.93 221.542 690.067 221.612L690.133 218.612ZM670.935 217.728C667.807 217.521 664.604 217.285 661.327 217.022L661.087 220.012C664.376 220.276 667.593 220.514 670.738 220.721L670.935 217.728ZM651.713 216.194C648.574 215.907 645.374 215.6 642.113 215.276L641.816 218.261C645.084 218.586 648.292 218.894 651.44 219.181L651.713 216.194ZM632.534 214.292C629.392 213.961 626.198 213.616 622.952 213.26L622.625 216.243C625.874 216.599 629.072 216.944 632.219 217.276L632.534 214.292ZM613.368 212.195C610.218 211.841 607.022 211.479 603.782 211.11L603.443 214.091C606.684 214.46 609.881 214.822 613.033 215.177L613.368 212.195ZM594.194 210.016C591.036 209.655 587.839 209.29 584.602 208.922L584.263 211.903C587.499 212.271 590.696 212.636 593.854 212.997L594.194 210.016ZM575.005 207.835C571.841 207.479 568.642 207.122 565.408 206.764L565.078 209.746C568.31 210.103 571.507 210.461 574.669 210.816L575.005 207.835ZM555.825 205.716C552.66 205.374 549.463 205.032 546.235 204.693L545.922 207.677C549.147 208.016 552.34 208.357 555.502 208.698L555.825 205.716ZM536.638 203.701C535.034 203.538 533.423 203.376 531.805 203.215L531.507 206.2C533.124 206.361 534.733 206.523 536.334 206.686L536.638 203.701ZM531.805 203.215C530.162 203.051 528.497 202.892 526.812 202.738L526.539 205.726C528.216 205.879 529.873 206.037 531.507 206.2L531.805 203.215ZM516.637 201.883C513.303 201.627 509.901 201.386 506.437 201.161L506.243 204.155C509.695 204.379 513.085 204.619 516.406 204.875L516.637 201.883ZM496.283 200.556C492.949 200.374 489.565 200.205 486.138 200.048L486.001 203.045C489.42 203.201 492.795 203.37 496.12 203.552L496.283 200.556ZM475.958 199.624C472.591 199.496 469.188 199.38 465.752 199.273L465.659 202.272C469.088 202.378 472.485 202.494 475.845 202.621L475.958 199.624ZM455.594 198.992C452.229 198.909 448.839 198.835 445.426 198.771L445.369 201.77C448.777 201.835 452.162 201.908 455.52 201.991L455.594 198.992ZM435.233 198.604C431.857 198.557 428.463 198.518 425.056 198.487L425.028 201.487C428.432 201.518 431.82 201.557 435.191 201.603L435.233 198.604ZM414.886 198.417C411.501 198.4 408.105 198.391 404.702 198.389L404.699 201.389C408.099 201.391 411.491 201.4 414.872 201.417L414.886 198.417ZM394.525 198.4C391.136 198.41 387.743 198.427 384.349 198.449L384.369 201.449C387.759 201.427 391.148 201.41 394.534 201.4L394.525 198.4ZM374.171 198.532C370.777 198.565 367.385 198.604 364 198.647L364.039 201.647C367.421 201.603 370.81 201.565 374.201 201.532L374.171 198.532ZM353.817 198.794C350.416 198.848 347.024 198.906 343.646 198.969L343.702 201.969C347.077 201.906 350.466 201.847 353.864 201.793L353.817 198.794ZM333.483 199.172C330.067 199.245 326.669 199.321 323.291 199.402L323.363 202.401C326.738 202.32 330.134 202.244 333.547 202.171L333.483 199.172ZM313.122 199.656C309.716 199.746 306.335 199.838 302.985 199.934L303.07 202.933C306.419 202.837 309.797 202.745 313.2 202.655L313.122 199.656ZM292.779 200.237C289.347 200.343 285.952 200.452 282.597 200.563L282.696 203.561C286.049 203.45 289.442 203.342 292.871 203.236L292.779 200.237ZM272.447 200.909C269.018 201.029 265.639 201.152 262.315 201.275L262.427 204.273C265.749 204.15 269.126 204.027 272.553 203.907L272.447 200.909ZM252.108 201.666C248.638 201.802 245.24 201.939 241.919 202.076L242.043 205.074C245.362 204.937 248.758 204.8 252.225 204.664L252.108 201.666ZM231.745 202.506C228.25 202.658 224.858 202.808 221.579 202.956L221.715 205.953C224.992 205.805 228.382 205.655 231.875 205.504L231.745 202.506ZM211.411 203.427C207.846 203.596 204.451 203.76 201.24 203.919L201.388 206.915C204.597 206.757 207.99 206.592 211.553 206.424L211.411 203.427ZM191.099 204.431C187.335 204.625 183.939 204.805 180.946 204.967L181.109 207.963C184.098 207.801 187.492 207.621 191.253 207.427L191.099 204.431ZM170.748 205.534C169.136 205.626 167.9 205.698 167.067 205.748C166.65 205.772 166.334 205.791 166.122 205.804C166.016 205.81 165.936 205.815 165.882 205.818C165.856 205.82 165.836 205.821 165.822 205.822C165.815 205.822 165.81 205.823 165.807 205.823C165.805 205.823 165.804 205.823 165.803 205.823C165.803 205.823 165.802 205.823 165.802 205.823C165.802 205.823 165.802 205.823 165.802 205.823C165.802 205.823 165.802 205.823 165.802 205.823C165.802 205.823 165.802 205.823 165.893 207.32C165.984 208.818 165.984 208.818 165.984 208.818C165.984 208.818 165.984 208.818 165.984 208.818C165.984 208.818 165.984 208.818 165.984 208.818C165.984 208.818 165.985 208.818 165.985 208.817C165.986 208.817 165.987 208.817 165.989 208.817C165.992 208.817 165.997 208.817 166.004 208.816C166.017 208.816 166.037 208.814 166.064 208.813C166.117 208.81 166.196 208.805 166.302 208.798C166.513 208.786 166.828 208.767 167.244 208.742C168.075 208.693 169.31 208.621 170.92 208.529L170.748 205.534ZM165.893 207.32C165.769 205.825 165.769 205.825 165.769 205.825C165.769 205.825 165.769 205.825 165.769 205.825C165.769 205.825 165.769 205.825 165.769 205.825C165.768 205.826 165.768 205.826 165.767 205.826C165.766 205.826 165.765 205.826 165.763 205.826C165.759 205.826 165.754 205.827 165.747 205.827C165.733 205.828 165.712 205.83 165.684 205.833C165.628 205.837 165.546 205.844 165.437 205.854C165.219 205.873 164.897 205.901 164.476 205.939C163.633 206.015 162.396 206.131 160.812 206.289L161.109 209.274C162.684 209.117 163.912 209.003 164.746 208.927C165.164 208.889 165.482 208.861 165.696 208.843C165.803 208.833 165.883 208.826 165.937 208.822C165.964 208.82 165.984 208.818 165.997 208.817C166.004 208.816 166.009 208.816 166.012 208.816C166.014 208.815 166.015 208.815 166.016 208.815C166.016 208.815 166.016 208.815 166.016 208.815C166.017 208.815 166.017 208.815 166.017 208.815C166.017 208.815 166.017 208.815 166.017 208.815C166.017 208.815 166.017 208.815 165.893 207.32ZM150.755 207.376C147.753 207.724 144.385 208.136 140.728 208.614L141.117 211.588C144.758 211.112 148.112 210.703 151.101 210.356L150.755 207.376ZM130.709 209.997C127.501 210.464 124.157 210.974 120.714 211.53L121.192 214.492C124.618 213.939 127.947 213.431 131.141 212.966L130.709 209.997ZM110.767 213.219C107.497 213.803 104.175 214.427 100.828 215.09L101.411 218.033C104.738 217.373 108.042 216.753 111.295 216.172L110.767 213.219ZM90.9354 217.162C87.6411 217.89 84.3498 218.659 81.088 219.47L81.8116 222.381C85.046 221.578 88.3121 220.815 91.5834 220.091L90.9354 217.162ZM71.2978 222.062C67.9954 222.995 64.7529 223.975 61.6005 225.003L62.5311 227.855C65.6412 226.841 68.8451 225.872 72.1132 224.949L71.2978 222.062ZM52.0203 228.4C48.7444 229.667 45.6164 230.998 42.6798 232.396L43.9699 235.105C46.8281 233.744 49.8854 232.442 53.102 231.199L52.0203 228.4ZM33.6766 237.302C30.5397 239.282 27.7702 241.389 25.4723 243.636L27.5697 245.781C29.6818 243.716 32.2734 241.735 35.2777 239.839L33.6766 237.302ZM19.3989 252.384C18.7304 254.101 18.3238 255.883 18.2114 257.726L21.2058 257.908C21.2983 256.392 21.6328 254.915 22.1945 253.472L19.3989 252.384ZM18.2114 257.726C18.103 259.502 18.1086 261.26 18.223 262.999L21.2165 262.802C21.1104 261.189 21.1052 259.558 21.2058 257.908L18.2114 257.726ZM20.209 273.313C21.2598 276.585 22.6895 279.771 24.4521 282.869L27.0597 281.386C25.3893 278.45 24.0471 275.453 23.0653 272.396L20.209 273.313ZM30.3224 291.444C32.4209 294.06 34.7521 296.608 37.2856 299.09L39.3849 296.947C36.9271 294.54 34.678 292.079 32.6624 289.567L30.3224 291.444ZM44.97 305.934C47.5655 308.051 50.3039 310.116 53.1644 312.128L54.8906 309.675C52.0826 307.699 49.4013 305.677 46.866 303.61L44.97 305.934ZM61.7152 317.777C64.5719 319.553 67.5182 321.285 70.5376 322.973L72.0013 320.355C69.0194 318.688 66.1135 316.979 63.2994 315.229L61.7152 317.777ZM79.5561 327.78C82.5684 329.313 85.6339 330.805 88.7384 332.257L90.009 329.539C86.9326 328.101 83.8972 326.623 80.9166 325.106L79.5561 327.78ZM98.0502 336.444C99.6101 337.119 101.176 337.784 102.747 338.439L103.901 335.67C102.343 335.02 100.789 334.36 99.2415 333.69L98.0502 336.444ZM102.747 338.439C104.271 339.075 105.809 339.69 107.361 340.286L108.437 337.486C106.911 336.9 105.399 336.295 103.901 335.67L102.747 338.439ZM116.725 343.599C119.85 344.616 123.021 345.563 126.234 346.445L127.028 343.552C123.858 342.681 120.731 341.748 117.653 340.747L116.725 343.599ZM135.85 348.869C139.049 349.608 142.283 350.289 145.548 350.919L146.116 347.973C142.885 347.35 139.687 346.676 136.525 345.946L135.85 348.869ZM155.305 352.635C158.548 353.153 161.815 353.626 165.103 354.057L165.493 351.082C162.231 350.655 158.991 350.186 155.778 349.673L155.305 352.635ZM174.927 355.217C178.194 355.563 181.477 355.873 184.773 356.15L185.024 353.161C181.749 352.885 178.487 352.578 175.243 352.234L174.927 355.217ZM194.632 356.885C197.914 357.099 201.204 357.285 204.498 357.447L204.645 354.451C201.366 354.29 198.092 354.104 194.827 353.891L194.632 356.885ZM214.367 357.863C217.658 357.979 220.949 358.075 224.238 358.155L224.31 355.156C221.031 355.077 217.751 354.981 214.473 354.864L214.367 357.863ZM234.107 358.346C237.404 358.395 240.694 358.431 243.974 358.458L243.998 355.458C240.724 355.431 237.441 355.395 234.151 355.346L234.107 358.346ZM253.84 358.512C257.143 358.523 260.432 358.528 263.702 358.531L263.704 355.531C260.436 355.528 257.15 355.523 253.85 355.512L253.84 358.512ZM273.557 358.537C275.205 358.539 276.847 358.54 278.482 358.543L278.487 355.543C276.851 355.54 275.208 355.539 273.559 355.537L273.557 358.537ZM278.482 358.543C280.31 358.546 282.099 358.548 283.848 358.549L283.85 355.549C282.101 355.548 280.314 355.546 278.487 355.543L278.482 358.543ZM294.38 358.543C298.078 358.537 301.582 358.525 304.905 358.509L304.89 355.509C301.57 355.525 298.07 355.537 294.374 355.543L294.38 358.543ZM315.51 358.435C319.291 358.4 322.797 358.357 326.056 358.307L326.01 355.308C322.758 355.358 319.258 355.4 315.482 355.435L315.51 358.435ZM336.617 358.101C340.549 358.005 344.039 357.894 347.173 357.77L347.055 354.773C343.937 354.896 340.463 355.006 336.543 355.102L336.617 358.101ZM357.727 357.227C361.828 356.957 365.202 356.651 368.308 356.316L367.986 353.333C364.92 353.664 361.588 353.966 357.529 354.234L357.727 357.227ZM378.796 355.038C381.862 354.649 385.187 354.24 389.227 353.816L388.913 350.832C384.843 351.26 381.494 351.672 378.419 352.061L378.796 355.038ZM399.696 352.839C401.352 352.702 403.11 352.564 404.981 352.425L404.759 349.433C402.879 349.573 401.114 349.712 399.448 349.849L399.696 352.839ZM404.981 352.425C406.755 352.293 408.541 352.17 410.338 352.058L410.151 349.064C408.342 349.177 406.543 349.3 404.759 349.433L404.981 352.425ZM421.066 351.536C424.634 351.416 428.218 351.352 431.794 351.358L431.8 348.358C428.184 348.352 424.564 348.417 420.964 348.538L421.066 351.536ZM442.509 351.606C446.105 351.772 449.669 352.026 453.176 352.384L453.48 349.399C449.912 349.036 446.293 348.778 442.647 348.61L442.509 351.606ZM463.758 353.825C467.326 354.445 470.8 355.199 474.151 356.102L474.932 353.206C471.483 352.276 467.919 351.503 464.272 350.869L463.758 353.825ZM484.205 359.439C487.551 360.788 490.712 362.336 493.654 364.104L495.199 361.533C492.107 359.674 488.802 358.058 485.327 356.657L484.205 359.439ZM502.058 370.335C504.617 372.68 506.903 375.293 508.876 378.198L511.358 376.513C509.248 373.406 506.808 370.619 504.085 368.123L502.058 370.335ZM513.673 387.431C514.282 389.026 514.82 390.689 515.282 392.424L518.181 391.653C517.693 389.818 517.123 388.055 516.475 386.36L513.673 387.431ZM515.282 392.424C515.738 394.137 516.018 395.78 516.137 397.357L519.129 397.13C518.994 395.357 518.682 393.532 518.181 391.653L515.282 392.424ZM514.729 407.022C513.561 410.012 511.728 412.78 509.343 415.351L511.542 417.392C514.136 414.597 516.195 411.515 517.524 408.114L514.729 407.022ZM501.557 421.883C498.829 423.726 495.814 425.431 492.596 427.012L493.919 429.705C497.235 428.076 500.373 426.303 503.236 424.368L501.557 421.883ZM483.051 431.152C479.833 432.393 476.523 433.536 473.186 434.596L474.094 437.455C477.478 436.381 480.846 435.217 484.13 433.952L483.051 431.152ZM463.136 437.542C459.671 438.484 456.256 439.347 452.967 440.145L453.675 443.06C456.982 442.258 460.425 441.388 463.923 440.437L463.136 437.542ZM442.717 442.552C440.923 442.966 439.207 443.362 437.591 443.742L438.278 446.663C439.886 446.284 441.596 445.89 443.392 445.476L442.717 442.552ZM437.591 443.742C436.034 444.109 434.442 444.457 432.814 444.794L433.423 447.732C435.072 447.39 436.69 447.036 438.278 446.663L437.591 443.742ZM423.152 446.645C420.043 447.211 416.801 447.79 413.436 448.418L413.987 451.367C417.343 450.74 420.567 450.165 423.689 449.596L423.152 446.645ZM403.714 450.336C400.597 450.99 397.375 451.712 394.041 452.527L394.754 455.441C398.051 454.635 401.241 453.921 404.33 453.272L403.714 450.336ZM384.444 455.066C381.37 455.943 378.208 456.909 374.953 457.981L375.892 460.831C379.107 459.772 382.23 458.818 385.268 457.951L384.444 455.066ZM365.581 461.279C362.579 462.403 359.504 463.621 356.352 464.944L357.512 467.71C360.628 466.403 363.668 465.199 366.634 464.088L365.581 461.279ZM347.275 468.953C344.362 470.304 341.388 471.745 338.35 473.284L339.705 475.96C342.713 474.437 345.656 473.011 348.537 471.675L347.275 468.953ZM329.565 477.916C326.744 479.461 323.872 481.09 320.945 482.809L322.465 485.396C325.366 483.692 328.212 482.078 331.006 480.547L329.565 477.916ZM312.47 487.948C311.08 488.816 309.678 489.705 308.265 490.614L309.888 493.137C311.291 492.235 312.681 491.353 314.06 490.492L312.47 487.948ZM308.265 490.614C306.897 491.494 305.545 492.396 304.21 493.317L305.914 495.786C307.223 494.883 308.548 494 309.888 493.137L308.265 490.614ZM296.371 499.086C293.81 501.092 291.314 503.167 288.884 505.299L290.863 507.554C293.253 505.457 295.705 503.418 298.221 501.448L296.371 499.086ZM281.75 511.898C279.417 514.169 277.15 516.489 274.95 518.844L277.142 520.892C279.311 518.57 281.545 516.284 283.843 514.048L281.75 511.898ZM268.484 526.083C266.362 528.565 264.31 531.072 262.327 533.593L264.684 535.448C266.644 532.958 268.67 530.482 270.764 528.033L268.484 526.083ZM256.478 541.327C254.547 543.982 252.691 546.637 250.91 549.278L253.397 550.956C255.159 548.342 256.995 545.716 258.904 543.092L256.478 541.327ZM245.633 557.392C243.871 560.201 242.196 562.976 240.606 565.699L243.197 567.212C244.772 564.514 246.431 561.767 248.174 558.986L245.633 557.392ZM235.845 574.147C234.235 577.109 232.734 579.979 231.342 582.729L234.019 584.084C235.398 581.358 236.885 578.515 238.481 575.58L235.845 574.147ZM227.094 591.443C225.586 594.657 224.264 597.613 223.124 600.251L225.878 601.44C227.006 598.829 228.316 595.901 229.81 592.718L227.094 591.443Z" fill="#FAA05D" fill-opacity="0.5"/>
</svg>
