<svg width="24" height="24" viewBox="0 0 24 24" fill="none" xmlns="http://www.w3.org/2000/svg">
<path d="M14.3477 11.9986L21.5075 4.85447C21.821 4.54089 21.9972 4.11558 21.9972 3.67211C21.9972 3.22864 21.821 2.80333 21.5075 2.48975C21.1939 2.17617 20.7687 2 20.3253 2C19.8819 2 19.4566 2.17617 19.1431 2.48975L12 9.65052L4.8569 2.48975C4.54337 2.17617 4.11812 2 3.67471 2C3.2313 2 2.80606 2.17617 2.49252 2.48975C2.17898 2.80333 2.00284 3.22864 2.00284 3.67211C2.00284 4.11558 2.17898 4.54089 2.49252 4.85447L9.65227 11.9986L2.49252 19.1427C2.33646 19.2975 2.21259 19.4817 2.12805 19.6846C2.04352 19.8875 2 20.1052 2 20.3251C2 20.5449 2.04352 20.7626 2.12805 20.9655C2.21259 21.1684 2.33646 21.3526 2.49252 21.5074C2.64731 21.6635 2.83147 21.7874 3.03437 21.8719C3.23727 21.9565 3.4549 22 3.67471 22C3.89452 22 4.11215 21.9565 4.31505 21.8719C4.51796 21.7874 4.70211 21.6635 4.8569 21.5074L12 14.3466L19.1431 21.5074C19.2979 21.6635 19.482 21.7874 19.6849 21.8719C19.8878 21.9565 20.1055 22 20.3253 22C20.5451 22 20.7627 21.9565 20.9656 21.8719C21.1685 21.7874 21.3527 21.6635 21.5075 21.5074C21.6635 21.3526 21.7874 21.1684 21.8719 20.9655C21.9565 20.7626 22 20.5449 22 20.3251C22 20.1052 21.9565 19.8875 21.8719 19.6846C21.7874 19.4817 21.6635 19.2975 21.5075 19.1427L14.3477 11.9986Z" fill="#00B2D9"/>
</svg>
