<svg width="170" height="40" viewBox="0 0 170 40" fill="none" xmlns="http://www.w3.org/2000/svg">
<path d="M0.5 3C0.5 1.61929 1.61929 0.5 3 0.5H169.5V39.5H3C1.61929 39.5 0.5 38.3807 0.5 37V3Z" fill="white" stroke="#D1D3D6"/>
<path fill-rule="evenodd" clip-rule="evenodd" d="M41.8119 20.25C41.8119 19.47 41.7476 18.72 41.6281 18H32.1081V22.255H37.5481C37.3138 23.63 36.6016 24.795 35.5311 25.575V28.335H38.7978C40.7092 26.42 41.8119 23.6 41.8119 20.25Z" fill="#4285F4"/>
<path fill-rule="evenodd" clip-rule="evenodd" d="M32.1081 31C34.8373 31 37.1254 30.015 38.7978 28.335L35.5311 25.575C34.6259 26.235 33.4681 26.625 32.1081 26.625C29.4754 26.625 27.247 24.69 26.4522 22.09H23.0751V24.94C24.7384 28.535 28.1568 31 32.1081 31Z" fill="#34A853"/>
<path fill-rule="evenodd" clip-rule="evenodd" d="M26.4522 22.09C26.25 21.43 26.1351 20.725 26.1351 20C26.1351 19.275 26.25 18.57 26.4522 17.91V15.06H23.0751C22.3905 16.545 22 18.225 22 20C22 21.775 22.3905 23.455 23.0751 24.94L26.4522 22.09Z" fill="#FBBC05"/>
<path fill-rule="evenodd" clip-rule="evenodd" d="M32.1081 13.375C33.5922 13.375 34.9246 13.93 35.9722 15.02L38.8714 11.865C37.1208 10.09 34.8327 9 32.1081 9C28.1568 9 24.7384 11.465 23.0751 15.06L26.4522 17.91C27.247 15.31 29.4754 13.375 32.1081 13.375Z" fill="#EA4335"/>
<path d="M51.2181 22.8027C51.2181 22.4277 51.0853 22.1387 50.8196 21.9355C50.5579 21.7324 50.0833 21.5273 49.3958 21.3203C48.7083 21.1133 48.1614 20.8828 47.7552 20.6289C46.9778 20.1406 46.5892 19.5039 46.5892 18.7188C46.5892 18.0312 46.8685 17.4648 47.4271 17.0195C47.9896 16.5742 48.7181 16.3516 49.6126 16.3516C50.2064 16.3516 50.7357 16.4609 51.2005 16.6797C51.6653 16.8984 52.0306 17.2109 52.2962 17.6172C52.5618 18.0195 52.6946 18.4668 52.6946 18.959H51.2181C51.2181 18.5137 51.0775 18.166 50.7962 17.916C50.5189 17.6621 50.1204 17.5352 49.6009 17.5352C49.1165 17.5352 48.7396 17.6387 48.47 17.8457C48.2044 18.0527 48.0716 18.3418 48.0716 18.7129C48.0716 19.0254 48.2161 19.2871 48.5052 19.498C48.7943 19.7051 49.2708 19.9082 49.9349 20.1074C50.5989 20.3027 51.1321 20.5273 51.5345 20.7812C51.9368 21.0312 52.2318 21.3203 52.4193 21.6484C52.6068 21.9727 52.7005 22.3535 52.7005 22.791C52.7005 23.502 52.4271 24.0684 51.8802 24.4902C51.3372 24.9082 50.5989 25.1172 49.6653 25.1172C49.0482 25.1172 48.4798 25.0039 47.9603 24.7773C47.4446 24.5469 47.0423 24.2305 46.7532 23.8281C46.4681 23.4258 46.3255 22.957 46.3255 22.4219H47.8079C47.8079 22.9062 47.9681 23.2812 48.2884 23.5469C48.6087 23.8125 49.0677 23.9453 49.6653 23.9453C50.181 23.9453 50.5677 23.8418 50.8255 23.6348C51.0872 23.4238 51.2181 23.1465 51.2181 22.8027ZM55.3782 25H53.9544V18.6602H55.3782V25ZM53.8665 17.0137C53.8665 16.7949 53.9349 16.6133 54.0716 16.4688C54.2122 16.3242 54.4114 16.252 54.6693 16.252C54.9271 16.252 55.1263 16.3242 55.2669 16.4688C55.4075 16.6133 55.4778 16.7949 55.4778 17.0137C55.4778 17.2285 55.4075 17.4082 55.2669 17.5527C55.1263 17.6934 54.9271 17.7637 54.6693 17.7637C54.4114 17.7637 54.2122 17.6934 54.0716 17.5527C53.9349 17.4082 53.8665 17.2285 53.8665 17.0137ZM56.6849 21.7832C56.6849 20.7988 56.9153 20.0137 57.3763 19.4277C57.8411 18.8379 58.4564 18.543 59.222 18.543C59.9446 18.543 60.513 18.7949 60.9271 19.2988L60.9915 18.6602H62.2747V24.8066C62.2747 25.6387 62.015 26.2949 61.4954 26.7754C60.9798 27.2559 60.2825 27.4961 59.4036 27.4961C58.9388 27.4961 58.4837 27.3984 58.0384 27.2031C57.597 27.0117 57.261 26.7598 57.0306 26.4473L57.7044 25.5918C58.1419 26.1113 58.681 26.3711 59.3216 26.3711C59.7943 26.3711 60.1673 26.2422 60.4407 25.9844C60.7142 25.7305 60.8509 25.3555 60.8509 24.8594V24.4316C60.4407 24.8887 59.8939 25.1172 59.2103 25.1172C58.4681 25.1172 57.8607 24.8223 57.388 24.2324C56.9193 23.6426 56.6849 22.8262 56.6849 21.7832ZM58.1028 21.9062C58.1028 22.543 58.2318 23.0449 58.4896 23.4121C58.7513 23.7754 59.1126 23.957 59.5735 23.957C60.1478 23.957 60.5735 23.7109 60.8509 23.2188V20.4297C60.5814 19.9492 60.1595 19.709 59.5853 19.709C59.1165 19.709 58.7513 19.8945 58.4896 20.2656C58.2318 20.6367 58.1028 21.1836 58.1028 21.9062ZM65.0638 18.6602L65.1048 19.3926C65.5735 18.8262 66.1888 18.543 66.9505 18.543C68.2708 18.543 68.9427 19.2988 68.9661 20.8105V25H67.5423V20.8926C67.5423 20.4902 67.4544 20.1934 67.2786 20.002C67.1068 19.8066 66.8235 19.709 66.429 19.709C65.8548 19.709 65.4271 19.9688 65.1458 20.4883V25H63.722V18.6602H65.0638ZM74.9251 25H73.5013V18.6602H74.9251V25ZM73.4134 17.0137C73.4134 16.7949 73.4818 16.6133 73.6185 16.4688C73.7591 16.3242 73.9583 16.252 74.2161 16.252C74.4739 16.252 74.6732 16.3242 74.8138 16.4688C74.9544 16.6133 75.0247 16.7949 75.0247 17.0137C75.0247 17.2285 74.9544 17.4082 74.8138 17.5527C74.6732 17.6934 74.4739 17.7637 74.2161 17.7637C73.9583 17.7637 73.7591 17.6934 73.6185 17.5527C73.4818 17.4082 73.4134 17.2285 73.4134 17.0137ZM77.8021 18.6602L77.8431 19.3926C78.3118 18.8262 78.9271 18.543 79.6888 18.543C81.0091 18.543 81.681 19.2988 81.7044 20.8105V25H80.2806V20.8926C80.2806 20.4902 80.1927 20.1934 80.0169 20.002C79.845 19.8066 79.5618 19.709 79.1673 19.709C78.5931 19.709 78.1653 19.9688 77.8841 20.4883V25H76.4603V18.6602H77.8021ZM91.7181 23.0371L92.7259 18.6602H94.1146L92.386 25H91.2142L89.8548 20.6465L88.5189 25H87.347L85.6126 18.6602H87.0013L88.0267 22.9902L89.3275 18.6602H90.3997L91.7181 23.0371ZM96.5814 25H95.1575V18.6602H96.5814V25ZM95.0696 17.0137C95.0696 16.7949 95.138 16.6133 95.2747 16.4688C95.4153 16.3242 95.6146 16.252 95.8724 16.252C96.1302 16.252 96.3294 16.3242 96.47 16.4688C96.6107 16.6133 96.681 16.7949 96.681 17.0137C96.681 17.2285 96.6107 17.4082 96.47 17.5527C96.3294 17.6934 96.1302 17.7637 95.8724 17.7637C95.6146 17.7637 95.4153 17.6934 95.2747 17.5527C95.138 17.4082 95.0696 17.2285 95.0696 17.0137ZM99.9212 17.1191V18.6602H101.04V19.7148H99.9212V23.2539C99.9212 23.4961 99.9681 23.6719 100.062 23.7812C100.159 23.8867 100.331 23.9395 100.577 23.9395C100.742 23.9395 100.908 23.9199 101.076 23.8809V24.9824C100.751 25.0723 100.439 25.1172 100.138 25.1172C99.0443 25.1172 98.4974 24.5137 98.4974 23.3066V19.7148H97.4544V18.6602H98.4974V17.1191H99.9212ZM103.536 19.3516C104.001 18.8125 104.589 18.543 105.3 18.543C106.652 18.543 107.337 19.3145 107.357 20.8574V25H105.933V20.9102C105.933 20.4727 105.837 20.1641 105.646 19.9844C105.458 19.8008 105.181 19.709 104.814 19.709C104.243 19.709 103.818 19.9629 103.536 20.4707V25H102.113V16H103.536V19.3516ZM118.466 23.8926C118.158 24.2949 117.73 24.5996 117.183 24.8066C116.636 25.0137 116.015 25.1172 115.32 25.1172C114.605 25.1172 113.972 24.9551 113.421 24.6309C112.87 24.3066 112.445 23.8438 112.144 23.2422C111.847 22.6367 111.693 21.9316 111.681 21.127V20.459C111.681 19.1699 111.99 18.1641 112.607 17.4414C113.224 16.7148 114.085 16.3516 115.191 16.3516C116.14 16.3516 116.894 16.5859 117.452 17.0547C118.011 17.5234 118.347 18.1992 118.46 19.082H117.007C116.843 18.0547 116.247 17.541 115.22 17.541C114.556 17.541 114.05 17.7812 113.702 18.2617C113.359 18.7383 113.181 19.4395 113.169 20.3652V21.0215C113.169 21.9434 113.363 22.6602 113.749 23.1719C114.14 23.6797 114.681 23.9336 115.372 23.9336C116.13 23.9336 116.669 23.7617 116.99 23.418V21.748H115.232V20.623H118.466V23.8926ZM119.691 21.7715C119.691 21.1504 119.814 20.5918 120.06 20.0957C120.306 19.5957 120.652 19.2129 121.097 18.9473C121.542 18.6777 122.054 18.543 122.632 18.543C123.488 18.543 124.181 18.8184 124.712 19.3691C125.247 19.9199 125.536 20.6504 125.579 21.5605L125.585 21.8945C125.585 22.5195 125.464 23.0781 125.222 23.5703C124.984 24.0625 124.64 24.4434 124.191 24.7129C123.745 24.9824 123.23 25.1172 122.644 25.1172C121.749 25.1172 121.033 24.8203 120.493 24.2266C119.958 23.6289 119.691 22.834 119.691 21.8418V21.7715ZM121.115 21.8945C121.115 22.5469 121.249 23.0586 121.519 23.4297C121.788 23.7969 122.163 23.9805 122.644 23.9805C123.124 23.9805 123.497 23.793 123.763 23.418C124.033 23.043 124.167 22.4941 124.167 21.7715C124.167 21.1309 124.029 20.623 123.751 20.248C123.478 19.873 123.105 19.6855 122.632 19.6855C122.167 19.6855 121.798 19.8711 121.525 20.2422C121.251 20.6094 121.115 21.1602 121.115 21.8945ZM126.523 21.7715C126.523 21.1504 126.646 20.5918 126.892 20.0957C127.138 19.5957 127.484 19.2129 127.929 18.9473C128.374 18.6777 128.886 18.543 129.464 18.543C130.32 18.543 131.013 18.8184 131.544 19.3691C132.079 19.9199 132.368 20.6504 132.411 21.5605L132.417 21.8945C132.417 22.5195 132.296 23.0781 132.054 23.5703C131.816 24.0625 131.472 24.4434 131.023 24.7129C130.577 24.9824 130.062 25.1172 129.476 25.1172C128.581 25.1172 127.865 24.8203 127.326 24.2266C126.79 23.6289 126.523 22.834 126.523 21.8418V21.7715ZM127.947 21.8945C127.947 22.5469 128.081 23.0586 128.351 23.4297C128.62 23.7969 128.995 23.9805 129.476 23.9805C129.956 23.9805 130.329 23.793 130.595 23.418C130.865 23.043 130.999 22.4941 130.999 21.7715C130.999 21.1309 130.861 20.623 130.583 20.248C130.31 19.873 129.937 19.6855 129.464 19.6855C128.999 19.6855 128.63 19.8711 128.357 20.2422C128.083 20.6094 127.947 21.1602 127.947 21.8945ZM133.372 21.7832C133.372 20.7988 133.603 20.0137 134.064 19.4277C134.529 18.8379 135.144 18.543 135.909 18.543C136.632 18.543 137.201 18.7949 137.615 19.2988L137.679 18.6602H138.962V24.8066C138.962 25.6387 138.702 26.2949 138.183 26.7754C137.667 27.2559 136.97 27.4961 136.091 27.4961C135.626 27.4961 135.171 27.3984 134.726 27.2031C134.284 27.0117 133.949 26.7598 133.718 26.4473L134.392 25.5918C134.829 26.1113 135.368 26.3711 136.009 26.3711C136.482 26.3711 136.855 26.2422 137.128 25.9844C137.402 25.7305 137.538 25.3555 137.538 24.8594V24.4316C137.128 24.8887 136.581 25.1172 135.898 25.1172C135.156 25.1172 134.548 24.8223 134.076 24.2324C133.607 23.6426 133.372 22.8262 133.372 21.7832ZM134.79 21.9062C134.79 22.543 134.919 23.0449 135.177 23.4121C135.439 23.7754 135.8 23.957 136.261 23.957C136.835 23.957 137.261 23.7109 137.538 23.2188V20.4297C137.269 19.9492 136.847 19.709 136.273 19.709C135.804 19.709 135.439 19.8945 135.177 20.2656C134.919 20.6367 134.79 21.1836 134.79 21.9062ZM141.945 25H140.521V16H141.945V25ZM146.292 25.1172C145.39 25.1172 144.658 24.834 144.095 24.2676C143.536 23.6973 143.257 22.9395 143.257 21.9941V21.8184C143.257 21.1855 143.378 20.6211 143.62 20.125C143.867 19.625 144.21 19.2363 144.652 18.959C145.093 18.6816 145.585 18.543 146.128 18.543C146.992 18.543 147.658 18.8184 148.126 19.3691C148.599 19.9199 148.835 20.6992 148.835 21.707V22.2812H144.693C144.736 22.8047 144.909 23.2188 145.214 23.5234C145.523 23.8281 145.909 23.9805 146.374 23.9805C147.027 23.9805 147.558 23.7168 147.968 23.1895L148.736 23.9219C148.482 24.3008 148.142 24.5957 147.716 24.8066C147.294 25.0137 146.82 25.1172 146.292 25.1172ZM146.122 19.6855C145.732 19.6855 145.415 19.8223 145.173 20.0957C144.935 20.3691 144.783 20.75 144.716 21.2383H147.429V21.1328C147.398 20.6562 147.271 20.2969 147.048 20.0547C146.826 19.8086 146.517 19.6855 146.122 19.6855Z" fill="black" fill-opacity="0.54"/>
</svg>
