<svg width="24" height="24" viewBox="0 0 24 24" fill="none" xmlns="http://www.w3.org/2000/svg">
<path d="M19.282 12.818C19.1001 14.4699 18.3606 16.0104 17.1855 17.1855C16.0104 18.3606 14.4699 19.1001 12.818 19.282V20.182C12.818 20.2894 12.7968 20.3958 12.7557 20.495C12.7146 20.5943 12.6544 20.6845 12.5784 20.7604C12.5025 20.8364 12.4123 20.8966 12.313 20.9377C12.2138 20.9788 12.1074 21 12 21C11.8926 21 11.7862 20.9788 11.687 20.9377C11.5877 20.8966 11.4975 20.8364 11.4216 20.7604C11.3456 20.6845 11.2854 20.5943 11.2443 20.495C11.2032 20.3958 11.182 20.2894 11.182 20.182V19.282C9.51996 19.1271 7.96428 18.3964 6.78395 17.216C5.60362 16.0357 4.87285 14.48 4.718 12.818H3.818C3.71058 12.818 3.60421 12.7968 3.50496 12.7557C3.40572 12.7146 3.31554 12.6544 3.23959 12.5784C3.16363 12.5025 3.10337 12.4123 3.06227 12.313C3.02116 12.2138 3 12.1074 3 12C3 11.8926 3.02116 11.7862 3.06227 11.687C3.10337 11.5877 3.16363 11.4975 3.23959 11.4216C3.31554 11.3456 3.40572 11.2854 3.50496 11.2443C3.60421 11.2032 3.71058 11.182 3.818 11.182H4.718C4.87285 9.51996 5.60362 7.96428 6.78395 6.78395C7.96428 5.60362 9.51996 4.87285 11.182 4.718V3.818C11.182 3.71058 11.2032 3.60421 11.2443 3.50496C11.2854 3.40572 11.3456 3.31554 11.4216 3.23959C11.4975 3.16363 11.5877 3.10337 11.687 3.06227C11.7862 3.02116 11.8926 3 12 3C12.1074 3 12.2138 3.02116 12.313 3.06227C12.4123 3.10337 12.5025 3.16363 12.5784 3.23959C12.6544 3.31554 12.7146 3.40572 12.7557 3.50496C12.7968 3.60421 12.818 3.71058 12.818 3.818V4.718C14.4699 4.89994 16.0104 5.63944 17.1855 6.81454C18.3606 7.98963 19.1001 9.53015 19.282 11.182H20.182C20.2894 11.182 20.3958 11.2032 20.495 11.2443C20.5943 11.2854 20.6845 11.3456 20.7604 11.4216C20.8364 11.4975 20.8966 11.5877 20.9377 11.687C20.9788 11.7862 21 11.8926 21 12C21 12.1074 20.9788 12.2138 20.9377 12.313C20.8966 12.4123 20.8364 12.5025 20.7604 12.5784C20.6845 12.6544 20.5943 12.7146 20.495 12.7557C20.3958 12.7968 20.2894 12.818 20.182 12.818H19.282ZM12 17.727C13.1327 17.727 14.24 17.3911 15.1818 16.7618C16.1236 16.1325 16.8576 15.2381 17.2911 14.1916C17.7245 13.1452 17.8379 11.9936 17.617 10.8827C17.396 9.77179 16.8505 8.75133 16.0496 7.9504C15.2487 7.14946 14.2282 6.60402 13.1173 6.38304C12.0064 6.16207 10.8548 6.27548 9.80837 6.70894C8.7619 7.14241 7.86746 7.87645 7.23817 8.81825C6.60888 9.76005 6.273 10.8673 6.273 12C6.26835 12.7534 6.41331 13.5002 6.69948 14.1971C6.98564 14.894 7.40731 15.5272 7.94004 16.06C8.47277 16.5927 9.10596 17.0144 9.80289 17.3005C10.4998 17.5867 11.2466 17.7316 12 17.727V17.727ZM12 15.272C11.3526 15.272 10.7198 15.08 10.1815 14.7203C9.64325 14.3606 9.22374 13.8494 8.97605 13.2513C8.72835 12.6532 8.66359 11.995 8.78996 11.3601C8.91633 10.7252 9.22816 10.142 9.68599 9.68429C10.1438 9.22659 10.7271 8.91494 11.3621 8.78877C11.997 8.66259 12.6552 8.72755 13.2532 8.97543C13.8513 9.22331 14.3624 9.64297 14.7219 10.1813C15.0814 10.7197 15.2732 11.3526 15.273 12C15.2706 12.8673 14.925 13.6984 14.3117 14.3117C13.6984 14.925 12.8673 15.2706 12 15.273V15.272ZM12 13.636C12.3236 13.636 12.6399 13.54 12.9089 13.3603C13.178 13.1805 13.3876 12.925 13.5115 12.6261C13.6353 12.3271 13.6677 11.9982 13.6046 11.6808C13.5414 11.3635 13.3856 11.072 13.1568 10.8432C12.928 10.6144 12.6365 10.4586 12.3192 10.3954C12.0018 10.3323 11.6729 10.3647 11.3739 10.4885C11.075 10.6124 10.8195 10.822 10.6397 11.0911C10.46 11.3601 10.364 11.6764 10.364 12C10.3653 12.4335 10.5381 12.8488 10.8446 13.1554C11.1512 13.4619 11.5665 13.6347 12 13.636V13.636Z" fill="#2A2E43" fill-opacity="0.4"/>
</svg>
