<svg width="24" height="24" viewBox="0 0 24 24" fill="none" xmlns="http://www.w3.org/2000/svg">
<path d="M5.45201 13.709L11.382 7.78007C11.4034 7.75142 11.4268 7.72429 11.452 7.69901C11.5223 7.62868 11.6059 7.57304 11.6979 7.53544C11.79 7.49783 11.8886 7.47901 11.988 7.48002C12.0873 7.47915 12.1857 7.49808 12.2775 7.53568C12.3694 7.57328 12.4529 7.6288 12.523 7.69901C12.5474 7.72342 12.5702 7.74948 12.591 7.77702L18.523 13.709C18.6635 13.8498 18.7424 14.0406 18.7424 14.2395C18.7424 14.4385 18.6635 14.6293 18.523 14.7701C18.3822 14.9106 18.1914 14.9894 17.9925 14.9894C17.7936 14.9894 17.6028 14.9106 17.462 14.7701L11.987 9.29398L6.51201 14.7701C6.37121 14.9106 6.18042 14.9894 5.98151 14.9894C5.78259 14.9894 5.5918 14.9106 5.45101 14.7701C5.38136 14.7003 5.32616 14.6174 5.28858 14.5263C5.251 14.4352 5.23178 14.3376 5.23201 14.2391C5.23204 14.1406 5.25149 14.043 5.28924 13.9521C5.32699 13.8611 5.3823 13.7786 5.45201 13.709V13.709Z" fill="#3F4356" fill-opacity="0.7"/>
</svg>
