<svg width="24" height="24" viewBox="0 0 24 24" fill="none" xmlns="http://www.w3.org/2000/svg">
<path d="M21.6 11.22L17 7.52V5C17.0245 4.49494 16.8477 4.00078 16.5084 3.62587C16.1691 3.25095 15.695 3.02588 15.19 3H3.79001C3.28858 3.03096 2.81953 3.25823 2.48449 3.63258C2.14944 4.00693 1.97538 4.49822 2.00001 5V15C1.99073 15.3971 2.0999 15.788 2.31362 16.1228C2.52733 16.4576 2.83591 16.7212 3.20001 16.88C3.01584 17.3305 2.94407 17.8191 2.99088 18.3036C3.03768 18.7881 3.20167 19.2539 3.46868 19.6609C3.73569 20.0678 4.09772 20.4037 4.52351 20.6395C4.9493 20.8753 5.42608 21.004 5.9127 21.0144C6.39932 21.0249 6.88117 20.9167 7.31668 20.6994C7.75218 20.482 8.12826 20.1619 8.41246 19.7668C8.69666 19.3717 8.88045 18.9133 8.94797 18.4313C9.01549 17.9492 8.96471 17.458 8.80001 17H15.16C14.9955 17.4531 14.9427 17.9392 15.0059 18.4171C15.0692 18.895 15.2467 19.3506 15.5233 19.7454C15.8 20.1401 16.1677 20.4624 16.5954 20.6849C17.023 20.9074 17.498 21.0235 17.98 21.0235C18.4621 21.0235 18.937 20.9074 19.3647 20.6849C19.7923 20.4624 20.16 20.1401 20.4367 19.7454C20.7134 19.3506 20.8908 18.895 20.9541 18.4171C21.0173 17.9392 20.9645 17.4531 20.8 17H21C21.2652 17 21.5196 16.8946 21.7071 16.7071C21.8947 16.5196 22 16.2652 22 16V12C21.9969 11.8481 21.9593 11.699 21.89 11.5638C21.8207 11.4287 21.7215 11.3111 21.6 11.22V11.22ZM20 12.48V15H17V10.08L20 12.48ZM7.00001 18C7.00001 18.1978 6.94136 18.3911 6.83148 18.5556C6.7216 18.72 6.56542 18.8482 6.38269 18.9239C6.19997 18.9996 5.9989 19.0194 5.80492 18.9808C5.61094 18.9422 5.43276 18.847 5.2929 18.7071C5.15305 18.5673 5.05781 18.3891 5.01922 18.1951C4.98064 18.0011 5.00044 17.8 5.07613 17.6173C5.15182 17.4346 5.27999 17.2784 5.44444 17.1685C5.60889 17.0586 5.80223 17 6.00001 17C6.26523 17 6.51958 17.1054 6.70712 17.2929C6.89465 17.4804 7.00001 17.7348 7.00001 18ZM12 15H4.00001V5H15V15H12ZM19 18C19 18.1978 18.9414 18.3911 18.8315 18.5556C18.7216 18.72 18.5654 18.8482 18.3827 18.9239C18.2 18.9996 17.9989 19.0194 17.8049 18.9808C17.6109 18.9422 17.4328 18.847 17.2929 18.7071C17.153 18.5673 17.0578 18.3891 17.0192 18.1951C16.9806 18.0011 17.0004 17.8 17.0761 17.6173C17.1518 17.4346 17.28 17.2784 17.4444 17.1685C17.6089 17.0586 17.8022 17 18 17C18.2652 17 18.5196 17.1054 18.7071 17.2929C18.8947 17.4804 19 17.7348 19 18Z" fill="#2A2E43" fill-opacity="0.4" stroke="#F8F9FA" stroke-width="0.2"/>
</svg>
