<svg width="1897" height="1074" viewBox="0 0 1897 1074" preserveAspectRatio="xMidYMid meet" fill="none" xmlns="http://www.w3.org/2000/svg">
<g clip-path="url(#clip0)">
<path d="M178 81.7155C178.553 71.1658 183.144 61.2296 190.825 53.9561C198.505 46.6835 208.691 42.6291 219.281 42.6291C220.537 42.6291 221.777 42.6944 223.005 42.8035C227.834 34.5148 234.758 27.6358 243.086 22.8524C251.413 18.069 260.853 15.5494 270.462 15.5449C280.071 15.5405 289.513 18.0511 297.845 22.8265C306.178 27.6018 313.108 34.4746 317.945 42.7588C318.981 42.681 320.023 42.6291 321.079 42.6291C331.669 42.6291 341.854 46.6835 349.535 53.9561C357.216 61.2296 361.806 71.1658 362.36 81.7155" fill="#00B2D9" fill-opacity="0.1"/>
<path d="M186.9 79.1706C187.454 68.6208 192.044 58.6838 199.725 51.4112C207.405 44.1386 217.591 40.0841 228.18 40.0841C229.436 40.0841 230.677 40.1494 231.905 40.2586C236.734 31.9699 243.658 25.0909 251.986 20.3075C260.313 15.5241 269.753 13.0045 279.362 13C288.971 12.9955 298.413 15.5062 306.745 20.2815C315.078 25.0569 322.008 31.9297 326.845 40.2138C327.881 40.136 328.923 40.0841 329.979 40.0841C340.569 40.0841 350.754 44.1386 358.435 51.4112C366.116 58.6838 370.706 68.6208 371.26 79.1706" fill="#00B2D9" fill-opacity="0.25"/>
<path d="M186.9 79.1706C187.454 68.6208 192.044 58.6838 199.725 51.4112C207.405 44.1386 217.591 40.0841 228.18 40.0841C229.436 40.0841 230.677 40.1494 231.905 40.2586C236.734 31.9699 243.658 25.0909 251.986 20.3075C260.313 15.5241 269.753 13.0045 279.362 13C288.971 12.9955 298.413 15.5062 306.745 20.2815C315.078 25.0569 322.008 31.9297 326.845 40.2138C327.881 40.136 328.923 40.0841 329.979 40.0841C340.569 40.0841 350.754 44.1386 358.435 51.4112C366.116 58.6838 370.706 68.6208 371.26 79.1706" stroke="#9597A2" stroke-miterlimit="10"/>
<path d="M22 419C26.3079 335.743 95.5348 269.554 180.305 269.554C185.123 269.554 189.881 269.803 194.589 270.222C213.108 238.532 239.661 212.228 271.596 193.94C303.533 175.651 339.733 166.018 376.582 166C413.433 165.982 449.642 175.583 481.595 193.841C513.548 212.1 540.126 238.377 558.674 270.05C562.647 269.754 566.646 269.554 570.694 269.554C655.465 269.554 724.692 335.743 729 419" fill="#00B2D9" fill-opacity="0.1"/>
<path d="M56 407C60.2896 323.085 129.223 256.372 213.634 256.372C218.431 256.372 223.168 256.624 227.857 257.046C246.297 225.105 272.737 198.594 304.537 180.161C336.337 161.727 372.384 152.018 409.078 152C445.772 151.982 481.827 161.659 513.645 180.061C545.463 198.464 571.927 224.949 590.397 256.874C594.352 256.575 598.334 256.372 602.366 256.372C686.777 256.372 755.71 323.085 760 407" fill="#00B2D9" fill-opacity="0.1"/>
<path d="M56 407C60.2896 323.085 129.223 256.372 213.634 256.372C218.431 256.372 223.168 256.624 227.857 257.046C246.297 225.105 272.737 198.594 304.537 180.161C336.337 161.727 372.384 152.018 409.078 152C445.772 151.982 481.827 161.659 513.645 180.061C545.463 198.464 571.927 224.949 590.397 256.874C594.352 256.575 598.334 256.372 602.366 256.372C686.777 256.372 755.71 323.085 760 407" stroke="#9597A2" stroke-miterlimit="10"/>
<path d="M617 156C617.753 141.65 624.003 128.136 634.461 118.244C644.918 108.352 658.785 102.837 673.202 102.837C674.912 102.837 676.601 102.926 678.273 103.075C684.847 91.8019 694.274 82.4451 705.612 75.9392C716.95 69.4334 729.802 66.0062 742.885 66C755.967 65.9939 768.822 69.4089 780.166 75.9041C791.51 82.3992 800.946 91.7472 807.531 103.015C808.941 102.908 810.361 102.837 811.798 102.837C826.216 102.837 840.082 108.352 850.54 118.244C860.996 128.136 867.247 141.65 868 156" fill="#00B2D9" fill-opacity="0.1"/>
<path d="M629 152C629.756 137.65 636.031 124.136 646.53 114.244C657.029 104.353 670.951 98.8376 685.426 98.8376C687.143 98.8376 688.839 98.9266 690.517 99.075C697.118 87.8018 706.582 78.4449 717.965 71.9391C729.349 65.4333 742.251 62.0062 755.386 62C768.521 61.9939 781.427 65.4089 792.816 71.904C804.206 78.3992 813.679 87.747 820.29 99.0138C821.706 98.9086 823.131 98.8376 824.575 98.8376C839.049 98.8376 852.971 104.353 863.47 114.244C873.969 124.136 880.244 137.65 881 152" fill="#00B2D9" fill-opacity="0.25"/>
<path d="M629 152C629.756 137.65 636.031 124.136 646.53 114.244C657.029 104.353 670.951 98.8376 685.426 98.8376C687.143 98.8376 688.839 98.9266 690.517 99.075C697.118 87.8018 706.582 78.4449 717.965 71.9391C729.349 65.4333 742.251 62.0062 755.386 62C768.521 61.9939 781.427 65.4089 792.816 71.904C804.206 78.3992 813.679 87.747 820.29 99.0138C821.706 98.9086 823.131 98.8376 824.575 98.8376C839.049 98.8376 852.971 104.353 863.47 114.244C873.969 124.136 880.244 137.65 881 152" stroke="#9597A2" stroke-miterlimit="10"/>
<path d="M522.139 438.172C522.139 438.172 504.34 451.735 470.424 475.009C436.508 498.283 390.48 551.489 390.48 551.489L313.461 624.211L233.187 732.229L200.655 788.963L187.698 815.611L165.286 837.58C165.286 837.58 137.815 860.147 119.188 870.56C109.28 876.099 70.9155 897.334 42.7844 917.99C18.0236 936.172 2.54297 954.384 2.54297 954.384C2.54297 954.384 419.081 823.794 656.902 814.235C788.631 808.942 1023.04 853.301 1168.69 878.344C1314.34 903.386 1424.89 918.814 1521.19 905.497C1559.89 900.147 1642.99 886.587 1711.2 861.882C1812.71 825.113 1875.68 771.778 1875.68 771.778L1881.74 725.968C1881.74 725.968 1879.84 716.424 1870.3 697.973C1860.76 679.521 1837.39 657.181 1816.3 631.044L1783.76 576.208L1748.63 526.678C1748.63 526.678 1713.22 448.345 1692.6 422.797C1671.97 397.251 1618.83 365.343 1603.44 346.235L1595.23 320.712L1583.12 303.848L1565.54 284.921L1530.18 261.936L1503.9 228.052C1503.9 228.052 1486.81 196.906 1450.12 223.908C1437.98 232.83 1429.31 243.457 1419.37 253.4C1399.25 273.553 1382.68 291.568 1382.68 291.568L1345.46 256.119L1302.61 224.494L1276 193.57L1236.87 145.071C1236.87 145.071 1227.15 110.734 1208.48 102.744C1192.2 95.7717 1176.19 100.257 1165.37 107.388C1154.56 114.52 1064.32 148.564 1064.32 148.564L975.972 199.332L881.479 237.851L843.24 262.784C843.24 262.784 830.962 238.948 815.984 229.82C799.139 219.553 775.581 215.244 758.854 225.419C758.854 225.419 647.75 300.493 631.413 312.178C615.077 323.864 569.27 375.095 569.27 375.095L547.802 410.279L522.139 438.172Z" fill="#ECECEE"/>
<path d="M471.707 834.768C477.255 783.022 488.847 720.046 497.193 696.947C505.871 672.923 541.358 609.811 544.791 602.386C557.368 575.183 567.276 572.153 579.812 547.539C592.348 522.924 619.58 506.764 626.305 495.066C640.696 470.033 646.181 465.075 669.678 447.916C693.177 430.756 723.115 396.399 730.174 390.186C737.234 383.973 755.083 375.909 767.221 359.622C781.209 340.856 787.393 318.553 788.775 315.389C803.566 281.555 796.564 261.363 804.051 247.878C809.044 238.888 804.9 229.643 791.621 220.145" stroke="#CECED1" stroke-linecap="round"/>
<path d="M193.26 809.318C216.291 775.424 228.934 763.257 242.284 750.582C275.282 719.254 314.591 699.829 332.193 685.957C366.889 658.614 413.657 640.142 431.557 627.318C474.726 596.385 523.739 580.599 537.058 570.661C555.53 556.878 566.113 540.476 583.07 525.361C591.185 518.128 605.346 507.585 625.552 493.735" stroke="#CECED1" stroke-linecap="round"/>
<path d="M795.926 302.858C813.279 317.721 823.08 337.723 825.329 362.865C826.383 374.633 815.76 396.802 830.978 447.411C835.436 462.234 862.697 478.983 877.439 516.617C883.938 533.207 868.768 573.723 878.074 610.929C881.251 623.637 897.523 638.866 926.885 656.616" stroke="#CECED1" stroke-linecap="round"/>
<path d="M2.29132 951.545L2.00879 952.03L3.17806 952.475L3.46059 951.99L2.29132 951.545ZM399.928 546.36L400.382 546.735L400.43 546.695L400.468 546.648L399.928 546.36ZM1085.83 522.482L1086.38 522.764L1087.09 521.857L1086.54 521.575L1085.83 522.482ZM3.46059 951.99C12.7143 941.659 23.3805 933.36 40.6861 921.299C57.9851 909.243 76.2321 896.256 96.7439 883.983C117.242 871.718 138.233 860.041 155.116 846.857C171.997 833.675 187.705 822.293 194.128 807.428L192.906 807.089C186.585 821.718 171.05 832.957 154.233 846.089C137.419 859.218 116.494 870.857 95.9941 883.123C75.5083 895.382 57.2059 908.4 39.8584 920.49C22.5175 932.576 12.0786 940.386 2.29132 951.545L3.46059 951.99ZM194.128 807.428C219.592 748.502 253.433 711.859 273.822 682.455L272.697 681.941C252.395 711.218 218.422 748.041 192.906 807.089L194.128 807.428ZM273.822 682.455C308.4 632.592 350.587 587.352 400.382 546.735L399.476 545.984C349.596 586.672 307.336 631.991 272.697 681.941L273.822 682.455ZM400.468 546.648C430.741 509.016 464.902 478.557 502.947 455.26L502.185 454.407C463.997 477.791 429.734 508.35 399.39 546.071L400.468 546.648ZM502.947 455.26C531.62 437.701 545.175 421.837 554.395 407.263C558.992 399.996 562.523 393.029 566.289 386.397C570.064 379.751 574.092 373.402 579.721 367.276L578.691 366.643C572.978 372.86 568.904 379.289 565.115 385.962C561.318 392.649 557.827 399.544 553.246 406.785C544.11 421.224 530.685 436.956 502.185 454.407L502.947 455.26ZM579.721 367.276C602.43 342.563 626.683 311.78 672.122 286.565L671.412 285.683C625.744 311.025 601.344 341.991 578.691 366.643L579.721 367.276ZM672.122 286.565C680.635 281.842 689.76 275.106 699.288 267.713C708.831 260.309 718.777 252.248 728.976 244.822C739.173 237.399 749.586 230.64 760.029 225.852C770.474 221.064 780.906 218.265 791.154 218.714L791.25 217.648C780.667 217.184 769.983 220.076 759.415 224.921C748.847 229.767 738.35 236.586 728.128 244.029C717.906 251.47 707.922 259.562 698.408 266.944C688.879 274.336 679.823 281.016 671.412 285.683L672.122 286.565ZM791.154 218.714C801.441 219.165 809.328 221.811 815.95 226.074C822.589 230.347 827.981 236.26 833.239 243.282C843.727 257.286 853.672 275.724 871.853 293.701L872.858 293.008C854.748 275.101 844.95 256.865 834.349 242.709C829.064 235.65 823.577 229.614 816.764 225.227C809.935 220.832 801.797 218.11 791.25 217.648L791.154 218.714ZM871.853 293.701C880.933 302.679 889.493 310.695 897.463 318.093C905.435 325.495 912.812 332.275 919.536 338.792C932.982 351.823 943.778 363.766 951.42 377.415L952.6 376.952C944.888 363.175 934.004 351.147 920.534 338.091C913.799 331.564 906.408 324.772 898.443 317.376C890.474 309.979 881.925 301.974 872.858 293.008L871.853 293.701ZM951.42 377.415C959.136 391.199 965.52 396.735 972.279 401.933C978.987 407.093 986.016 411.889 995.156 424.243L996.27 423.675C987.031 411.188 979.887 406.308 973.176 401.147C966.517 396.025 960.238 390.595 952.6 376.952L951.42 377.415ZM995.156 424.243C1004.29 436.595 1005.78 443.267 1008.02 450.176C1010.28 457.154 1013.29 464.304 1025.45 477.481L1026.49 476.825C1014.43 463.755 1011.5 456.729 1009.28 449.882C1007.04 442.967 1005.51 436.166 996.27 423.675L995.156 424.243ZM1025.45 477.481C1041.64 495.032 1061.77 510.033 1085.83 522.482L1086.54 521.575C1062.6 509.188 1042.58 494.27 1026.49 476.825L1025.45 477.481Z" fill="#9597A2"/>
<path d="M1219.32 297.768C1226.32 306.758 1230.41 313.413 1231.59 317.735C1232.33 320.45 1234.57 330.258 1247.86 341.711C1251.74 345.054 1261.67 348.165 1272.58 354.663C1275.14 356.191 1278.58 359.283 1282.89 363.939" stroke="#CECED1" stroke-linecap="round"/>
<path d="M1199.8 99.2559C1202.87 102.785 1205.3 106.702 1207.08 111.006C1207.69 112.479 1215.09 134.031 1215.17 156.361C1215.19 161.849 1212.73 182.8 1199.51 207.798C1196.46 213.572 1190.87 231.92 1199.05 254.405C1201.29 260.545 1217.92 280.459 1218.05 303.936C1218.11 315.941 1203 339.084 1198.94 366.715C1197.61 375.708 1200.44 391.194 1194.84 411.872C1191.85 422.905 1183.91 442.983 1171 472.102" stroke="#CECED1" stroke-linecap="round"/>
<path d="M844.241 262.993C863.515 250.884 876.631 242.691 883.589 238.414C886.971 236.333 913.45 226.767 966.421 204.417C1019.39 182.066 1009.98 174.681 1050.75 157.338C1067.9 150.042 1092.46 134.914 1127.24 122.704C1162.03 110.494 1179.76 94.5126 1201.87 98.6504C1223.98 102.789 1223.04 125.42 1239.13 147.247C1255.22 169.074 1259.22 171.333 1274.06 188.653C1288.9 205.972 1285.21 209.346 1311.98 231.726C1338.75 254.107 1349.57 260.662 1358.99 271.008C1365.27 277.906 1371.68 284.705 1378.25 291.405" stroke="#9597A2" stroke-linecap="square"/>
<path d="M1312.37 475.919C1321.52 491.962 1327.22 508.822 1329.44 526.499C1332.8 553.013 1317.92 579.597 1315.96 611.406C1313.99 643.213 1287.67 649.691 1275.44 690.595C1268.31 714.422 1249.72 747.637 1225.75 765.536C1209.77 777.47 1155.86 836.891 1126.5 872.943" stroke="#CECED1" stroke-linecap="round"/>
<path d="M1477.42 213.782C1482.77 215.723 1489.24 221.07 1492.15 227.51C1500.69 246.41 1506 279.694 1518.11 292.237C1530.2 304.778 1555.19 315.934 1579.11 371.162C1585.69 386.374 1592.24 439.002 1604.57 480.814C1616.88 522.626 1627.89 506.113 1643.95 561.303C1646.63 570.462 1662.71 581.47 1666.79 596.88C1667.87 600.941 1666.09 607.01 1671.01 633.849C1672.92 644.3 1696.47 655.038 1701.42 677.96C1704.33 691.501 1754.77 700.227 1757.64 732.17C1758.69 743.911 1780.8 770.856 1783.32 788.834C1785.01 800.819 1797.21 810.72 1814.36 814.408" stroke="#CECED1" stroke-linecap="round"/>
<path d="M822.627 827.133C879.726 812.051 967.946 766.22 972.599 751.771C979.578 730.097 1031.36 721.717 1041.6 706.925C1067.44 669.563 1111.23 653.601 1123.59 645.333C1154.8 624.442 1171.22 634.228 1210.28 590.066C1249.34 545.903 1233.21 548.336 1250.2 529.005C1267.2 509.674 1293.24 503.827 1304.99 486.642C1316.75 469.457 1308.34 444.243 1312.65 439.11C1335.95 411.399 1334 388.472 1349.91 376.735C1365.83 364.999 1387.44 366.782 1397.04 347.777C1406.63 328.772 1404.53 312.708 1416.1 297.217C1423.81 286.89 1437.47 261.198 1457.08 220.145" stroke="#CECED1" stroke-linecap="round"/>
<path d="M650.255 820.859L649.71 821.158L650.416 822.043L650.961 821.743L650.255 820.859ZM1882.56 774.497L1883.17 774.685L1883.65 773.687L1883.06 773.498L1882.56 774.497ZM650.961 821.743C679.98 805.825 716.667 784.046 750.882 764.776C785.142 745.479 816.904 728.711 836.197 722.712L835.76 721.714C816.286 727.768 784.383 744.625 750.162 763.899C715.893 783.199 679.28 804.938 650.255 820.859L650.961 821.743ZM836.197 722.712C839.631 721.644 844.353 719.407 850.342 716.033C856.341 712.652 863.648 708.111 872.259 702.412C889.482 691.012 911.949 674.963 939.657 654.267L938.795 653.483C911.095 674.173 888.649 690.205 871.457 701.585C862.861 707.275 855.584 711.798 849.623 715.156C843.651 718.519 839.038 720.694 835.76 721.714L836.197 722.712ZM939.657 654.267C950.224 646.374 964.419 639.984 981.301 631.38C998.152 622.793 1017.57 612.047 1038.44 595.493L1037.55 594.732C1016.78 611.211 997.444 621.909 980.633 630.475C963.853 639.027 949.481 645.5 938.795 653.483L939.657 654.267ZM1038.44 595.493C1043.13 591.769 1047.34 586.952 1051.53 581.418C1055.71 575.886 1059.88 569.599 1064.49 562.944C1073.7 549.617 1084.68 534.735 1101.01 521.038L1100.09 520.298C1083.63 534.101 1072.59 549.088 1063.36 562.43C1058.74 569.11 1054.59 575.36 1050.43 580.867C1046.26 586.373 1042.12 591.101 1037.55 594.732L1038.44 595.493ZM1101.01 521.038C1111.51 512.234 1127.45 503.432 1146.4 492.345C1165.33 481.275 1187.19 467.963 1209.41 450.181L1208.51 449.423C1186.36 467.145 1164.57 480.418 1145.66 491.479C1126.78 502.525 1110.7 511.404 1100.09 520.298L1101.01 521.038ZM1209.41 450.181C1219.38 442.203 1228.08 429.804 1238.94 415.501C1249.82 401.168 1262.91 384.839 1281.69 368.863L1280.76 368.129C1261.88 384.191 1248.73 400.598 1237.84 414.949C1226.92 429.33 1218.33 441.565 1208.51 449.423L1209.41 450.181ZM1281.69 368.863C1288.79 362.824 1299.83 357.599 1312.82 351.113C1325.76 344.645 1340.56 336.962 1354.97 326.035L1354.1 325.257C1339.78 336.105 1325.09 343.742 1312.16 350.203C1299.26 356.646 1288.02 361.96 1280.76 368.129L1281.69 368.863ZM1354.97 326.035C1358.29 323.523 1361.5 320.133 1364.83 316.147C1368.18 312.16 1371.67 307.543 1375.52 302.577C1383.25 292.631 1392.47 281.226 1405.07 270.359L1404.14 269.631C1391.45 280.578 1382.16 292.058 1374.43 302.014C1370.56 306.999 1367.09 311.588 1363.77 315.553C1360.45 319.519 1357.31 322.829 1354.1 325.257L1354.97 326.035ZM1405.07 270.359C1409.73 266.341 1415.27 260.817 1421.29 254.761C1427.33 248.699 1433.85 242.094 1440.51 235.889C1447.17 229.682 1453.92 223.891 1460.41 219.454C1466.93 215.007 1473.09 211.972 1478.56 211.189L1478.36 210.137C1472.55 210.97 1466.15 214.159 1459.6 218.638C1453.02 223.129 1446.21 228.969 1439.54 235.192C1432.87 241.415 1426.32 248.038 1420.3 254.096C1414.26 260.16 1408.76 265.649 1404.14 269.631L1405.07 270.359ZM1478.56 211.189C1483.91 210.425 1489.19 212.51 1494.5 216.485C1499.82 220.453 1505.06 226.217 1510.3 232.591C1512.92 235.775 1515.53 239.101 1518.15 242.421C1520.78 245.74 1523.4 249.053 1526.05 252.203C1531.32 258.494 1536.7 264.168 1542.22 267.954L1543.06 267.127C1537.68 263.438 1532.4 257.864 1527.12 251.585C1524.49 248.448 1521.88 245.147 1519.25 241.827C1516.63 238.509 1514 235.174 1511.38 231.98C1506.13 225.6 1500.82 219.745 1495.4 215.687C1489.97 211.636 1484.31 209.288 1478.36 210.137L1478.56 211.189ZM1542.22 267.954C1547.68 271.696 1551.87 274.356 1555.4 276.609C1558.94 278.864 1561.8 280.703 1564.6 282.814C1570.21 287.031 1575.68 292.359 1585.87 304.259L1586.93 303.632C1576.72 291.717 1571.2 286.314 1565.49 282.019C1562.64 279.875 1559.74 278.013 1556.21 275.76C1552.68 273.507 1548.5 270.858 1543.06 267.127L1542.22 267.954ZM1585.87 304.259C1590.94 310.183 1593.73 314.694 1595.53 318.595C1597.32 322.508 1598.14 325.807 1599.27 329.384C1601.55 336.56 1605.04 344.529 1620.09 359.712L1621.1 359.027C1606.15 343.946 1602.75 336.109 1600.53 329.095C1599.42 325.576 1598.58 322.181 1596.74 318.199C1594.91 314.204 1592.06 309.616 1586.93 303.632L1585.87 304.259ZM1620.09 359.712C1635.12 374.881 1646.31 382.663 1656.86 389.977C1667.39 397.278 1677.25 404.105 1689.7 417.386L1690.73 416.724C1678.21 403.351 1668.26 396.468 1657.71 389.155C1647.19 381.856 1636.07 374.121 1621.1 359.027L1620.09 359.712ZM1689.7 417.386C1702.12 430.638 1711.05 449.873 1720.6 470.935C1730.15 491.964 1740.29 514.775 1755.13 535.041L1756.25 534.476C1741.47 514.308 1731.38 491.594 1721.83 470.544C1712.29 449.525 1703.29 430.125 1690.73 416.724L1689.7 417.386ZM1755.13 535.041C1769.93 555.24 1790.03 586.666 1805.56 612.567C1821.1 638.478 1838.5 654.34 1842.99 665.868L1844.23 665.524C1839.7 653.91 1822.26 637.983 1806.73 612.078C1791.18 586.163 1771.06 554.71 1756.25 534.476L1755.13 535.041ZM1842.99 665.868C1847.53 677.488 1859.91 684.322 1864.67 692.246C1869.42 700.168 1876.63 707.677 1879.84 724.059L1881.13 723.869C1877.9 707.376 1870.64 699.766 1865.84 691.759C1861.04 683.756 1848.73 677.046 1844.23 665.524L1842.99 665.868ZM1879.84 724.059C1881.99 735.065 1869.17 749.316 1874.21 755.348C1879.25 761.389 1874.87 772.083 1882.56 774.497L1883.06 773.498C1875.57 771.154 1880.16 760.586 1875.28 754.731C1870.38 748.867 1883.26 734.779 1881.13 723.869L1879.84 724.059Z" fill="#9597A2"/>
<path d="M648 780.99C415.632 783.089 1.27148 947.857 1.27148 947.857L19.4201 1072.73C19.4201 1072.73 434.086 910.228 676.91 906.799C919.733 903.37 1219.07 1024.67 1453.2 1021.61C1687.33 1018.56 1895.73 852.241 1895.73 852.241L1881.72 725.332C1881.72 725.332 1638.46 914.154 1399.36 893.261C1160.26 872.369 880.368 778.889 648 780.99Z" fill="#BFC0C7" stroke="#9597A2" stroke-linejoin="round"/>
<path d="M22.8862 1007.83C22.8862 1007.83 434.186 844.005 664.826 841.889C895.466 839.773 1173.26 932.653 1410.59 953.391C1647.91 974.128 1889.37 786.412 1889.37 786.412" stroke="white" stroke-opacity="0.5" stroke-dasharray="10 10"/>
<path d="M608.104 768.105L650.778 766.393L662.232 768.156L663.442 769.381L679.566 783.51L695.181 797.268L708.305 806.263L727.601 814.516L729.72 816.807L731.329 820.82L732.395 836.962L727.931 838.665L726.018 854.034L721.098 854.409L720.831 851.522L718.455 845.931L714.451 841.784L708.692 838.77L702.575 838.055L692.598 838.363L684.848 840.589L679.55 844.084L671.935 853.435L665.81 864.49L666.019 866.746L616.06 870.558L612.307 819.178L608.104 768.105Z" fill="#F4F5F6"/>
<path d="M665.866 864.576L672.686 852.288L678.415 845.215L682.248 841.833L687.839 839.452L695.209 838.254L705.912 838.074L710.587 839.671L714.305 841.75L717.791 844.938L720.16 849.937L720.492 851.457L719.346 851.953L714.731 846.353L707.997 841.549L698.354 839.286L690.169 839.911L683.997 842.199L677.632 847.048L673.134 853.526L670.948 863.371L666.045 866.517L665.866 864.576Z" fill="#BFC0C7"/>
<path d="M458.289 861.059L459.97 861.204L451.747 880.462L444.698 880.999L449.837 871.157L452.707 866.12L455.58 862.675L458.289 861.059Z" fill="#BFC0C7"/>
<path d="M501.772 871.691L504.095 875.694L506.418 880.198L502.971 877.962L501.772 871.691Z" fill="#BFC0C7"/>
<path d="M728.059 839.019L731.357 839.131L733.774 840.536L734.972 842.671L734.726 845.69L733.676 849.269L732.605 852.623L726.172 854.158L728.059 839.019Z" fill="#BFC0C7"/>
<path d="M608.065 766.654L677.708 763.43L670.126 765.917L662.572 768.221L657.228 767.357L651.883 766.491L608.195 768.053L608.065 766.654Z" fill="#BFC0C7"/>
<path d="M341.808 872.493L343.057 872.079L343.278 874.47L347.948 879.113L341.53 881.829L341.808 872.493Z" fill="#8F929D"/>
<path d="M338.215 872.267L342.8 870.327L342.946 871.906L341.951 872.481L341.727 877.27L341.211 881.989L337.845 881.656L338.215 872.267Z" fill="#BFC0C7"/>
<path d="M332.94 779.742L329.409 750.338L328.978 743.101L329.649 739.551L331.387 737.736L335.798 736.99L343.062 736.209L382.327 732.668L473.425 725.488L560.759 718.824L648.301 711.827L671.749 710.354L684.976 719.434L708.121 738.888L711.977 743.502L711.403 746.044L706.625 752.589L697.007 761.411L653.151 764.758L608.11 767.15L616.213 873.243L506.551 880.097L502.307 872.332L494.555 861.154L491.248 859.407L457.824 861.185L455.614 862.535L452.189 866.705L446.812 876.567L442.812 883.795L397.95 885.037L354.671 885.87L351.644 883.526L347.554 878.461L343.464 874.411L341.904 860.125L338.713 825.651L332.94 779.742Z" fill="#F4F5F6"/>
<path d="M638.557 725.248L639.462 743.264" stroke="#2A2E43" stroke-linecap="square"/>
<path d="M641.68 725.01L642.585 743.026" stroke="#2A2E43" stroke-linecap="square"/>
<path fill-rule="evenodd" clip-rule="evenodd" d="M614.675 726.888C632.667 725.515 650.658 724.142 668.651 722.769C668.843 722.755 671.333 724.773 676.125 728.826C679.444 731.652 681.254 733.353 681.557 733.925C682.011 734.783 682.382 735.343 682.222 737.059C682.055 738.827 680.584 740.218 678.728 740.359L616.03 745.144C613.835 745.31 611.898 743.75 611.705 741.656C611.701 741.619 611.699 741.581 611.696 741.544L611.043 730.87C610.917 728.816 612.526 727.052 614.675 726.888Z" stroke="#2A2E43"/>
<path fill-rule="evenodd" clip-rule="evenodd" d="M614.176 724.655L668.002 720.547C668.56 720.504 669.116 720.678 669.542 721.028L677.676 727.712C677.728 727.754 677.781 727.795 677.833 727.836C680.969 730.246 683.036 732.255 684.031 733.864C685.749 736.64 684.791 740.201 681.891 741.816C681.105 742.253 680.226 742.517 679.317 742.586L615.988 747.419C612.643 747.673 609.693 745.295 609.397 742.105C609.393 742.056 609.389 742.009 609.386 741.961L608.643 730.747C608.436 727.609 610.891 724.905 614.176 724.655Z" stroke="#2A2E43"/>
<path d="M341.424 882.019L347.736 879.175" stroke="#2A2E43" stroke-linecap="round"/>
<path d="M338.519 872.243L342.815 870.28" stroke="#2A2E43" stroke-linecap="square"/>
<path d="M341.967 872.434L342.923 871.953" stroke="#2A2E43" stroke-linecap="square"/>
<path d="M341.746 872.42L338.52 872.237C338.416 872.23 338.326 872.307 338.321 872.406L337.821 881.624C337.816 881.725 337.896 881.81 338.002 881.816L341.226 882C341.332 882.006 341.421 881.93 341.426 881.83L341.925 872.612C341.93 872.512 341.85 872.426 341.746 872.42Z" stroke="#2A2E43"/>
<path fill-rule="evenodd" clip-rule="evenodd" d="M331.702 770.08L710.521 741.172L712.471 743.73C712.372 744.544 712.167 745.232 711.858 745.794C711.549 746.355 710.987 747.057 710.172 747.902C708.835 749.661 707.716 751.062 706.816 752.107C705.916 753.151 704.508 754.682 702.596 756.698C701.306 758.236 700.291 759.312 699.547 759.927C698.803 760.542 697.914 761.041 696.882 761.424C696.324 761.765 694.67 762.087 691.921 762.39C689.17 762.694 685.075 763.006 679.635 763.328L608.113 766.905L612.699 824.16L592.237 825.721L589.419 795.27C590.638 794.631 591.428 794.043 591.785 793.508C592.143 792.971 592.404 791.982 592.572 790.54L589.297 755.147C588.315 754.183 587.603 753.485 587.16 753.049C586.716 752.614 585.914 752.32 584.753 752.164L483.973 759.855C482.685 760.192 481.842 760.612 481.445 761.117C481.048 761.621 480.539 762.413 479.916 763.493C481.096 779.135 482.188 790.934 483.191 798.888C483.279 799.574 483.797 801.082 485.242 802.149C485.696 802.484 486.607 802.82 487.979 803.155L490.298 833.5L340.471 844.934L331.702 770.08Z" fill="#FAA05D"/>
<path d="M590.683 795.881L486.033 803.867L488.788 833.648L593.438 825.662L590.683 795.881Z" fill="#FAA05D"/>
<path fill-rule="evenodd" clip-rule="evenodd" d="M331.376 737.904C335.154 735.702 429.208 729.114 518.43 722.13C596.928 715.985 670.228 709.847 671.837 710.423C677.038 712.29 712.228 741.119 712.471 743.73C712.712 746.342 700.496 759.855 697.065 761.513C694.776 762.619 665.126 764.416 608.112 766.905L616.352 873.255C556.495 876.866 519.913 879.18 506.608 880.195C504.116 876.687 498.279 862.75 493.469 860.378C484.714 856.061 459.66 860.985 459.239 861.007C452.291 861.361 447.944 877.349 442.702 883.702C412.609 884.892 383.239 885.595 354.592 885.808C349.988 882.79 349.743 880.155 343.417 874.473C336.944 804.531 331.062 767.005 329.847 754.324C329.191 747.481 327.599 740.107 331.376 737.904Z" stroke="#2A2E43"/>
<path d="M662.553 768.312L678.348 763.427" stroke="#2A2E43" stroke-linecap="square"/>
<path fill-rule="evenodd" clip-rule="evenodd" d="M727.849 838.878C729.936 838.765 731.461 838.981 732.428 839.527C733.876 840.345 734.637 841.529 735.01 842.883C735.259 843.786 734.878 845.76 733.868 848.804C733.229 850.597 732.804 851.804 732.593 852.426C732.383 853.047 730.209 853.633 726.072 854.183L727.849 838.878Z" stroke="#2A2E43"/>
<path d="M718.984 852.162L720.542 851.497" stroke="#2A2E43" stroke-linecap="square"/>
<path d="M444.722 881.043L452.101 880.48" stroke="#2A2E43" stroke-linecap="square"/>
<path fill-rule="evenodd" clip-rule="evenodd" d="M611.554 809.284L702.247 802.363L714.607 809.28C719.569 811.04 723.159 812.448 725.374 813.505C727.589 814.561 728.826 815.406 729.086 816.038L612.768 824.913L611.554 809.284Z" fill="#FAA05D"/>
<path fill-rule="evenodd" clip-rule="evenodd" d="M608.44 768.173C634.151 767.123 648.344 766.603 651.022 766.612C653.698 766.621 657.409 767.197 662.154 768.343L694.108 796.254C700.258 801.168 705.656 804.757 710.303 807.021C714.949 809.283 719.647 811.276 724.395 813C727.423 814.147 729.435 815.821 730.428 818.027C731.422 820.232 732.012 826.608 732.199 837.156L727.849 838.877L726.072 854.181L720.939 854.573C720.818 851.872 720.213 849.411 719.123 847.193C717.488 843.864 711.842 837.819 702.251 838.083C698.278 838.192 690.653 837.938 684.509 840.796C680.765 842.538 679.627 843.562 674.923 849.441C671.786 853.362 669.25 857.642 667.313 862.286L665.979 864.663L616.074 868.47L608.44 768.173Z" stroke="#2A2E43"/>
<path fill-rule="evenodd" clip-rule="evenodd" d="M608.876 774.2C637.383 772.952 652.662 772.331 654.712 772.337C656.761 772.343 658.738 773.02 660.644 774.368C672.982 784.489 680.93 791.252 684.489 794.654C689.826 799.76 691.048 800.732 693.936 806.214C696.824 811.694 696.701 814.265 697.102 818.594C697.502 822.923 696.311 831.876 696.311 831.876C696.311 831.876 689.5 832.239 683.862 834.399C678.224 836.559 677.468 836.581 673.31 840.691C669.153 844.8 668.681 848.157 666.959 851.108C665.237 854.059 662.806 859.814 662.113 860.927C661.65 861.669 646.162 862.656 615.65 863.892L608.876 774.2Z" stroke="#2A2E43"/>
<path fill-rule="evenodd" clip-rule="evenodd" d="M668.696 783.839C676.517 791.406 680.756 795.648 681.413 796.566C682.401 797.941 681.69 799.55 680.062 799.675C678.433 799.798 636.341 803.215 632.841 803.277C629.34 803.341 629.226 802.113 628.619 800.595C628.011 799.076 622.438 781.601 622.125 779.906C621.811 778.21 621.829 776.709 624.156 776.454C626.481 776.199 649.403 774.605 654.891 774.92C658.549 775.13 663.151 778.103 668.696 783.839Z" stroke="#2A2E43"/>
<path d="M665.963 866.433L666.002 864.794" stroke="#2A2E43" stroke-linecap="square"/>
<path d="M616.217 870.501L666.164 866.69L670.952 863.416" stroke="#2A2E43" stroke-linecap="square"/>
<path d="M616.733 774.126C619.444 789.312 621.486 804.324 622.859 819.163C624.232 834.002 624.943 848.74 624.993 863.379" stroke="#2A2E43" stroke-linecap="square"/>
<path fill-rule="evenodd" clip-rule="evenodd" d="M663.317 769.394C662.787 769.868 662.45 770.498 662.304 771.285C662.374 772.038 690.817 796.11 691.715 796.816C692.312 797.287 693.45 797.366 695.127 797.056L680.302 784.194L663.317 769.394Z" stroke="#2A2E43" stroke-linecap="square"/>
<path d="M506.481 880.147L502.901 878.011" stroke="#2A2E43" stroke-linecap="round"/>
<path d="M478.719 893.4C487.107 892.76 493.313 885.837 492.582 877.937C491.851 870.037 484.459 864.152 476.072 864.792C467.685 865.432 461.478 872.355 462.209 880.255C462.94 888.154 470.332 894.04 478.719 893.4Z" fill="#F4F5F6"/>
<path fill-rule="evenodd" clip-rule="evenodd" d="M475.602 858.976C480.365 858.612 484.871 858.464 488.774 859.211C489.544 859.359 490.24 859.371 491.204 859.732C492.216 860.112 493.485 860.838 493.853 860.81C497.271 864.144 502.171 870.133 502.817 877.109C504.053 890.467 493.702 902.161 479.697 903.23C465.692 904.299 453.336 894.338 452.1 880.98C451.359 872.971 453.119 867.674 460.423 860.835C462.084 860.708 469.995 859.404 475.602 858.976ZM476.123 864.606C467.762 865.243 461.582 872.225 462.32 880.2C463.058 888.175 470.433 894.122 478.796 893.484C487.157 892.847 493.336 885.864 492.598 877.889C491.86 869.915 484.484 863.968 476.123 864.606Z" fill="#555869" stroke="#555869"/>
<path d="M698.038 877.572C706.425 876.932 712.632 870.009 711.901 862.109C711.17 854.21 703.778 848.324 695.391 848.964C687.003 849.604 680.797 856.527 681.528 864.427C682.259 872.327 689.651 878.212 698.038 877.572Z" fill="#F4F5F6"/>
<path fill-rule="evenodd" clip-rule="evenodd" d="M694.433 839.131C708.438 838.062 720.793 848.025 722.028 861.381C723.264 874.738 712.913 886.434 698.908 887.502C684.903 888.571 672.549 878.609 671.312 865.252C670.076 851.894 680.428 840.2 694.433 839.131ZM695.334 848.877C686.973 849.515 680.793 856.497 681.531 864.472C682.269 872.447 689.646 878.394 698.007 877.756C706.368 877.118 712.547 870.136 711.81 862.161C711.071 854.186 703.695 848.24 695.334 848.877Z" fill="#555869" stroke="#555869"/>
<path d="M626.964 812.607C628.534 812.426 629.86 812.295 630.942 812.213C632.026 812.13 633.884 812.018 636.521 811.878" stroke="#2A2E43" stroke-linecap="round"/>
<path d="M626.812 813.028C627.1 813.005 627.316 812.807 627.295 812.582C627.274 812.358 627.025 812.193 626.737 812.215C626.45 812.238 626.234 812.436 626.254 812.662C626.275 812.886 626.525 813.05 626.812 813.028Z" fill="#2A2E43"/>
<path d="M636.789 811.175L635.748 811.254C635.592 811.267 635.476 811.398 635.49 811.547L635.548 812.178C635.562 812.328 635.7 812.44 635.857 812.427L636.897 812.349C637.055 812.336 637.171 812.206 637.157 812.056L637.098 811.425C637.084 811.275 636.946 811.163 636.789 811.175Z" stroke="#2A2E43"/>
<path d="M627.861 811.494L626.347 811.608C625.878 811.645 625.529 812.037 625.571 812.486L625.637 813.208C625.679 813.657 626.094 813.992 626.564 813.955L628.079 813.84C628.549 813.803 628.896 813.411 628.856 812.962L628.788 812.241C628.746 811.791 628.332 811.458 627.861 811.494Z" stroke="#2A2E43"/>
<path d="M627.676 818.233C628.224 818.191 628.629 817.733 628.581 817.21C628.533 816.687 628.048 816.296 627.5 816.338C626.951 816.38 626.545 816.838 626.594 817.361C626.642 817.884 627.126 818.275 627.676 818.233Z" stroke="#2A2E43"/>
<path d="M627.598 817.419C627.676 817.412 627.734 817.348 627.727 817.274C627.721 817.199 627.651 817.145 627.574 817.15C627.496 817.156 627.439 817.221 627.446 817.295C627.452 817.369 627.521 817.425 627.598 817.419Z" fill="#2A2E43" stroke="#2A2E43"/>
<path fill-rule="evenodd" clip-rule="evenodd" d="M487.388 761.867L581.63 754.676C584.503 754.456 587.04 756.501 587.293 759.242L590.015 788.662C590.27 791.403 588.145 793.803 585.27 794.022L491.029 801.214C488.156 801.433 485.619 799.389 485.366 796.647L482.644 767.228C482.39 764.487 484.514 762.086 487.388 761.867ZM532.144 758.451L535.784 797.799L532.144 758.451ZM534.509 758.271L538.15 797.618L534.509 758.271ZM484.815 759.791L583.786 752.239C586.661 752.019 589.196 754.064 589.449 756.805L592.59 790.737C592.843 793.478 590.72 795.878 587.845 796.097L488.873 803.651C485.998 803.87 483.463 801.825 483.209 799.084L480.069 765.152C479.815 762.41 481.94 760.01 484.815 759.791Z" stroke="#2A2E43"/>
<g opacity="0.3">
<path opacity="0.3" d="M1322.81 33.925H1367.73C1367.73 33.925 1350.8 63.9563 1322.81 33.925Z" fill="#030B44"/>
<path opacity="0.3" d="M1325.51 46.6884L1354.97 12.7251C1354.97 12.7251 1366.49 45.1741 1325.51 46.6884Z" fill="#030B44"/>
</g>
<g opacity="0.3">
<path opacity="0.3" d="M1464.27 102.883H1506.15C1506.15 102.883 1490.37 130.827 1464.27 102.883Z" fill="#030B44"/>
<path opacity="0.3" d="M1466.8 114.768L1494.26 83.1206C1494.26 83.1206 1504.99 113.368 1466.8 114.768Z" fill="#030B44"/>
</g>
<g opacity="0.3">
<path opacity="0.3" d="M1314.68 190.317H1356.56C1356.56 190.317 1340.78 218.261 1314.68 190.317Z" fill="#030B44"/>
<path opacity="0.3" d="M1317.21 202.202L1344.66 170.555C1344.66 170.555 1355.41 200.803 1317.21 202.202Z" fill="#030B44"/>
</g>
<rect x="-75.8799" y="788.661" width="97.9097" height="398.005" fill="white"/>
<rect x="1882.31" y="563.33" width="97.9098" height="398.004" fill="white"/>
</g>
<defs>
<clipPath id="clip0">
<rect width="1897" height="1074" fill="white"/>
</clipPath>
</defs>
</svg>
