<svg width="383" height="313" viewBox="0 0 383 313" fill="none" xmlns="http://www.w3.org/2000/svg">
<path d="M382.66 0V301.021L263.107 286.806L117.776 312.105L116.605 312.309L0.971924 285.134V23.4128L121.015 0L252.328 23.4128L257.32 22.5139L382.66 0Z" fill="#79808D"/>
<path d="M362.572 16.4392V285.774L255.606 273.056L125.572 295.691L124.524 295.871L21.061 271.559V37.3853L128.473 16.4392L245.958 37.3853L250.427 36.5825L362.572 16.4392Z" fill="white"/>
<path opacity="0.1" d="M263.108 286.806L117.777 312.105L121.016 0L252.328 23.4128L257.321 22.5139L263.108 286.806Z" fill="black"/>
<g opacity="0.3">
<path opacity="0.3" d="M248.594 57.6957L248.653 145.284H291.281V109.329H364.286L372.861 99.9473" stroke="#444053" stroke-width="3" stroke-miterlimit="10"/>
<path opacity="0.3" d="M11.2614 85.4984H169.767L179.567 81.7357H183.487V166.189H252.083L255.023 173.714V211.76H307.94V258.795" stroke="#444053" stroke-width="3" stroke-miterlimit="10"/>
<path opacity="0.3" d="M204.423 258.795V166.189" stroke="#444053" stroke-width="3" stroke-miterlimit="10"/>
<path opacity="0.3" d="M372.861 233.985H204.423" stroke="#444053" stroke-width="3" stroke-miterlimit="10"/>
<path opacity="0.3" d="M330.674 57.6957V258.795" stroke="#444053" stroke-width="3" stroke-miterlimit="10"/>
<path opacity="0.3" d="M10.7714 216.208H372.861" stroke="#444053" stroke-width="3" stroke-miterlimit="10"/>
<path opacity="0.3" d="M54.8395 258.795V57.6957" stroke="#444053" stroke-width="3" stroke-miterlimit="10"/>
<path opacity="0.3" d="M139.007 57.6957V258.795" stroke="#444053" stroke-width="3" stroke-miterlimit="10"/>
<path opacity="0.3" d="M11.2614 108.493L291.281 109.329" stroke="#444053" stroke-width="3" stroke-miterlimit="10"/>
<path opacity="0.3" d="M92.7584 58.0596V258.795" stroke="#444053" stroke-width="3" stroke-miterlimit="10"/>
<path opacity="0.3" d="M10.7714 155.034H139.007L204.423 216.208" stroke="#444053" stroke-width="3" stroke-miterlimit="10"/>
<path opacity="0.3" d="M218.593 57.6957V166.189" stroke="#444053" stroke-width="3" stroke-miterlimit="10"/>
<path opacity="0.3" d="M204.423 185.621H372.861" stroke="#444053" stroke-width="3" stroke-miterlimit="10"/>
</g>
</svg>
