<svg width="26" height="26" viewBox="0 0 26 26" fill="none" xmlns="http://www.w3.org/2000/svg">
<g clip-path="url(#clip0)">
<path d="M6.90217 4.57152C8.52502 3.02669 10.7164 2.16017 13 2.16028C15.2836 2.16017 17.475 3.02669 19.0978 4.57152C20.7207 6.11634 21.6438 8.21461 21.6667 10.4103C21.6667 16.1186 14.0833 25.5176 13.7042 25.7884C13.5079 25.9498 13.2582 26.0385 13 26.0385C12.7418 26.0385 12.492 25.9498 12.2958 25.7884C11.9708 25.5176 4.26579 16.9038 4.33333 10.4103C4.35616 8.21461 5.27933 6.11634 6.90217 4.57152Z" fill="#00B2D9"/>
<path d="M10.8934 6.94134C11.517 6.54073 12.2501 6.3269 13 6.3269C14.0056 6.3269 14.97 6.71102 15.6811 7.39474C16.3922 8.07847 16.7917 9.0058 16.7917 9.97274C16.7917 10.6938 16.5693 11.3987 16.1526 11.9983C15.736 12.5978 15.1438 13.0651 14.451 13.341C13.7582 13.617 12.9958 13.6892 12.2603 13.5485C11.5248 13.4078 10.8491 13.0606 10.3189 12.5507C9.78859 12.0409 9.42747 11.3912 9.28117 10.684C9.13487 9.97678 9.20996 9.24373 9.49694 8.57754C9.78392 7.91135 10.2699 7.34195 10.8934 6.94134Z" fill="white"/>
</g>
<defs>
<clipPath id="clip0">
<rect width="26" height="26" fill="white"/>
</clipPath>
</defs>
</svg>
