<svg width="375" height="403" viewBox="0 0 375 403" fill="none" xmlns="http://www.w3.org/2000/svg">
<path d="M0 0H375V323L0 362V0Z" fill="url(#paint0_linear)"/>
<path d="M193.146 85.4073C193.363 81.2496 195.168 77.3338 198.187 74.4677C201.206 71.6016 205.21 70.0038 209.373 70.0037C209.866 70.0037 210.354 70.0295 210.837 70.0726C212.735 66.8062 215.457 64.0952 218.73 62.2101C222.004 60.3251 225.714 59.3321 229.492 59.3303C233.269 59.3285 236.98 60.318 240.256 62.2C243.531 64.0819 246.255 66.7904 248.157 70.055C248.564 70.0244 248.974 70.0037 249.389 70.0037C253.551 70.0038 257.555 71.6016 260.574 74.4677C263.593 77.3338 265.398 81.2496 265.616 85.4073" fill="#00B2D9" fill-opacity="0.1"/>
<path d="M196.53 84.1571C196.748 79.9993 198.552 76.0836 201.571 73.2175C204.591 70.3514 208.594 68.7536 212.757 68.7535C213.251 68.7535 213.738 68.7792 214.221 68.8224C216.119 65.556 218.841 62.8449 222.115 60.9599C225.388 59.0749 229.099 58.0819 232.876 58.0801C236.653 58.0783 240.365 59.0678 243.64 60.9497C246.915 62.8316 249.64 65.5401 251.541 68.8047C251.948 68.7741 252.358 68.7535 252.773 68.7535C256.936 68.7536 260.939 70.3514 263.959 73.2175C266.978 76.0836 268.782 79.9993 269 84.1571" fill="#00B2D9" fill-opacity="0.1"/>
<path d="M196.53 84.1571C196.748 79.9993 198.552 76.0836 201.571 73.2175C204.591 70.3514 208.594 68.7536 212.757 68.7535C213.251 68.7535 213.738 68.7792 214.221 68.8224C216.119 65.556 218.841 62.8449 222.115 60.9599C225.388 59.0749 229.099 58.0819 232.876 58.0801C236.653 58.0783 240.365 59.0678 243.64 60.9497C246.915 62.8316 249.64 65.5401 251.541 68.8047C251.948 68.7741 252.358 68.7535 252.773 68.7535C256.936 68.7536 260.939 70.3514 263.959 73.2175C266.978 76.0836 268.782 79.9993 269 84.1571" stroke="#9597A2" stroke-miterlimit="10"/>
<path d="M12.0306 177C13.4921 148.597 36.9783 126.017 65.7381 126.017C67.3726 126.017 68.9867 126.103 70.5841 126.245C76.8667 115.434 85.8752 106.461 96.7098 100.222C107.544 93.9832 119.826 90.6966 132.328 90.6907C144.83 90.6848 157.114 93.9597 167.955 100.189C178.795 106.417 187.812 115.382 194.105 126.187C195.453 126.086 196.809 126.017 198.183 126.017C226.943 126.017 250.429 148.597 251.89 177" fill="#00B2D9" fill-opacity="0.1"/>
<path d="M23.2322 172.862C24.6937 144.459 48.1799 121.879 76.9397 121.879C78.5742 121.879 80.1883 121.964 81.7857 122.107C88.0683 111.296 97.0768 102.323 107.911 96.084C118.746 89.845 131.027 86.5584 143.529 86.5525C156.031 86.5466 168.316 89.8216 179.156 96.0503C189.997 102.279 199.014 111.244 205.307 122.049C206.654 121.947 208.011 121.879 209.384 121.879C238.144 121.879 261.63 144.459 263.092 172.862" fill="#00B2D9" fill-opacity="0.1"/>
<path d="M23.2322 172.862C24.6937 144.459 48.1799 121.879 76.9397 121.879C78.5742 121.879 80.1883 121.964 81.7857 122.107C88.0683 111.296 97.0768 102.323 107.911 96.084C118.746 89.845 131.027 86.5584 143.529 86.5525C156.031 86.5466 168.316 89.8216 179.156 96.0503C189.997 102.279 199.014 111.244 205.307 122.049C206.654 121.947 208.011 121.879 209.384 121.879C238.144 121.879 261.63 144.459 263.092 172.862" stroke="#9597A2" stroke-miterlimit="10"/>
<path d="M-7 78.9754C-6.70565 73.3496 -4.26407 68.0514 -0.178834 64.1734C3.9064 60.2955 9.32374 58.1335 14.9559 58.1334C15.6241 58.1334 16.2839 58.1682 16.937 58.2266C19.5053 53.807 23.188 50.1387 27.6173 47.5882C32.0465 45.0376 37.0673 43.6941 42.1781 43.6917C47.2889 43.6892 52.3109 45.0281 56.7426 47.5744C61.1742 50.1208 64.8604 53.7855 67.433 58.2027C67.9839 58.1613 68.5385 58.1334 69.1 58.1334C74.7322 58.1335 80.1495 60.2955 84.2347 64.1734C88.32 68.0514 90.7615 73.3496 91.0559 78.9754" fill="#00B2D9" fill-opacity="0.1"/>
<path d="M-2.42078 77.2837C-2.12642 71.658 0.315153 66.3598 4.40039 62.4818C8.48562 58.6038 13.903 56.4418 19.5351 56.4417C20.2033 56.4417 20.8632 56.4766 21.5162 56.5349C24.0846 52.1153 27.7673 48.4471 32.1965 45.8965C36.6257 43.346 41.6465 42.0024 46.7573 42C51.8681 41.9976 56.8901 43.3364 61.3218 45.8828C65.7534 48.4291 69.4396 52.0939 72.0122 56.5111C72.5631 56.4697 73.1177 56.4417 73.6792 56.4417C79.3114 56.4418 84.7287 58.6038 88.8139 62.4818C92.8992 66.3598 95.3407 71.658 95.6351 77.2837" fill="#00B2D9" fill-opacity="0.1"/>
<path d="M-2.42078 77.2837C-2.12642 71.658 0.315153 66.3598 4.40039 62.4818C8.48562 58.6038 13.903 56.4418 19.5351 56.4417C20.2033 56.4417 20.8632 56.4766 21.5162 56.5349C24.0846 52.1153 27.7673 48.4471 32.1965 45.8965C36.6257 43.346 41.6465 42.0024 46.7573 42C51.8681 41.9976 56.8901 43.3364 61.3218 45.8828C65.7534 48.4291 69.4396 52.0939 72.0122 56.5111C72.5631 56.4697 73.1177 56.4417 73.6792 56.4417C79.3114 56.4418 84.7287 58.6038 88.8139 62.4818C92.8992 66.3598 95.3407 71.658 95.6351 77.2837" stroke="#9597A2" stroke-miterlimit="10"/>
<path d="M86.4021 227.45C86.4021 227.45 83.0037 231.388 76.4682 238.215C69.9328 245.042 61.5675 260.008 61.5675 260.008L47.1896 280.751L32.955 310.868L27.488 326.491L25.4053 333.781L21.24 340.03C21.24 340.03 16.0333 346.54 12.3887 349.664C10.4502 351.326 2.93885 357.706 -2.45033 363.725C-7.19384 369.022 -10 374.14 -10 374.14C-10 374.14 73.883 331.239 123.291 323.887C150.658 319.815 200.61 326.751 231.589 330.396C262.569 334.042 285.999 335.864 305.784 330.396C313.736 328.199 330.762 322.935 344.42 315.034C364.748 303.275 381.021 286.653 381.021 286.653L376.313 284.164L371.869 271.824L360.975 252.023L352.905 238.223L344.42 225.874C344.42 225.874 335.202 205.936 330.304 199.617C325.405 193.299 313.573 185.964 309.913 181.238L307.607 174.674L304.685 170.472L300.578 165.838L292.66 160.495L286.386 152.093C286.386 152.093 282.094 144.226 275.065 152.093C272.743 154.692 271.178 157.671 269.338 160.495C265.608 166.218 262.569 171.306 262.569 171.306L253.978 162.713L244.298 155.244L238.024 147.629L228.726 135.634C228.726 135.634 225.897 126.776 221.816 125.048C218.255 123.54 215.019 125.048 212.928 127.149C210.836 129.249 192.8 140.06 192.8 140.06L175.545 155.244L156.723 167.322L149.324 174.674C149.324 174.674 146.207 168.637 142.868 166.534C139.113 164.169 134.097 163.511 130.843 166.534C130.843 166.534 109.407 188.59 106.27 192.003C103.133 195.416 94.7674 209.858 94.7674 209.858L91.1076 219.573L86.4021 227.45Z" fill="#EAEAEC"/>
<path d="M85.2823 332.999C85.1393 319.222 85.9908 302.362 87.1708 296.101C88.398 289.588 94.3114 272.24 94.8499 270.213C96.8224 262.787 98.8454 261.799 100.875 255.058C102.905 248.316 108.266 243.531 109.393 240.312C111.806 233.425 112.842 232.011 117.385 227.032C121.929 222.053 127.399 212.408 128.738 210.632C130.076 208.857 133.654 206.388 135.812 201.854C138.298 196.631 139.04 190.621 139.253 189.759C141.526 180.539 139.526 175.336 140.77 171.631C141.599 169.161 140.485 166.797 137.428 164.539" stroke="#CECED1" stroke-linecap="round"/>
<path d="M26.1863 331.436C30.1895 322.094 32.5491 318.658 35.045 315.074C41.2143 306.217 49.0138 300.367 52.3761 296.388C59.0038 288.545 68.4 282.804 71.8513 279.094C80.1752 270.148 90.1122 265.069 92.6705 262.205C96.2184 258.233 98.0371 253.723 101.232 249.43C102.761 247.375 105.482 244.337 109.394 240.314" stroke="#CECED1" stroke-linecap="round"/>
<path d="M139.968 186.218C144.001 189.793 146.571 194.862 147.679 201.425C148.197 204.497 146.516 210.523 150.999 223.531C152.312 227.341 158.481 231.223 162.537 240.831C164.325 245.066 162.147 255.999 165.046 265.598C166.036 268.876 169.85 272.568 176.488 276.674" stroke="#CECED1" stroke-linecap="round"/>
<path d="M-10.4713 374.229L-10.6382 374.7L-9.6956 375.034L-9.52869 374.563L-10.4713 374.229ZM39.9461 296.18L39.4878 295.98L39.4878 295.98L39.9461 296.18ZM63.1291 258.051L63.5173 258.366L63.5497 258.326L63.5733 258.281L63.1291 258.051ZM82.3807 232.033L82.0412 231.666L82.0412 231.666L82.3807 232.033ZM96.2642 207.468L95.8352 207.211L96.2642 207.468ZM113.669 184.452L113.347 184.07L113.347 184.07L113.669 184.452ZM185.176 214.57L185.581 214.277L185.581 214.277L185.176 214.57ZM192.87 227.989L193.243 227.656L193.243 227.656L192.87 227.989ZM206.416 239.094L206.858 239.327L207.323 238.441L206.881 238.209L206.416 239.094ZM-9.52869 374.563C-8.34388 371.217 -5.7638 367.818 -2.44207 364.327C0.875666 360.841 4.88458 357.312 8.88997 353.689C12.8857 350.075 16.8731 346.372 20.1042 342.564C23.333 338.759 25.8396 334.812 26.8332 330.703L25.8612 330.468C24.9208 334.357 22.5275 338.163 19.3417 341.917C16.1582 345.669 12.2162 349.332 8.21917 352.948C4.23175 356.554 0.184363 360.116 -3.16649 363.638C-6.51336 367.155 -9.21415 370.679 -10.4713 374.229L-9.52869 374.563ZM26.8332 330.703C30.6876 314.761 36.8437 304.543 40.4043 296.38L39.4878 295.98C35.9795 304.023 29.7429 314.413 25.8612 330.468L26.8332 330.703ZM40.4043 296.38C46.3983 282.639 54.1025 269.968 63.5173 258.366L62.7408 257.736C53.2689 269.408 45.5177 282.156 39.4878 295.98L40.4043 296.38ZM63.5733 258.281C68.9679 247.84 75.3517 239.216 82.7202 232.4L82.0412 231.666C74.5745 238.572 68.124 247.294 62.6849 257.822L63.5733 258.281ZM82.7202 232.4C88.3437 227.198 90.8198 222.722 92.4071 218.669C93.1929 216.662 93.7674 214.739 94.385 212.941C95.0073 211.13 95.6841 209.411 96.6933 207.724L95.8352 207.211C94.7733 208.985 94.0699 210.781 93.4392 212.616C92.8038 214.466 92.2525 216.321 91.476 218.304C89.9387 222.23 87.5441 226.575 82.0412 231.666L82.7202 232.4ZM96.6933 207.724C100.854 200.772 105.139 192.28 113.991 184.835L113.347 184.07C104.337 191.648 99.9593 200.319 95.8352 207.211L96.6933 207.724ZM113.991 184.835C115.685 183.41 117.449 181.445 119.264 179.32C121.089 177.184 122.965 174.886 124.915 172.745C126.863 170.607 128.859 168.654 130.9 167.219C132.942 165.784 134.994 164.891 137.06 164.818L137.025 163.819C134.693 163.901 132.453 164.905 130.325 166.401C128.195 167.898 126.142 169.914 124.176 172.072C122.211 174.228 120.308 176.557 118.503 178.671C116.688 180.796 114.971 182.704 113.347 184.07L113.991 184.835ZM137.06 164.818C139.155 164.745 140.802 165.27 142.237 166.223C143.685 167.186 144.937 168.598 146.21 170.334C148.729 173.77 151.328 178.496 155.622 182.903L156.338 182.205C152.105 177.861 149.635 173.315 147.016 169.743C145.72 167.976 144.386 166.451 142.791 165.39C141.182 164.321 139.328 163.738 137.025 163.819L137.06 164.818ZM155.622 182.903C157.759 185.097 159.762 187.046 161.623 188.842C163.485 190.64 165.201 192.279 166.774 193.862C169.918 197.027 172.46 199.937 174.385 203.341L175.255 202.849C173.265 199.329 170.649 196.345 167.483 193.158C165.901 191.565 164.174 189.915 162.317 188.122C160.458 186.328 158.464 184.387 156.338 182.205L155.622 182.903ZM174.385 203.341C176.379 206.866 177.891 208.236 179.472 209.499C181.01 210.728 182.572 211.83 184.772 214.864L185.581 214.277C183.295 211.124 181.637 209.95 180.097 208.718C178.6 207.522 177.177 206.247 175.255 202.849L174.385 203.341ZM184.772 214.864C186.97 217.895 187.437 219.579 188.08 221.353C188.746 223.187 189.58 225.051 192.497 228.321L193.243 227.656C190.413 224.482 189.643 222.729 189.02 221.012C188.375 219.234 187.869 217.432 185.581 214.277L184.772 214.864ZM192.497 228.321C196.37 232.665 201.011 236.256 206.416 239.094L206.881 238.209C201.577 235.424 197.033 231.906 193.243 227.656L192.497 228.321Z" fill="#9597A2"/>
<path d="M228.449 176.015C230.166 178.266 231.205 179.954 231.566 181.078C231.792 181.784 232.516 184.344 235.634 187.128C236.544 187.941 238.733 188.576 241.217 190.091C241.801 190.448 242.61 191.202 243.645 192.355" stroke="#CECED1" stroke-linecap="round"/>
<path d="M219.626 124.437C220.354 125.309 220.958 126.296 221.437 127.396C221.601 127.773 223.687 133.312 224.272 139.192C224.416 140.637 224.44 146.201 222.328 153.03C221.84 154.607 221.147 159.544 223.419 165.314C224.04 166.889 228.002 171.826 228.625 178.007C228.944 181.168 226.393 187.543 226.252 194.896C226.206 197.29 227.187 201.316 226.55 206.866C226.21 209.827 225.07 215.262 223.13 223.171" stroke="#CECED1" stroke-linecap="round"/>
<path d="M149.499 174.147C153.233 170.614 155.776 168.223 157.127 166.972C157.783 166.363 163.092 163.36 173.63 156.51C184.168 149.66 182.01 147.905 190.118 142.596C193.529 140.363 198.295 135.939 205.277 132.087C212.259 128.235 215.573 123.717 220.31 124.383C225.047 125.049 225.419 130.99 229.338 136.399C233.257 141.809 234.151 142.325 237.695 146.578C241.239 150.831 240.551 151.784 246.72 157.136C252.89 162.489 255.325 164 257.556 166.531C259.044 168.218 260.56 169.876 262.104 171.506" stroke="#9597A2" stroke-linecap="square"/>
<path d="M251.919 221.322C254.259 225.373 255.89 229.704 256.811 234.316C258.192 241.233 255.725 248.512 256.118 256.923C256.511 265.334 251.116 267.537 249.57 278.537C248.67 284.944 245.585 294.039 240.976 299.204C237.903 302.647 228.024 319.309 222.738 329.354" stroke="#CECED1" stroke-linecap="round"/>
<path d="M280.009 148.653C281.176 149.063 282.665 150.348 283.434 151.987C285.693 156.8 287.644 165.458 290.489 168.53C293.335 171.602 298.84 174.067 305.229 188.149C306.989 192.027 309.684 205.752 313.312 216.522C316.941 227.292 318.823 222.74 323.573 236.96C324.361 239.319 328.001 241.913 329.243 245.89C329.57 246.939 329.35 248.57 331.055 255.539C331.719 258.253 336.912 260.635 338.522 266.573C339.473 270.081 350.235 271.427 351.639 279.778C352.155 282.848 357.454 289.521 358.435 294.204C359.089 297.326 361.89 299.702 365.566 300.349" stroke="#CECED1" stroke-linecap="round"/>
<path d="M158.175 323.364C169.814 318.304 187.227 304.544 187.841 300.645C188.762 294.796 199.452 291.604 201.232 287.509C205.728 277.165 214.543 272.125 216.934 269.71C222.976 263.608 226.681 265.878 233.786 253.49C240.892 241.101 237.558 242.049 240.647 236.628C243.736 231.207 249.07 229.172 251.109 224.416C253.149 219.661 250.741 213.17 251.52 211.734C255.725 203.983 254.732 197.973 257.785 194.576C260.838 191.179 265.434 191.24 266.973 186.045C268.513 180.851 267.665 176.654 269.707 172.349C271.068 169.479 273.295 162.444 276.386 151.244" stroke="#CECED1" stroke-linecap="round"/>
<path d="M121.669 324.018L121.285 324.338L121.924 325.107L122.309 324.787L121.669 324.018ZM158.34 294.894L158.563 295.342L158.563 295.342L158.34 294.894ZM178.257 275.008L177.883 274.676L177.883 274.676L178.257 275.008ZM197.475 257.72L197.859 258.04L197.475 257.72ZM208.713 237L208.32 236.69L208.713 237ZM229.646 216.353L230.032 216.672L229.646 216.353ZM242.746 193.649L243.141 193.956L242.746 193.649ZM257.03 181.017L256.654 180.688L257.03 181.017ZM266.123 165.466L265.726 165.162L265.726 165.162L266.123 165.466ZM305.067 170.941L305.452 170.621L305.452 170.621L305.067 170.941ZM313.625 184.84L313.986 184.495L313.986 184.495L313.625 184.84ZM329.663 198.664L329.292 198.999L329.292 198.999L329.663 198.664ZM373.945 277.522L373.46 277.646L373.46 277.646L373.945 277.522ZM380.938 287.187L381.418 287.327L381.698 286.367L381.218 286.227L380.938 287.187ZM122.309 324.787C127.988 320.062 135.147 313.637 141.817 307.945C148.522 302.224 154.72 297.257 158.563 295.342L158.117 294.447C154.141 296.428 147.844 301.488 141.168 307.184C134.459 312.909 127.352 319.29 121.669 324.018L122.309 324.787ZM158.563 295.342C159.298 294.976 160.258 294.275 161.433 293.273C162.615 292.264 164.039 290.927 165.703 289.265C169.033 285.94 173.343 281.298 178.631 275.34L177.883 274.676C172.601 280.627 168.306 285.253 164.997 288.557C163.342 290.209 161.938 291.527 160.784 292.512C159.621 293.504 158.737 294.138 158.117 294.447L158.563 295.342ZM178.631 275.34C180.617 273.102 183.386 271.189 186.733 268.592C190.058 266.012 193.88 262.807 197.859 258.04L197.091 257.399C193.176 262.089 189.416 265.244 186.12 267.802C182.844 270.344 179.951 272.347 177.883 274.676L178.631 275.34ZM197.859 258.04C198.777 256.941 199.553 255.566 200.295 254.025C201.036 252.486 201.758 250.745 202.552 248.919C204.146 245.253 206.056 241.175 209.105 237.309L208.32 236.69C205.187 240.662 203.236 244.839 201.635 248.521C200.831 250.369 200.123 252.075 199.394 253.591C198.665 255.106 197.93 256.394 197.091 257.399L197.859 258.04ZM209.105 237.309C211.058 234.833 214.141 232.252 217.851 228.968C221.543 225.701 225.805 221.78 230.032 216.672L229.261 216.034C225.084 221.082 220.868 224.962 217.188 228.219C213.527 231.459 210.345 234.123 208.32 236.69L209.105 237.309ZM230.032 216.672C231.956 214.347 233.492 210.871 235.395 206.94C237.311 202.978 239.631 198.473 243.141 193.956L242.351 193.342C238.775 197.944 236.419 202.526 234.494 206.504C232.555 210.512 231.086 213.829 229.261 216.034L230.032 216.672ZM243.141 193.956C244.441 192.283 246.572 190.738 249.151 188.774C251.705 186.829 254.635 184.515 257.406 181.347L256.654 180.688C253.952 183.777 251.09 186.041 248.546 187.978C246.026 189.897 243.752 191.539 242.351 193.342L243.141 193.956ZM257.406 181.347C258.065 180.594 258.668 179.615 259.27 178.5C259.873 177.383 260.493 176.096 261.174 174.725C262.54 171.973 264.175 168.831 266.52 165.77L265.726 165.162C263.319 168.304 261.649 171.518 260.278 174.281C259.59 175.668 258.983 176.928 258.39 178.024C257.798 179.121 257.237 180.021 256.654 180.688L257.406 181.347ZM266.52 165.77C267.405 164.614 268.435 163.048 269.543 161.348C270.656 159.64 271.854 157.79 273.087 156.042C274.321 154.293 275.579 152.663 276.809 151.396C278.051 150.117 279.211 149.263 280.24 148.981L279.975 148.017C278.679 148.372 277.364 149.389 276.092 150.699C274.808 152.022 273.515 153.701 272.27 155.466C271.024 157.232 269.815 159.1 268.706 160.801C267.592 162.51 266.583 164.042 265.726 165.162L266.52 165.77ZM280.24 148.981C281.173 148.725 282.208 149.087 283.392 150.005C284.568 150.918 285.787 152.302 287.045 153.874C287.671 154.657 288.3 155.477 288.933 156.3C289.566 157.121 290.203 157.945 290.839 158.726C292.106 160.28 293.399 161.701 294.694 162.621L295.273 161.805C294.095 160.97 292.874 159.64 291.614 158.094C290.988 157.325 290.358 156.512 289.726 155.69C289.094 154.87 288.459 154.041 287.825 153.249C286.563 151.672 285.282 150.206 284.005 149.215C282.736 148.231 281.368 147.635 279.975 148.017L280.24 148.981ZM294.694 162.621C295.938 163.504 296.889 164.126 297.685 164.651C298.483 165.176 299.116 165.597 299.744 166.088C300.994 167.064 302.251 168.335 304.683 171.26L305.452 170.621C303.009 167.682 301.697 166.344 300.36 165.3C299.695 164.781 299.03 164.339 298.235 163.816C297.438 163.291 296.501 162.677 295.273 161.805L294.694 162.621ZM304.683 171.26C305.879 172.7 306.559 173.806 307.019 174.766C307.484 175.736 307.727 176.555 308.061 177.492C308.736 179.384 309.697 181.452 313.263 185.186L313.986 184.495C310.507 180.852 309.626 178.903 309.003 177.156C308.687 176.272 308.416 175.366 307.921 174.333C307.42 173.289 306.693 172.114 305.452 170.621L304.683 171.26ZM313.263 185.186C316.818 188.907 319.381 190.753 321.781 192.478C324.165 194.191 326.378 195.778 329.292 198.999L330.034 198.328C327.046 195.026 324.763 193.39 322.364 191.666C319.982 189.954 317.477 188.15 313.986 184.495L313.263 185.186ZM329.292 198.999C332.184 202.195 334.517 207.02 337.054 212.381C339.578 217.713 342.29 223.539 345.933 228.609L346.745 228.026C343.165 223.044 340.491 217.305 337.958 211.954C335.439 206.632 333.045 201.656 330.034 198.328L329.292 198.999ZM345.933 228.609C349.533 233.62 354.025 240.632 357.927 247.131C361.836 253.64 365.13 259.598 366.352 262.512L367.274 262.125C366.021 259.136 362.689 253.119 358.785 246.617C354.874 240.104 350.367 233.067 346.745 228.026L345.933 228.609ZM366.352 262.512C367.608 265.507 368.882 267.236 370.063 269.201C371.241 271.162 372.386 273.443 373.46 277.646L374.429 277.398C373.329 273.095 372.145 270.725 370.92 268.686C369.698 266.652 368.493 265.032 367.274 262.125L366.352 262.512ZM373.46 277.646C374.196 280.523 375.18 282.653 376.43 284.195C377.688 285.746 379.198 286.679 380.938 287.187L381.218 286.227C379.661 285.772 378.329 284.949 377.207 283.565C376.078 282.173 375.143 280.191 374.429 277.398L373.46 277.646Z" fill="#9597A2"/>
<path d="M122.831 324.434C73.9793 329.656 -10 374.413 -10 374.413L-3.752 401.529C-3.752 401.529 80.3357 357.264 131.361 351.536C182.386 345.808 247.73 366.378 296.933 360.91C346.136 355.442 386.748 314.562 386.748 314.562L381.332 286.913C381.332 286.913 333.823 333.46 283.107 333.759C232.391 334.057 171.682 319.213 122.831 324.434Z" fill="#BFC0C7" stroke="#9597A2" stroke-linejoin="round"/>
<path d="M-4.27264 387.208C-4.27264 387.208 79.0813 342.724 127.569 337.534C176.056 332.344 236.314 347.098 286.652 346.801C336.99 346.505 384.145 300.242 384.145 300.242" stroke="white" stroke-opacity="0.5" stroke-dasharray="10 10"/>
<path d="M115.046 322.008L124.072 320.745L126.538 320.901L126.819 321.149L130.52 323.961L134.106 326.701L137.069 328.432L141.328 329.87L141.823 330.337L142.244 331.197L142.787 334.768L141.873 335.24L141.77 338.701L140.732 338.886L140.619 338.249L140.005 337.053L139.073 336.213L137.791 335.661L136.478 335.628L134.366 335.903L132.765 336.559L131.709 337.446L130.276 339.685L129.193 342.273L129.282 342.771L118.751 344.652L116.943 333.291L115.046 322.008Z" fill="#F4F5F6"/>
<path d="M129.207 342.291L130.413 339.414L131.49 337.721L132.237 336.889L133.378 336.244L134.919 335.825L137.187 335.563L138.211 335.822L139.041 336.208L139.844 336.846L140.445 337.91L140.546 338.241L140.312 338.375L139.222 337.224L137.698 336.294L135.606 335.989L133.881 336.298L132.616 336.935L131.36 338.145L130.532 339.681L130.262 341.918L129.283 342.719L129.207 342.291Z" fill="#BFC0C7"/>
<path d="M85.0696 345.798L85.4293 345.795L84.0624 350.252L82.5765 350.518L83.474 348.22L83.984 347.04L84.5262 346.213L85.0696 345.798Z" fill="#BFC0C7"/>
<path d="M94.5099 347.266L95.0821 348.109L95.6637 349.064L94.888 348.637L94.5099 347.266Z" fill="#BFC0C7"/>
<path d="M141.908 335.316L142.61 335.273L143.151 335.536L143.447 335.986L143.454 336.663L143.302 337.482L143.14 338.25L141.805 338.725L141.908 335.316Z" fill="#BFC0C7"/>
<path d="M115.009 321.686L129.731 319.529L128.17 320.239L126.612 320.908L125.46 320.826L124.308 320.744L115.064 321.995L115.009 321.686Z" fill="#BFC0C7"/>
<path d="M60.566 350.75L60.8228 350.632L60.9169 351.16L61.9996 352.097L60.6903 352.835L60.566 350.75Z" fill="#8F929D"/>
<path d="M59.7985 350.774L60.7337 350.248L60.7958 350.596L60.5959 350.745L60.6426 351.816L60.6259 352.877L59.9047 352.872L59.7985 350.774Z" fill="#BFC0C7"/>
<path d="M56.8583 330.285L55.5302 323.813L55.2962 322.21L55.369 321.406L55.7022 320.966L56.6237 320.709L58.1507 320.385L66.4168 318.785L85.6155 315.304L104.025 312.016L122.472 308.649L127.421 307.837L130.408 309.584L135.705 313.437L136.614 314.384L136.542 314.962L135.657 316.518L133.788 318.681L124.544 320.332L115.029 321.796L118.836 345.247L95.69 349.038L94.6362 347.398L92.7706 345.069L92.0343 344.749L84.9733 345.835L84.5308 346.182L83.8855 347.181L82.9382 349.487L82.2311 351.179L72.7316 352.383L63.56 353.463L62.8711 353.003L61.9032 351.96L60.955 351.143L60.3427 347.995L58.9871 340.387L56.8583 330.285Z" fill="#F4F5F6"/>
<path d="M120.668 311.838L121.215 315.83" stroke="#2A2E43" stroke-linecap="square"/>
<path d="M121.326 311.72L121.873 315.713" stroke="#2A2E43" stroke-linecap="square"/>
<path fill-rule="evenodd" clip-rule="evenodd" d="M115.63 312.697C119.423 312.019 123.215 311.342 127.008 310.664C127.048 310.657 127.617 311.055 128.714 311.858C129.474 312.419 129.892 312.76 129.968 312.881C130.081 313.063 130.171 313.18 130.17 313.565C130.17 313.962 129.885 314.302 129.494 314.372L116.277 316.733C115.814 316.815 115.373 316.508 115.29 316.046C115.289 316.038 115.287 316.029 115.286 316.021L114.937 313.658C114.87 313.204 115.177 312.778 115.63 312.697Z" stroke="#2A2E43"/>
<path fill-rule="evenodd" clip-rule="evenodd" d="M115.48 312.21L126.827 310.183C126.944 310.162 127.066 310.189 127.163 310.258L129.022 311.578C129.033 311.587 129.045 311.595 129.057 311.603C129.771 312.074 130.249 312.479 130.492 312.816C130.911 313.399 130.778 314.211 130.194 314.631C130.036 314.744 129.854 314.821 129.662 314.855L116.313 317.24C115.608 317.366 114.935 316.897 114.809 316.193C114.807 316.183 114.806 316.172 114.804 316.162L114.426 313.681C114.32 312.986 114.788 312.334 115.48 312.21Z" stroke="#2A2E43"/>
<path d="M60.6718 352.879L61.9558 352.115" stroke="#2A2E43" stroke-linecap="round"/>
<path d="M59.8625 350.763L60.7361 350.237" stroke="#2A2E43" stroke-linecap="square"/>
<path d="M60.5984 350.734L60.7918 350.607" stroke="#2A2E43" stroke-linecap="square"/>
<path d="M60.5511 350.736L59.8628 350.761C59.8404 350.762 59.8229 350.781 59.8237 350.803L59.899 352.866C59.8998 352.888 59.9186 352.905 59.941 352.905L60.6293 352.879C60.6517 352.878 60.6692 352.859 60.6683 352.837L60.5931 350.775C60.5922 350.752 60.5735 350.735 60.5511 350.736Z" stroke="#2A2E43"/>
<path fill-rule="evenodd" clip-rule="evenodd" d="M56.4053 328.16L136.259 313.896L136.723 314.425C136.718 314.609 136.689 314.766 136.634 314.897C136.579 315.028 136.474 315.197 136.318 315.402C136.068 315.821 135.858 316.156 135.688 316.407C135.517 316.658 135.249 317.028 134.882 317.516C134.639 317.885 134.444 318.146 134.298 318.298C134.153 318.45 133.974 318.58 133.762 318.686C133.65 318.774 133.305 318.88 132.728 319.004C132.15 319.128 131.287 319.283 130.138 319.467L115.024 321.741L117.125 334.392L112.811 335.163L111.614 328.442C111.86 328.275 112.016 328.127 112.081 328.001C112.147 327.874 112.183 327.648 112.19 327.324L110.798 319.512C110.571 319.318 110.406 319.177 110.303 319.09C110.201 319.002 110.025 318.953 109.775 318.942L88.531 322.737C88.2641 322.839 88.0935 322.95 88.0192 323.07C87.9448 323.191 87.8522 323.378 87.7413 323.631C88.2994 327.089 88.7633 329.693 89.1331 331.443C89.165 331.594 89.3049 331.919 89.6326 332.126C89.7354 332.192 89.9357 332.247 90.2335 332.294L91.323 339.001L59.7396 344.643L56.4053 328.16Z" fill="#FAA05D"/>
<path d="M111.894 328.552L89.8342 332.492L91.0052 339.065L113.065 335.125L111.894 328.552Z" fill="#FAA05D"/>
<path fill-rule="evenodd" clip-rule="evenodd" d="M55.7031 321.004C56.4617 320.436 76.2998 317.025 95.104 313.627C111.648 310.637 127.089 307.755 127.442 307.85C128.583 308.158 136.621 313.849 136.723 314.425C136.826 315.002 134.499 318.262 133.803 318.702C133.339 318.996 127.079 320.009 115.024 321.741L118.866 345.246C106.23 347.287 98.5089 348.558 95.7041 349.059C95.1061 348.33 93.5928 345.348 92.5248 344.919C90.5812 344.139 85.3593 345.753 85.2704 345.767C83.8022 345.989 83.1938 349.638 82.2059 351.161C75.8407 352.048 69.6193 352.811 63.5418 353.451C62.5049 352.874 62.4013 352.292 60.9463 351.158C58.1962 335.721 56.2091 327.489 55.7014 324.691C55.4274 323.181 54.9445 321.573 55.7031 321.004Z" stroke="#2A2E43"/>
<path d="M126.61 320.929L129.867 319.515" stroke="#2A2E43" stroke-linecap="square"/>
<path fill-rule="evenodd" clip-rule="evenodd" d="M141.86 335.289C142.301 335.221 142.629 335.237 142.845 335.339C143.169 335.491 143.354 335.739 143.459 336.033C143.53 336.228 143.488 336.676 143.333 337.374C143.233 337.787 143.166 338.064 143.134 338.207C143.102 338.35 142.652 338.525 141.784 338.733L141.86 335.289Z" stroke="#2A2E43"/>
<path d="M140.24 338.429L140.557 338.249" stroke="#2A2E43" stroke-linecap="square"/>
<path d="M82.5824 350.527L84.1382 350.249" stroke="#2A2E43" stroke-linecap="square"/>
<path fill-rule="evenodd" clip-rule="evenodd" d="M116.589 331.104L135.706 327.689L138.467 328.974C139.555 329.263 140.344 329.502 140.835 329.692C141.326 329.881 141.606 330.044 141.674 330.179L117.154 334.559L116.589 331.104Z" fill="#FAA05D"/>
<path fill-rule="evenodd" clip-rule="evenodd" d="M115.119 322.016C120.557 321.252 123.56 320.842 124.128 320.789C124.696 320.736 125.496 320.787 126.525 320.944L133.858 326.497C135.261 327.464 136.477 328.152 137.508 328.559C138.539 328.967 139.576 329.314 140.618 329.599C141.283 329.792 141.743 330.123 141.998 330.594C142.252 331.064 142.503 332.472 142.75 334.816L141.86 335.289L141.784 338.733L140.702 338.926C140.623 338.327 140.446 337.792 140.171 337.32C139.759 336.613 138.441 335.384 136.41 335.641C135.569 335.747 133.945 335.848 132.697 336.612C131.936 337.077 131.715 337.328 130.832 338.734C130.243 339.672 129.789 340.677 129.469 341.751L129.233 342.308L118.713 344.187L115.119 322.016Z" stroke="#2A2E43"/>
<path fill-rule="evenodd" clip-rule="evenodd" d="M115.33 323.349C121.357 322.482 124.589 322.028 125.024 321.987C125.459 321.946 125.892 322.056 126.323 322.317C129.142 324.315 130.962 325.656 131.785 326.34C133.018 327.366 133.297 327.558 134.018 328.718C134.739 329.879 134.763 330.453 134.933 331.409C135.104 332.364 135.027 334.382 135.027 334.382C135.027 334.382 133.588 334.603 132.434 335.201C131.279 335.798 131.119 335.819 130.317 336.82C129.516 337.82 129.482 338.577 129.174 339.27C128.867 339.963 128.464 341.294 128.338 341.556C128.255 341.731 124.986 342.271 118.533 343.176L115.33 323.349Z" stroke="#2A2E43"/>
<path fill-rule="evenodd" clip-rule="evenodd" d="M128.219 324.259C130.028 325.782 131.012 326.638 131.17 326.829C131.406 327.115 131.287 327.488 130.944 327.549C130.6 327.61 121.732 329.241 120.99 329.327C120.248 329.413 120.2 329.143 120.041 328.817C119.882 328.492 118.355 324.717 118.255 324.346C118.155 323.975 118.129 323.64 118.618 323.535C119.107 323.43 123.942 322.602 125.113 322.559C125.894 322.53 126.929 323.096 128.219 324.259Z" stroke="#2A2E43"/>
<path d="M129.264 342.702L129.24 342.337" stroke="#2A2E43" stroke-linecap="square"/>
<path d="M118.783 344.636L129.312 342.755L130.264 341.928" stroke="#2A2E43" stroke-linecap="square"/>
<path d="M116.997 323.17C117.871 326.495 118.6 329.795 119.183 333.07C119.767 336.345 120.208 339.611 120.506 342.869" stroke="#2A2E43" stroke-linecap="square"/>
<path fill-rule="evenodd" clip-rule="evenodd" d="M126.793 321.154C126.69 321.271 126.631 321.418 126.615 321.596C126.645 321.762 133.157 326.534 133.361 326.672C133.498 326.764 133.741 326.759 134.091 326.655L130.69 324.098L126.793 321.154Z" stroke="#2A2E43" stroke-linecap="square"/>
<path d="M95.6762 349.051L94.8741 348.65" stroke="#2A2E43" stroke-linecap="round"/>
<ellipse rx="3.25194" ry="3.20667" transform="matrix(0.984418 -0.175845 0.175394 0.984498 89.4807 349.418)" fill="#F4F5F6"/>
<path fill-rule="evenodd" clip-rule="evenodd" d="M88.7041 344.976C89.708 344.797 90.6617 344.671 91.505 344.757C91.6716 344.773 91.8195 344.762 92.0312 344.822C92.2534 344.886 92.5373 345.021 92.6149 345.007C93.406 345.679 94.5643 346.911 94.8386 348.451C95.3638 351.399 93.3963 354.216 90.4442 354.744C87.492 355.271 84.673 353.309 84.1477 350.36C83.8328 348.593 84.102 347.377 85.5181 345.704C85.8682 345.641 87.522 345.187 88.7041 344.976ZM88.9254 346.219C87.1629 346.534 85.9883 348.216 86.3019 349.976C86.6154 351.736 88.2984 352.907 90.0609 352.592C91.8234 352.278 92.998 350.596 92.6845 348.836C92.3709 347.076 90.6879 345.904 88.9254 346.219Z" fill="#555869" stroke="#555869"/>
<ellipse rx="3.25194" ry="3.20667" transform="matrix(0.984418 -0.175845 0.175394 0.984498 135.73 341.362)" fill="#F4F5F6"/>
<path fill-rule="evenodd" clip-rule="evenodd" d="M134.771 336.036C137.723 335.509 140.542 337.471 141.067 340.419C141.593 343.367 139.625 346.184 136.673 346.712C133.721 347.239 130.902 345.277 130.377 342.329C129.851 339.381 131.819 336.563 134.771 336.036ZM135.154 338.187C133.392 338.502 132.217 340.184 132.531 341.944C132.844 343.704 134.527 344.876 136.29 344.561C138.052 344.246 139.227 342.564 138.913 340.804C138.6 339.044 136.917 337.872 135.154 338.187Z" fill="#555869" stroke="#555869"/>
<path d="M119.926 331.525C120.255 331.453 120.534 331.396 120.763 331.355C120.991 331.315 121.383 331.251 121.94 331.166" stroke="#2A2E43" stroke-linecap="round"/>
<path d="M119.902 331.622C119.962 331.611 120.004 331.563 119.995 331.513C119.987 331.464 119.93 331.432 119.87 331.443C119.809 331.454 119.767 331.503 119.776 331.552C119.785 331.602 119.841 331.633 119.902 331.622Z" fill="#2A2E43"/>
<path d="M121.983 331.004L121.764 331.043C121.731 331.049 121.709 331.08 121.715 331.113L121.74 331.253C121.746 331.286 121.777 331.308 121.81 331.302L122.03 331.263C122.063 331.257 122.085 331.225 122.079 331.192L122.054 331.053C122.048 331.02 122.016 330.998 121.983 331.004Z" stroke="#2A2E43"/>
<path d="M120.094 331.259L119.775 331.316C119.676 331.334 119.61 331.428 119.628 331.527L119.656 331.687C119.674 331.786 119.768 331.852 119.867 331.834L120.187 331.777C120.286 331.759 120.352 331.665 120.334 331.566L120.306 331.406C120.288 331.307 120.193 331.241 120.094 331.259Z" stroke="#2A2E43"/>
<path d="M120.187 332.763C120.303 332.743 120.38 332.632 120.36 332.517C120.339 332.401 120.228 332.324 120.113 332.345C119.997 332.366 119.92 332.476 119.941 332.592C119.961 332.707 120.072 332.784 120.187 332.763Z" stroke="#2A2E43"/>
<path d="M120.155 332.584C120.172 332.581 120.183 332.565 120.18 332.549C120.177 332.532 120.161 332.521 120.145 332.524C120.128 332.527 120.117 332.543 120.12 332.559C120.123 332.576 120.139 332.587 120.155 332.584Z" fill="#2A2E43" stroke="#2A2E43"/>
<path fill-rule="evenodd" clip-rule="evenodd" d="M89.2957 323.114L109.161 319.566C109.767 319.457 110.346 319.86 110.454 320.465L111.61 326.958C111.718 327.563 111.314 328.142 110.709 328.25L90.8428 331.798C90.237 331.907 89.6584 331.504 89.5506 330.899L88.3938 324.406C88.2861 323.801 88.6898 323.223 89.2957 323.114ZM98.73 321.429L100.277 330.113L98.73 321.429ZM99.2286 321.34L100.776 330.024L99.2286 321.34ZM88.7083 322.705L109.571 318.979C110.177 318.87 110.756 319.273 110.864 319.878L112.198 327.367C112.306 327.972 111.902 328.55 111.296 328.659L90.4329 332.385C89.827 332.494 89.2485 332.091 89.1407 331.486L87.8065 323.997C87.6987 323.392 88.1025 322.814 88.7083 322.705Z" stroke="#2A2E43"/>
<g opacity="0.3">
<path opacity="0.3" d="M289.546 88.6379H303.623C303.623 88.6379 298.319 98.041 289.546 88.6379Z" fill="#030B44"/>
<path opacity="0.3" d="M290.395 92.6342L299.626 82C299.626 82 303.236 92.16 290.395 92.6342Z" fill="#030B44"/>
</g>
<g opacity="0.3">
<path opacity="0.3" d="M333.876 110.228H347C347 110.228 342.056 118.978 333.876 110.228Z" fill="#030B44"/>
<path opacity="0.3" d="M334.669 113.95L343.275 104.041C343.275 104.041 346.638 113.512 334.669 113.95Z" fill="#030B44"/>
</g>
<g opacity="0.3">
<path opacity="0.3" d="M287 137.605H300.124C300.124 137.605 295.18 146.355 287 137.605Z" fill="#030B44"/>
<path opacity="0.3" d="M287.793 141.327L296.395 131.418C296.395 131.418 299.762 140.888 287.793 141.327Z" fill="#030B44"/>
</g>
<defs>
<linearGradient id="paint0_linear" x1="187.5" y1="5.22706" x2="187.5" y2="355.067" gradientUnits="userSpaceOnUse">
<stop stop-color="#C4C4C4" stop-opacity="0"/>
<stop offset="1" stop-color="#00B2D9" stop-opacity="0.09"/>
</linearGradient>
</defs>
</svg>
