<svg width="202" height="153" viewBox="0 0 202 153" fill="none" xmlns="http://www.w3.org/2000/svg">
<g clip-path="url(#clip0)">
<path opacity="0.1" d="M9.36987 60.6864C12.4517 69.1622 18.9743 76.4991 29.2837 80.0556C50.7082 87.4419 99.025 83.6323 135.084 79.2595C153.738 76.998 170.13 70.758 182.04 61.9703L9.36987 60.6864Z" fill="#00B2D9"/>
<path opacity="0.1" d="M198.469 20.7558H178.693C177.754 20.7558 176.983 20.2606 176.983 19.6553C176.983 19.05 177.754 18.5548 178.693 18.5548H182.113C181.172 18.5548 180.403 18.0595 180.403 17.4542C180.403 16.849 181.172 16.3537 182.113 16.3537H179.671C178.73 16.3537 177.96 15.8585 177.96 15.2532C177.96 14.6479 178.73 14.1527 179.671 14.1527H189.995C187.704 13.4649 185.032 12.977 181.938 12.722C153.775 10.3889 143.72 11.9351 140.173 13.5144C135.571 15.5638 130.699 16.9401 125.707 17.601C108.325 19.9084 75.8352 22.6872 46.3866 16.7041C31.7502 13.7345 20.8713 18.7529 14.3506 27.1407H201.906C201.661 24.7012 200.929 22.4506 199.583 20.4807C199.24 20.6644 198.858 20.759 198.469 20.7558Z" fill="#00B2D9"/>
<path opacity="0.1" d="M7.69078 42.979C6.931 47.9129 7.19216 52.9506 8.45804 57.7792L182.174 61.8713C186.983 58.3056 191.057 54.3217 194.243 50.0168L7.69078 42.979ZM76.3975 53.5367H72.9842C73.9236 53.5367 74.6927 54.0337 74.6927 54.6372C74.6927 55.2407 73.9236 55.7377 72.9842 55.7377H53.2078C52.2665 55.7377 51.4975 55.2425 51.4975 54.6372C51.4975 54.0319 52.2665 53.5367 53.2078 53.5367H56.6265C55.6871 53.5367 54.9162 53.0414 54.9162 52.4362C54.9162 51.8309 55.6871 51.3356 56.6265 51.3356H54.1691C53.2297 51.3356 52.4588 50.8386 52.4588 50.2351C52.4588 49.6317 53.2297 49.1346 54.1691 49.1346H73.9547C74.8959 49.1346 75.665 49.6298 75.665 50.2351C75.665 50.8404 74.8959 51.3356 73.9547 51.3356H76.3975C77.3387 51.3356 78.1078 51.8309 78.1078 52.4362C78.1078 53.0414 77.3387 53.5367 76.3975 53.5367Z" fill="#00B2D9"/>
<path opacity="0.1" d="M201.914 27.2231L12.2577 30.1946C9.9446 34.0665 8.40242 38.3506 7.71643 42.8102H198.59C199.811 40.2445 200.733 37.5463 201.337 34.7691C201.914 32.1388 202.141 29.5929 201.914 27.2231ZM46.2237 36.9591H42.8032C43.7444 36.9591 44.5135 37.4562 44.5135 38.0596C44.5135 38.6631 43.7444 39.1601 42.8032 39.1601H23.0267C22.0855 39.1601 21.3164 38.6649 21.3164 38.0596C21.3164 37.4543 22.0855 36.9591 23.0267 36.9591H26.4473C25.5061 36.9591 24.737 36.4639 24.737 35.8586C24.737 35.2533 25.5061 34.758 26.4473 34.758H23.9954C23.0542 34.758 22.2851 34.261 22.2851 33.6575C22.2851 33.0541 23.0542 32.557 23.9954 32.557H43.7718C44.7112 32.557 45.4803 33.0522 45.4803 33.6575C45.4803 34.2628 44.7112 34.758 43.7718 34.758H46.2146C47.154 34.758 47.9231 35.2533 47.9231 35.8586C47.9231 36.4639 47.165 36.9591 46.2237 36.9591Z" fill="#00B2D9"/>
<path opacity="0.1" d="M81.4862 153C126.49 153 162.973 149.387 162.973 144.93C162.973 140.472 126.49 136.859 81.4862 136.859C36.4825 136.859 -0.00012207 140.472 -0.00012207 144.93C-0.00012207 149.387 36.4825 153 81.4862 153Z" fill="#00B2D9"/>
<path d="M81.8231 126.149C81.8231 126.149 65.4892 125.461 63.7697 93.4269C62.0503 61.3926 79.0727 55.967 79.0727 55.967C79.0727 55.967 84.4654 52.9497 86.8569 52.825C89.2484 52.7003 97.2414 53.4541 97.2414 53.4541L88.4299 51.752C88.4299 51.752 100.829 47.0253 104.544 46.6474L91.14 49.4831C91.14 49.4831 90.9569 42.0454 94.1614 39.5876C94.1614 39.5876 91.4146 39.3821 89.9662 44.7398C89.5539 46.2857 88.7855 47.7132 87.7227 48.9077C86.6599 50.1023 85.3323 51.0306 83.8465 51.6181C78.8749 53.5605 72.0008 56.6273 70.4351 59.2539C70.4351 59.2539 67.5401 62.2803 67.9814 54.4006C68.4227 46.5209 70.4974 39.7747 71.2536 39.5857C71.2536 39.5857 77.1683 33.2834 85.4762 32.9056C85.4762 32.9056 80.631 30.9503 72.4494 37.0655C72.4494 37.0655 71.7572 33.9767 74.8409 30.3193C77.9245 26.6619 82.7148 18.973 87.93 18.1549C87.93 18.1549 80.631 17.7129 74.8409 27.1682C74.8409 27.1682 72.7003 28.5548 72.5117 25.0258C72.323 21.4968 71.065 17.0819 71.065 17.0819C71.065 17.0819 69.3016 25.2148 73.0152 28.8703C73.0152 28.8703 65.903 38.1367 66.218 48.5385C66.218 48.5385 64.0206 53.2652 63.1984 47.7186C63.1984 47.7186 62.7241 40.0791 61.7774 33.5952C61.3946 30.9836 61.5538 28.3209 62.2451 25.7737C62.9363 23.2264 64.1448 20.8495 65.795 18.7914C67.3679 16.8306 68.463 14.9267 67.855 13.9271L59.6148 23.7602C59.6148 23.7602 52.6839 7.69079 47.6501 4.23148C42.6162 0.772177 41.9863 0.0128174 41.9863 0.0128174L50.1038 9.53049L39.9098 5.92445L50.1038 10.6512C50.1038 10.6512 54.8245 14.503 57.531 25.024C60.2374 35.545 60.4883 42.1059 60.4883 42.1059C60.4883 42.1059 45.9508 30.5706 43.1821 30.9485L52.5887 38.0762C55.1476 40.0141 57.2613 42.4798 58.7869 45.3065C60.3124 48.1333 61.2142 51.2552 61.4313 54.4611C61.4313 54.4611 43.2443 49.7967 38.8386 48.9145L30.5325 40.4038L36.8261 48.4743L23.8616 48.2909L16.4362 42.9955C16.4362 42.9955 22.2959 47.913 21.721 48.2285C21.146 48.544 12.5963 48.9218 12.5963 48.9218C12.5963 48.9218 34.3706 48.7953 36.7675 50.3708C39.1645 51.9464 44.5078 52.515 44.5078 52.515L29.0895 54.8463L47.467 53.5238C47.467 53.5238 61.3746 56.044 62.129 60.3948C62.129 60.3948 59.2962 67.7976 57.4101 70.7323C55.8427 73.1718 52.6894 81.0699 52.0613 88.005C51.4332 94.9401 50.5506 105.591 52.9421 112.084C55.3336 118.578 56.2144 122.297 55.0186 124.251C53.8229 126.204 52.6894 128.726 56.5916 129.231C60.4938 129.735 77.6114 128.979 77.6114 128.979C77.6114 128.979 82.832 130.006 81.8231 126.149Z" fill="#DEA3A2"/>
<path opacity="0.1" d="M72.6747 122.71C70.9626 121.836 68.9988 121.59 67.1245 122.015C63.92 122.71 59.0106 122.341 58.5638 122.264" fill="black"/>
<path opacity="0.1" d="M62.4221 84.962C62.4221 84.962 61.642 97.2842 63.0282 99.7145L62.4221 84.962Z" fill="black"/>
<path opacity="0.1" d="M59.5435 99.7146C59.5435 99.7146 60.5433 111.255 61.2354 113.511C61.9276 115.768 59.5435 99.7146 59.5435 99.7146Z" fill="black"/>
<path opacity="0.1" d="M58.5693 71.3376C57.8607 71.5981 54.8283 77.7574 55.4362 79.5824C56.0442 81.4074 58.5693 71.3376 58.5693 71.3376Z" fill="black"/>
<path opacity="0.1" d="M66.2565 64.9436C65.9287 65.0922 64.5169 68.6414 64.7916 69.6905C65.0662 70.7397 66.2565 64.9436 66.2565 64.9436Z" fill="black"/>
<path opacity="0.1" d="M53.1272 85.6353C53.4788 89.2138 53.6765 91.5561 53.4458 94.4211C53.2576 96.6461 53.2895 98.8843 53.541 101.103" fill="black"/>
<path opacity="0.1" d="M91.0942 43.9713C90.6675 44.4592 90.5247 45.136 90.5046 45.7853C90.4844 46.4346 90.5668 47.084 90.5247 47.7314C90.4789 48.4119 90.1585 49.2116 89.481 49.3015" fill="black"/>
<path opacity="0.1" d="M79.4737 22.6377C78.6119 23.4941 77.8478 24.444 77.1958 25.4697C77.0061 25.7928 76.7899 26.0996 76.5494 26.3868C76.1831 26.7867 75.718 27.071 75.3005 27.4121C74.3197 28.2102 73.6217 29.3036 73.3101 30.5303" fill="black"/>
<path opacity="0.1" d="M46.5752 4.21863C46.7824 4.62186 47.0553 4.98762 47.3827 5.30081C47.6684 5.57227 47.9943 5.80338 48.2525 6.10052C48.4567 6.35968 48.6404 6.63442 48.8019 6.92224C49.4648 7.98425 50.2979 8.92886 51.1293 9.85697" fill="black"/>
<path opacity="0.1" d="M61.8142 22.4542C61.2648 22.7936 61.1312 23.5199 61.1422 24.16C61.1531 24.8002 61.263 25.4678 61.0268 26.0621C60.9188 26.3336 60.743 26.572 60.6294 26.8398C60.4353 27.302 60.4353 27.8193 60.4463 28.3218C60.4555 28.9014 60.4738 29.4829 60.4994 30.0625C60.5287 30.7595 60.5946 31.5188 61.0689 32.0306" fill="black"/>
<path opacity="0.1" d="M61.3618 56.9979C61.0041 56.7035 60.6232 56.4385 60.2228 56.2055C59.8578 55.9815 59.4642 55.8081 59.0527 55.6901C58.4246 55.5232 57.7709 55.5489 57.119 55.481C56.4671 55.4131 55.7969 55.2334 55.3574 54.7473" fill="black"/>
<path opacity="0.1" d="M35.7733 49.0338C36.5387 49.0558 37.3335 49.0833 38.0146 49.4337C38.3626 49.6171 38.6647 49.8702 39.0053 50.061C39.4475 50.3064 39.9445 50.4358 40.4501 50.437" fill="black"/>
<path opacity="0.1" d="M46.3904 52.1995C46.2256 52.0711 45.9765 52.1702 45.841 52.3279C45.7055 52.4857 45.6304 52.6948 45.4894 52.8415C45.2093 53.1442 44.757 53.179 44.3413 53.1937" fill="black"/>
<path opacity="0.1" d="M50.7686 35.9064L51.501 36.2934C52.2668 36.6615 52.9948 37.1038 53.6746 37.614" fill="black"/>
<path opacity="0.1" d="M59.1772 43.1166C59.6607 43.001 60.0782 43.5183 60.1642 44.008C60.2503 44.4977 60.1496 45.015 60.2869 45.4937C60.4406 45.9098 60.6918 46.2828 61.0194 46.5814" fill="black"/>
<path opacity="0.1" d="M67.3625 44.0135C67.8038 45.3305 66.8699 46.7648 67.1427 48.1277C67.2251 48.5422 67.4174 48.9274 67.509 49.3401C67.7635 50.4222 67.3258 51.5741 66.619 52.4344" fill="black"/>
<path opacity="0.1" d="M167.371 126.663C169.072 126.663 170.451 126.429 170.451 126.142C170.451 125.854 169.072 125.621 167.371 125.621C165.67 125.621 164.291 125.854 164.291 126.142C164.291 126.429 165.67 126.663 167.371 126.663Z" fill="#00B2D9"/>
<path d="M165.303 123.719C165.303 123.719 167.06 123.664 167.589 123.286C168.118 122.908 170.292 122.459 170.422 123.064C170.552 123.669 173.062 126.076 171.079 126.092C169.096 126.109 166.47 125.782 165.943 125.459C165.415 125.137 165.303 123.719 165.303 123.719Z" fill="#A8A8A8"/>
<path opacity="0.2" d="M171.114 125.881C169.131 125.898 166.507 125.571 165.987 125.248C165.586 125.003 165.424 124.122 165.371 123.717H165.313C165.313 123.717 165.423 125.135 165.952 125.458C166.481 125.78 169.105 126.105 171.088 126.09C171.661 126.09 171.857 125.881 171.848 125.579C171.758 125.764 171.541 125.878 171.114 125.881Z" fill="black"/>
<path opacity="0.1" d="M185.232 120.469C186.541 120.469 187.601 120.289 187.601 120.067C187.601 119.845 186.541 119.665 185.232 119.665C183.923 119.665 182.862 119.845 182.862 120.067C182.862 120.289 183.923 120.469 185.232 120.469Z" fill="#00B2D9"/>
<path d="M183.641 118.201C183.641 118.201 184.992 118.159 185.4 117.869C185.809 117.58 187.479 117.231 187.58 117.697C187.68 118.163 189.612 120.015 188.085 120.027C186.558 120.038 184.54 119.79 184.133 119.54C183.727 119.291 183.641 118.201 183.641 118.201Z" fill="#A8A8A8"/>
<path opacity="0.2" d="M188.112 119.865C186.587 119.878 184.567 119.627 184.161 119.379C183.851 119.196 183.727 118.512 183.687 118.2H183.641C183.641 118.2 183.727 119.291 184.133 119.539C184.54 119.786 186.56 120.038 188.085 120.025C188.526 120.025 188.678 119.865 188.669 119.632C188.609 119.775 188.44 119.863 188.112 119.865Z" fill="black"/>
<path opacity="0.1" d="M174.479 146.391C177.603 146.391 180.136 145.963 180.136 145.434C180.136 144.905 177.603 144.477 174.479 144.477C171.355 144.477 168.823 144.905 168.823 145.434C168.823 145.963 171.355 146.391 174.479 146.391Z" fill="#00B2D9"/>
<path d="M170.682 140.982C170.682 140.982 173.908 140.881 174.88 140.188C175.853 139.495 179.845 138.666 180.086 139.779C180.328 140.892 184.935 145.311 181.291 145.34C177.647 145.37 172.828 144.774 171.866 144.181C170.905 143.589 170.682 140.982 170.682 140.982Z" fill="#A8A8A8"/>
<path opacity="0.2" d="M181.357 144.953C177.713 144.983 172.892 144.385 171.921 143.794C171.189 143.343 170.889 141.723 170.79 140.977H170.682C170.682 140.977 170.887 143.589 171.866 144.181C172.846 144.774 177.658 145.372 181.3 145.34C182.353 145.34 182.716 144.959 182.696 144.403C182.54 144.731 182.139 144.948 181.357 144.953Z" fill="black"/>
<path d="M116.111 100.386C116.111 100.386 125.492 99.9897 126.479 81.5927C127.466 63.1957 117.69 60.0775 117.69 60.0775C117.69 60.0775 114.593 58.3442 113.22 58.2727C111.847 58.2011 107.256 58.6395 107.256 58.6395L112.315 57.6619C112.315 57.6619 105.196 54.9472 103.063 54.7271L110.753 56.3559C110.753 56.3559 110.862 52.0841 109.018 50.6699C109.018 50.6699 110.589 50.5525 111.427 53.6285C111.663 54.5166 112.104 55.3368 112.715 56.023C113.325 56.7093 114.088 57.2423 114.941 57.5793C117.798 58.6964 121.746 60.4572 122.645 61.9649C122.645 61.9649 124.308 63.7037 124.053 59.1769C123.799 54.6501 122.608 50.7763 122.174 50.6681C122.174 50.6681 118.778 47.0492 114.006 46.8309C114.006 46.8309 116.789 45.7102 121.488 49.2154C121.488 49.2154 121.885 47.4417 120.114 45.3415C118.344 43.2414 115.597 38.8246 112.596 38.3551C112.596 38.3551 116.789 38.1001 120.114 43.5312C120.114 43.5312 121.343 44.3272 121.451 42.3004C121.559 40.2736 122.282 37.7388 122.282 37.7388C122.282 37.7388 123.295 42.4086 121.162 44.5088C121.162 44.5088 125.247 49.828 125.066 55.8057C125.066 55.8057 126.331 58.5203 126.802 55.3343C126.802 55.3343 127.073 50.9468 127.617 47.2253C127.836 45.7251 127.745 44.1958 127.348 42.7327C126.951 41.2697 126.257 39.9043 125.309 38.7219C124.407 37.5975 123.777 36.5025 124.126 35.9284L128.862 41.5759C128.862 41.5759 132.837 32.3444 135.729 30.3524C138.62 28.3605 138.983 27.9276 138.983 27.9276L134.328 33.3954L140.187 31.3319L134.328 34.0483C134.328 34.0483 131.618 36.2494 130.063 42.3023C128.508 48.3551 128.364 52.1134 128.364 52.1134C128.364 52.1134 136.708 45.5011 138.305 45.7102L132.901 49.8023C131.432 50.9156 130.218 52.3318 129.341 53.9554C128.465 55.579 127.947 57.3722 127.822 59.2136C127.822 59.2136 138.259 56.5338 140.799 56.0276L145.56 51.1394L141.955 55.7726L149.4 55.6644L153.667 52.6233C153.667 52.6233 150.305 55.448 150.625 55.6296C150.945 55.8112 155.868 56.0276 155.868 56.0276C155.868 56.0276 143.361 55.9561 141.987 56.8603C140.614 57.7646 137.541 58.0911 137.541 58.0911L146.401 59.441L135.846 58.6798C135.846 58.6798 127.858 60.1289 127.422 62.627C127.422 62.627 129.05 66.8787 130.134 68.5644C131.033 69.9639 132.845 74.5017 133.205 78.4837C133.566 82.4658 134.073 88.5847 132.7 92.3136C131.326 96.0425 130.821 98.1831 131.508 99.3019C132.194 100.421 132.845 101.87 130.603 102.161C128.362 102.453 118.53 102.017 118.53 102.017C118.53 102.017 115.531 102.602 116.111 100.386Z" fill="#DEA3A2"/>
<path opacity="0.1" d="M121.365 98.4105C122.347 97.9091 123.474 97.7683 124.549 98.0124C126.381 98.4105 129.21 98.1959 129.466 98.1555" fill="black"/>
<path opacity="0.1" d="M127.254 76.7302C127.254 76.7302 127.701 83.8084 126.906 85.2024L127.254 76.7302Z" fill="black"/>
<path opacity="0.1" d="M128.906 85.2024C128.906 85.2024 128.333 91.8312 127.935 93.128C127.538 94.4248 128.906 85.2024 128.906 85.2024Z" fill="black"/>
<path opacity="0.1" d="M129.466 68.9055C129.873 69.0559 131.614 72.5941 131.266 73.6396C130.918 74.6851 129.466 68.9055 129.466 68.9055Z" fill="black"/>
<path opacity="0.1" d="M125.051 65.2334C125.234 65.3178 126.051 67.3574 125.888 67.959C125.725 68.5606 125.051 65.2334 125.051 65.2334Z" fill="black"/>
<path opacity="0.1" d="M132.592 77.1172C132.39 79.1733 132.281 80.5178 132.409 82.1631C132.517 83.4408 132.499 84.7262 132.354 86.0002" fill="black"/>
<path opacity="0.1" d="M110.785 53.1882C111.013 53.4865 111.134 53.8541 111.125 54.2301C111.138 54.5969 111.089 54.9747 111.112 55.3471C111.136 55.7194 111.325 56.1963 111.713 56.2495" fill="black"/>
<path opacity="0.1" d="M117.461 40.934C117.954 41.4279 118.391 41.9755 118.763 42.5664C118.87 42.7531 118.992 42.9304 119.129 43.0965C119.353 43.3109 119.593 43.5077 119.847 43.6853C120.411 44.1452 120.812 44.7749 120.99 45.4809" fill="black"/>
<path opacity="0.1" d="M136.355 30.356C136.236 30.5873 136.079 30.7973 135.892 30.9778C135.727 31.1337 135.54 31.2657 135.392 31.4363C135.273 31.5847 135.165 31.7424 135.071 31.9077C134.675 32.5081 134.228 33.0739 133.736 33.5988" fill="black"/>
<path opacity="0.1" d="M127.604 40.8293C127.917 41.0238 127.997 41.442 127.99 41.8088C127.983 42.1756 127.921 42.5608 128.058 42.9093C128.12 43.0652 128.221 43.2028 128.285 43.3569C128.379 43.6295 128.416 43.9186 128.393 44.2061C128.393 44.5399 128.377 44.8738 128.362 45.2057C128.345 45.6074 128.307 46.0421 128.036 46.3374" fill="black"/>
<path opacity="0.1" d="M127.862 60.6699C128.068 60.5016 128.286 60.3495 128.516 60.215C128.726 60.0863 128.953 59.9864 129.19 59.9179C129.556 59.8527 129.927 59.8159 130.299 59.8078C130.676 59.795 131.035 59.6472 131.312 59.3915" fill="black"/>
<path opacity="0.1" d="M142.568 56.0953C142.129 56.1082 141.673 56.1228 141.286 56.3246C141.087 56.4273 140.92 56.5759 140.717 56.6914C140.463 56.833 140.178 56.9075 139.887 56.9079" fill="black"/>
<path opacity="0.1" d="M136.461 57.9131C136.514 57.8849 136.575 57.8768 136.633 57.8903C136.691 57.9038 136.743 57.9379 136.778 57.9865C136.857 58.0763 136.899 58.1937 136.981 58.2818C137.14 58.456 137.402 58.4762 137.638 58.4835" fill="black"/>
<path opacity="0.1" d="M133.947 48.5568L133.524 48.7769C133.085 48.9894 132.668 49.2444 132.279 49.5381" fill="black"/>
<path opacity="0.1" d="M129.118 52.6947C128.84 52.6287 128.6 52.9258 128.551 53.2083C128.501 53.4908 128.551 53.7861 128.479 54.0612C128.392 54.2999 128.25 54.5143 128.063 54.6867" fill="black"/>
<path opacity="0.1" d="M124.416 53.2047C124.163 53.9604 124.7 54.7858 124.542 55.5672C124.495 55.8056 124.385 56.0275 124.328 56.2642C124.181 56.886 124.434 57.5481 124.839 58.0415" fill="black"/>
<path d="M69.7833 68.3772C66.7766 72.4381 64.3009 84.3843 63.6068 87.9848L58.3698 87.7775C58.6994 84.6796 65.0315 72.1703 66.7931 68.7385C67.7361 68.612 68.7451 68.4836 69.7833 68.3772Z" fill="#00B2D9"/>
<path d="M135.214 66.9355H132.892V70.2114H135.214V66.9355Z" fill="#DCE0ED"/>
<path opacity="0.1" d="M135.214 66.9355V68.0012C135.05 68.0478 134.881 68.0706 134.711 68.0691L132.894 68.0544V66.9355H135.214Z" fill="black"/>
<path d="M131.912 58.59H134.11C134.634 58.5907 135.146 58.7482 135.58 59.0423C136.015 59.3364 136.351 59.7537 136.547 60.2407C137.188 61.8237 137.732 64.3402 136.304 66.8439C136.144 67.1245 135.913 67.3575 135.634 67.5187C135.355 67.6799 135.038 67.7636 134.716 67.761L131.918 67.7371L131.912 58.59Z" fill="#DCE0ED"/>
<path d="M131.912 67.7371C133.209 67.7371 134.26 65.6899 134.26 63.1645C134.26 60.639 133.209 58.5918 131.912 58.5918C130.616 58.5918 129.565 60.639 129.565 63.1645C129.565 65.6899 130.616 67.7371 131.912 67.7371Z" fill="#F0F0F4"/>
<path d="M114.595 66.9741H112.273V69.841H114.595V66.9741Z" fill="#DCE0ED"/>
<path opacity="0.1" d="M114.595 66.9741V67.8912C114.431 67.9379 114.261 67.9607 114.09 67.9591L112.273 67.9426V66.9796L114.595 66.9741Z" fill="black"/>
<path d="M111.294 58.6302H113.491C114.015 58.6306 114.527 58.7879 114.961 59.0821C115.395 59.3763 115.731 59.7939 115.927 60.281C116.569 61.8639 117.113 64.3805 115.685 66.8842C115.525 67.1648 115.294 67.3977 115.014 67.5589C114.735 67.7201 114.418 67.8038 114.095 67.8013L111.299 67.7756L111.294 58.6302Z" fill="#DCE0ED"/>
<path d="M111.294 67.7756C112.59 67.7756 113.641 65.7283 113.641 63.2029C113.641 60.6775 112.59 58.6302 111.294 58.6302C109.997 58.6302 108.946 60.6775 108.946 63.2029C108.946 65.7283 109.997 67.7756 111.294 67.7756Z" fill="#F0F0F4"/>
<path d="M111.88 60.3013C111.88 60.3013 111.013 60.4407 111.464 61.5852C111.703 62.141 111.877 62.7226 111.982 63.3185C111.982 63.3185 112.848 63.7697 112.814 62.2785C112.779 60.7873 111.88 60.3013 111.88 60.3013Z" fill="#DCE0ED"/>
<path d="M23.9147 140.678C31.4783 140.678 37.6099 133.946 37.6099 125.643C37.6099 117.339 31.4783 110.608 23.9147 110.608C16.351 110.608 10.2195 117.339 10.2195 125.643C10.2195 133.946 16.351 140.678 23.9147 140.678Z" fill="#636780"/>
<path opacity="0.1" d="M29.0456 111.545C21.8803 112.028 16.2037 118.561 16.2037 126.551C16.2037 132.991 19.8917 138.484 25.0757 140.625C32.2428 140.142 37.9194 133.609 37.9194 125.619C37.9194 119.179 34.2296 113.686 29.0456 111.545Z" fill="black"/>
<path d="M131.099 107.299C137.238 107.299 142.215 100.799 142.215 92.7813C142.215 84.7634 137.238 78.2635 131.099 78.2635C124.961 78.2635 119.984 84.7634 119.984 92.7813C119.984 100.799 124.961 107.299 131.099 107.299Z" fill="#636780"/>
<path opacity="0.1" d="M127.994 78.8707C123.383 80.6407 120.017 86.2075 120.017 92.8015C120.017 99.8485 123.863 105.722 128.961 107.042C133.57 105.272 136.937 99.7054 136.937 93.1115C136.937 86.0645 133.092 80.1914 127.994 78.8707Z" fill="black"/>
<path d="M89.3455 89.6815L89.5524 84.4118C89.5524 84.4118 88.5197 82.1374 87.4887 81.932C86.4578 81.7265 84.0846 81.5963 84.0846 81.5963C84.0846 81.5963 82.2278 89.1642 83.4657 91.4386C84.7035 93.7131 89.3455 89.6815 89.3455 89.6815Z" fill="#00B2D9"/>
<path opacity="0.1" d="M89.3455 89.6815L89.5524 84.4118C89.5524 84.4118 88.5197 82.1374 87.4887 81.932C86.4578 81.7265 84.0846 81.5963 84.0846 81.5963C84.0846 81.5963 82.2278 89.1642 83.4657 91.4386C84.7035 93.7131 89.3455 89.6815 89.3455 89.6815Z" fill="black"/>
<path d="M70.3125 89.113C70.3125 89.113 69.6734 81.8055 73.6818 81.6734C74.1982 81.6569 74.7146 81.6441 75.2292 81.5945C78.007 81.3249 85.5862 80.7398 84.6779 82.4731C84.6779 82.4731 82.8724 88.8286 84.1102 90.4299L70.3125 89.113Z" fill="#00B2D9"/>
<path d="M127.129 102.662L132.506 102.818C132.506 102.818 133.434 92.8969 133.744 92.1229C134.053 91.3489 134.209 87.6273 133.203 87.0862C132.198 86.5451 128.834 85.8848 128.834 85.8848L126.355 91.5396L126.163 96.6552L127.129 102.662Z" fill="#00B2D9"/>
<path opacity="0.1" d="M127.129 102.662L132.506 102.818C132.506 102.818 133.434 92.8969 133.744 92.1229C134.053 91.3489 134.209 87.6273 133.203 87.0862C132.198 86.5451 128.834 85.8848 128.834 85.8848L126.355 91.5396L126.163 96.6552L127.129 102.662Z" fill="black"/>
<path d="M114.13 86.1946L114.106 85.0941C114.105 85.0071 114.121 84.9206 114.153 84.84C114.186 84.7595 114.235 84.6865 114.297 84.6256C114.359 84.5648 114.433 84.5173 114.515 84.4862C114.596 84.4551 114.682 84.441 114.769 84.4448C117.435 84.5567 127.133 85.0226 128.831 85.8902C128.831 85.8902 126.974 99.7237 129.025 103.018L128.329 114.1L104.575 112.317L114.13 86.1946Z" fill="#00B2D9"/>
<path opacity="0.1" d="M112.273 68.7239C112.933 68.6578 113.718 68.5881 114.595 68.5184V69.8409H112.273V68.7239Z" fill="black"/>
<path opacity="0.1" d="M135.214 70.0427V70.2096H132.894V69.2045C133.699 69.386 134.479 69.6676 135.214 70.0427Z" fill="black"/>
<path d="M69.7722 86.2534C69.7825 86.1978 69.814 86.1485 69.8601 86.1159C69.911 86.0971 69.966 86.092 70.0194 86.1012C70.0194 86.1599 70.0194 86.1947 70.0194 86.1947C69.9016 86.3004 69.7909 86.4137 69.688 86.5341C69.721 86.4405 69.7448 86.347 69.7722 86.2534ZM78.1754 83.7846C78.1763 83.7718 78.1763 83.7589 78.1754 83.7461C78.2923 83.4524 78.4262 83.1657 78.5764 82.8877C78.4299 83.1701 78.2944 83.4691 78.1754 83.7846ZM79.4279 81.4111C79.2302 81.7064 78.9903 82.088 78.7541 82.53C78.9308 82.1301 79.1572 81.7542 79.4279 81.4111ZM46.7107 107.079C47.6428 107.116 48.4192 107.099 48.4192 107.099C48.2507 107.176 47.5018 107.141 46.7107 107.079ZM48.421 107.097C48.4558 107.075 48.8 106.874 49.6039 106.954C49.6039 106.947 48.8129 106.919 48.421 107.097ZM79.6989 92.9886L80.0395 87.1192C80.0395 87.1192 79.9132 90.1163 79.9553 91.413C79.971 91.9504 79.8839 92.4858 79.6989 92.9904V92.9886Z" fill="url(#paint0_linear)"/>
<path d="M60.2119 104.229C60.2119 104.229 60.1148 104.529 59.9866 104.911C59.7779 105.533 59.4831 106.378 59.3824 106.457C59.2817 106.536 58.5016 106.587 57.6519 106.64C56.3347 106.717 55.0357 106.304 54.0043 105.479C54.0043 105.479 54.4492 105.158 54.9198 104.786C55.3905 104.414 55.8849 103.992 55.9856 103.785C56.1266 103.5 56.9323 103.011 57.4175 102.735C57.6354 102.611 57.7838 102.53 57.7838 102.53L60.2119 104.229Z" fill="#F899A5"/>
<path d="M59.1827 106.82C59.1827 106.82 50.6202 106.426 50.1093 106.312C49.5984 106.199 49.494 105.597 49.494 105.597C49.3237 105.197 50.2265 105.283 50.2265 105.283C50.3181 105.298 51.3252 105.467 52.2737 105.588C53.0337 105.685 53.7533 105.751 53.9218 105.679C54.3045 105.52 55.0681 105.588 55.0681 105.588C54.6341 104.15 53.3193 103.807 52.7572 103.726L52.792 103.691C52.9415 103.552 53.1054 103.429 53.2809 103.324C55.026 103.396 55.9489 105.806 55.9489 105.806H55.9635C56.1613 105.868 58.2653 106.521 58.6828 106.582C59.1186 106.65 59.1827 106.82 59.1827 106.82Z" fill="#F3B4B4"/>
<path d="M54.7055 107.585C54.6726 107.693 54.5224 107.769 54.277 107.789C54.1441 107.798 54.0107 107.798 53.8778 107.789C53.0639 107.718 52.2631 107.538 51.4973 107.253C51.3655 107.207 51.241 107.167 51.1201 107.132H51.1055C50.8147 107.045 50.517 106.984 50.2155 106.949C49.4391 106.868 49.1077 107.07 49.0747 107.092C49.0747 107.092 48.3239 107.108 47.4267 107.072C46.7367 107.053 46.0492 106.98 45.3703 106.855C45.2732 106.835 45.1872 106.811 45.0974 106.787C44.9369 106.746 44.7824 106.685 44.6378 106.604C43.693 106.035 46.8755 105.652 46.8755 105.652C47.2391 105.607 47.5778 105.444 47.8387 105.186L47.8716 105.149L47.9522 105.069C48.0753 104.961 48.2043 104.861 48.3386 104.768L48.4558 104.689C49.0894 104.26 49.9427 103.801 49.9427 103.801C50.5363 103.64 51.079 103.329 51.5193 102.899C51.6003 102.819 51.6739 102.732 51.7391 102.638L53.4988 102.183L54.711 105.1C54.711 105.1 54.7202 105.258 54.7293 105.494C54.7495 106.129 54.7843 107.328 54.7055 107.585Z" fill="#F899A5"/>
<path opacity="0.1" d="M54.2771 107.789C54.1442 107.798 54.0108 107.798 53.8779 107.789C53.0639 107.718 52.2632 107.538 51.4974 107.253C51.3656 107.207 51.241 107.167 51.1202 107.132H51.1055C50.8148 107.045 50.517 106.984 50.2156 106.949C49.4392 106.868 49.1078 107.07 49.0748 107.092C49.0748 107.092 48.324 107.108 47.4268 107.072C46.7368 107.053 46.0492 106.98 45.3704 106.855C45.2733 106.835 45.1873 106.811 45.0975 106.787C45.2147 106.773 45.3329 106.768 45.451 106.773C45.5407 106.784 46.5588 106.908 47.5073 106.987C48.2728 107.051 48.9942 107.086 49.1554 107.007C49.5308 106.824 50.2962 106.864 50.2962 106.864C49.8018 105.446 48.465 105.162 47.9065 105.105C47.9175 105.092 47.9303 105.081 47.9395 105.069C48.0821 104.926 48.2385 104.798 48.4064 104.687H48.4431C50.1662 104.715 51.1806 107.048 51.1806 107.048H51.1953C51.3949 107.101 53.5263 107.664 53.942 107.706C54.0575 107.715 54.1707 107.743 54.2771 107.789Z" fill="black"/>
<path d="M54.3779 108.007C54.3779 108.007 45.8062 107.985 45.2917 107.895C44.7771 107.805 44.6453 107.205 44.6453 107.205C44.4622 106.815 45.3576 106.862 45.3576 106.862C45.4473 106.873 46.4563 106.998 47.414 107.079C48.1776 107.141 48.9009 107.176 49.062 107.099C49.4283 106.916 50.2028 106.956 50.2028 106.956C49.7066 105.538 48.3717 105.254 47.8132 105.197L47.8462 105.16C47.9907 105.016 48.1489 104.887 48.3186 104.773C50.0655 104.773 51.0928 107.136 51.0928 107.136H51.1074C51.307 107.187 53.4385 107.75 53.8542 107.792C54.3065 107.838 54.3779 108.007 54.3779 108.007Z" fill="#F3B4B4"/>
<path opacity="0.1" d="M60.2118 104.229C60.2118 104.229 60.1148 104.529 59.9866 104.911C59.9353 104.876 58.2488 103.752 57.6061 103.014C57.5307 102.931 57.4655 102.84 57.412 102.741C57.6299 102.616 57.7782 102.536 57.7782 102.536L60.2118 104.229Z" fill="black"/>
<path d="M65.145 100.509L64.8411 101.494L61.9295 103.082C61.9295 103.082 61.1421 103.642 61.014 103.906C60.9099 104.082 60.7441 104.212 60.5488 104.272C60.4047 104.452 60.2702 104.64 60.146 104.834C60.146 104.834 58.4174 103.686 57.7655 102.937C57.5641 102.706 57.467 102.512 57.5586 102.403C57.9395 101.945 60.2247 100.298 60.2247 100.298C60.2247 100.298 61.6201 98.4636 61.6805 98.4966C61.7409 98.5296 62.4423 97.8528 62.8543 97.4694L63.1363 97.2053L65.145 100.509Z" fill="#BDD3E8"/>
<path d="M69.5049 97.9446V98.4306C69.5049 98.4306 71.336 100.186 71.0943 101.617C70.8526 103.047 71.3635 104.83 71.3635 104.83L73.2056 104.698L72.9273 98.161L69.5049 97.9446Z" fill="#BDD3E8"/>
<path opacity="0.05" d="M73.2056 104.698L71.3635 104.83C71.3635 104.83 70.8526 103.049 71.0943 101.617C71.336 100.184 69.5049 98.4306 69.5049 98.4306V97.9446L72.9273 98.161L72.9456 98.5866L73.2056 104.698Z" fill="black"/>
<path opacity="0.05" d="M63.0061 97.7556C62.4233 98.298 61.8833 98.8849 61.3911 99.511C60.7428 100.375 59.6386 101.617 59.6386 101.617L58.3184 102.4L57.769 102.934C57.5676 102.702 57.4706 102.508 57.5621 102.4C57.943 101.941 60.2283 100.294 60.2283 100.294C60.2283 100.294 61.6236 98.46 61.684 98.493C61.7445 98.526 62.4458 97.8492 62.8578 97.4658L63.0061 97.7556Z" fill="black"/>
<path opacity="0.1" d="M54.7238 105.494C54.6703 105.54 54.6196 105.589 54.5718 105.641C54.5718 105.641 54.5444 106.503 53.8705 104.478C53.1967 102.453 51.5248 102.939 51.5248 102.939C51.5188 102.935 51.5143 102.93 51.512 102.923C51.5097 102.916 51.5097 102.909 51.512 102.902C51.512 102.847 51.609 102.752 51.7317 102.642L53.4915 102.187L54.7037 105.104C54.7037 105.104 54.7147 105.258 54.7238 105.494Z" fill="black"/>
<path d="M60.9334 93.9753L59.9079 94.0028L59.2066 95.0025C59.2066 95.0025 58.0475 96.2443 57.6977 96.5542C57.348 96.8642 55.0829 98.9974 54.4365 100.105C54.4365 100.105 53.8432 100.402 53.8432 100.7C53.8432 100.997 52.7115 101.861 52.7115 101.861C52.7115 101.861 51.5249 102.669 51.6861 102.778C51.6861 102.778 53.3579 102.292 54.0318 104.317C54.7056 106.342 54.7331 105.478 54.7331 105.478C54.8496 105.35 54.9863 105.242 55.1378 105.158C55.2989 105.1 56.0662 103.994 56.3024 103.966C56.4767 103.932 56.6408 103.858 56.7822 103.75L58.1555 102.4L59.4776 101.617C59.4776 101.617 60.5763 100.375 61.2282 99.511C61.7214 98.8852 62.262 98.2983 62.8451 97.7556L60.9334 93.9753Z" fill="#BDD3E8"/>
<path opacity="0.1" d="M55.8116 100.511C55.8116 100.511 57.6428 101.4 57.5641 101.589C57.4853 101.778 55.8116 100.511 55.8116 100.511Z" fill="black"/>
<path opacity="0.1" d="M57.2582 100.294C57.2582 100.294 57.401 101.096 58.1298 101.059C58.8586 101.022 57.2582 100.294 57.2582 100.294Z" fill="black"/>
<path opacity="0.1" d="M54.7056 102.545C54.7056 102.545 54.8136 103.003 55.4875 103.084C56.1613 103.165 54.7056 102.545 54.7056 102.545Z" fill="black"/>
<path opacity="0.1" d="M61.5669 100.511C61.5669 100.511 62.455 100.877 62.5356 101.387C62.6161 101.897 61.5669 100.511 61.5669 100.511Z" fill="black"/>
<path opacity="0.1" d="M59.3823 102.4C59.7266 102.548 60.7172 103.662 60.6971 103.783C60.6769 103.904 59.3823 102.4 59.3823 102.4Z" fill="black"/>
<path opacity="0.1" d="M60.959 101.609C61.0623 101.572 61.1737 101.565 61.281 101.588C61.3883 101.61 61.4872 101.662 61.5669 101.738C61.8141 101.994 60.959 101.609 60.959 101.609Z" fill="black"/>
<path d="M67.4907 92.7886C67.4907 92.7886 64.0536 91.6734 64.3173 92.7886C64.581 93.9038 67.4907 94.5293 67.4907 94.5293V92.7886Z" fill="#F899A5"/>
<path opacity="0.1" d="M136.534 83.4379L136.102 89.8704L134.892 87.6675L135.82 82.0879L136.534 83.4379Z" fill="black"/>
<path d="M105.396 84.0505C105.396 84.0505 103.663 71.0919 109.973 69.1532C110.054 69.1295 110.137 69.1124 110.221 69.1018C111.673 68.9276 125.2 67.3648 132.222 69.221C132.222 69.221 137.02 69.9455 136.968 72.5226L134.841 104.097H131.385L132.519 83.2233C132.519 83.2233 134.167 74.1293 131.436 73.502C128.706 72.8748 116.271 71.8513 111.887 73.0894C111.887 73.0894 108.688 72.3648 109.204 80.2703L108.997 84.5073L105.396 84.0505Z" fill="#DCE0ED"/>
<path d="M115.91 87.8987C115.939 87.5565 115.88 87.2127 115.737 86.9004C115.595 86.588 115.374 86.3178 115.097 86.1158C114.13 85.3821 111.151 83.7919 111.151 83.7919L110.184 83.8689L107.284 91.0773L107.476 106.384L112.698 112.855L115.91 87.8987Z" fill="#00B2D9"/>
<path opacity="0.1" d="M115.91 87.8987C115.939 87.5565 115.88 87.2127 115.737 86.9004C115.595 86.588 115.374 86.3178 115.097 86.1158C114.13 85.3821 111.151 83.7919 111.151 83.7919L110.184 83.8689L107.284 91.0773L107.476 106.384L112.698 112.855L115.91 87.8987Z" fill="black"/>
<path d="M93.3887 103.724V96.2956L95.174 88.2343C95.174 88.2343 94.7108 82.1374 98.3474 82.0347C98.3474 82.0347 106.923 82.097 110.649 83.3094C110.767 83.3473 110.874 83.4109 110.964 83.4957C111.054 83.5805 111.124 83.6842 111.169 83.7994C111.214 83.9147 111.233 84.0385 111.224 84.1618C111.215 84.2852 111.179 84.4051 111.118 84.5127C110.385 85.8058 109.126 89.2302 108.521 98.0124V107.429L93.3887 103.724Z" fill="#00B2D9"/>
<path opacity="0.1" d="M113.165 113.17L97.5821 112.83H97.5674L89.9094 112.664L90.7963 103.082L95.0459 103.228L108.568 106.048L112.701 112.121L113.165 113.17Z" fill="#00B2D9"/>
<path d="M113.165 113.88L93.3887 113.054V103.516L108.862 107.484L105.291 112.253L112.707 112.712L113.165 113.88Z" fill="#00A0C3"/>
<path opacity="0.1" d="M97.5435 113.614L89.8746 113.431L90.7646 103.159C90.7646 103.159 93.1634 106.996 97.3018 106.725L97.5435 113.614Z" fill="#00B2D9"/>
<path d="M152.584 121.921C152.275 124.867 150.186 124.401 150.186 124.401L149.795 124.366L145.93 124.014L146.086 119.441C146.086 119.441 148.19 119.298 150.006 119.678C151.456 119.979 152.722 120.614 152.584 121.921Z" fill="#DCE0ED"/>
<path opacity="0.1" d="M96.2782 81.5063C96.2782 81.5063 94.7016 83.8633 94.8902 84.3567C95.0788 84.8501 96.2782 81.5063 96.2782 81.5063Z" fill="black"/>
<path opacity="0.1" d="M96.5089 89.1863C96.5089 89.1863 97.3458 89.5366 97.6516 89.8649C97.9574 90.1933 96.5089 89.1863 96.5089 89.1863Z" fill="black"/>
<path opacity="0.1" d="M98.3474 91.5891C98.3474 91.5891 100.135 92.022 100.287 92.3026C100.439 92.5832 98.3474 91.5891 98.3474 91.5891Z" fill="black"/>
<path opacity="0.1" d="M98.6587 94.0396C98.6587 94.0396 100.276 94.2523 100.459 94.8796C100.642 95.5069 98.6587 94.0396 98.6587 94.0396Z" fill="black"/>
<path opacity="0.1" d="M152.584 121.921C152.275 124.867 150.186 124.401 150.186 124.401L149.795 124.366C149.377 123.706 149.162 122.936 149.18 122.154C149.18 121.129 149.506 120.223 150.006 119.678C151.456 119.979 152.722 120.614 152.584 121.921Z" fill="black"/>
<path d="M92.8009 83.3259C89.2686 83.3259 86.4065 87.2016 86.4065 91.9815C86.4065 96.7615 89.2686 100.635 92.8009 100.635C96.3332 100.635 99.1971 96.7596 99.1971 91.9815C99.1971 87.2034 96.335 83.3259 92.8009 83.3259ZM91.8981 98.8268C89.2063 98.8268 87.0254 96.0168 87.0254 92.5483C87.0254 89.0798 89.2063 86.2717 91.8981 86.2717C94.5899 86.2717 96.7726 89.0817 96.7726 92.5483C96.7726 96.0149 94.5917 98.8268 91.8981 98.8268Z" fill="#636780"/>
<path d="M93.1104 94.643L96.1025 97.5869L97.1847 94.9511L92.8522 92.4199L93.1104 94.643Z" fill="#636780"/>
<path d="M97.5216 65.4939L100.125 65.8112L101.092 66.9613L99.6274 73.5644L96.5145 84.2028L94.4709 91.5065L93.0353 95.9416L92.1197 101.811L91.2041 105.846L88.4574 108.598L82.8724 101.995L81.9568 99.7935L79.7594 95.2997L85.436 92.6401L91.6619 92.0898L94.5917 84.5696L96.9722 75.8571L97.5216 65.4939Z" fill="#00B2D9"/>
<path d="M44.8301 96.9669L41.426 125.592L84.2897 123.783L79.3382 109.729L71.0852 104.355L89.9644 104.665L90.067 96.8129L82.4329 95.1584L67.0622 93.9185L55.5076 93.4031L44.4694 97.0183" fill="#00B2D9"/>
<path opacity="0.1" d="M44.8301 96.9669L41.426 125.592L84.2897 123.783L79.3382 109.729L71.0852 104.355L89.9644 104.665L90.067 96.8129L82.4329 95.1584L67.0622 93.9185L55.5076 93.4031L44.4694 97.0183" fill="black"/>
<path d="M103.392 125.492C103.392 132.606 101.032 139.08 94.4856 138.372C86.2289 138.189 85.5807 132.606 85.5807 125.492C85.5807 118.379 89.5671 113.086 94.4856 113.086C99.4041 113.086 103.392 118.379 103.392 125.492Z" fill="#636780"/>
<path opacity="0.1" d="M103.443 125.505C103.443 120.003 101.054 115.582 97.6918 113.869C93.374 114.691 90.0559 119.665 90.0559 126.158C90.0559 131.987 90.4917 136.797 95.1941 138.435C101.242 138.649 103.443 132.374 103.443 125.505Z" fill="black"/>
<path d="M111.805 114.329L109.287 117.218L113.819 116.439L117.206 113.321L120.228 107.268L124.485 104.654L134.923 106.076L144.582 106.442L148.147 103.271L144.17 102.728L140.142 102.636L130.025 102.407L117.985 102.086L115.513 108.689L113.636 113.229L111.805 114.329Z" fill="#00B2D9"/>
<path d="M146.446 126.107C146.239 126.417 139.488 127.451 139.488 127.451L120.81 130.861L88.7321 131.325L84.9672 128.121L82.9896 128.473L82.909 128.488L56.4891 133.185L56.0588 133.125L48.8587 132.096L11.2523 126.727L11.6735 121.259L11.9225 118.031L12.4371 111.331L12.8033 109.573L16.1525 109.265L17.7163 109.122L42.1237 106.879L45.3154 106.585L47.1045 106.422L64.5389 104.038L89.9681 104.658L90.0707 96.8037L100.129 65.8057C102.347 66.1725 102.295 67.6655 102.295 67.6655L93.7311 96.8587L93.6268 114.788C111.435 116.589 112.01 112.703 114.826 114.012L118.232 103.112L148.148 103.267C149.343 104.716 146.446 126.107 146.446 126.107Z" fill="#00B2D9"/>
<path d="M72.2206 109.832L81.7115 130.241L84.9086 131.274L85.6832 127.967L82.1235 116.652L78.4612 110.091L72.2206 109.832Z" fill="#00B2D9"/>
<path opacity="0.15" d="M72.2206 109.832L81.7115 130.241L84.9086 131.274L85.6832 127.967L82.1235 116.652L78.4612 110.091L72.2206 109.832Z" fill="black"/>
<path d="M66.0423 151.837C75.5355 151.837 83.2313 143.093 83.2313 132.306C83.2313 121.52 75.5355 112.776 66.0423 112.776C56.5491 112.776 48.8533 121.52 48.8533 132.306C48.8533 143.093 56.5491 151.837 66.0423 151.837Z" fill="#636780"/>
<path opacity="0.1" d="M72.1748 113.996C63.1802 114.623 56.0607 123.108 56.0607 133.486C56.0607 141.852 60.6898 148.989 67.1959 151.769C76.1905 151.142 83.3101 142.657 83.3101 132.279C83.3101 123.913 78.6809 116.776 72.1748 113.996Z" fill="black"/>
<path d="M19.9686 98.1555L19.1171 102.178L16.5132 114.487L5.31934 113.401C5.31934 113.401 4.64914 111.336 6.40338 110.56C6.40338 110.56 6.97836 103.566 9.04756 101.364C9.26869 101.112 9.54691 100.918 9.85877 100.797L19.9686 98.1555Z" fill="#00B2D9"/>
<path opacity="0.1" d="M19.1171 102.178L16.5132 114.487L5.31934 113.401C5.31934 113.401 4.64914 111.336 6.40338 110.56C6.40338 110.56 6.97836 103.566 9.04757 101.364L19.1171 102.178Z" fill="white"/>
<path d="M45.1928 99.2432C46.6357 101.668 43.1364 124.04 43.1364 124.04L15.6361 119.493L16.6158 99.9109C17.1834 96.3984 19.2471 95.9857 19.2471 95.9857C28.9523 91.0773 51.2264 90.0428 51.2264 90.0428C71.5522 90.8169 90.067 96.811 90.067 96.811C66.9597 93.2472 45.1928 99.2432 45.1928 99.2432Z" fill="#00B2D9"/>
<path opacity="0.1" d="M43.1364 124.04L15.6361 119.493L16.6158 99.9109C17.1834 96.3984 19.2471 95.9857 19.2471 95.9857C19.2471 95.9857 39.3111 94.0726 45.1928 99.2432C46.6357 101.668 43.1364 124.04 43.1364 124.04Z" fill="black"/>
<path d="M40.2229 122.749L17.2346 118.869L18.0495 102.161C18.5238 99.1643 20.2469 98.8122 20.2469 98.8122C20.2469 98.8122 37.0239 97.1797 41.9405 101.589C43.1546 103.66 40.2229 122.749 40.2229 122.749Z" fill="#00B2D9"/>
<path opacity="0.1" d="M38.3315 114.74C40.0689 114.74 41.4774 112.172 41.4774 109.005C41.4774 105.837 40.0689 103.269 38.3315 103.269C36.594 103.269 35.1855 105.837 35.1855 109.005C35.1855 112.172 36.594 114.74 38.3315 114.74Z" fill="black"/>
<path d="M38.3315 114.586C40.0689 114.586 41.4774 112.018 41.4774 108.851C41.4774 105.683 40.0689 103.115 38.3315 103.115C36.594 103.115 35.1855 105.683 35.1855 108.851C35.1855 112.018 36.594 114.586 38.3315 114.586Z" fill="#DCE0ED"/>
<path d="M38.7416 104.614C38.7416 104.614 37.4598 104.819 38.1227 106.525C38.7855 108.231 38.8954 109.108 38.8954 109.108C38.8954 109.108 40.1772 109.781 40.1333 107.558C40.0893 105.335 38.7416 104.614 38.7416 104.614Z" fill="#F0F0F4"/>
<path opacity="0.1" d="M21.4646 112.092C23.0888 112.092 24.4055 109.692 24.4055 106.732C24.4055 103.772 23.0888 101.373 21.4646 101.373C19.8405 101.373 18.5238 103.772 18.5238 106.732C18.5238 109.692 19.8405 112.092 21.4646 112.092Z" fill="black"/>
<path d="M21.4646 111.936C23.0888 111.936 24.4055 109.536 24.4055 106.576C24.4055 103.616 23.0888 101.217 21.4646 101.217C19.8405 101.217 18.5238 103.616 18.5238 106.576C18.5238 109.536 19.8405 111.936 21.4646 111.936Z" fill="#DCE0ED"/>
<path d="M21.8767 102.339C21.8767 102.339 20.5949 102.546 21.2578 104.252C21.9207 105.958 22.0324 106.835 22.0324 106.835C22.0324 106.835 23.3142 107.506 23.2702 105.285C23.2263 103.064 21.8767 102.339 21.8767 102.339Z" fill="#F0F0F4"/>
<path opacity="0.1" d="M34.7131 104.148C34.508 106.266 33.4752 121.973 33.4752 121.973L31.7246 121.679L30.7523 121.52L29.4558 121.301L29.2984 121.276L24.1913 120.423L25.2003 103.763C25.2341 103.227 25.4726 102.726 25.8662 102.362C26.2598 101.999 26.7781 101.801 27.3134 101.811C27.3652 101.808 27.4172 101.808 27.469 101.811C27.8225 101.842 28.2015 101.879 28.5989 101.923C28.7655 101.941 28.9358 101.96 29.1061 101.982C29.5968 102.04 30.1041 102.112 30.6003 102.193C30.853 102.237 31.1021 102.282 31.3493 102.33C31.7649 102.413 32.1678 102.504 32.5395 102.609C32.7904 102.679 33.0303 102.754 33.25 102.836C34.1729 103.17 34.7753 103.601 34.7131 104.148Z" fill="black"/>
<path d="M27.3133 101.811L26.3135 120.52L25.7458 120.469L26.7365 101.868C26.9252 101.822 27.1193 101.803 27.3133 101.811Z" fill="#00B2D9"/>
<path d="M29.1061 101.98L28.1703 120.887H27.2932L28.5988 101.919C28.7655 101.939 28.9358 101.958 29.1061 101.98Z" fill="#00B2D9"/>
<path d="M31.3492 102.328L29.8733 121.301H29.3038V121.276L30.5985 102.2C30.853 102.235 31.102 102.281 31.3492 102.328Z" fill="#00B2D9"/>
<path d="M33.2482 102.834L31.7302 121.679V121.716L30.7505 121.611V121.52L32.5304 102.607C32.7904 102.677 33.0303 102.752 33.2482 102.834Z" fill="#00B2D9"/>
<path opacity="0.1" d="M12.2705 117.427C12.2705 117.427 10.3752 107.624 14.7077 107.119C19.0403 106.615 33.2775 107.669 32.8508 111.692C32.4242 115.714 31.9664 121.844 31.9664 121.844L29.0274 121.186C29.0274 121.186 31.2247 111.963 27.7895 111.615C24.3543 111.266 15.9126 110.296 15.9126 110.296C15.9126 110.296 13.6292 109.909 14.9458 118L12.2705 117.427Z" fill="black"/>
<path d="M12.2705 118.357C12.2705 118.357 10.3752 107.934 14.7077 107.429C19.0403 106.925 33.2775 107.98 32.8508 112.002C32.4242 116.024 31.9664 122.154 31.9664 122.154L29.0274 121.496C29.0274 121.496 31.2247 112.273 27.7895 111.925C24.3543 111.576 15.9071 110.615 15.9071 110.615C15.9071 110.615 13.6237 110.848 14.9403 118.948L12.2705 118.357Z" fill="#DCE0ED"/>
<path d="M88.732 131.325L84.9159 131.274C82.1307 118.985 77.5381 111.331 77.5381 111.331C75.9853 110.503 59.0673 110.615 59.0673 110.615C57.3131 110.925 56.8498 116.507 56.8498 116.507C56.8498 116.507 58.3458 117.791 56.901 118.625C56.2565 118.992 54.1323 119.064 51.6859 118.937C48.6499 118.779 45.1121 118.317 43.2846 117.747C39.9885 116.712 42.6126 114.801 42.6126 114.801C42.6126 114.801 43.0777 114.181 43.3871 110.766C43.5996 108.775 44.2419 106.854 45.2696 105.136C45.4124 104.9 45.5021 104.77 45.5021 104.77C45.6753 104.604 45.8803 104.476 46.1046 104.392C50.4774 102.558 71.911 104.304 71.911 104.304L79.8546 106.837C80.0743 106.925 80.4131 107.486 80.8306 108.383C83.3411 113.774 88.732 131.325 88.732 131.325Z" fill="#00B2D9"/>
<path opacity="0.1" d="M88.732 131.325L84.9159 131.274C82.1307 118.985 77.5381 111.331 77.5381 111.331C75.9853 110.503 59.0673 110.615 59.0673 110.615C57.3131 110.925 56.8498 116.507 56.8498 116.507C56.8498 116.507 58.3458 117.791 56.901 118.625C56.2565 118.992 54.1323 119.064 51.6859 118.937C48.6499 118.779 45.1121 118.317 43.2846 117.747C39.9885 116.712 42.6126 114.801 42.6126 114.801C42.6126 114.801 43.0777 114.181 43.3871 110.766C43.5996 108.775 44.2419 106.854 45.2696 105.136C45.4124 104.9 45.5021 104.77 45.5021 104.77C45.6753 104.604 45.8803 104.476 46.1046 104.392C50.4774 102.558 71.911 104.304 71.911 104.304L79.8546 106.837C80.0743 106.925 80.4131 107.486 80.8306 108.383C83.3411 113.774 88.732 131.325 88.732 131.325Z" fill="black"/>
<path d="M80.8306 108.381C73.506 105.527 53.2901 107.042 53.2901 107.042C51.144 105.208 47.1063 105.083 45.2697 105.133C45.4125 104.896 45.5022 104.766 45.5022 104.766C45.6754 104.6 45.8804 104.472 46.1047 104.388C50.4775 102.554 71.9111 104.3 71.9111 104.3L79.8546 106.833C80.0744 106.923 80.4131 107.484 80.8306 108.381Z" fill="#00B2D9"/>
<path d="M54.4767 107.816C54.0134 109.418 52.109 115.826 52.109 115.826C51.9098 116.851 51.7697 117.887 51.6897 118.928C48.6537 118.77 45.1159 118.308 43.2884 117.738C39.9923 116.703 42.6163 114.792 42.6163 114.792C42.6163 114.792 43.0815 114.172 43.3909 110.757C43.6181 108.62 44.3425 106.567 45.5059 104.762C45.6791 104.597 45.8841 104.468 46.1084 104.385C48.9723 105.067 54.8283 106.604 54.4767 107.816Z" fill="#00B2D9"/>
<path opacity="0.1" d="M54.4767 107.816C54.0134 109.418 52.109 115.826 52.109 115.826C51.9098 116.851 51.7697 117.887 51.6897 118.928C48.6537 118.77 45.1159 118.308 43.2884 117.738C39.9923 116.703 42.6163 114.792 42.6163 114.792C42.6163 114.792 43.0815 114.172 43.3909 110.757C43.6181 108.62 44.3425 106.567 45.5059 104.762C45.6791 104.597 45.8841 104.468 46.1084 104.385C48.9723 105.067 54.8283 106.604 54.4767 107.816Z" fill="white"/>
<path d="M59.1974 67.1282C57.1465 67.4382 56.2565 71.7008 56.2565 71.7008L50.6862 90.34L90.0669 96.8111L100.125 65.813C90.88 61.6256 59.1974 67.1282 59.1974 67.1282ZM90.8763 87.0458C90.8763 87.0458 90.6437 88.8286 89.1349 88.9845L63.6031 87.9849L58.366 87.7776L56.6099 87.7097H56.4854C56.4854 87.7097 54.5499 88.0582 54.8594 86.4258C54.8594 86.4258 56.9872 70.9268 60.741 69.7639C60.741 69.7639 61.1311 69.6814 61.8141 69.553C62.8871 69.3494 64.678 69.0302 66.7875 68.7386C67.7324 68.6084 68.7413 68.4836 69.7796 68.3718C72.616 68.082 75.6649 67.926 78.1882 68.17C78.1882 68.17 96.9887 66.4257 95.6355 70.6113C95.6391 70.6168 91.693 85.7673 90.88 87.0458H90.8763Z" fill="#00B2D9"/>
<path d="M56.6137 87.7098H56.4892C56.4892 87.7098 54.5536 88.0582 54.8631 86.4258C54.8631 86.4258 56.9909 70.9268 60.7448 69.7639C60.7448 69.7639 61.1348 69.6814 61.8178 69.553C60.4554 72.2162 56.0827 81.3341 56.6137 87.7098Z" fill="#00B2D9"/>
<path opacity="0.1" d="M56.6137 87.7098H56.4892C56.4892 87.7098 54.5536 88.0582 54.8631 86.4258C54.8631 86.4258 56.9909 70.9268 60.7448 69.7639C60.7448 69.7639 61.1348 69.6814 61.8178 69.553C60.4554 72.2162 56.0827 81.3341 56.6137 87.7098Z" fill="black"/>
<path opacity="0.1" d="M60.08 125.94C59.8559 126.358 59.5176 126.703 59.1047 126.935C58.6919 127.166 58.2216 127.276 57.7489 127.25L56.9597 127.215L49.5234 126.894L46.8426 126.778L44.3669 126.573L11.6735 121.254L11.9225 118.025L15.6819 118.565L17.2383 118.788L40.32 122.09L43.3579 122.538L44.832 122.748L51.0744 122.703L57.8313 122.653C58.1723 122.647 58.5111 122.709 58.8275 122.836C59.4078 123.067 59.8769 123.513 60.1368 124.082C60.2751 124.374 60.3421 124.695 60.3322 125.018C60.3223 125.341 60.2359 125.657 60.08 125.94Z" fill="black"/>
<path d="M60.0801 126.25C59.856 126.668 59.5177 127.013 59.1048 127.245C58.6919 127.476 58.2217 127.586 57.749 127.56L46.8427 127.088L44.367 126.881L9.50179 121.215L6.75506 120.769L5.26816 120.52C2.32916 119.9 3.20629 116.954 3.20629 116.954C3.41137 115.61 8.46719 114.37 10.1171 114.423C11.2267 114.458 11.3806 116.169 11.3622 117.29C11.3622 117.84 11.3036 118.246 11.3036 118.246L12.9352 118.48L44.8321 123.051L57.8333 122.956C58.3151 122.947 58.7891 123.078 59.1981 123.333C59.6072 123.589 59.9338 123.957 60.1387 124.394C60.2764 124.686 60.3429 125.006 60.3328 125.329C60.3226 125.652 60.236 125.967 60.0801 126.25Z" fill="#DCE0ED"/>
<path opacity="0.1" d="M7.74377 116.29C7.74377 116.29 9.13728 117.994 11.3035 118.253C11.3035 118.253 10.4264 116.342 7.74377 116.29Z" fill="black"/>
<path opacity="0.1" d="M7.38306 121.096C7.38306 121.096 2.79236 120.991 2.79236 123.48C2.79236 125.969 5.68192 126.375 5.68192 126.375L46.6888 134.277L58.3459 134.482C58.3459 134.482 62.4202 131.228 58.1902 129.781L46.4324 130.085L7.33179 122.904C7.33179 122.904 8.36273 121.509 7.38306 121.096Z" fill="black"/>
<path d="M58.3459 134.786L46.6888 134.581L10.2268 127.552L7.55885 127.037L5.68192 126.67C5.68192 126.67 2.79236 126.256 2.79236 123.776C2.79236 121.997 5.15821 121.547 6.49312 121.435C7.01866 121.393 7.38306 121.4 7.38306 121.4C8.36273 121.813 7.33179 123.207 7.33179 123.207L8.75459 123.469L46.4324 130.395L58.1921 130.085C62.4202 131.525 58.3459 134.786 58.3459 134.786Z" fill="#DCE0ED"/>
<path d="M10.8384 119.08L13.2628 117.994L14.5007 117.943L14.3982 128.379L10.582 127.605L8.98161 126.573L8.20886 122.233C8.20886 122.233 8.51833 120.425 8.67214 120.27C8.82596 120.116 10.8384 119.08 10.8384 119.08Z" fill="#DCE0ED"/>
<path opacity="0.1" d="M10.8384 119.08L13.2628 117.994L14.5007 117.943L14.3982 128.379L10.582 127.605L8.98161 126.573L8.20886 122.233C8.20886 122.233 8.51833 120.425 8.67214 120.27C8.82596 120.116 10.8384 119.08 10.8384 119.08Z" fill="black"/>
<path opacity="0.1" d="M10.2268 127.552L10.2708 127.605L7.58996 127.088L7.55884 127.037C6.14702 124.753 6.02433 122.904 6.4931 121.437C7.01865 121.395 7.38304 121.402 7.38304 121.402C8.36271 121.815 7.33177 123.209 7.33177 123.209L8.75458 123.471C8.65936 125.518 9.96497 127.229 10.2268 127.552Z" fill="black"/>
<path opacity="0.1" d="M14.1931 117.952C13.739 118.126 13.3197 118.309 12.9351 118.502C11.1992 119.339 10.128 120.278 9.50173 121.23L6.755 120.784C7.94342 118.312 10.7835 117.182 10.7835 117.182L11.3585 117.312L14.1931 117.952Z" fill="black"/>
<path d="M11.0912 117.169C11.0912 117.169 3.56148 120.166 7.89398 127.088L10.5766 127.605C10.5766 127.605 5.26628 121.509 14.4953 117.943L11.0912 117.169Z" fill="#DCE0ED"/>
<path d="M29.0474 120.527L31.8326 120.425L31.3675 131.635L26.8793 130.81L24.9713 129.88L24.0942 127.657L23.4752 125.436L24.9713 123.42L26.6742 122.284L29.0474 120.527Z" fill="#DCE0ED"/>
<path opacity="0.1" d="M29.0474 120.527L31.8326 120.425L31.3675 131.635L26.8793 130.81L24.9713 129.88L24.0942 127.657L23.4752 125.436L24.9713 123.42L26.6742 122.284L29.0474 120.527Z" fill="black"/>
<path d="M28.738 128.587C29.4783 128.587 30.0784 127.569 30.0784 126.314C30.0784 125.059 29.4783 124.042 28.738 124.042C27.9977 124.042 27.3976 125.059 27.3976 126.314C27.3976 127.569 27.9977 128.587 28.738 128.587Z" fill="#DCE0ED"/>
<path d="M19.0017 132.655C18.6153 130.68 17.1064 130.252 17.1064 130.252C17.1064 130.252 14.204 129.401 14.1271 132.626C14.1271 132.626 14.1656 134.603 15.4822 135.223L15.5591 137.424C15.5591 137.424 15.6745 139.478 14.5135 139.284C13.3526 139.089 13.5082 137.266 13.5082 137.266C13.5082 137.266 12.8893 135.329 11.3804 136.336C11.3804 136.336 11.0325 137.422 11.8071 137.965C12.2575 138.281 12.274 138.926 12.2099 139.41C12.1649 139.709 12.1847 140.015 12.2681 140.305C12.3516 140.596 12.4966 140.865 12.6933 141.094C12.916 141.361 13.2058 141.564 13.5329 141.682C13.86 141.799 14.2124 141.827 14.5538 141.762C15.1784 141.639 15.745 141.313 16.1652 140.834C16.8732 140.064 17.2712 139.058 17.2822 138.011L17.339 135.175C17.339 135.175 19.388 134.632 19.0017 132.655ZM16.6212 134.651C16.2952 134.651 15.9766 134.554 15.7056 134.372C15.4345 134.191 15.2233 133.933 15.0986 133.632C14.9738 133.33 14.9412 132.998 15.0048 132.678C15.0684 132.358 15.2253 132.063 15.4558 131.833C15.6863 131.602 15.98 131.444 16.2996 131.381C16.6193 131.317 16.9507 131.35 17.2518 131.475C17.553 131.6 17.8104 131.811 17.9915 132.083C18.1725 132.354 18.2692 132.673 18.2692 133C18.2673 133.436 18.093 133.854 17.7846 134.162C17.4761 134.47 17.0585 134.643 16.623 134.643L16.6212 134.651Z" fill="#DCE0ED"/>
<path d="M15.9473 129.399C15.8536 129.438 15.769 129.497 15.699 129.571C15.629 129.644 15.575 129.732 15.5406 129.827C15.5061 129.923 15.4919 130.025 15.4989 130.127C15.5059 130.228 15.5339 130.327 15.5811 130.417C15.8851 130.988 16.2495 131.725 16.2147 131.919C16.1561 132.248 16.8922 131.978 16.9874 131.899C17.0827 131.82 18.4194 131.899 18.4963 130.982C18.5732 130.065 17.7822 129.586 17.7822 129.586L18.0916 127.591L16.2605 127.437L16.2806 129.258L15.9473 129.399Z" fill="#636780"/>
<path opacity="0.1" d="M15.9473 129.399C15.8536 129.438 15.769 129.497 15.699 129.571C15.629 129.644 15.575 129.732 15.5406 129.827C15.5061 129.923 15.4919 130.025 15.4989 130.127C15.5059 130.228 15.5339 130.327 15.5811 130.417C15.8851 130.988 16.2495 131.725 16.2147 131.919C16.1561 132.248 16.8922 131.978 16.9874 131.899C17.0827 131.82 18.4194 131.899 18.4963 130.982C18.5732 130.065 17.7822 129.586 17.7822 129.586L18.0916 127.591L16.2605 127.437L16.2806 129.258L15.9473 129.399Z" fill="black"/>
<path opacity="0.1" d="M16.4491 129.363C16.4491 129.363 17.068 131.494 16.797 131.564C16.526 131.633 16.4491 129.363 16.4491 129.363Z" fill="black"/>
<path opacity="0.1" d="M17.145 128.858C17.145 128.858 17.764 130.989 17.4929 131.059C17.2219 131.129 17.145 128.858 17.145 128.858Z" fill="black"/>
<path d="M24.5611 122.438L23.5283 128.845C23.5283 128.845 22.2465 128.671 21.547 128.519C21.3928 128.497 21.2431 128.451 21.1039 128.381C21.0672 128.345 20.9922 128.348 20.8914 128.368C20.5472 128.438 19.9356 128.722 19.8166 128.482C19.808 128.464 19.7962 128.447 19.7818 128.433C19.6609 128.301 19.4265 128.396 19.1995 128.433C19.0758 128.465 18.9446 128.448 18.8332 128.385C18.6501 128.257 18.2564 128.462 17.9415 128.53C17.7419 128.574 17.5752 128.565 17.491 128.385C17.4607 128.326 17.4171 128.276 17.3636 128.238C17.3101 128.2 17.2484 128.175 17.1834 128.165C16.8867 128.09 16.471 128.141 16.2312 128.09C16.1359 128.071 16.0719 128.035 16.048 127.97C16.0004 127.831 15.7349 127.765 15.4511 127.71C15.105 127.644 14.7333 127.594 14.7058 127.455C14.7058 127.407 14.6637 127.387 14.6124 127.385C14.4206 127.414 14.2318 127.461 14.0484 127.525C13.8946 127.565 13.7646 127.565 13.728 127.455C13.6914 127.345 13.5101 127.345 13.3068 127.394C13.1438 127.435 12.9626 127.499 12.8234 127.532C12.6842 127.565 12.6073 127.565 12.5927 127.504C12.5414 127.299 11.8712 127.765 11.7174 127.35C11.5636 126.936 9.44308 124.188 12.1898 120.63C12.1898 120.63 12.9223 120.681 13.4936 120.784C13.683 120.809 13.8679 120.861 14.0429 120.938C14.2389 121.05 14.6582 121.026 15.0373 121.054C15.2279 121.056 15.4156 121.101 15.5866 121.186C15.6546 121.223 15.7091 121.281 15.7422 121.351C15.8283 121.547 16.0261 121.587 16.2422 121.576C16.5351 121.558 16.8611 121.448 16.9746 121.507H16.9856C17.2017 121.6 18.011 121.507 18.1484 121.644L18.1594 121.657C18.218 121.743 18.5256 121.657 18.8589 121.609C19.1097 121.576 19.3624 121.573 19.4998 121.71C19.6415 121.823 19.8214 121.876 20.0015 121.859C20.2209 121.843 20.4414 121.851 20.6589 121.884C20.7091 121.899 20.7541 121.928 20.7889 121.967C20.9189 122.13 21.2339 122.108 21.5214 122.123C21.6651 122.117 21.8075 122.153 21.9315 122.226C21.976 122.257 22.0266 122.278 22.0799 122.288C22.4754 122.38 23.3232 122.226 23.3232 122.226L24.5611 122.438Z" fill="#636780"/>
<path opacity="0.1" d="M13.3069 127.391C13.1439 127.431 12.9626 127.495 12.8234 127.528C10.7286 124.273 12.492 121.8 13.4845 120.784C13.6739 120.809 13.8588 120.861 14.0338 120.938C11.9262 123.37 12.904 126.408 13.3069 127.391Z" fill="black"/>
<path opacity="0.1" d="M14.6142 127.382C14.4224 127.411 14.2336 127.458 14.0502 127.521C12.2576 124.346 14.1015 121.971 15.0336 121.056C15.2242 121.058 15.4119 121.103 15.5829 121.188C13.5778 123.385 14.1729 126.12 14.6142 127.382Z" fill="black"/>
<path opacity="0.1" d="M16.2312 128.086C16.136 128.068 16.0719 128.031 16.0481 127.967C16.0005 127.827 15.735 127.761 15.4511 127.706C13.8782 124.83 15.2845 122.62 16.2385 121.578C16.5315 121.56 16.8575 121.45 16.971 121.509H16.982C14.77 124.005 15.8412 127.16 16.2312 128.086Z" fill="black"/>
<path opacity="0.1" d="M17.9434 128.526C17.7438 128.57 17.5771 128.561 17.4929 128.381C17.4626 128.323 17.419 128.273 17.3655 128.234C17.312 128.196 17.2503 128.171 17.1853 128.161C15.3541 124.957 17.2219 122.561 18.1539 121.65L18.1649 121.663C18.2235 121.749 18.5312 121.663 18.8644 121.615C16.2569 124.251 17.5973 127.75 17.9434 128.526Z" fill="black"/>
<path opacity="0.1" d="M19.7782 128.431C19.6573 128.299 19.4229 128.394 19.1959 128.431C17.2842 125.25 19.0402 122.847 20.0071 121.866C20.2265 121.85 20.447 121.859 20.6645 121.892C18.4323 124.297 19.3534 127.361 19.7782 128.431Z" fill="black"/>
<path opacity="0.1" d="M21.547 128.519C21.3928 128.497 21.2431 128.451 21.1038 128.381C21.0672 128.345 20.9921 128.348 20.8914 128.368C19.1976 125.463 20.549 123.22 21.5213 122.132C21.6651 122.126 21.8075 122.162 21.9315 122.235C21.976 122.266 22.0266 122.287 22.0798 122.297C20.2267 124.689 21.1624 127.572 21.547 128.519Z" fill="black"/>
<path d="M71.5503 145.638C76.1932 145.638 79.9571 140.086 79.9571 133.238C79.9571 126.39 76.1932 120.839 71.5503 120.839C66.9073 120.839 63.1434 126.39 63.1434 133.238C63.1434 140.086 66.9073 145.638 71.5503 145.638Z" fill="#636780"/>
<path opacity="0.1" d="M71.2664 143.468C74.6422 143.468 77.3788 138.968 77.3788 133.418C77.3788 127.868 74.6422 123.368 71.2664 123.368C67.8907 123.368 65.1541 127.868 65.1541 133.418C65.1541 138.968 67.8907 143.468 71.2664 143.468Z" fill="black"/>
<path d="M71.2664 143.158C74.6422 143.158 77.3788 138.658 77.3788 133.108C77.3788 127.558 74.6422 123.058 71.2664 123.058C67.8907 123.058 65.1541 127.558 65.1541 133.108C65.1541 138.658 67.8907 143.158 71.2664 143.158Z" fill="#F0F0F4"/>
<path d="M72.3743 127.605C72.7728 127.605 73.0958 127.05 73.0958 126.366C73.0958 125.681 72.7728 125.126 72.3743 125.126C71.9758 125.126 71.6528 125.681 71.6528 126.366C71.6528 127.05 71.9758 127.605 72.3743 127.605Z" fill="#636780"/>
<path d="M75.264 138.457C75.6624 138.457 75.9854 137.902 75.9854 137.217C75.9854 136.532 75.6624 135.977 75.264 135.977C74.8655 135.977 74.5425 136.532 74.5425 137.217C74.5425 137.902 74.8655 138.457 75.264 138.457Z" fill="#636780"/>
<path d="M67.4742 133.29C67.8726 133.29 68.1956 132.735 68.1956 132.05C68.1956 131.365 67.8726 130.81 67.4742 130.81C67.0757 130.81 66.7527 131.365 66.7527 132.05C66.7527 132.735 67.0757 133.29 67.4742 133.29Z" fill="#636780"/>
<path d="M69.5892 140.522C69.9876 140.522 70.3106 139.967 70.3106 139.282C70.3106 138.597 69.9876 138.042 69.5892 138.042C69.1907 138.042 68.8677 138.597 68.8677 139.282C68.8677 139.967 69.1907 140.522 69.5892 140.522Z" fill="#636780"/>
<path d="M133.086 110.296C133.086 110.296 139.129 126.417 138.812 127.424C138.812 127.424 141.365 128.974 141.984 128.587C142.603 128.2 142.062 121.066 142.062 121.066L140.902 114.79L139.585 111.07L133.086 110.296Z" fill="#00B2D9"/>
<path opacity="0.15" d="M133.086 110.296C133.086 110.296 139.129 126.417 138.812 127.424C138.812 127.424 141.365 128.974 141.984 128.587C142.603 128.2 142.062 121.066 142.062 121.066L140.902 114.79L139.585 111.07L133.086 110.296Z" fill="black"/>
<path d="M76.2948 131.74C76.6933 131.74 77.0163 131.185 77.0163 130.5C77.0163 129.815 76.6933 129.26 76.2948 129.26C75.8964 129.26 75.5734 129.815 75.5734 130.5C75.5734 131.185 75.8964 131.74 76.2948 131.74Z" fill="#636780"/>
<path d="M72.3744 136.441C73.5425 136.441 74.4894 135.122 74.4894 133.495C74.4894 131.868 73.5425 130.549 72.3744 130.549C71.2063 130.549 70.2594 131.868 70.2594 133.495C70.2594 135.122 71.2063 136.441 72.3744 136.441Z" fill="#636780"/>
<path d="M139.821 131.843C139.821 141.173 136.727 149.667 128.138 148.737C117.307 148.504 116.456 141.173 116.456 131.843C116.456 122.512 121.682 115.568 128.135 115.568C134.588 115.568 139.821 122.51 139.821 131.843Z" fill="#636780"/>
<path opacity="0.1" d="M139.885 131.857C139.885 124.634 136.75 118.834 132.339 116.593C126.675 117.671 122.323 124.197 122.323 132.71C122.323 140.357 122.896 146.65 129.063 148.814C136.998 149.1 139.885 140.88 139.885 131.857Z" fill="black"/>
<path opacity="0.1" d="M144.383 127.89C144.383 127.89 142.835 129.207 141.984 128.277C141.984 128.277 139.894 111.536 137.265 111.459L128.212 111.382C128.212 111.382 127.13 111.846 126.664 113.862L120.805 130.553L88.7321 131.015L86.282 125.88L112.821 125.957V125.946C112.964 125.43 117.399 109.57 120.378 107.604C120.479 107.535 120.59 107.481 120.706 107.444C120.706 107.444 131.77 105.977 135.406 106.978C135.406 106.978 139.197 107.831 140.125 108.996C140.25 109.126 141.685 110.746 142.13 115.415L144.383 127.89Z" fill="black"/>
<path d="M144.383 128.2C144.383 128.2 142.835 129.517 141.984 128.587C141.984 128.587 139.894 111.846 137.265 111.769L128.212 111.692C128.212 111.692 127.13 112.156 126.664 114.172L120.805 130.863L88.7321 131.325L86.282 126.189L112.821 126.267V126.256C112.964 125.74 117.399 109.88 120.378 107.913C120.479 107.845 120.59 107.791 120.706 107.754C120.706 107.754 131.77 106.287 135.406 107.288C135.406 107.288 139.197 108.141 140.125 109.306V109.315C140.25 109.445 141.685 111.065 142.13 115.735L144.383 128.2Z" fill="#00B2D9"/>
<path opacity="0.1" d="M144.383 128.2C144.383 128.2 142.835 129.517 141.984 128.587C141.984 128.587 139.894 111.846 137.265 111.769L128.212 111.692C128.212 111.692 127.13 112.156 126.664 114.172L120.805 130.863L88.7321 131.325L86.282 126.189L112.821 126.267V126.256C112.964 125.74 117.399 109.88 120.378 107.913C120.479 107.845 120.59 107.791 120.706 107.754C120.706 107.754 131.77 106.287 135.406 107.288C135.406 107.288 139.197 108.141 140.125 109.306V109.315C140.25 109.445 141.685 111.065 142.13 115.735L144.383 128.2Z" fill="black"/>
<path d="M124.731 109.909C123.956 111.376 117.304 129.517 117.304 129.517L112.815 126.261V126.25C112.958 125.735 117.393 109.858 120.376 107.908C122.317 108.231 125.256 108.909 124.731 109.909Z" fill="#00B2D9"/>
<path d="M116.066 101.617L112.429 113.55L93.4729 113L93.6267 114.783C93.6267 114.783 108.483 116.952 114.826 114.007L118.232 103.106L148.147 103.26L142.449 101.918L116.066 101.617Z" fill="#00B2D9"/>
<path opacity="0.1" d="M116.066 101.617L112.429 113.55L93.4729 113L93.6267 114.783C93.6267 114.783 108.483 116.952 114.826 114.007L118.232 103.106L148.147 103.26L142.449 101.918L116.066 101.617Z" fill="white"/>
<path opacity="0.1" d="M27.1907 120.423C27.1907 120.423 17.0296 125.538 24.5593 130.344L26.5736 130.808C26.5736 130.808 19.1977 125.489 31.5177 120.423H27.1907Z" fill="black"/>
<path d="M27.5001 120.423C27.5001 120.423 17.339 125.538 24.8688 130.344L26.883 130.808C26.883 130.808 19.5071 125.489 31.8271 120.423H27.5001Z" fill="#DCE0ED"/>
<path d="M132.621 142.848C135.74 142.848 138.268 138.51 138.268 133.159C138.268 127.809 135.74 123.471 132.621 123.471C129.502 123.471 126.974 127.809 126.974 133.159C126.974 138.51 129.502 142.848 132.621 142.848Z" fill="#636780"/>
<path opacity="0.1" d="M132.431 141.219C134.698 141.219 136.536 137.704 136.536 133.369C136.536 129.033 134.698 125.518 132.431 125.518C130.163 125.518 128.325 129.033 128.325 133.369C128.325 137.704 130.163 141.219 132.431 141.219Z" fill="black"/>
<path d="M132.431 140.909C134.698 140.909 136.536 137.394 136.536 133.059C136.536 128.723 134.698 125.208 132.431 125.208C130.163 125.208 128.325 128.723 128.325 133.059C128.325 137.394 130.163 140.909 132.431 140.909Z" fill="#F0F0F4"/>
<path d="M133.176 128.759C133.444 128.759 133.661 128.325 133.661 127.791C133.661 127.256 133.444 126.822 133.176 126.822C132.908 126.822 132.691 127.256 132.691 127.791C132.691 128.325 132.908 128.759 133.176 128.759Z" fill="#636780"/>
<path d="M135.117 137.237C135.385 137.237 135.602 136.803 135.602 136.268C135.602 135.734 135.385 135.3 135.117 135.3C134.849 135.3 134.632 135.734 134.632 136.268C134.632 136.803 134.849 137.237 135.117 137.237Z" fill="#636780"/>
<path d="M129.884 133.2C130.152 133.2 130.369 132.766 130.369 132.231C130.369 131.696 130.152 131.263 129.884 131.263C129.616 131.263 129.398 131.696 129.398 132.231C129.398 132.766 129.616 133.2 129.884 133.2Z" fill="#636780"/>
<path d="M131.305 138.851C131.573 138.851 131.79 138.417 131.79 137.883C131.79 137.348 131.573 136.914 131.305 136.914C131.037 136.914 130.819 137.348 130.819 137.883C130.819 138.417 131.037 138.851 131.305 138.851Z" fill="#636780"/>
<path d="M135.809 131.989C136.077 131.989 136.294 131.556 136.294 131.021C136.294 130.486 136.077 130.052 135.809 130.052C135.541 130.052 135.324 130.486 135.324 131.021C135.324 131.556 135.541 131.989 135.809 131.989Z" fill="#636780"/>
<path d="M133.176 135.661C133.961 135.661 134.597 134.632 134.597 133.361C134.597 132.091 133.961 131.061 133.176 131.061C132.391 131.061 131.755 132.091 131.755 133.361C131.755 134.632 132.391 135.661 133.176 135.661Z" fill="#636780"/>
<path opacity="0.1" d="M50.6074 90.0721C50.6074 90.0721 67.7855 90.6921 90.0669 96.8147L50.6074 90.0721Z" fill="black"/>
<path d="M132.561 59.9491C132.561 59.9491 131.629 60.0995 132.114 61.3321C132.599 62.5647 132.68 63.2011 132.68 63.2011C132.68 63.2011 133.614 63.6872 133.575 62.0786C133.537 60.47 132.561 59.9491 132.561 59.9491Z" fill="#DCE0ED"/>
<path d="M97.1553 68.1534L94.4214 81.7596L92.4858 85.8535L93.7676 88.238L96.6059 81.5431C96.6059 81.5431 99.7189 71.7301 99.7189 71.455C99.7189 71.1799 97.1553 68.1534 97.1553 68.1534Z" fill="#00B2D9"/>
</g>
<defs>
<linearGradient id="paint0_linear" x1="63.3742" y1="107.143" x2="63.3742" y2="81.4111" gradientUnits="userSpaceOnUse">
<stop stop-color="#808080" stop-opacity="0.25"/>
<stop offset="0.54" stop-color="#808080" stop-opacity="0.12"/>
<stop offset="1" stop-color="#808080" stop-opacity="0.1"/>
</linearGradient>
<clipPath id="clip0">
<rect width="202" height="153" fill="white" transform="translate(-0.00012207)"/>
</clipPath>
</defs>
</svg>
