<svg width="1440" height="637" viewBox="0 0 1440 637"  fill="none" xmlns="http://www.w3.org/2000/svg">
<path d="M335.719 264.976C335.719 264.976 322.928 275.078 298.33 292.587C273.732 310.096 242.246 348.482 242.246 348.482L188.129 401.684L134.553 478.928L113.976 518.997L106.137 537.696L90.4593 553.724C90.4593 553.724 70.8622 570.419 57.1442 578.433C49.8482 582.696 21.5766 599.058 1.2925 614.496C-16.5613 628.084 -27.1233 641.208 -27.1233 641.208C-27.1233 641.208 288.599 531.175 474.562 512.319C577.567 501.875 765.579 519.665 882.182 529.015C998.785 538.364 1086.97 543.039 1161.44 529.015C1191.37 523.379 1255.45 509.878 1306.86 489.613C1383.37 459.454 1444.62 416.821 1444.62 416.821L1426.9 410.438L1410.17 378.787L1369.17 328.001L1338.79 292.607L1306.86 260.935C1306.86 260.935 1272.16 209.797 1253.73 193.592C1235.29 177.386 1190.76 158.573 1176.98 146.451L1168.3 129.615L1157.3 118.84L1141.84 106.953L1112.04 93.2496L1088.43 71.6996C1088.43 71.6996 1072.27 51.5241 1045.82 71.6996C1037.08 78.3656 1031.19 86.0062 1024.26 93.2496C1010.22 107.929 998.785 120.977 998.785 120.977L966.45 98.9392L930.014 79.7808L906.4 60.2512L871.404 29.486C871.404 29.486 860.757 6.76738 845.396 2.33559C831.992 -1.53157 819.814 2.33556 811.942 7.72305C804.071 13.1105 736.184 40.8389 736.184 40.8389L671.24 79.7808L600.397 110.759L572.548 129.615C572.548 129.615 560.814 114.132 548.249 108.739C534.115 102.672 515.234 100.985 502.988 108.739C502.988 108.739 422.305 165.307 410.498 174.062C398.691 182.817 367.205 219.856 367.205 219.856L353.43 244.773L335.719 264.976Z" fill="#EAEAEC"/>
<path d="M327.651 532.806C332.898 497.541 342.031 454.477 347.706 438.558C353.608 422.003 376.317 378.131 378.567 372.991C386.811 354.162 392.561 351.809 400.677 334.738C408.794 317.666 424.913 305.888 429.206 297.752C438.393 280.34 441.708 276.813 455.748 264.469C469.788 252.125 488.181 227.922 492.442 223.496C496.702 219.071 507.166 213.066 514.719 201.654C523.422 188.505 527.838 173.192 528.751 171.005C538.521 147.611 535.362 134.125 540.16 124.754C543.36 118.506 541.381 112.36 534.225 106.315" stroke="#CECED1" stroke-linecap="round"/>
<path d="M109.077 523.417C126.829 500.569 136.172 492.278 146.027 483.637C170.385 462.28 198.284 448.652 211.1 439.134C236.362 420.373 269.264 407.223 282.216 398.39C313.454 377.087 347.713 365.664 357.375 358.831C370.776 349.354 378.985 338.309 391.441 327.984C397.403 323.042 407.674 315.793 422.256 306.235" stroke="#CECED1" stroke-linecap="round"/>
<path d="M573.513 159.225C584.084 168.722 589.349 181.789 589.309 198.427C589.29 206.215 580.919 221.151 587.907 254.415C589.953 264.158 606.962 274.698 614.423 299.362C617.712 310.235 605.22 337.443 609.112 361.938C610.441 370.304 620.274 380.067 638.612 391.227" stroke="#CECED1" stroke-linecap="round"/>
<path d="M-27.5523 618.847L-27.8614 619.286L-27.0035 619.66L-26.6944 619.221L-27.5523 618.847ZM179.816 431.354L179.415 431.13L179.415 431.13L179.816 431.354ZM276.883 339.713L277.16 340.055L277.212 340.016L277.256 339.969L276.883 339.713ZM354.353 277.624L354.146 277.236L354.146 277.236L354.353 277.624ZM413.444 218.446L413.1 218.161L413.1 218.161L413.444 218.446ZM483.201 163.571L483.018 163.17L483.018 163.17L483.201 163.571ZM700.522 247.586L700.987 247.271L700.987 247.271L700.522 247.586ZM718.249 281.889L718.687 281.541L718.687 281.541L718.249 281.889ZM757.1 310.573L757.519 310.774L758.164 309.908L757.746 309.707L757.1 310.573ZM-26.6944 619.221C-20.8614 610.934 -10.3947 602.743 2.45351 594.486C15.2905 586.235 30.4192 577.97 45.5207 569.509C60.6082 561.055 75.6633 552.408 88.2969 543.416C100.923 534.43 111.197 525.053 116.653 515.124L115.724 514.863C110.406 524.539 100.335 533.77 87.7644 542.717C75.2017 551.659 60.2097 560.272 45.1188 568.727C30.042 577.175 14.8611 585.468 1.97721 593.749C-10.8955 602.022 -21.5613 610.335 -27.5523 618.847L-26.6944 619.221ZM116.653 515.124C138.167 475.979 164.091 451.3 180.217 431.578L179.415 431.13C163.399 450.718 137.31 475.589 115.724 514.863L116.653 515.124ZM180.217 431.578C207.516 398.192 239.829 367.684 277.16 340.055L276.606 339.371C239.186 367.066 206.788 397.653 179.415 431.13L180.217 431.578ZM277.256 339.969C300.768 314.694 326.535 294.043 354.559 278.011L354.146 277.236C325.987 293.345 300.109 314.088 276.51 339.457L277.256 339.969ZM354.559 278.011C375.71 265.911 386.204 255.215 393.59 245.441C397.265 240.578 400.184 235.922 403.227 231.507C406.281 227.076 409.487 222.845 413.789 218.73L413.1 218.161C408.7 222.369 405.436 226.683 402.362 231.143C399.278 235.617 396.412 240.195 392.757 245.032C385.482 254.66 375.132 265.23 354.146 277.236L354.559 278.011ZM413.789 218.73C431.22 202.059 450.088 181.403 483.384 163.971L483.018 163.17C449.503 180.717 430.477 201.542 413.1 218.161L413.789 218.73ZM483.384 163.971C489.636 160.698 496.443 156.092 503.565 151.051C510.701 146.001 518.151 140.519 525.741 135.446C540.938 125.288 556.496 116.916 570.769 117.099L571.016 116.145C556.323 115.957 540.446 124.562 525.243 134.723C517.633 139.81 510.142 145.321 503.036 150.35C495.915 155.389 489.176 159.946 483.018 163.17L483.384 163.971ZM570.769 117.099C585.045 117.282 592.148 123.393 598.577 132.376C604.997 141.346 610.772 153.26 622.32 164.699L623.17 163.976C611.674 152.589 606.006 140.83 599.502 131.742C593.007 122.666 585.706 116.333 571.016 116.145L570.769 117.099ZM622.32 164.699C628.086 170.41 633.55 175.5 638.642 180.197C643.735 184.895 648.452 189.197 652.729 193.339C661.283 201.623 668.052 209.241 672.51 218.034L673.49 217.489C668.979 208.592 662.142 200.91 653.573 192.611C649.287 188.461 644.562 184.151 639.473 179.456C634.383 174.761 628.926 169.678 623.17 163.976L622.32 164.699ZM672.51 218.034C677.024 226.937 681.134 230.449 685.521 233.726C689.875 236.979 694.471 239.983 700.058 247.901L700.987 247.271C695.329 239.254 690.648 236.191 686.295 232.938C681.974 229.71 677.945 226.277 673.49 217.489L672.51 218.034ZM700.058 247.901C705.641 255.813 706.253 260.148 707.374 264.633C708.512 269.185 710.161 273.827 717.812 282.238L718.687 281.541C711.108 273.21 709.516 268.668 708.409 264.237C707.285 259.741 706.648 255.295 700.987 247.271L700.058 247.901ZM717.812 282.238C727.999 293.437 741.098 302.881 757.1 310.573L757.746 309.707C741.822 302.054 728.804 292.664 718.687 281.541L717.812 282.238Z" fill="#9597A2"/>
<path d="M877.574 133.056C882.177 138.782 884.779 143.044 885.378 145.842C885.755 147.599 886.783 153.958 895.88 161.164C898.536 163.268 905.671 165.097 913.315 169.118C915.112 170.064 917.456 172.012 920.347 174.964" stroke="#CECED1" stroke-linecap="round"/>
<path d="M859.259 0.766357C860.81 3.05938 861.993 5.63443 862.808 8.49153C863.087 9.46914 866.339 23.8232 865.551 38.9283C865.357 42.6404 863.234 56.8914 855.058 74.2128C853.17 78.2127 849.426 90.7999 853.072 105.76C854.067 109.845 862.437 122.805 861.631 138.685C861.219 146.806 852.078 162.93 848.824 181.75C847.765 187.876 848.734 198.266 844.897 212.428C842.849 219.986 837.749 233.814 829.596 253.914" stroke="#CECED1" stroke-linecap="round"/>
<path d="M573.205 118.301C588.472 110.205 598.858 104.725 604.364 101.861C607.041 100.468 627.616 93.8242 668.956 78.4961C710.297 63.168 703.59 58.694 735.419 46.8077C748.809 41.8072 768.244 31.6805 795.252 23.1781C822.259 14.6757 836.577 4.15828 853.074 6.29503C869.571 8.43177 867.588 22.7944 878.531 36.2731C889.474 49.7517 892.371 51.0957 902.623 61.7453C912.875 72.395 909.895 74.614 928.886 88.209C947.876 101.804 955.704 105.72 962.241 112.07C966.599 116.303 971.074 120.471 975.666 124.573" stroke="#9597A2" stroke-linecap="square"/>
<path d="M969.729 250.436C974.256 261.004 976.797 272.229 977.351 284.109C978.182 301.929 968.717 320.344 966.337 341.902C963.956 363.46 948.83 368.63 940.284 396.645C935.306 412.963 923.474 435.972 909.219 448.791C899.716 457.336 866.89 499.119 848.866 524.37" stroke="#CECED1" stroke-linecap="round"/>
<path d="M1129.24 62.877C1132.78 64.0495 1136.87 67.4445 1138.45 71.6296C1143.09 83.9142 1144.62 105.74 1152.1 113.764C1159.58 121.788 1175.97 128.641 1188.82 164.558C1192.36 174.45 1193.51 208.999 1199.29 236.306C1205.06 263.613 1213.63 252.512 1221.13 288.56C1222.37 294.542 1232.67 301.475 1234.49 311.548C1234.97 314.203 1233.37 318.238 1235.03 335.825C1235.68 342.674 1251.11 349.28 1253.03 364.286C1254.17 373.151 1288.11 377.897 1288.05 398.888C1288.03 406.604 1301.44 423.919 1302.03 435.715C1302.42 443.58 1310.14 449.861 1321.63 451.949" stroke="#CECED1" stroke-linecap="round"/>
<path d="M605.863 500.147C643.573 488.812 703.165 456.233 707.018 446.469C712.797 431.822 746.686 425.085 754.157 414.97C773.028 389.419 802.208 377.786 810.661 371.987C832.02 357.334 842.034 363.519 869.825 333.131C897.616 302.744 887.071 304.724 899.171 291.425C911.271 278.125 928.409 273.646 937 261.896C945.592 250.147 941.657 233.469 944.743 229.942C961.406 210.901 961.493 195.611 972.446 187.415C983.399 179.219 997.233 179.938 1004.54 167.019C1011.85 154.1 1011.45 143.403 1019.82 132.791C1025.39 125.716 1035.72 108.236 1050.79 80.3531" stroke="#CECED1" stroke-linecap="round"/>
<path d="M469.502 486.481L468.994 486.729L469.316 487.537L469.824 487.289L469.502 486.481ZM611.3 419.267L611.348 419.714L611.348 419.714L611.3 419.267ZM691.004 373.128L690.766 372.768L690.766 372.768L691.004 373.128ZM766.839 333.253L767.093 333.603L766.839 333.253ZM817.186 283.996L816.919 283.656L817.186 283.996ZM900.818 236.124L901.074 236.472L900.818 236.124ZM958.687 182.248L958.958 182.585L958.687 182.248ZM1014.93 153.145L1014.69 152.787L1014.93 153.145ZM1054.98 116.256L1054.7 115.921L1054.7 115.921L1054.98 116.256ZM1185.74 134.485L1186.18 134.138L1186.18 134.138L1185.74 134.485ZM1207.29 169.53L1207.71 169.164L1207.71 169.164L1207.29 169.53ZM1254.59 205.321L1254.16 205.68L1254.16 205.68L1254.59 205.321ZM1362.18 403.616L1361.65 403.778L1361.65 403.778L1362.18 403.616ZM1381.25 427.416L1381.71 427.536L1382.22 426.618L1381.76 426.499L1381.25 427.416ZM469.824 487.289C492.022 476.442 520.194 461.658 546.393 448.547C572.631 435.416 596.879 423.969 611.348 419.714L611.251 418.819C596.637 423.117 572.267 434.63 546.058 447.746C519.809 460.883 491.705 475.632 469.502 486.481L469.824 487.289ZM611.348 419.714C616.478 418.206 625.712 413.574 638.985 405.891C652.284 398.192 669.704 387.39 691.242 373.489L690.766 372.768C669.237 386.664 651.84 397.451 638.571 405.132C625.276 412.828 616.191 417.367 611.251 418.819L611.348 419.714ZM691.242 373.489C699.442 368.195 710.199 363.796 723.081 357.905C735.931 352.028 750.803 344.705 767.093 333.603L766.586 332.903C750.396 343.937 735.61 351.22 722.793 357.081C710.007 362.928 699.086 367.397 690.766 372.768L691.242 373.489ZM767.093 333.603C770.773 331.094 774.165 327.889 777.572 324.23C780.975 320.574 784.426 316.429 788.199 312.051C795.759 303.278 804.686 293.48 817.454 284.336L816.919 283.656C804.006 292.903 794.991 302.806 787.412 311.6C783.617 316.004 780.199 320.11 776.82 323.74C773.444 327.366 770.136 330.483 766.586 332.903L767.093 333.603ZM817.454 284.336C825.66 278.459 837.839 272.471 852.389 264.937C866.909 257.417 883.719 248.391 901.074 236.472L900.562 235.775C883.286 247.64 866.543 256.632 852.036 264.145C837.559 271.642 825.238 277.698 816.919 283.656L817.454 284.336ZM901.074 236.472C908.882 231.11 916.04 222.912 924.851 213.484C933.688 204.028 944.257 193.251 958.958 182.585L958.416 181.91C943.6 192.659 932.958 203.515 924.101 212.992C915.218 222.497 908.201 230.529 900.562 235.775L901.074 236.472ZM958.958 182.585C964.504 178.562 972.88 174.979 982.784 170.531C992.648 166.101 1003.94 160.845 1015.17 153.503L1014.69 152.787C1003.56 160.061 992.361 165.277 982.505 169.703C972.688 174.112 964.12 177.772 958.416 181.91L958.958 182.585ZM1015.17 153.503C1017.77 151.805 1020.34 149.542 1023.03 146.9C1025.72 144.258 1028.56 141.206 1031.69 137.929C1037.94 131.365 1045.39 123.838 1055.25 116.591L1054.7 115.921C1044.73 123.247 1037.22 130.849 1030.95 137.427C1027.81 140.722 1024.99 143.744 1022.32 146.364C1019.65 148.983 1017.16 151.168 1014.69 152.787L1015.17 153.503ZM1055.25 116.591C1058.92 113.901 1063.31 110.223 1068.09 106.198C1072.88 102.167 1078.06 97.7801 1083.3 93.6483C1088.54 89.5158 1093.84 85.6522 1098.85 82.6668C1103.87 79.6766 1108.56 77.5978 1112.61 76.9828L1112.68 76.0487C1108.38 76.7023 1103.5 78.889 1098.42 81.9177C1093.33 84.9511 1087.98 88.8597 1082.71 93.0089C1077.44 97.1588 1072.25 101.563 1067.47 105.589C1062.68 109.621 1058.32 113.266 1054.7 115.921L1055.25 116.591ZM1112.61 76.9828C1116.59 76.3775 1120.34 77.6282 1123.98 80.0824C1127.61 82.5336 1131.08 86.1432 1134.51 90.1456C1137.92 94.118 1141.35 98.5413 1144.8 102.473C1148.27 106.425 1151.84 109.977 1155.65 112.305L1156.38 111.483C1152.68 109.213 1149.16 105.726 1145.7 101.785C1142.23 97.8252 1138.88 93.5031 1135.42 89.4634C1131.97 85.4537 1128.46 81.7846 1124.74 79.2773C1121.03 76.773 1117.05 75.3854 1112.68 76.0487L1112.61 76.9828ZM1155.65 112.305C1159.4 114.609 1162.3 116.239 1164.74 117.621C1167.19 119.003 1169.16 120.131 1171.08 121.437C1174.92 124.042 1178.58 127.366 1185.29 134.832L1186.18 134.138C1179.46 126.66 1175.76 123.287 1171.85 120.633C1169.9 119.308 1167.9 118.166 1165.46 116.785C1163.02 115.403 1160.13 113.778 1156.38 111.483L1155.65 112.305ZM1185.29 134.832C1188.63 138.547 1190.38 141.394 1191.45 143.863C1192.52 146.342 1192.9 148.439 1193.51 150.73C1194.74 155.333 1196.8 160.41 1206.86 169.897L1207.71 169.164C1197.73 159.742 1195.74 154.768 1194.55 150.311C1193.96 148.073 1193.56 145.888 1192.46 143.349C1191.36 140.801 1189.56 137.895 1186.18 134.138L1185.29 134.832ZM1206.86 169.897C1216.91 179.376 1224.61 184.168 1231.86 188.671C1239.1 193.167 1245.89 197.369 1254.16 205.68L1255.03 204.961C1246.7 196.59 1239.85 192.352 1232.6 187.85C1225.36 183.356 1217.71 178.594 1207.71 169.164L1206.86 169.897ZM1254.16 205.68C1262.4 213.967 1267.73 226.176 1273.4 239.564C1279.07 252.929 1285.07 267.44 1294.67 280.214L1295.6 279.566C1286.06 266.867 1280.09 252.435 1274.41 239.054C1268.75 225.695 1263.38 213.356 1255.03 204.961L1254.16 205.68ZM1294.67 280.214C1304.22 292.938 1315.71 310.66 1325.45 327.045C1335.2 343.44 1343.18 358.462 1345.76 365.795L1346.78 365.325C1344.18 357.919 1336.17 342.843 1326.42 326.455C1316.67 310.059 1305.17 292.315 1295.6 279.566L1294.67 280.214ZM1345.76 365.795C1348.35 373.206 1351.7 377.503 1354.68 382.51C1357.66 387.514 1360.32 393.3 1361.65 403.778L1362.71 403.453C1361.37 392.866 1358.67 386.992 1355.65 381.92C1352.63 376.849 1349.35 372.652 1346.78 365.325L1345.76 365.795ZM1361.65 403.778C1362.54 410.851 1364.7 416.064 1368.01 419.86C1371.33 423.659 1375.79 426.018 1381.25 427.416L1381.76 426.499C1376.43 425.134 1372.11 422.844 1368.91 419.174C1365.7 415.501 1363.59 410.425 1362.71 403.453L1361.65 403.778Z" fill="#9597A2"/>
<path d="M472.83 513.724C288.962 527.116 -27.1233 641.909 -27.1233 641.909L-3.60678 711.456C-3.60678 711.456 312.886 597.927 504.938 583.235C696.989 568.542 942.933 621.3 1128.13 607.276C1313.32 593.252 1466.18 488.404 1466.18 488.404L1445.79 417.489C1445.79 417.489 1266.97 536.873 1076.09 537.639C885.201 538.404 656.699 500.331 472.83 513.724Z" fill="#BFC0C7" stroke="#9597A2" stroke-linejoin="round"/>
<path d="M-5.56677 674.726C-5.56677 674.726 308.164 560.633 490.664 547.322C673.163 534.011 899.963 571.852 1089.43 571.091C1278.89 570.331 1456.38 451.674 1456.38 451.674" stroke="white" stroke-opacity="0.5" stroke-dasharray="10 10"/>
<path d="M443.532 507.501L477.504 504.262L486.787 504.661L487.844 505.296L501.775 512.509L515.27 519.537L526.424 523.978L542.454 527.667L544.316 528.863L545.9 531.069L547.946 540.228L544.505 541.438L544.115 550.315L540.211 550.79L539.784 549.155L537.472 546.089L533.965 543.933L529.141 542.518L524.2 542.434L516.25 543.138L510.222 544.82L506.247 547.096L500.855 552.839L496.78 559.476L497.114 560.753L457.476 565.578L450.671 536.44L443.532 507.501Z" fill="#F4F5F6"/>
<path d="M496.831 559.523L501.37 552.144L505.425 547.803L508.236 545.668L512.528 544.013L518.328 542.938L526.867 542.267L530.72 542.932L533.845 543.922L536.868 545.557L539.13 548.286L539.507 549.136L538.629 549.48L534.526 546.527L528.79 544.142L520.917 543.36L514.424 544.151L509.661 545.785L504.934 548.89L501.819 552.827L500.802 558.565L497.118 560.621L496.831 559.523Z" fill="#BFC0C7"/>
<path d="M330.704 568.517L332.058 568.51L326.913 579.942L321.32 580.623L324.698 574.73L326.618 571.703L328.659 569.583L330.704 568.517Z" fill="#BFC0C7"/>
<path d="M366.236 572.283L368.389 574.445L370.579 576.893L367.659 575.799L366.236 572.283Z" fill="#BFC0C7"/>
<path d="M544.634 541.633L547.277 541.522L549.313 542.197L550.428 543.353L550.456 545.089L549.882 547.188L549.274 549.16L544.248 550.378L544.634 541.633Z" fill="#BFC0C7"/>
<path d="M443.393 506.675L498.803 501.143L492.928 502.965L487.063 504.68L482.728 504.47L478.393 504.259L443.6 507.467L443.393 506.675Z" fill="#BFC0C7"/>
<path d="M238.477 581.219L239.444 580.917L239.798 582.271L243.873 584.674L238.945 586.565L238.477 581.219Z" fill="#8F929D"/>
<path d="M235.588 581.281L239.108 579.93L239.342 580.824L238.589 581.205L238.765 583.951L238.702 586.674L235.988 586.661L235.588 581.281Z" fill="#BFC0C7"/>
<path d="M224.521 528.731L219.523 512.129L218.642 508.02L218.916 505.957L220.17 504.829L223.639 504.17L229.386 503.338L260.498 499.235L332.759 490.307L402.051 481.873L471.483 473.237L490.11 471.154L501.352 475.636L521.287 485.518L524.711 487.947L524.44 489.43L521.107 493.42L514.075 498.967L479.279 503.203L443.466 506.956L457.797 567.103L370.678 576.829L366.712 572.62L359.69 566.649L356.918 565.827L330.342 568.614L328.676 569.502L326.248 572.064L322.682 577.98L320.021 582.319L284.266 585.406L249.745 588.176L247.153 586.998L243.509 584.323L239.941 582.227L237.636 574.153L232.534 554.638L224.521 528.731Z" fill="#F4F5F6"/>
<path d="M464.691 481.417L466.748 491.656" stroke="#2A2E43" stroke-linecap="square"/>
<path d="M467.168 481.115L469.225 491.354" stroke="#2A2E43" stroke-linecap="square"/>
<path fill-rule="evenodd" clip-rule="evenodd" d="M445.729 483.619C460.004 481.882 474.279 480.144 488.554 478.407C488.706 478.388 490.846 479.409 494.975 481.469C497.836 482.907 499.409 483.781 499.693 484.092C500.119 484.558 500.458 484.858 500.456 485.847C500.454 486.865 499.381 487.736 497.908 487.916L448.164 493.971C446.422 494.183 444.759 493.394 444.45 492.209C444.444 492.188 444.439 492.166 444.434 492.145L443.121 486.085C442.869 484.919 444.024 483.827 445.729 483.619Z" stroke="#2A2E43"/>
<path fill-rule="evenodd" clip-rule="evenodd" d="M445.166 482.37L487.871 477.172C488.314 477.118 488.771 477.188 489.138 477.365L496.133 480.75C496.177 480.772 496.222 480.793 496.267 480.813C498.952 482.023 500.751 483.06 501.666 483.926C503.244 485.42 502.742 487.504 500.545 488.58C499.95 488.871 499.266 489.068 498.545 489.156L448.299 495.272C445.645 495.595 443.112 494.393 442.64 492.587C442.632 492.56 442.626 492.533 442.62 492.506L441.196 486.143C440.797 484.362 442.559 482.688 445.166 482.37Z" stroke="#2A2E43"/>
<path d="M238.874 586.679L243.707 584.72" stroke="#2A2E43" stroke-linecap="round"/>
<path d="M235.829 581.251L239.117 579.902" stroke="#2A2E43" stroke-linecap="square"/>
<path d="M238.598 581.178L239.326 580.852" stroke="#2A2E43" stroke-linecap="square"/>
<path d="M238.42 581.182L235.83 581.248C235.745 581.25 235.68 581.298 235.683 581.355L235.966 586.645C235.969 586.702 236.04 586.747 236.124 586.745L238.715 586.679C238.799 586.677 238.865 586.628 238.862 586.571L238.578 581.281C238.575 581.224 238.505 581.18 238.42 581.182Z" stroke="#2A2E43"/>
<path fill-rule="evenodd" clip-rule="evenodd" d="M222.816 523.28L523.373 486.695L525.121 488.052C525.102 488.522 524.99 488.926 524.785 489.263C524.579 489.599 524.182 490.031 523.594 490.556C522.655 491.631 521.865 492.49 521.223 493.135C520.581 493.779 519.57 494.727 518.19 495.98C517.275 496.926 516.542 497.595 515.994 497.985C515.445 498.376 514.772 498.708 513.975 498.981C513.554 499.205 512.256 499.477 510.082 499.796C507.907 500.115 504.658 500.51 500.335 500.982L443.449 506.816L451.354 539.264L435.119 541.241L430.612 524.003C431.54 523.573 432.126 523.196 432.372 522.871C432.618 522.546 432.755 521.967 432.782 521.135L427.544 501.099C426.688 500.601 426.067 500.24 425.68 500.015C425.294 499.791 424.631 499.665 423.692 499.638L343.732 509.371C342.728 509.631 342.086 509.916 341.806 510.225C341.526 510.534 341.177 511.013 340.76 511.663C342.861 520.531 344.607 527.21 345.998 531.699C346.118 532.086 346.645 532.919 347.879 533.453C348.266 533.62 349.019 533.763 350.14 533.881L354.241 551.085L235.366 565.555L222.816 523.28Z" fill="#FAA05D"/>
<path d="M431.667 524.284L348.638 534.391L353.045 551.249L436.075 541.143L431.667 524.284Z" fill="#FAA05D"/>
<path fill-rule="evenodd" clip-rule="evenodd" d="M220.173 504.926C223.028 503.468 297.695 494.721 368.472 486.004C430.741 478.335 488.857 470.944 490.185 471.189C494.48 471.979 524.734 486.573 525.121 488.052C525.507 489.531 516.747 497.894 514.128 499.023C512.381 499.775 488.821 502.373 443.449 506.816L457.909 567.102C410.347 572.337 381.287 575.597 370.731 576.882C368.48 575.011 362.784 567.363 358.764 566.264C351.449 564.262 331.794 568.402 331.459 568.437C325.934 569.007 323.643 578.367 319.925 582.272C295.967 584.547 272.551 586.504 249.676 588.145C245.774 586.665 245.384 585.174 239.908 582.265C229.556 542.672 222.077 521.558 220.166 514.382C219.135 510.51 217.318 506.384 220.173 504.926Z" stroke="#2A2E43"/>
<path d="M487.054 504.734L499.313 501.107" stroke="#2A2E43" stroke-linecap="square"/>
<path fill-rule="evenodd" clip-rule="evenodd" d="M544.456 541.564C546.114 541.389 547.35 541.431 548.162 541.692C549.38 542.082 550.076 542.717 550.474 543.471C550.74 543.974 550.582 545.12 550 546.912C549.622 547.97 549.372 548.682 549.25 549.048C549.128 549.414 547.434 549.863 544.168 550.396L544.456 541.564Z" stroke="#2A2E43"/>
<path d="M538.356 549.619L539.552 549.157" stroke="#2A2E43" stroke-linecap="square"/>
<path d="M321.343 580.647L327.198 579.934" stroke="#2A2E43" stroke-linecap="square"/>
<path fill-rule="evenodd" clip-rule="evenodd" d="M449.337 530.831L521.294 522.072L531.683 525.367C535.778 526.108 538.75 526.722 540.598 527.208C542.446 527.694 543.498 528.11 543.753 528.457L451.465 539.691L449.337 530.831Z" fill="#FAA05D"/>
<path fill-rule="evenodd" clip-rule="evenodd" d="M443.805 507.522C464.272 505.561 475.575 504.511 477.714 504.374C479.854 504.237 482.861 504.37 486.737 504.772L514.338 519.016C519.616 521.495 524.195 523.258 528.076 524.304C531.957 525.35 535.858 526.239 539.779 526.972C542.284 527.465 544.015 528.315 544.972 529.522C545.93 530.728 546.873 534.338 547.803 540.351L544.456 541.564L544.168 550.396L540.096 550.892C539.8 549.355 539.134 547.983 538.098 546.774C536.545 544.96 531.587 541.808 523.942 542.467C520.776 542.74 514.664 542.999 509.967 544.956C507.104 546.15 506.27 546.794 502.946 550.401C500.73 552.805 499.02 555.384 497.817 558.138L496.928 559.566L457.332 564.386L443.805 507.522Z" stroke="#2A2E43"/>
<path fill-rule="evenodd" clip-rule="evenodd" d="M444.599 510.941C467.286 508.717 479.449 507.552 481.087 507.448C482.725 507.343 484.355 507.624 485.978 508.293C496.586 513.418 503.438 516.857 506.533 518.612C511.176 521.244 512.225 521.734 514.938 524.711C517.652 527.687 517.744 529.161 518.384 531.612C519.025 534.063 518.736 539.238 518.736 539.238C518.736 539.238 513.321 539.806 508.976 541.338C504.631 542.871 504.028 542.923 501.01 545.49C497.993 548.057 497.864 549.998 496.707 551.774C495.549 553.551 494.033 556.966 493.561 557.638C493.246 558.086 480.944 559.471 456.654 561.793L444.599 510.941Z" stroke="#2A2E43"/>
<path fill-rule="evenodd" clip-rule="evenodd" d="M493.114 513.273C499.922 517.179 503.624 519.377 504.218 519.866C505.109 520.599 504.659 521.555 503.367 521.713C502.075 521.87 468.695 526.052 465.902 526.273C463.11 526.494 462.928 525.799 462.33 524.965C461.732 524.13 455.985 514.448 455.609 513.496C455.233 512.545 455.136 511.687 456.976 511.418C458.816 511.149 477.013 509.024 481.421 508.913C484.36 508.839 488.258 510.292 493.114 513.273Z" stroke="#2A2E43"/>
<path d="M497.045 560.577L496.955 559.639" stroke="#2A2E43" stroke-linecap="square"/>
<path d="M457.597 565.537L497.225 560.714L500.809 558.591" stroke="#2A2E43" stroke-linecap="square"/>
<path d="M450.872 510.482C454.164 519.009 456.907 527.473 459.103 535.872C461.299 544.272 462.958 552.649 464.081 561.005" stroke="#2A2E43" stroke-linecap="square"/>
<path fill-rule="evenodd" clip-rule="evenodd" d="M487.745 505.311C487.357 505.61 487.134 505.988 487.076 506.444C487.187 506.871 511.698 519.108 512.467 519.463C512.98 519.7 513.895 519.685 515.212 519.419L502.413 512.862L487.745 505.311Z" stroke="#2A2E43" stroke-linecap="square"/>
<path d="M370.625 576.861L367.606 575.832" stroke="#2A2E43" stroke-linecap="round"/>
<ellipse rx="12.138" ry="8.36916" transform="matrix(0.992673 -0.120832 0.252941 0.967482 347.307 577.803)" fill="#F4F5F6"/>
<path fill-rule="evenodd" clip-rule="evenodd" d="M344.383 566.41C348.162 565.95 351.752 565.627 354.926 565.846C355.553 565.89 356.109 565.86 356.906 566.015C357.742 566.178 358.811 566.525 359.103 566.49C362.081 568.212 366.44 571.373 367.473 575.321C369.45 582.883 362.044 590.109 350.933 591.461C339.821 592.814 329.211 587.781 327.234 580.219C326.049 575.686 327.062 572.568 332.392 568.276C333.71 568.116 339.934 566.952 344.383 566.41ZM345.217 569.597C338.583 570.404 334.162 574.718 335.342 579.232C336.522 583.747 342.857 586.751 349.49 585.944C356.124 585.137 360.545 580.822 359.365 576.308C358.185 571.794 351.85 568.789 345.217 569.597Z" fill="#555869" stroke="#555869"/>
<ellipse rx="12.138" ry="8.36915" transform="matrix(0.992673 -0.120832 0.252941 0.967482 521.383 557.141)" fill="#F4F5F6"/>
<path fill-rule="evenodd" clip-rule="evenodd" d="M517.773 543.48C528.884 542.127 539.494 547.16 541.471 554.722C543.448 562.283 536.043 569.509 524.931 570.861C513.82 572.214 503.209 567.181 501.233 559.62C499.256 552.058 506.661 544.832 517.773 543.48ZM519.215 548.997C512.581 549.804 508.16 554.118 509.34 558.633C510.521 563.147 516.855 566.152 523.489 565.344C530.123 564.537 534.544 560.223 533.363 555.708C532.183 551.194 525.849 548.189 519.215 548.997Z" fill="#555869" stroke="#555869"/>
<path d="M461.897 531.911C463.138 531.725 464.188 531.58 465.047 531.475C465.906 531.37 467.384 531.208 469.479 530.988" stroke="#2A2E43" stroke-linecap="round"/>
<path d="M461.807 532.16C462.035 532.132 462.193 532.007 462.16 531.88C462.127 531.753 461.915 531.672 461.687 531.7C461.459 531.728 461.301 531.853 461.334 531.98C461.367 532.107 461.579 532.187 461.807 532.16Z" fill="#2A2E43"/>
<path d="M469.643 530.573L468.817 530.674C468.692 530.689 468.609 530.77 468.632 530.854L468.725 531.212C468.747 531.297 468.866 531.353 468.99 531.338L469.816 531.237C469.941 531.222 470.023 531.141 470.001 531.057L469.908 530.699C469.886 530.614 469.767 530.558 469.643 530.573Z" stroke="#2A2E43"/>
<path d="M462.532 531.228L461.331 531.374C460.958 531.42 460.709 531.662 460.775 531.916L460.882 532.325C460.949 532.579 461.305 532.748 461.678 532.702L462.879 532.556C463.252 532.511 463.501 532.268 463.435 532.014L463.328 531.605C463.261 531.351 462.905 531.182 462.532 531.228Z" stroke="#2A2E43"/>
<path d="M462.882 535.086C463.317 535.033 463.607 534.75 463.53 534.454C463.452 534.157 463.037 533.96 462.601 534.013C462.166 534.066 461.876 534.349 461.953 534.645C462.031 534.942 462.446 535.139 462.882 535.086Z" stroke="#2A2E43"/>
<path d="M462.762 534.626C462.824 534.619 462.865 534.578 462.854 534.536C462.843 534.493 462.784 534.465 462.722 534.473C462.659 534.48 462.618 534.521 462.629 534.563C462.64 534.606 462.699 534.634 462.762 534.626Z" fill="#2A2E43" stroke="#2A2E43"/>
<path fill-rule="evenodd" clip-rule="evenodd" d="M346.61 510.338L421.382 501.237C423.663 500.959 425.84 501.992 426.246 503.544L430.6 520.198C431.006 521.749 429.486 523.232 427.205 523.51L352.434 532.611C350.153 532.889 347.976 531.856 347.57 530.304L343.216 513.65C342.81 512.099 344.33 510.616 346.61 510.338ZM382.12 506.016L387.943 528.289L382.12 506.016ZM383.996 505.787L389.82 528.061L383.996 505.787ZM344.4 509.29L422.925 499.731C425.206 499.454 427.383 500.486 427.789 502.038L432.811 521.246C433.216 522.798 431.697 524.281 429.416 524.559L350.891 534.117C348.61 534.395 346.433 533.362 346.027 531.81L341.005 512.602C340.6 511.05 342.119 509.567 344.4 509.29Z" stroke="#2A2E43"/>

</svg>
