<svg width="22" height="22" viewBox="0 0 22 22" fill="none" xmlns="http://www.w3.org/2000/svg">
<path d="M19.2499 5.49999H14.6666V3.96916C14.6451 3.38233 14.3918 2.82796 13.9622 2.42759C13.5326 2.02722 12.9618 1.81352 12.3749 1.83333H9.62492C9.03803 1.81352 8.46723 2.02722 8.03765 2.42759C7.60806 2.82796 7.35476 3.38233 7.33325 3.96916V5.49999H2.74992C2.5068 5.49999 2.27365 5.59657 2.10174 5.76848C1.92983 5.94039 1.83325 6.17354 1.83325 6.41666C1.83325 6.65977 1.92983 6.89293 2.10174 7.06484C2.27365 7.23675 2.5068 7.33332 2.74992 7.33332H3.66659V17.4167C3.66659 18.146 3.95632 18.8455 4.47204 19.3612C4.98777 19.8769 5.68724 20.1667 6.41659 20.1667H15.5833C16.3126 20.1667 17.0121 19.8769 17.5278 19.3612C18.0435 18.8455 18.3333 18.146 18.3333 17.4167V7.33332H19.2499C19.493 7.33332 19.7262 7.23675 19.8981 7.06484C20.07 6.89293 20.1666 6.65977 20.1666 6.41666C20.1666 6.17354 20.07 5.94039 19.8981 5.76848C19.7262 5.59657 19.493 5.49999 19.2499 5.49999ZM9.16659 3.96916C9.16659 3.82249 9.35909 3.66666 9.62492 3.66666H12.3749C12.6408 3.66666 12.8333 3.82249 12.8333 3.96916V5.49999H9.16659V3.96916ZM16.4999 17.4167C16.4999 17.6598 16.4033 17.8929 16.2314 18.0648C16.0595 18.2367 15.8264 18.3333 15.5833 18.3333H6.41659C6.17347 18.3333 5.94031 18.2367 5.7684 18.0648C5.5965 17.8929 5.49992 17.6598 5.49992 17.4167V7.33332H16.4999V17.4167Z" fill="#00B2D9"/>
<path d="M8.24992 15.5833C8.49303 15.5833 8.72619 15.4868 8.8981 15.3148C9.07001 15.1429 9.16658 14.9098 9.16658 14.6667V11C9.16658 10.7569 9.07001 10.5237 8.8981 10.3518C8.72619 10.1799 8.49303 10.0833 8.24992 10.0833C8.0068 10.0833 7.77365 10.1799 7.60174 10.3518C7.42983 10.5237 7.33325 10.7569 7.33325 11V14.6667C7.33325 14.9098 7.42983 15.1429 7.60174 15.3148C7.77365 15.4868 8.0068 15.5833 8.24992 15.5833Z" fill="#00B2D9"/>
<path d="M13.7499 15.5833C13.993 15.5833 14.2262 15.4868 14.3981 15.3148C14.57 15.1429 14.6666 14.9098 14.6666 14.6667V11C14.6666 10.7569 14.57 10.5237 14.3981 10.3518C14.2262 10.1799 13.993 10.0833 13.7499 10.0833C13.5068 10.0833 13.2736 10.1799 13.1017 10.3518C12.9298 10.5237 12.8333 10.7569 12.8333 11V14.6667C12.8333 14.9098 12.9298 15.1429 13.1017 15.3148C13.2736 15.4868 13.5068 15.5833 13.7499 15.5833Z" fill="#00B2D9"/>
</svg>
