<svg width="584" height="311" viewBox="0 0 584 311" fill="none" xmlns="http://www.w3.org/2000/svg">
<g clip-path="url(#clip0)">
<path opacity="0.1" d="M292 311C453.267 311 584 270.234 584 219.946C584 169.659 453.267 128.893 292 128.893C130.733 128.893 0 169.659 0 219.946C0 270.234 130.733 311 292 311Z" fill="#00B2D9"/>
<g opacity="0.8">
<path opacity="0.8" d="M212.207 18.5388C217.157 25.4771 220.955 45.6836 222.013 51.7725L230.862 51.5921C230.404 46.361 220.11 25.0835 217.249 19.2453C215.656 18.9958 213.957 18.7521 212.207 18.5388Z" fill="#65617D"/>
<path opacity="0.8" d="M101.771 14.0246L101.667 19.543L105.586 19.617L105.69 14.0986L101.771 14.0246Z" fill="#DCE0ED"/>
<path opacity="0.1" d="M101.771 14.0247L101.737 15.8214C102.012 15.9057 102.299 15.9498 102.587 15.9524L105.655 15.9842L105.69 14.0986L101.771 14.0247Z" fill="black"/>
<path opacity="0.8" d="M107.611 0.07063L103.91 0.000775944C103.026 -0.0157381 102.158 0.231674 101.416 0.711366C100.673 1.19106 100.091 1.8812 99.7434 2.6935C98.6091 5.33946 97.6118 9.56216 99.9429 13.8363C100.203 14.3138 100.586 14.7133 101.053 14.9935C101.519 15.2737 102.052 15.4245 102.596 15.4303L107.32 15.4791L107.611 0.07063Z" fill="#DCE0ED"/>
<path opacity="0.8" d="M111.428 7.84969C111.508 3.59476 109.799 0.111968 107.611 0.0706529C105.422 0.0293375 103.583 3.44514 103.502 7.70007C103.422 11.955 105.131 15.4378 107.32 15.4791C109.508 15.5204 111.348 12.1046 111.428 7.84969Z" fill="#F0F0F4"/>
<path opacity="0.8" d="M136.587 14.7472L136.495 19.5786L140.415 19.6526L140.506 14.8211L136.587 14.7472Z" fill="#DCE0ED"/>
<path opacity="0.1" d="M136.587 14.7471L136.558 16.2827C136.833 16.367 137.119 16.4111 137.407 16.4137L140.475 16.4455L140.506 14.8211L136.587 14.7471Z" fill="black"/>
<path opacity="0.8" d="M142.427 0.793286L138.726 0.723432C137.842 0.706919 136.974 0.954337 136.231 1.43403C135.489 1.91372 134.907 2.60387 134.559 3.41616C133.425 6.06212 132.428 10.2848 134.759 14.559C135.019 15.0365 135.402 15.4359 135.869 15.7161C136.335 15.9963 136.868 16.1472 137.412 16.153L142.135 16.2017L142.427 0.793286Z" fill="#DCE0ED"/>
<path opacity="0.8" d="M146.243 8.57209C146.324 4.31717 144.615 0.834388 142.426 0.793079C140.237 0.751771 138.398 4.16758 138.317 8.4225C138.237 12.6774 139.946 16.1602 142.135 16.2015C144.323 16.2428 146.163 12.827 146.243 8.57209Z" fill="#F0F0F4"/>
<path opacity="0.8" d="M141.385 3.59058C141.385 3.59058 142.842 3.85194 142.045 5.76622C141.624 6.69588 141.311 7.67081 141.113 8.67183C141.113 8.67183 139.637 9.40399 139.743 6.89203C139.849 4.38007 141.385 3.59058 141.385 3.59058Z" fill="#DCE0ED"/>
<path opacity="0.8" d="M310.96 116.923C311.224 102.933 301.086 91.3953 288.314 91.1543C275.543 90.9132 264.976 102.06 264.712 116.05C264.447 130.041 274.586 141.578 287.357 141.819C300.128 142.06 310.696 130.914 310.96 116.923Z" fill="#636780"/>
<path opacity="0.1" d="M279.62 92.5708C291.706 93.6127 301.083 104.801 300.829 118.263C300.624 129.113 294.22 138.252 285.399 141.695C273.313 140.653 263.936 129.465 264.19 116.003C264.395 105.153 270.798 96.0143 279.62 92.5708Z" fill="black"/>
<path opacity="0.8" d="M126.663 58.0584C126.919 44.5484 118.722 33.4377 108.356 33.2421C97.9901 33.0464 89.3798 43.8398 89.1245 57.3498C88.8693 70.8597 97.0657 81.9704 107.432 82.1661C117.798 82.3618 126.408 71.5684 126.663 58.0584Z" fill="#636780"/>
<path opacity="0.1" d="M113.583 34.3657C121.311 37.4944 126.818 46.9805 126.608 58.0909C126.383 69.9639 119.706 79.7374 111.055 81.799C103.326 78.6704 97.8199 69.1843 98.0298 58.0739C98.2542 46.2009 104.932 36.4274 113.583 34.3657Z" fill="black"/>
<path opacity="0.8" d="M178.498 53.8119L178.317 44.9259C178.317 44.9259 180.132 41.1284 181.88 40.813C183.629 40.4977 187.639 40.3557 187.639 40.3557C187.639 40.3557 190.534 53.1682 188.371 56.9591C186.208 60.75 178.498 53.8119 178.498 53.8119Z" fill="#65617D"/>
<path opacity="0.1" d="M178.498 53.8119L178.317 44.9259C178.317 44.9259 180.132 41.1284 181.88 40.813C183.629 40.4977 187.639 40.3557 187.639 40.3557C187.639 40.3557 190.534 53.1682 188.371 56.9591C186.208 60.75 178.498 53.8119 178.498 53.8119Z" fill="black"/>
<path opacity="0.8" d="M210.655 53.4609C210.655 53.4609 211.967 41.169 205.201 40.8197C204.33 40.7747 203.459 40.7373 202.593 40.637C197.909 40.0943 185.132 38.8659 186.61 41.8167C186.61 41.8167 189.456 52.5818 187.314 55.241L210.655 53.4609Z" fill="#65617D"/>
<path opacity="0.8" d="M114.286 74.4797L105.201 74.5694C105.201 74.5694 103.949 57.8255 103.451 56.5099C102.953 55.1942 102.81 48.9214 104.526 48.0394C106.242 47.1574 111.946 46.1548 111.946 46.1548L115.946 55.766L116.11 64.3905L114.286 74.4797Z" fill="#65617D"/>
<path opacity="0.1" d="M114.286 74.4797L105.201 74.5694C105.201 74.5694 103.949 57.8255 103.451 56.5099C102.953 55.1942 102.81 48.9214 104.526 48.0394C106.242 47.1574 111.946 46.1548 111.946 46.1548L115.946 55.766L116.11 64.3905L114.286 74.4797Z" fill="black"/>
<path opacity="0.8" d="M136.759 47.1457L136.834 45.285C136.84 45.1383 136.816 44.992 136.763 44.855C136.71 44.718 136.63 44.5933 136.527 44.4886C136.424 44.3839 136.301 44.3014 136.165 44.2462C136.028 44.191 135.882 44.1643 135.736 44.1678C131.232 44.2727 114.842 44.7475 111.946 46.1548C111.946 46.1548 114.641 69.5225 111.074 75.0068L111.897 93.702L152.062 91.4558L136.759 47.1457Z" fill="#65617D"/>
<path opacity="0.1" d="M140.45 17.7695C139.339 17.6389 138.017 17.4937 136.538 17.3508L136.495 19.5785L140.415 19.6525L140.45 17.7695Z" fill="black"/>
<path opacity="0.1" d="M101.672 19.2608L101.667 19.5428L105.586 19.6168L105.618 17.9219C104.252 18.2022 102.926 18.652 101.672 19.2608Z" fill="black"/>
<path opacity="0.8" d="M80.9601 74.4382L86.8818 74.6362L99.5411 52.6372L101.654 48.9647L100.264 39.5337L99.0169 41.7883L80.9601 74.4382Z" fill="#DCE0ED"/>
<path opacity="0.8" d="M135.041 48.1138L137.41 51.8162L144.887 42.1027L148.308 37.6526L146.355 34.9175L144.786 36.7477L135.041 48.1138Z" fill="#DCE0ED"/>
<path opacity="0.1" d="M144.786 36.748C144.772 36.9358 144.758 37.1289 144.741 37.3245L144.886 42.103L148.308 37.6531L146.355 34.9175L144.786 36.748Z" fill="black"/>
<path opacity="0.1" d="M99.0169 41.7884L99.5411 52.6372L101.654 48.9647L100.264 39.5337L99.0169 41.7884Z" fill="black"/>
<path opacity="0.8" d="M151.59 43.8117C151.59 43.8117 154.927 22.0328 144.342 18.5672C144.206 18.5236 144.067 18.4922 143.926 18.4733C141.481 18.1314 118.69 15.0682 106.771 17.9724C106.771 17.9724 98.6484 19.0382 98.6533 23.3925L101.219 76.6496L107.055 76.7597L105.803 41.5539C105.803 41.5539 103.306 26.1799 107.941 25.2224C112.577 24.2649 133.601 22.9201 140.964 25.1491C140.964 25.1491 146.387 24.0323 145.265 37.3351L145.478 44.48L151.59 43.8117Z" fill="#DCE0ED"/>
<path opacity="0.8" d="M133.7 49.9617C133.662 49.3846 133.773 48.8074 134.024 48.2859C134.274 47.7644 134.654 47.3161 135.128 46.9843C136.785 45.7746 141.865 43.1926 141.865 43.1926L143.496 43.354L148.165 55.5905L147.352 81.3739L138.327 92.1109L133.7 49.9617Z" fill="#65617D"/>
<path opacity="0.1" d="M133.7 49.9617C133.662 49.3846 133.773 48.8074 134.024 48.2859C134.274 47.7644 134.654 47.3161 135.128 46.9843C136.785 45.7746 141.865 43.1926 141.865 43.1926L143.496 43.354L148.165 55.5905L147.352 81.3739L138.327 92.1109L133.7 49.9617Z" fill="black"/>
<path opacity="0.8" d="M168.376 77.6562L168.702 51.1887C168.702 51.1887 169.68 40.9312 163.543 40.6412C163.543 40.6412 149.059 40.4732 142.73 42.396C142.531 42.4562 142.347 42.56 142.192 42.7001C142.037 42.8401 141.916 43.0128 141.836 43.2056C141.757 43.3985 141.721 43.6066 141.732 43.8149C141.743 44.0232 141.8 44.2264 141.9 44.4099C143.111 46.613 145.114 52.4214 145.854 67.2381L145.554 83.1036L168.376 77.6562Z" fill="#65617D"/>
<path opacity="0.8" d="M137.507 93.9893L163.868 93.873L163.894 93.8735L176.849 93.818L175.673 76.4875L168.483 76.6133L145.523 81.274L138.327 92.1109L137.507 93.9893Z" fill="#65617D"/>
<path opacity="0.1" d="M137.507 93.9893L163.868 93.873L163.894 93.8735L176.849 93.818L175.673 76.4875L168.483 76.6133L145.523 81.274L138.327 92.1109L137.507 93.9893Z" fill="black"/>
<path opacity="0.8" d="M137.507 93.9894L163.868 93.8731L164.52 82.286L145.523 81.2742L138.327 92.111L137.507 93.9894Z" fill="#65617D"/>
<path opacity="0.1" d="M163.894 93.8737L176.849 93.8178L175.673 76.4875C175.673 76.4875 171.501 82.8748 164.52 82.2858L163.894 93.8737Z" fill="white"/>
<path opacity="0.8" d="M70.6902 106.118C71.119 111.09 74.6613 110.373 74.6613 110.373L75.3209 110.325L81.8592 109.855L81.7434 102.146C79.5309 101.977 77.3061 102.069 75.1148 102.418C72.657 102.879 70.4993 103.909 70.6902 106.118Z" fill="#DCE0ED"/>
<path opacity="0.1" d="M70.6902 106.117C71.119 111.089 74.6613 110.372 74.6613 110.372L75.3209 110.325C76.0495 109.226 76.4359 107.936 76.4312 106.618C76.5145 105.105 76.0468 103.613 75.1148 102.418C72.6569 102.878 70.4993 103.909 70.6902 106.117Z" fill="black"/>
<path opacity="0.8" d="M161.789 57.3717C161.637 65.4248 166.349 72.0444 172.314 72.157C178.278 72.2696 183.237 65.8326 183.389 57.7794C183.541 49.7263 178.829 43.1067 172.865 42.9941C166.9 42.8815 161.941 49.3186 161.789 57.3717ZM165.865 58.4065C165.975 52.565 169.749 47.8991 174.295 47.9849C178.841 48.0707 182.436 52.8758 182.326 58.7173C182.216 64.5588 178.441 69.2247 173.895 69.1389C169.35 69.0531 165.754 64.2481 165.865 58.4066V58.4065Z" fill="#636780"/>
<path opacity="0.8" d="M171.982 62.0488L166.836 66.9155L165.091 62.4413L172.488 58.314L171.982 62.0488Z" fill="#636780"/>
<path opacity="0.8" d="M165.463 12.7976L161.055 13.2498L159.386 15.1565L161.65 26.3287L166.567 44.3524L169.784 56.7234L172.069 64.2419L173.428 74.1607L174.845 80.9886L179.396 85.7117L189.036 74.7643L190.652 71.085L194.506 63.5838L185.005 58.9214L174.51 57.7959L169.802 45.0319L166.06 30.2763L165.463 12.7976Z" fill="#00B2D9"/>
<path opacity="0.8" d="M253.431 67.5051L258.268 115.842L185.948 111.428L194.757 87.9076L208.863 79.1169L176.976 79.0378L177.052 65.8022L189.995 63.2599L215.989 61.6607L235.515 61.1582L254.039 67.6041" fill="#65617D"/>
<path opacity="0.1" d="M253.431 67.5051L258.268 115.842L185.948 111.428L194.757 87.9076L208.863 79.1169L176.976 79.0378L177.052 65.8022L189.995 63.2599L215.989 61.6607L235.515 61.1582L254.039 67.6041" fill="black"/>
<path opacity="0.8" d="M153.64 113.703C153.413 125.687 157.191 136.672 168.268 135.686C182.216 135.651 183.49 126.255 183.716 114.27C183.942 102.286 177.378 93.2399 169.073 93.0831C160.768 92.9263 153.866 101.718 153.64 113.703Z" fill="#636780"/>
<path opacity="0.1" d="M153.553 113.722C153.728 104.443 157.905 97.0796 163.636 94.2996C170.899 95.8227 176.345 104.309 176.139 115.243C175.953 125.065 175.062 133.146 167.071 135.763C156.851 135.938 153.334 125.296 153.553 113.722Z" fill="black"/>
<path opacity="0.8" d="M139.79 94.6254L143.95 99.5728L136.322 98.1151L130.701 92.7533L125.792 82.4587L118.686 77.919L101.017 79.9814L84.6947 80.2916L78.7745 74.8328L85.5088 74.0464L92.3139 74.0207L109.405 73.9568L129.744 73.7996L133.709 85.0042L136.734 92.7124L139.79 94.6254Z" fill="#00B2D9"/>
<path opacity="0.8" d="M80.9224 113.364C81.2601 113.893 92.6378 115.851 92.6378 115.851L124.057 122.191L178.218 123.997L184.677 118.719L188.005 119.375L188.141 119.401L232.594 128.159L233.322 128.068L245.513 126.566L309.183 118.718L308.646 109.491L308.328 104.046L307.671 92.7395L307.116 89.7664L301.471 89.1426L298.834 88.8498L257.692 84.2928L252.314 83.6975L249.298 83.3637L219.934 78.8044L176.977 79.0385L177.051 65.8022L161.055 13.2495C157.299 13.7873 157.337 16.3144 157.337 16.3144L170.865 65.7716L170.469 95.9833C140.343 98.4504 139.497 91.8848 134.697 94.0018L129.296 75.5259L78.7753 74.8334C76.7251 77.2322 80.9224 113.364 80.9224 113.364Z" fill="#65617D"/>
<path opacity="0.8" d="M206.773 88.3083L190.097 122.392L184.663 124.03L183.463 118.435L189.833 99.4837L196.226 88.5447L206.773 88.3083Z" fill="#65617D"/>
<path opacity="0.15" d="M206.773 88.3083L190.097 122.392L184.663 124.03L183.463 118.435L189.833 99.4837L196.226 88.5447L206.773 88.3083Z" fill="black"/>
<path opacity="0.8" d="M245.511 126.921C245.854 108.748 233.138 93.77 217.108 93.4674C201.079 93.1649 187.806 107.652 187.463 125.826C187.119 143.999 199.835 158.977 215.865 159.28C231.895 159.582 245.168 145.095 245.511 126.921Z" fill="#636780"/>
<path opacity="0.1" d="M206.718 95.3247C221.887 96.6681 233.647 111.193 233.317 128.68C233.051 142.774 225.006 154.65 213.931 159.13C198.762 157.787 187.002 143.262 187.332 125.775C187.598 111.68 195.643 99.8049 206.718 95.3247Z" fill="black"/>
<path opacity="0.8" d="M295.374 70.3008L296.683 77.0972L300.689 97.9189L319.625 96.4476C319.625 96.4476 320.822 92.9877 317.887 91.626C317.887 91.626 317.137 79.8215 313.714 76.0445C313.347 75.6143 312.883 75.2777 312.36 75.0627L295.374 70.3008Z" fill="#65617D"/>
<path opacity="0.1" d="M296.683 77.0974L300.689 97.9191L319.625 96.4478C319.625 96.4478 320.822 92.9879 317.886 91.6262C317.886 91.6262 317.137 79.8217 313.714 76.0447L296.683 77.0974Z" fill="white"/>
<path opacity="0.8" d="M252.749 71.3251C250.234 75.3689 255.442 113.177 255.442 113.177L302.011 106.39L300.98 73.3668C300.133 67.4282 296.663 66.6678 296.663 66.6678C280.444 58.0877 242.851 55.6355 242.851 55.6355C208.511 56.2935 177.052 65.8023 177.052 65.8023C216.184 60.5322 252.749 71.3251 252.749 71.3251Z" fill="#65617D"/>
<path opacity="0.1" d="M255.442 113.176L302.011 106.39L300.98 73.3666C300.133 67.428 296.663 66.6676 296.663 66.6676C296.663 66.6676 262.842 62.8053 252.749 71.3249C250.234 75.3687 255.442 113.176 255.442 113.176Z" fill="black"/>
<path opacity="0.8" d="M260.391 111.092L299.331 105.287L298.48 77.1119C297.773 72.0454 294.872 71.3977 294.872 71.3977C294.872 71.3977 266.595 68.1133 258.152 75.3855C256.048 78.8364 260.391 111.092 260.391 111.092Z" fill="#65617D"/>
<path opacity="0.1" d="M269.335 88.0962C269.436 82.7596 267.139 78.3884 264.204 78.333C261.27 78.2777 258.81 82.559 258.709 87.8957C258.608 93.2323 260.905 97.6035 263.839 97.6589C266.773 97.7143 269.234 93.4329 269.335 88.0962Z" fill="black"/>
<path opacity="0.8" d="M269.34 87.835C269.44 82.4983 267.144 78.1272 264.209 78.0718C261.275 78.0164 258.815 82.2977 258.714 87.6344C258.613 92.9711 260.91 97.3423 263.844 97.3977C266.778 97.453 269.239 93.1717 269.34 87.835Z" fill="#DCE0ED"/>
<path opacity="0.8" d="M263.465 80.5833C263.465 80.5833 265.636 80.9726 264.449 83.824C263.822 85.2087 263.356 86.6609 263.06 88.152C263.06 88.152 260.862 89.2426 261.019 85.5009C261.177 81.7593 263.465 80.5833 263.465 80.5833Z" fill="#F0F0F4"/>
<path opacity="0.1" d="M297.539 84.7968C297.634 79.8101 295.487 75.7256 292.745 75.6738C290.004 75.6221 287.705 79.6226 287.61 84.6094C287.516 89.5961 289.662 93.6806 292.404 93.7324C295.146 93.7841 297.445 89.7836 297.539 84.7968Z" fill="black"/>
<path opacity="0.8" d="M297.544 84.5358C297.639 79.5491 295.492 75.4646 292.751 75.4128C290.009 75.3611 287.71 79.3616 287.615 84.3484C287.521 89.3351 289.667 93.4196 292.409 93.4714C295.151 93.5232 297.45 89.5226 297.544 84.5358Z" fill="#DCE0ED"/>
<path opacity="0.8" d="M292.018 77.2905C292.018 77.2905 294.189 77.6798 293.002 80.5312C292.375 81.916 291.909 83.3682 291.614 84.8592C291.614 84.8592 289.415 85.9498 289.573 82.2082C289.73 78.4665 292.018 77.2905 292.018 77.2905Z" fill="#F0F0F4"/>
<path opacity="0.1" d="M270.274 79.9271C270.554 83.5037 271.797 110 271.797 110L274.762 109.562L276.41 109.322L278.607 108.997L278.871 108.958L287.524 107.684L286.351 79.58C286.313 78.6773 285.929 77.8238 285.278 77.1963C284.628 76.5688 283.761 76.2154 282.857 76.2092C282.771 76.2102 282.682 76.2111 282.593 76.2173C281.996 76.2583 281.352 76.3088 280.682 76.3693C280.399 76.3953 280.114 76.4213 279.823 76.4524C278.993 76.536 278.136 76.64 277.295 76.7626C276.865 76.8276 276.443 76.8954 276.026 76.9685C275.32 77.0963 274.638 77.2376 274.007 77.4007C273.579 77.5102 273.172 77.6305 272.798 77.7619C271.23 78.2966 270.2 79.0035 270.274 79.9271Z" fill="black"/>
<path opacity="0.8" d="M282.857 76.2092L283.949 107.792L284.909 107.724L283.829 76.353C283.513 76.2601 283.186 76.2117 282.857 76.2092Z" fill="#65617D"/>
<path opacity="0.8" d="M279.823 76.4525L280.802 108.341L282.283 108.369L280.682 76.3694C280.399 76.3954 280.114 76.4214 279.823 76.4525Z" fill="#65617D"/>
<path opacity="0.8" d="M276.026 76.9687L277.914 108.984L278.873 109.002L278.871 108.958L277.295 76.7627C276.865 76.8277 276.443 76.8955 276.026 76.9687Z" fill="#65617D"/>
<path opacity="0.8" d="M272.798 77.7619L274.761 109.562L274.766 109.622L276.423 109.479L276.41 109.322L274.007 77.4006C273.579 77.5101 273.172 77.6304 272.798 77.7619Z" fill="#65617D"/>
<path opacity="0.1" d="M307.759 103.016C307.759 103.016 311.272 86.5584 303.972 85.5715C296.672 84.5846 272.6 85.8936 273.19 92.6974C273.781 99.5011 274.37 109.832 274.37 109.832L279.355 108.816C279.355 108.816 275.925 93.2062 281.75 92.7283C287.575 92.2505 301.846 90.887 301.846 90.887C301.846 90.887 305.713 90.3069 303.234 103.911L307.759 103.016Z" fill="black"/>
<path opacity="0.8" d="M307.73 104.583C307.73 104.583 311.263 87.0806 303.962 86.0937C296.662 85.1068 272.59 86.4159 273.18 93.2196C273.771 100.023 274.36 110.354 274.36 110.354L279.345 109.338C279.345 109.338 275.915 93.7284 281.74 93.2506C287.565 92.7727 301.836 91.4092 301.836 91.4092C301.836 91.4092 305.683 91.8737 303.204 105.477L307.73 104.583Z" fill="#DCE0ED"/>
<path opacity="0.8" d="M178.218 123.997L184.663 124.03C189.758 103.401 197.754 90.6646 197.754 90.6646C200.393 89.3193 228.957 90.0335 228.957 90.0335C231.91 90.6118 232.516 100.028 232.516 100.028C232.516 100.028 229.948 102.156 232.36 103.597C233.438 104.239 237.02 104.424 241.155 104.29C246.29 104.121 252.277 103.455 255.382 102.55C260.99 100.913 256.609 97.6094 256.609 97.6094C256.609 97.6094 255.845 96.5499 255.431 90.7945C255.136 87.4336 254.112 84.1771 252.43 81.2518C252.198 80.8477 252.05 80.628 252.05 80.628C251.762 80.3438 251.419 80.1206 251.043 79.9716C243.717 76.7505 207.47 79.0027 207.47 79.0027L193.978 83.0169C193.604 83.1588 193.014 84.0934 192.28 85.5896C187.87 94.5953 178.218 123.997 178.218 123.997Z" fill="#65617D"/>
<path opacity="0.1" d="M178.218 123.997L184.663 124.03C189.758 103.401 197.754 90.6646 197.754 90.6646C200.393 89.3193 228.957 90.0335 228.957 90.0335C231.91 90.6118 232.516 100.028 232.516 100.028C232.516 100.028 229.948 102.156 232.36 103.597C233.438 104.239 237.02 104.424 241.155 104.29C246.29 104.121 252.277 103.455 255.382 102.55C260.99 100.913 256.609 97.6094 256.609 97.6094C256.609 97.6094 255.845 96.5499 255.431 90.7945C255.136 87.4336 254.112 84.1771 252.43 81.2518C252.198 80.8477 252.05 80.628 252.05 80.628C251.762 80.3438 251.419 80.1206 251.043 79.9716C243.717 76.7505 207.47 79.0027 207.47 79.0027L193.978 83.0169C193.604 83.1588 193.014 84.0934 192.28 85.5896C187.87 94.5953 178.218 123.997 178.218 123.997Z" fill="black"/>
<path opacity="0.8" d="M192.28 85.5896C204.753 81.0154 238.827 84.211 238.827 84.211C242.51 81.1821 249.331 81.107 252.43 81.2518C252.198 80.8477 252.05 80.628 252.05 80.628C251.762 80.3438 251.42 80.1206 251.043 79.9716C243.717 76.7505 207.47 79.0028 207.47 79.0028L193.978 83.0169C193.604 83.1588 193.014 84.0934 192.28 85.5896Z" fill="#65617D"/>
<path opacity="0.8" d="M236.798 85.4791C237.531 88.1917 240.549 99.0489 240.549 99.0489C240.852 100.783 241.054 102.533 241.155 104.291C246.29 104.121 252.277 103.456 255.382 102.55C260.99 100.913 256.609 97.6095 256.609 97.6095C256.609 97.6095 255.845 96.55 255.431 90.7946C255.116 87.1881 253.958 83.7058 252.05 80.6281C251.762 80.3439 251.419 80.1207 251.043 79.9717C246.18 81.0215 236.244 83.4256 236.798 85.4791Z" fill="#65617D"/>
<path opacity="0.1" d="M236.798 85.4791C237.531 88.1917 240.549 99.0489 240.549 99.0489C240.852 100.783 241.054 102.533 241.155 104.291C246.29 104.121 252.277 103.456 255.382 102.55C260.99 100.913 256.609 97.6095 256.609 97.6095C256.609 97.6095 255.845 96.55 255.431 90.7946C255.116 87.1881 253.958 83.7058 252.05 80.6281C251.762 80.3439 251.419 80.1207 251.043 79.9717C246.18 81.0215 236.244 83.4256 236.798 85.4791Z" fill="white"/>
<path opacity="0.8" d="M161.055 13.2497L177.051 65.8023L243.756 56.1542L234.943 24.5721C234.943 24.5721 233.576 17.3618 230.124 16.7742C230.124 16.7742 176.8 6.49304 161.055 13.2497ZM168.479 21.4887C166.326 14.3942 198.017 17.9315 198.017 17.9315C202.284 17.6019 207.427 17.9602 212.207 18.539C213.957 18.7523 215.656 18.996 217.249 19.2455C220.801 19.8037 223.816 20.3988 225.621 20.7752C226.769 21.0137 227.427 21.1646 227.427 21.1646C233.727 23.2429 236.826 49.4267 236.826 49.4267C237.297 52.1788 234.042 51.5295 234.042 51.5295L233.83 51.5333L230.862 51.5923L222.013 51.7727L178.868 52.6433C176.326 52.3341 175.991 49.3234 175.991 49.3234C174.66 47.1429 168.479 21.4887 168.479 21.4887H168.479Z" fill="#65617D"/>
<path opacity="0.8" d="M233.83 51.5333L234.042 51.5295C234.042 51.5295 237.297 52.1788 236.826 49.4267C236.826 49.4267 233.727 23.2429 227.427 21.1646C227.427 21.1646 226.769 21.0136 225.621 20.7751C227.838 25.3053 234.929 40.8087 233.83 51.5333Z" fill="#65617D"/>
<path opacity="0.1" d="M233.83 51.5333L234.042 51.5295C234.042 51.5295 237.297 52.1788 236.826 49.4267C236.826 49.4267 233.727 23.2429 227.427 21.1646C227.427 21.1646 226.769 21.0136 225.621 20.7751C227.838 25.3053 234.929 40.8087 233.83 51.5333Z" fill="black"/>
<path opacity="0.1" d="M226.76 115.835C227.125 116.546 227.686 117.139 228.376 117.543C229.066 117.947 229.857 118.146 230.656 118.116L231.987 118.084L244.555 117.781L249.084 117.67L253.271 117.402L308.646 109.491L308.328 104.046L301.962 104.835L299.329 105.161L260.246 109.999L255.103 110.636L252.609 110.944L242.07 110.669L230.661 110.37C230.084 110.354 229.51 110.453 228.972 110.662C227.985 111.034 227.179 111.771 226.722 112.72C226.483 113.206 226.361 113.741 226.368 114.282C226.375 114.824 226.509 115.356 226.76 115.835Z" fill="black"/>
<path opacity="0.8" d="M226.75 116.358C227.115 117.069 227.676 117.661 228.366 118.065C229.056 118.469 229.847 118.668 230.646 118.639L249.074 118.192L253.261 117.924L312.313 109.487L316.955 108.825L319.484 108.463C324.469 107.512 323.081 102.522 323.081 102.522C322.776 100.251 314.279 98.0006 311.492 98.0368C309.618 98.0589 309.302 100.94 309.297 102.829C309.296 103.753 309.366 104.439 309.366 104.439L306.605 104.782L252.599 111.466L230.651 110.893C229.838 110.863 229.033 111.069 228.334 111.486C227.635 111.903 227.072 112.513 226.712 113.243C226.473 113.728 226.352 114.264 226.358 114.805C226.365 115.346 226.499 115.878 226.75 116.358Z" fill="#DCE0ED"/>
<path opacity="0.1" d="M315.438 101.245C315.438 101.245 313.033 104.074 309.366 104.44C309.366 104.44 310.908 101.247 315.438 101.245Z" fill="black"/>
<path opacity="0.1" d="M315.895 109.353C315.895 109.353 323.65 109.325 323.571 113.504C323.492 117.682 318.602 118.287 318.602 118.287L249.108 130.299L229.417 130.275C229.417 130.275 222.64 124.661 229.828 122.359L249.676 123.256L315.925 112.402C315.925 112.402 314.227 110.018 315.895 109.353Z" fill="black"/>
<path opacity="0.8" d="M229.407 130.798L249.097 130.822L310.889 120.14L315.41 119.358L318.591 118.81C318.591 118.81 323.482 118.204 323.561 114.026C323.618 111.028 319.637 110.195 317.386 109.964C316.501 109.875 315.884 109.876 315.884 109.876C314.217 110.539 315.916 112.923 315.916 112.923L313.503 113.319L249.666 123.779L229.818 122.881C222.631 125.183 229.407 130.798 229.407 130.798Z" fill="#DCE0ED"/>
<path opacity="0.8" d="M310.124 105.848L306.065 103.942L303.976 103.816L303.818 121.404L310.288 120.22L313.021 118.53L314.465 111.242C314.465 111.242 314 108.185 313.744 107.919C313.488 107.653 310.124 105.848 310.124 105.848Z" fill="#DCE0ED"/>
<path opacity="0.1" d="M310.124 105.848L306.065 103.942L303.976 103.816L303.818 121.404L310.288 120.22L313.021 118.53L314.465 111.242C314.465 111.242 314 108.185 313.744 107.919C313.488 107.653 310.124 105.848 310.124 105.848Z" fill="black"/>
<path opacity="0.1" d="M310.889 120.14C310.838 120.199 310.811 120.23 310.811 120.23L315.356 119.444C315.375 119.415 315.394 119.387 315.41 119.358C317.871 115.557 318.134 112.437 317.386 109.964C316.501 109.875 315.884 109.876 315.884 109.876C314.217 110.539 315.916 112.923 315.916 112.923L313.504 113.319C313.6 116.764 311.341 119.605 310.889 120.14Z" fill="black"/>
<path opacity="0.1" d="M304.498 103.825C305.258 104.134 305.96 104.453 306.605 104.782C309.507 106.247 311.288 107.864 312.313 109.487L316.955 108.825C315.027 104.619 310.271 102.627 310.271 102.627L309.297 102.829L304.498 103.825Z" fill="black"/>
<path opacity="0.8" d="M309.749 102.618C309.749 102.618 322.37 107.908 314.833 119.435L310.288 120.22C310.288 120.22 319.453 110.117 303.976 103.816L309.749 102.618Z" fill="#DCE0ED"/>
<path opacity="0.8" d="M279.332 107.705L274.632 107.442L275.059 126.347L282.663 125.098L285.915 123.591L287.467 119.876L288.582 116.152L286.121 112.71L283.283 110.74L279.332 107.705Z" fill="#DCE0ED"/>
<path opacity="0.1" d="M279.332 107.705L274.632 107.442L275.059 126.347L282.663 125.098L285.915 123.591L287.467 119.876L288.582 116.152L286.121 112.71L283.283 110.74L279.332 107.705Z" fill="black"/>
<path opacity="0.8" d="M281.935 117.507C281.975 115.392 280.994 113.658 279.743 113.634C278.492 113.611 277.446 115.306 277.406 117.422C277.366 119.537 278.348 121.271 279.598 121.295C280.849 121.319 281.895 119.623 281.935 117.507Z" fill="#DCE0ED"/>
<path opacity="0.8" d="M301.17 123.072C301.328 123.14 301.47 123.241 301.586 123.368C301.703 123.494 301.791 123.643 301.846 123.806C301.901 123.969 301.921 124.142 301.906 124.313C301.89 124.484 301.838 124.65 301.754 124.8C301.223 125.75 300.583 126.98 300.635 127.309C300.723 127.866 299.49 127.385 299.329 127.252C299.168 127.118 296.912 127.206 296.811 125.669C296.798 125.206 296.907 124.747 297.127 124.339C297.347 123.93 297.67 123.587 298.064 123.342L297.605 119.969L300.712 119.767L300.622 122.835L301.17 123.072Z" fill="#636780"/>
<path opacity="0.1" d="M301.17 123.072C301.328 123.14 301.47 123.241 301.586 123.368C301.703 123.494 301.791 123.643 301.846 123.806C301.901 123.969 301.921 124.142 301.906 124.313C301.89 124.484 301.838 124.65 301.754 124.8C301.223 125.75 300.583 126.98 300.635 127.309C300.723 127.866 299.49 127.385 299.329 127.252C299.168 127.118 296.912 127.206 296.811 125.669C296.798 125.206 296.907 124.747 297.127 124.339C297.347 123.93 297.67 123.587 298.064 123.342L297.605 119.969L300.712 119.767L300.622 122.835L301.17 123.072Z" fill="black"/>
<path opacity="0.1" d="M300.325 122.992C300.325 122.992 299.212 126.564 299.666 126.703C300.121 126.842 300.325 122.992 300.325 122.992Z" fill="black"/>
<path opacity="0.1" d="M299.165 122.122C299.165 122.122 298.052 125.693 298.507 125.832C298.961 125.971 299.165 122.122 299.165 122.122Z" fill="black"/>
<path opacity="0.8" d="M286.848 111.068L288.387 121.897C288.387 121.897 290.548 121.643 291.742 121.409C292.004 121.379 292.259 121.305 292.496 121.191C292.557 121.132 292.685 121.14 292.855 121.177L292.857 121.177C293.435 121.305 294.461 121.806 294.669 121.405C294.685 121.373 294.705 121.345 294.729 121.319L294.731 121.317C294.939 121.099 295.333 121.268 295.716 121.333C295.921 121.388 296.14 121.363 296.327 121.263C296.652 121.055 297.296 121.412 297.827 121.537C298.163 121.617 298.453 121.607 298.592 121.306C298.645 121.209 298.721 121.125 298.813 121.063C298.904 121 299.009 120.96 299.119 120.945L299.122 120.945C299.626 120.829 300.327 120.929 300.734 120.85C300.894 120.822 301.005 120.764 301.043 120.655C301.126 120.421 301.578 120.317 302.06 120.235C302.645 120.134 303.273 120.065 303.325 119.828C303.34 119.75 303.398 119.717 303.484 119.716C303.808 119.771 304.125 119.855 304.433 119.969L304.436 119.969C304.696 120.039 304.913 120.046 304.979 119.859C305.051 119.654 305.351 119.683 305.692 119.773C305.967 119.847 306.271 119.959 306.505 120.019C306.716 120.07 306.867 120.08 306.895 119.982C306.988 119.636 308.105 120.441 308.379 119.748C308.654 119.056 312.313 114.511 307.809 108.417C307.809 108.417 306.558 108.48 305.601 108.634C305.284 108.672 304.972 108.753 304.677 108.876C304.672 108.876 304.669 108.878 304.664 108.881C304.115 109.023 303.548 109.077 302.983 109.042C302.658 109.04 302.337 109.11 302.043 109.247C301.927 109.307 301.834 109.404 301.776 109.521C301.624 109.85 301.288 109.912 300.923 109.884C300.429 109.846 299.884 109.647 299.681 109.743C299.675 109.746 299.669 109.748 299.663 109.75C299.294 109.9 297.93 109.723 297.693 109.946C297.686 109.952 297.68 109.959 297.675 109.966C297.573 110.111 297.04 109.946 296.495 109.863L296.493 109.863C296.311 109.809 296.121 109.795 295.934 109.821C295.747 109.846 295.567 109.912 295.408 110.012C295.164 110.198 294.858 110.282 294.554 110.247C294.184 110.213 293.812 110.221 293.445 110.27C293.359 110.292 293.282 110.339 293.223 110.405C292.996 110.675 292.466 110.628 291.992 110.643C291.75 110.628 291.508 110.684 291.297 110.805C291.221 110.856 291.135 110.89 291.044 110.904C290.341 110.955 289.634 110.907 288.945 110.76L286.848 111.068Z" fill="#636780"/>
<path opacity="0.1" d="M305.692 119.773C305.967 119.846 306.271 119.959 306.505 120.018C310.147 114.601 307.247 110.379 305.601 108.634C305.284 108.671 304.972 108.753 304.677 108.875C308.15 113.04 306.405 118.128 305.692 119.773Z" fill="black"/>
<path opacity="0.1" d="M303.484 119.716C303.808 119.77 304.125 119.855 304.433 119.969L304.436 119.969C307.565 114.675 304.526 110.615 302.983 109.042C302.658 109.04 302.337 109.11 302.043 109.246C305.362 113.014 304.269 117.601 303.484 119.716Z" fill="black"/>
<path opacity="0.1" d="M300.734 120.85C300.894 120.822 301.005 120.764 301.043 120.655C301.126 120.421 301.578 120.318 302.06 120.235C304.806 115.438 302.502 111.672 300.923 109.884C300.429 109.846 299.884 109.647 299.681 109.743C299.675 109.746 299.669 109.748 299.663 109.75C303.33 114.02 301.422 119.301 300.734 120.85Z" fill="black"/>
<path opacity="0.1" d="M297.827 121.537C298.163 121.617 298.453 121.607 298.592 121.306C298.645 121.209 298.721 121.125 298.813 121.063C298.904 121 299.009 120.96 299.119 120.945L299.122 120.945C302.323 115.605 299.24 111.511 297.693 109.946C297.686 109.952 297.68 109.959 297.675 109.966C297.573 110.11 297.04 109.946 296.495 109.863C300.811 114.386 298.437 120.24 297.827 121.537Z" fill="black"/>
<path opacity="0.1" d="M294.731 121.317C294.939 121.099 295.333 121.268 295.716 121.333C299.045 116.035 296.155 111.931 294.554 110.247C294.184 110.213 293.812 110.22 293.445 110.27C297.136 114.394 295.484 119.528 294.731 121.317Z" fill="black"/>
<path opacity="0.1" d="M291.742 121.409C292.004 121.379 292.259 121.305 292.496 121.191C292.557 121.132 292.685 121.14 292.855 121.177L292.857 121.177C295.811 116.337 293.599 112.512 291.992 110.642C291.75 110.628 291.508 110.684 291.297 110.804C291.221 110.856 291.134 110.89 291.044 110.904C294.095 114.998 292.431 119.826 291.742 121.409Z" fill="black"/>
<path opacity="0.8" d="M221.357 128.033C221.575 116.494 215.395 107.02 207.555 106.872C199.714 106.724 193.181 115.958 192.963 127.497C192.745 139.036 198.924 148.51 206.765 148.658C214.606 148.806 221.139 139.572 221.357 128.033Z" fill="#636780"/>
<path opacity="0.1" d="M217.954 128.274C218.131 118.922 213.653 111.255 207.953 111.147C202.253 111.039 197.489 118.533 197.312 127.884C197.135 137.235 201.613 144.903 207.313 145.011C213.013 145.118 217.777 137.625 217.954 128.274Z" fill="black"/>
<path opacity="0.8" d="M217.964 127.751C218.141 118.4 213.663 110.732 207.963 110.625C202.263 110.517 197.499 118.011 197.322 127.362C197.145 136.713 201.623 144.381 207.323 144.489C213.023 144.596 217.787 137.103 217.964 127.751Z" fill="#F0F0F4"/>
<path opacity="0.8" d="M207.204 116.184C207.226 115.03 206.698 114.084 206.024 114.072C205.351 114.059 204.787 114.984 204.766 116.138C204.744 117.292 205.272 118.237 205.945 118.25C206.619 118.263 207.182 117.338 207.204 116.184Z" fill="#636780"/>
<path opacity="0.8" d="M201.981 134.373C202.003 133.219 201.475 132.273 200.802 132.26C200.128 132.248 199.564 133.173 199.543 134.327C199.521 135.481 200.049 136.426 200.723 136.439C201.396 136.452 201.96 135.527 201.981 134.373Z" fill="#636780"/>
<path opacity="0.8" d="M215.298 125.916C215.319 124.762 214.791 123.816 214.118 123.803C213.444 123.791 212.881 124.716 212.859 125.87C212.837 127.024 213.365 127.969 214.039 127.982C214.712 127.995 215.276 127.07 215.298 125.916Z" fill="#636780"/>
<path opacity="0.8" d="M211.496 138.036C211.518 136.882 210.99 135.936 210.316 135.924C209.643 135.911 209.079 136.836 209.058 137.99C209.036 139.144 209.564 140.089 210.237 140.102C210.911 140.115 211.474 139.19 211.496 138.036Z" fill="#636780"/>
<path opacity="0.8" d="M103.983 87.1519C103.983 87.1519 93.2795 114.12 93.77 115.828C93.77 115.828 89.4093 118.358 88.3765 117.685C87.3437 117.013 88.4852 105.016 88.4852 105.016L90.6447 94.4764L92.9841 88.2505L103.983 87.1519Z" fill="#65617D"/>
<path opacity="0.15" d="M103.983 87.1519C103.983 87.1519 93.2795 114.12 93.77 115.828C93.77 115.828 89.4093 118.358 88.3765 117.685C87.3437 117.013 88.4852 105.016 88.4852 105.016L90.6447 94.4764L92.9841 88.2505L103.983 87.1519Z" fill="black"/>
<path opacity="0.8" d="M200.453 123.023C200.475 121.869 199.947 120.924 199.273 120.911C198.6 120.898 198.036 121.823 198.015 122.977C197.993 124.131 198.521 125.077 199.194 125.089C199.868 125.102 200.431 124.177 200.453 123.023Z" fill="#636780"/>
<path opacity="0.8" d="M209.329 128.242C209.381 125.501 207.824 123.249 205.852 123.212C203.879 123.175 202.239 125.366 202.187 128.107C202.135 130.847 203.692 133.099 205.664 133.136C207.636 133.173 209.277 130.982 209.329 128.242Z" fill="#636780"/>
<path opacity="0.8" d="M91.9309 123.239C91.6339 138.96 96.5893 153.371 111.121 152.078C129.418 152.031 131.089 139.705 131.386 123.983C131.683 108.262 123.072 96.3949 112.177 96.1892C101.281 95.9836 92.228 107.517 91.9309 123.239Z" fill="#636780"/>
<path opacity="0.1" d="M91.8164 123.263C92.0464 111.091 97.5256 101.432 105.044 97.7847C114.572 99.7828 121.717 110.916 121.446 125.259C121.202 138.143 120.034 148.745 109.55 152.178C96.1431 152.407 91.5294 138.447 91.8164 123.263Z" fill="black"/>
<path opacity="0.1" d="M84.3487 116.434C84.3487 116.434 86.9197 118.703 88.3864 117.163C88.3864 117.163 92.4468 89.0243 96.8912 88.9776L112.179 89.1356C112.179 89.1356 113.993 89.9536 114.713 93.3635L124.067 121.669L178.228 123.475L182.528 114.891L137.714 114.175L137.709 114.154C137.482 113.283 130.501 86.4195 125.532 83C125.529 82.9973 125.527 82.9973 125.524 82.9946C125.356 82.8762 125.172 82.7822 124.978 82.7152C124.978 82.7152 106.342 79.8815 100.17 81.4631C100.17 81.4631 93.741 82.7787 92.1363 84.7078C92.1315 84.7126 92.127 84.7178 92.1229 84.7232C91.9097 84.9386 89.4334 87.622 88.5347 95.4818L84.3487 116.434Z" fill="black"/>
<path opacity="0.8" d="M84.3389 116.956C84.3389 116.956 86.9098 119.225 88.3765 117.685C88.3765 117.685 92.4369 89.5466 96.8813 89.4998L112.169 89.6578C112.169 89.6578 113.984 90.4758 114.703 93.8857L124.057 122.191L178.218 123.998L182.518 115.413L137.704 114.698L137.699 114.677C137.473 113.805 130.492 86.9417 125.522 83.5222C125.519 83.5195 125.517 83.5195 125.514 83.5168C125.346 83.3985 125.162 83.3044 124.968 83.2374C124.968 83.2374 106.332 80.4037 100.16 81.9854C100.16 81.9854 93.7312 83.3009 92.1264 85.23C92.1216 85.2349 92.1172 85.24 92.1131 85.2454C91.8999 85.4609 89.4235 88.1442 88.5248 96.004L84.3389 116.956Z" fill="#65617D"/>
<path opacity="0.1" d="M84.3389 116.956C84.3389 116.956 86.9098 119.225 88.3765 117.685C88.3765 117.685 92.4369 89.5466 96.8813 89.4998L112.169 89.6578C112.169 89.6578 113.984 90.4758 114.703 93.8857L124.057 122.191L178.218 123.998L182.518 115.413L137.704 114.698L137.699 114.677C137.473 113.805 130.492 86.9417 125.522 83.5222C125.519 83.5195 125.517 83.5195 125.514 83.5168C125.346 83.3985 125.162 83.3044 124.968 83.2374C124.968 83.2374 106.332 80.4037 100.16 81.9854C100.16 81.9854 93.7312 83.3009 92.1264 85.23C92.1216 85.2349 92.1172 85.24 92.1131 85.2454C91.8999 85.4609 89.4235 88.1442 88.5248 96.004L84.3389 116.956Z" fill="black"/>
<path opacity="0.8" d="M118.105 86.7654C119.365 89.2711 130.023 120.039 130.023 120.039L137.704 114.698L137.699 114.677C137.473 113.805 130.484 86.9129 125.514 83.5168C122.232 84.014 117.249 85.0642 118.105 86.7654Z" fill="#65617D"/>
<path opacity="0.8" d="M133.002 73.0696L138.762 93.2949L170.787 92.9851L170.469 95.9835C170.469 95.9835 145.316 99.1662 134.697 94.0019L129.296 75.5251L78.7745 74.8327L88.4415 72.751L133.002 73.0696Z" fill="#65617D"/>
<path opacity="0.1" d="M133.002 73.0696L138.762 93.2949L170.787 92.9851L170.469 95.9835C170.469 95.9835 145.316 99.1662 134.697 94.0019L129.296 75.5251L78.7745 74.8327L88.4415 72.751L133.002 73.0696Z" fill="white"/>
<path opacity="0.1" d="M282.471 107.59C282.471 107.59 299.467 116.532 286.597 124.388L283.186 125.107C283.186 125.107 295.81 116.376 275.155 107.452L282.471 107.59Z" fill="black"/>
<path opacity="0.8" d="M281.949 107.58C281.949 107.58 298.944 116.522 286.075 124.378L282.663 125.097C282.663 125.097 295.288 116.366 274.632 107.442L281.949 107.58Z" fill="#DCE0ED"/>
<path opacity="0.8" d="M113.576 125.868C113.747 116.853 109.615 109.465 104.347 109.365C99.0803 109.266 94.6723 116.493 94.5019 125.508C94.3316 134.522 98.4634 141.911 103.731 142.01C108.998 142.11 113.406 134.883 113.576 125.868Z" fill="#636780"/>
<path opacity="0.1" d="M111.288 126.177C111.426 118.872 108.433 112.891 104.604 112.818C100.775 112.746 97.5588 118.61 97.4207 125.916C97.2827 133.221 100.275 139.202 104.104 139.274C107.933 139.347 111.15 133.483 111.288 126.177Z" fill="black"/>
<path opacity="0.8" d="M111.298 125.655C111.436 118.349 108.443 112.368 104.614 112.296C100.785 112.224 97.5687 118.087 97.4306 125.393C97.2926 132.699 100.285 138.68 104.114 138.752C107.943 138.824 111.159 132.96 111.298 125.655Z" fill="#F0F0F4"/>
<path opacity="0.8" d="M104.093 116.64C104.11 115.739 103.757 115.001 103.305 114.993C102.852 114.984 102.472 115.708 102.455 116.609C102.438 117.511 102.791 118.249 103.243 118.257C103.695 118.266 104.076 117.542 104.093 116.64Z" fill="#636780"/>
<path opacity="0.8" d="M100.547 130.861C100.564 129.959 100.211 129.221 99.7582 129.213C99.3058 129.204 98.9253 129.928 98.9082 130.83C98.8912 131.731 99.2441 132.469 99.6965 132.477C100.149 132.486 100.529 131.762 100.547 130.861Z" fill="#636780"/>
<path opacity="0.8" d="M109.51 124.226C109.527 123.325 109.174 122.587 108.722 122.579C108.269 122.57 107.889 123.294 107.872 124.195C107.855 125.097 108.208 125.835 108.66 125.843C109.113 125.852 109.493 125.128 109.51 124.226Z" fill="#636780"/>
<path opacity="0.8" d="M106.931 133.703C106.948 132.801 106.595 132.063 106.143 132.055C105.691 132.046 105.31 132.77 105.293 133.672C105.276 134.573 105.629 135.311 106.081 135.319C106.534 135.328 106.914 134.604 106.931 133.703Z" fill="#636780"/>
<path opacity="0.8" d="M99.5434 121.997C99.5605 121.096 99.2075 120.358 98.7551 120.35C98.3027 120.341 97.9222 121.065 97.9051 121.966C97.8881 122.868 98.241 123.606 98.6934 123.614C99.1458 123.623 99.5264 122.899 99.5434 121.997Z" fill="#636780"/>
<path opacity="0.8" d="M105.495 126.056C105.536 123.915 104.495 122.159 103.17 122.134C101.845 122.109 100.738 123.824 100.698 125.965C100.657 128.106 101.698 129.862 103.023 129.887C104.348 129.912 105.455 128.197 105.495 126.056Z" fill="#636780"/>
<path opacity="0.1" d="M243.896 55.6995C243.896 55.6995 214.872 56.1966 177.052 65.8022L243.896 55.6995Z" fill="black"/>
<path opacity="0.8" d="M106.473 2.33887C106.473 2.33887 108.044 2.62045 107.185 4.68283C106.732 5.68441 106.395 6.73476 106.181 7.81322C106.181 7.81322 104.591 8.60203 104.705 5.89574C104.819 3.18945 106.473 2.33887 106.473 2.33887Z" fill="#DCE0ED"/>
<path opacity="0.8" d="M167.511 51.9678L169.823 61.1651L177.788 54.1894" stroke="black" stroke-miterlimit="10"/>
<path opacity="0.8" d="M164.15 166.449C164.354 166.442 164.547 166.356 164.689 166.21C164.83 166.063 164.909 165.867 164.909 165.663C164.909 165.459 164.83 165.263 164.689 165.117C164.547 164.97 164.354 164.884 164.15 164.877C163.946 164.884 163.753 164.97 163.611 165.117C163.47 165.263 163.39 165.459 163.39 165.663C163.39 165.867 163.47 166.063 163.611 166.21C163.753 166.356 163.946 166.442 164.15 166.449Z" fill="#65617D"/>
</g>
<path opacity="0.1" d="M348.045 238.298C353.452 238.298 357.836 237.557 357.836 236.644C357.836 235.73 353.452 234.989 348.045 234.989C342.637 234.989 338.254 235.73 338.254 236.644C338.254 237.557 342.637 238.298 348.045 238.298Z" fill="#00B2D9"/>
<path d="M341.469 228.956C341.469 228.956 347.054 228.784 348.738 227.586C350.421 226.388 357.329 224.958 357.746 226.879C358.164 228.801 366.139 236.435 359.834 236.486C353.529 236.536 345.183 235.504 343.503 234.481C341.823 233.458 341.469 228.956 341.469 228.956Z" fill="#A8A8A8"/>
<path opacity="0.2" d="M359.946 235.817C353.641 235.868 345.296 234.835 343.616 233.812C342.336 233.033 341.827 230.238 341.656 228.949C341.538 228.954 341.469 228.956 341.469 228.956C341.469 228.956 341.823 233.458 343.503 234.481C345.183 235.504 353.529 236.536 359.834 236.486C361.654 236.471 362.283 235.824 362.248 234.865C361.995 235.444 361.301 235.806 359.946 235.817Z" fill="black"/>
<path opacity="0.1" d="M404.834 218.64C408.995 218.64 412.368 218.07 412.368 217.367C412.368 216.664 408.995 216.094 404.834 216.094C400.673 216.094 397.3 216.664 397.3 217.367C397.3 218.07 400.673 218.64 404.834 218.64Z" fill="#00B2D9"/>
<path d="M399.774 211.452C399.774 211.452 404.072 211.319 405.367 210.398C406.662 209.476 411.978 208.375 412.299 209.853C412.621 211.332 418.758 217.206 413.906 217.246C409.054 217.285 402.632 216.49 401.339 215.703C400.047 214.916 399.774 211.452 399.774 211.452Z" fill="#A8A8A8"/>
<path opacity="0.2" d="M413.993 216.731C409.14 216.77 402.719 215.976 401.426 215.189C400.441 214.589 400.049 212.439 399.918 211.446C399.827 211.45 399.774 211.452 399.774 211.452C399.774 211.452 400.047 214.916 401.339 215.703C402.632 216.49 409.054 217.285 413.906 217.246C415.307 217.234 415.79 216.736 415.764 215.999C415.569 216.444 415.035 216.723 413.993 216.731Z" fill="black"/>
<path opacity="0.1" d="M370.65 300.886C380.583 300.886 388.636 299.525 388.636 297.847C388.636 296.168 380.583 294.808 370.65 294.808C360.716 294.808 352.664 296.168 352.664 297.847C352.664 299.525 360.716 300.886 370.65 300.886Z" fill="#00B2D9"/>
<path d="M358.571 283.725C358.571 283.725 368.83 283.409 371.922 281.209C375.014 279.008 387.704 276.38 388.472 279.91C389.239 283.439 403.89 297.463 392.307 297.557C380.724 297.65 365.393 295.753 362.307 293.874C359.221 291.995 358.571 283.725 358.571 283.725Z" fill="#A8A8A8"/>
<path opacity="0.2" d="M392.514 296.328C380.93 296.421 365.599 294.525 362.513 292.646C360.163 291.215 359.227 286.081 358.913 283.712C358.696 283.721 358.571 283.725 358.571 283.725C358.571 283.725 359.221 291.996 362.307 293.874C365.393 295.753 380.724 297.65 392.307 297.557C395.65 297.53 396.805 296.341 396.742 294.58C396.277 295.644 395.002 296.308 392.514 296.328Z" fill="black"/>
<path d="M560.561 190.87C560.561 202.936 555.9 214.536 547.549 223.25C539.198 231.963 527.803 237.117 515.742 237.635C503.681 238.153 491.886 233.996 482.817 226.031C473.749 218.066 468.109 206.909 467.073 194.887C467.005 194.127 466.954 193.366 466.931 192.595V192.555C466.909 191.993 466.897 191.432 466.897 190.87C466.901 178.458 471.837 166.556 480.619 157.781C489.402 149.007 501.311 144.077 513.729 144.077C526.147 144.077 538.056 149.007 546.839 157.781C555.621 166.556 560.557 178.458 560.561 190.87Z" fill="#65617D"/>
<path opacity="0.2" d="M560.561 190.87C560.561 202.936 555.9 214.536 547.549 223.25C539.198 231.963 527.803 237.117 515.742 237.635C503.681 238.153 491.886 233.996 482.817 226.031C473.749 218.066 468.109 206.909 467.073 194.887C467.005 194.127 466.954 193.366 466.931 192.595V192.555C466.909 191.993 466.897 191.432 466.897 190.87C466.901 178.458 471.837 166.556 480.619 157.781C489.402 149.007 501.311 144.077 513.729 144.077C526.147 144.077 538.056 149.007 546.839 157.781C555.621 166.556 560.557 178.458 560.561 190.87Z" fill="black"/>
<path d="M513.728 216.402C527.836 216.402 539.273 204.971 539.273 190.87C539.273 176.769 527.836 165.338 513.728 165.338C499.62 165.338 488.183 176.769 488.183 190.87C488.183 204.971 499.62 216.402 513.728 216.402Z" fill="#DCE0ED"/>
<path d="M513.728 206.189C522.193 206.189 529.055 199.33 529.055 190.87C529.055 182.409 522.193 175.551 513.728 175.551C505.263 175.551 498.401 182.409 498.401 190.87C498.401 199.33 505.263 206.189 513.728 206.189Z" fill="#65617D"/>
<path d="M310.546 190.87C310.547 202.936 305.885 214.536 297.534 223.25C289.183 231.963 277.789 237.117 265.727 237.635C253.666 238.153 241.871 233.996 232.803 226.031C223.734 218.066 218.094 206.909 217.058 194.887C216.99 194.127 216.939 193.366 216.916 192.595V192.555C216.894 191.993 216.882 191.432 216.882 190.87C216.887 178.458 221.822 166.556 230.605 157.781C239.387 149.007 251.296 144.077 263.714 144.077C276.132 144.077 288.042 149.007 296.824 157.781C305.606 166.556 310.542 178.458 310.546 190.87Z" fill="#65617D"/>
<path opacity="0.2" d="M310.546 190.87C310.547 202.936 305.885 214.536 297.534 223.25C289.183 231.963 277.789 237.117 265.727 237.635C253.666 238.153 241.871 233.996 232.803 226.031C223.734 218.066 218.094 206.909 217.058 194.887C216.99 194.127 216.939 193.366 216.916 192.595V192.555C216.894 191.993 216.882 191.432 216.882 190.87C216.887 178.458 221.822 166.556 230.605 157.781C239.387 149.007 251.296 144.077 263.714 144.077C276.132 144.077 288.042 149.007 296.824 157.781C305.606 166.556 310.542 178.458 310.546 190.87Z" fill="black"/>
<path d="M263.713 216.402C277.821 216.402 289.258 204.971 289.258 190.87C289.258 176.769 277.821 165.338 263.713 165.338C249.605 165.338 238.168 176.769 238.168 190.87C238.168 204.971 249.605 216.402 263.713 216.402Z" fill="#DCE0ED"/>
<path d="M263.713 206.189C272.178 206.189 279.04 199.33 279.04 190.87C279.04 182.409 272.178 175.551 263.713 175.551C255.248 175.551 248.386 182.409 248.386 190.87C248.386 199.33 255.248 206.189 263.713 206.189Z" fill="#65617D"/>
<path d="M575.168 182.099L559.542 181.42L545.275 154.937L495 150.863L470.542 182.778L471.901 191.605L468.504 199.754L308.848 201.112V197.038H307.489L306.13 190.926H318.359L309.527 181.42L278.275 154.937C278.275 154.937 224.604 156.295 223.924 154.937C223.245 153.579 226.982 139.658 226.982 139.658L250.081 132.868L328.89 126.757C346.214 99.2552 361.84 86.3533 361.84 86.3533H564.298L573.809 135.245V135.36L575.168 182.099Z" fill="#444053"/>
<path d="M462.39 185.494C462.39 185.494 482.771 147.468 498.397 147.468H536.443C536.443 147.468 545.954 147.468 550.031 154.937L565.657 185.494H553.428C553.428 185.494 543.237 156.974 531.687 156.295C520.138 155.616 500.435 156.295 500.435 156.295C500.435 156.295 493.641 156.295 489.565 164.444C485.489 172.592 471.707 190.342 471.707 190.342C471.707 190.342 456.954 195.001 462.39 185.494Z" fill="#33323D"/>
<path d="M584 179.383H558.445L558.183 199.754L584 193.643V179.383Z" fill="#33323D"/>
<path d="M214.413 167.16C214.413 167.16 215.772 156.974 225.283 152.9L287.787 149.505C287.787 149.505 297.978 150.184 303.413 163.086L321.077 189.568V193.643H301.375C301.375 193.643 291.863 157.653 264.688 159.011H232.077C232.077 159.011 224.604 159.011 221.886 171.234L214.413 167.16Z" fill="#33323D"/>
<path d="M361.161 90.4275H569.733C569.733 88.4465 568.945 86.5466 567.544 85.1458C566.142 83.745 564.242 82.958 562.26 82.958H368.634C367.653 82.958 366.681 83.1512 365.774 83.5266C364.867 83.902 364.044 84.4522 363.35 85.1458C362.656 85.8394 362.105 86.6628 361.73 87.5691C361.354 88.4753 361.161 89.4466 361.161 90.4275Z" fill="#33323D"/>
<path opacity="0.3" d="M405.859 130.491H348.142C347.492 130.491 346.852 130.329 346.281 130.019C345.71 129.709 345.225 129.261 344.87 128.716C344.516 128.171 344.304 127.547 344.252 126.899C344.201 126.251 344.312 125.601 344.577 125.007L353.709 104.468C355.118 101.3 357.417 98.6075 360.326 96.718C363.235 94.8285 366.63 93.8228 370.099 93.8228H405.166C405.811 93.8228 406.449 93.9497 407.045 94.1964C407.641 94.4431 408.182 94.8046 408.638 95.2604C409.094 95.7162 409.456 96.2573 409.703 96.8528C409.95 97.4483 410.077 98.0866 410.077 98.7312V126.275C410.077 126.829 409.968 127.377 409.756 127.889C409.544 128.4 409.233 128.865 408.841 129.256C408.45 129.648 407.985 129.958 407.473 130.17C406.961 130.382 406.413 130.491 405.859 130.491Z" fill="#00B2D9"/>
<path opacity="0.3" d="M478.508 93.8228H427.927C426.323 93.8228 425.023 95.1222 425.023 96.7252V127.589C425.023 129.192 426.323 130.491 427.927 130.491H478.508C480.112 130.491 481.412 129.192 481.412 127.589V96.7252C481.412 95.1222 480.112 93.8228 478.508 93.8228Z" fill="#00B2D9"/>
<path d="M573.809 135.244V135.36L486.168 136.603L483.885 86.3535H564.298L573.809 135.244Z" fill="#33323D"/>
<path opacity="0.3" d="M555.279 93.8228H496.545C494.941 93.8228 493.641 95.1222 493.641 96.7252V127.589C493.641 129.192 494.941 130.491 496.545 130.491H555.279C556.883 130.491 558.183 129.192 558.183 127.589V96.7252C558.183 95.1222 556.883 93.8228 555.279 93.8228Z" fill="#00B2D9"/>
<path d="M413.23 143.393H393.335C392.826 143.393 392.413 143.806 392.413 144.315V146.545C392.413 147.054 392.826 147.467 393.335 147.467H413.23C413.74 147.467 414.153 147.054 414.153 146.545V144.315C414.153 143.806 413.74 143.393 413.23 143.393Z" fill="#33323D"/>
<path d="M475.734 143.393H455.839C455.329 143.393 454.916 143.806 454.916 144.315V146.545C454.916 147.054 455.329 147.467 455.839 147.467H475.734C476.244 147.467 476.657 147.054 476.657 146.545V144.315C476.657 143.806 476.244 143.393 475.734 143.393Z" fill="#33323D"/>
<path d="M222.235 243.661C222.235 250.921 219.43 257.902 214.405 263.145C209.38 268.388 202.523 271.489 195.266 271.801C188.008 272.113 180.91 269.611 175.454 264.819C169.997 260.026 166.603 253.312 165.98 246.078C165.939 245.62 165.908 245.163 165.895 244.698V244.674C165.881 244.336 165.874 243.999 165.874 243.661C165.884 236.197 168.857 229.042 174.141 223.768C179.425 218.493 186.587 215.531 194.054 215.531C201.522 215.531 208.684 218.493 213.968 223.768C219.252 229.042 222.225 236.197 222.235 243.661Z" fill="#65617D"/>
<path d="M194.054 259.024C202.543 259.024 209.425 252.145 209.425 243.66C209.425 235.176 202.543 228.297 194.054 228.297C185.564 228.297 178.682 235.176 178.682 243.66C178.682 252.145 185.564 259.024 194.054 259.024Z" fill="#DCE0ED"/>
<path d="M194.054 252.878C199.147 252.878 203.276 248.751 203.276 243.66C203.276 238.569 199.147 234.442 194.054 234.442C188.96 234.442 184.831 238.569 184.831 243.66C184.831 248.751 188.96 252.878 194.054 252.878Z" fill="#65617D"/>
<path d="M120.048 190.172L52.1894 191.538V181.524C52.7975 173.477 61.0534 170.654 68.5887 169.769C74.4638 169.103 80.412 169.549 86.122 171.084C100.52 174.894 109.701 175.631 114.21 175.703C115.202 175.718 116.158 176.075 116.917 176.713C117.677 177.351 118.192 178.232 118.377 179.206C118.593 180.35 118.804 181.596 119.002 182.825C119.153 183.788 119.296 184.737 119.426 185.621C119.798 188.185 120.048 190.172 120.048 190.172Z" fill="#65617D"/>
<path d="M174.185 245.48H33.2181C32.1297 245.491 31.0621 245.183 30.148 244.592C29.2339 244.001 28.5138 243.155 28.0773 242.158C27.015 239.622 28.5009 238.003 30.0858 237.054C33.3293 235.133 35.7881 232.126 37.0267 228.567C38.5297 224.146 39.9985 217.184 40.5757 206.334C41.1701 195.112 45.2349 189.564 49.6276 186.878H49.631C55.3047 183.409 61.5248 184.71 61.5248 184.71L118.681 185.167C119.699 185.628 120.64 186.242 121.472 186.987C126.565 191.726 119.139 197.912 119.139 197.912C103.198 214.754 115.266 231.824 115.266 231.824H144.512C149.976 231.852 155.319 230.217 159.832 227.136C163.784 224.409 165.314 221.766 165.905 220.168C166.356 218.946 166.813 217.727 167.36 216.546C175.032 199.916 165.778 172.863 161.785 162.747C160.795 160.231 160.129 158.763 160.129 158.763L169.3 158.07L175.1 157.629L175.158 157.626C187.94 179.66 192.691 202.302 194.29 219.079C194.44 220.66 194.563 222.193 194.662 223.664C194.844 226.463 194.449 229.269 193.502 231.908C192.555 234.548 191.076 236.965 189.156 239.01C187.237 241.055 184.917 242.685 182.342 243.798C179.767 244.911 176.99 245.483 174.185 245.48Z" fill="#00B2D9"/>
<path opacity="0.1" d="M119.426 185.621H52.1894V182.825H119.002C119.153 183.788 119.296 184.737 119.426 185.621Z" fill="black"/>
<path opacity="0.1" d="M121.472 186.987H50.1707C49.9852 186.988 49.8015 186.951 49.631 186.878C55.3047 183.409 61.5248 184.71 61.5248 184.71L118.681 185.167C119.699 185.628 120.64 186.242 121.472 186.987Z" fill="black"/>
<path d="M121.962 184H50.0383C49.4649 184 49 184.448 49 185C49 185.552 49.4649 186 50.0383 186H121.962C122.535 186 123 185.552 123 185C123 184.448 122.535 184 121.962 184Z" fill="#DCE0ED"/>
<path opacity="0.1" d="M194.29 219.079C191.042 222.609 188.651 223.999 188.763 220.274C189.105 209.008 169.3 158.07 169.3 158.07L175.158 157.626C187.94 179.66 192.691 202.302 194.29 219.079Z" fill="black"/>
<path opacity="0.1" d="M222.064 240.574C218.699 241.38 214.539 242.199 209.408 242.95C207.502 243.23 205.457 243.499 203.274 243.756C198.037 244.378 191.981 244.92 184.985 245.337C183.004 245.456 180.947 245.564 178.813 245.661C174.817 245.842 170.539 245.981 165.98 246.078L165.895 244.698V244.675C172.265 242.104 182.287 235.245 183.903 217.379C187.929 215.828 192.257 215.222 196.554 215.607C200.852 215.991 205.004 217.356 208.69 219.597C212.377 221.838 215.499 224.894 217.818 228.531C220.137 232.168 221.589 236.288 222.064 240.574Z" fill="black"/>
<path d="M160.583 245.48C160.583 245.48 192.931 241.978 181.795 192.71C181.795 192.71 197.779 207.354 207.721 215.494C217.663 223.635 235.382 234.856 235.382 234.856C235.382 234.856 224.8 244.741 160.583 245.48Z" fill="#00B2D9"/>
<path opacity="0.1" d="M160.583 245.48C160.583 245.48 192.931 241.978 181.795 192.71C181.795 192.71 197.779 207.354 207.721 215.494C217.663 223.635 235.382 234.856 235.382 234.856C235.382 234.856 224.8 244.741 160.583 245.48Z" fill="white"/>
<path d="M74.1633 271.827C89.7269 271.827 102.344 259.216 102.344 243.661C102.344 228.105 89.7269 215.494 74.1633 215.494C58.5997 215.494 45.983 228.105 45.983 243.661C45.983 259.216 58.5997 271.827 74.1633 271.827Z" fill="#65617D"/>
<path d="M74.1633 259.024C82.6525 259.024 89.5344 252.145 89.5344 243.66C89.5344 235.176 82.6525 228.297 74.1633 228.297C65.6741 228.297 58.7922 235.176 58.7922 243.66C58.7922 252.145 65.6741 259.024 74.1633 259.024Z" fill="#DCE0ED"/>
<path d="M74.1633 252.878C79.2568 252.878 83.3859 248.751 83.3859 243.66C83.3859 238.569 79.2568 234.442 74.1633 234.442C69.0698 234.442 64.9406 238.569 64.9406 243.66C64.9406 248.751 69.0698 252.878 74.1633 252.878Z" fill="#65617D"/>
<path opacity="0.1" d="M105.759 235.202C105.759 217.012 91.3075 202.267 73.4801 202.267C55.6527 202.267 41.2008 217.012 41.2008 235.202C41.2008 235.969 41.2287 236.73 41.2793 237.484H105.681C105.732 236.73 105.759 235.969 105.759 235.202Z" fill="black"/>
<path d="M104.564 234.634C104.564 217.119 90.6472 202.919 73.4801 202.919C56.313 202.919 42.3963 217.119 42.3963 234.634C42.3963 235.373 42.4232 236.106 42.4719 236.832H104.488C104.537 236.106 104.564 235.373 104.564 234.634Z" fill="#00B2D9"/>
<path opacity="0.1" d="M104.564 234.634C104.564 235.143 104.55 235.648 104.526 236.15C104.516 236.378 104.502 236.604 104.489 236.833H42.4715C42.4579 236.604 42.4442 236.378 42.4339 236.15C42.41 235.648 42.3964 235.143 42.3964 234.634C42.3964 217.12 56.3123 202.92 73.4801 202.92C90.6479 202.92 104.564 217.12 104.564 234.634Z" fill="white"/>
<path opacity="0.1" d="M104.526 236.15C104.516 236.378 104.502 236.604 104.489 236.832H42.4715C42.4579 236.604 42.4442 236.378 42.4339 236.15H104.526Z" fill="black"/>
<path opacity="0.1" d="M188.734 189.321C190.793 188.39 190.561 183.435 188.217 178.253C185.872 173.071 182.303 169.625 180.244 170.555C178.186 171.485 178.417 176.441 180.762 181.623C183.106 186.804 186.676 190.251 188.734 189.321Z" fill="black"/>
<path d="M189.076 188.979C191.135 188.049 190.903 183.094 188.558 177.912C186.214 172.73 182.644 169.283 180.586 170.214C178.527 171.144 178.759 176.099 181.103 181.281C183.448 186.463 187.017 189.91 189.076 188.979Z" fill="#DCE0ED"/>
<path opacity="0.1" d="M175.1 157.629V162.979H164.682C163.712 162.98 162.743 162.902 161.785 162.747C160.795 160.231 160.129 158.763 160.129 158.763L169.3 158.07L175.1 157.629Z" fill="black"/>
<path d="M175.1 162.296H164.682C155.532 162.296 148.115 155.454 148.115 147.013V145.595C148.115 137.155 155.532 130.313 164.682 130.313L175.1 131.258V162.296Z" fill="#00B2D9"/>
<path d="M157.936 139.36C157.936 139.36 164.17 142.689 160.583 148.322C160.583 148.322 156.185 155.535 149.268 154.852L146.749 139.36C146.749 139.36 155.032 138.592 157.936 139.36Z" fill="#00B2D9"/>
<path opacity="0.1" d="M155.543 139.059C156.532 139.098 157.501 139.358 158.377 139.82C159.253 140.282 160.014 140.934 160.604 141.729C161.714 143.265 162.376 145.506 160.583 148.322C160.583 148.322 156.185 155.534 149.268 154.852L146.749 139.36C149.672 139.093 152.608 138.992 155.543 139.059Z" fill="black"/>
<path opacity="0.1" d="M174.759 131.258C175.858 131.258 176.946 131.475 177.961 131.895C178.976 132.315 179.899 132.931 180.676 133.708C181.453 134.485 182.07 135.407 182.49 136.422C182.911 137.437 183.127 138.524 183.127 139.623V153.931C183.127 156.15 182.246 158.277 180.676 159.846C179.107 161.414 176.978 162.296 174.759 162.296V131.258Z" fill="black"/>
<path d="M175.1 131.258C177.32 131.258 179.448 132.14 181.018 133.708C182.587 135.277 183.469 137.404 183.469 139.623V153.931C183.469 156.15 182.587 158.277 181.018 159.846C179.448 161.414 177.32 162.296 175.1 162.296V131.258Z" fill="#DCE0ED"/>
<path d="M146.028 155.833C149.85 155.833 152.949 152.065 152.949 147.417C152.949 142.769 149.85 139.001 146.028 139.001C142.205 139.001 139.106 142.769 139.106 147.417C139.106 152.065 142.205 155.833 146.028 155.833Z" fill="#00B2D9"/>
<path d="M72.3201 186.323L75.3444 193.054L80.3986 186.323" stroke="black" stroke-miterlimit="10"/>
</g>
<defs>
<clipPath id="clip0">
<rect width="584" height="311" fill="white"/>
</clipPath>
</defs>
</svg>
